<VTKFile type="UnstructuredGrid" version="0.1">
<UnstructuredGrid>
<Piece  NumberOfPoints="     388" NumberOfCells="      84">
<Points>
<DataArray type="Float64" NumberOfComponents="3" format="ascii">
-0.76405 -6.49259 0.0
-0.724064 -6.47253 0.0
-4.11566 -5.62781 0.0
-4.22821 -6.40156 0.0
-0.654678 -6.39312 0.0
-3.81056 -4.76428 0.0
-4.0979 -5.56995 0.0
-0.706302 -6.41468 0.0
-0.562354 -6.31683 0.0
-3.31657 -3.97108 0.0
-3.77976 -4.70849 0.0
-0.623881 -6.33734 0.0
-0.450659 -6.25083 0.0
-2.65649 -3.30367 0.0
-3.27408 -3.92261 0.0
-0.519865 -6.26835 0.0
-0.323926 -6.19911 0.0
-1.86355 -2.79868 0.0
-2.60444 -3.26521 0.0
-0.398606 -6.21237 0.0
-0.186626 -6.16425 0.0
-0.977635 -2.48217 0.0
-1.8044 -2.77204 0.0
-0.26478 -6.17247 0.0
-0.0432744 -6.14784 0.0
-0.0432746 -2.37023 0.0
-0.914117 -2.46854 0.0
-0.123108 -6.15062 0.0
0.101554 -6.15062 0.0
0.892564 -2.46854 0.0
0.0217207 -2.37023 0.0
0.0217209 -6.14784 0.0
0.243227 -6.17247 0.0
1.78285 -2.77204 0.0
0.956081 -2.48217 0.0
0.165072 -6.16425 0.0
0.377053 -6.21237 0.0
2.58289 -3.26521 0.0
1.842 -2.79868 0.0
0.302373 -6.19911 0.0
0.498312 -6.26835 0.0
3.25253 -3.92261 0.0
2.63494 -3.30367 0.0
0.429105 -6.25083 0.0
0.602327 -6.33734 0.0
3.75821 -4.70849 0.0
3.29502 -3.97108 0.0
0.5408 -6.31683 0.0
0.684748 -6.41468 0.0
4.07635 -5.56995 0.0
3.78901 -4.76428 0.0
0.633124 -6.39312 0.0
0.742497 -6.49259 0.0
4.20665 -6.40156 0.0
4.09411 -5.62781 0.0
0.70251 -6.47253 0.0
-4.59981 -6.35635 0.0
-4.48726 -5.58259 0.0
-8.3106 -4.71521 0.0
-8.52394 -6.3424 0.0
-4.45192 -5.44276 0.0
-4.16458 -4.63709 0.0
-7.69659 -2.93473 0.0
-8.27525 -4.57538 0.0
-4.09906 -4.50269 0.0
-3.63587 -3.76528 0.0
-6.69897 -1.31772 0.0
-7.63107 -2.80033 0.0
-3.54207 -3.64783 0.0
-2.92448 -3.0289 0.0
-5.3659 0.03887 0.0
-6.60516 -1.20027 0.0
-2.80685 -2.9351 0.0
-2.06596 -2.46857 0.0
-3.76432 1.06517 0.0
-5.24827 0.132673 0.0
-1.93038 -2.40326 0.0
-1.10361 -2.11339 0.0
-1.97447 1.70936 0.0
-3.62875 1.13048 0.0
-0.956881 -2.07989 0.0
-0.0860384 -1.98159 0.0
-0.086119 1.93912 0.0
-1.82774 1.74286 0.0
0.0644747 -1.98158 0.0
0.935318 -2.07989 0.0
1.80602 1.7429 0.0
0.0643941 1.93912 0.0
1.08205 -2.11339 0.0
1.90882 -2.40326 0.0
3.60704 1.13055 0.0
1.95275 1.7094 0.0
2.0444 -2.46856 0.0
2.78529 -2.93509 0.0
5.2266 0.132801 0.0
3.74262 1.06524 0.0
2.90292 -3.02889 0.0
3.52051 -3.64783 0.0
6.58345 -1.20016 0.0
5.34423 0.0389987 0.0
3.61431 -3.76527 0.0
4.0775 -4.50268 0.0
7.6094 -2.80019 0.0
6.67725 -1.31761 0.0
4.14302 -4.63708 0.0
4.43037 -5.44276 0.0
8.25376 -4.57535 0.0
7.67492 -2.9346 0.0
4.46571 -5.58259 0.0
4.57825 -6.35635 0.0
8.50239 -6.3424 0.0
8.2891 -4.71519 0.0
-10.9313 -6.32507 0.0
-8.83898 -6.30518 0.0
-8.62564 -4.67799 0.0
-10.6717 -4.20707 0.0
-10.8541 -4.18313 0.0
-10.6113 -4.00578 0.0
-8.56519 -4.4767 0.0
-7.98652 -2.83605 0.0
-9.69756 -2.02418 0.0
-9.60343 -1.82761 0.0
-7.89239 -2.63948 0.0
-6.96029 -1.15687 0.0
-8.44782 0.0161058 0.0
-9.7821 -1.71905 0.0
-8.31427 0.19371 0.0
-6.82674 -0.979261 0.0
-5.58747 0.259878 0.0
-6.90478 1.89554 0.0
-8.46453 0.339984 0.0
-6.83501 2.19193 0.0
-6.73698 2.03672 0.0
-5.41967 0.401058 0.0
-3.93572 1.33355 0.0
-4.85639 3.22185 0.0
-4.7176 3.49132 0.0
-4.65686 3.31858 0.0
-3.73619 1.43028 0.0
-2.08192 2.00916 0.0
-2.55934 4.05499 0.0
-2.36406 4.28682 0.0
-2.34328 4.10489 0.0
-1.86586 2.05906 0.0
-0.124243 2.25531 0.0
-0.134476 4.35609 0.0
0.107487 4.53865 0.0
0.0872677 4.35665 0.0
0.0975004 2.25588 0.0
1.83912 2.05966 0.0
2.29659 4.11005 0.0
2.57311 4.23419 0.0
2.5129 4.06126 0.0
2.05543 2.01087 0.0
3.70972 1.43202 0.0
4.61196 3.32922 0.0
4.90917 3.38872 0.0
4.81199 3.23352 0.0
3.90975 1.33632 0.0
5.39373 0.403877 0.0
6.69552 2.05275 0.0
6.99851 2.04463 0.0
6.86923 1.91495 0.0
5.56745 0.266071 0.0
6.80667 -0.973093 0.0
8.44277 0.344697 0.0
8.73634 0.269425 0.0
8.58146 0.171751 0.0
6.94536 -1.14604 0.0
7.8775 -2.62862 0.0
9.76597 -1.7087 0.0
10.0354 -1.84661 0.0
9.86271 -1.90756 0.0
7.97425 -2.82748 0.0
8.55309 -4.46823 0.0
10.5984 -3.99723 0.0
10.8309 -4.18344 0.0
10.6493 -4.20694 0.0
8.60397 -4.67795 0.0
8.81726 -6.30516 0.0
10.9054 -6.32505 0.0
-15.2188 -6.28663 0.0
-13.1897 -6.25206 0.0
-12.8789 -3.75908 0.0
-14.8661 -3.28057 0.0
-15.0527 -3.30253 0.0
-14.7854 -2.98758 0.0
-12.7982 -3.46609 0.0
-11.93 -0.992853 0.0
-13.608 -0.222483 0.0
-13.473 0.0600322 0.0
-11.795 -0.710337 0.0
-10.3951 1.51753 0.0
-11.8599 2.64315 0.0
-13.618 0.204611 0.0
-11.6659 2.89649 0.0
-10.2011 1.77087 0.0
-8.33992 3.63175 0.0
-9.63937 5.20956 0.0
-11.7758 3.07056 0.0
-9.45594 5.58848 0.0
-9.39721 5.41037 0.0
-8.09775 3.83257 0.0
-5.86944 5.23301 0.0
-6.78623 7.06178 0.0
-6.51725 7.38649 0.0
-6.50042 7.20056 0.0
-5.58362 5.37179 0.0
-3.09949 6.24115 0.0
-3.58636 8.22809 0.0
-3.25184 8.48478 0.0
-3.2768 8.29976 0.0
-2.78993 6.31283 0.0
-0.17463 6.60763 0.0
-0.207161 8.65309 0.0
0.176095 8.8289 0.0
0.110588 8.65408 0.0
0.143118 6.60863 0.0
2.75845 6.31407 0.0
3.18189 8.31549 0.0
3.59466 8.40161 0.0
3.49189 8.24575 0.0
3.06845 6.24434 0.0
5.55266 5.37521 0.0
6.41085 7.23222 0.0
6.83243 7.22433 0.0
6.69756 7.09525 0.0
5.83938 5.23824 0.0
8.06791 3.83811 0.0
9.3178 5.4576 0.0
9.72706 5.3561 0.0
9.56684 5.26026 0.0
8.31695 3.64078 0.0
10.178 1.7799 0.0
11.757 3.08062 0.0
12.1334 2.89063 0.0
11.9559 2.83284 0.0
10.3769 1.53213 0.0
11.7771 -0.695555 0.0
13.606 0.220623 0.0
13.9307 -0.0478997 0.0
13.7448 -0.0648066 0.0
11.9159 -0.980984 0.0
12.785 -3.45508 0.0
14.7718 -2.9759 0.0
15.0292 -3.30299 0.0
14.8442 -3.27973 0.0
12.8574 -3.75891 0.0
13.168 -6.25201 0.0
15.1928 -6.28658 0.0
-13.3146 4.28981 0.0
-11.9209 3.2207 0.0
-9.78448 5.3597 0.0
-9.84321 5.53781 0.0
-10.8525 6.7526 0.0
-10.5682 6.98423 0.0
-9.55894 5.76943 0.0
-6.88923 7.24274 0.0
-6.90607 7.42867 0.0
-7.61946 8.83694 0.0
-7.29076 8.99411 0.0
-6.57737 7.58583 0.0
-3.64648 8.42743 0.0
-3.62152 8.61244 0.0
-4.00365 10.1441 0.0
-3.64823 10.2242 0.0
-3.26609 8.6925 0.0
-0.221413 8.8608 0.0
-0.155905 9.03562 0.0
-0.187624 10.614 0.0
0.176703 10.6129 0.0
0.208422 9.03458 0.0
3.21422 8.52117 0.0
3.31698 8.67703 0.0
3.63727 10.2229 0.0
3.99223 10.1408 0.0
3.67194 8.59494 0.0
6.48813 7.42555 0.0
6.623 7.55463 0.0
7.27924 8.99043 0.0
7.60704 8.83142 0.0
6.9508 7.39562 0.0
9.43616 5.62888 0.0
9.59638 5.72472 0.0
10.5557 6.97849 0.0
10.8398 6.75052 0.0
9.88057 5.49675 0.0
11.9105 3.22127 0.0
12.088 3.27906 0.0
13.3022 4.28795 0.0
-15.3878 1.05739 0.0
-13.7898 0.323836 0.0
-12.0317 2.76237 0.0
-12.1416 2.93645 0.0
-13.5352 4.00556 0.0
13.5286 4.00247 0.0
12.3143 2.99358 0.0
13.787 0.323576 0.0
13.9729 0.340483 0.0
15.3811 1.05412 0.0
-15.1673 -2.93481 0.0
-14.9807 -2.91285 0.0
-13.8033 -0.147751 0.0
-13.9483 -0.00317204 0.0
-15.5463 0.730379 0.0
-16.6973 -2.54945 0.0
15.5382 0.725759 0.0
14.13 0.012117 0.0
14.9711 -2.91588 0.0
15.1561 -2.93915 0.0
16.688 -2.55329 0.0
-17.195 -6.23537 0.0
-15.426 -6.271 0.0
-15.2598 -3.28689 0.0
-16.7899 -2.90153 0.0
16.7683 -2.90159 0.0
15.2364 -3.28745 0.0
15.4 -6.27104 0.0
17.1733 -6.23541 0.0
-10.0484 1.62139 0.0
-8.61582 0.492868 0.0
-7.05608 2.04842 0.0
-7.15411 2.20363 0.0
-8.18715 3.48228 0.0
-7.97775 3.65462 0.0
-6.9447 2.37597 0.0
-4.96608 3.40589 0.0
-5.02683 3.57864 0.0
-5.74943 5.05506 0.0
-5.50619 5.17158 0.0
-4.78359 3.69516 0.0
-2.62532 4.25883 0.0
-2.64611 4.44076 0.0
-3.02206 6.04094 0.0
-2.759 6.10041 0.0
-2.38304 4.50023 0.0
-0.15345 4.5695 0.0
-0.13323 4.75149 0.0
-0.143694 6.39521 0.0
0.126012 6.39465 0.0
0.136475 4.75093 0.0
2.32558 4.32233 0.0
2.38579 4.49526 0.0
2.74134 6.1001 0.0
3.00416 6.03954 0.0
2.64861 4.4347 0.0
4.68745 3.52973 0.0
4.78463 3.68493 0.0
5.48837 5.17041 0.0
5.73113 5.05288 0.0
5.02739 3.5674 0.0
6.81374 2.23143 0.0
6.94301 2.36111 0.0
7.95965 3.65275 0.0
8.17017 3.48415 0.0
7.15353 2.19252 0.0
8.59779 0.492591 0.0
8.75267 0.590266 0.0
10.0312 1.62328 0.0
-11.6101 -0.817672 0.0
-9.96172 -1.59976 0.0
-8.62745 0.135394 0.0
-8.7777 0.281668 0.0
-10.2102 1.41019 0.0
10.1989 1.41211 0.0
8.92038 0.379097 0.0
9.95 -1.59903 0.0
10.1227 -1.53808 0.0
11.5991 -0.815573 0.0
11.7156 -1.05821 0.0
10.2391 -1.78071 0.0
10.8021 -3.93133 0.0
10.9838 -3.90783 0.0
12.5847 -3.53231 0.0
-10.9957 -3.90661 0.0
-10.8133 -3.93055 0.0
-9.89959 -1.94895 0.0
-10.0783 -1.8404 0.0
-11.7266 -1.0583 0.0
-12.5949 -3.53154 0.0
12.6448 -3.7884 0.0
11.0438 -4.16392 0.0
11.1183 -6.30554 0.0
12.9553 -6.2815 0.0
-11.067 -4.16356 0.0
-12.6662 -3.78849 0.0
-12.977 -6.28147 0.0
-11.1442 -6.3055 0.0
</DataArray>
</Points>
<Cells>
<DataArray type="Int32" Name="connectivity" format="ascii">
0 1 2 3 
4 5 6 7 
8 9 10 11 
12 13 14 15 
16 17 18 19 
20 21 22 23 
24 25 26 27 
28 29 30 31 
32 33 34 35 
36 37 38 39 
40 41 42 43 
44 45 46 47 
48 49 50 51 
52 53 54 55 
56 57 58 59 
60 61 62 63 
64 65 66 67 
68 69 70 71 
72 73 74 75 
76 77 78 79 
80 81 82 83 
84 85 86 87 
88 89 90 91 
92 93 94 95 
96 97 98 99 
100 101 102 103 
104 105 106 107 
108 109 110 111 
112 113 114 115 116 
117 118 119 120 
121 122 123 124 125 
126 127 128 129 130 
131 132 133 134 135 
136 137 138 139 140 
141 142 143 144 145 
146 147 148 149 150 
151 152 153 154 155 
156 157 158 159 160 
161 162 163 164 165 
166 167 168 169 170 
171 172 173 174 175 
176 177 178 179 180 
181 182 183 184 185 
186 187 188 189 
190 191 192 193 194 
195 196 197 198 199 
200 201 202 203 204 
205 206 207 208 209 
210 211 212 213 214 
215 216 217 218 219 
220 221 222 223 224 
225 226 227 228 229 
230 231 232 233 234 
235 236 237 238 239 
240 241 242 243 244 
245 246 247 248 249 
250 251 252 253 254 
255 256 257 258 259 
260 261 262 263 264 
265 266 267 268 269 
270 271 272 273 274 
275 276 277 278 279 
280 281 282 283 284 
285 286 287 288 289 
290 291 292 293 294 
295 296 297 298 299 
300 301 302 303 304 305 
306 307 308 309 310 
311 312 313 314 
315 316 317 318 
319 320 321 322 323 
324 325 326 327 328 
329 330 331 332 333 
334 335 336 337 338 
339 340 341 342 343 
344 345 346 347 348 
349 350 351 352 353 
354 355 356 357 358 
359 360 361 362 363 
364 365 366 367 368 
369 370 371 372 373 
374 375 376 377 378 379 
380 381 382 383 
384 385 386 387 
</DataArray>
<DataArray type="Int32" Name="offsets" format="ascii">
4 8 12 16 20 24 28 32 36 40 44 48 52 56 60 64 68 72 76 80 84 88 92 96 100 104 108 112 117 121 126 131 136 141 146 151 156 161 166 171 176 181 186 190 195 200 205 210 215 220 225 230 235 240 245 250 255 260 265 270 275 280 285 290 295 300 306 311 315 319 324 329 334 339 344 349 354 359 364 369 374 380 384 388 
</DataArray>
<DataArray type="UInt8" Name="types" format="ascii">
7 7 7 7 7 7 7 7 7 7 7 7 7 7 7 7 7 7 7 7 7 7 7 7 7 7 7 7 7 7 7 7 7 7 7 7 7 7 7 7 7 7 7 7 7 7 7 7 7 7 7 7 7 7 7 7 7 7 7 7 7 7 7 7 7 7 7 7 7 7 7 7 7 7 7 7 7 7 7 7 7 7 7 7 
</DataArray>
</Cells>
<CellData Scalars="cell variable 4" Vectors="cell vector">
<DataArray type="Float64" NumberOfComponents="3" Name="cell vector" format="ascii">
0.9 2 0
0.9 2 0
0.9 2 0
0.9 2 0
0.9 2 0
0.9 2 0
0.9 2 0
0.9 2 0
0.9 2 0
0.9 2 0
0.9 2 0
0.9 2 0
0.9 2 0
0.9 2 0
0.9 0 0
0.9 0 0
0.9 0 0
0.9 0 0
0.9 0 0
0.9 0 0
0.9 0 0
0.9 0 0
0.9 0 0
0.9 0 0
0.9 0 0
0.9 0 0
0.9 0 0
0.9 0 0
0.454503 0 0
0.410776 0 0
0.411115 0 0
0.435174 0 0
0.456137 0 0
0.45613 0 0
0.456132 0 0
0.456133 0 0
0.456134 0 0
0.456135 0 0
0.456133 0 0
0.456103 0 0
0.455821 0 0
0.453768 0 0
0.460645 1 1.42929
0.416097 1 1.42929
0.416184 1 1.42929
0.439459 1 1.42929
0.460584 1 1.42929
0.460584 1 1.42929
0.460584 1 1.42929
0.460584 1 1.42929
0.460584 1 1.42929
0.460584 1 1.42929
0.460584 1 1.42929
0.46058 1 1.42929
0.460522 1 1.42929
0.459731 1 1.42929
0.460541 1 1.42929
0.439416 1 1.42929
0.439416 1 1.42929
0.439416 1 1.42929
0.439416 1 1.42929
0.439416 1 1.42929
0.439416 1 1.42929
0.439416 1 1.42929
0.483816 1 1.42929
0.43942 1 1.42929
0.483903 1 1.42929
0.439478 1 1.42929
0.439355 1 1.42929
0.440269 1 1.42929
0.464826 0 0
0.443863 0 0
0.44387 0 0
0.443868 0 0
0.443867 0 0
0.443866 0 0
0.443865 0 0
0.443867 0 0
0.488885 0 0
0.443897 0 0
0.444179 0 0
0.489224 0 0
0.446232 0 0
0.445497 0 0
</DataArray>
<DataArray type="Float64" Name="cell vector length" format="ascii">
0.0132283 0.012961 0.0127669 0.0125956 0.0125264 0.0125081 0.0125044 0.012504 0.0125057 0.0125155 0.012562 0.0127328 0.0131313 0.013309 0.160371 0.156399 0.155043 0.152806 0.151793 0.151513 0.151455 0.151448 0.15147 0.151606 0.152253 0.154679 0.160642 0.162071 0.533698 0.509624 0.549315 0.541281 0.535647 0.533955 0.53359 0.533541 0.533645 0.534273 0.537287 0.548958 0.577802 0.549335 2.14962 2.14226 2.62976 2.51835 2.48223 2.47593 2.47498 2.47495 2.47567 2.48018 2.50412 2.59647 2.75296 2.24437 2.45368 2.43746 2.43504 2.43471 2.43493 2.43668 2.44705 2.49741 2.55993 2.65869 3.14936 2.78303 1.64422 1.71619 0.887379 0.879666 0.878028 0.877744 0.877742 0.878011 0.87954 0.886948 0.909783 0.915182 0.974011 0.920814 0.890676 0.866789 
</DataArray>
<DataArray type="Float64" Name="cell variable 4" format="ascii">
0.0183907 0.0181701 0.0181372 0.0181213 0.0181175 0.0181169 0.0181168 0.0181168 0.0181169 0.0181173 0.01812 0.0181323 0.0181665 0.0183913 0.060567 0.0559542 0.0550966 0.0548025 0.0547457 0.0547398 0.0547397 0.0547398 0.0547401 0.0547439 0.0547765 0.0549683 0.0557109 0.0605589 0.133076 0.133524 0.114515 0.112989 0.112908 0.11295 0.112965 0.112968 0.112966 0.112961 0.112994 0.113512 0.117222 0.132171 0.33816 0.325606 0.317745 0.307481 0.306628 0.306631 0.30664 0.30664 0.306635 0.306647 0.307169 0.312057 0.330767 0.342437 0.346805 0.346977 0.347011 0.347016 0.347012 0.346995 0.347061 0.348935 0.349456 0.363201 0.387687 0.408788 0.413201 0.435691 0.129082 0.128908 0.12891 0.128914 0.128913 0.128905 0.128879 0.128894 0.130612 0.129918 0.13701 0.125993 0.168408 0.167974 
</DataArray>
</CellData>
</Piece>
</UnstructuredGrid>
</VTKFile>
