<VTKFile type="UnstructuredGrid" version="0.1">
<UnstructuredGrid>
<Piece  NumberOfPoints="     409" NumberOfCells="     306">
<Points>
<DataArray type="Float64" NumberOfComponents="3" format="ascii">
-0.371667 -5.00257 0 
-0.330579 -4.99141 0 
-0.283829 -4.98067 0 
-0.23271 -4.97114 0 
-0.178385 -4.96333 0 
-0.121837 -4.95757 0 
-0.0638975 -4.95405 0 
-0.00528946 -4.95286 0 
0.0533186 -4.95405 0 
0.111258 -4.95757 0 
0.167806 -4.96333 0 
0.222131 -4.97114 0 
0.27325 -4.98067 0 
0.32 -4.99141 0 
0.361088 -5.00257 0 
-3.40635 -4.95838 0 
-3.31471 -4.24518 0 
-3.0645 -3.535 0 
-2.66087 -2.89216 0 
-2.12358 -2.35424 0 
-1.47967 -1.94921 0 
-0.761524 -1.69768 0 
-0.00528946 -1.61239 0 
0.750945 -1.69768 0 
1.46909 -1.94921 0 
2.113 -2.35424 0 
2.65029 -2.89216 0 
3.05392 -3.535 0 
3.30413 -4.24518 0 
3.39577 -4.95838 0 
-6.80987 -4.95357 0 
-6.63214 -3.48997 0 
-6.12957 -2.05788 0 
-5.31982 -0.769383 0 
-4.2435 0.306934 0 
-2.95465 1.11678 0 
-1.51789 1.61952 0 
-0.00528946 1.78995 0 
1.50731 1.61952 0 
2.94407 1.11678 0 
4.23293 0.306934 0 
5.30925 -0.769383 0 
6.11899 -2.05788 0 
6.62156 -3.48997 0 
6.79929 -4.95357 0 
-10.2128 -4.9519 0 
-9.94995 -2.73412 0 
-9.1957 -0.581518 0 
-7.98047 1.3524 0 
-6.36528 2.96757 0 
-4.43118 4.18285 0 
-2.27515 4.93728 0 
-0.00529527 5.19304 0 
2.26456 4.93729 0 
4.42059 4.18286 0 
6.3547 2.96758 0 
7.96988 1.35241 0 
9.18511 -0.581512 0 
9.93938 -2.73412 0 
10.2022 -4.9519 0 
-13.5634 -4.95161 0 
-13.2168 -1.98932 0 
-12.2147 0.872262 0 
-10.6002 3.44159 0 
-8.45449 5.58737 0 
-5.88505 7.20186 0 
-3.02077 8.20411 0 
-0.00528285 8.54387 0 
3.0102 8.20411 0 
5.87448 7.20185 0 
8.44392 5.58737 0 
10.5897 3.44161 0 
12.2041 0.872272 0 
13.2062 -1.98932 0 
13.5529 -4.95161 0 
-9.35998 2.45515 0 
-7.46597 4.34452 0 
-7.56256 4.47218 0 
-5.19793 5.77029 0 
-5.26365 5.91617 0 
-2.66943 6.65553 0 
-2.70104 6.81238 0 
-0.0073456 6.95594 0 
-0.00326302 7.11589 0 
2.65484 6.65645 0 
2.69442 6.81148 0 
5.18364 5.77207 0 
5.25672 5.91441 0 
7.45225 4.34716 0 
7.55516 4.46966 0 
9.3469 2.45316 0 
-10.7859 0.18644 0 
-9.22501 2.34225 0 
9.47449 2.54969 0 
10.7726 0.185127 0 
-11.671 -2.34068 0 
-10.6293 0.10649 0 
10.9184 0.250871 0 
11.6574 -2.34134 0 
-11.9721 -4.96135 0 
-11.8275 -2.30849 0 
11.8141 -2.30915 0 
11.9578 -4.96135 0 
-0.567987 -4.97588 0.0
-0.531007 -4.96584 0.0
-3.21672 -4.29423 0.0
-3.2992 -4.93611 0.0
-0.475009 -4.90932 0.0
-2.97762 -3.60821 0.0
-3.2028 -4.24738 0.0
-0.517084 -4.91899 0.0
-0.40486 -4.85676 0.0
-2.5902 -2.98568 0.0
-2.95347 -3.56424 0.0
-0.450867 -4.86534 0.0
-0.322752 -4.81178 0.0
-2.07343 -2.4636 0.0
-2.55699 -2.94772 0.0
-0.371645 -4.81881 0.0
-0.23122 -4.77654 0.0
-1.45327 -2.06902 0.0
-2.03279 -2.43354 0.0
-0.282113 -4.78173 0.0
-0.132926 -4.75256 0.0
-0.76079 -1.82183 0.0
-1.40712 -2.04821 0.0
-0.185072 -4.75574 0.0
-0.0306351 -4.74086 0.0
-0.0306351 -1.73444 0.0
-0.711246 -1.81119 0.0
-0.0833823 -4.74193 0.0
0.0728034 -4.74193 0.0
0.700667 -1.81119 0.0
0.0200561 -1.73444 0.0
0.0200561 -4.74086 0.0
0.174493 -4.75574 0.0
1.39654 -2.04821 0.0
0.750211 -1.82183 0.0
0.122347 -4.75256 0.0
0.271534 -4.78173 0.0
2.02221 -2.43354 0.0
1.44269 -2.06902 0.0
0.220641 -4.77654 0.0
0.361066 -4.81881 0.0
2.54641 -2.94772 0.0
2.06285 -2.4636 0.0
0.312173 -4.81178 0.0
0.440288 -4.86534 0.0
2.94289 -3.56424 0.0
2.57963 -2.98568 0.0
0.394281 -4.85676 0.0
0.506505 -4.91899 0.0
3.19222 -4.24738 0.0
2.96704 -3.60821 0.0
0.46443 -4.90932 0.0
0.557408 -4.97588 0.0
3.28862 -4.93611 0.0
3.20614 -4.29423 0.0
0.520428 -4.96584 0.0
-3.58907 -4.90152 0.0
-3.5066 -4.25964 0.0
-6.49229 -3.57995 0.0
-6.65224 -4.89719 0.0
-3.47967 -4.14759 0.0
-3.25449 -3.50843 0.0
-6.01304 -2.17902 0.0
-6.46536 -3.46791 0.0
-3.20337 -3.40283 0.0
-2.8401 -2.82427 0.0
-5.23316 -0.913774 0.0
-5.96193 -2.07342 0.0
-2.76677 -2.73236 0.0
-2.28321 -2.24823 0.0
-4.19114 0.146825 0.0
-5.15983 -0.82186 0.0
-2.19125 -2.17489 0.0
-1.61173 -1.81036 0.0
-2.93921 0.949027 0.0
-4.09918 0.220165 0.0
-1.50575 -1.75932 0.0
-0.859416 -1.53294 0.0
-1.54015 1.45254 0.0
-2.83323 1.00007 0.0
-0.744723 -1.50676 0.0
-0.064112 -1.43 0.0
-0.064112 1.63211 0.0
-1.42546 1.47872 0.0
0.053533 -1.43 0.0
0.734144 -1.50676 0.0
1.41488 1.47872 0.0
0.053533 1.63211 0.0
0.848837 -1.53294 0.0
1.49517 -1.75932 0.0
2.82265 1.00007 0.0
1.52957 1.45254 0.0
1.60115 -1.81036 0.0
2.18067 -2.17489 0.0
4.0886 0.220165 0.0
2.92863 0.949027 0.0
2.27263 -2.24823 0.0
2.75619 -2.73236 0.0
5.14925 -0.82186 0.0
4.18056 0.146825 0.0
2.82953 -2.82427 0.0
3.1928 -3.40283 0.0
5.95135 -2.07342 0.0
5.22258 -0.913774 0.0
3.24391 -3.50843 0.0
3.46909 -4.14759 0.0
6.45478 -3.46791 0.0
6.00247 -2.17902 0.0
3.49602 -4.25964 0.0
3.5785 -4.90152 0.0
6.64166 -4.89719 0.0
6.48171 -3.57995 0.0
-6.82051 -3.5429 0.0
-9.80654 -2.86263 0.0
-10.0431 -4.85863 0.0
-6.98046 -4.86014 0.0
-6.32498 -2.06994 0.0
-9.0845 -0.741212 0.0
-9.76333 -2.67856 0.0
-6.7773 -3.35882 0.0
-5.51304 -0.737848 0.0
-7.90762 1.17176 0.0
-9.00133 -0.56877 0.0
-6.24181 -1.89749 0.0
-4.42486 0.380657 0.0
-6.33446 2.77523 0.0
-7.78813 1.32158 0.0
-5.39355 -0.588027 0.0
-3.11505 1.22901 0.0
-4.44393 3.98848 0.0
-6.18462 2.89473 0.0
-4.27502 0.500148 0.0
-1.6493 1.76463 0.0
-2.33083 4.75062 0.0
-4.27126 4.07163 0.0
-2.94238 1.31216 0.0
-0.101115 1.96067 0.0
-0.10112 5.02344 0.0
-2.14399 4.79326 0.0
-1.46246 1.80728 0.0
1.45188 1.80728 0.0
2.1334 4.79327 0.0
0.0905298 5.02344 0.0
0.090535 1.96067 0.0
2.9318 1.31216 0.0
4.26068 4.07164 0.0
2.32024 4.75062 0.0
1.63872 1.76463 0.0
4.26444 0.500148 0.0
6.17404 2.89473 0.0
4.43335 3.98848 0.0
3.10447 1.22901 0.0
5.38297 -0.588027 0.0
7.77754 1.32158 0.0
6.32388 2.77524 0.0
4.41428 0.380658 0.0
6.23123 -1.89749 0.0
8.99074 -0.568764 0.0
7.89703 1.17176 0.0
5.50246 -0.737848 0.0
6.76672 -3.35882 0.0
9.75275 -2.67855 0.0
9.07391 -0.741206 0.0
6.3144 -2.06994 0.0
6.80993 -3.5429 0.0
6.96988 -4.86014 0.0
10.0325 -4.85863 0.0
9.79596 -2.86263 0.0
-11.8764 -4.83702 0.0
-10.293 -4.82851 0.0
-10.0565 -2.83251 0.0
-11.6054 -2.47841 0.0
-11.7463 -2.44944 0.0
-11.5427 -2.24652 0.0
-9.99381 -2.60062 0.0
-9.31498 -0.663281 0.0
-10.6052 -0.0440732 0.0
-10.499 0.177704 0.0
-9.20878 -0.441503 0.0
-8.11507 1.29903 0.0
-9.23516 2.18989 0.0
-10.64 0.249658 0.0
-9.08354 2.38756 0.0
-7.96346 1.4967 0.0
-6.50979 2.95035 0.0
-7.5004 4.1896 0.0
-9.20501 2.48918 0.0
-7.3981 4.46102 0.0
-7.31117 4.34613 0.0
-6.32055 3.10688 0.0
-4.57986 4.20063 0.0
-5.26993 5.62932 0.0
-5.10579 5.86869 0.0
-5.04664 5.7374 0.0
-4.35657 4.30871 0.0
-2.41614 4.9877 0.0
-2.77099 6.53413 0.0
-2.55771 6.73097 0.0
-2.52926 6.58981 0.0
-2.1744 5.04339 0.0
-0.131532 5.27356 0.0
-0.133378 6.86018 0.0
0.118366 7.00463 0.0
0.114692 6.86067 0.0
0.116537 5.27406 0.0
2.15941 5.04388 0.0
2.51066 6.59113 0.0
2.78824 6.67594 0.0
2.75262 6.53641 0.0
2.40137 4.98917 0.0
4.3418 4.31018 0.0
5.02854 5.74047 0.0
5.31803 5.76139 0.0
5.25226 5.63329 0.0
4.56552 4.203 0.0
6.30621 3.10925 0.0
7.294 4.35087 0.0
7.58089 4.30684 0.0
7.48826 4.19659 0.0
6.50047 2.95497 0.0
7.95413 1.50131 0.0
9.19345 2.49199 0.0
9.46334 2.38524 0.0
9.3485 2.29836 0.0
8.10918 1.30768 0.0
9.20289 -0.432848 0.0
10.6316 0.257126 0.0
10.8709 0.0931602 0.0
10.7397 0.0339903 0.0
9.31096 -0.655984 0.0
9.9898 -2.59333 0.0
11.536 -2.23983 0.0
11.733 -2.45004 0.0
11.5919 -2.47901 0.0
10.0457 -2.83252 0.0
10.2823 -4.82852 0.0
11.8623 -4.83703 0.0
-10.4383 3.49441 0.0
-9.32205 2.60662 0.0
-7.61744 4.30705 0.0
-7.70438 4.42194 0.0
-8.50711 5.42562 0.0
-8.28492 5.60709 0.0
-7.48219 4.60341 0.0
-5.35401 5.77171 0.0
-5.41316 5.903 0.0
-5.97242 7.06013 0.0
-5.71534 7.18335 0.0
-5.15608 6.02623 0.0
-2.82129 6.69166 0.0
-2.84974 6.83282 0.0
-3.13749 8.08538 0.0
-2.85944 8.1483 0.0
-2.57168 6.89574 0.0
-0.147355 7.02495 0.0
-0.143681 7.1689 0.0
-0.145499 8.45409 0.0
0.139586 8.45356 0.0
0.141404 7.16838 0.0
2.5337 6.75488 0.0
2.56931 6.89441 0.0
2.85352 8.14778 0.0
3.13134 8.08383 0.0
2.84714 6.83046 0.0
5.08744 5.895 0.0
5.15321 6.0231 0.0
5.70919 7.1818 0.0
5.96582 7.05763 0.0
5.40983 5.89893 0.0
7.38581 4.48841 0.0
7.47844 4.59866 0.0
8.27831 5.60459 0.0
8.50088 5.42644 0.0
7.701 4.4205 0.0
9.31356 2.60565 0.0
9.42839 2.69253 0.0
10.4321 3.49525 0.0
-12.0638 0.959365 0.0
-10.778 0.342126 0.0
-9.37315 2.28236 0.0
-9.49463 2.38397 0.0
-10.6108 3.27176 0.0
10.6094 3.27204 0.0
9.60573 2.46932 0.0
10.774 0.341211 0.0
10.9053 0.40038 0.0
12.0624 0.959641 0.0
-11.8388 -2.15832 0.0
-11.6979 -2.18729 0.0
-10.7604 0.0151591 0.0
-10.9014 0.0871134 0.0
-12.1872 0.704353 0.0
-13.0892 -1.87107 0.0
12.1856 0.702694 0.0
11.0285 0.143433 0.0
11.6935 -2.18956 0.0
11.8346 -2.16058 0.0
13.0875 -1.87274 0.0
-13.4733 -4.81428 0.0
-12.0411 -4.82305 0.0
-11.911 -2.43547 0.0
-13.1613 -2.14822 0.0
13.1506 -2.14824 0.0
11.8976 -2.43608 0.0
12.027 -4.82307 0.0
13.4626 -4.8143 0.0
</DataArray>
</Points>
<Cells>
<DataArray type="Int32" Name="connectivity" format="ascii">
0 1 104 103 1 16 105 104 16 15 106 105 15 0 103 106 2 17 108 107 17 16 109 108 16 1 110 109 1 2 107 110 3 18 112 111 18 17 113 112 17 2 114 113 2 3 111 114 4 19 116 115 19 18 117 116 18 3 118 117 3 4 115 118 5 20 120 119 20 19 121 120 19 4 122 121 4 5 119 122 6 21 124 123 21 20 125 124 20 5 126 125 5 6 123 126 7 22 128 127 22 21 129 128 21 6 130 129 6 7 127 130 8 23 132 131 23 22 133 132 22 7 134 133 7 8 131 134 9 24 136 135 24 23 137 136 23 8 138 137 8 9 135 138 10 25 140 139 25 24 141 140 24 9 142 141 9 10 139 142 11 26 144 143 26 25 145 144 25 10 146 145 10 11 143 146 12 27 148 147 27 26 149 148 26 11 150 149 11 12 147 150 13 28 152 151 28 27 153 152 27 12 154 153 12 13 151 154 14 29 156 155 29 28 157 156 28 13 158 157 13 14 155 158 15 16 160 159 16 31 161 160 31 30 162 161 30 15 159 162 16 17 164 163 17 32 165 164 32 31 166 165 31 16 163 166 17 18 168 167 18 33 169 168 33 32 170 169 32 17 167 170 18 19 172 171 19 34 173 172 34 33 174 173 33 18 171 174 19 20 176 175 20 35 177 176 35 34 178 177 34 19 175 178 20 21 180 179 21 36 181 180 36 35 182 181 35 20 179 182 21 22 184 183 22 37 185 184 37 36 186 185 36 21 183 186 22 23 188 187 23 38 189 188 38 37 190 189 37 22 187 190 23 24 192 191 24 39 193 192 39 38 194 193 38 23 191 194 24 25 196 195 25 40 197 196 40 39 198 197 39 24 195 198 25 26 200 199 26 41 201 200 41 40 202 201 40 25 199 202 26 27 204 203 27 42 205 204 42 41 206 205 41 26 203 206 27 28 208 207 28 43 209 208 43 42 210 209 42 27 207 210 28 29 212 211 29 44 213 212 44 43 214 213 43 28 211 214 31 46 216 215 46 45 217 216 45 30 218 217 30 31 215 218 32 47 220 219 47 46 221 220 46 31 222 221 31 32 219 222 33 48 224 223 48 47 225 224 47 32 226 225 32 33 223 226 34 49 228 227 49 48 229 228 48 33 230 229 33 34 227 230 35 50 232 231 50 49 233 232 49 34 234 233 34 35 231 234 36 51 236 235 51 50 237 236 50 35 238 237 35 36 235 238 37 52 240 239 52 51 241 240 51 36 242 241 36 37 239 242 38 53 244 243 53 52 245 244 52 37 246 245 37 38 243 246 39 54 248 247 54 53 249 248 53 38 250 249 38 39 247 250 40 55 252 251 55 54 253 252 54 39 254 253 39 40 251 254 41 56 256 255 56 55 257 256 55 40 258 257 40 41 255 258 42 57 260 259 57 56 261 260 56 41 262 261 41 42 259 262 43 58 264 263 58 57 265 264 57 42 266 265 42 43 263 266 43 44 268 267 44 59 269 268 59 58 270 269 58 43 267 270 99 45 272 271 45 46 273 272 46 95 274 273 95 100 275 274 100 99 271 275 95 46 277 276 46 47 278 277 47 96 279 278 96 95 276 279 96 47 281 280 47 48 282 281 48 92 283 282 92 91 284 283 91 96 280 284 92 48 286 285 48 49 287 286 49 76 288 287 76 75 289 288 75 92 285 289 77 76 291 290 76 49 292 291 49 50 293 292 50 78 294 293 78 77 290 294 79 78 296 295 78 50 297 296 50 51 298 297 51 80 299 298 80 79 295 299 81 80 301 300 80 51 302 301 51 52 303 302 52 82 304 303 82 81 300 304 83 82 306 305 82 52 307 306 52 53 308 307 53 84 309 308 84 83 305 309 85 84 311 310 84 53 312 311 53 54 313 312 54 86 314 313 86 85 310 314 87 86 316 315 86 54 317 316 54 55 318 317 55 88 319 318 88 87 315 319 89 88 321 320 88 55 322 321 55 56 323 322 56 90 324 323 90 89 320 324 93 90 326 325 90 56 327 326 56 57 328 327 57 94 329 328 94 93 325 329 97 94 331 330 94 57 332 331 57 58 333 332 58 98 334 333 98 97 330 334 101 98 336 335 98 58 337 336 58 59 338 337 59 102 339 338 102 101 335 339 63 75 341 340 75 76 342 341 76 77 343 342 77 64 344 343 64 63 340 344 64 77 346 345 77 78 347 346 78 79 348 347 79 65 349 348 65 64 345 349 65 79 351 350 79 80 352 351 80 81 353 352 81 66 354 353 66 65 350 354 66 81 356 355 81 82 357 356 82 83 358 357 83 67 359 358 67 66 355 359 67 83 361 360 83 84 362 361 84 85 363 362 85 68 364 363 68 67 360 364 68 85 366 365 85 86 367 366 86 87 368 367 87 69 369 368 69 68 365 369 69 87 371 370 87 88 372 371 88 89 373 372 89 70 374 373 70 69 370 374 70 89 376 375 89 90 377 376 90 93 378 377 93 71 379 378 71 70 375 379 62 91 381 380 91 92 382 381 92 75 383 382 75 63 384 383 63 62 380 384 71 93 386 385 93 94 387 386 94 97 388 387 97 72 389 388 72 71 385 389 100 95 391 390 95 96 392 391 96 91 393 392 91 62 394 393 62 61 395 394 61 100 390 395 72 97 397 396 97 98 398 397 98 101 399 398 101 73 400 399 73 72 396 400 60 99 402 401 99 100 403 402 100 61 404 403 61 60 401 404 73 101 406 405 101 102 407 406 102 74 408 407 74 73 405 408 
</DataArray>
<DataArray type="Int32" Name="offsets" format="ascii">
4 8 12 16 20 24 28 32 36 40 44 48 52 56 60 64 68 72 76 80 84 88 92 96 100 104 108 112 116 120 124 128 132 136 140 144 148 152 156 160 164 168 172 176 180 184 188 192 196 200 204 208 212 216 220 224 228 232 236 240 244 248 252 256 260 264 268 272 276 280 284 288 292 296 300 304 308 312 316 320 324 328 332 336 340 344 348 352 356 360 364 368 372 376 380 384 388 392 396 400 404 408 412 416 420 424 428 432 436 440 444 448 452 456 460 464 468 472 476 480 484 488 492 496 500 504 508 512 516 520 524 528 532 536 540 544 548 552 556 560 564 568 572 576 580 584 588 592 596 600 604 608 612 616 620 624 628 632 636 640 644 648 652 656 660 664 668 672 676 680 684 688 692 696 700 704 708 712 716 720 724 728 732 736 740 744 748 752 756 760 764 768 772 776 780 784 788 792 796 800 804 808 812 816 820 824 828 832 836 840 844 848 852 856 860 864 868 872 876 880 884 888 892 896 900 904 908 912 916 920 924 928 932 936 940 944 948 952 956 960 964 968 972 976 980 984 988 992 996 1000 1004 1008 1012 1016 1020 1024 1028 1032 1036 1040 1044 1048 1052 1056 1060 1064 1068 1072 1076 1080 1084 1088 1092 1096 1100 1104 1108 1112 1116 1120 1124 1128 1132 1136 1140 1144 1148 1152 1156 1160 1164 1168 1172 1176 1180 1184 1188 1192 1196 1200 1204 1208 1212 1216 1220 1224 
</DataArray>
<DataArray type="UInt8" Name="types" format="ascii">
7 7 7 7 7 7 7 7 7 7 7 7 7 7 7 7 7 7 7 7 7 7 7 7 7 7 7 7 7 7 7 7 7 7 7 7 7 7 7 7 7 7 7 7 7 7 7 7 7 7 7 7 7 7 7 7 7 7 7 7 7 7 7 7 7 7 7 7 7 7 7 7 7 7 7 7 7 7 7 7 7 7 7 7 7 7 7 7 7 7 7 7 7 7 7 7 7 7 7 7 7 7 7 7 7 7 7 7 7 7 7 7 7 7 7 7 7 7 7 7 7 7 7 7 7 7 7 7 7 7 7 7 7 7 7 7 7 7 7 7 7 7 7 7 7 7 7 7 7 7 7 7 7 7 7 7 7 7 7 7 7 7 7 7 7 7 7 7 7 7 7 7 7 7 7 7 7 7 7 7 7 7 7 7 7 7 7 7 7 7 7 7 7 7 7 7 7 7 7 7 7 7 7 7 7 7 7 7 7 7 7 7 7 7 7 7 7 7 7 7 7 7 7 7 7 7 7 7 7 7 7 7 7 7 7 7 7 7 7 7 7 7 7 7 7 7 7 7 7 7 7 7 7 7 7 7 7 7 7 7 7 7 7 7 7 7 7 7 7 7 7 7 7 7 7 7 7 7 7 7 7 7 7 7 7 7 7 7 7 7 7 7 7 7 7 7 7 7 7 7 7 7 7 7 7 7 
</DataArray>
</Cells>
<CellData Scalars="wall variable 0">
<DataArray type="Float64" Name="wall length" format="ascii">
0.038861 2.6544 0.635656 2.61217 2.70809 0.649318 2.6544 0.0411875 2.76403 0.651466 2.70809 0.0428569 2.81501 0.65187 2.76403 0.0440185 2.85542 0.652016 2.81501 0.0447918 2.88128 0.652097 2.85542 0.0452627 2.89016 0.652136 2.88128 0.045485 2.88128 0.652136 2.89016 0.045485 2.85542 0.652097 2.88128 0.0452627 2.81501 0.652016 2.85542 0.0447918 2.76403 0.65187 2.81501 0.0440185 2.70809 0.651466 2.76403 0.0428569 2.6544 0.649318 2.70809 0.0411875 2.61217 0.635656 2.6544 0.038861 0.635656 2.91394 1.28599 2.91433 0.649318 2.91398 1.3029 2.91394 0.651466 2.91396 1.30427 2.91398 0.65187 2.91395 1.30436 2.91396 0.652016 2.91395 1.30437 2.91395 0.652097 2.91395 1.30437 2.91395 0.652136 2.91396 1.30437 2.91395 0.652136 2.91395 1.30437 2.91396 0.652097 2.91395 1.30437 2.91395 0.652016 2.91395 1.30437 2.91395 0.65187 2.91396 1.30436 2.91395 0.651466 2.91398 1.30427 2.91396 0.649318 2.91394 1.3029 2.91398 0.635656 2.91433 1.28599 2.91394 2.91405 1.93752 2.9141 1.28599 2.91413 1.95586 2.91405 1.3029 2.91414 1.95688 2.91413 1.30427 2.91414 1.95693 2.91414 1.30436 2.91414 1.95693 2.91414 1.30437 2.91414 1.95693 2.91414 1.30437 2.91414 1.95693 2.91414 1.30437 2.91414 1.95693 2.91414 1.30437 2.91414 1.95693 2.91414 1.30437 2.91414 1.95693 2.91414 1.30437 2.91414 1.95693 2.91414 1.30436 2.91413 1.95688 2.91414 1.30427 2.91405 1.95586 2.91413 1.3029 1.28599 2.9141 1.93752 2.91405 1.51416 1.93752 1.51767 0.137791 2.55456 1.51767 1.95586 1.36632 2.54243 1.36632 1.95688 1.36634 2.54353 0.151728 1.36634 1.95693 1.51505 2.55655 0.151739 0.138079 1.51505 1.95693 1.51506 2.57781 0.138072 1.51506 1.95693 1.51506 2.57781 0.138072 1.51506 1.95693 1.51506 2.57781 0.138072 1.51506 1.95693 1.51506 2.57781 0.138072 1.51506 1.95693 1.51506 2.57781 0.138072 1.51506 1.95693 1.51506 2.57781 0.138072 1.51506 1.95693 1.51506 2.5778 0.138071 1.51506 1.95688 1.51505 2.57774 0.138071 1.51505 1.95586 1.51482 2.57664 0.138063 1.51482 1.93752 1.51094 2.55388 1.37619 2.55655 0.138079 1.24115 2.60504 1.24115 2.57781 0.138072 1.24115 2.60504 1.24115 2.57781 0.138072 1.24115 2.60504 1.24115 2.57781 0.138072 1.24115 2.60504 1.24115 2.57781 0.138072 1.24115 2.60504 1.24115 2.57781 0.138072 1.24115 2.60504 1.24115 2.57781 0.138072 1.24115 2.60504 1.24115 2.5778 0.138071 1.24115 2.60504 1.37622 2.54353 0.151739 1.37619 2.60501 1.24115 2.57774 0.138071 1.24115 2.60501 0.137791 2.54243 0.151728 1.37622 2.6042 1.23877 1.24115 2.57664 0.138063 1.24135 2.6042 1.38007 2.55456 1.23877 2.58526 1.24135 2.55388 1.38329 2.58526 
</DataArray>
<DataArray type="Float64" Name="wall variable 0" format="ascii">
0 8.61065e-05 0.00105227 0 8.58071e-05 0.00105036 8.60216e-05 0 8.57623e-05 0.00104703 8.59836e-05 0 8.57555e-05 0.00104625 8.58092e-05 0 8.57547e-05 0.00104613 8.57629e-05 0 8.57546e-05 0.00104612 8.57556e-05 0 8.57546e-05 0.00104612 8.57547e-05 0 8.57547e-05 0.00104612 8.57546e-05 0 8.57556e-05 0.00104612 8.57546e-05 0 8.57628e-05 0.00104613 8.57547e-05 0 8.58087e-05 0.00104624 8.57555e-05 0 8.59829e-05 0.00104701 8.57622e-05 0 8.60216e-05 0.00105033 8.58065e-05 0 0 0.00105227 8.61058e-05 0 9.0171e-05 0.00109887 0.00657765 0 8.86698e-05 0.00107804 0.00649493 0.00108203 8.84904e-05 0.00107727 0.00645651 0.00108166 8.84436e-05 0.00107718 0.00644899 0.00107814 8.84363e-05 0.00107717 0.00644805 0.0010773 8.84354e-05 0.00107717 0.00644796 0.00107718 8.84353e-05 0.00107717 0.00644795 0.00107717 8.84353e-05 0.00107717 0.00644795 0.00107717 8.84354e-05 0.00107718 0.00644796 0.00107717 8.84363e-05 0.0010773 0.00644804 0.00107717 8.84436e-05 0.00107811 0.00644886 0.00107718 8.849e-05 0.00108162 0.0064557 0.00107727 8.86694e-05 0.00108204 0.00649393 0.00107802 9.0171e-05 0 0.0065777 0.00109883 0.00864432 0.0329317 0 0.00149108 0.0080271 0.0319011 0.00806599 0.00138786 0.00800511 0.0316534 0.0080712 0.00138067 0.00800419 0.0316029 0.00801679 0.00137954 0.00800423 0.0315976 0.00800579 0.00137939 0.00800424 0.0315972 0.0080044 0.00137938 0.00800424 0.0315971 0.00800425 0.00137938 0.00800425 0.0315971 0.00800424 0.00137938 0.00800437 0.0315971 0.00800424 0.00137938 0.00800559 0.0315974 0.00800423 0.0013794 0.00801553 0.0316007 0.00800422 0.00137954 0.00806977 0.0316386 0.00800509 0.00138066 0.00806532 0.0319265 0.00802503 0.00138765 0.00149108 0 0.0329344 0.00864253 0 0.0254961 0.0930325 0.0941064 0.0301149 0.0787915 0.022322 0.0806067 0.0330202 0.0784276 0.0212323 0.0776925 0.0300447 0.0793289 0.0778508 0.0212072 0.0776939 0.0299852 0.0785244 0.0784281 0.0777198 0.0212068 0.0777028 0.029987 0.078419 0.0777054 0.0212068 0.0777038 0.0299874 0.0784182 0.0777041 0.0212068 0.0777039 0.0299874 0.0784181 0.0777039 0.0212068 0.077704 0.0299875 0.0784181 0.0777039 0.0212068 0.0777048 0.0299875 0.0784175 0.0777033 0.021207 0.0777145 0.0299882 0.0784124 0.0776978 0.0212082 0.0778156 0.0299964 0.0783992 0.0776811 0.0212275 0.0784944 0.030087 0.0792794 0.0785364 0.0216174 0.0768867 0.0309161 0.0940972 0.0931458 0.0254947 0 0.0301281 0.0794924 0.0302316 0.0786883 0.0793719 0 0.079389 0.030223 0.0786932 0.0793775 0 0.0793791 0.0302222 0.0786937 0.0793781 0 0.0793782 0.0302221 0.0786937 0.0793781 0 0.0793781 0.0302221 0.0786938 0.0793783 0 0.079378 0.0302221 0.0786946 0.0793797 0 0.0793769 0.0302217 0.0787039 0.0793947 0 0.0793676 0.0302203 0.078802 0.0795344 0 0.0803038 0.0303166 0.0786723 0.0793501 0 0.0793658 0.0302825 0.0794767 0.080341 0 0.0765329 0.0296003 0.0782543 0.0788743 0 0.0772664 0.0809187 0.0316371 0.0783629 0.0791685 0 0 0.0319351 0.0972168 0 0.0972129 0.0319463 0 0 
</DataArray>
<DataArray type="Float64" Name="wall variable 1" format="ascii">
0.5 0.26439 0.26439 0.5 0.26439 0.26439 0.5 0.5 0.26439 0.26439 0.5 0.5 0.26439 0.26439 0.5 0.5 0.26439 0.26439 0.5 0.5 0.26439 0.26439 0.5 0.5 0.26439 0.26439 0.5 0.5 0.26439 0.26439 0.5 0.5 0.26439 0.26439 0.5 0.5 0.26439 0.26439 0.5 0.5 0.26439 0.26439 0.5 0.5 0.26439 0.26439 0.5 0.5 0.26439 0.26439 0.5 0.5 0.5 0.26439 0.5 0.5 0.5 0.26439 0.264391 0.5 0.5 0.26439 0.264391 0.5 0.5 0.26439 0.264391 0.5 0.5 0.26439 0.264391 0.5 0.5 0.26439 0.264391 0.5 0.5 0.26439 0.264391 0.5 0.5 0.26439 0.264391 0.5 0.5 0.26439 0.264391 0.5 0.5 0.26439 0.264391 0.5 0.5 0.26439 0.264391 0.5 0.5 0.26439 0.264391 0.5 0.5 0.26439 0.264391 0.5 0.5 0.26439 0.264391 0.5 0.5 0.5 0.264391 0.5 0.26439 0.264416 0.5 0.5 0.26439 0.264419 0.5 0.5 0.26439 0.264418 0.5 0.5 0.26439 0.264418 0.5 0.5 0.26439 0.264418 0.5 0.5 0.26439 0.264418 0.5 0.5 0.26439 0.264418 0.5 0.5 0.26439 0.264418 0.5 0.5 0.26439 0.264418 0.5 0.5 0.26439 0.264418 0.5 0.5 0.26439 0.264418 0.5 0.5 0.26439 0.264418 0.5 0.5 0.26439 0.264419 0.5 0.5 0.5 0.5 0.264416 0.5 0.5 0.5 0.26439 0.26439 0.650218 0.5 0.5 0.26439 0.627106 0.5 0.5 0.26439 0.625971 0.5 0.5 0.5 0.26439 0.62594 0.5 0.5 0.5 0.5 0.26439 0.62594 0.5 0.5 0.5 0.26439 0.62594 0.5 0.5 0.5 0.26439 0.62594 0.5 0.5 0.5 0.26439 0.62594 0.5 0.5 0.5 0.26439 0.62594 0.5 0.5 0.5 0.26439 0.62594 0.5 0.5 0.5 0.26439 0.62594 0.5 0.5 0.5 0.26439 0.625971 0.5 0.5 0.5 0.26439 0.627106 0.5 0.5 0.5 0.5 0.650219 0.5 0.5 0.26439 0.26439 0.5 0.5 0.5 0.26439 0.26439 0.5 0.5 0.5 0.26439 0.26439 0.5 0.5 0.5 0.26439 0.26439 0.5 0.5 0.5 0.26439 0.26439 0.5 0.5 0.5 0.26439 0.26439 0.5 0.5 0.5 0.26439 0.26439 0.5 0.5 0.5 0.26439 0.26439 0.5 0.5 0.5 0.26439 0.26439 0.5 0.5 0.5 0.26439 0.26439 0.5 0.5 0.5 0.26439 0.26439 0.5 0.5 0.5 0.5 0.26439 0.26439 0.5 0.5 0.5 0.26439 0.5 0.5 0.5 0.5 0.5 
</DataArray>
<DataArray type="Float64" Name="wall variable 2" format="ascii">
0 6.40363e-10 7.26246e-08 0 1.05474e-09 1.38267e-07 0 0 3.45436e-10 1.42911e-07 0 0 6.28281e-11 1.44283e-07 0 0 8.46281e-12 1.44476e-07 0 0 9.34569e-13 1.44496e-07 0 0 4.30574e-15 1.44497e-07 0 0 0 1.44497e-07 0 0 0 1.44497e-07 8.87022e-13 0 0 1.44488e-07 7.99759e-12 0 0 1.44382e-07 5.9129e-11 0 0 1.43454e-07 3.2743e-10 0 0 1.3895e-07 1.05008e-09 0 0 7.25959e-08 6.67164e-10 0 0 8.67303e-07 0 0 0 2.14577e-07 1.11207e-05 0 0 6.80629e-08 1.23997e-05 0 0 1.1665e-08 1.26431e-05 0 0 1.48902e-09 1.26721e-05 0 0 1.58222e-10 1.26747e-05 0 0 1.8845e-12 1.26749e-05 0 0 0 1.2675e-05 0 0 0 1.2675e-05 1.37559e-10 0 0 1.26751e-05 1.28763e-09 0 0 1.26684e-05 1.00568e-08 0 0 1.25485e-05 6.00407e-08 0 0 1.13559e-05 2.12228e-07 0 0 0 8.79848e-07 0.000121438 0 0 6.40145e-06 1.29158e-05 0 0 0 3.36211e-06 0 0 0 5.15327e-07 0 0 0 6.06033e-08 0 0 0 6.11975e-09 0 0 0 2.09082e-10 0 0 0 0 0 0 0 0 0 3.85806e-09 0 0 0 3.87178e-08 0 0 0 3.38498e-07 0 0 0 2.41796e-06 0 0 0 1.23915e-05 0 6.42519e-06 0 0 0.000123228 0 0.0058029 0.00563576 0.00579408 0 0 0.00484824 0.00140786 0.0012554 0 0.00433971 8.96379e-05 0 0 0 0.00431339 9.60891e-06 0 0 0 0 0.00431139 1.09245e-06 0 0 0 0.00431121 1.15809e-07 0 0 0 0.00431119 7.80515e-09 0 0 0 0.00431119 0 0 0 3.48271e-08 0.00431119 0 0 0 3.31438e-07 0.00431123 0 0 0 2.99367e-06 0.00431189 0 0 0 3.42913e-05 0.00432406 0 0 0 0.00055114 0.00452646 0 0 0.00475757 0.00653787 0.00580815 0 0 0 0.000577345 0.00131698 2.3165e-06 0 0 0.000576179 0.00131543 2.74327e-07 0 0 0.00057603 0.00131525 2.98074e-08 0 0 0.000576019 0.00131522 0 0 7.27975e-09 0.000576018 0.0013152 0 0 1.05482e-07 0.000576011 0.001315 0 0 1.00713e-06 0.000575908 0.00131333 0 0 9.42574e-06 0.000575385 0.00129124 0 0 0 0.000564012 0.00133388 2.35341e-05 0 9.70614e-05 0.000592108 0.000846801 0 0 0 0 0.00130676 2.98992e-05 0 0 0.00108701 0.000992713 0 0 0 0 0.00156798 0.00885285 0 0.00781418 0.00157947 0 0 
</DataArray>
</CellData>
</Piece>
</UnstructuredGrid>
</VTKFile>
