<VTKFile type="UnstructuredGrid" version="0.1">
<UnstructuredGrid>
<Piece  NumberOfPoints="    2568" NumberOfCells="     596">
<Points>
<DataArray type="Float64" NumberOfComponents="3" format="ascii">
-0.233314 -9.15813 0.0
-0.233027 -9.15376 0.0
-1.20454 -8.99254 0.0
-1.20898 -9.07284 0.0
-0.232383 -9.14186 0.0
-1.19714 -8.88642 0.0
-1.20419 -8.98585 0.0
-0.232671 -9.14708 0.0
-0.231372 -9.12786 0.0
-1.18614 -8.76623 0.0
-1.19645 -8.87856 0.0
-0.23169 -9.13401 0.0
-0.229934 -9.11216 0.0
-1.171 -8.63792 0.0
-1.18512 -8.75766 0.0
-0.230349 -9.11929 0.0
-0.227964 -9.09507 0.0
-1.15142 -8.50585 0.0
-1.16965 -8.62897 0.0
-0.228577 -9.10321 0.0
-0.225342 -9.07684 0.0
-1.12731 -8.37303 0.0
-1.14973 -8.49678 0.0
-0.226274 -9.086 0.0
-0.221953 -9.05769 0.0
-1.09872 -8.24142 0.0
-1.1253 -8.364 0.0
-0.223329 -9.06781 0.0
-0.217694 -9.03785 0.0
-1.06578 -8.11237 0.0
-1.0964 -8.23255 0.0
-0.219631 -9.04882 0.0
-0.212483 -9.01752 0.0
-1.02863 -7.98683 0.0
-1.06316 -8.10372 0.0
-0.215079 -9.0292 0.0
-0.206259 -8.99696 0.0
-0.987422 -7.86555 0.0
-1.02573 -7.97847 0.0
-0.209588 -9.00916 0.0
-0.198986 -8.97639 0.0
-0.942312 -7.74912 0.0
-0.98426 -7.8575 0.0
-0.203097 -8.98891 0.0
-0.190651 -8.95605 0.0
-0.89346 -7.63808 0.0
-0.938895 -7.74143 0.0
-0.195569 -8.96869 0.0
-0.181262 -8.93617 0.0
-0.841034 -7.53292 0.0
-0.889799 -7.63078 0.0
-0.18699 -8.94874 0.0
-0.170841 -8.91696 0.0
-0.78521 -7.43407 0.0
-0.83714 -7.52603 0.0
-0.177368 -8.92928 0.0
-0.159423 -8.89863 0.0
-0.726172 -7.34194 0.0
-0.781094 -7.42762 0.0
-0.166725 -8.91052 0.0
-0.147051 -8.88135 0.0
-0.664105 -7.25692 0.0
-0.721846 -7.33597 0.0
-0.155097 -8.89266 0.0
-0.133775 -8.86529 0.0
-0.599197 -7.17937 0.0
-0.659581 -7.25145 0.0
-0.142528 -8.87588 0.0
-0.119645 -8.8506 0.0
-0.531633 -7.10962 0.0
-0.594488 -7.17441 0.0
-0.129065 -8.86034 0.0
-0.104718 -8.83743 0.0
-0.461598 -7.04801 0.0
-0.52675 -7.10521 0.0
-0.114762 -8.84619 0.0
-0.0890565 -8.8259 0.0
-0.389282 -6.99489 0.0
-0.456554 -7.04417 0.0
-0.0996745 -8.83358 0.0
-0.0727299 -8.81615 0.0
-0.314894 -6.9506 0.0
-0.384091 -6.99163 0.0
-0.0838654 -8.82264 0.0
-0.0558231 -8.80831 0.0
-0.238686 -6.91551 0.0
-0.309572 -6.94795 0.0
-0.067407 -8.8135 0.0
-0.0384415 -8.80251 0.0
-0.160978 -6.89 0.0
-0.233251 -6.9135 0.0
-0.0503879 -8.8063 0.0
-0.0207154 -8.79883 0.0
-0.0821807 -6.87439 0.0
-0.155455 -6.88864 0.0
-0.032919 -8.80115 0.0
-0.00279929 -8.79737 0.0
-0.00279929 -6.86893 0.0
-0.0766022 -6.87371 0.0
-0.015137 -8.79815 0.0
0.0151362 -8.79815 0.0
0.0766014 -6.87371 0.0
0.00279848 -6.86893 0.0
0.00279848 -8.79737 0.0
0.0329182 -8.80115 0.0
0.155454 -6.88864 0.0
0.0821798 -6.87439 0.0
0.0207146 -8.79883 0.0
0.0503871 -8.8063 0.0
0.23325 -6.9135 0.0
0.160977 -6.89 0.0
0.0384407 -8.80251 0.0
0.0674062 -8.8135 0.0
0.309571 -6.94795 0.0
0.238685 -6.91551 0.0
0.0558222 -8.80831 0.0
0.0838646 -8.82264 0.0
0.38409 -6.99163 0.0
0.314894 -6.9506 0.0
0.072729 -8.81615 0.0
0.0996737 -8.83358 0.0
0.456554 -7.04417 0.0
0.389281 -6.99489 0.0
0.0890557 -8.8259 0.0
0.114761 -8.84619 0.0
0.526749 -7.10521 0.0
0.461597 -7.04801 0.0
0.104717 -8.83743 0.0
0.129064 -8.86034 0.0
0.594487 -7.17441 0.0
0.531632 -7.10962 0.0
0.119644 -8.8506 0.0
0.142527 -8.87588 0.0
0.659581 -7.25145 0.0
0.599196 -7.17937 0.0
0.133774 -8.86529 0.0
0.155096 -8.89266 0.0
0.721845 -7.33597 0.0
0.664104 -7.25692 0.0
0.147051 -8.88135 0.0
0.166724 -8.91052 0.0
0.781093 -7.42762 0.0
0.726171 -7.34194 0.0
0.159422 -8.89863 0.0
0.177367 -8.92928 0.0
0.837139 -7.52603 0.0
0.785209 -7.43407 0.0
0.17084 -8.91696 0.0
0.186989 -8.94874 0.0
0.889798 -7.63078 0.0
0.841033 -7.53292 0.0
0.181261 -8.93617 0.0
0.195568 -8.96869 0.0
0.938894 -7.74143 0.0
0.893459 -7.63808 0.0
0.19065 -8.95605 0.0
0.203096 -8.98891 0.0
0.984259 -7.8575 0.0
0.942311 -7.74912 0.0
0.198985 -8.97639 0.0
0.209587 -9.00916 0.0
1.02573 -7.97847 0.0
0.987421 -7.86555 0.0
0.206258 -8.99696 0.0
0.215078 -9.0292 0.0
1.06316 -8.10372 0.0
1.02863 -7.98683 0.0
0.212482 -9.01752 0.0
0.219631 -9.04882 0.0
1.0964 -8.23255 0.0
1.06578 -8.11237 0.0
0.217693 -9.03785 0.0
0.223328 -9.06781 0.0
1.1253 -8.364 0.0
1.09872 -8.24142 0.0
0.221952 -9.05769 0.0
0.226273 -9.086 0.0
1.14973 -8.49678 0.0
1.12731 -8.37303 0.0
0.225341 -9.07684 0.0
0.228576 -9.10321 0.0
1.16965 -8.62897 0.0
1.15142 -8.50585 0.0
0.227963 -9.09507 0.0
0.230349 -9.11929 0.0
1.18512 -8.75766 0.0
1.171 -8.63792 0.0
0.229933 -9.11216 0.0
0.231689 -9.13401 0.0
1.19645 -8.87856 0.0
1.18614 -8.76623 0.0
0.231371 -9.12786 0.0
0.23267 -9.14708 0.0
1.20419 -8.98585 0.0
1.19714 -8.88642 0.0
0.232382 -9.14186 0.0
0.233313 -9.15813 0.0
1.20898 -9.07284 0.0
1.20454 -8.99254 0.0
0.233026 -9.15376 0.0
-1.3165 -9.06233 0.0
-1.31207 -8.98203 0.0
-2.42308 -8.84208 0.0
-2.43125 -9.0198 0.0
-1.31113 -8.96517 0.0
-1.30409 -8.86574 0.0
-2.40776 -8.60372 0.0
-2.42215 -8.82522 0.0
-1.30232 -8.84609 0.0
-1.29201 -8.73376 0.0
-2.38407 -8.33992 0.0
-2.406 -8.58408 0.0
-1.28956 -8.71269 0.0
-1.27545 -8.59295 0.0
-2.35145 -8.06564 0.0
-2.38162 -8.31885 0.0
-1.27234 -8.57131 0.0
-1.25412 -8.44819 0.0
-2.30974 -7.78927 0.0
-2.34834 -8.04401 0.0
-1.25035 -8.4265 0.0
-1.22792 -8.30274 0.0
-2.25901 -7.51542 0.0
-2.30597 -7.76757 0.0
-1.22348 -8.28129 0.0
-1.19691 -8.15871 0.0
-2.19944 -7.24683 0.0
-2.25457 -7.49397 0.0
-1.1918 -8.1377 0.0
-1.16118 -8.01752 0.0
-2.13128 -6.98528 0.0
-2.19433 -7.22582 0.0
-1.15541 -7.99709 0.0
-1.12087 -7.8802 0.0
-2.0548 -6.73215 0.0
-2.12551 -6.96485 0.0
-1.11446 -7.86046 0.0
-1.07615 -7.74754 0.0
-1.9703 -6.48858 0.0
-2.04839 -6.71241 0.0
-1.06911 -7.72858 0.0
-1.02716 -7.6202 0.0
-1.8781 -6.25557 0.0
-1.96326 -6.46962 0.0
-1.01953 -7.60211 0.0
-0.974093 -7.49877 0.0
-1.77856 -6.03405 0.0
-1.87047 -6.23748 0.0
-0.965888 -7.48162 0.0
-0.917124 -7.38376 0.0
-1.67206 -5.82489 0.0
-1.77036 -6.0169 0.0
-0.908377 -7.36762 0.0
-0.856447 -7.27566 0.0
-1.559 -5.62889 0.0
-1.66332 -5.80876 0.0
-0.847189 -7.2606 0.0
-0.792267 -7.17492 0.0
-1.43977 -5.4468 0.0
-1.54974 -5.61383 0.0
-0.78253 -7.16099 0.0
-0.724789 -7.08194 0.0
-1.3148 -5.2793 0.0
-1.43003 -5.43287 0.0
-0.714605 -7.0692 0.0
-0.654221 -6.99712 0.0
-1.18452 -5.12704 0.0
-1.30462 -5.26656 0.0
-0.643624 -6.98562 0.0
-0.580769 -6.92083 0.0
-1.04935 -4.99062 0.0
-1.17392 -5.11554 0.0
-0.569792 -6.91062 0.0
-0.50464 -6.85342 0.0
-0.909728 -4.87061 0.0
-1.03838 -4.98041 0.0
-0.493316 -6.84455 0.0
-0.426044 -6.79527 0.0
-0.766084 -4.76758 0.0
-0.898404 -4.86174 0.0
-0.41441 -6.78778 0.0
-0.345213 -6.74675 0.0
-0.618886 -4.68206 0.0
-0.75445 -4.76009 0.0
-0.333308 -6.74069 0.0
-0.262422 -6.70825 0.0
-0.468649 -4.61461 0.0
-0.60698 -4.676 0.0
-0.250291 -6.70366 0.0
-0.178017 -6.68016 0.0
-0.31597 -4.56574 0.0
-0.456517 -4.61002 0.0
-0.165714 -6.67708 0.0
-0.0924393 -6.66283 0.0
-0.161558 -4.53589 0.0
-0.303667 -4.56266 0.0
-0.0800277 -6.66128 0.0
-0.00622473 -6.65651 0.0
-0.00622473 -4.52539 0.0
-0.149146 -4.53435 0.0
0.00622391 -6.65651 0.0
0.0800269 -6.66128 0.0
0.149146 -4.53435 0.0
0.00622391 -4.52539 0.0
0.0924385 -6.66283 0.0
0.165713 -6.67708 0.0
0.303666 -4.56266 0.0
0.161557 -4.53589 0.0
0.178016 -6.68016 0.0
0.25029 -6.70366 0.0
0.456516 -4.61002 0.0
0.31597 -4.56574 0.0
0.262421 -6.70825 0.0
0.333307 -6.74069 0.0
0.606979 -4.676 0.0
0.468648 -4.61461 0.0
0.345213 -6.74675 0.0
0.414409 -6.78778 0.0
0.754449 -4.76009 0.0
0.618885 -4.68206 0.0
0.426043 -6.79527 0.0
0.493316 -6.84455 0.0
0.898403 -4.86174 0.0
0.766083 -4.76758 0.0
0.504639 -6.85342 0.0
0.569791 -6.91062 0.0
1.03838 -4.98041 0.0
0.909727 -4.87061 0.0
0.580769 -6.92083 0.0
0.643623 -6.98562 0.0
1.17392 -5.11554 0.0
1.04935 -4.99062 0.0
0.65422 -6.99712 0.0
0.714604 -7.0692 0.0
1.30462 -5.26656 0.0
1.18452 -5.12704 0.0
0.724788 -7.08194 0.0
0.782529 -7.16099 0.0
1.43003 -5.43287 0.0
1.3148 -5.2793 0.0
0.792266 -7.17492 0.0
0.847188 -7.2606 0.0
1.54974 -5.61383 0.0
1.43977 -5.4468 0.0
0.856446 -7.27566 0.0
0.908376 -7.36762 0.0
1.66332 -5.80876 0.0
1.55899 -5.62889 0.0
0.917123 -7.38376 0.0
0.965887 -7.48162 0.0
1.77036 -6.0169 0.0
1.67206 -5.82489 0.0
0.974093 -7.49877 0.0
1.01953 -7.60211 0.0
1.87046 -6.23748 0.0
1.77856 -6.03405 0.0
1.02716 -7.6202 0.0
1.06911 -7.72858 0.0
1.96326 -6.46962 0.0
1.8781 -6.25557 0.0
1.07614 -7.74754 0.0
1.11446 -7.86046 0.0
2.04839 -6.71241 0.0
1.97029 -6.48858 0.0
1.12087 -7.8802 0.0
1.1554 -7.99709 0.0
2.12551 -6.96485 0.0
2.0548 -6.73215 0.0
1.16117 -8.01752 0.0
1.19179 -8.1377 0.0
2.19433 -7.22582 0.0
2.13128 -6.98528 0.0
1.19691 -8.15871 0.0
1.22348 -8.28129 0.0
2.25457 -7.49397 0.0
2.19944 -7.24683 0.0
1.22792 -8.30274 0.0
1.25035 -8.4265 0.0
2.30597 -7.76757 0.0
2.25901 -7.51542 0.0
1.25412 -8.44819 0.0
1.27234 -8.57131 0.0
2.34834 -8.04401 0.0
2.30974 -7.78927 0.0
1.27545 -8.59295 0.0
1.28956 -8.71269 0.0
2.38162 -8.31885 0.0
2.35145 -8.06564 0.0
1.29201 -8.73376 0.0
1.30232 -8.84609 0.0
2.406 -8.58408 0.0
2.38407 -8.33992 0.0
1.30409 -8.86574 0.0
1.31113 -8.96517 0.0
2.42214 -8.82522 0.0
2.40776 -8.60372 0.0
1.31206 -8.98203 0.0
1.3165 -9.06233 0.0
2.43125 -9.0198 0.0
2.42307 -8.84208 0.0
-2.54404 -8.83289 0.0
-3.66113 -8.69996 0.0
-3.6721 -8.98442 0.0
-2.55222 -9.01061 0.0
-2.52805 -8.58214 0.0
-3.63854 -8.319 0.0
-3.65951 -8.67071 0.0
-2.54243 -8.80363 0.0
-2.50338 -8.30423 0.0
-3.60289 -7.90525 0.0
-3.6358 -8.28524 0.0
-2.52531 -8.54838 0.0
-2.46939 -8.01538 0.0
-3.55348 -7.48154 0.0
-3.59906 -7.86962 0.0
-2.49956 -8.26859 0.0
-2.42583 -7.72454 0.0
-3.4902 -7.05865 0.0
-3.54853 -7.44543 0.0
-2.46443 -7.97928 0.0
-2.37278 -7.43652 0.0
-3.41324 -6.6419 0.0
-3.48411 -7.02278 0.0
-2.41974 -7.68867 0.0
-2.31042 -7.15413 0.0
-3.32288 -6.23436 0.0
-3.406 -6.60665 0.0
-2.36554 -7.40127 0.0
-2.23901 -6.87921 0.0
-3.21949 -5.8382 0.0
-3.31452 -6.19997 0.0
-2.30207 -7.11974 0.0
-2.15885 -6.61316 0.0
-3.10349 -5.45517 0.0
-3.21004 -5.80485 0.0
-2.22957 -6.84586 0.0
-2.07026 -6.35717 0.0
-2.97533 -5.08685 0.0
-3.09298 -5.42301 0.0
-2.14835 -6.581 0.0
-1.97358 -6.11228 0.0
-2.83552 -4.73471 0.0
-2.96381 -5.05602 0.0
-2.05874 -6.32633 0.0
-1.86918 -5.87947 0.0
-2.6846 -4.40012 0.0
-2.82302 -4.70532 0.0
-1.96108 -6.08289 0.0
-1.75747 -5.65963 0.0
-2.52316 -4.08436 0.0
-2.67118 -4.37229 0.0
-1.85576 -5.85164 0.0
-1.63885 -5.45361 0.0
-2.35181 -3.78865 0.0
-2.50887 -4.0582 0.0
-1.74317 -5.63347 0.0
-1.51377 -5.26219 0.0
-2.17119 -3.51411 0.0
-2.3367 -3.76426 0.0
-1.62374 -5.42922 0.0
-1.38266 -5.08609 0.0
-1.98197 -3.2618 0.0
-2.15531 -3.49158 0.0
-1.49789 -5.23966 0.0
-1.24597 -4.92599 0.0
-1.78481 -3.03267 0.0
-1.96538 -3.24122 0.0
-1.36607 -5.06551 0.0
-1.10416 -4.78252 0.0
-1.58042 -2.82763 0.0
-1.76757 -3.01412 0.0
-1.22873 -4.90744 0.0
-0.957674 -4.65628 0.0
-1.36947 -2.64752 0.0
-1.56258 -2.81119 0.0
-1.08632 -4.76607 0.0
-0.806985 -4.54784 0.0
-1.1527 -2.49313 0.0
-1.35111 -2.63325 0.0
-0.939305 -4.642 0.0
-0.652579 -4.45778 0.0
-0.930832 -2.3652 0.0
-1.13386 -2.48109 0.0
-0.788143 -4.53581 0.0
-0.495 -4.38666 0.0
-0.704679 -2.26446 0.0
-0.911584 -2.35547 0.0
-0.633331 -4.44806 0.0
-0.334872 -4.33502 0.0
-0.475133 -2.19156 0.0
-0.685098 -2.2571 0.0
-0.475418 -4.37931 0.0
-0.172931 -4.30332 0.0
-0.243205 -2.14707 0.0
-0.455301 -2.18662 0.0
-0.31504 -4.33008 0.0
-0.010021 -4.29189 0.0
-0.010021 -2.13137 0.0
-0.223217 -2.14459 0.0
-0.152943 -4.30084 0.0
0.152942 -4.30084 0.0
0.223216 -2.14459 0.0
0.0100202 -2.13137 0.0
0.0100202 -4.29189 0.0
0.315039 -4.33008 0.0
0.4553 -2.18662 0.0
0.243204 -2.14707 0.0
0.17293 -4.30332 0.0
0.475417 -4.37931 0.0
0.685097 -2.2571 0.0
0.475132 -2.19156 0.0
0.334871 -4.33502 0.0
0.63333 -4.44806 0.0
0.911583 -2.35547 0.0
0.704678 -2.26446 0.0
0.494999 -4.38666 0.0
0.788142 -4.53581 0.0
1.13386 -2.48109 0.0
0.930831 -2.3652 0.0
0.652579 -4.45778 0.0
0.939304 -4.642 0.0
1.3511 -2.63325 0.0
1.1527 -2.49313 0.0
0.806984 -4.54784 0.0
1.08632 -4.76607 0.0
1.56258 -2.81119 0.0
1.36947 -2.64752 0.0
0.957673 -4.65628 0.0
1.22873 -4.90744 0.0
1.76757 -3.01412 0.0
1.58042 -2.82763 0.0
1.10416 -4.78252 0.0
1.36607 -5.06551 0.0
1.96538 -3.24122 0.0
1.78481 -3.03267 0.0
1.24597 -4.92599 0.0
1.49788 -5.23966 0.0
2.15531 -3.49158 0.0
1.98197 -3.2618 0.0
1.38265 -5.08609 0.0
1.62373 -5.42922 0.0
2.3367 -3.76426 0.0
2.17119 -3.51411 0.0
1.51377 -5.26219 0.0
1.74317 -5.63347 0.0
2.50887 -4.0582 0.0
2.35181 -3.78865 0.0
1.63885 -5.45361 0.0
1.85576 -5.85164 0.0
2.67118 -4.37229 0.0
2.52316 -4.08436 0.0
1.75746 -5.65963 0.0
1.96108 -6.08289 0.0
2.82302 -4.70532 0.0
2.6846 -4.40012 0.0
1.86918 -5.87947 0.0
2.05874 -6.32633 0.0
2.96381 -5.05602 0.0
2.83552 -4.73471 0.0
1.97358 -6.11228 0.0
2.14835 -6.581 0.0
3.09298 -5.42301 0.0
2.97533 -5.08685 0.0
2.07026 -6.35717 0.0
2.22957 -6.84586 0.0
3.21004 -5.80485 0.0
3.10349 -5.45517 0.0
2.15885 -6.61316 0.0
2.30206 -7.11974 0.0
3.31452 -6.19997 0.0
3.21949 -5.8382 0.0
2.23901 -6.87921 0.0
2.36554 -7.40127 0.0
3.406 -6.60665 0.0
3.32288 -6.23436 0.0
2.31042 -7.15413 0.0
2.41974 -7.68867 0.0
3.48411 -7.02278 0.0
3.41324 -6.6419 0.0
2.37278 -7.43652 0.0
2.46443 -7.97928 0.0
3.54853 -7.44543 0.0
3.4902 -7.05865 0.0
2.42583 -7.72454 0.0
2.49955 -8.26859 0.0
3.59906 -7.86962 0.0
3.55348 -7.48154 0.0
2.46938 -8.01538 0.0
2.52531 -8.54838 0.0
3.6358 -8.28524 0.0
3.60289 -7.90525 0.0
2.50338 -8.30423 0.0
2.54243 -8.80363 0.0
3.65951 -8.67071 0.0
3.63854 -8.319 0.0
2.52805 -8.58214 0.0
2.54404 -8.83289 0.0
2.55222 -9.01061 0.0
3.6721 -8.98442 0.0
3.66113 -8.69996 0.0
-3.78411 -8.69149 0.0
-4.90228 -8.5601 0.0
-4.9158 -8.95737 0.0
-3.79508 -8.97595 0.0
-3.76097 -8.29722 0.0
-4.87266 -8.03205 0.0
-4.90012 -8.51755 0.0
-3.78195 -8.64894 0.0
-3.7244 -7.86872 0.0
-4.82516 -7.46696 0.0
-4.869 -7.98354 0.0
-3.75732 -8.24871 0.0
-3.6736 -7.4301 0.0
-4.759 -6.89378 0.0
-4.81994 -7.41641 0.0
-3.71919 -7.81818 0.0
-3.60844 -6.99253 0.0
-4.67418 -6.3246 0.0
-4.75217 -6.843 0.0
-3.66676 -7.37932 0.0
-3.5291 -6.56144 0.0
-4.57098 -5.76506 0.0
-4.66572 -6.27439 0.0
-3.59998 -6.94232 0.0
-3.4359 -6.13994 0.0
-4.44982 -5.21853 0.0
-4.56091 -5.71585 0.0
-3.51903 -6.51223 0.0
-3.32922 -5.73022 0.0
-4.31117 -4.68754 0.0
-4.43817 -5.17058 0.0
-3.42426 -6.092 0.0
-3.20949 -5.33408 0.0
-4.15561 -4.17432 0.0
-4.298 -4.64108 0.0
-3.31605 -5.68376 0.0
-3.07719 -4.95313 0.0
-3.98373 -3.68089 0.0
-4.14096 -4.12953 0.0
-3.19484 -5.28929 0.0
-2.93283 -4.5889 0.0
-3.79623 -3.20921 0.0
-3.96766 -3.63797 0.0
-3.06112 -4.91021 0.0
-2.77698 -4.24279 0.0
-3.59383 -2.76111 0.0
-3.7788 -3.16831 0.0
-2.9154 -4.548 0.0
-2.61024 -3.91614 0.0
-3.37732 -2.33832 0.0
-3.57512 -2.72239 0.0
-2.75826 -4.20407 0.0
-2.43325 -3.6102 0.0
-3.14754 -1.94246 0.0
-3.35739 -2.30193 0.0
-2.59031 -3.87975 0.0
-2.24667 -3.32614 0.0
-2.90535 -1.57507 0.0
-3.12646 -1.90855 0.0
-2.41218 -3.57629 0.0
-2.05119 -3.06504 0.0
-2.65166 -1.23754 0.0
-2.88321 -1.54376 0.0
-2.22454 -3.29483 0.0
-1.84751 -2.82791 0.0
-2.3874 -0.931195 0.0
-2.62854 -1.20896 0.0
-2.02807 -3.03645 0.0
-1.63633 -2.61567 0.0
-2.11352 -0.657219 0.0
-2.36338 -0.905442 0.0
-1.82349 -2.80216 0.0
-1.41839 -2.42919 0.0
-1.83099 -0.416724 0.0
-2.08868 -0.634404 0.0
-1.6115 -2.59286 0.0
-1.19443 -2.26929 0.0
-1.5408 -0.210739 0.0
-1.80543 -0.396942 0.0
-1.39283 -2.40941 0.0
-0.965205 -2.13673 0.0
-1.24398 -0.0402218 0.0
-1.5146 -0.19408 0.0
-1.16823 -2.25263 0.0
-0.731559 -2.03226 0.0
-0.941621 0.0939369 0.0
-1.21724 -0.0267686 0.0
-0.938464 -2.12328 0.0
-0.494411 -1.95656 0.0
-0.634924 0.190939 0.0
-0.914438 0.104107 0.0
-0.704376 -2.02209 0.0
-0.254803 -1.91018 0.0
-0.325201 0.250126 0.0
-0.607412 0.197761 0.0
-0.4669 -1.94973 0.0
-0.0138925 -1.89353 0.0
-0.0138925 0.271052 0.0
-0.297486 0.253551 0.0
-0.227088 -1.90676 0.0
0.227087 -1.90676 0.0
0.297485 0.253551 0.0
0.0138917 0.271052 0.0
0.0138917 -1.89353 0.0
0.466899 -1.94973 0.0
0.607411 0.197761 0.0
0.3252 0.250126 0.0
0.254803 -1.91018 0.0
0.704375 -2.02209 0.0
0.914437 0.104107 0.0
0.634923 0.190939 0.0
0.494411 -1.95656 0.0
0.938463 -2.12328 0.0
1.21723 -0.0267686 0.0
0.94162 0.0939369 0.0
0.731558 -2.03226 0.0
1.16823 -2.25263 0.0
1.5146 -0.19408 0.0
1.24398 -0.0402218 0.0
0.965205 -2.13673 0.0
1.39283 -2.40941 0.0
1.80543 -0.396942 0.0
1.5408 -0.210739 0.0
1.19443 -2.26929 0.0
1.6115 -2.59286 0.0
2.08868 -0.634404 0.0
1.83099 -0.416724 0.0
1.41839 -2.42919 0.0
1.82349 -2.80216 0.0
2.36338 -0.905442 0.0
2.11352 -0.657219 0.0
1.63633 -2.61567 0.0
2.02807 -3.03645 0.0
2.62854 -1.20896 0.0
2.3874 -0.931195 0.0
1.84751 -2.82791 0.0
2.22453 -3.29483 0.0
2.88321 -1.54376 0.0
2.65166 -1.23754 0.0
2.05119 -3.06504 0.0
2.41218 -3.57629 0.0
3.12646 -1.90855 0.0
2.90535 -1.57507 0.0
2.24667 -3.32614 0.0
2.59031 -3.87975 0.0
3.35739 -2.30193 0.0
3.14754 -1.94246 0.0
2.43325 -3.6102 0.0
2.75826 -4.20407 0.0
3.57512 -2.72239 0.0
3.37732 -2.33832 0.0
2.61024 -3.91614 0.0
2.9154 -4.548 0.0
3.7788 -3.16831 0.0
3.59383 -2.76111 0.0
2.77698 -4.24279 0.0
3.06112 -4.91021 0.0
3.96766 -3.63797 0.0
3.79623 -3.20921 0.0
2.93283 -4.5889 0.0
3.19484 -5.28929 0.0
4.14096 -4.12953 0.0
3.98373 -3.68089 0.0
3.07719 -4.95313 0.0
3.31605 -5.68376 0.0
4.298 -4.64108 0.0
4.15561 -4.17432 0.0
3.20949 -5.33408 0.0
3.42426 -6.092 0.0
4.43817 -5.17058 0.0
4.31117 -4.68754 0.0
3.32922 -5.73022 0.0
3.51903 -6.51223 0.0
4.56091 -5.71585 0.0
4.44981 -5.21853 0.0
3.4359 -6.13994 0.0
3.59997 -6.94232 0.0
4.66572 -6.27439 0.0
4.57098 -5.76506 0.0
3.5291 -6.56144 0.0
3.66676 -7.37932 0.0
4.75216 -6.843 0.0
4.67418 -6.3246 0.0
3.60844 -6.99253 0.0
3.71918 -7.81818 0.0
4.81994 -7.41641 0.0
4.759 -6.89378 0.0
3.6736 -7.4301 0.0
3.75732 -8.24871 0.0
4.869 -7.98354 0.0
4.82516 -7.46696 0.0
3.7244 -7.86872 0.0
3.78195 -8.64894 0.0
4.90012 -8.51755 0.0
4.87266 -8.03205 0.0
3.76097 -8.29722 0.0
3.78411 -8.69149 0.0
3.79508 -8.97595 0.0
4.9158 -8.95737 0.0
4.90228 -8.5601 0.0
-5.02591 -8.55195 0.0
-6.14432 -8.42079 0.0
-6.16028 -8.93515 0.0
-5.03943 -8.94922 0.0
-4.99578 -8.01012 0.0
-6.10771 -7.74345 0.0
-6.14166 -8.36445 0.0
-5.02325 -8.49562 0.0
-4.94736 -7.43004 0.0
-6.04833 -7.02684 0.0
-6.10312 -7.67996 0.0
-4.9912 -7.94662 0.0
-4.87978 -6.84189 0.0
-5.9654 -6.30458 0.0
-6.04169 -6.96133 0.0
-4.94072 -7.36452 0.0
-4.79305 -6.25802 0.0
-5.85901 -5.58945 0.0
-5.95665 -6.23911 0.0
-4.87103 -6.77642 0.0
-4.68745 -5.68412 0.0
-5.72955 -4.88731 0.0
-5.84815 -5.52488 0.0
-4.78219 -6.19345 0.0
-4.56343 -5.12359 0.0
-5.57756 -4.20184 0.0
-5.71662 -4.82409 0.0
-4.67452 -5.6209 0.0
-4.42147 -4.57899 0.0
-5.40364 -3.53602 0.0
-5.56261 -4.14029 0.0
-4.54847 -5.06203 0.0
-4.26216 -4.05259 0.0
-5.20849 -2.89254 0.0
-5.38672 -3.47639 0.0
-4.40455 -4.51936 0.0
-4.08612 -3.54649 0.0
-4.99288 -2.27393 0.0
-5.18967 -2.83507 0.0
-4.24334 -3.99512 0.0
-3.89405 -3.06265 0.0
-4.75765 -1.68263 0.0
-4.97223 -2.21885 0.0
-4.06548 -3.4914 0.0
-3.68669 -2.60297 0.0
-4.50374 -1.12093 0.0
-4.73527 -1.63015 0.0
-3.87167 -3.01017 0.0
-3.46486 -2.16923 0.0
-4.23212 -0.591012 0.0
-4.4797 -1.07126 0.0
-3.66265 -2.5533 0.0
-3.22941 -1.76309 0.0
-3.94386 -0.0949308 0.0
-4.20652 -0.544342 0.0
-3.43926 -2.12256 0.0
-2.98123 -1.38612 0.0
-3.64005 0.3654 0.0
-3.91679 -0.0514413 0.0
-3.20234 -1.7196 0.0
-2.72124 -1.03977 0.0
-3.32184 0.788204 0.0
-3.61162 0.405542 0.0
-2.9528 -1.34598 0.0
-2.45042 -0.725366 0.0
-2.99042 1.17184 0.0
-3.29216 0.824843 0.0
-2.69156 -1.00313 0.0
-2.16973 -0.444151 0.0
-2.647 1.51481 0.0
-2.95959 1.20484 0.0
-2.41959 -0.692373 0.0
-1.88016 -0.197256 0.0
-2.29282 1.81573 0.0
-2.61513 1.54403 0.0
-2.13786 -0.414936 0.0
-1.58274 0.0142639 0.0
-1.92916 2.07334 0.0
-2.26003 1.84105 0.0
-1.84737 -0.171939 0.0
-1.27853 0.189429 0.0
-1.55733 2.28647 0.0
-1.89557 2.09465 0.0
-1.54915 0.0355716 0.0
-0.968637 0.327331 0.0
-1.17872 2.45406 0.0
-1.52306 2.30367 0.0
-1.24425 0.206625 0.0
-0.654299 0.427154 0.0
-0.794821 2.57518 0.0
-1.14389 2.46705 0.0
-0.933813 0.340323 0.0
-0.336858 0.488229 0.0
-0.40726 2.64906 0.0
-0.759591 2.58389 0.0
-0.619068 0.435864 0.0
-0.0177833 0.510102 0.0
-0.0177833 2.67521 0.0
-0.371779 2.65344 0.0
-0.301377 0.4926 0.0
0.301376 0.4926 0.0
0.371778 2.65344 0.0
0.0177825 2.67521 0.0
0.0177825 0.510102 0.0
0.619068 0.435864 0.0
0.75959 2.58389 0.0
0.407259 2.64906 0.0
0.336857 0.488229 0.0
0.933812 0.340323 0.0
1.14389 2.46705 0.0
0.79482 2.57518 0.0
0.654298 0.427154 0.0
1.24425 0.206625 0.0
1.52305 2.30367 0.0
1.17872 2.45406 0.0
0.968637 0.327331 0.0
1.54915 0.0355716 0.0
1.89557 2.09465 0.0
1.55733 2.28647 0.0
1.27853 0.189429 0.0
1.84737 -0.171939 0.0
2.26003 1.84105 0.0
1.92916 2.07334 0.0
1.58274 0.0142639 0.0
2.13786 -0.414936 0.0
2.61513 1.54403 0.0
2.29282 1.81573 0.0
1.88016 -0.197256 0.0
2.41959 -0.692373 0.0
2.95959 1.20484 0.0
2.647 1.51481 0.0
2.16973 -0.444151 0.0
2.69156 -1.00313 0.0
3.29215 0.824843 0.0
2.99042 1.17184 0.0
2.45042 -0.725366 0.0
2.9528 -1.34598 0.0
3.61162 0.405542 0.0
3.32184 0.788204 0.0
2.72124 -1.03977 0.0
3.20234 -1.7196 0.0
3.91679 -0.0514413 0.0
3.64005 0.3654 0.0
2.98122 -1.38612 0.0
3.43926 -2.12256 0.0
4.20652 -0.544342 0.0
3.94386 -0.0949308 0.0
3.22941 -1.76309 0.0
3.66265 -2.5533 0.0
4.47969 -1.07126 0.0
4.23212 -0.591012 0.0
3.46486 -2.16923 0.0
3.87166 -3.01017 0.0
4.73527 -1.63015 0.0
4.50374 -1.12093 0.0
3.68669 -2.60297 0.0
4.06548 -3.4914 0.0
4.97223 -2.21885 0.0
4.75765 -1.68263 0.0
3.89405 -3.06265 0.0
4.24334 -3.99512 0.0
5.18967 -2.83507 0.0
4.99288 -2.27393 0.0
4.08612 -3.54649 0.0
4.40455 -4.51936 0.0
5.38672 -3.47639 0.0
5.20849 -2.89254 0.0
4.26216 -4.05259 0.0
4.54847 -5.06203 0.0
5.5626 -4.14029 0.0
5.40364 -3.53602 0.0
4.42147 -4.57899 0.0
4.67452 -5.6209 0.0
5.71662 -4.82409 0.0
5.57756 -4.20184 0.0
4.56343 -5.12359 0.0
4.78219 -6.19345 0.0
5.84815 -5.52488 0.0
5.72955 -4.88731 0.0
4.68745 -5.68412 0.0
4.87103 -6.77642 0.0
5.95665 -6.23911 0.0
5.85901 -5.58945 0.0
4.79304 -6.25802 0.0
4.94071 -7.36452 0.0
6.04169 -6.96133 0.0
5.9654 -6.30458 0.0
4.87978 -6.84189 0.0
4.9912 -7.94662 0.0
6.10312 -7.67996 0.0
6.04833 -7.02684 0.0
4.94735 -7.43004 0.0
5.02325 -8.49562 0.0
6.14166 -8.36445 0.0
6.10771 -7.74345 0.0
4.99578 -8.01012 0.0
5.02591 -8.55195 0.0
5.03943 -8.94922 0.0
6.16028 -8.93515 0.0
6.14432 -8.42079 0.0
-6.26823 -8.41283 0.0
-7.38669 -8.28146 0.0
-7.40502 -8.91607 0.0
-6.28419 -8.92719 0.0
-6.23113 -7.7214 0.0
-7.34309 -7.45368 0.0
-7.38354 -8.21103 0.0
-6.26508 -8.3424 0.0
-6.17082 -6.98971 0.0
-7.2718 -6.58571 0.0
-7.33757 -7.37511 0.0
-6.22561 -7.64283 0.0
-6.08645 -6.25248 0.0
-7.17207 -5.71472 0.0
-7.26372 -6.50522 0.0
-6.16274 -6.90922 0.0
-5.97813 -5.52267 0.0
-7.04409 -4.85388 0.0
-7.16139 -5.63457 0.0
-6.07577 -6.17233 0.0
-5.84627 -4.80617 0.0
-6.88837 -4.00925 0.0
-7.03082 -4.77495 0.0
-5.96486 -5.44374 0.0
-5.69141 -4.10669 0.0
-6.70554 -3.1849 0.0
-6.87257 -3.93202 0.0
-5.83047 -4.72894 0.0
-5.51417 -3.42724 0.0
-6.49634 -2.38425 0.0
-6.68727 -3.10971 0.0
-5.67313 -4.03151 0.0
-5.31526 -2.77056 0.0
-6.26159 -1.61049 0.0
-6.47566 -2.31142 0.0
-5.4935 -3.35441 0.0
-5.09548 -2.13925 0.0
-6.00222 -0.866687 0.0
-6.2386 -1.54031 0.0
-5.29227 -2.70038 0.0
-4.85567 -1.53576 0.0
-5.71927 -0.155736 0.0
-5.977 -0.799427 0.0
-5.07025 -2.07199 0.0
-4.59679 -0.962462 0.0
-5.41382 0.519584 0.0
-5.69191 -0.0916598 0.0
-4.82832 -1.47169 0.0
-4.31984 -0.421573 0.0
-5.08709 1.15665 0.0
-5.38445 0.580227 0.0
-4.56741 -0.901819 0.0
-4.0259 0.0848123 0.0
-4.74033 1.75298 0.0
-5.05581 1.21362 0.0
-4.28856 -0.364599 0.0
-3.71608 0.554739 0.0
-4.37489 2.30626 0.0
-4.70726 1.80606 0.0
-3.99282 0.137897 0.0
-3.39157 0.986392 0.0
-3.99215 2.81437 0.0
-4.34016 2.35525 0.0
-3.68135 0.603729 0.0
-3.05357 1.3781 0.0
-3.59355 3.27531 0.0
-3.95589 2.85907 0.0
-3.35531 1.0311 0.0
-2.70332 1.72832 0.0
-3.18058 3.68729 0.0
-3.55589 3.31556 0.0
-3.01591 1.41834 0.0
-2.3421 2.03565 0.0
-2.75474 4.04864 0.0
-3.14166 3.72291 0.0
-2.66441 1.76395 0.0
-1.97119 2.29881 0.0
-2.31759 4.35788 0.0
-2.7147 4.0795 0.0
-2.30206 2.06652 0.0
-1.59195 2.51659 0.0
-1.87073 4.61362 0.0
-2.27658 4.38384 0.0
-1.93018 2.32477 0.0
-1.20579 2.68793 0.0
-1.41585 4.81464 0.0
-1.8289 4.63456 0.0
-1.55012 2.53753 0.0
-0.814233 2.81187 0.0
-0.95474 4.95987 0.0
-1.37337 4.83046 0.0
-1.16331 2.70374 0.0
-0.418938 2.88765 0.0
-0.489331 5.04845 0.0
-0.911776 4.97047 0.0
-0.771269 2.82247 0.0
-0.0216812 2.91474 0.0
-0.0216812 5.07983 0.0
-0.44607 5.05377 0.0
-0.375677 2.89296 0.0
0.375676 2.89296 0.0
0.446069 5.05377 0.0
0.0216804 5.07983 0.0
0.0216804 2.91474 0.0
0.771268 2.82247 0.0
0.911775 4.97047 0.0
0.489331 5.04845 0.0
0.418937 2.88765 0.0
1.16331 2.70374 0.0
1.37337 4.83046 0.0
0.954739 4.95987 0.0
0.814232 2.81187 0.0
1.55012 2.53753 0.0
1.8289 4.63456 0.0
1.41585 4.81464 0.0
1.20579 2.68793 0.0
1.93018 2.32477 0.0
2.27658 4.38384 0.0
1.87073 4.61362 0.0
1.59195 2.51659 0.0
2.30206 2.06652 0.0
2.7147 4.0795 0.0
2.31758 4.35788 0.0
1.97119 2.29881 0.0
2.6644 1.76395 0.0
3.14166 3.72291 0.0
2.75474 4.04864 0.0
2.3421 2.03565 0.0
3.01591 1.41834 0.0
3.55589 3.31556 0.0
3.18058 3.68729 0.0
2.70332 1.72832 0.0
3.35531 1.0311 0.0
3.95589 2.85907 0.0
3.59355 3.27531 0.0
3.05357 1.3781 0.0
3.68135 0.603729 0.0
4.34016 2.35525 0.0
3.99215 2.81437 0.0
3.39157 0.986392 0.0
3.99282 0.137897 0.0
4.70726 1.80606 0.0
4.37489 2.30626 0.0
3.71608 0.554739 0.0
4.28856 -0.364599 0.0
5.05581 1.21362 0.0
4.74033 1.75298 0.0
4.02589 0.0848123 0.0
4.56741 -0.901819 0.0
5.38445 0.580227 0.0
5.08709 1.15665 0.0
4.31984 -0.421573 0.0
4.82832 -1.47169 0.0
5.69191 -0.0916598 0.0
5.41382 0.519584 0.0
4.59679 -0.962462 0.0
5.07025 -2.07199 0.0
5.977 -0.799427 0.0
5.71926 -0.155736 0.0
4.85567 -1.53576 0.0
5.29227 -2.70038 0.0
6.2386 -1.54031 0.0
6.00222 -0.866687 0.0
5.09547 -2.13925 0.0
5.4935 -3.35441 0.0
6.47566 -2.31142 0.0
6.26159 -1.61049 0.0
5.31526 -2.77056 0.0
5.67313 -4.03151 0.0
6.68727 -3.10971 0.0
6.49634 -2.38425 0.0
5.51417 -3.42724 0.0
5.83047 -4.72894 0.0
6.87257 -3.93202 0.0
6.70554 -3.1849 0.0
5.69141 -4.10669 0.0
5.96486 -5.44374 0.0
7.03082 -4.77495 0.0
6.88837 -4.00925 0.0
5.84627 -4.80617 0.0
6.07577 -6.17233 0.0
7.16139 -5.63457 0.0
7.04409 -4.85388 0.0
5.97813 -5.52267 0.0
6.16274 -6.90922 0.0
7.26372 -6.50522 0.0
7.17207 -5.71472 0.0
6.08645 -6.25248 0.0
6.22561 -7.64283 0.0
7.33756 -7.37511 0.0
7.2718 -6.58571 0.0
6.17082 -6.98971 0.0
6.26508 -8.3424 0.0
7.38354 -8.21103 0.0
7.34309 -7.45368 0.0
6.23113 -7.7214 0.0
6.26823 -8.41283 0.0
6.28419 -8.92719 0.0
7.40502 -8.91607 0.0
7.38669 -8.28146 0.0
-7.51074 -8.27362 0.0
-8.62905 -8.14194 0.0
-8.64972 -8.8992 0.0
-7.52908 -8.90823 0.0
-7.46666 -7.43154 0.0
-8.57844 -7.16309 0.0
-8.62542 -8.05721 0.0
-7.50711 -8.18889 0.0
-7.39442 -6.54845 0.0
-8.49521 -6.14402 0.0
-8.57197 -7.0694 0.0
-7.46019 -7.33785 0.0
-7.29324 -5.66251 0.0
-8.37865 -5.12461 0.0
-8.48568 -6.04858 0.0
-7.3849 -6.45301 0.0
-7.16332 -4.78701 0.0
-8.22907 -4.11825 0.0
-8.36603 -5.0298 0.0
-7.28062 -5.5677 0.0
-7.0052 -3.92802 0.0
-8.04707 -3.13124 0.0
-8.21339 -4.02496 0.0
-7.14765 -4.69372 0.0
-6.8195 -3.08965 0.0
-7.8334 -2.16805 0.0
-8.0284 -3.03999 0.0
-6.98652 -3.83677 0.0
-6.60697 -2.27536 0.0
-7.5889 -1.23261 0.0
-7.8118 -2.07923 0.0
-6.7979 -3.00083 0.0
-6.36846 -1.4884 0.0
-7.31455 -0.328624 0.0
-7.56447 -1.14658 0.0
-6.58254 -2.18933 0.0
-6.10492 -0.731876 0.0
-7.01143 0.540356 0.0
-7.28738 -0.245722 0.0
-6.34129 -1.4055 0.0
-5.81737 -0.00873595 0.0
-6.68074 1.37093 0.0
-6.98162 0.619805 0.0
-6.07511 -0.652427 0.0
-5.50696 0.678193 0.0
-6.32377 2.15984 0.0
-6.64842 1.44661 0.0
-5.78505 0.0669493 0.0
-5.17489 1.32624 0.0
-5.94192 2.90403 0.0
-6.28906 2.23147 0.0
-5.47225 0.749819 0.0
-4.82245 1.93288 0.0
-5.53668 3.60058 0.0
-5.90496 2.97131 0.0
-5.13792 1.39353 0.0
-4.45099 2.49577 0.0
-5.10961 4.24681 0.0
-5.4976 3.66327 0.0
-4.78337 1.99557 0.0
-4.06194 3.01273 0.0
-4.66235 4.84019 0.0
-5.06857 4.30466 0.0
-4.40995 2.55362 0.0
-3.65676 3.48175 0.0
-4.19658 5.37843 0.0
-4.6195 4.89297 0.0
-4.01909 3.06551 0.0
-3.23695 3.90098 0.0
-3.71406 5.8594 0.0
-4.15209 5.42593 0.0
-3.61227 3.52926 0.0
-2.80405 4.26876 0.0
-3.21656 6.28118 0.0
-3.66808 5.90144 0.0
-3.19097 3.94303 0.0
-2.35965 4.58354 0.0
-2.70593 6.64202 0.0
-3.16928 6.31759 0.0
-2.75677 4.30517 0.0
-1.90537 4.84394 0.0
-2.18406 6.94037 0.0
-2.65751 6.67265 0.0
-2.31123 4.61416 0.0
-1.44294 5.04871 0.0
-1.65293 7.17481 0.0
-2.13468 6.96506 0.0
-1.85599 4.86864 0.0
-0.974167 5.19677 0.0
-1.11463 7.34415 0.0
-1.60278 7.19345 0.0
-1.3928 5.06736 0.0
-0.501019 5.28724 0.0
-0.571388 7.44742 0.0
-1.06392 7.35664 0.0
-0.923463 5.20926 0.0
-0.0255822 5.31956 0.0
-0.0255822 7.48401 0.0
-0.52034 7.45369 0.0
-0.449971 5.29351 0.0
0.44997 5.29351 0.0
0.520339 7.45369 0.0
0.0255814 7.48401 0.0
0.0255814 5.31956 0.0
0.923462 5.20926 0.0
1.06392 7.35664 0.0
0.571387 7.44742 0.0
0.501018 5.28724 0.0
1.39279 5.06736 0.0
1.60278 7.19345 0.0
1.11462 7.34415 0.0
0.974166 5.19677 0.0
1.85599 4.86864 0.0
2.13468 6.96506 0.0
1.65293 7.17481 0.0
1.44294 5.04871 0.0
2.31123 4.61416 0.0
2.65751 6.67265 0.0
2.18406 6.94037 0.0
1.90537 4.84394 0.0
2.75677 4.30517 0.0
3.16928 6.31759 0.0
2.70593 6.64202 0.0
2.35965 4.58354 0.0
3.19097 3.94303 0.0
3.66808 5.90144 0.0
3.21656 6.28118 0.0
2.80405 4.26876 0.0
3.61227 3.52926 0.0
4.15209 5.42593 0.0
3.71406 5.8594 0.0
3.23695 3.90098 0.0
4.01909 3.06551 0.0
4.6195 4.89297 0.0
4.19658 5.37843 0.0
3.65676 3.48175 0.0
4.40995 2.55362 0.0
5.06857 4.30466 0.0
4.66235 4.84019 0.0
4.06194 3.01273 0.0
4.78336 1.99557 0.0
5.4976 3.66327 0.0
5.10961 4.24681 0.0
4.45099 2.49577 0.0
5.13792 1.39353 0.0
5.90495 2.97131 0.0
5.53668 3.60058 0.0
4.82245 1.93288 0.0
5.47224 0.749819 0.0
6.28906 2.23147 0.0
5.94192 2.90403 0.0
5.17489 1.32624 0.0
5.78505 0.0669493 0.0
6.64841 1.44661 0.0
6.32377 2.15984 0.0
5.50696 0.678193 0.0
6.07511 -0.652427 0.0
6.98162 0.619805 0.0
6.68074 1.37093 0.0
5.81737 -0.00873595 0.0
6.34129 -1.4055 0.0
7.28738 -0.245722 0.0
7.01143 0.540356 0.0
6.10492 -0.731876 0.0
6.58254 -2.18933 0.0
7.56447 -1.14658 0.0
7.31455 -0.328624 0.0
6.36846 -1.4884 0.0
6.7979 -3.00083 0.0
7.8118 -2.07923 0.0
7.5889 -1.23261 0.0
6.60697 -2.27536 0.0
6.98652 -3.83677 0.0
8.0284 -3.03999 0.0
7.8334 -2.16805 0.0
6.81949 -3.08965 0.0
7.14765 -4.69372 0.0
8.21339 -4.02496 0.0
8.04707 -3.13124 0.0
7.00519 -3.92802 0.0
7.28062 -5.5677 0.0
8.36603 -5.0298 0.0
8.22907 -4.11825 0.0
7.16332 -4.78701 0.0
7.38489 -6.45301 0.0
8.48568 -6.04858 0.0
8.37864 -5.12461 0.0
7.29324 -5.66251 0.0
7.46019 -7.33785 0.0
8.57197 -7.0694 0.0
8.49521 -6.14402 0.0
7.39442 -6.54845 0.0
7.50711 -8.18889 0.0
8.62541 -8.05721 0.0
8.57844 -7.16309 0.0
7.46666 -7.43154 0.0
7.51074 -8.27362 0.0
7.52907 -8.90823 0.0
8.64972 -8.8992 0.0
8.62904 -8.14194 0.0
-8.75312 -8.13417 0.0
-9.87031 -8.00227 0.0
-9.89331 -8.88397 0.0
-8.77379 -8.89143 0.0
-8.70203 -7.14089 0.0
-9.81267 -6.87216 0.0
-9.8662 -7.90311 0.0
-8.749 -8.03501 0.0
-8.61784 -6.1067 0.0
-9.71743 -5.7024 0.0
-9.80524 -6.76335 0.0
-8.6946 -7.03208 0.0
-8.49982 -5.07237 0.0
-9.58396 -4.53497 0.0
-9.70645 -5.59203 0.0
-8.60685 -5.99634 0.0
-8.34829 -4.05137 0.0
-9.41272 -3.3834 0.0
-9.5694 -4.42551 0.0
-8.48525 -4.96292 0.0
-8.16388 -3.05002 0.0
-9.20437 -2.25429 0.0
-9.39463 -3.27577 0.0
-8.3302 -3.94374 0.0
-7.94733 -2.07282 0.0
-8.95978 -1.15256 0.0
-9.18282 -2.14904 0.0
-8.14233 -2.94476 0.0
-7.6995 -1.12375 0.0
-8.67994 -0.0826128 0.0
-8.93486 -1.05011 0.0
-7.92241 -1.97038 0.0
-7.42139 -0.206574 0.0
-8.36595 0.951316 0.0
-8.65174 0.0166111 0.0
-7.67131 -1.02453 0.0
-7.11409 0.675117 0.0
-8.01907 1.94518 0.0
-8.3346 1.04693 0.0
-7.39003 -0.11096 0.0
-6.77881 1.51787 0.0
-7.64065 2.89508 0.0
-7.98467 2.0368 0.0
-7.07969 0.766745 0.0
-6.41687 2.31838 0.0
-7.23219 3.79731 0.0
-7.60335 2.98236 0.0
-6.74151 1.60515 0.0
-6.02968 3.07354 0.0
-6.79528 4.64835 0.0
-7.19213 3.87991 0.0
-6.37681 2.40098 0.0
-5.61875 3.7804 0.0
-6.33161 5.44489 0.0
-6.75262 4.72594 0.0
-5.98703 3.15113 0.0
-5.18567 4.43622 0.0
-5.843 6.18382 0.0
-6.28653 5.51717 0.0
-5.57366 3.85268 0.0
-4.7321 5.03845 0.0
-5.33131 6.86227 0.0
-5.79565 6.25051 0.0
-5.13832 4.50292 0.0
-4.25975 5.58475 0.0
-4.79848 7.4776 0.0
-5.28188 6.92312 0.0
-4.68267 5.0993 0.0
-3.7704 6.07297 0.0
-4.24652 8.02739 0.0
-4.74715 7.53236 0.0
-4.20843 5.63951 0.0
-3.26585 6.50116 0.0
-3.6775 8.50945 0.0
-4.1935 8.07585 0.0
-3.71737 6.12143 0.0
-2.74797 6.86756 0.0
-3.09353 8.92178 0.0
-3.62297 8.5514 0.0
-3.21131 6.54312 0.0
-2.21868 7.17055 0.0
-2.49678 9.26262 0.0
-3.03769 8.95705 0.0
-2.69213 6.90283 0.0
-1.68 7.40874 0.0
-1.88954 9.53039 0.0
-2.43986 9.29106 0.0
-2.16176 7.19899 0.0
-1.13404 7.5809 0.0
-1.2742 9.72377 0.0
-1.83174 9.55186 0.0
-1.6222 7.43021 0.0
-0.583068 7.68606 0.0
-0.653286 9.8417 0.0
-1.21576 9.73815 0.0
-1.0756 7.59528 0.0
-0.0294806 7.7236 0.0
-0.0294791 9.8835 0.0
-0.594457 9.84891 0.0
-0.524239 7.69327 0.0
0.524238 7.69327 0.0
0.594456 9.84891 0.0
0.0294813 9.8835 0.0
0.0294799 7.7236 0.0
1.0756 7.59528 0.0
1.21576 9.73815 0.0
0.653285 9.8417 0.0
0.583067 7.68606 0.0
1.6222 7.43021 0.0
1.83174 9.55186 0.0
1.2742 9.72377 0.0
1.13404 7.5809 0.0
2.16175 7.19899 0.0
2.43985 9.29106 0.0
1.88954 9.53039 0.0
1.68 7.40874 0.0
2.69213 6.90283 0.0
3.03769 8.95705 0.0
2.49678 9.26262 0.0
2.21868 7.17055 0.0
3.21131 6.54312 0.0
3.62297 8.5514 0.0
3.09353 8.92178 0.0
2.74797 6.86756 0.0
3.71737 6.12143 0.0
4.1935 8.07585 0.0
3.6775 8.50945 0.0
3.26585 6.50116 0.0
4.20843 5.63951 0.0
4.74715 7.53236 0.0
4.24652 8.02739 0.0
3.77039 6.07297 0.0
4.68267 5.0993 0.0
5.28187 6.92312 0.0
4.79848 7.4776 0.0
4.25975 5.58475 0.0
5.13832 4.50292 0.0
5.79565 6.25051 0.0
5.33131 6.86227 0.0
4.7321 5.03845 0.0
5.57366 3.85268 0.0
6.28653 5.51717 0.0
5.843 6.18382 0.0
5.18567 4.43622 0.0
5.98702 3.15113 0.0
6.75262 4.72594 0.0
6.33161 5.44489 0.0
5.61875 3.7804 0.0
6.37681 2.40098 0.0
7.19213 3.87991 0.0
6.79527 4.64835 0.0
6.02968 3.07354 0.0
6.74151 1.60515 0.0
7.60335 2.98236 0.0
7.23219 3.79731 0.0
6.41687 2.31838 0.0
7.07969 0.766745 0.0
7.98467 2.0368 0.0
7.64065 2.89508 0.0
6.77881 1.51787 0.0
7.39003 -0.11096 0.0
8.33459 1.04693 0.0
8.01907 1.94518 0.0
7.11409 0.675117 0.0
7.67131 -1.02453 0.0
8.65174 0.0166109 0.0
8.36595 0.951316 0.0
7.42139 -0.206574 0.0
7.92241 -1.97038 0.0
8.93486 -1.05011 0.0
8.67994 -0.082613 0.0
7.6995 -1.12375 0.0
8.14233 -2.94476 0.0
9.18282 -2.14904 0.0
8.95978 -1.15256 0.0
7.94733 -2.07282 0.0
8.3302 -3.94374 0.0
9.39463 -3.27577 0.0
9.20437 -2.25429 0.0
8.16388 -3.05002 0.0
8.48525 -4.96292 0.0
9.5694 -4.42551 0.0
9.41272 -3.3834 0.0
8.34829 -4.05137 0.0
8.60685 -5.99634 0.0
9.70645 -5.59203 0.0
9.58396 -4.53497 0.0
8.49981 -5.07237 0.0
8.6946 -7.03208 0.0
9.80524 -6.76335 0.0
9.71743 -5.7024 0.0
8.61784 -6.1067 0.0
8.749 -8.03501 0.0
9.8662 -7.90311 0.0
9.81267 -6.87216 0.0
8.70203 -7.14089 0.0
8.75311 -8.13417 0.0
8.77379 -8.89143 0.0
9.89331 -8.88397 0.0
9.87031 -8.00227 0.0
-9.99401 -7.99461 0.0
-10.6283 -7.92009 0.0
-11.1048 -7.86339 0.0
-11.1301 -8.87026 0.0
-10.017 -8.87631 0.0
-10.593 -7.81444 0.0
-9.95869 -7.88896 0.0
-9.90516 -6.85801 0.0
-10.4039 -6.73713 0.0
-10.3963 -6.61863 0.0
-9.8975 -6.73951 0.0
-9.8097 -5.67856 0.0
-10.2626 -5.51342 0.0
-10.5705 -6.57561 0.0
-10.2511 -5.393 0.0
-9.79818 -5.55813 0.0
-9.6757 -4.50107 0.0
-10.0917 -4.2966 0.0
-10.4963 -5.2998 0.0
-10.0762 -4.17684 0.0
-9.66023 -4.38131 0.0
-9.50354 -3.3392 0.0
-9.88921 -3.09895 0.0
-10.3725 -4.02658 0.0
-10.2019 -2.7693 0.0
-9.86982 -2.98098 0.0
-9.48415 -3.22123 0.0
-9.29389 -2.19975 0.0
-9.65251 -1.92718 0.0
-9.98095 -1.53935 0.0
-9.62918 -1.81143 0.0
-9.27056 -2.084 0.0
-9.04752 -1.08752 0.0
-9.3879 -0.779746 0.0
-9.71669 -0.340552 0.0
-9.36079 -0.666942 0.0
-9.0204 -0.974713 0.0
-8.76548 -0.00721431 0.0
-9.0899 0.335763 0.0
-9.40704 0.817526 0.0
-9.05902 0.445213 0.0
-8.7346 0.102235 0.0
-8.44881 1.03694 0.0
-8.76231 1.41978 0.0
-9.05884 1.93362 0.0
-8.7279 1.5253 0.0
-8.4144 1.14246 0.0
-8.09887 2.04071 0.0
-8.4016 2.46419 0.0
-8.67107 2.99925 0.0
-8.36373 2.5654 0.0
-8.061 2.14191 0.0
-7.71697 3.00018 0.0
-8.01119 3.46905 0.0
-8.24957 4.01449 0.0
-7.9701 3.56546 0.0
-7.67589 3.09659 0.0
-7.30472 3.91154 0.0
-7.58896 4.42594 0.0
-7.79512 4.97366 0.0
-7.5448 4.51719 0.0
-7.26055 4.00279 0.0
-6.86369 4.77123 0.0
-7.13728 5.3329 0.0
-7.30911 5.87134 0.0
-7.09019 5.41864 0.0
-6.8166 4.85697 0.0
-6.39559 5.57591 0.0
-6.65818 6.18805 0.0
-6.79611 6.70858 0.0
-6.60842 6.2679 0.0
-6.34582 5.65576 0.0
-5.9023 6.32241 0.0
-6.15128 6.98352 0.0
-6.25728 7.48046 0.0
-6.09901 7.05719 0.0
-5.85003 6.39608 0.0
-5.38569 7.00784 0.0
-5.61919 7.7179 0.0
-5.69494 8.18435 0.0
-5.56462 7.7851 0.0
-5.33112 7.07504 0.0
-4.84772 7.62952 0.0
-5.0637 8.38796 0.0
-5.00705 8.44843 0.0
-4.79106 7.68999 0.0
-4.29044 8.18502 0.0
-4.48676 8.99074 0.0
-5.11139 8.81784 0.0
-4.42823 9.04424 0.0
-4.2319 8.23852 0.0
-3.71591 8.67212 0.0
-3.8904 9.52354 0.0
-4.50897 9.37876 0.0
-3.83019 9.56985 0.0
-3.6557 8.71843 0.0
-3.12626 9.08881 0.0
-3.27707 9.98585 0.0
-3.88959 9.86318 0.0
-3.21546 10.0248 0.0
-3.06465 9.12774 0.0
-2.52374 9.4333 0.0
-2.64837 10.3716 0.0
-3.25655 10.2732 0.0
-2.58556 10.403 0.0
-2.46093 9.46468 0.0
-1.91062 9.70402 0.0
-2.00702 10.6808 0.0
-2.61177 10.6054 0.0
-1.94328 10.7043 0.0
-1.84688 9.72746 0.0
-1.28934 9.89937 0.0
-1.35502 10.9034 0.0
-1.9578 10.8581 0.0
-1.29079 10.9179 0.0
-1.2251 9.91382 0.0
-0.662626 10.0174 0.0
-0.694911 11.0036 0.0
-1.29742 11.0294 0.0
-0.629767 11.0132 0.0
-0.597483 10.027 0.0
-0.0325051 10.0616 0.0
-0.0321522 11.0269 0.0
-0.0328395 11.134 0.0
-0.632668 11.1227 0.0
0.0334345 11.0239 0.0
0.0330816 10.0586 0.0
0.598056 10.024 0.0
0.630365 11.011 0.0
0.63325 11.1206 0.0
0.694937 11.0045 0.0
0.662628 10.0174 0.0
1.2251 9.91387 0.0
1.29084 10.9188 0.0
1.29748 11.0304 0.0
1.35508 10.9043 0.0
1.28934 9.89942 0.0
1.84689 9.72751 0.0
1.94317 10.7031 0.0
1.95791 10.8592 0.0
2.00691 10.6796 0.0
1.91063 9.70401 0.0
2.46094 9.46468 0.0
2.58537 10.4015 0.0
2.61195 10.6066 0.0
2.64818 10.3701 0.0
2.52375 9.4333 0.0
3.06466 9.12774 0.0
3.21517 10.023 0.0
3.25682 10.2747 0.0
3.27679 9.98404 0.0
3.12628 9.08881 0.0
3.65572 8.71843 0.0
3.83055 9.57151 0.0
3.88999 9.86501 0.0
3.89072 9.5252 0.0
3.71589 8.67212 0.0
4.23188 8.23852 0.0
4.42849 9.04542 0.0
4.50854 9.37709 0.0
4.48703 8.99193 0.0
4.29042 8.18502 0.0
4.79105 7.68999 0.0
5.00721 8.44904 0.0
5.11103 8.81665 0.0
5.06387 8.38857 0.0
4.84771 7.62953 0.0
5.33111 7.07504 0.0
5.56458 7.78501 0.0
5.69473 8.18373 0.0
5.61916 7.71781 0.0
5.38569 7.00784 0.0
5.85003 6.39608 0.0
6.09866 7.05626 0.0
6.25732 7.48055 0.0
6.15094 6.98259 0.0
5.90231 6.3224 0.0
6.34584 5.65576 0.0
6.60848 6.26802 0.0
6.79653 6.70952 0.0
6.65823 6.18817 0.0
6.39559 5.57591 0.0
6.81659 4.85697 0.0
7.09069 5.41967 0.0
7.30905 5.87122 0.0
7.13777 5.33395 0.0
6.86367 4.77124 0.0
7.26053 4.0028 0.0
7.54462 4.51691 0.0
7.79452 4.97262 0.0
7.58881 4.42565 0.0
7.30472 3.91154 0.0
7.67589 3.09659 0.0
7.97027 3.56572 0.0
8.24976 4.01478 0.0
8.01135 3.46932 0.0
7.71697 3.00019 0.0
8.06099 2.14191 0.0
8.36417 2.56602 0.0
8.67087 2.99899 0.0
8.40203 2.46483 0.0
8.09886 2.04071 0.0
8.41439 1.14247 0.0
8.72682 1.52402 0.0
9.05833 1.93301 0.0
8.76127 1.41847 0.0
8.44884 1.03692 0.0
8.73463 0.10221 0.0
9.05972 0.445896 0.0
9.40826 0.818765 0.0
9.09055 0.336488 0.0
8.76546 -0.00719741 0.0
9.02038 -0.974696 0.0
9.36131 -0.666435 0.0
9.71592 -0.341215 0.0
9.38843 -0.77924 0.0
9.0475 -1.0875 0.0
9.27054 -2.08398 0.0
9.62943 -1.81121 0.0
9.98034 -1.53979 0.0
9.65278 -1.92696 0.0
9.29388 -2.19974 0.0
9.48414 -3.22122 0.0
9.86968 -2.98105 0.0
10.2016 -2.76948 0.0
9.88908 -3.09903 0.0
9.50354 -3.3392 0.0
9.66023 -4.38131 0.0
10.0757 -4.1771 0.0
10.3726 -4.02652 0.0
10.0912 -4.29687 0.0
9.6757 -4.50109 0.0
9.79819 -5.55815 0.0
10.2533 -5.39221 0.0
10.4969 -5.29961 0.0
10.2648 -5.51253 0.0
9.80967 -5.67847 0.0
9.89748 -6.73943 0.0
10.3946 -6.61895 0.0
10.5682 -6.57609 0.0
10.4023 -6.73759 0.0
9.90517 -6.85807 0.0
9.9587 -7.88902 0.0
10.5947 -7.81429 0.0
9.99401 -7.99461 0.0
10.017 -8.87631 0.0
11.1301 -8.87026 0.0
11.1048 -7.86339 0.0
10.63 -7.91989 0.0
-12.3005 -7.72877 0.0
-12.3289 -8.85875 0.0
-11.2514 -8.86281 0.0
-11.2261 -7.85594 0.0
-11.2209 -7.76251 0.0
-11.1903 -7.11583 0.0
-12.2685 -7.04986 0.0
-12.2953 -7.63534 0.0
-11.1509 -6.45802 0.0
-11.0962 -5.75013 0.0
-12.1745 -5.64288 0.0
-12.2164 -6.19952 0.0
-11.0372 -5.12313 0.0
-10.9545 -4.37493 0.0
-12.0336 -4.22553 0.0
-12.0883 -4.73629 0.0
-10.8798 -3.79636 0.0
-10.7663 -3.01577 0.0
-11.8469 -2.82359 0.0
-11.9111 -3.28488 0.0
-11.3497 -2.03748 0.0
-10.6556 -2.47944 0.0
-10.441 -1.33182 0.0
-10.7752 -1.0835 0.0
-11.102 -0.671695 0.0
-10.749 -0.954593 0.0
-10.4148 -1.20291 0.0
-10.1632 -0.0835693 0.0
-10.475 0.19325 0.0
-10.8066 0.659693 0.0
-10.4445 0.319127 0.0
-10.1328 0.0423077 0.0
-9.84539 1.12886 0.0
-10.1371 1.43289 0.0
-10.461 1.94584 0.0
-10.1024 1.55501 0.0
-9.81072 1.25098 0.0
-9.48871 2.30051 0.0
-9.76643 2.63589 0.0
-10.0727 3.18513 0.0
-9.72783 2.75359 0.0
-9.45011 2.41821 0.0
-9.09479 3.42663 0.0
-9.3594 3.7936 0.0
-9.64041 4.3681 0.0
-9.31693 3.90649 0.0
-9.05232 3.53952 0.0
-8.66508 4.50293 0.0
-8.92004 4.90652 0.0
-9.1706 5.49471 0.0
-8.87399 5.01404 0.0
-8.61904 4.61044 0.0
-8.20142 5.52511 0.0
-8.44606 5.96559 0.0
-8.66419 6.55866 0.0
-8.39658 6.06733 0.0
-8.15194 5.62686 0.0
-7.70556 6.48923 0.0
-7.94011 6.96889 0.0
-8.12276 7.55396 0.0
-7.88736 7.06448 0.0
-7.65282 6.58482 0.0
-7.17942 7.39157 0.0
-7.40442 7.91456 0.0
-7.55149 8.48184 0.0
-7.34871 8.00357 0.0
-7.12371 7.48058 0.0
-6.62511 8.22858 0.0
-6.83849 8.79395 0.0
-6.95169 9.33692 0.0
-6.78001 8.87606 0.0
-6.56662 8.31069 0.0
-6.04473 8.99703 0.0
-6.24518 9.60563 0.0
-6.32596 10.1164 0.0
-6.18414 9.68052 0.0
-5.98369 9.07192 0.0
-5.44049 9.69394 0.0
-5.62641 10.3461 0.0
-5.67691 10.8176 0.0
-5.56305 10.4135 0.0
-5.37713 9.76131 0.0
-4.81466 10.3166 0.0
-4.98426 11.0121 0.0
-5.00712 11.4383 0.0
-4.91882 11.0717 0.0
-4.74923 10.3762 0.0
-4.16959 10.8625 0.0
-4.32096 11.6008 0.0
-4.31873 11.9741 0.0
-4.25366 11.6523 0.0
-4.10229 10.914 0.0
-3.50766 11.3294 0.0
-3.63918 12.1115 0.0
-3.61541 12.4276 0.0
-3.57034 12.1548 0.0
-3.43881 11.3727 0.0
-2.8314 11.7153 0.0
-2.94063 12.5376 0.0
-2.89927 12.7949 0.0
-2.87046 12.5725 0.0
-2.76123 11.7502 0.0
-2.14335 12.0185 0.0
-2.2283 12.8791 0.0
-2.17307 13.0746 0.0
-2.15708 12.9054 0.0
-2.07214 12.0449 0.0
-1.44624 12.2375 0.0
-1.50491 13.1342 0.0
-1.43968 13.2655 0.0
-1.43293 13.1518 0.0
-1.37426 12.2552 0.0
-0.742891 12.3712 0.0
-0.77335 13.3014 0.0
-0.703703 13.4096 0.0
-0.701169 13.3114 0.0
-0.670711 12.3812 0.0
-0.0365754 12.42 0.0
-0.0362205 13.2848 0.0
-0.036906 13.3805 0.0
0.0375575 13.2822 0.0
0.0372026 12.4173 0.0
0.671337 12.3786 0.0
0.701761 13.3077 0.0
0.704275 13.4059 0.0
0.773327 13.3003 0.0
0.742904 12.3712 0.0
1.37427 12.2552 0.0
1.43286 13.1507 0.0
1.43976 13.2665 0.0
1.50485 13.133 0.0
1.44625 12.2375 0.0
2.07215 12.0449 0.0
2.15696 12.9041 0.0
2.1732 13.0757 0.0
2.22818 12.8777 0.0
2.14337 12.0185 0.0
2.76125 11.7502 0.0
2.87026 12.5708 0.0
2.89947 12.7963 0.0
2.94043 12.5359 0.0
2.83142 11.7153 0.0
3.43883 11.3727 0.0
3.57037 12.1549 0.0
3.61572 12.4293 0.0
3.63919 12.1116 0.0
3.50765 11.3294 0.0
4.10229 10.914 0.0
4.25403 11.6541 0.0
4.31871 11.9741 0.0
4.3213 11.6025 0.0
4.16957 10.8625 0.0
4.7492 10.3762 0.0
4.9191 11.073 0.0
5.00665 11.4365 0.0
4.98455 11.0134 0.0
4.81464 10.3166 0.0
5.37711 9.76132 0.0
5.56319 10.4141 0.0
5.67653 10.8164 0.0
5.62656 10.3467 0.0
5.44048 9.69394 0.0
5.98368 9.07192 0.0
6.18405 9.6803 0.0
6.32576 10.1158 0.0
6.24511 9.60541 0.0
6.04473 8.99703 0.0
6.56663 8.31069 0.0
6.77956 8.87487 0.0
6.95178 9.33715 0.0
6.83806 8.79276 0.0
6.62513 8.22857 0.0
7.12373 7.48057 0.0
7.34872 8.00353 0.0
7.55203 8.48303 0.0
7.4044 7.91452 0.0
7.17942 7.39157 0.0
7.65282 6.58482 0.0
7.88784 7.06545 0.0
8.12278 7.554 0.0
7.94057 6.96987 0.0
7.70554 6.48924 0.0
8.15192 5.62687 0.0
8.39627 6.06682 0.0
8.66363 6.55769 0.0
8.44578 5.96506 0.0
8.20143 5.5251 0.0
8.61905 4.61044 0.0
8.87408 5.01414 0.0
9.17094 5.49522 0.0
8.92011 4.90663 0.0
8.66508 4.50293 0.0
9.05231 3.53952 0.0
9.31732 3.90704 0.0
9.64032 4.36799 0.0
9.35978 3.79416 0.0
9.09477 3.42664 0.0
9.4501 2.41823 0.0
9.72657 2.7521 0.0
10.0723 3.18461 0.0
9.76522 2.63435 0.0
9.48875 2.30047 0.0
9.81076 1.25095 0.0
10.1033 1.55582 0.0
10.4625 1.94726 0.0
10.1379 1.43376 0.0
9.84536 1.12889 0.0
10.1328 0.0423356 0.0
10.443 0.317814 0.0
10.8057 0.658918 0.0
10.4735 0.19186 0.0
10.1633 -0.0836183 0.0
10.4149 -1.20296 0.0
10.7499 -0.953989 0.0
11.1037 -0.670506 0.0
10.776 -1.08282 0.0
10.441 -1.33179 0.0
10.6556 -2.47941 0.0
11.3487 -2.03804 0.0
11.7123 -1.91981 0.0
11.3979 -2.11047 0.0
10.7048 -2.55185 0.0
10.7677 -2.94162 0.0
11.8486 -2.75166 0.0
12.035 -4.15481 0.0
11.9313 -3.35047 0.0
10.9 -3.86195 0.0
10.9555 -4.30115 0.0
12.1756 -5.57349 0.0
12.1035 -4.80417 0.0
11.0525 -5.19102 0.0
11.0969 -5.67663 0.0
12.2692 -6.98348 0.0
12.2267 -6.26802 0.0
11.1611 -6.52653 0.0
11.1907 -7.04405 0.0
11.2261 -7.85594 0.0
11.2514 -8.86281 0.0
12.3289 -8.85875 0.0
12.3005 -7.72877 0.0
-10.9557 -4.30271 0.0
-10.8999 -3.86196 0.0
-11.9312 -3.35048 0.0
-12.0348 -4.15331 0.0
10.9542 -4.37338 0.0
11.0372 -5.12314 0.0
12.0882 -4.73629 0.0
12.0337 -4.22704 0.0
-11.097 -5.67873 0.0
-11.0524 -5.19102 0.0
-12.1034 -4.80418 0.0
-12.1753 -5.57148 0.0
11.0959 -5.74804 0.0
11.1508 -6.45803 0.0
12.2164 -6.19952 0.0
12.1746 -5.64491 0.0
-10.7678 -2.94275 0.0
-10.7048 -2.55186 0.0
-11.3988 -2.1099 0.0
-11.7123 -1.91982 0.0
-11.8484 -2.75058 0.0
10.7661 -3.01465 0.0
10.8798 -3.79637 0.0
11.9111 -3.28488 0.0
11.847 -2.82468 0.0
-11.713 -1.7947 0.0
-11.3996 -1.98477 0.0
-10.8251 -1.03079 0.0
-11.1781 -0.747894 0.0
-11.4697 -0.530821 0.0
11.1798 -0.746689 0.0
10.826 -1.03017 0.0
11.3986 -1.98539 0.0
11.713 -1.79473 0.0
11.4698 -0.530852 0.0
-11.4408 -0.395194 0.0
-11.1491 -0.612267 0.0
-10.522 0.252679 0.0
-10.8842 0.593244 0.0
-11.157 0.835971 0.0
10.8832 0.592498 0.0
10.5205 0.251394 0.0
11.1507 -0.610972 0.0
11.4408 -0.395136 0.0
11.1569 0.836024 0.0
-11.1237 0.967615 0.0
-10.8509 0.724887 0.0
-10.1814 1.49809 0.0
-10.54 1.88891 0.0
-10.8008 2.1612 0.0
10.5414 1.89034 0.0
10.1822 1.4989 0.0
10.85 0.724059 0.0
11.1238 0.967585 0.0
10.8008 2.16118 0.0
-11.1908 -7.0468 0.0
-11.161 -6.52654 0.0
-12.2266 -6.26803 0.0
-12.269 -6.98084 0.0
11.19 -7.11309 0.0
11.2208 -7.76251 0.0
12.2952 -7.63534 0.0
12.2685 -7.05251 0.0
10.1526 3.13707 0.0
9.80688 2.70457 0.0
10.5041 2.01748 0.0
10.7635 2.28832 0.0
10.403 3.43991 0.0
-10.7636 2.28827 0.0
-10.5028 2.01599 0.0
-9.80817 2.70603 0.0
-10.1531 3.13757 0.0
-10.403 3.43987 0.0
-10.3618 3.56209 0.0
-10.1119 3.25979 0.0
-9.39855 3.86826 0.0
-9.72202 4.32987 0.0
-9.96517 4.66744 0.0
9.72195 4.32974 0.0
9.39896 3.8688 0.0
10.1114 3.25924 0.0
10.3618 3.56208 0.0
9.96518 4.66743 0.0
-9.92029 4.7843 0.0
-9.67715 4.44673 0.0
-8.95678 4.98515 0.0
-9.25339 5.46582 0.0
-9.48922 5.83938 0.0
9.25372 5.46634 0.0
8.95686 4.98526 0.0
9.67707 4.44661 0.0
9.92029 4.7843 0.0
9.48922 5.83938 0.0
-9.44072 5.95058 0.0
-9.20489 5.57702 0.0
-8.48035 6.04789 0.0
-8.74796 6.53921 0.0
-8.97693 6.95151 0.0
8.7474 6.53825 0.0
8.48004 6.04738 0.0
9.2052 5.57754 0.0
9.44071 5.95059 0.0
8.97691 6.95151 0.0
-8.92503 7.05661 0.0
-8.69606 6.64432 0.0
-7.97197 7.05455 0.0
-8.20738 7.54404 0.0
-8.43031 7.9997 0.0
8.20741 7.54406 0.0
7.97247 7.05551 0.0
8.69554 6.64333 0.0
8.92505 7.0566 0.0
8.43032 7.99968 0.0
-8.37524 8.09832 0.0
-8.15231 7.64265 0.0
-7.43396 8.00325 0.0
-7.63674 8.48152 0.0
-7.85148 8.98007 0.0
7.63726 8.48272 0.0
7.43395 8.00322 0.0
8.15233 7.64269 0.0
8.37524 8.09832 0.0
7.85148 8.98007 0.0
-7.79336 9.0719 0.0
-7.57862 8.57335 0.0
-6.86562 8.88546 0.0
-7.0373 9.34632 0.0
-7.24253 9.88904 0.0
7.03737 9.34655 0.0
6.86515 8.88428 0.0
7.57912 8.57456 0.0
7.79334 9.07191 0.0
7.24251 9.88905 0.0
-7.1816 9.97372 0.0
-6.97638 9.431 0.0
-6.26987 9.69971 0.0
-6.41169 10.1356 0.0
-6.60576 10.7232 0.0
6.41149 10.135 0.0
6.26979 9.69948 0.0
6.97646 9.43122 0.0
7.1816 9.97372 0.0
6.60576 10.7232 0.0
-6.54225 10.8004 0.0
-6.34818 10.2128 0.0
-5.64862 10.4425 0.0
-5.76248 10.8466 0.0
-5.94353 11.4794 0.0
5.76213 10.8454 0.0
5.6488 10.4431 0.0
6.34799 10.2122 0.0
6.54226 10.8004 0.0
5.94353 11.4794 0.0
-5.87766 11.5488 0.0
-5.69662 10.9161 0.0
-5.00397 11.1106 0.0
-5.09227 11.4772 0.0
-5.25826 12.1547 0.0
5.09184 11.4753 0.0
5.00429 11.1118 0.0
5.69627 10.9148 0.0
5.87768 11.5488 0.0
5.25827 12.1547 0.0
-10.7924 -3.80288 0.0
-10.4282 -3.98191 0.0
-9.94492 -3.05428 0.0
-10.277 -2.8426 0.0
-10.6158 -2.63139 0.0
-10.6789 -3.02229 0.0
10.2767 -2.84278 0.0
9.94479 -3.05435 0.0
10.4283 -3.98184 0.0
10.7924 -3.80288 0.0
10.6787 -3.02116 0.0
10.6158 -2.63139 0.0
-10.9484 -5.1201 0.0
-10.5541 -5.26363 0.0
-10.1495 -4.26042 0.0
-10.4458 -4.11017 0.0
-10.8099 -3.93115 0.0
-10.8657 -4.37189 0.0
10.4459 -4.11008 0.0
10.149 -4.26066 0.0
10.5547 -5.2634 0.0
10.9484 -5.12008 0.0
10.8655 -4.37032 0.0
10.8099 -3.93113 0.0
-5.19027 12.2162 0.0
-5.02428 11.5386 0.0
-4.33812 11.7011 0.0
-4.40319 12.0229 0.0
-4.55245 12.7466 0.0
4.4032 12.0228 0.0
4.33852 11.7028 0.0
5.02387 11.5368 0.0
5.1903 12.2161 0.0
4.55248 12.7466 0.0
-10.594 -2.50574 0.0
-10.2552 -2.71695 0.0
-9.70583 -1.87482 0.0
-10.0576 -1.60274 0.0
-10.3794 -1.35811 0.0
10.057 -1.60321 0.0
9.7061 -1.87463 0.0
10.2549 -2.71714 0.0
10.594 -2.50575 0.0
10.3794 -1.35812 0.0
-10.3539 -1.23556 0.0
-10.032 -1.48019 0.0
-9.43899 -0.720585 0.0
-9.79489 -0.394195 0.0
-10.1023 -0.116221 0.0
9.79415 -0.394891 0.0
9.43954 -0.720111 0.0
10.0315 -1.48066 0.0
10.3539 -1.23558 0.0
10.1023 -0.116235 0.0
-4.48263 12.7998 0.0
-4.33337 12.076 0.0
-3.65382 12.2133 0.0
-3.69889 12.4861 0.0
-3.82872 13.2527 0.0
3.69918 12.4878 0.0
3.65383 12.2134 0.0
4.33335 12.0759 0.0
4.48263 12.7998 0.0
3.82872 13.2527 0.0
9.48791 0.774778 0.0
9.13937 0.401909 0.0
9.76473 -0.275794 0.0
10.0729 0.0028618 0.0
9.78546 1.08941 0.0
-10.0728 0.00287889 0.0
-9.76547 -0.275095 0.0
-9.13868 0.401221 0.0
-9.4867 0.773534 0.0
-9.78544 1.08943 0.0
-9.75236 1.20455 0.0
-9.45362 0.888656 0.0
-8.80888 1.49091 0.0
-9.13983 1.89923 0.0
-9.43035 2.25408 0.0
9.1393 1.89864 0.0
8.8078 1.48965 0.0
9.45479 0.889948 0.0
9.75233 1.20458 0.0
9.43033 2.25411 0.0
-3.75725 13.2974 0.0
-3.62743 12.5308 0.0
-2.95265 12.6408 0.0
-2.98145 12.8632 0.0
-3.08965 13.6708 0.0
2.98161 12.8646 0.0
2.9524 12.6391 0.0
3.62769 12.5325 0.0
3.75723 13.2974 0.0
3.08963 13.6709 0.0
-0.668296 12.2682 0.0
-0.634323 11.2408 0.0
-0.0344941 11.252 0.0
-0.034161 12.307 0.0
0.0332369 11.2491 0.0
0.0339242 11.1419 0.0
0.63374 11.2386 0.0
0.667705 12.2653 0.0
0.0335701 12.3041 0.0
-3.01684 13.7069 0.0
-2.90864 12.8992 0.0
-2.23767 12.9833 0.0
-2.25365 13.1524 0.0
-2.33805 13.9993 0.0
2.25375 13.1536 0.0
2.23751 12.982 0.0
2.90881 12.9006 0.0
3.01682 13.7069 0.0
2.33803 13.9993 0.0
8.75305 2.97423 0.0
8.44635 2.54127 0.0
9.10264 2.00945 0.0
9.39366 2.36492 0.0
9.03834 3.37334 0.0
-9.39365 2.36493 0.0
-9.10313 2.01008 0.0
-8.44589 2.54066 0.0
-8.75323 2.97451 0.0
-9.03833 3.37335 0.0
-1.36745 12.1423 0.0
-1.30171 11.1471 0.0
-0.699208 11.1213 0.0
-0.70211 11.2308 0.0
-0.736083 12.2583 0.0
0.702117 11.2317 0.0
0.699233 11.1222 0.0
1.30177 11.1481 0.0
1.36745 12.1423 0.0
0.736082 12.2584 0.0
-2.26416 14.0264 0.0
-2.17977 13.1796 0.0
-1.51161 13.2392 0.0
-1.51836 13.3529 0.0
-1.57679 14.2364 0.0
1.51841 13.3539 0.0
1.51152 13.2381 0.0
2.17987 13.1808 0.0
2.26415 14.0264 0.0
1.57677 14.2364 0.0
-1.50213 14.2546 0.0
-1.4437 13.371 0.0
-0.777368 13.4069 0.0
-0.779901 13.5051 0.0
-0.808927 14.381 0.0
0.779832 13.5042 0.0
0.777317 13.4059 0.0
1.44375 13.3721 0.0
1.50211 14.2546 0.0
0.808912 14.381 0.0
-0.733546 14.3912 0.0
-0.70452 13.5154 0.0
-0.0377235 13.4863 0.0
-0.0373943 14.4334 0.0
0.0364299 13.4836 0.0
0.0371154 13.3879 0.0
0.703833 13.5117 0.0
0.732913 14.3885 0.0
0.0367591 14.4307 0.0
-2.06138 11.9344 0.0
-1.96589 10.975 0.0
-1.36311 11.0203 0.0
-1.36974 11.1318 0.0
-1.43547 12.127 0.0
1.3698 11.1328 0.0
1.36316 11.0212 0.0
1.96599 10.9761 0.0
2.06138 11.9344 0.0
1.43547 12.1271 0.0
-8.99822 3.47946 0.0
-8.71312 3.08062 0.0
-8.05324 3.55042 0.0
-8.33271 3.99946 0.0
-8.61098 4.44287 0.0
8.3329 3.99975 0.0
8.05341 3.55068 0.0
8.71293 3.08035 0.0
8.99822 3.47946 0.0
8.61098 4.44287 0.0
-2.74631 11.6415 0.0
-2.62318 10.7212 0.0
-2.01842 10.7966 0.0
-2.03294 10.9504 0.0
-2.12843 11.9098 0.0
2.03303 10.9515 0.0
2.01829 10.7954 0.0
2.62333 10.7224 0.0
2.74629 11.6415 0.0
2.12842 11.9098 0.0
-8.56752 4.54393 0.0
-8.28925 4.10052 0.0
-7.62865 4.51197 0.0
-7.87897 4.96843 0.0
-8.1499 5.45859 0.0
7.87839 4.9674 0.0
7.62848 4.51168 0.0
8.28943 4.10081 0.0
8.56752 4.54393 0.0
8.1499 5.4586 0.0
-3.41973 11.2661 0.0
-3.27115 10.3875 0.0
-2.66296 10.4859 0.0
-2.68918 10.6883 0.0
-2.81231 11.6087 0.0
2.68933 10.6896 0.0
2.66275 10.4844 0.0
3.27138 10.389 0.0
3.41971 11.2661 0.0
2.81229 11.6087 0.0
-8.1033 5.55419 0.0
-7.83237 5.06403 0.0
-7.17453 5.42328 0.0
-7.39345 5.87599 0.0
-7.65692 6.41657 0.0
7.39341 5.87586 0.0
7.17505 5.42431 0.0
7.83181 5.06298 0.0
8.10332 5.55418 0.0
7.65694 6.41656 0.0
-11.0611 -6.44564 0.0
-10.6301 -6.54897 0.0
-10.3222 -5.48678 0.0
-10.5675 -5.39357 0.0
-10.9618 -5.25005 0.0
-11.0064 -5.73775 0.0
10.568 -5.39345 0.0
10.3244 -5.48605 0.0
10.6278 -6.54961 0.0
11.0611 -6.44572 0.0
11.0062 -5.73574 0.0
10.9618 -5.25013 0.0
-7.60737 6.50634 0.0
-7.3439 5.96576 0.0
-6.69297 6.28246 0.0
-6.88067 6.72314 0.0
-7.13397 7.31308 0.0
6.88108 6.72408 0.0
6.69303 6.28258 0.0
7.34384 5.96563 0.0
7.60737 6.50633 0.0
7.13397 7.31308 0.0
-4.07912 10.81 0.0
-3.90733 9.97562 0.0
-3.29481 10.0983 0.0
-3.3359 10.3467 0.0
-3.48448 11.2253 0.0
3.33613 10.3482 0.0
3.29448 10.0965 0.0
3.90768 9.97745 0.0
4.0791 10.81 0.0
3.48446 11.2253 0.0
-7.08159 7.39671 0.0
-6.82829 6.80677 0.0
-6.18346 7.08171 0.0
-6.34173 7.50498 0.0
-6.58299 8.14471 0.0
6.34175 7.50508 0.0
6.18309 7.08079 0.0
6.82868 6.80772 0.0
7.08158 7.39672 0.0
6.58298 8.14471 0.0
-4.72199 10.2752 0.0
-4.52973 9.48901 0.0
-3.91116 9.63379 0.0
-3.97056 9.92712 0.0
-4.14235 10.7615 0.0
3.97096 9.92894 0.0
3.91152 9.63545 0.0
4.52934 9.48733 0.0
4.722 10.2752 0.0
4.14237 10.7615 0.0
-6.52801 8.22186 0.0
-6.28675 7.58213 0.0
-5.64866 7.81957 0.0
-5.77897 8.21882 0.0
-6.00612 8.9082 0.0
5.77877 8.21821 0.0
5.64862 7.81948 0.0
6.28678 7.58223 0.0
6.52801 8.22186 0.0
6.00612 8.9082 0.0
-5.34598 9.66393 0.0
-5.13514 8.92556 0.0
-4.51051 9.09846 0.0
-4.59125 9.43298 0.0
-4.78351 10.2192 0.0
4.59086 9.4313 0.0
4.51081 9.09964 0.0
5.13481 8.92436 0.0
5.34599 9.66393 0.0
4.78352 10.2192 0.0
-5.94874 8.97858 0.0
-5.72159 8.2892 0.0
-5.09036 8.49281 0.0
-5.19471 8.86223 0.0
-5.40554 9.6006 0.0
5.19437 8.86103 0.0
5.09054 8.49342 0.0
5.7214 8.28858 0.0
5.94875 8.97858 0.0
5.40555 9.6006 0.0
-11.1304 -7.74182 0.0
-10.654 -7.79852 0.0
-10.4649 -6.72122 0.0
-10.6392 -6.6782 0.0
-11.0701 -6.57487 0.0
-11.0998 -7.09514 0.0
10.6368 -6.6787 0.0
10.4633 -6.72156 0.0
10.6557 -7.79826 0.0
11.1304 -7.74176 0.0
11.0997 -7.09234 0.0
11.0701 -6.57482 0.0
</DataArray>
</Points>
<Cells>
<DataArray type="Int32" Name="connectivity" format="ascii">
0 1 2 3 
4 5 6 7 
8 9 10 11 
12 13 14 15 
16 17 18 19 
20 21 22 23 
24 25 26 27 
28 29 30 31 
32 33 34 35 
36 37 38 39 
40 41 42 43 
44 45 46 47 
48 49 50 51 
52 53 54 55 
56 57 58 59 
60 61 62 63 
64 65 66 67 
68 69 70 71 
72 73 74 75 
76 77 78 79 
80 81 82 83 
84 85 86 87 
88 89 90 91 
92 93 94 95 
96 97 98 99 
100 101 102 103 
104 105 106 107 
108 109 110 111 
112 113 114 115 
116 117 118 119 
120 121 122 123 
124 125 126 127 
128 129 130 131 
132 133 134 135 
136 137 138 139 
140 141 142 143 
144 145 146 147 
148 149 150 151 
152 153 154 155 
156 157 158 159 
160 161 162 163 
164 165 166 167 
168 169 170 171 
172 173 174 175 
176 177 178 179 
180 181 182 183 
184 185 186 187 
188 189 190 191 
192 193 194 195 
196 197 198 199 
200 201 202 203 
204 205 206 207 
208 209 210 211 
212 213 214 215 
216 217 218 219 
220 221 222 223 
224 225 226 227 
228 229 230 231 
232 233 234 235 
236 237 238 239 
240 241 242 243 
244 245 246 247 
248 249 250 251 
252 253 254 255 
256 257 258 259 
260 261 262 263 
264 265 266 267 
268 269 270 271 
272 273 274 275 
276 277 278 279 
280 281 282 283 
284 285 286 287 
288 289 290 291 
292 293 294 295 
296 297 298 299 
300 301 302 303 
304 305 306 307 
308 309 310 311 
312 313 314 315 
316 317 318 319 
320 321 322 323 
324 325 326 327 
328 329 330 331 
332 333 334 335 
336 337 338 339 
340 341 342 343 
344 345 346 347 
348 349 350 351 
352 353 354 355 
356 357 358 359 
360 361 362 363 
364 365 366 367 
368 369 370 371 
372 373 374 375 
376 377 378 379 
380 381 382 383 
384 385 386 387 
388 389 390 391 
392 393 394 395 
396 397 398 399 
400 401 402 403 
404 405 406 407 
408 409 410 411 
412 413 414 415 
416 417 418 419 
420 421 422 423 
424 425 426 427 
428 429 430 431 
432 433 434 435 
436 437 438 439 
440 441 442 443 
444 445 446 447 
448 449 450 451 
452 453 454 455 
456 457 458 459 
460 461 462 463 
464 465 466 467 
468 469 470 471 
472 473 474 475 
476 477 478 479 
480 481 482 483 
484 485 486 487 
488 489 490 491 
492 493 494 495 
496 497 498 499 
500 501 502 503 
504 505 506 507 
508 509 510 511 
512 513 514 515 
516 517 518 519 
520 521 522 523 
524 525 526 527 
528 529 530 531 
532 533 534 535 
536 537 538 539 
540 541 542 543 
544 545 546 547 
548 549 550 551 
552 553 554 555 
556 557 558 559 
560 561 562 563 
564 565 566 567 
568 569 570 571 
572 573 574 575 
576 577 578 579 
580 581 582 583 
584 585 586 587 
588 589 590 591 
592 593 594 595 
596 597 598 599 
600 601 602 603 
604 605 606 607 
608 609 610 611 
612 613 614 615 
616 617 618 619 
620 621 622 623 
624 625 626 627 
628 629 630 631 
632 633 634 635 
636 637 638 639 
640 641 642 643 
644 645 646 647 
648 649 650 651 
652 653 654 655 
656 657 658 659 
660 661 662 663 
664 665 666 667 
668 669 670 671 
672 673 674 675 
676 677 678 679 
680 681 682 683 
684 685 686 687 
688 689 690 691 
692 693 694 695 
696 697 698 699 
700 701 702 703 
704 705 706 707 
708 709 710 711 
712 713 714 715 
716 717 718 719 
720 721 722 723 
724 725 726 727 
728 729 730 731 
732 733 734 735 
736 737 738 739 
740 741 742 743 
744 745 746 747 
748 749 750 751 
752 753 754 755 
756 757 758 759 
760 761 762 763 
764 765 766 767 
768 769 770 771 
772 773 774 775 
776 777 778 779 
780 781 782 783 
784 785 786 787 
788 789 790 791 
792 793 794 795 
796 797 798 799 
800 801 802 803 
804 805 806 807 
808 809 810 811 
812 813 814 815 
816 817 818 819 
820 821 822 823 
824 825 826 827 
828 829 830 831 
832 833 834 835 
836 837 838 839 
840 841 842 843 
844 845 846 847 
848 849 850 851 
852 853 854 855 
856 857 858 859 
860 861 862 863 
864 865 866 867 
868 869 870 871 
872 873 874 875 
876 877 878 879 
880 881 882 883 
884 885 886 887 
888 889 890 891 
892 893 894 895 
896 897 898 899 
900 901 902 903 
904 905 906 907 
908 909 910 911 
912 913 914 915 
916 917 918 919 
920 921 922 923 
924 925 926 927 
928 929 930 931 
932 933 934 935 
936 937 938 939 
940 941 942 943 
944 945 946 947 
948 949 950 951 
952 953 954 955 
956 957 958 959 
960 961 962 963 
964 965 966 967 
968 969 970 971 
972 973 974 975 
976 977 978 979 
980 981 982 983 
984 985 986 987 
988 989 990 991 
992 993 994 995 
996 997 998 999 
1000 1001 1002 1003 
1004 1005 1006 1007 
1008 1009 1010 1011 
1012 1013 1014 1015 
1016 1017 1018 1019 
1020 1021 1022 1023 
1024 1025 1026 1027 
1028 1029 1030 1031 
1032 1033 1034 1035 
1036 1037 1038 1039 
1040 1041 1042 1043 
1044 1045 1046 1047 
1048 1049 1050 1051 
1052 1053 1054 1055 
1056 1057 1058 1059 
1060 1061 1062 1063 
1064 1065 1066 1067 
1068 1069 1070 1071 
1072 1073 1074 1075 
1076 1077 1078 1079 
1080 1081 1082 1083 
1084 1085 1086 1087 
1088 1089 1090 1091 
1092 1093 1094 1095 
1096 1097 1098 1099 
1100 1101 1102 1103 
1104 1105 1106 1107 
1108 1109 1110 1111 
1112 1113 1114 1115 
1116 1117 1118 1119 
1120 1121 1122 1123 
1124 1125 1126 1127 
1128 1129 1130 1131 
1132 1133 1134 1135 
1136 1137 1138 1139 
1140 1141 1142 1143 
1144 1145 1146 1147 
1148 1149 1150 1151 
1152 1153 1154 1155 
1156 1157 1158 1159 
1160 1161 1162 1163 
1164 1165 1166 1167 
1168 1169 1170 1171 
1172 1173 1174 1175 
1176 1177 1178 1179 
1180 1181 1182 1183 
1184 1185 1186 1187 
1188 1189 1190 1191 
1192 1193 1194 1195 
1196 1197 1198 1199 
1200 1201 1202 1203 
1204 1205 1206 1207 
1208 1209 1210 1211 
1212 1213 1214 1215 
1216 1217 1218 1219 
1220 1221 1222 1223 
1224 1225 1226 1227 
1228 1229 1230 1231 
1232 1233 1234 1235 
1236 1237 1238 1239 
1240 1241 1242 1243 
1244 1245 1246 1247 
1248 1249 1250 1251 
1252 1253 1254 1255 
1256 1257 1258 1259 
1260 1261 1262 1263 
1264 1265 1266 1267 
1268 1269 1270 1271 
1272 1273 1274 1275 
1276 1277 1278 1279 
1280 1281 1282 1283 
1284 1285 1286 1287 
1288 1289 1290 1291 
1292 1293 1294 1295 
1296 1297 1298 1299 
1300 1301 1302 1303 
1304 1305 1306 1307 
1308 1309 1310 1311 
1312 1313 1314 1315 
1316 1317 1318 1319 
1320 1321 1322 1323 
1324 1325 1326 1327 
1328 1329 1330 1331 
1332 1333 1334 1335 
1336 1337 1338 1339 
1340 1341 1342 1343 
1344 1345 1346 1347 
1348 1349 1350 1351 
1352 1353 1354 1355 
1356 1357 1358 1359 
1360 1361 1362 1363 
1364 1365 1366 1367 
1368 1369 1370 1371 
1372 1373 1374 1375 
1376 1377 1378 1379 
1380 1381 1382 1383 
1384 1385 1386 1387 
1388 1389 1390 1391 
1392 1393 1394 1395 
1396 1397 1398 1399 
1400 1401 1402 1403 
1404 1405 1406 1407 
1408 1409 1410 1411 
1412 1413 1414 1415 
1416 1417 1418 1419 
1420 1421 1422 1423 
1424 1425 1426 1427 
1428 1429 1430 1431 
1432 1433 1434 1435 
1436 1437 1438 1439 
1440 1441 1442 1443 
1444 1445 1446 1447 
1448 1449 1450 1451 
1452 1453 1454 1455 
1456 1457 1458 1459 
1460 1461 1462 1463 
1464 1465 1466 1467 
1468 1469 1470 1471 
1472 1473 1474 1475 
1476 1477 1478 1479 
1480 1481 1482 1483 
1484 1485 1486 1487 
1488 1489 1490 1491 
1492 1493 1494 1495 
1496 1497 1498 1499 
1500 1501 1502 1503 
1504 1505 1506 1507 
1508 1509 1510 1511 
1512 1513 1514 1515 
1516 1517 1518 1519 
1520 1521 1522 1523 
1524 1525 1526 1527 
1528 1529 1530 1531 
1532 1533 1534 1535 
1536 1537 1538 1539 
1540 1541 1542 1543 
1544 1545 1546 1547 
1548 1549 1550 1551 
1552 1553 1554 1555 
1556 1557 1558 1559 
1560 1561 1562 1563 
1564 1565 1566 1567 
1568 1569 1570 1571 
1572 1573 1574 1575 
1576 1577 1578 1579 
1580 1581 1582 1583 
1584 1585 1586 1587 
1588 1589 1590 1591 
1592 1593 1594 1595 
1596 1597 1598 1599 
1600 1601 1602 1603 1604 
1605 1606 1607 1608 
1609 1610 1611 1612 1613 
1614 1615 1616 1617 1618 
1619 1620 1621 1622 1623 
1624 1625 1626 1627 1628 
1629 1630 1631 1632 1633 
1634 1635 1636 1637 1638 
1639 1640 1641 1642 1643 
1644 1645 1646 1647 1648 
1649 1650 1651 1652 1653 
1654 1655 1656 1657 1658 
1659 1660 1661 1662 1663 
1664 1665 1666 1667 1668 
1669 1670 1671 1672 1673 
1674 1675 1676 1677 1678 
1679 1680 1681 1682 1683 
1684 1685 1686 1687 1688 
1689 1690 1691 1692 1693 
1694 1695 1696 1697 1698 
1699 1700 1701 1702 1703 
1704 1705 1706 1707 1708 
1709 1710 1711 1712 1713 
1714 1715 1716 1717 1718 
1719 1720 1721 1722 1723 1724 
1725 1726 1727 1728 1729 
1730 1731 1732 1733 1734 
1735 1736 1737 1738 1739 
1740 1741 1742 1743 1744 
1745 1746 1747 1748 1749 
1750 1751 1752 1753 1754 
1755 1756 1757 1758 1759 
1760 1761 1762 1763 1764 
1765 1766 1767 1768 1769 
1770 1771 1772 1773 1774 
1775 1776 1777 1778 1779 
1780 1781 1782 1783 1784 
1785 1786 1787 1788 1789 
1790 1791 1792 1793 1794 
1795 1796 1797 1798 1799 
1800 1801 1802 1803 1804 
1805 1806 1807 1808 1809 
1810 1811 1812 1813 1814 
1815 1816 1817 1818 1819 
1820 1821 1822 1823 1824 
1825 1826 1827 1828 1829 
1830 1831 1832 1833 1834 
1835 1836 1837 1838 1839 
1840 1841 1842 1843 
1844 1845 1846 1847 1848 
1849 1850 1851 1852 
1853 1854 1855 1856 
1857 1858 1859 1860 
1861 1862 1863 1864 
1865 1866 1867 1868 
1869 1870 1871 1872 
1873 1874 1875 1876 1877 
1878 1879 1880 1881 1882 
1883 1884 1885 1886 1887 
1888 1889 1890 1891 1892 
1893 1894 1895 1896 1897 
1898 1899 1900 1901 1902 
1903 1904 1905 1906 1907 
1908 1909 1910 1911 1912 
1913 1914 1915 1916 1917 
1918 1919 1920 1921 1922 
1923 1924 1925 1926 1927 
1928 1929 1930 1931 1932 
1933 1934 1935 1936 1937 
1938 1939 1940 1941 1942 
1943 1944 1945 1946 1947 
1948 1949 1950 1951 1952 
1953 1954 1955 1956 1957 
1958 1959 1960 1961 1962 
1963 1964 1965 1966 1967 1968 
1969 1970 1971 1972 1973 
1974 1975 1976 1977 1978 
1979 1980 1981 1982 1983 
1984 1985 1986 1987 1988 
1989 1990 1991 1992 1993 
1994 1995 1996 1997 1998 
1999 2000 2001 2002 2003 
2004 2005 2006 2007 2008 
2009 2010 2011 2012 2013 
2014 2015 2016 2017 2018 
2019 2020 2021 2022 2023 
2024 2025 2026 2027 2028 
2029 2030 2031 2032 2033 
2034 2035 2036 2037 2038 
2039 2040 2041 2042 2043 
2044 2045 2046 2047 2048 
2049 2050 2051 2052 2053 
2054 2055 2056 2057 2058 
2059 2060 2061 2062 2063 
2064 2065 2066 2067 
2068 2069 2070 2071 2072 
2073 2074 2075 2076 
2077 2078 2079 2080 
2081 2082 2083 2084 
2085 2086 2087 2088 
2089 2090 2091 2092 
2093 2094 2095 2096 
2097 2098 2099 2100 
2101 2102 2103 2104 
2105 2106 2107 2108 2109 
2110 2111 2112 2113 
2114 2115 2116 2117 2118 
2119 2120 2121 2122 2123 
2124 2125 2126 2127 2128 
2129 2130 2131 2132 2133 
2134 2135 2136 2137 2138 
2139 2140 2141 2142 2143 
2144 2145 2146 2147 
2148 2149 2150 2151 
2152 2153 2154 2155 2156 
2157 2158 2159 2160 2161 
2162 2163 2164 2165 2166 
2167 2168 2169 2170 2171 
2172 2173 2174 2175 2176 
2177 2178 2179 2180 2181 
2182 2183 2184 2185 2186 
2187 2188 2189 2190 2191 
2192 2193 2194 2195 2196 
2197 2198 2199 2200 2201 
2202 2203 2204 2205 2206 
2207 2208 2209 2210 2211 
2212 2213 2214 2215 2216 
2217 2218 2219 2220 2221 
2222 2223 2224 2225 2226 
2227 2228 2229 2230 2231 
2232 2233 2234 2235 2236 
2237 2238 2239 2240 2241 
2242 2243 2244 2245 2246 
2247 2248 2249 2250 2251 
2252 2253 2254 2255 2256 2257 
2258 2259 2260 2261 2262 2263 
2264 2265 2266 2267 2268 2269 
2270 2271 2272 2273 2274 2275 
2276 2277 2278 2279 2280 
2281 2282 2283 2284 2285 
2286 2287 2288 2289 2290 
2291 2292 2293 2294 2295 
2296 2297 2298 2299 2300 
2301 2302 2303 2304 2305 
2306 2307 2308 2309 2310 
2311 2312 2313 2314 2315 
2316 2317 2318 2319 2320 
2321 2322 2323 2324 2325 
2326 2327 2328 2329 2330 
2331 2332 2333 2334 2335 
2336 2337 2338 2339 2340 
2341 2342 2343 2344 2345 
2346 2347 2348 2349 
2350 2351 2352 2353 2354 
2355 2356 2357 2358 2359 
2360 2361 2362 2363 2364 
2365 2366 2367 2368 2369 
2370 2371 2372 2373 2374 
2375 2376 2377 2378 2379 
2380 2381 2382 2383 2384 
2385 2386 2387 2388 2389 
2390 2391 2392 2393 2394 
2395 2396 2397 2398 2399 
2400 2401 2402 2403 2404 
2405 2406 2407 2408 
2409 2410 2411 2412 2413 
2414 2415 2416 2417 2418 
2419 2420 2421 2422 2423 
2424 2425 2426 2427 2428 
2429 2430 2431 2432 2433 
2434 2435 2436 2437 2438 
2439 2440 2441 2442 2443 
2444 2445 2446 2447 2448 
2449 2450 2451 2452 2453 
2454 2455 2456 2457 2458 
2459 2460 2461 2462 2463 
2464 2465 2466 2467 2468 
2469 2470 2471 2472 2473 
2474 2475 2476 2477 2478 2479 
2480 2481 2482 2483 2484 2485 
2486 2487 2488 2489 2490 
2491 2492 2493 2494 2495 
2496 2497 2498 2499 2500 
2501 2502 2503 2504 2505 
2506 2507 2508 2509 2510 
2511 2512 2513 2514 2515 
2516 2517 2518 2519 2520 
2521 2522 2523 2524 2525 
2526 2527 2528 2529 2530 
2531 2532 2533 2534 2535 
2536 2537 2538 2539 2540 
2541 2542 2543 2544 2545 
2546 2547 2548 2549 2550 
2551 2552 2553 2554 2555 
2556 2557 2558 2559 2560 2561 
2562 2563 2564 2565 2566 2567 
</DataArray>
<DataArray type="Int32" Name="offsets" format="ascii">
4 8 12 16 20 24 28 32 36 40 44 48 52 56 60 64 68 72 76 80 84 88 92 96 100 104 108 112 116 120 124 128 132 136 140 144 148 152 156 160 164 168 172 176 180 184 188 192 196 200 204 208 212 216 220 224 228 232 236 240 244 248 252 256 260 264 268 272 276 280 284 288 292 296 300 304 308 312 316 320 324 328 332 336 340 344 348 352 356 360 364 368 372 376 380 384 388 392 396 400 404 408 412 416 420 424 428 432 436 440 444 448 452 456 460 464 468 472 476 480 484 488 492 496 500 504 508 512 516 520 524 528 532 536 540 544 548 552 556 560 564 568 572 576 580 584 588 592 596 600 604 608 612 616 620 624 628 632 636 640 644 648 652 656 660 664 668 672 676 680 684 688 692 696 700 704 708 712 716 720 724 728 732 736 740 744 748 752 756 760 764 768 772 776 780 784 788 792 796 800 804 808 812 816 820 824 828 832 836 840 844 848 852 856 860 864 868 872 876 880 884 888 892 896 900 904 908 912 916 920 924 928 932 936 940 944 948 952 956 960 964 968 972 976 980 984 988 992 996 1000 1004 1008 1012 1016 1020 1024 1028 1032 1036 1040 1044 1048 1052 1056 1060 1064 1068 1072 1076 1080 1084 1088 1092 1096 1100 1104 1108 1112 1116 1120 1124 1128 1132 1136 1140 1144 1148 1152 1156 1160 1164 1168 1172 1176 1180 1184 1188 1192 1196 1200 1204 1208 1212 1216 1220 1224 1228 1232 1236 1240 1244 1248 1252 1256 1260 1264 1268 1272 1276 1280 1284 1288 1292 1296 1300 1304 1308 1312 1316 1320 1324 1328 1332 1336 1340 1344 1348 1352 1356 1360 1364 1368 1372 1376 1380 1384 1388 1392 1396 1400 1404 1408 1412 1416 1420 1424 1428 1432 1436 1440 1444 1448 1452 1456 1460 1464 1468 1472 1476 1480 1484 1488 1492 1496 1500 1504 1508 1512 1516 1520 1524 1528 1532 1536 1540 1544 1548 1552 1556 1560 1564 1568 1572 1576 1580 1584 1588 1592 1596 1600 1605 1609 1614 1619 1624 1629 1634 1639 1644 1649 1654 1659 1664 1669 1674 1679 1684 1689 1694 1699 1704 1709 1714 1719 1725 1730 1735 1740 1745 1750 1755 1760 1765 1770 1775 1780 1785 1790 1795 1800 1805 1810 1815 1820 1825 1830 1835 1840 1844 1849 1853 1857 1861 1865 1869 1873 1878 1883 1888 1893 1898 1903 1908 1913 1918 1923 1928 1933 1938 1943 1948 1953 1958 1963 1969 1974 1979 1984 1989 1994 1999 2004 2009 2014 2019 2024 2029 2034 2039 2044 2049 2054 2059 2064 2068 2073 2077 2081 2085 2089 2093 2097 2101 2105 2110 2114 2119 2124 2129 2134 2139 2144 2148 2152 2157 2162 2167 2172 2177 2182 2187 2192 2197 2202 2207 2212 2217 2222 2227 2232 2237 2242 2247 2252 2258 2264 2270 2276 2281 2286 2291 2296 2301 2306 2311 2316 2321 2326 2331 2336 2341 2346 2350 2355 2360 2365 2370 2375 2380 2385 2390 2395 2400 2405 2409 2414 2419 2424 2429 2434 2439 2444 2449 2454 2459 2464 2469 2474 2480 2486 2491 2496 2501 2506 2511 2516 2521 2526 2531 2536 2541 2546 2551 2556 2562 2568 
</DataArray>
<DataArray type="UInt8" Name="types" format="ascii">
7 7 7 7 7 7 7 7 7 7 7 7 7 7 7 7 7 7 7 7 7 7 7 7 7 7 7 7 7 7 7 7 7 7 7 7 7 7 7 7 7 7 7 7 7 7 7 7 7 7 7 7 7 7 7 7 7 7 7 7 7 7 7 7 7 7 7 7 7 7 7 7 7 7 7 7 7 7 7 7 7 7 7 7 7 7 7 7 7 7 7 7 7 7 7 7 7 7 7 7 7 7 7 7 7 7 7 7 7 7 7 7 7 7 7 7 7 7 7 7 7 7 7 7 7 7 7 7 7 7 7 7 7 7 7 7 7 7 7 7 7 7 7 7 7 7 7 7 7 7 7 7 7 7 7 7 7 7 7 7 7 7 7 7 7 7 7 7 7 7 7 7 7 7 7 7 7 7 7 7 7 7 7 7 7 7 7 7 7 7 7 7 7 7 7 7 7 7 7 7 7 7 7 7 7 7 7 7 7 7 7 7 7 7 7 7 7 7 7 7 7 7 7 7 7 7 7 7 7 7 7 7 7 7 7 7 7 7 7 7 7 7 7 7 7 7 7 7 7 7 7 7 7 7 7 7 7 7 7 7 7 7 7 7 7 7 7 7 7 7 7 7 7 7 7 7 7 7 7 7 7 7 7 7 7 7 7 7 7 7 7 7 7 7 7 7 7 7 7 7 7 7 7 7 7 7 7 7 7 7 7 7 7 7 7 7 7 7 7 7 7 7 7 7 7 7 7 7 7 7 7 7 7 7 7 7 7 7 7 7 7 7 7 7 7 7 7 7 7 7 7 7 7 7 7 7 7 7 7 7 7 7 7 7 7 7 7 7 7 7 7 7 7 7 7 7 7 7 7 7 7 7 7 7 7 7 7 7 7 7 7 7 7 7 7 7 7 7 7 7 7 7 7 7 7 7 7 7 7 7 7 7 7 7 7 7 7 7 7 7 7 7 7 7 7 7 7 7 7 7 7 7 7 7 7 7 7 7 7 7 7 7 7 7 7 7 7 7 7 7 7 7 7 7 7 7 7 7 7 7 7 7 7 7 7 7 7 7 7 7 7 7 7 7 7 7 7 7 7 7 7 7 7 7 7 7 7 7 7 7 7 7 7 7 7 7 7 7 7 7 7 7 7 7 7 7 7 7 7 7 7 7 7 7 7 7 7 7 7 7 7 7 7 7 7 7 7 7 7 7 7 7 7 7 7 7 7 7 7 7 7 7 7 7 7 7 7 7 7 7 7 7 7 7 7 7 7 7 7 7 7 7 7 7 7 7 7 7 7 7 7 7 7 7 7 7 7 7 7 7 7 7 7 7 7 7 7 7 7 7 7 7 7 7 7 7 
</DataArray>
</Cells>
<CellData Scalars="cell variable 4" Vectors="cell vector">
<DataArray type="Float64" NumberOfComponents="3" Name="cell vector" format="ascii">
0.9 2 0
0.9 2 0
0.9 2 0
0.9 2 0
0.9 2 0
0.9 2 0
0.9 2 0
0.9 2 0
0.9 2 0
0.9 2 0
0.9 2 0
0.9 2 0
0.9 2 0
0.9 2 0
0.9 2 0
0.9 2 0
0.9 2 0
0.9 2 0
0.9 2 0
0.9 2 0
0.9 2 0
0.9 2 0
0.9 2 0
0.9 2 0
0.9 2 0
0.9 2 0
0.9 2 0
0.9 2 0
0.9 2 0
0.9 2 0
0.9 2 0
0.9 2 0
0.9 2 0
0.9 2 0
0.9 2 0
0.9 2 0
0.9 2 0
0.9 2 0
0.9 2 0
0.9 2 0
0.9 2 0
0.9 2 0
0.9 2 0
0.9 2 0
0.9 2 0
0.9 2 0
0.9 2 0
0.9 2 0
0.9 2 0
0.9 2 0
0.9 2 0
0.9 2 0
0.9 2 0
0.9 2 0
0.9 2 0
0.9 2 0
0.9 0 0
0.9 0 0
0.9 0 0
0.9 0 0
0.9 0 0
0.9 0 0
0.9 0 0
0.9 0 0
0.9 0 0
0.9 0 0
0.9 0 0
0.9 0 0
0.9 0 0
0.9 0 0
0.9 0 0
0.9 0 0
0.9 0 0
0.9 0 0
0.9 0 0
0.9 0 0
0.9 0 0
0.9 0 0
0.9 0 0
0.9 0 0
0.9 0 0
0.9 0 0
0.9 0 0
0.9 0 0
0.9 0 0
0.9 0 0
0.9 0 0
0.9 0 0
0.9 0 0
0.9 0 0
0.9 0 0
0.9 0 0
0.9 0 0
0.9 0 0
0.9 2 0
0.9 2 0
0.9 2 0
0.9 2 0
0.9 2 0
0.9 2 0
0.9 2 0
0.9 2 0
0.9 2 0
0.9 2 0
0.9 0 0
0.9 0 0
0.9 0 0
0.9 0 0
0.9 0 0
0.9 0 0
0.9 0 0
0.9 0 0
0.9 0 0
0.9 0 0
0.9 0 0
0.9 0 0
0.9 0 0
0.9 0 0
0.9 0 0
0.9 0 0
0.9 0 0
0.9 0 0
0.9 0 0
0.9 0 0
0.9 0 0
0.9 0 0
0.9 0 0
0.9 0 0
0.9 0 0
0.9 0 0
0.9 0 0
0.9 0 0
0.9 0 0
0.9 0 0
0.9 0 0
0.9 0 0
0.9 0 0
0.9 0 0
0.9 0 0
0.9 0 0
0.9 0 0
0.9 0 0
0.9 0 0
0.9 0 0
0.9 0 0
0.9 0 0
0.9 2 0
0.9 2 0
0.9 2 0
0.9 2 0
0.9 2 0
0.9 2 0
0.9 2 0
0.9 0 0
0.9 0 0
0.9 0 0
0.9 0 0
0.9 0 0
0.9 0 0
0.9 0 0
0.9 0 0
0.9 0 0
0.9 0 0
0.9 0 0
0.9 0 0
0.9 0 0
0.9 0 0
0.9 0 0
0.9 0 0
0.9 0 0
0.9 0 0
0.9 0 0
0.9 0 0
0.9 0 0
0.9 0 0
0.9 0 0
0.9 0 0
0.9 0 0
0.9 0 0
0.9 0 0
0.9 0 0
0.9 0 0
0.9 0 0
0.9 0 0
0.9 0 0
0.9 0 0
0.9 0 0
0.9 0 0
0.9 0 0
0.9 0 0
0.9 0 0
0.9 0 0
0.9 0 0
0.9 0 0
0.9 0 0
0.9 0 0
0.9 0 0
0.9 2 0
0.9 2 0
0.9 2 0
0.9 2 0
0.9 2 0
0.9 0 0
0.9 0 0
0.9 0 0
0.9 0 0
0.9 0 0
0.9 0 0
0.9 0 0
0.9 0 0
0.9 0 0
0.9 0 0
0.9 0 0
0.9 0 0
0.9 0 0
0.9 0 0
0.9 0 0
0.9 0 0
0.9 0 0
0.9 0 0
0.9 0 0
0.9 0 0
0.9 0 0
0.9 0 0
0.9 0 0
0.9 0 0
0.9 0 0
0.9 0 0
0.9 0 0
0.9 0 0
0.9 0 0
0.9 0 0
0.9 0 0
0.9 0 0
0.9 0 0
0.9 0 0
0.9 0 0
0.9 0 0
0.9 0 0
0.9 0 0
0.9 0 0
0.9 0 0
0.9 0 0
0.9 0 0
0.9 0 0
0.9 0 0
0.9 0 0
0.9 0 0
0.9 2 0
0.9 2 0
0.9 2 0
0.9 2 0
0.9 0 0
0.9 0 0
0.9 0 0
0.9 0 0
0.9 0 0
0.9 0 0
0.9 0 0
0.9 0 0
0.9 0 0
0.9 0 0
0.9 0 0
0.9 0 0
0.9 0 0
0.9 0 0
0.9 0 0
0.9 0 0
0.9 0 0
0.9 0 0
0.9 0 0
0.9 0 0
0.9 0 0
0.9 0 0
0.9 0 0
0.9 0 0
0.9 0 0
0.9 0 0
0.9 0 0
0.9 0 0
0.9 0 0
0.9 0 0
0.9 0 0
0.9 0 0
0.9 0 0
0.9 0 0
0.9 0 0
0.9 0 0
0.9 0 0
0.9 0 0
0.9 0 0
0.9 0 0
0.9 0 0
0.9 0 0
0.9 0 0
0.9 0 0
0.9 0 0
0.9 0 0
0.9 2 0
0.9 2 0
0.9 2 0
0.9 0 0
0.9 0 0
0.9 0 0
0.9 0 0
0.9 0 0
0.9 0 0
0.9 0 0
0.9 0 0
0.9 0 0
0.9 0 0
0.9 0 0
0.9 0 0
0.9 0 0
0.9 0 0
0.9 0 0
0.9 0 0
0.9 0 0
0.9 0 0
0.9 0 0
0.9 0 0
0.9 0 0
0.9 0 0
0.9 0 0
0.9 0 0
0.9 0 0
0.9 0 0
0.9 0 0
0.9 0 0
0.9 0 0
0.9 0 0
0.9 0 0
0.9 0 0
0.9 0 0
0.9 0 0
0.9 0 0
0.9 0 0
0.9 0 0
0.9 0 0
0.9 0 0
0.9 0 0
0.9 0 0
0.9 0 0
0.9 0 0
0.9 0 0
0.9 0 0
0.9 0 0
0.9 0 0
0.9 0 0
0.9 2 0
0.9 2 0
0.9 0 0
0.9 0 0
0.9 0 0
0.9 0 0
0.9 0 0
0.9 0 0
0.9 0 0
0.9 0 0
0.9 0 0
0.9 0 0
0.9 0 0
0.9 0 0
0.9 0 0
0.9 0 0
0.9 0 0
0.9 0 0
0.9 0 0
0.9 0 0
0.9 0 0
0.9 0 0
0.9 0 0
0.9 0 0
0.9 0 0
0.9 0 0
0.9 0 0
0.9 0 0
0.9 0 0
0.9 0 0
0.9 0 0
0.9 0 0
0.9 0 0
0.9 0 0
0.9 0 0
0.9 0 0
0.9 0 0
0.9 0 0
0.9 0 0
0.9 0 0
0.9 0 0
0.9 0 0
0.9 0 0
0.9 0 0
0.9 0 0
0.9 0 0
0.9 0 0
0.9 0 0
0.9 0 0
0.9 0 0
0.9 2 0
0.9 2 0
0.445551 0 0
0.446044 0 0
0.44644 0 0
0.44678 0 0
0.447064 0 0
0.447217 0 0
0.447317 0 0
0.447295 0 0
0.447242 0 0
0.447111 0 0
0.446979 0 0
0.44683 0 0
0.446655 0 0
0.446502 0 0
0.446357 0 0
0.446222 0 0
0.446101 0 0
0.445994 0 0
0.445895 0 0
0.445821 0 0
0.445763 0 0
0.443979 0 0
0.433379 0 0
0.445678 0 0
0.423159 0 0
0.433748 0 0
0.444387 0 0
0.445766 0 0
0.445826 0 0
0.445902 0 0
0.445986 0 0
0.446094 0 0
0.446218 0 0
0.446357 0 0
0.44651 0 0
0.446653 0 0
0.446819 0 0
0.446983 0 0
0.447107 0 0
0.447233 0 0
0.447317 0 0
0.447304 0 0
0.447207 0 0
0.447059 0 0
0.446782 0 0
0.446447 0 0
0.446023 0 0
0.445562 0 0
0.9 2 0
0.9 2 0
0.45088 0 0
0.451422 0 0
0.451952 0 0
0.452466 0 0
0.447512 0 0
0.447711 0 0
0.447871 0 0
0.447911 0 1.99734
0.447919 0 0
0.447838 0 0
0.447748 0 0
0.447629 0 0
0.447472 0 0
0.447333 0 0
0.447194 0 0
0.447062 0 3.15961
0.446939 0 0
0.446829 0 0
0.446725 0 0
0.446647 0 0
0.446584 0 0
0.446538 0 0
0.446507 0 0
0.45628 0 4.6959
0.433463 0 0
0.446508 0 0
0.44654 0 0
0.446587 0 0
0.446652 0 0
0.446725 0 0
0.446821 0 0
0.446932 0 0
0.447058 0 3.15961
0.447196 0 0
0.447343 0 0
0.447472 0 0
0.447619 0 0
0.447754 0 0
0.447836 0 0
0.447911 0 0
0.447936 0 0
0.447856 0 1.97111
0.447738 0 0
0.447498 0 0
0.447521 0 0
0.44803 0 0
0.448553 0 0
0.449085 0 0
0.9 2 0
0.448048 0 0
0.45197 0 0
0.448578 0 0
0.451447 0 0
0.447534 0 0
0.452479 0 0
0.452488 0 0
0.452502 0 0
0.452289 0 0
0.452262 0 0
0.452129 0 0
0.452144 1 2.38926
0.44912 0 0
0.450915 0 0
0.452064 0 0
0.452089 1 2.38926
0.452081 0 0
0.452089 0 0
0.452162 0 0
0.452164 0 0
0.452252 0 0
0.452246 0 0
0.452371 0 0
0.452381 0 0
0.452528 0 0
0.452528 0 0
0.452667 0 0
0.452657 0 0
0.452806 0 0
0.452804 0 0
0.452938 1 3.38926
0.452942 1 3.38926
0.453061 0 0
0.453068 0 0
0.45322 0 0
0.453218 0 0
0.45356 0 0
0.453553 0 0
0.453171 0 0
0.453179 0 0
0.452936 0 0
0.452941 0 0
0.452783 0 0
0.452793 0 0
0.453275 0 0
0.453275 0 0
0.452696 0 0
0.452683 0 0
0.452705 0 0
0.452683 0 0
0.453353 0 0
0.453348 0 0
0.454322 0 0
0.476841 0 0
0.453416 0 0
0.453413 0 0
0.452767 0 0
0.452758 0 0
0.466621 0 0
0.466252 0 0
0.453462 0 0
0.45346 0 0
0.453493 0 0
0.453492 0 0
0.44372 1 4.88926
0.466537 0 0
0.456021 0 0
0.455613 0 0
0.452889 0 0
0.452893 0 0
0.454237 0 0
0.454234 0 0
0.453021 0 0
0.453017 0 0
0.454179 0 0
0.454174 0 0
0.45317 0 0
0.453181 0 0
0.453956 0 0
0.453977 0 0
0.453345 0 0
0.453347 0 0
0.454105 0 0
0.454098 0 0
0.453498 0 0
0.45349 0 0
0.454006 0 0
0.454014 0 0
0.453643 0 0
0.453643 0 0
0.453899 0 0
0.453906 0 0
0.453778 0 0
0.453782 0 0
0.454449 0 0
0.454438 0 0
</DataArray>
<DataArray type="Float64" Name="cell vector length" format="ascii">
4.25945e-09 1.97182e-08 9.54741e-08 4.06382e-07 1.44271e-06 3.85201e-06 1.0807e-05 1.66196e-05 1.99344e-05 2.04722e-05 2.19568e-05 3.08971e-05 5.38984e-05 9.50368e-05 0.000151443 0.000211367 0.000264927 0.000324341 0.000436157 0.000676045 0.00111411 0.00174796 0.00244687 0.00299265 0.00319321 0.0029737 0.00241086 0.00169681 0.00104836 0.00059798 0.000355975 0.000260511 0.000236149 0.000223551 0.000192959 0.000143495 9.1244e-05 5.10009e-05 2.71746e-05 1.69598e-05 1.55034e-05 1.77231e-05 1.86574e-05 1.5123e-05 6.44163e-06 2.8988e-06 9.18596e-07 2.36896e-07 5.2789e-08 1.22306e-08 2.19541e-08 1.1116e-07 5.87765e-07 2.74726e-06 1.08469e-05 2.77565e-05 9.1143e-05 0.00013984 0.000166889 0.000167832 0.000172987 0.000236373 0.000412573 0.000736979 0.00118811 0.00166656 0.00208313 0.00252377 0.00334386 0.00513735 0.00847695 0.0133622 0.018741 0.022904 0.0244153 0.0227289 0.0184103 0.0128986 0.00789121 0.00445357 0.00265409 0.00198219 0.0018384 0.00176017 0.00152207 0.00112546 0.000706965 0.000389185 0.000205433 0.000130465 0.000124836 0.000147712 0.000158003 0.000129837 4.82051e-05 2.26462e-05 6.43254e-06 1.51139e-06 3.07635e-07 6.4921e-08 1.19355e-07 6.61585e-07 3.8318e-06 1.96899e-05 9.17988e-05 0.000208274 0.0003927 0.000591877 0.000701332 0.000678437 0.000643728 0.000822178 0.0014378 0.00265181 0.00439708 0.0062481 0.00778911 0.00927293 0.0119189 0.0178546 0.0292083 0.0456565 0.0626201 0.0745859 0.0785895 0.0737939 0.0610849 0.0434612 0.0264324 0.0146668 0.00881292 0.00691364 0.00672532 0.00657429 0.00569727 0.00415639 0.00253654 0.00134571 0.000693993 0.000459256 0.000485584 0.000615152 0.000677175 0.000581091 0.00038149 0.000198162 4.79451e-05 1.02699e-05 1.90001e-06 3.64488e-07 5.83661e-07 3.57557e-06 2.30568e-05 0.000126471 0.00034493 0.000790412 0.0015251 0.00235698 0.00279501 0.00261319 0.00226527 0.00265595 0.00465837 0.00897896 0.0154411 0.0222892 0.027841 0.0329133 0.0411522 0.0584472 0.0887377 0.123754 0.148113 0.15947 0.162124 0.157314 0.143459 0.115983 0.0773914 0.0444528 0.0277275 0.0231742 0.0235313 0.0233013 0.0201934 0.014516 0.00854236 0.00431069 0.00215224 0.0015035 0.00178761 0.00243005 0.00272884 0.00233462 0.0015174 0.000785007 0.000326831 6.5248e-05 1.07347e-05 1.85165e-06 2.45869e-06 1.67411e-05 0.000129481 0.000417033 0.0011496 0.00277617 0.00565064 0.00904877 0.010787 0.00985983 0.00781119 0.00824819 0.0144538 0.0292535 0.0514814 0.0734131 0.0905509 0.107441 0.131145 0.163299 0.192047 0.202667 0.199825 0.194072 0.191068 0.190805 0.192029 0.187204 0.162784 0.116679 0.0833393 0.0749048 0.0768759 0.0755274 0.0661281 0.0480652 0.0276198 0.0131645 0.00631794 0.00473893 0.00642742 0.0093531 0.0106149 0.00900308 0.00565004 0.00278306 0.00114366 0.000389531 5.28369e-05 8.16616e-06 8.41701e-06 5.55454e-05 0.000367289 0.00120554 0.00352411 0.00911277 0.0198169 0.0328592 0.0392533 0.0359956 0.026462 0.0245573 0.041793 0.0844169 0.134055 0.166174 0.191729 0.230182 0.281329 0.297351 0.260914 0.221499 0.192421 0.174335 0.168101 0.17079 0.18321 0.200723 0.214958 0.214993 0.200644 0.187366 0.176403 0.164735 0.151464 0.125277 0.0791667 0.0372225 0.0173386 0.0144185 0.0226182 0.0346873 0.0388846 0.0328551 0.019936 0.00921732 0.00354097 0.00117318 0.000188203 2.97461e-05 2.95497e-05 0.00023699 0.000907195 0.00308881 0.00967974 0.0269696 0.0616418 0.0984483 0.112232 0.111882 0.084002 0.0679402 0.100481 0.163476 0.192703 0.20073 0.219418 0.271727 0.350323 0.364273 0.279785 0.205003 0.161325 0.138535 0.13231 0.135362 0.152428 0.182669 0.225553 0.281984 0.311837 0.272197 0.223696 0.195038 0.186043 0.181536 0.15298 0.0868128 0.0428446 0.0420339 0.0747022 0.109432 0.112019 0.0991466 0.0626299 0.027711 0.00983 0.00309937 0.000856517 0.000109523 6.24053e-05 0.000498876 0.00184861 0.00657289 0.0220111 0.0637035 0.130463 0.160309 0.164819 0.197807 0.196898 0.155959 0.167505 0.190651 0.185402 0.175232 0.184761 0.241573 0.335141 0.367477 0.272729 0.180493 0.13213 0.1102 0.107262 0.107572 0.124144 0.158579 0.218419 0.311446 0.351959 0.283076 0.209901 0.169103 0.16432 0.174609 0.175826 0.137485 0.0884659 0.11009 0.183685 0.195755 0.165847 0.163099 0.134411 0.0670827 0.0226568 0.00674931 0.0019028 0.000242625 0.000152015 0.000906965 0.00278567 0.00989542 0.0347187 0.0943375 0.149004 0.153795 0.153398 0.217023 0.286503 0.26749 0.210895 0.184811 0.160483 0.140149 0.141337 0.205808 0.309323 0.359447 0.269895 0.16735 0.11749 0.0983701 0.103216 0.0961314 0.1098 0.144088 0.214385 0.329819 0.366346 0.278341 0.188395 0.133374 0.133088 0.15061 0.164635 0.154905 0.148449 0.226593 0.275041 0.216397 0.155667 0.15913 0.157872 0.103346 0.035901 0.0106924 0.00358846 0.000607553 5.08926e-05 0.000325869 0.00145971 0.00627953 0.0374735 0.190435 0.242417 0.228504 0.229607 0.292499 0.352393 0.351981 0.267434 0.219165 0.198501 0.192891 0.216873 0.271453 0.325549 0.345828 0.274525 0.204775 0.189159 0.203324 0.225165 0.202764 0.18445 0.185347 0.226425 0.313033 0.345634 0.300647 0.260983 0.214122 0.189174 0.191023 0.197903 0.193458 0.209655 0.306568 0.336555 0.291067 0.231653 0.24094 0.271801 0.323169 0.0502942 0.0105469 0.00250754 0.000214351 0.012551 0.0248297 0.00259518 0.00592546 0.138999 0.122873 0.292645 0.350573 0.33445 0.314929 0.312933 0.276374 0.000601685 0.00136002 0.265878 0.277291 0.271629 0.266398 0.295702 0.23711 0.318654 0.217765 0.309588 0.260409 0.307977 0.293384 0.314559 0.308519 0.308632 0.304869 0.273621 0.269489 0.260298 0.243119 0.0714546 0.208605 0.0179338 0.0648958 0.310608 0.266327 0.170129 0.263979 0.244176 0.251113 0.367032 0.330516 0.240314 0.244471 0.239595 0.28764 0.345254 0.342633 0.248487 0.207842 0.328861 0.304171 0.305056 0.291973 0.209068 0.197778 0.375724 0.313951 0.431975 0.373647 0.416967 0.432324 0.204018 0.213275 0.329144 0.226455 0.236261 0.269419 0.300078 0.17646 0.333193 0.378397 0.268358 0.215383 0.00445525 0.0170479 0.256475 0.236438 0.436015 0.415353 0.239786 0.228719 0.386271 0.330641 0.224947 0.216465 0.285282 0.259583 0.233289 0.223667 0.00107951 0.00425906 
</DataArray>
<DataArray type="Float64" Name="cell variable 4" format="ascii">
0.00124099 0.001241 0.00124104 0.0012412 0.00124176 0.0012431 0.00124706 0.00125056 0.00125264 0.00125297 0.00125415 0.00126066 0.00127721 0.00130721 0.00134923 0.0013942 0.00143257 0.00147247 0.00155278 0.00173841 0.00209203 0.00262073 0.00322203 0.00370347 0.00388491 0.00369552 0.00320638 0.00259694 0.00205838 0.00169405 0.00150252 0.00142953 0.00141366 0.00140633 0.0013831 0.00134468 0.00130515 0.00127567 0.0012586 0.00125124 0.00124992 0.00125123 0.00125189 0.00124975 0.00124467 0.0012426 0.00124149 0.00124111 0.00124102 0.00124099 0.001241 0.00124104 0.00124129 0.00124245 0.00124689 0.00125662 0.00129388 0.00132446 0.00134213 0.00134221 0.00134688 0.00139398 0.00152274 0.00176243 0.00210235 0.00246417 0.00275953 0.00304153 0.00360738 0.00496085 0.00757642 0.0114643 0.0157955 0.0191809 0.0204354 0.0191173 0.0156684 0.0112681 0.00729541 0.00458752 0.00318388 0.00267991 0.00259931 0.00256195 0.00238017 0.00206768 0.00174652 0.00151026 0.00137649 0.00132134 0.00131488 0.00132931 0.00133676 0.00131891 0.00126928 0.00125387 0.00124456 0.00124181 0.00124115 0.00124102 0.00124105 0.00124133 0.00124302 0.00125167 0.00129248 0.00136253 0.00147929 0.0016129 0.00168926 0.00166845 0.00164582 0.00178236 0.00223794 0.00314025 0.00445573 0.00584139 0.00687664 0.00767828 0.00925154 0.0133434 0.0214841 0.03337 0.0459867 0.0553017 0.0586092 0.0550746 0.0455192 0.0326192 0.0203601 0.0117975 0.00748375 0.00617387 0.0062052 0.00621244 0.00555385 0.00433473 0.00308312 0.00218925 0.00170778 0.0015303 0.00153931 0.0016273 0.00167422 0.00160663 0.00147316 0.00135721 0.00126824 0.0012467 0.00124202 0.00124118 0.00124129 0.00124289 0.00125349 0.0013119 0.00144229 0.00172258 0.00221019 0.00279775 0.00312261 0.00295705 0.00269981 0.00300839 0.00448578 0.00763247 0.0123172 0.0171326 0.0204007 0.0223463 0.0258431 0.0358463 0.0560676 0.0835715 0.108162 0.123318 0.128216 0.122826 0.10704 0.0814667 0.0524303 0.0303324 0.0193191 0.0168185 0.0179414 0.0183717 0.0162186 0.0119149 0.00743568 0.00430661 0.00271065 0.00220766 0.00237833 0.00283838 0.00308128 0.00278394 0.00220521 0.00171932 0.00143274 0.0012781 0.00124698 0.001242 0.0012423 0.0012501 0.00131351 0.0014839 0.00193963 0.00299839 0.00495824 0.00742536 0.00875969 0.00785632 0.00629802 0.00667876 0.0110832 0.0210849 0.0357839 0.0499851 0.0584993 0.0623311 0.0679916 0.0857456 0.118983 0.153816 0.178603 0.193131 0.197927 0.192563 0.177245 0.150725 0.11124 0.0700068 0.0481391 0.0458598 0.0513906 0.0533708 0.0475147 0.0345992 0.0204637 0.0104698 0.00556184 0.00431269 0.0054029 0.00754434 0.00865497 0.00739268 0.00495075 0.00299736 0.00193546 0.00146938 0.00127119 0.00124557 0.00124562 0.00127224 0.00145473 0.00197147 0.00345862 0.00714685 0.0143534 0.0236454 0.0285207 0.0247419 0.0176472 0.016592 0.0278842 0.0547677 0.0909215 0.118405 0.131111 0.136681 0.143887 0.15795 0.180126 0.209396 0.23544 0.251815 0.257334 0.25138 0.234387 0.206468 0.169892 0.128279 0.103633 0.107061 0.119814 0.123492 0.114192 0.0883404 0.0531834 0.0260739 0.0128027 0.0103636 0.0154707 0.0240566 0.0283034 0.0235878 0.0143603 0.00716701 0.00345844 0.00195263 0.00135187 0.00125819 0.0012576 0.00137818 0.00179089 0.00319174 0.00751994 0.0187659 0.0412839 0.0698739 0.0830973 0.0725037 0.0481208 0.0390171 0.0616376 0.114843 0.163532 0.190286 0.201155 0.205913 0.215392 0.221357 0.226037 0.254103 0.285692 0.30549 0.312022 0.305355 0.28539 0.251909 0.211536 0.180364 0.172465 0.179065 0.191338 0.195725 0.187051 0.160881 0.112324 0.0574471 0.0280954 0.0255633 0.044035 0.0715367 0.0828367 0.069864 0.0414432 0.0189542 0.00754391 0.00318523 0.0017589 0.0013056 0.00127577 0.00153405 0.00242648 0.00566858 0.0162772 0.0440723 0.0981458 0.149723 0.163277 0.154404 0.109512 0.0781213 0.10655 0.168926 0.216926 0.248678 0.260349 0.258347 0.263874 0.269633 0.263077 0.288822 0.326545 0.350797 0.360121 0.351021 0.327177 0.287538 0.242584 0.221322 0.22422 0.229222 0.247276 0.25778 0.246965 0.215334 0.167222 0.100013 0.0525193 0.0563012 0.105204 0.154233 0.163211 0.149892 0.0989319 0.0451585 0.0163532 0.00568227 0.00240522 0.00138283 0.00130168 0.00177078 0.00325604 0.00887106 0.0280133 0.0729424 0.135375 0.177958 0.197146 0.188763 0.157194 0.115893 0.122577 0.171358 0.223612 0.266502 0.283331 0.267598 0.259863 0.260013 0.249813 0.273453 0.317298 0.34693 0.36106 0.347543 0.319355 0.274207 0.227484 0.21678 0.226297 0.235809 0.262902 0.283858 0.26688 0.224233 0.172796 0.116403 0.0740018 0.0967756 0.156072 0.189023 0.196345 0.176505 0.134649 0.0755116 0.0278261 0.00913672 0.00342568 0.00149786 0.00128921 0.00158579 0.00267221 0.00739617 0.0278275 0.103084 0.149618 0.193229 0.235127 0.222631 0.188448 0.147887 0.134198 0.171555 0.220443 0.26457 0.297798 0.279322 0.264052 0.26394 0.250107 0.256102 0.279311 0.302703 0.312794 0.302825 0.279943 0.253832 0.225822 0.224728 0.234893 0.245932 0.277386 0.298686 0.264808 0.221233 0.173496 0.122578 0.0920649 0.132806 0.188804 0.223703 0.233921 0.192587 0.170584 0.154346 0.037928 0.0103935 0.00336606 0.00145789 0.0109644 0.0251899 0.00343851 0.00734798 0.0622023 0.0805473 0.143459 0.220066 0.217794 0.260577 0.260345 0.257101 0.00172575 0.00277775 0.219355 0.257074 0.218465 0.177422 0.180259 0.122181 0.153277 0.10339 0.166048 0.155824 0.214669 0.215081 0.262054 0.261843 0.304752 0.304495 0.303699 0.304567 0.277838 0.273613 0.0334605 0.0865921 0.010564 0.0321945 0.272331 0.24498 0.0845596 0.160074 0.158545 0.206267 0.286989 0.247922 0.215155 0.207025 0.215581 0.196879 0.274679 0.2502 0.356329 0.340461 0.278544 0.250011 0.155336 0.196268 0.340098 0.321789 0.306442 0.275641 0.34446 0.306998 0.335004 0.344837 0.320643 0.287473 0.156738 0.0931801 0.287982 0.248384 0.117828 0.07837 0.271723 0.237368 0.137196 0.130559 0.00359095 0.0102435 0.196003 0.196155 0.282138 0.235912 0.246823 0.246389 0.267474 0.234472 0.281614 0.281105 0.268968 0.262247 0.290683 0.290813 0.00178056 0.00345866 
</DataArray>
</CellData>
</Piece>
</UnstructuredGrid>
</VTKFile>
