<VTKFile type="UnstructuredGrid" version="0.1">
<UnstructuredGrid>
<Piece  NumberOfPoints="    2000" NumberOfCells="     500">
<Points>
<DataArray type="Float64" NumberOfComponents="3" format="ascii">
-0.164991 -3.40612 0.0
-0.161394 -3.406 0.0
-0.989392 -3.34256 0.0
-0.991469 -3.40173 0.0
-0.157257 -3.40146 0.0
-0.983366 -3.27785 0.0
-0.988848 -3.33815 0.0
-0.160851 -3.40159 0.0
-0.152868 -3.39687 0.0
-0.973546 -3.21295 0.0
-0.982566 -3.27342 0.0
-0.156457 -3.39703 0.0
-0.148222 -3.39228 0.0
-0.959913 -3.14851 0.0
-0.972486 -3.20854 0.0
-0.151808 -3.39247 0.0
-0.143323 -3.38773 0.0
-0.942509 -3.08498 0.0
-0.958598 -3.14417 0.0
-0.146907 -3.38794 0.0
-0.138175 -3.38322 0.0
-0.921407 -3.02268 0.0
-0.940946 -3.08073 0.0
-0.14176 -3.38347 0.0
-0.132781 -3.37878 0.0
-0.896695 -2.9619 0.0
-0.919604 -3.01854 0.0
-0.136371 -3.37908 0.0
-0.127148 -3.37443 0.0
-0.868474 -2.90288 0.0
-0.894661 -2.95788 0.0
-0.130746 -3.37476 0.0
-0.121278 -3.37018 0.0
-0.836854 -2.84585 0.0
-0.866216 -2.89899 0.0
-0.12489 -3.37054 0.0
-0.115177 -3.36605 0.0
-0.801959 -2.79103 0.0
-0.834382 -2.84211 0.0
-0.118806 -3.36644 0.0
-0.108849 -3.36206 0.0
-0.763923 -2.73864 0.0
-0.799282 -2.78746 0.0
-0.1125 -3.36248 0.0
-0.102301 -3.35823 0.0
-0.722894 -2.68888 0.0
-0.761051 -2.73524 0.0
-0.105977 -3.35866 0.0
-0.0955399 -3.35458 0.0
-0.679027 -2.64195 0.0
-0.719835 -2.68567 0.0
-0.0992432 -3.35502 0.0
-0.0885729 -3.35113 0.0
-0.632491 -2.59803 0.0
-0.675793 -2.63894 0.0
-0.0923067 -3.35157 0.0
-0.0814103 -3.3479 0.0
-0.583466 -2.5573 0.0
-0.629094 -2.59523 0.0
-0.0851761 -3.34833 0.0
-0.0740632 -3.34491 0.0
-0.532141 -2.51992 0.0
-0.579917 -2.55472 0.0
-0.0778616 -3.34532 0.0
-0.0665443 -3.34217 0.0
-0.478715 -2.48603 0.0
-0.528453 -2.51757 0.0
-0.070375 -3.34256 0.0
-0.0588676 -3.33969 0.0
-0.423396 -2.45579 0.0
-0.4749 -2.48392 0.0
-0.0627296 -3.34006 0.0
-0.0510487 -3.3375 0.0
-0.3664 -2.4293 0.0
-0.419468 -2.45392 0.0
-0.05494 -3.33783 0.0
-0.0431042 -3.3356 0.0
-0.307951 -2.40668 0.0
-0.362373 -2.42769 0.0
-0.0470222 -3.33589 0.0
-0.0350521 -3.33401 0.0
-0.24828 -2.38801 0.0
-0.303841 -2.40532 0.0
-0.0389934 -3.33425 0.0
-0.026911 -3.33273 0.0
-0.187622 -2.37339 0.0
-0.2441 -2.38693 0.0
-0.0308716 -3.33292 0.0
-0.0187005 -3.33177 0.0
-0.126219 -2.36286 0.0
-0.183388 -2.37257 0.0
-0.0226761 -3.33191 0.0
-0.0104409 -3.33114 0.0
-0.0643135 -2.35647 0.0
-0.121945 -2.36231 0.0
-0.0144267 -3.33123 0.0
-0.00215262 -3.33084 0.0
-0.00215262 -2.35424 0.0
-0.0600162 -2.35619 0.0
-0.00614352 -3.33087 0.0
0.00614352 -3.33087 0.0
0.0600162 -2.35619 0.0
0.00215262 -2.35424 0.0
0.00215262 -3.33084 0.0
0.0144267 -3.33123 0.0
0.121945 -2.36231 0.0
0.0643135 -2.35647 0.0
0.0104409 -3.33114 0.0
0.0226761 -3.33191 0.0
0.183388 -2.37257 0.0
0.126219 -2.36286 0.0
0.0187005 -3.33177 0.0
0.0308716 -3.33292 0.0
0.2441 -2.38693 0.0
0.187622 -2.37339 0.0
0.026911 -3.33273 0.0
0.0389934 -3.33425 0.0
0.303841 -2.40532 0.0
0.24828 -2.38801 0.0
0.0350521 -3.33401 0.0
0.0470222 -3.33589 0.0
0.362373 -2.42769 0.0
0.307951 -2.40668 0.0
0.0431042 -3.3356 0.0
0.05494 -3.33783 0.0
0.419468 -2.45392 0.0
0.3664 -2.4293 0.0
0.0510487 -3.3375 0.0
0.0627296 -3.34006 0.0
0.4749 -2.48392 0.0
0.423396 -2.45579 0.0
0.0588676 -3.33969 0.0
0.070375 -3.34256 0.0
0.528453 -2.51757 0.0
0.478715 -2.48603 0.0
0.0665443 -3.34217 0.0
0.0778616 -3.34532 0.0
0.579917 -2.55472 0.0
0.532141 -2.51992 0.0
0.0740632 -3.34491 0.0
0.0851761 -3.34833 0.0
0.629094 -2.59523 0.0
0.583466 -2.5573 0.0
0.0814103 -3.3479 0.0
0.0923067 -3.35157 0.0
0.675793 -2.63894 0.0
0.632491 -2.59803 0.0
0.0885729 -3.35113 0.0
0.0992432 -3.35502 0.0
0.719835 -2.68567 0.0
0.679027 -2.64195 0.0
0.0955399 -3.35458 0.0
0.105977 -3.35866 0.0
0.761051 -2.73524 0.0
0.722894 -2.68888 0.0
0.102301 -3.35823 0.0
0.1125 -3.36248 0.0
0.799282 -2.78746 0.0
0.763923 -2.73864 0.0
0.108849 -3.36206 0.0
0.118806 -3.36644 0.0
0.834382 -2.84211 0.0
0.801959 -2.79103 0.0
0.115177 -3.36605 0.0
0.12489 -3.37054 0.0
0.866216 -2.89899 0.0
0.836854 -2.84585 0.0
0.121278 -3.37018 0.0
0.130746 -3.37476 0.0
0.894661 -2.95788 0.0
0.868474 -2.90288 0.0
0.127148 -3.37443 0.0
0.136371 -3.37908 0.0
0.919604 -3.01854 0.0
0.896695 -2.9619 0.0
0.132781 -3.37878 0.0
0.14176 -3.38347 0.0
0.940946 -3.08073 0.0
0.921407 -3.02268 0.0
0.138175 -3.38322 0.0
0.146907 -3.38794 0.0
0.958598 -3.14417 0.0
0.942509 -3.08498 0.0
0.143323 -3.38773 0.0
0.151808 -3.39247 0.0
0.972486 -3.20854 0.0
0.959913 -3.14851 0.0
0.148222 -3.39228 0.0
0.156457 -3.39703 0.0
0.982566 -3.27342 0.0
0.973546 -3.21295 0.0
0.152868 -3.39687 0.0
0.160851 -3.40159 0.0
0.988848 -3.33815 0.0
0.983366 -3.27785 0.0
0.157257 -3.40146 0.0
0.164991 -3.40612 0.0
0.991469 -3.40173 0.0
0.989392 -3.34256 0.0
0.161394 -3.406 0.0
-1.07907 -3.39854 0.0
-1.07699 -3.33937 0.0
-1.99518 -3.27789 0.0
-1.99909 -3.39759 0.0
-1.07633 -3.32896 0.0
-1.07085 -3.26866 0.0
-1.98363 -3.14573 0.0
-1.99452 -3.26748 0.0
-1.06957 -3.25817 0.0
-1.06055 -3.1977 0.0
-1.9643 -3.0136 0.0
-1.98235 -3.13523 0.0
-1.05866 -3.18725 0.0
-1.04609 -3.12722 0.0
-1.93723 -2.88272 0.0
-1.96242 -3.00316 0.0
-1.0436 -3.1169 0.0
-1.02751 -3.05771 0.0
-1.90253 -2.75383 0.0
-1.93474 -2.87241 0.0
-1.02442 -3.04757 0.0
-1.00489 -2.98953 0.0
-1.86032 -2.6275 0.0
-1.89944 -2.74369 0.0
-1.00121 -2.97961 0.0
-0.978304 -2.92298 0.0
-1.81078 -2.50423 0.0
-1.85665 -2.61758 0.0
-0.974057 -2.91332 0.0
-0.94787 -2.85832 0.0
-1.7541 -2.38452 0.0
-1.80654 -2.49458 0.0
-0.943065 -2.84897 0.0
-0.913703 -2.79583 0.0
-1.6905 -2.26885 0.0
-1.74929 -2.37517 0.0
-0.908358 -2.78682 0.0
-0.875935 -2.73574 0.0
-1.62022 -2.15766 0.0
-1.68515 -2.25984 0.0
-0.870071 -2.7271 0.0
-0.834712 -2.67828 0.0
-1.54355 -2.0514 0.0
-1.61436 -2.14903 0.0
-0.828353 -2.67006 0.0
-0.790196 -2.6237 0.0
-1.46078 -1.95049 0.0
-1.53719 -2.04318 0.0
-0.783365 -2.61592 0.0
-0.742556 -2.57219 0.0
-1.37225 -1.85533 0.0
-1.45395 -1.94271 0.0
-0.735282 -2.56489 0.0
-0.691979 -2.52398 0.0
-1.27829 -1.76629 0.0
-1.36497 -1.84802 0.0
-0.684289 -2.51717 0.0
-0.638661 -2.47924 0.0
-1.17928 -1.68373 0.0
-1.2706 -1.75948 0.0
-0.630585 -2.47296 0.0
-0.582809 -2.43816 0.0
-1.07561 -1.60797 0.0
-1.17121 -1.67745 0.0
-0.574379 -2.43243 0.0
-0.524642 -2.4009 0.0
-0.967684 -1.53931 0.0
-1.06718 -1.60224 0.0
-0.515891 -2.39575 0.0
-0.464387 -2.36762 0.0
-0.85593 -1.47803 0.0
-0.958934 -1.53416 0.0
-0.455351 -2.36307 0.0
-0.402282 -2.33844 0.0
-0.740788 -1.42437 0.0
-0.846894 -1.47348 0.0
-0.392996 -2.33451 0.0
-0.338574 -2.3135 0.0
-0.622713 -1.37855 0.0
-0.731501 -1.42044 0.0
-0.329073 -2.31019 0.0
-0.273513 -2.29288 0.0
-0.502172 -1.34074 0.0
-0.613213 -1.37524 0.0
-0.263837 -2.29023 0.0
-0.207359 -2.27669 0.0
-0.379642 -1.3111 0.0
-0.492496 -1.33808 0.0
-0.197545 -2.27468 0.0
-0.140376 -2.26497 0.0
-0.255608 -1.28975 0.0
-0.369828 -1.3091 0.0
-0.130464 -2.26363 0.0
-0.072832 -2.25779 0.0
-0.130561 -1.27677 0.0
-0.245695 -1.28841 0.0
-0.0628597 -2.25712 0.0
-0.00499611 -2.25517 0.0
-0.00499611 -1.27221 0.0
-0.120588 -1.2761 0.0
0.00499611 -2.25517 0.0
0.0628597 -2.25712 0.0
0.120588 -1.2761 0.0
0.00499611 -1.27221 0.0
0.072832 -2.25779 0.0
0.130464 -2.26363 0.0
0.245695 -1.28841 0.0
0.130561 -1.27677 0.0
0.140376 -2.26497 0.0
0.197545 -2.27468 0.0
0.369828 -1.3091 0.0
0.255608 -1.28975 0.0
0.207359 -2.27669 0.0
0.263837 -2.29023 0.0
0.492496 -1.33808 0.0
0.379642 -1.3111 0.0
0.273513 -2.29288 0.0
0.329073 -2.31019 0.0
0.613213 -1.37524 0.0
0.502172 -1.34074 0.0
0.338574 -2.3135 0.0
0.392996 -2.33451 0.0
0.731501 -1.42044 0.0
0.622713 -1.37855 0.0
0.402282 -2.33844 0.0
0.455351 -2.36307 0.0
0.846894 -1.47348 0.0
0.740788 -1.42437 0.0
0.464387 -2.36762 0.0
0.515891 -2.39575 0.0
0.958934 -1.53416 0.0
0.85593 -1.47803 0.0
0.524642 -2.4009 0.0
0.574379 -2.43243 0.0
1.06718 -1.60224 0.0
0.967684 -1.53931 0.0
0.582809 -2.43816 0.0
0.630585 -2.47296 0.0
1.17121 -1.67745 0.0
1.07561 -1.60797 0.0
0.638661 -2.47924 0.0
0.684289 -2.51717 0.0
1.2706 -1.75948 0.0
1.17928 -1.68373 0.0
0.691979 -2.52398 0.0
0.735282 -2.56489 0.0
1.36497 -1.84802 0.0
1.27829 -1.76629 0.0
0.742556 -2.57219 0.0
0.783365 -2.61592 0.0
1.45395 -1.94271 0.0
1.37225 -1.85533 0.0
0.790196 -2.6237 0.0
0.828353 -2.67006 0.0
1.53719 -2.04318 0.0
1.46078 -1.95049 0.0
0.834712 -2.67828 0.0
0.870071 -2.7271 0.0
1.61436 -2.14903 0.0
1.54355 -2.0514 0.0
0.875935 -2.73574 0.0
0.908358 -2.78682 0.0
1.68515 -2.25984 0.0
1.62022 -2.15766 0.0
0.913703 -2.79583 0.0
0.943065 -2.84897 0.0
1.74929 -2.37517 0.0
1.6905 -2.26885 0.0
0.94787 -2.85832 0.0
0.974057 -2.91332 0.0
1.80654 -2.49458 0.0
1.7541 -2.38452 0.0
0.978304 -2.92298 0.0
1.00121 -2.97961 0.0
1.85665 -2.61758 0.0
1.81078 -2.50423 0.0
1.00489 -2.98953 0.0
1.02442 -3.04757 0.0
1.89944 -2.74369 0.0
1.86032 -2.6275 0.0
1.02751 -3.05771 0.0
1.0436 -3.1169 0.0
1.93474 -2.87241 0.0
1.90253 -2.75383 0.0
1.04609 -3.12722 0.0
1.05866 -3.18725 0.0
1.96242 -3.00316 0.0
1.93723 -2.88272 0.0
1.06055 -3.1977 0.0
1.06957 -3.25817 0.0
1.98235 -3.13523 0.0
1.9643 -3.0136 0.0
1.07085 -3.26866 0.0
1.07633 -3.32896 0.0
1.99452 -3.26748 0.0
1.98363 -3.14573 0.0
1.07699 -3.33937 0.0
1.07907 -3.39854 0.0
1.99909 -3.39759 0.0
1.99518 -3.27789 0.0
-2.09501 -3.27451 0.0
-3.01333 -3.21301 0.0
-3.01906 -3.39371 0.0
-2.09892 -3.39421 0.0
-2.08306 -3.13571 0.0
-2.99596 -3.01262 0.0
-3.01228 -3.19597 0.0
-2.09395 -3.25746 0.0
-2.06296 -2.99692 0.0
-2.96682 -2.81271 0.0
-2.99391 -2.99547 0.0
-2.08101 -3.11855 0.0
-2.03472 -2.85944 0.0
-2.92597 -2.61491 0.0
-2.96376 -2.79567 0.0
-2.05991 -2.97988 0.0
-1.99847 -2.72405 0.0
-2.87358 -2.42017 0.0
-2.92193 -2.59808 0.0
-2.03068 -2.84262 0.0
-1.95432 -2.59133 0.0
-2.80986 -2.22933 0.0
-2.86856 -2.40365 0.0
-1.99344 -2.70752 0.0
-1.90247 -2.46182 0.0
-2.73505 -2.04312 0.0
-2.80388 -2.21317 0.0
-1.94834 -2.57517 0.0
-1.84312 -2.33604 0.0
-2.64946 -1.8623 0.0
-2.72813 -2.0274 0.0
-1.89555 -2.4461 0.0
-1.77649 -2.21449 0.0
-2.5534 -1.68757 0.0
-2.64163 -1.84707 0.0
-1.83529 -2.32081 0.0
-1.70285 -2.09764 0.0
-2.44727 -1.51963 0.0
-2.54469 -1.6729 0.0
-1.76778 -2.19982 0.0
-1.62249 -1.98595 0.0
-2.33148 -1.35913 0.0
-2.43772 -1.50557 0.0
-1.6933 -2.08358 0.0
-1.53572 -1.87988 0.0
-2.20649 -1.20672 0.0
-2.32112 -1.34574 0.0
-1.61213 -1.97256 0.0
-1.44289 -1.77982 0.0
-2.07278 -1.06298 0.0
-2.19536 -1.19405 0.0
-1.5246 -1.86721 0.0
-1.34436 -1.68619 0.0
-1.93088 -0.928497 0.0
-2.06093 -1.05108 0.0
-1.43104 -1.76792 0.0
-1.24051 -1.59935 0.0
-1.78136 -0.803796 0.0
-1.91836 -0.917416 0.0
-1.33183 -1.67511 0.0
-1.13176 -1.51965 0.0
-1.6248 -0.689372 0.0
-1.76821 -0.793577 0.0
-1.22736 -1.58913 0.0
-1.01854 -1.4474 0.0
-1.46182 -0.585677 0.0
-1.61107 -0.680055 0.0
-1.11803 -1.51033 0.0
-0.901281 -1.38289 0.0
-1.29306 -0.493123 0.0
-1.44757 -0.5773 0.0
-1.00429 -1.43902 0.0
-0.78046 -1.32638 0.0
-1.11919 -0.412077 0.0
-1.27834 -0.485718 0.0
-0.886566 -1.37549 0.0
-0.65655 -1.27808 0.0
-0.94089 -0.342859 0.0
-1.10407 -0.405674 0.0
-0.765338 -1.31998 0.0
-0.530041 -1.23821 0.0
-0.75887 -0.285747 0.0
-0.925421 -0.337484 0.0
-0.641081 -1.27271 0.0
-0.401432 -1.2069 0.0
-0.573849 -0.240966 0.0
-0.743116 -0.281422 0.0
-0.514286 -1.23388 0.0
-0.271234 -1.18429 0.0
-0.386558 -0.208694 0.0
-0.557871 -0.237706 0.0
-0.385454 -1.20364 0.0
-0.139961 -1.17047 0.0
-0.197737 -0.189061 0.0
-0.370419 -0.206514 0.0
-0.255095 -1.18211 0.0
-0.00813364 -1.16549 0.0
-0.00813364 -0.182143 0.0
-0.181502 -0.187968 0.0
-0.123726 -1.16938 0.0
0.123726 -1.16938 0.0
0.181502 -0.187968 0.0
0.00813364 -0.182143 0.0
0.00813364 -1.16549 0.0
0.255095 -1.18211 0.0
0.370419 -0.206514 0.0
0.197737 -0.189061 0.0
0.139961 -1.17047 0.0
0.385454 -1.20364 0.0
0.557871 -0.237706 0.0
0.386558 -0.208694 0.0
0.271234 -1.18429 0.0
0.514286 -1.23388 0.0
0.743116 -0.281422 0.0
0.573849 -0.240966 0.0
0.401432 -1.2069 0.0
0.641081 -1.27271 0.0
0.925421 -0.337484 0.0
0.75887 -0.285747 0.0
0.530041 -1.23821 0.0
0.765338 -1.31998 0.0
1.10407 -0.405674 0.0
0.94089 -0.342859 0.0
0.65655 -1.27808 0.0
0.886566 -1.37549 0.0
1.27834 -0.485718 0.0
1.11919 -0.412077 0.0
0.78046 -1.32638 0.0
1.00429 -1.43902 0.0
1.44757 -0.5773 0.0
1.29306 -0.493123 0.0
0.901281 -1.38289 0.0
1.11803 -1.51033 0.0
1.61107 -0.680055 0.0
1.46182 -0.585677 0.0
1.01854 -1.4474 0.0
1.22736 -1.58913 0.0
1.76821 -0.793577 0.0
1.6248 -0.689372 0.0
1.13176 -1.51965 0.0
1.33183 -1.67511 0.0
1.91836 -0.917416 0.0
1.78136 -0.803796 0.0
1.24051 -1.59935 0.0
1.43104 -1.76792 0.0
2.06093 -1.05108 0.0
1.93088 -0.928497 0.0
1.34436 -1.68619 0.0
1.5246 -1.86721 0.0
2.19536 -1.19405 0.0
2.07278 -1.06298 0.0
1.44289 -1.77982 0.0
1.61213 -1.97256 0.0
2.32112 -1.34574 0.0
2.20649 -1.20672 0.0
1.53572 -1.87988 0.0
1.6933 -2.08358 0.0
2.43772 -1.50557 0.0
2.33148 -1.35913 0.0
1.62249 -1.98595 0.0
1.76778 -2.19982 0.0
2.54469 -1.6729 0.0
2.44727 -1.51963 0.0
1.70285 -2.09764 0.0
1.83529 -2.32081 0.0
2.64163 -1.84707 0.0
2.5534 -1.68757 0.0
1.77649 -2.21449 0.0
1.89555 -2.4461 0.0
2.72813 -2.0274 0.0
2.64946 -1.8623 0.0
1.84312 -2.33604 0.0
1.94834 -2.57517 0.0
2.80388 -2.21317 0.0
2.73505 -2.04312 0.0
1.90247 -2.46182 0.0
1.99344 -2.70752 0.0
2.86856 -2.40365 0.0
2.80986 -2.22933 0.0
1.95432 -2.59133 0.0
2.03068 -2.84262 0.0
2.92193 -2.59808 0.0
2.87358 -2.42017 0.0
1.99847 -2.72405 0.0
2.05991 -2.97988 0.0
2.96376 -2.79567 0.0
2.92597 -2.61491 0.0
2.03472 -2.85944 0.0
2.08101 -3.11855 0.0
2.99391 -2.99547 0.0
2.96682 -2.81271 0.0
2.06296 -2.99692 0.0
2.09395 -3.25746 0.0
3.01228 -3.19597 0.0
2.99596 -3.01262 0.0
2.08306 -3.13571 0.0
2.09501 -3.27451 0.0
2.09892 -3.39421 0.0
3.01906 -3.39371 0.0
3.01333 -3.21301 0.0
-3.11448 -3.20961 0.0
-4.03282 -3.14805 0.0
-4.04035 -3.38999 0.0
-3.1202 -3.39031 0.0
-3.09672 -3.00246 0.0
-4.00962 -2.8793 0.0
-4.03136 -3.12425 0.0
-3.11303 -3.18581 0.0
-3.06678 -2.7958 0.0
-3.97064 -2.61156 0.0
-4.00678 -2.85539 0.0
-3.09387 -2.97855 0.0
-3.02474 -2.59131 0.0
-3.91599 -2.34676 0.0
-3.9664 -2.58783 0.0
-3.06254 -2.77208 0.0
-2.97078 -2.39 0.0
-3.8459 -2.08612 0.0
-3.91037 -2.32336 0.0
-3.01912 -2.56791 0.0
-2.90509 -2.19269 0.0
-3.76063 -1.83068 0.0
-3.83891 -2.06313 0.0
-2.96379 -2.36701 0.0
-2.82794 -2.00016 0.0
-3.66053 -1.58147 0.0
-3.75231 -1.80821 0.0
-2.89677 -2.17021 0.0
-2.73964 -1.81319 0.0
-3.54598 -1.33945 0.0
-3.6509 -1.5596 0.0
-2.81832 -1.97829 0.0
-2.64052 -1.63251 0.0
-3.41744 -1.1056 0.0
-3.53508 -1.31827 0.0
-2.72875 -1.79201 0.0
-2.53099 -1.45883 0.0
-3.27541 -0.880821 0.0
-3.40532 -1.08519 0.0
-2.62841 -1.6121 0.0
-2.41146 -1.29284 0.0
-3.12045 -0.666013 0.0
-3.26212 -0.861263 0.0
-2.51769 -1.43927 0.0
-2.28241 -1.13518 0.0
-2.95317 -0.46202 0.0
-3.10604 -0.647385 0.0
-2.39704 -1.27421 0.0
-2.14435 -0.986495 0.0
-2.77424 -0.269649 0.0
-2.93769 -0.444396 0.0
-2.26693 -1.11756 0.0
-1.99782 -0.847359 0.0
-2.58435 -0.0896599 0.0
-2.75775 -0.253098 0.0
-2.12786 -0.969943 0.0
-1.8434 -0.718326 0.0
-2.38425 0.0772361 0.0
-2.56692 -0.0742468 0.0
-1.98039 -0.831946 0.0
-1.68169 -0.599907 0.0
-2.17474 0.230379 0.0
-2.36595 0.0914497 0.0
-1.8251 -0.704113 0.0
-1.51334 -0.492571 0.0
-1.95663 0.369162 0.0
-2.15564 0.243337 0.0
-1.6626 -0.58695 0.0
-1.33901 -0.396744 0.0
-1.73079 0.493035 0.0
-1.93681 0.380813 0.0
-1.49352 -0.480921 0.0
-1.15939 -0.312804 0.0
-1.49812 0.60151 0.0
-1.71033 0.503333 0.0
-1.31854 -0.386446 0.0
-0.975175 -0.241085 0.0
-1.25952 0.694154 0.0
-1.47708 0.610414 0.0
-1.13835 -0.3039 0.0
-0.787109 -0.181873 0.0
-1.01594 0.770602 0.0
-1.238 0.701629 0.0
-0.953659 -0.233611 0.0
-0.595929 -0.135402 0.0
-0.768348 0.830549 0.0
-0.994029 0.776618 0.0
-0.765195 -0.175858 0.0
-0.402391 -0.101857 0.0
-0.517717 0.873758 0.0
-0.746124 0.835082 0.0
-0.573704 -0.130869 0.0
-0.207262 -0.0813718 0.0
-0.265039 0.900057 0.0
-0.49527 0.87679 0.0
-0.379944 -0.0988254 0.0
-0.0113129 -0.0740271 0.0
-0.0113129 0.909342 0.0
-0.242458 0.901576 0.0
-0.184681 -0.0798529 0.0
0.184681 -0.0798529 0.0
0.242458 0.901576 0.0
0.0113129 0.909342 0.0
0.0113129 -0.0740271 0.0
0.379944 -0.0988254 0.0
0.49527 0.87679 0.0
0.265039 0.900057 0.0
0.207262 -0.0813718 0.0
0.573704 -0.130869 0.0
0.746124 0.835082 0.0
0.517717 0.873758 0.0
0.402391 -0.101857 0.0
0.765195 -0.175858 0.0
0.994029 0.776618 0.0
0.768348 0.830549 0.0
0.595929 -0.135402 0.0
0.953659 -0.233611 0.0
1.238 0.701629 0.0
1.01594 0.770602 0.0
0.787109 -0.181873 0.0
1.13835 -0.3039 0.0
1.47708 0.610414 0.0
1.25952 0.694154 0.0
0.975175 -0.241085 0.0
1.31854 -0.386446 0.0
1.71033 0.503333 0.0
1.49812 0.60151 0.0
1.15939 -0.312804 0.0
1.49352 -0.480921 0.0
1.93681 0.380813 0.0
1.73079 0.493035 0.0
1.33901 -0.396744 0.0
1.6626 -0.58695 0.0
2.15564 0.243337 0.0
1.95663 0.369162 0.0
1.51334 -0.492571 0.0
1.8251 -0.704113 0.0
2.36595 0.0914497 0.0
2.17474 0.230379 0.0
1.68169 -0.599907 0.0
1.98039 -0.831946 0.0
2.56692 -0.0742468 0.0
2.38425 0.0772361 0.0
1.8434 -0.718326 0.0
2.12786 -0.969943 0.0
2.75775 -0.253098 0.0
2.58435 -0.0896599 0.0
1.99782 -0.847359 0.0
2.26693 -1.11756 0.0
2.93769 -0.444396 0.0
2.77424 -0.269649 0.0
2.14435 -0.986495 0.0
2.39704 -1.27421 0.0
3.10604 -0.647385 0.0
2.95317 -0.46202 0.0
2.28241 -1.13518 0.0
2.51769 -1.43927 0.0
3.26212 -0.861263 0.0
3.12045 -0.666013 0.0
2.41146 -1.29284 0.0
2.62841 -1.6121 0.0
3.40532 -1.08519 0.0
3.27541 -0.880821 0.0
2.53099 -1.45883 0.0
2.72875 -1.79201 0.0
3.53508 -1.31827 0.0
3.41744 -1.1056 0.0
2.64052 -1.63251 0.0
2.81832 -1.97829 0.0
3.6509 -1.5596 0.0
3.54598 -1.33945 0.0
2.73964 -1.81319 0.0
2.89677 -2.17021 0.0
3.75231 -1.80821 0.0
3.66053 -1.58147 0.0
2.82794 -2.00016 0.0
2.96379 -2.36701 0.0
3.83891 -2.06313 0.0
3.76063 -1.83068 0.0
2.90509 -2.19269 0.0
3.01912 -2.56791 0.0
3.91037 -2.32336 0.0
3.8459 -2.08612 0.0
2.97078 -2.39 0.0
3.06254 -2.77208 0.0
3.9664 -2.58783 0.0
3.91599 -2.34676 0.0
3.02474 -2.59131 0.0
3.09387 -2.97855 0.0
4.00678 -2.85539 0.0
3.97064 -2.61156 0.0
3.06678 -2.7958 0.0
3.11303 -3.18581 0.0
4.03136 -3.12425 0.0
4.00962 -2.8793 0.0
3.09672 -3.00246 0.0
3.11448 -3.20961 0.0
3.1202 -3.39031 0.0
4.04035 -3.38999 0.0
4.03282 -3.14805 0.0
-4.1344 -3.14464 0.0
-5.05274 -3.08304 0.0
-5.06209 -3.38636 0.0
-4.14194 -3.38658 0.0
-4.11081 -2.86909 0.0
-5.02371 -2.7459 0.0
-5.05089 -3.05245 0.0
-4.13255 -3.11404 0.0
-4.07103 -2.59457 0.0
-4.97489 -2.41032 0.0
-5.02007 -2.71521 0.0
-4.10717 -2.83841 0.0
-4.01519 -2.32307 0.0
-4.90644 -2.07852 0.0
-4.96946 -2.37988 0.0
-4.0656 -2.56414 0.0
-3.94351 -2.05581 0.0
-4.81863 -1.75194 0.0
-4.89923 -2.0485 0.0
-4.00798 -2.29305 0.0
-3.85627 -1.79389 0.0
-4.71181 -1.43188 0.0
-4.80967 -1.72246 0.0
-3.93455 -2.02634 0.0
-3.75381 -1.53832 0.0
-4.58639 -1.11963 0.0
-4.70113 -1.40307 0.0
-3.8456 -1.76507 0.0
-3.63655 -1.29014 0.0
-4.44288 -0.816394 0.0
-4.57405 -1.09158 0.0
-3.74147 -1.51028 0.0
-3.50493 -1.0503 0.0
-4.28184 -0.523383 0.0
-4.42892 -0.789231 0.0
-3.62258 -1.26297 0.0
-3.35948 -0.819761 0.0
-4.1039 -0.241751 0.0
-4.2663 -0.497211 0.0
-3.48939 -1.02413 0.0
-3.20077 -0.599432 0.0
-3.90976 0.0273914 0.0
-4.08685 -0.216672 0.0
-3.34243 -0.794682 0.0
-3.02942 -0.390181 0.0
-3.70019 0.282982 0.0
-3.89127 0.0512777 0.0
-3.18228 -0.575546 0.0
-2.84611 -0.192835 0.0
-3.476 0.52401 0.0
-3.68033 0.305581 0.0
-3.00957 -0.367582 0.0
-2.65157 -0.0081742 0.0
-3.2381 0.749525 0.0
-3.45486 0.545234 0.0
-2.82497 -0.171612 0.0
-2.44655 0.163072 0.0
-2.98741 0.958635 0.0
-3.21575 0.769288 0.0
-2.62922 0.0115889 0.0
-2.23187 0.320226 0.0
-2.72492 1.15051 0.0
-2.96394 0.976859 0.0
-2.42309 0.181297 0.0
-2.00837 0.462666 0.0
-2.45166 1.3244 0.0
-2.70043 1.16713 0.0
-2.20738 0.33684 0.0
-1.77694 0.589827 0.0
-2.16872 1.47961 0.0
-2.42624 1.33934 0.0
-1.98296 0.477604 0.0
-1.53849 0.701207 0.0
-1.87722 1.61552 0.0
-2.14248 1.49281 0.0
-1.75069 0.60303 0.0
-1.29395 0.796364 0.0
-1.57829 1.7316 0.0
-1.85025 1.62694 0.0
-1.51152 0.712623 0.0
-1.0443 0.874921 0.0
-1.27313 1.8274 0.0
-1.55071 1.74119 0.0
-1.26636 0.805947 0.0
-0.790522 0.936565 0.0
-0.962943 1.90252 0.0
-1.24504 1.83511 0.0
-1.0162 0.882633 0.0
-0.533619 0.981053 0.0
-0.648945 1.95667 0.0
-0.934446 1.90833 0.0
-0.762026 0.942376 0.0
-0.274605 1.00821 0.0
-0.332382 1.98964 0.0
-0.620163 1.96056 0.0
-0.504836 0.98494 0.0
-0.0145058 1.01792 0.0
-0.0145058 2.00129 0.0
-0.303428 1.99158 0.0
-0.245651 1.01015 0.0
0.245651 1.01015 0.0
0.303428 1.99158 0.0
0.0145058 2.00129 0.0
0.0145058 1.01792 0.0
0.504836 0.98494 0.0
0.620163 1.96056 0.0
0.332382 1.98964 0.0
0.274605 1.00821 0.0
0.762026 0.942376 0.0
0.934446 1.90833 0.0
0.648945 1.95667 0.0
0.533619 0.981053 0.0
1.0162 0.882633 0.0
1.24504 1.83511 0.0
0.962943 1.90252 0.0
0.790522 0.936565 0.0
1.26636 0.805947 0.0
1.55071 1.74119 0.0
1.27313 1.8274 0.0
1.0443 0.874921 0.0
1.51152 0.712623 0.0
1.85025 1.62694 0.0
1.57829 1.7316 0.0
1.29395 0.796364 0.0
1.75069 0.60303 0.0
2.14248 1.49281 0.0
1.87722 1.61552 0.0
1.53849 0.701207 0.0
1.98296 0.477604 0.0
2.42624 1.33934 0.0
2.16872 1.47961 0.0
1.77694 0.589827 0.0
2.20738 0.33684 0.0
2.70043 1.16713 0.0
2.45166 1.3244 0.0
2.00837 0.462666 0.0
2.42309 0.181297 0.0
2.96394 0.976859 0.0
2.72492 1.15051 0.0
2.23187 0.320226 0.0
2.62922 0.0115889 0.0
3.21575 0.769288 0.0
2.98741 0.958635 0.0
2.44655 0.163072 0.0
2.82497 -0.171612 0.0
3.45486 0.545234 0.0
3.2381 0.749525 0.0
2.65157 -0.0081742 0.0
3.00957 -0.367582 0.0
3.68033 0.305581 0.0
3.476 0.52401 0.0
2.84611 -0.192835 0.0
3.18228 -0.575546 0.0
3.89127 0.0512777 0.0
3.70019 0.282982 0.0
3.02942 -0.390181 0.0
3.34243 -0.794682 0.0
4.08685 -0.216672 0.0
3.90976 0.0273914 0.0
3.20077 -0.599432 0.0
3.48939 -1.02413 0.0
4.2663 -0.497211 0.0
4.1039 -0.241751 0.0
3.35948 -0.819761 0.0
3.62258 -1.26297 0.0
4.42892 -0.789231 0.0
4.28184 -0.523383 0.0
3.50493 -1.0503 0.0
3.74147 -1.51028 0.0
4.57405 -1.09158 0.0
4.44288 -0.816394 0.0
3.63655 -1.29014 0.0
3.8456 -1.76507 0.0
4.70113 -1.40307 0.0
4.58639 -1.11963 0.0
3.75381 -1.53832 0.0
3.93455 -2.02634 0.0
4.80967 -1.72246 0.0
4.71181 -1.43188 0.0
3.85627 -1.79389 0.0
4.00798 -2.29305 0.0
4.89923 -2.0485 0.0
4.81863 -1.75194 0.0
3.94351 -2.05581 0.0
4.0656 -2.56414 0.0
4.96946 -2.37988 0.0
4.90644 -2.07852 0.0
4.01519 -2.32307 0.0
4.10717 -2.83841 0.0
5.02007 -2.71521 0.0
4.97489 -2.41032 0.0
4.07103 -2.59457 0.0
4.13255 -3.11404 0.0
5.05089 -3.05245 0.0
5.02371 -2.7459 0.0
4.11081 -2.86909 0.0
4.1344 -3.14464 0.0
4.14194 -3.38658 0.0
5.06209 -3.38636 0.0
5.05274 -3.08304 0.0
-5.15453 -3.07962 0.0
-6.07287 -3.01799 0.0
-6.08403 -3.38278 0.0
-5.16388 -3.38294 0.0
-5.1251 -2.73566 0.0
-6.038 -2.61245 0.0
-6.07062 -2.98058 0.0
-5.15228 -3.04221 0.0
-5.07548 -2.3933 0.0
-5.97934 -2.20904 0.0
-6.03357 -2.57497 0.0
-5.12066 -2.69819 0.0
-5.00583 -2.05477 0.0
-5.89708 -1.81022 0.0
-5.97271 -2.17188 0.0
-5.06885 -2.35614 0.0
-4.91643 -1.72157 0.0
-5.79155 -1.41769 0.0
-5.88828 -1.77358 0.0
-4.99703 -2.01813 0.0
-4.80763 -1.39502 0.0
-5.66317 -1.03301 0.0
-5.78061 -1.38171 0.0
-4.90549 -1.68559 0.0
-4.67986 -1.0764 0.0
-5.51244 -0.657701 0.0
-5.65014 -0.997837 0.0
-4.7946 -1.35984 0.0
-4.53363 -0.766981 0.0
-5.33997 -0.293239 0.0
-5.49737 -0.623469 0.0
-4.66479 -1.04217 0.0
-4.3695 -0.467978 0.0
-5.14642 0.0589375 0.0
-5.32292 -0.260084 0.0
-4.51658 -0.733826 0.0
-4.18813 -0.180573 0.0
-4.93255 0.397437 0.0
-5.12745 0.0908831 0.0
-4.35054 -0.436033 0.0
-3.99023 0.0941012 0.0
-4.69922 0.720925 0.0
-4.91175 0.428048 0.0
-4.16733 -0.149963 0.0
-3.77658 0.35496 0.0
-4.44735 1.02812 0.0
-4.67666 0.750079 0.0
-3.96767 0.123256 0.0
-3.54802 0.600973 0.0
-4.17791 1.31782 0.0
-4.42311 1.05571 0.0
-3.75235 0.382544 0.0
-3.30545 0.831168 0.0
-3.89198 1.58887 0.0
-4.15211 1.34372 0.0
-3.52222 0.626877 0.0
-3.04983 1.04464 0.0
-3.59068 1.8402 0.0
-3.8647 1.61299 0.0
-3.27817 0.85529 0.0
-2.78216 1.24053 0.0
-3.27521 2.07082 0.0
-3.56204 1.86244 0.0
-3.02119 1.06688 0.0
-2.50351 1.41808 0.0
-2.94679 2.27982 0.0
-3.24531 2.0911 0.0
-2.75227 1.26081 0.0
-2.21496 1.57659 0.0
-2.60674 2.46636 0.0
-2.91577 2.29805 0.0
-2.47248 1.43632 0.0
-1.91767 1.71541 0.0
-2.2564 2.62973 0.0
-2.57471 2.48248 0.0
-2.18293 1.5927 0.0
-1.61279 1.83401 0.0
-1.89714 2.76925 0.0
-2.22348 2.64366 0.0
-1.88475 1.72934 0.0
-1.30155 1.93192 0.0
-1.53038 2.88439 0.0
-1.86346 2.78095 0.0
-1.57912 1.84571 0.0
-0.985159 2.00874 0.0
-1.15758 2.97469 0.0
-1.49609 2.8938 0.0
-1.26725 1.94133 0.0
-0.664877 2.06417 0.0
-0.780203 3.03979 0.0
-1.1228 2.98178 0.0
-0.950378 2.01583 0.0
-0.341967 2.098 0.0
-0.399744 3.07942 0.0
-0.745073 3.04453 0.0
-0.629747 2.06891 0.0
-0.0177048 2.11008 0.0
-0.0177048 3.09345 0.0
-0.364404 3.0818 0.0
-0.306627 2.10037 0.0
0.306627 2.10037 0.0
0.364404 3.0818 0.0
0.0177048 3.09345 0.0
0.0177048 2.11008 0.0
0.629747 2.06891 0.0
0.745073 3.04453 0.0
0.399744 3.07942 0.0
0.341967 2.098 0.0
0.950378 2.01583 0.0
1.1228 2.98178 0.0
0.780203 3.03979 0.0
0.664877 2.06417 0.0
1.26725 1.94133 0.0
1.49609 2.8938 0.0
1.15758 2.97469 0.0
0.985159 2.00874 0.0
1.57912 1.84571 0.0
1.86346 2.78095 0.0
1.53038 2.88439 0.0
1.30155 1.93192 0.0
1.88475 1.72934 0.0
2.22348 2.64366 0.0
1.89714 2.76925 0.0
1.61279 1.83401 0.0
2.18293 1.5927 0.0
2.57471 2.48248 0.0
2.2564 2.62973 0.0
1.91767 1.71541 0.0
2.47248 1.43632 0.0
2.91577 2.29805 0.0
2.60674 2.46636 0.0
2.21496 1.57659 0.0
2.75227 1.26081 0.0
3.24531 2.0911 0.0
2.94679 2.27982 0.0
2.50351 1.41808 0.0
3.02119 1.06688 0.0
3.56204 1.86244 0.0
3.27521 2.07082 0.0
2.78216 1.24053 0.0
3.27817 0.85529 0.0
3.8647 1.61299 0.0
3.59068 1.8402 0.0
3.04983 1.04464 0.0
3.52222 0.626877 0.0
4.15211 1.34372 0.0
3.89198 1.58887 0.0
3.30545 0.831168 0.0
3.75235 0.382544 0.0
4.42311 1.05571 0.0
4.17791 1.31782 0.0
3.54802 0.600973 0.0
3.96767 0.123256 0.0
4.67666 0.750079 0.0
4.44735 1.02812 0.0
3.77658 0.35496 0.0
4.16733 -0.149963 0.0
4.91175 0.428048 0.0
4.69922 0.720925 0.0
3.99023 0.0941012 0.0
4.35054 -0.436033 0.0
5.12745 0.0908831 0.0
4.93255 0.397437 0.0
4.18813 -0.180573 0.0
4.51658 -0.733826 0.0
5.32292 -0.260084 0.0
5.14642 0.0589375 0.0
4.3695 -0.467978 0.0
4.66479 -1.04217 0.0
5.49737 -0.623469 0.0
5.33997 -0.293239 0.0
4.53363 -0.766981 0.0
4.7946 -1.35984 0.0
5.65014 -0.997837 0.0
5.51244 -0.657701 0.0
4.67986 -1.0764 0.0
4.90549 -1.68559 0.0
5.78061 -1.38171 0.0
5.66317 -1.03301 0.0
4.80763 -1.39502 0.0
4.99703 -2.01813 0.0
5.88828 -1.77358 0.0
5.79155 -1.41769 0.0
4.91643 -1.72157 0.0
5.06885 -2.35614 0.0
5.97271 -2.17188 0.0
5.89708 -1.81022 0.0
5.00583 -2.05477 0.0
5.12066 -2.69819 0.0
6.03357 -2.57497 0.0
5.97934 -2.20904 0.0
5.07548 -2.3933 0.0
5.15228 -3.04221 0.0
6.07062 -2.98058 0.0
6.038 -2.61245 0.0
5.1251 -2.73566 0.0
5.15453 -3.07962 0.0
5.16388 -3.38294 0.0
6.08403 -3.38278 0.0
6.07287 -3.01799 0.0
-6.17477 -3.01456 0.0
-7.09311 -2.95291 0.0
-7.10608 -3.37923 0.0
-6.18592 -3.37935 0.0
-6.1395 -2.6022 0.0
-7.0524 -2.47898 0.0
-7.09046 -2.90869 0.0
-6.17212 -2.97034 0.0
-6.08003 -2.19199 0.0
-6.98389 -2.00773 0.0
-7.04716 -2.4347 0.0
-6.13426 -2.55793 0.0
-5.99657 -1.78645 0.0
-6.88782 -1.5419 0.0
-6.97606 -1.96385 0.0
-6.0722 -2.14812 0.0
-5.88945 -1.38729 0.0
-6.76457 -1.08342 0.0
-6.87742 -1.49863 0.0
-5.98618 -1.74318 0.0
-5.75909 -0.996106 0.0
-6.61463 -0.634103 0.0
-6.75166 -1.04093 0.0
-5.87654 -1.3448 0.0
-5.60601 -0.61443 0.0
-6.43859 -0.195732 0.0
-6.59925 -0.592563 0.0
-5.74371 -0.954566 0.0
-5.43081 -0.243774 0.0
-6.23714 0.229968 0.0
-6.42079 -0.155306 0.0
-5.58821 -0.574004 0.0
-5.23417 0.1144 0.0
-6.01108 0.641316 0.0
-6.21701 0.26912 0.0
-5.41067 -0.204622 0.0
-5.01688 0.458679 0.0
-5.7613 1.03669 0.0
-5.98868 0.67904 0.0
-5.21177 0.152125 0.0
-4.77978 0.787704 0.0
-5.48877 1.41453 0.0
-5.73673 1.07284 0.0
-4.99231 0.494827 0.0
-4.52382 1.10018 0.0
-5.19458 1.77334 0.0
-5.46213 1.44896 0.0
-4.75314 0.822132 0.0
-4.25 1.39486 0.0
-4.87989 2.11171 0.0
-5.16597 1.80591 0.0
-4.4952 1.13275 0.0
-3.9594 1.6706 0.0
-4.54593 2.42829 0.0
-4.84942 2.1423 0.0
-4.21953 1.42545 0.0
-3.65317 1.92629 0.0
-4.19402 2.72185 0.0
-4.51372 2.45678 0.0
-3.92719 1.69908 0.0
-3.33251 2.16093 0.0
-3.82555 2.99122 0.0
-4.1602 2.74812 0.0
-3.61935 1.95256 0.0
-2.99869 2.3736 0.0
-3.44198 3.23533 0.0
-3.79026 3.01517 0.0
-3.29721 2.18488 0.0
-2.65303 2.56344 0.0
-3.04481 3.45322 0.0
-3.40534 3.25686 0.0
-2.96205 2.39513 0.0
-2.29689 2.72972 0.0
-2.63562 3.64403 0.0
-3.00698 3.47225 0.0
-2.6152 2.58247 0.0
-1.93167 2.87177 0.0
-2.21602 3.80701 0.0
-2.59674 3.66049 0.0
-2.25801 2.74617 0.0
-1.55882 2.98902 0.0
-1.78766 3.94149 0.0
-2.17625 3.82082 0.0
-1.89191 2.88558 0.0
-1.17982 3.08102 0.0
-1.35224 4.04697 0.0
-1.74716 3.95261 0.0
-1.51833 3.00014 0.0
-0.796151 3.1474 0.0
-0.911478 4.12301 0.0
-1.31117 4.05535 0.0
-1.13875 3.0894 0.0
-0.409338 3.1879 0.0
-0.467115 4.16932 0.0
-0.869994 4.12862 0.0
-0.754667 3.153 0.0
-0.0209071 3.20235 0.0
-0.0209071 4.18572 0.0
-0.425384 4.17213 0.0
-0.367606 3.1907 0.0
0.367606 3.1907 0.0
0.425384 4.17213 0.0
0.0209071 4.18572 0.0
0.0209071 3.20235 0.0
0.754667 3.153 0.0
0.869994 4.12862 0.0
0.467115 4.16932 0.0
0.409338 3.1879 0.0
1.13875 3.0894 0.0
1.31117 4.05535 0.0
0.911478 4.12301 0.0
0.796151 3.1474 0.0
1.51833 3.00014 0.0
1.74716 3.95261 0.0
1.35224 4.04697 0.0
1.17982 3.08102 0.0
1.89191 2.88558 0.0
2.17625 3.82082 0.0
1.78766 3.94149 0.0
1.55882 2.98902 0.0
2.25801 2.74617 0.0
2.59674 3.66049 0.0
2.21602 3.80701 0.0
1.93167 2.87177 0.0
2.6152 2.58247 0.0
3.00698 3.47225 0.0
2.63562 3.64403 0.0
2.29689 2.72972 0.0
2.96205 2.39513 0.0
3.40534 3.25686 0.0
3.04481 3.45322 0.0
2.65303 2.56344 0.0
3.29721 2.18488 0.0
3.79026 3.01517 0.0
3.44198 3.23533 0.0
2.99869 2.3736 0.0
3.61935 1.95256 0.0
4.1602 2.74812 0.0
3.82555 2.99122 0.0
3.33251 2.16093 0.0
3.92719 1.69908 0.0
4.51372 2.45678 0.0
4.19402 2.72185 0.0
3.65317 1.92629 0.0
4.21953 1.42545 0.0
4.84942 2.1423 0.0
4.54593 2.42829 0.0
3.9594 1.6706 0.0
4.4952 1.13275 0.0
5.16597 1.80591 0.0
4.87989 2.11171 0.0
4.25 1.39486 0.0
4.75314 0.822132 0.0
5.46213 1.44896 0.0
5.19458 1.77334 0.0
4.52382 1.10018 0.0
4.99231 0.494827 0.0
5.73673 1.07284 0.0
5.48877 1.41453 0.0
4.77978 0.787704 0.0
5.21177 0.152125 0.0
5.98868 0.67904 0.0
5.7613 1.03669 0.0
5.01688 0.458679 0.0
5.41067 -0.204622 0.0
6.21701 0.26912 0.0
6.01108 0.641316 0.0
5.23417 0.1144 0.0
5.58821 -0.574004 0.0
6.42079 -0.155306 0.0
6.23714 0.229968 0.0
5.43081 -0.243774 0.0
5.74371 -0.954566 0.0
6.59925 -0.592563 0.0
6.43859 -0.195732 0.0
5.60601 -0.61443 0.0
5.87654 -1.3448 0.0
6.75166 -1.04093 0.0
6.61463 -0.634103 0.0
5.75909 -0.996106 0.0
5.98618 -1.74318 0.0
6.87742 -1.49863 0.0
6.76457 -1.08342 0.0
5.88945 -1.38729 0.0
6.0722 -2.14812 0.0
6.97606 -1.96385 0.0
6.88782 -1.5419 0.0
5.99657 -1.78645 0.0
6.13426 -2.55793 0.0
7.04716 -2.4347 0.0
6.98389 -2.00773 0.0
6.08003 -2.19199 0.0
6.17212 -2.97034 0.0
7.09046 -2.90869 0.0
7.0524 -2.47898 0.0
6.1395 -2.6022 0.0
6.17477 -3.01456 0.0
6.18592 -3.37935 0.0
7.10608 -3.37923 0.0
7.09311 -2.95291 0.0
-7.19507 -2.94948 0.0
-8.1134 -2.88782 0.0
-8.12818 -3.37571 0.0
-7.20804 -3.3758 0.0
-7.15396 -2.46872 0.0
-8.06686 -2.34549 0.0
-8.11036 -2.83676 0.0
-7.19202 -2.89843 0.0
-7.08465 -1.99068 0.0
-7.9885 -1.80642 0.0
-8.06081 -2.29442 0.0
-7.14792 -2.41765 0.0
-6.98738 -1.51812 0.0
-7.87862 -1.27356 0.0
-7.97947 -1.75581 0.0
-7.07561 -1.94007 0.0
-6.86253 -1.053 0.0
-7.73765 -0.749125 0.0
-7.86663 -1.22366 0.0
-6.97539 -1.46821 0.0
-6.71061 -0.597173 0.0
-7.56615 -0.235174 0.0
-7.72275 -0.700121 0.0
-6.84764 -1.004 0.0
-6.53221 -0.152434 0.0
-7.36479 0.26626 0.0
-7.5484 -0.187266 0.0
-6.69287 -0.549265 0.0
-6.32804 0.279463 0.0
-7.13437 0.7532 0.0
-7.34426 0.312884 0.0
-6.51169 -0.105811 0.0
-6.09889 0.696812 0.0
-6.87579 1.22372 0.0
-7.11115 0.798354 0.0
-6.30481 0.324617 0.0
-5.84567 1.09797 0.0
-6.59008 1.67597 0.0
-6.84996 1.26723 0.0
-6.07306 0.74032 0.0
-5.56938 1.48135 0.0
-6.27836 2.10816 0.0
-6.56175 1.71766 0.0
-5.81733 1.13966 0.0
-5.27111 1.84544 0.0
-5.94186 2.51859 0.0
-6.24763 2.14787 0.0
-5.53865 1.52105 0.0
-4.95202 2.1888 0.0
-5.5819 2.90563 0.0
-5.90886 2.55616 0.0
-5.2381 1.883 0.0
-4.61339 2.51007 0.0
-5.19991 3.26776 0.0
-5.54676 2.94091 0.0
-4.91688 2.22407 0.0
-4.25655 2.808 0.0
-4.79739 3.60355 0.0
-5.16276 3.30061 0.0
-4.57624 2.54292 0.0
-3.88289 3.08139 0.0
-4.37593 3.91166 0.0
-4.75839 3.63384 0.0
-4.21754 2.83829 0.0
-3.49391 3.32917 0.0
-3.93719 4.19089 0.0
-4.33522 3.93928 0.0
-3.84218 3.10901 0.0
-3.09113 3.55036 0.0
-3.4829 4.44013 0.0
-3.89494 4.21572 0.0
-3.45166 3.354 0.0
-2.67613 3.74409 0.0
-3.01486 4.65839 0.0
-3.43927 4.46207 0.0
-3.0475 3.57231 0.0
-2.25057 3.90958 0.0
-2.53491 4.8448 0.0
-2.97003 4.67736 0.0
-2.6313 3.76306 0.0
-1.81612 4.04619 0.0
-2.04495 4.99864 0.0
-2.48905 4.86073 0.0
-2.20471 3.92551 0.0
-1.37449 4.15337 0.0
-1.54691 5.1193 0.0
-1.99824 5.01146 0.0
-1.76941 4.05901 0.0
-0.927436 4.23069 0.0
-1.04276 5.20629 0.0
-1.49954 5.12896 0.0
-1.32712 4.16303 0.0
-0.476716 4.27786 0.0
-0.534491 5.25927 0.0
-0.994918 5.21275 0.0
-0.879594 4.23715 0.0
-0.0241115 4.29469 0.0
-0.0241115 5.27804 0.0
-0.486364 5.26251 0.0
-0.428588 4.2811 0.0
0.428588 4.2811 0.0
0.486364 5.26251 0.0
0.0241115 5.27804 0.0
0.0241115 4.29469 0.0
0.879594 4.23715 0.0
0.994918 5.21275 0.0
0.534491 5.25927 0.0
0.476716 4.27786 0.0
1.32712 4.16303 0.0
1.49954 5.12896 0.0
1.04276 5.20629 0.0
0.927436 4.23069 0.0
1.76941 4.05901 0.0
1.99824 5.01146 0.0
1.54691 5.1193 0.0
1.37449 4.15337 0.0
2.20471 3.92551 0.0
2.48905 4.86073 0.0
2.04495 4.99864 0.0
1.81612 4.04619 0.0
2.6313 3.76306 0.0
2.97003 4.67736 0.0
2.53491 4.8448 0.0
2.25057 3.90958 0.0
3.0475 3.57231 0.0
3.43927 4.46207 0.0
3.01486 4.65839 0.0
2.67613 3.74409 0.0
3.45166 3.354 0.0
3.89494 4.21572 0.0
3.4829 4.44013 0.0
3.09113 3.55036 0.0
3.84218 3.10901 0.0
4.33522 3.93928 0.0
3.93719 4.19089 0.0
3.49391 3.32917 0.0
4.21754 2.83829 0.0
4.75839 3.63384 0.0
4.37593 3.91166 0.0
3.88289 3.08139 0.0
4.57624 2.54292 0.0
5.16276 3.30061 0.0
4.79739 3.60355 0.0
4.25655 2.808 0.0
4.91688 2.22407 0.0
5.54676 2.94091 0.0
5.19991 3.26776 0.0
4.61339 2.51007 0.0
5.2381 1.883 0.0
5.90886 2.55616 0.0
5.5819 2.90563 0.0
4.95202 2.1888 0.0
5.53865 1.52105 0.0
6.24763 2.14787 0.0
5.94186 2.51859 0.0
5.27111 1.84544 0.0
5.81733 1.13966 0.0
6.56175 1.71766 0.0
6.27836 2.10816 0.0
5.56938 1.48135 0.0
6.07306 0.74032 0.0
6.84996 1.26723 0.0
6.59008 1.67597 0.0
5.84567 1.09797 0.0
6.30481 0.324617 0.0
7.11115 0.798354 0.0
6.87579 1.22372 0.0
6.09889 0.696812 0.0
6.51169 -0.105811 0.0
7.34426 0.312884 0.0
7.13437 0.7532 0.0
6.32804 0.279463 0.0
6.69287 -0.549265 0.0
7.5484 -0.187266 0.0
7.36479 0.26626 0.0
6.53221 -0.152434 0.0
6.84764 -1.004 0.0
7.72275 -0.700121 0.0
7.56615 -0.235174 0.0
6.71061 -0.597173 0.0
6.97539 -1.46821 0.0
7.86663 -1.22366 0.0
7.73765 -0.749125 0.0
6.86253 -1.053 0.0
7.07561 -1.94007 0.0
7.97947 -1.75581 0.0
7.87862 -1.27356 0.0
6.98738 -1.51812 0.0
7.14792 -2.41765 0.0
8.06081 -2.29442 0.0
7.9885 -1.80642 0.0
7.08465 -1.99068 0.0
7.19202 -2.89843 0.0
8.11036 -2.83676 0.0
8.06686 -2.34549 0.0
7.15396 -2.46872 0.0
7.19507 -2.94948 0.0
7.20804 -3.3758 0.0
8.12818 -3.37571 0.0
8.1134 -2.88782 0.0
-8.2154 -2.88439 0.0
-9.13364 -2.82271 0.0
-9.15024 -3.3722 0.0
-8.23018 -3.37228 0.0
-8.16845 -2.33523 0.0
-9.08125 -2.21201 0.0
-9.13019 -2.76483 0.0
-8.21195 -2.8265 0.0
-8.08929 -1.78936 0.0
-8.99304 -1.60512 0.0
-9.0744 -2.15413 0.0
-8.16161 -2.27736 0.0
-7.97821 -1.24977 0.0
-8.86934 -1.00525 0.0
-8.98281 -1.54778 0.0
-8.07906 -1.73202 0.0
-7.83564 -0.718698 0.0
-8.71064 -0.414863 0.0
-8.85576 -0.94871 0.0
-7.96463 -1.19323 0.0
-7.66216 -0.198232 0.0
-8.51757 0.163716 0.0
-8.69376 -0.359344 0.0
-7.81877 -0.663179 0.0
-7.45844 0.309572 0.0
-8.29089 0.728201 0.0
-8.49746 0.217993 0.0
-7.64206 -0.143954 0.0
-7.22529 0.80271 0.0
-8.03148 1.27637 0.0
-8.26763 0.781023 0.0
-7.43519 0.362394 0.0
-6.96363 1.27924 0.0
-7.74039 1.80605 0.0
-8.00517 1.32752 0.0
-7.19898 0.853868 0.0
-6.67448 1.73727 0.0
-7.41874 2.31515 0.0
-7.71112 1.85534 0.0
-6.93436 1.32853 0.0
-6.35899 2.175 0.0
-7.06782 2.80168 0.0
-7.38663 2.36238 0.0
-6.64238 1.7845 0.0
-6.0184 2.59071 0.0
-6.689 3.2637 0.0
-7.033 2.84666 0.0
-6.32418 2.21999 0.0
-5.65406 2.98274 0.0
-6.28377 3.69939 0.0
-6.6516 3.30626 0.0
-5.98101 2.63327 0.0
-5.26739 3.34956 0.0
-5.85375 4.10704 0.0
-6.24395 3.73936 0.0
-5.61424 3.02271 0.0
-4.85993 3.68971 0.0
-5.40062 4.48502 0.0
-5.81166 4.14425 0.0
-5.2253 3.38678 0.0
-4.43328 4.00185 0.0
-4.92616 4.83186 0.0
-5.35642 4.51934 0.0
-4.81574 3.72403 0.0
-3.98913 4.28475 0.0
-4.43226 5.14618 0.0
-4.88004 4.86315 0.0
-4.38716 4.03314 0.0
-3.52922 4.53729 0.0
-3.92087 5.42674 0.0
-4.38439 5.17431 0.0
-3.94126 4.31288 0.0
-3.05538 4.75846 0.0
-3.39399 5.67243 0.0
-3.87144 5.4516 0.0
-3.47979 4.56215 0.0
-2.56947 4.9474 0.0
-2.85371 5.88228 0.0
-3.34319 5.69393 0.0
-3.00459 4.77996 0.0
-2.07341 5.10336 0.0
-2.30216 6.05545 0.0
-2.80175 5.90032 0.0
-2.51752 4.96545 0.0
-1.56917 5.22572 0.0
-1.74152 6.19127 0.0
-2.24924 6.06998 0.0
-2.0205 5.11788 0.0
-1.05872 5.31399 0.0
-1.174 6.2892 0.0
-1.68785 6.20222 0.0
-1.5155 5.23666 0.0
-0.544093 5.36783 0.0
-0.601847 6.34885 0.0
-1.1198 6.29652 0.0
-1.00452 5.32131 0.0
-0.0273164 5.38702 0.0
-0.0273164 6.36998 0.0
-0.547322 6.35252 0.0
-0.489569 5.3715 0.0
0.489569 5.3715 0.0
0.547322 6.35252 0.0
0.0273164 6.36998 0.0
0.0273164 5.38702 0.0
1.00452 5.32131 0.0
1.1198 6.29652 0.0
0.601847 6.34885 0.0
0.544093 5.36783 0.0
1.5155 5.23666 0.0
1.68785 6.20222 0.0
1.174 6.2892 0.0
1.05872 5.31399 0.0
2.0205 5.11788 0.0
2.24924 6.06998 0.0
1.74152 6.19127 0.0
1.56917 5.22572 0.0
2.51752 4.96545 0.0
2.80175 5.90032 0.0
2.30216 6.05545 0.0
2.07341 5.10336 0.0
3.00459 4.77996 0.0
3.34319 5.69393 0.0
2.85371 5.88228 0.0
2.56947 4.9474 0.0
3.47979 4.56215 0.0
3.87144 5.4516 0.0
3.39399 5.67243 0.0
3.05538 4.75846 0.0
3.94126 4.31288 0.0
4.38439 5.17431 0.0
3.92087 5.42674 0.0
3.52922 4.53729 0.0
4.38716 4.03314 0.0
4.88004 4.86315 0.0
4.43226 5.14618 0.0
3.98913 4.28475 0.0
4.81574 3.72403 0.0
5.35642 4.51934 0.0
4.92616 4.83186 0.0
4.43328 4.00185 0.0
5.2253 3.38678 0.0
5.81166 4.14425 0.0
5.40062 4.48502 0.0
4.85993 3.68971 0.0
5.61424 3.02271 0.0
6.24395 3.73936 0.0
5.85375 4.10704 0.0
5.26739 3.34956 0.0
5.98101 2.63327 0.0
6.6516 3.30626 0.0
6.28377 3.69939 0.0
5.65406 2.98274 0.0
6.32418 2.21999 0.0
7.033 2.84666 0.0
6.689 3.2637 0.0
6.0184 2.59071 0.0
6.64238 1.7845 0.0
7.38663 2.36238 0.0
7.06782 2.80168 0.0
6.35899 2.175 0.0
6.93436 1.32853 0.0
7.71112 1.85534 0.0
7.41874 2.31515 0.0
6.67448 1.73727 0.0
7.19898 0.853868 0.0
8.00517 1.32752 0.0
7.74039 1.80605 0.0
6.96363 1.27924 0.0
7.43519 0.362394 0.0
8.26763 0.781023 0.0
8.03148 1.27637 0.0
7.22529 0.80271 0.0
7.64206 -0.143954 0.0
8.49746 0.217993 0.0
8.29089 0.728201 0.0
7.45844 0.309572 0.0
7.81877 -0.663179 0.0
8.69376 -0.359344 0.0
8.51757 0.163716 0.0
7.66216 -0.198232 0.0
7.96463 -1.19323 0.0
8.85576 -0.94871 0.0
8.71064 -0.414863 0.0
7.83564 -0.718698 0.0
8.07906 -1.73202 0.0
8.98281 -1.54778 0.0
8.86934 -1.00525 0.0
7.97821 -1.24977 0.0
8.16161 -2.27736 0.0
9.0744 -2.15413 0.0
8.99304 -1.60512 0.0
8.08929 -1.78936 0.0
8.21195 -2.8265 0.0
9.13019 -2.76483 0.0
9.08125 -2.21201 0.0
8.16845 -2.33523 0.0
8.2154 -2.88439 0.0
8.23018 -3.37228 0.0
9.15024 -3.3722 0.0
9.13364 -2.82271 0.0
-10.1523 -2.75771 0.0
-10.1707 -3.36872 0.0
-9.25217 -3.36878 0.0
-9.23557 -2.81929 0.0
-10.094 -2.07875 0.0
-10.1484 -2.69299 0.0
-9.23172 -2.75458 0.0
-9.18278 -2.20176 0.0
-9.99586 -1.40416 0.0
-10.0863 -2.01408 0.0
-9.17513 -2.13709 0.0
-9.09376 -1.58807 0.0
-9.85824 -0.737439 0.0
-9.98442 -1.3401 0.0
-9.08232 -1.52401 0.0
-8.96886 -0.98148 0.0
-9.68169 -0.0812774 0.0
-9.84306 -0.674269 0.0
-8.95367 -0.918311 0.0
-8.80856 -0.384463 0.0
-9.4669 0.561722 0.0
-9.66282 -0.019252 0.0
-8.78969 -0.322438 0.0
-8.61349 0.200622 0.0
-9.21475 1.18902 0.0
-9.44443 0.622358 0.0
-8.59102 0.261258 0.0
-8.38444 0.771465 0.0
-8.92622 1.79813 0.0
-9.18875 1.24803 0.0
-8.35844 0.830473 0.0
-8.1223 1.32582 0.0
-8.60246 2.38666 0.0
-8.89681 1.85528 0.0
-8.09289 1.38296 0.0
-7.8281 1.86148 0.0
-8.24476 2.95229 0.0
-8.56975 2.44172 0.0
-7.79539 1.91654 0.0
-7.50301 2.37636 0.0
-7.85454 3.49278 0.0
-8.20888 3.00504 0.0
-7.46713 2.42911 0.0
-7.14831 2.8684 0.0
-7.43333 4.006 0.0
-7.81563 3.54302 0.0
-7.1094 2.91865 0.0
-6.7654 3.33568 0.0
-6.98281 4.48993 0.0
-7.39155 4.05353 0.0
-6.72362 3.38321 0.0
-6.35579 3.77635 0.0
-6.50477 4.94268 0.0
-6.93832 4.53457 0.0
-6.31129 3.82098 0.0
-5.92109 4.18866 0.0
-6.00108 5.36245 0.0
-6.45774 4.98424 0.0
-5.87406 4.23022 0.0
-5.46301 4.57099 0.0
-5.47374 5.7476 0.0
-5.9517 5.40077 0.0
-5.41364 4.60931 0.0
-4.98338 4.92183 0.0
-4.92483 6.09661 0.0
-5.42221 5.78253 0.0
-4.93185 4.95677 0.0
-4.48407 5.2398 0.0
-4.35651 6.40811 0.0
-4.87135 6.12802 0.0
-4.43059 5.27121 0.0
-3.96706 5.52364 0.0
-3.77103 6.68088 0.0
-4.30129 6.43587 0.0
-3.91184 5.55139 0.0
-3.4344 5.77222 0.0
-3.1707 6.91385 0.0
-3.71429 6.70488 0.0
-3.37765 5.79622 0.0
-2.88817 5.98457 0.0
-2.55788 7.1061 0.0
-3.11266 6.934 0.0
-2.83013 6.00472 0.0
-2.33054 6.15985 0.0
-1.93498 7.25688 0.0
-2.49877 7.12231 0.0
-2.27143 6.17606 0.0
-1.76371 6.29736 0.0
-1.30446 7.36559 0.0
-1.87504 7.26909 0.0
-1.70376 6.30957 0.0
-1.18991 6.39656 0.0
-0.668802 7.43181 0.0
-1.24392 7.37376 0.0
-1.12937 6.40473 0.0
-0.611418 6.45706 0.0
-0.0305111 7.45528 0.0
-0.6079 7.4359 0.0
-0.550516 6.46116 0.0
-0.0305111 6.47862 0.0
0.6079 7.4359 0.0
0.0305111 7.45528 0.0
0.0305111 6.47862 0.0
0.550516 6.46116 0.0
1.24392 7.37376 0.0
0.668802 7.43181 0.0
0.611418 6.45706 0.0
1.12937 6.40473 0.0
1.87504 7.26909 0.0
1.30446 7.36559 0.0
1.18991 6.39656 0.0
1.70376 6.30957 0.0
2.49877 7.12231 0.0
1.93498 7.25688 0.0
1.76371 6.29736 0.0
2.27143 6.17606 0.0
3.11266 6.934 0.0
2.55788 7.1061 0.0
2.33054 6.15985 0.0
2.83013 6.00472 0.0
3.71429 6.70488 0.0
3.1707 6.91385 0.0
2.88817 5.98457 0.0
3.37765 5.79622 0.0
4.30129 6.43587 0.0
3.77103 6.68088 0.0
3.4344 5.77222 0.0
3.91184 5.55139 0.0
4.87135 6.12802 0.0
4.35651 6.40811 0.0
3.96706 5.52364 0.0
4.43059 5.27121 0.0
5.42221 5.78253 0.0
4.92483 6.09661 0.0
4.48407 5.2398 0.0
4.93185 4.95677 0.0
5.9517 5.40077 0.0
5.47374 5.7476 0.0
4.98338 4.92183 0.0
5.41364 4.60931 0.0
6.45774 4.98424 0.0
6.00108 5.36245 0.0
5.46301 4.57099 0.0
5.87406 4.23022 0.0
6.93832 4.53457 0.0
6.50477 4.94268 0.0
5.92109 4.18866 0.0
6.31129 3.82098 0.0
7.39155 4.05353 0.0
6.98281 4.48993 0.0
6.35579 3.77635 0.0
6.72362 3.38321 0.0
7.81563 3.54302 0.0
7.43333 4.006 0.0
6.7654 3.33568 0.0
7.1094 2.91865 0.0
8.20888 3.00504 0.0
7.85454 3.49278 0.0
7.14831 2.8684 0.0
7.46713 2.42911 0.0
8.56975 2.44172 0.0
8.24476 2.95229 0.0
7.50301 2.37636 0.0
7.79539 1.91654 0.0
8.89681 1.85528 0.0
8.60246 2.38666 0.0
7.8281 1.86148 0.0
8.09289 1.38296 0.0
9.18875 1.24803 0.0
8.92622 1.79813 0.0
8.1223 1.32582 0.0
8.35844 0.830473 0.0
9.44443 0.622358 0.0
9.21475 1.18902 0.0
8.38444 0.771465 0.0
8.59102 0.261258 0.0
9.66282 -0.019252 0.0
9.4669 0.561722 0.0
8.61349 0.200622 0.0
8.78969 -0.322438 0.0
9.84306 -0.674269 0.0
9.68169 -0.0812774 0.0
8.80856 -0.384463 0.0
8.95367 -0.918311 0.0
9.98442 -1.3401 0.0
9.85824 -0.737439 0.0
8.96886 -0.98148 0.0
9.08232 -1.52401 0.0
10.0863 -2.01408 0.0
9.99586 -1.40416 0.0
9.09376 -1.58807 0.0
9.17513 -2.13709 0.0
10.1484 -2.69299 0.0
10.094 -2.07875 0.0
9.18278 -2.20176 0.0
9.23172 -2.75458 0.0
9.23557 -2.81929 0.0
9.25217 -3.36878 0.0
10.1707 -3.36872 0.0
10.1523 -2.75771 0.0
</DataArray>
</Points>
<Cells>
<DataArray type="Int32" Name="connectivity" format="ascii">
0 1 2 3 
4 5 6 7 
8 9 10 11 
12 13 14 15 
16 17 18 19 
20 21 22 23 
24 25 26 27 
28 29 30 31 
32 33 34 35 
36 37 38 39 
40 41 42 43 
44 45 46 47 
48 49 50 51 
52 53 54 55 
56 57 58 59 
60 61 62 63 
64 65 66 67 
68 69 70 71 
72 73 74 75 
76 77 78 79 
80 81 82 83 
84 85 86 87 
88 89 90 91 
92 93 94 95 
96 97 98 99 
100 101 102 103 
104 105 106 107 
108 109 110 111 
112 113 114 115 
116 117 118 119 
120 121 122 123 
124 125 126 127 
128 129 130 131 
132 133 134 135 
136 137 138 139 
140 141 142 143 
144 145 146 147 
148 149 150 151 
152 153 154 155 
156 157 158 159 
160 161 162 163 
164 165 166 167 
168 169 170 171 
172 173 174 175 
176 177 178 179 
180 181 182 183 
184 185 186 187 
188 189 190 191 
192 193 194 195 
196 197 198 199 
200 201 202 203 
204 205 206 207 
208 209 210 211 
212 213 214 215 
216 217 218 219 
220 221 222 223 
224 225 226 227 
228 229 230 231 
232 233 234 235 
236 237 238 239 
240 241 242 243 
244 245 246 247 
248 249 250 251 
252 253 254 255 
256 257 258 259 
260 261 262 263 
264 265 266 267 
268 269 270 271 
272 273 274 275 
276 277 278 279 
280 281 282 283 
284 285 286 287 
288 289 290 291 
292 293 294 295 
296 297 298 299 
300 301 302 303 
304 305 306 307 
308 309 310 311 
312 313 314 315 
316 317 318 319 
320 321 322 323 
324 325 326 327 
328 329 330 331 
332 333 334 335 
336 337 338 339 
340 341 342 343 
344 345 346 347 
348 349 350 351 
352 353 354 355 
356 357 358 359 
360 361 362 363 
364 365 366 367 
368 369 370 371 
372 373 374 375 
376 377 378 379 
380 381 382 383 
384 385 386 387 
388 389 390 391 
392 393 394 395 
396 397 398 399 
400 401 402 403 
404 405 406 407 
408 409 410 411 
412 413 414 415 
416 417 418 419 
420 421 422 423 
424 425 426 427 
428 429 430 431 
432 433 434 435 
436 437 438 439 
440 441 442 443 
444 445 446 447 
448 449 450 451 
452 453 454 455 
456 457 458 459 
460 461 462 463 
464 465 466 467 
468 469 470 471 
472 473 474 475 
476 477 478 479 
480 481 482 483 
484 485 486 487 
488 489 490 491 
492 493 494 495 
496 497 498 499 
500 501 502 503 
504 505 506 507 
508 509 510 511 
512 513 514 515 
516 517 518 519 
520 521 522 523 
524 525 526 527 
528 529 530 531 
532 533 534 535 
536 537 538 539 
540 541 542 543 
544 545 546 547 
548 549 550 551 
552 553 554 555 
556 557 558 559 
560 561 562 563 
564 565 566 567 
568 569 570 571 
572 573 574 575 
576 577 578 579 
580 581 582 583 
584 585 586 587 
588 589 590 591 
592 593 594 595 
596 597 598 599 
600 601 602 603 
604 605 606 607 
608 609 610 611 
612 613 614 615 
616 617 618 619 
620 621 622 623 
624 625 626 627 
628 629 630 631 
632 633 634 635 
636 637 638 639 
640 641 642 643 
644 645 646 647 
648 649 650 651 
652 653 654 655 
656 657 658 659 
660 661 662 663 
664 665 666 667 
668 669 670 671 
672 673 674 675 
676 677 678 679 
680 681 682 683 
684 685 686 687 
688 689 690 691 
692 693 694 695 
696 697 698 699 
700 701 702 703 
704 705 706 707 
708 709 710 711 
712 713 714 715 
716 717 718 719 
720 721 722 723 
724 725 726 727 
728 729 730 731 
732 733 734 735 
736 737 738 739 
740 741 742 743 
744 745 746 747 
748 749 750 751 
752 753 754 755 
756 757 758 759 
760 761 762 763 
764 765 766 767 
768 769 770 771 
772 773 774 775 
776 777 778 779 
780 781 782 783 
784 785 786 787 
788 789 790 791 
792 793 794 795 
796 797 798 799 
800 801 802 803 
804 805 806 807 
808 809 810 811 
812 813 814 815 
816 817 818 819 
820 821 822 823 
824 825 826 827 
828 829 830 831 
832 833 834 835 
836 837 838 839 
840 841 842 843 
844 845 846 847 
848 849 850 851 
852 853 854 855 
856 857 858 859 
860 861 862 863 
864 865 866 867 
868 869 870 871 
872 873 874 875 
876 877 878 879 
880 881 882 883 
884 885 886 887 
888 889 890 891 
892 893 894 895 
896 897 898 899 
900 901 902 903 
904 905 906 907 
908 909 910 911 
912 913 914 915 
916 917 918 919 
920 921 922 923 
924 925 926 927 
928 929 930 931 
932 933 934 935 
936 937 938 939 
940 941 942 943 
944 945 946 947 
948 949 950 951 
952 953 954 955 
956 957 958 959 
960 961 962 963 
964 965 966 967 
968 969 970 971 
972 973 974 975 
976 977 978 979 
980 981 982 983 
984 985 986 987 
988 989 990 991 
992 993 994 995 
996 997 998 999 
1000 1001 1002 1003 
1004 1005 1006 1007 
1008 1009 1010 1011 
1012 1013 1014 1015 
1016 1017 1018 1019 
1020 1021 1022 1023 
1024 1025 1026 1027 
1028 1029 1030 1031 
1032 1033 1034 1035 
1036 1037 1038 1039 
1040 1041 1042 1043 
1044 1045 1046 1047 
1048 1049 1050 1051 
1052 1053 1054 1055 
1056 1057 1058 1059 
1060 1061 1062 1063 
1064 1065 1066 1067 
1068 1069 1070 1071 
1072 1073 1074 1075 
1076 1077 1078 1079 
1080 1081 1082 1083 
1084 1085 1086 1087 
1088 1089 1090 1091 
1092 1093 1094 1095 
1096 1097 1098 1099 
1100 1101 1102 1103 
1104 1105 1106 1107 
1108 1109 1110 1111 
1112 1113 1114 1115 
1116 1117 1118 1119 
1120 1121 1122 1123 
1124 1125 1126 1127 
1128 1129 1130 1131 
1132 1133 1134 1135 
1136 1137 1138 1139 
1140 1141 1142 1143 
1144 1145 1146 1147 
1148 1149 1150 1151 
1152 1153 1154 1155 
1156 1157 1158 1159 
1160 1161 1162 1163 
1164 1165 1166 1167 
1168 1169 1170 1171 
1172 1173 1174 1175 
1176 1177 1178 1179 
1180 1181 1182 1183 
1184 1185 1186 1187 
1188 1189 1190 1191 
1192 1193 1194 1195 
1196 1197 1198 1199 
1200 1201 1202 1203 
1204 1205 1206 1207 
1208 1209 1210 1211 
1212 1213 1214 1215 
1216 1217 1218 1219 
1220 1221 1222 1223 
1224 1225 1226 1227 
1228 1229 1230 1231 
1232 1233 1234 1235 
1236 1237 1238 1239 
1240 1241 1242 1243 
1244 1245 1246 1247 
1248 1249 1250 1251 
1252 1253 1254 1255 
1256 1257 1258 1259 
1260 1261 1262 1263 
1264 1265 1266 1267 
1268 1269 1270 1271 
1272 1273 1274 1275 
1276 1277 1278 1279 
1280 1281 1282 1283 
1284 1285 1286 1287 
1288 1289 1290 1291 
1292 1293 1294 1295 
1296 1297 1298 1299 
1300 1301 1302 1303 
1304 1305 1306 1307 
1308 1309 1310 1311 
1312 1313 1314 1315 
1316 1317 1318 1319 
1320 1321 1322 1323 
1324 1325 1326 1327 
1328 1329 1330 1331 
1332 1333 1334 1335 
1336 1337 1338 1339 
1340 1341 1342 1343 
1344 1345 1346 1347 
1348 1349 1350 1351 
1352 1353 1354 1355 
1356 1357 1358 1359 
1360 1361 1362 1363 
1364 1365 1366 1367 
1368 1369 1370 1371 
1372 1373 1374 1375 
1376 1377 1378 1379 
1380 1381 1382 1383 
1384 1385 1386 1387 
1388 1389 1390 1391 
1392 1393 1394 1395 
1396 1397 1398 1399 
1400 1401 1402 1403 
1404 1405 1406 1407 
1408 1409 1410 1411 
1412 1413 1414 1415 
1416 1417 1418 1419 
1420 1421 1422 1423 
1424 1425 1426 1427 
1428 1429 1430 1431 
1432 1433 1434 1435 
1436 1437 1438 1439 
1440 1441 1442 1443 
1444 1445 1446 1447 
1448 1449 1450 1451 
1452 1453 1454 1455 
1456 1457 1458 1459 
1460 1461 1462 1463 
1464 1465 1466 1467 
1468 1469 1470 1471 
1472 1473 1474 1475 
1476 1477 1478 1479 
1480 1481 1482 1483 
1484 1485 1486 1487 
1488 1489 1490 1491 
1492 1493 1494 1495 
1496 1497 1498 1499 
1500 1501 1502 1503 
1504 1505 1506 1507 
1508 1509 1510 1511 
1512 1513 1514 1515 
1516 1517 1518 1519 
1520 1521 1522 1523 
1524 1525 1526 1527 
1528 1529 1530 1531 
1532 1533 1534 1535 
1536 1537 1538 1539 
1540 1541 1542 1543 
1544 1545 1546 1547 
1548 1549 1550 1551 
1552 1553 1554 1555 
1556 1557 1558 1559 
1560 1561 1562 1563 
1564 1565 1566 1567 
1568 1569 1570 1571 
1572 1573 1574 1575 
1576 1577 1578 1579 
1580 1581 1582 1583 
1584 1585 1586 1587 
1588 1589 1590 1591 
1592 1593 1594 1595 
1596 1597 1598 1599 
1600 1601 1602 1603 
1604 1605 1606 1607 
1608 1609 1610 1611 
1612 1613 1614 1615 
1616 1617 1618 1619 
1620 1621 1622 1623 
1624 1625 1626 1627 
1628 1629 1630 1631 
1632 1633 1634 1635 
1636 1637 1638 1639 
1640 1641 1642 1643 
1644 1645 1646 1647 
1648 1649 1650 1651 
1652 1653 1654 1655 
1656 1657 1658 1659 
1660 1661 1662 1663 
1664 1665 1666 1667 
1668 1669 1670 1671 
1672 1673 1674 1675 
1676 1677 1678 1679 
1680 1681 1682 1683 
1684 1685 1686 1687 
1688 1689 1690 1691 
1692 1693 1694 1695 
1696 1697 1698 1699 
1700 1701 1702 1703 
1704 1705 1706 1707 
1708 1709 1710 1711 
1712 1713 1714 1715 
1716 1717 1718 1719 
1720 1721 1722 1723 
1724 1725 1726 1727 
1728 1729 1730 1731 
1732 1733 1734 1735 
1736 1737 1738 1739 
1740 1741 1742 1743 
1744 1745 1746 1747 
1748 1749 1750 1751 
1752 1753 1754 1755 
1756 1757 1758 1759 
1760 1761 1762 1763 
1764 1765 1766 1767 
1768 1769 1770 1771 
1772 1773 1774 1775 
1776 1777 1778 1779 
1780 1781 1782 1783 
1784 1785 1786 1787 
1788 1789 1790 1791 
1792 1793 1794 1795 
1796 1797 1798 1799 
1800 1801 1802 1803 
1804 1805 1806 1807 
1808 1809 1810 1811 
1812 1813 1814 1815 
1816 1817 1818 1819 
1820 1821 1822 1823 
1824 1825 1826 1827 
1828 1829 1830 1831 
1832 1833 1834 1835 
1836 1837 1838 1839 
1840 1841 1842 1843 
1844 1845 1846 1847 
1848 1849 1850 1851 
1852 1853 1854 1855 
1856 1857 1858 1859 
1860 1861 1862 1863 
1864 1865 1866 1867 
1868 1869 1870 1871 
1872 1873 1874 1875 
1876 1877 1878 1879 
1880 1881 1882 1883 
1884 1885 1886 1887 
1888 1889 1890 1891 
1892 1893 1894 1895 
1896 1897 1898 1899 
1900 1901 1902 1903 
1904 1905 1906 1907 
1908 1909 1910 1911 
1912 1913 1914 1915 
1916 1917 1918 1919 
1920 1921 1922 1923 
1924 1925 1926 1927 
1928 1929 1930 1931 
1932 1933 1934 1935 
1936 1937 1938 1939 
1940 1941 1942 1943 
1944 1945 1946 1947 
1948 1949 1950 1951 
1952 1953 1954 1955 
1956 1957 1958 1959 
1960 1961 1962 1963 
1964 1965 1966 1967 
1968 1969 1970 1971 
1972 1973 1974 1975 
1976 1977 1978 1979 
1980 1981 1982 1983 
1984 1985 1986 1987 
1988 1989 1990 1991 
1992 1993 1994 1995 
1996 1997 1998 1999 
</DataArray>
<DataArray type="Int32" Name="offsets" format="ascii">
4 8 12 16 20 24 28 32 36 40 44 48 52 56 60 64 68 72 76 80 84 88 92 96 100 104 108 112 116 120 124 128 132 136 140 144 148 152 156 160 164 168 172 176 180 184 188 192 196 200 204 208 212 216 220 224 228 232 236 240 244 248 252 256 260 264 268 272 276 280 284 288 292 296 300 304 308 312 316 320 324 328 332 336 340 344 348 352 356 360 364 368 372 376 380 384 388 392 396 400 404 408 412 416 420 424 428 432 436 440 444 448 452 456 460 464 468 472 476 480 484 488 492 496 500 504 508 512 516 520 524 528 532 536 540 544 548 552 556 560 564 568 572 576 580 584 588 592 596 600 604 608 612 616 620 624 628 632 636 640 644 648 652 656 660 664 668 672 676 680 684 688 692 696 700 704 708 712 716 720 724 728 732 736 740 744 748 752 756 760 764 768 772 776 780 784 788 792 796 800 804 808 812 816 820 824 828 832 836 840 844 848 852 856 860 864 868 872 876 880 884 888 892 896 900 904 908 912 916 920 924 928 932 936 940 944 948 952 956 960 964 968 972 976 980 984 988 992 996 1000 1004 1008 1012 1016 1020 1024 1028 1032 1036 1040 1044 1048 1052 1056 1060 1064 1068 1072 1076 1080 1084 1088 1092 1096 1100 1104 1108 1112 1116 1120 1124 1128 1132 1136 1140 1144 1148 1152 1156 1160 1164 1168 1172 1176 1180 1184 1188 1192 1196 1200 1204 1208 1212 1216 1220 1224 1228 1232 1236 1240 1244 1248 1252 1256 1260 1264 1268 1272 1276 1280 1284 1288 1292 1296 1300 1304 1308 1312 1316 1320 1324 1328 1332 1336 1340 1344 1348 1352 1356 1360 1364 1368 1372 1376 1380 1384 1388 1392 1396 1400 1404 1408 1412 1416 1420 1424 1428 1432 1436 1440 1444 1448 1452 1456 1460 1464 1468 1472 1476 1480 1484 1488 1492 1496 1500 1504 1508 1512 1516 1520 1524 1528 1532 1536 1540 1544 1548 1552 1556 1560 1564 1568 1572 1576 1580 1584 1588 1592 1596 1600 1604 1608 1612 1616 1620 1624 1628 1632 1636 1640 1644 1648 1652 1656 1660 1664 1668 1672 1676 1680 1684 1688 1692 1696 1700 1704 1708 1712 1716 1720 1724 1728 1732 1736 1740 1744 1748 1752 1756 1760 1764 1768 1772 1776 1780 1784 1788 1792 1796 1800 1804 1808 1812 1816 1820 1824 1828 1832 1836 1840 1844 1848 1852 1856 1860 1864 1868 1872 1876 1880 1884 1888 1892 1896 1900 1904 1908 1912 1916 1920 1924 1928 1932 1936 1940 1944 1948 1952 1956 1960 1964 1968 1972 1976 1980 1984 1988 1992 1996 2000 
</DataArray>
<DataArray type="UInt8" Name="types" format="ascii">
7 7 7 7 7 7 7 7 7 7 7 7 7 7 7 7 7 7 7 7 7 7 7 7 7 7 7 7 7 7 7 7 7 7 7 7 7 7 7 7 7 7 7 7 7 7 7 7 7 7 7 7 7 7 7 7 7 7 7 7 7 7 7 7 7 7 7 7 7 7 7 7 7 7 7 7 7 7 7 7 7 7 7 7 7 7 7 7 7 7 7 7 7 7 7 7 7 7 7 7 7 7 7 7 7 7 7 7 7 7 7 7 7 7 7 7 7 7 7 7 7 7 7 7 7 7 7 7 7 7 7 7 7 7 7 7 7 7 7 7 7 7 7 7 7 7 7 7 7 7 7 7 7 7 7 7 7 7 7 7 7 7 7 7 7 7 7 7 7 7 7 7 7 7 7 7 7 7 7 7 7 7 7 7 7 7 7 7 7 7 7 7 7 7 7 7 7 7 7 7 7 7 7 7 7 7 7 7 7 7 7 7 7 7 7 7 7 7 7 7 7 7 7 7 7 7 7 7 7 7 7 7 7 7 7 7 7 7 7 7 7 7 7 7 7 7 7 7 7 7 7 7 7 7 7 7 7 7 7 7 7 7 7 7 7 7 7 7 7 7 7 7 7 7 7 7 7 7 7 7 7 7 7 7 7 7 7 7 7 7 7 7 7 7 7 7 7 7 7 7 7 7 7 7 7 7 7 7 7 7 7 7 7 7 7 7 7 7 7 7 7 7 7 7 7 7 7 7 7 7 7 7 7 7 7 7 7 7 7 7 7 7 7 7 7 7 7 7 7 7 7 7 7 7 7 7 7 7 7 7 7 7 7 7 7 7 7 7 7 7 7 7 7 7 7 7 7 7 7 7 7 7 7 7 7 7 7 7 7 7 7 7 7 7 7 7 7 7 7 7 7 7 7 7 7 7 7 7 7 7 7 7 7 7 7 7 7 7 7 7 7 7 7 7 7 7 7 7 7 7 7 7 7 7 7 7 7 7 7 7 7 7 7 7 7 7 7 7 7 7 7 7 7 7 7 7 7 7 7 7 7 7 7 7 7 7 7 7 7 7 7 7 7 7 7 7 7 7 7 7 7 7 7 7 7 7 7 7 7 7 7 7 7 7 7 7 7 7 7 7 
</DataArray>
</Cells>
<CellData Scalars="cell variable 4" Vectors="cell vector">
<DataArray type="Float64" NumberOfComponents="3" Name="cell vector" format="ascii">
0.9 2 0
0.9 2 0
0.9 2 0
0.9 2 0
0.9 2 0
0.9 2 0
0.9 2 0
0.9 2 0
0.9 2 0
0.9 2 0
0.9 2 0
0.9 2 0
0.9 2 0
0.9 2 0
0.9 2 0
0.9 2 0
0.9 2 0
0.9 2 0
0.9 2 0
0.9 2 0
0.9 2 0
0.9 2 0
0.9 2 0
0.9 2 0
0.9 2 0
0.9 2 0
0.9 2 0
0.9 2 0
0.9 2 0
0.9 2 0
0.9 2 0
0.9 2 0
0.9 2 0
0.9 2 0
0.9 2 0
0.9 2 0
0.9 2 0
0.9 2 0
0.9 2 0
0.9 2 0
0.9 2 0
0.9 2 0
0.9 2 0
0.9 2 0
0.9 2 0
0.9 2 0
0.9 2 0
0.9 2 0
0.9 2 0
0.9 2 0
0.9 2 0
0.9 2 0
0.9 2 0
0.9 2 0
0.9 2 0
0.9 2 0
0.9 0 0
0.9 0 0
0.9 0 0
0.9 0 0
0.9 0 0
0.9 0 0
0.9 0 0
0.9 0 0
0.9 0 0
0.9 0 0
0.9 0 0
0.9 0 0
0.9 0 0
0.9 0 0
0.9 0 0
0.9 0 0
0.9 0 0
0.9 0 0
0.9 0 0
0.9 0 0
0.9 0 0
0.9 0 0
0.9 0 0
0.9 0 0
0.9 0 0
0.9 0 0
0.9 0 0
0.9 0 0
0.9 0 0
0.9 0 0
0.9 0 0
0.9 0 0
0.9 0 0
0.9 0 0
0.9 0 0
0.9 0 0
0.9 0 0
0.9 0 0
0.9 2 0
0.9 2 0
0.9 2 0
0.9 2 0
0.9 2 0
0.9 2 0
0.9 2 0
0.9 2 0
0.9 2 0
0.9 2 0
0.9 0 0
0.9 0 0
0.9 0 0
0.9 0 0
0.9 0 0
0.9 0 0
0.9 0 0
0.9 0 0
0.9 0 0
0.9 0 0
0.9 0 0
0.9 0 0
0.9 0 0
0.9 0 0
0.9 0 0
0.9 0 0
0.9 0 0
0.9 0 0
0.9 0 0
0.9 0 0
0.9 0 0
0.9 0 0
0.9 0 0
0.9 0 0
0.9 0 0
0.9 0 0
0.9 0 0
0.9 0 0
0.9 0 0
0.9 0 0
0.9 0 0
0.9 0 0
0.9 0 0
0.9 0 0
0.9 0 0
0.9 0 0
0.9 0 0
0.9 0 0
0.9 0 0
0.9 0 0
0.9 0 0
0.9 0 0
0.9 2 0
0.9 2 0
0.9 2 0
0.9 2 0
0.9 2 0
0.9 2 0
0.9 2 0
0.9 0 0
0.9 0 0
0.9 0 0
0.9 0 0
0.9 0 0
0.9 0 0
0.9 0 0
0.9 0 0
0.9 0 0
0.9 0 0
0.9 0 0
0.9 0 0
0.9 0 0
0.9 0 0
0.9 0 0
0.9 0 0
0.9 0 0
0.9 0 0
0.9 0 0
0.9 0 0
0.9 0 0
0.9 0 0
0.9 0 0
0.9 0 0
0.9 0 0
0.9 0 0
0.9 0 0
0.9 0 0
0.9 0 0
0.9 0 0
0.9 0 0
0.9 0 0
0.9 0 0
0.9 0 0
0.9 0 0
0.9 0 0
0.9 0 0
0.9 0 0
0.9 0 0
0.9 0 0
0.9 0 0
0.9 0 0
0.9 0 0
0.9 0 0
0.9 2 0
0.9 2 0
0.9 2 0
0.9 2 0
0.9 2 0
0.9 0 0
0.9 0 0
0.9 0 0
0.9 0 0
0.9 0 0
0.9 0 0
0.9 0 0
0.9 0 0
0.9 0 0
0.9 0 0
0.9 0 0
0.9 0 0
0.9 0 0
0.9 0 0
0.9 0 0
0.9 0 0
0.9 0 0
0.9 0 0
0.9 0 0
0.9 0 0
0.9 0 0
0.9 0 0
0.9 0 0
0.9 0 0
0.9 0 0
0.9 0 0
0.9 0 0
0.9 0 0
0.9 0 0
0.9 0 0
0.9 0 0
0.9 0 0
0.9 0 0
0.9 0 0
0.9 0 0
0.9 0 0
0.9 0 0
0.9 0 0
0.9 0 0
0.9 0 0
0.9 0 0
0.9 0 0
0.9 0 0
0.9 0 0
0.9 0 0
0.9 0 0
0.9 2 0
0.9 2 0
0.9 2 0
0.9 2 0
0.9 0 0
0.9 0 0
0.9 0 0
0.9 0 0
0.9 0 0
0.9 0 0
0.9 0 0
0.9 0 0
0.9 0 0
0.9 0 0
0.9 0 0
0.9 0 0
0.9 0 0
0.9 0 0
0.9 0 0
0.9 0 0
0.9 0 0
0.9 0 0
0.9 0 0
0.9 0 0
0.9 0 0
0.9 0 0
0.9 0 0
0.9 0 0
0.9 0 0
0.9 0 0
0.9 0 0
0.9 0 0
0.9 0 0
0.9 0 0
0.9 0 0
0.9 0 0
0.9 0 0
0.9 0 0
0.9 0 0
0.9 0 0
0.9 0 0
0.9 0 0
0.9 0 0
0.9 0 0
0.9 0 0
0.9 0 0
0.9 0 0
0.9 0 0
0.9 0 0
0.9 0 0
0.9 2 0
0.9 2 0
0.9 2 0
0.9 0 0
0.9 0 0
0.9 0 0
0.9 0 0
0.9 0 0
0.9 0 0
0.9 0 0
0.9 0 0
0.9 0 0
0.9 0 0
0.9 0 0
0.9 0 0
0.9 0 0
0.9 0 0
0.9 0 0
0.9 0 0
0.9 0 0
0.9 0 0
0.9 0 0
0.9 0 0
0.9 0 0
0.9 0 0
0.9 0 0
0.9 0 0
0.9 0 0
0.9 0 0
0.9 0 0
0.9 0 0
0.9 0 0
0.9 0 0
0.9 0 0
0.9 0 0
0.9 0 0
0.9 0 0
0.9 0 0
0.9 0 0
0.9 0 0
0.9 0 0
0.9 0 0
0.9 0 0
0.9 0 0
0.9 0 0
0.9 0 0
0.9 0 0
0.9 0 0
0.9 0 0
0.9 0 0
0.9 0 0
0.9 2 0
0.9 2 0
0.9 0 0
0.9 0 0
0.9 0 0
0.9 0 0
0.9 0 0
0.9 0 0
0.9 0 0
0.9 0 0
0.9 0 0
0.9 0 0
0.9 0 0
0.9 0 0
0.9 0 0
0.9 0 0
0.9 0 0
0.9 0 0
0.9 0 0
0.9 0 0
0.9 0 0
0.9 0 0
0.9 0 0
0.9 0 0
0.9 0 0
0.9 0 0
0.9 0 0
0.9 0 0
0.9 0 0
0.9 0 0
0.9 0 0
0.9 0 0
0.9 0 0
0.9 0 0
0.9 0 0
0.9 0 0
0.9 0 0
0.9 0 0
0.9 0 0
0.9 0 0
0.9 0 0
0.9 0 0
0.9 0 0
0.9 0 0
0.9 0 0
0.9 0 0
0.9 0 0
0.9 0 0
0.9 0 0
0.9 0 0
0.9 2 0
0.9 2 0
0.9 0 0
0.9 0 0
0.9 0 0
0.9 0 0
0.9 0 0
0.9 0 0
0.9 0 0
0.9 0 0
0.9 0 0
0.9 0 0
0.9 0 0
0.9 0 0
0.9 0 0
0.9 0 0
0.9 0 0
0.9 0 0
0.9 0 0
0.9 0 0
0.9 0 0
0.9 0 0
0.9 0 0
0.9 0 0
0.9 0 0
0.9 0 0
0.9 0 0
0.9 0 0
0.9 0 0
0.9 0 0
0.9 0 0
0.9 0 0
0.9 0 0
0.9 0 0
0.9 0 0
0.9 0 0
0.9 0 0
0.9 0 0
0.9 0 0
0.9 0 0
0.9 0 0
0.9 0 0
0.9 0 0
0.9 0 0
0.9 0 0
0.9 0 0
0.9 0 0
0.9 0 0
0.9 0 0
0.9 0 0
0.9 2 0
0.9 2 0
0.9 0 0
0.9 0 0
0.9 0 0
0.9 0 0
0.9 0 0
0.9 0 0
0.9 0 0
0.9 1 -1.55705
0.9 0 0
0.9 0 0
0.9 0 0
0.9 0 0
0.9 0 0
0.9 0 0
0.9 0 0
0.9 1 -0.557047
0.9 0 0
0.9 0 0
0.9 0 0
0.9 0 0
0.9 0 0
0.9 0 0
0.9 0 0
0.9 1 0.942953
0.9 0 0
0.9 0 0
0.9 0 0
0.9 0 0
0.9 0 0
0.9 0 0
0.9 0 0
0.9 0 0
0.9 1 -0.557047
0.9 0 0
0.9 0 0
0.9 0 0
0.9 0 0
0.9 0 0
0.9 0 0
0.9 0 0
0.9 0 0
0.9 1 -1.55705
0.9 0 0
0.9 0 0
0.9 0 0
0.9 0 0
0.9 0 0
0.9 0 0
0.9 2 0
</DataArray>
<DataArray type="Float64" Name="cell vector length" format="ascii">
1.92012e-31 4.05218e-30 8.55745e-29 1.72726e-27 3.31809e-26 6.0378e-25 1.03656e-23 1.61092e-22 2.36998e-21 3.29086e-20 4.29747e-19 5.25637e-18 5.99393e-17 6.33808e-16 6.17592e-15 5.50459e-14 4.44795e-13 3.22312e-12 2.06611e-11 1.15127e-10 5.44785e-10 2.11935e-09 6.46173e-09 1.43107e-08 2.01622e-08 1.43107e-08 6.46173e-09 2.11935e-09 5.44785e-10 1.15127e-10 2.06611e-11 3.22312e-12 4.44795e-13 5.50459e-14 6.17592e-15 6.33808e-16 5.99393e-17 5.25637e-18 4.29747e-19 3.29086e-20 2.36998e-21 1.61092e-22 1.03678e-23 6.33488e-25 3.52274e-26 1.85162e-27 9.23834e-29 4.39534e-30 2.00212e-31 9.12656e-33 1.57706e-30 3.40182e-29 7.36164e-28 1.52807e-26 3.02808e-25 5.68347e-24 1.06675e-22 1.66057e-21 2.44717e-20 3.40441e-19 4.45492e-18 5.46143e-17 6.24365e-16 6.62101e-15 6.4724e-14 5.78993e-13 4.69804e-12 3.42068e-11 2.20494e-10 1.2366e-09 5.89608e-09 2.31416e-08 7.12842e-08 1.59643e-07 2.26955e-07 1.59643e-07 7.12842e-08 2.31416e-08 5.89608e-09 1.2366e-09 2.20494e-10 3.42068e-11 4.69804e-12 5.78993e-13 6.4724e-14 6.62101e-15 6.24365e-16 5.46143e-17 4.45492e-18 3.40441e-19 2.44717e-20 1.66057e-21 1.06707e-22 6.51012e-24 3.31594e-25 1.68781e-26 8.16239e-28 3.7768e-29 1.67921e-30 7.49076e-32 1.25177e-29 2.7523e-28 6.09196e-27 1.30154e-25 2.68393e-24 4.6326e-23 7.61139e-22 1.18701e-20 1.75339e-19 2.44554e-18 3.20933e-17 3.94695e-16 4.52835e-15 4.8213e-14 4.73452e-13 4.25726e-12 3.475e-11 2.54764e-10 1.65543e-09 9.37238e-09 4.51906e-08 1.79743e-07 5.62393e-07 1.28159e-06 1.8488e-06 1.28159e-06 5.62393e-07 1.79743e-07 4.51906e-08 9.37238e-09 1.65543e-09 2.54764e-10 3.475e-11 4.25726e-12 4.73452e-13 4.8213e-14 4.52835e-15 3.94695e-16 3.20933e-17 2.44554e-18 1.75339e-19 1.18701e-20 7.61141e-22 4.63587e-23 2.68698e-24 1.48589e-25 6.91856e-27 3.11365e-28 1.35452e-29 5.93165e-31 8.60637e-29 1.91904e-27 4.3052e-26 9.29731e-25 1.6842e-23 2.90949e-22 4.78708e-21 7.48286e-20 1.10816e-18 1.55e-17 2.04053e-16 2.51841e-15 2.90089e-14 3.10252e-13 3.06239e-12 2.77004e-11 2.27664e-10 1.68256e-09 1.10375e-08 6.32037e-08 3.08948e-07 1.24938e-06 3.98813e-06 9.30013e-06 1.36953e-05 9.30013e-06 3.98813e-06 1.24938e-06 3.08948e-07 6.32037e-08 1.10375e-08 1.68256e-09 2.27664e-10 2.77004e-11 3.06239e-12 3.10252e-13 2.90089e-14 2.51841e-15 2.04053e-16 1.55e-17 1.10816e-18 7.48286e-20 4.78708e-21 2.9095e-22 1.68422e-23 9.30669e-25 4.91479e-26 2.18963e-27 9.40615e-29 4.06509e-30 5.07213e-28 1.15452e-26 2.66606e-25 5.05852e-24 9.17168e-23 1.58769e-21 2.61822e-20 4.10292e-19 6.09306e-18 8.54885e-17 1.12933e-15 1.39926e-14 1.61892e-13 1.74022e-12 1.72774e-11 1.5734e-10 1.30344e-09 9.72416e-09 6.45146e-08 3.7453e-07 1.8619e-06 7.68904e-06 2.51921e-05 6.06163e-05 9.19998e-05 6.06163e-05 2.51921e-05 7.68904e-06 1.8619e-06 3.7453e-07 6.45146e-08 9.72416e-09 1.30344e-09 1.5734e-10 1.72774e-11 1.74022e-12 1.61892e-13 1.39926e-14 1.12933e-15 8.54885e-17 6.09306e-18 4.10292e-19 2.61822e-20 1.58769e-21 9.17168e-23 5.05856e-24 2.66924e-25 1.34855e-26 5.63689e-28 2.38867e-29 2.40969e-27 5.4302e-26 1.23177e-24 2.33924e-23 4.24981e-22 7.373e-21 1.21882e-19 1.91512e-18 2.8526e-17 4.01579e-16 5.32511e-15 6.62628e-14 7.70418e-13 8.32834e-12 8.32312e-11 7.63839e-10 6.38618e-09 4.81729e-08 3.23944e-07 1.91234e-06 9.70942e-06 4.11928e-05 0.000139741 0.000351372 0.000558746 0.000351372 0.000139741 4.11928e-05 9.70942e-06 1.91234e-06 3.23944e-07 4.81729e-08 6.38618e-09 7.63839e-10 8.32312e-11 8.32834e-12 7.70418e-13 6.62628e-14 5.32511e-15 4.01579e-16 2.8526e-17 1.91512e-18 1.21882e-19 7.373e-21 4.24981e-22 2.33925e-23 1.23209e-24 6.21971e-26 2.64389e-27 1.13126e-28 1.02246e-26 2.36632e-25 4.7018e-24 8.94394e-23 1.62829e-21 2.83147e-20 4.69266e-19 7.39458e-18 1.10496e-16 1.56113e-15 2.0786e-14 2.59861e-13 3.03764e-12 3.30437e-11 3.32674e-10 3.07996e-09 2.60246e-08 1.98875e-07 1.35915e-06 8.18999e-06 4.27051e-05 0.000187688 0.00066776 0.00179039 0.00307328 0.00179039 0.00066776 0.000187688 4.27051e-05 8.18999e-06 1.35915e-06 1.98875e-07 2.60246e-08 3.07996e-09 3.32674e-10 3.30437e-11 3.03764e-12 2.59861e-13 2.0786e-14 1.56113e-15 1.10496e-16 7.39458e-18 4.69266e-19 2.83147e-20 1.62829e-21 8.94394e-23 4.70182e-24 2.36994e-25 1.14565e-26 4.78069e-28 3.09798e-26 7.17518e-25 1.42635e-23 2.71846e-22 4.9596e-21 8.64461e-20 1.43644e-18 2.27015e-17 3.40346e-16 4.8266e-15 6.45406e-14 8.10864e-13 9.53328e-12 1.04409e-10 1.05968e-09 9.90702e-09 8.47208e-08 6.57207e-07 4.57842e-06 2.82895e-05 0.00015257 0.000702603 0.00267221 0.00789834 0.0155035 0.00789834 0.00267221 0.000702603 0.00015257 2.82895e-05 4.57842e-06 6.57207e-07 8.47208e-08 9.90702e-09 1.05968e-09 1.04409e-10 9.53328e-12 8.10864e-13 6.45406e-14 4.8266e-15 3.40346e-16 2.27015e-17 1.43644e-18 8.64461e-20 4.9596e-21 2.71846e-22 1.42635e-23 7.17693e-25 3.46806e-26 1.44622e-27 7.04641e-26 1.63415e-24 3.25371e-23 6.21227e-22 1.13562e-20 1.98375e-19 3.30445e-18 5.23688e-17 7.87603e-16 1.12097e-14 1.5052e-13 1.90028e-12 2.24696e-11 2.47774e-10 2.5356e-09 2.3948e-08 2.07427e-07 1.63571e-06 1.16445e-05 7.41005e-05 0.000416585 0.00203932 0.00852423 0.0293881 0.074186 0.0293881 0.00852423 0.00203932 0.000416585 7.41005e-05 1.16445e-05 1.63571e-06 2.07427e-07 2.3948e-08 2.5356e-09 2.47774e-10 2.24696e-11 1.90028e-12 1.5052e-13 1.12097e-14 7.87603e-16 5.23688e-17 3.30445e-18 1.98375e-19 1.13562e-20 6.21227e-22 3.25371e-23 1.63452e-24 7.88688e-26 3.28496e-27 1.11435e-25 2.58675e-24 5.15637e-23 9.85759e-22 1.80456e-20 3.15732e-19 5.26882e-18 8.36707e-17 1.26132e-15 1.80005e-14 2.42466e-13 3.07246e-12 3.64915e-11 4.04569e-10 4.16783e-09 3.96956e-08 3.47577e-07 2.78077e-06 2.01945e-05 0.000132249 0.000776586 0.00407957 0.0193015 0.084378 0.303422 0.084378 0.0193015 0.00407957 0.000776586 0.000132249 2.01945e-05 2.78077e-06 3.47577e-07 3.96956e-08 4.16783e-09 4.04569e-10 3.64915e-11 3.07246e-12 2.42466e-13 1.80005e-14 1.26132e-15 8.36707e-17 5.26882e-18 3.15732e-19 1.80456e-20 9.85759e-22 5.15637e-23 2.58734e-24 1.24714e-25 5.18996e-27 
</DataArray>
<DataArray type="Float64" Name="cell variable 4" format="ascii">
0.0642137 0.0642137 0.0642137 0.0642137 0.0642137 0.0642137 0.0642137 0.0642137 0.0642137 0.0642137 0.0642137 0.0642137 0.0642137 0.0642137 0.0642137 0.0642137 0.0642137 0.0642137 0.0642137 0.0642137 0.0642137 0.0642137 0.0642137 0.0642137 0.0642137 0.0642137 0.0642137 0.0642137 0.0642137 0.0642137 0.0642137 0.0642137 0.0642137 0.0642137 0.0642137 0.0642137 0.0642137 0.0642137 0.0642137 0.0642137 0.0642137 0.0642137 0.0642137 0.0642137 0.0642137 0.0642137 0.0642137 0.0642137 0.0642137 0.0642137 0.0642137 0.0642137 0.0642137 0.0642137 0.0642137 0.0642137 0.0642137 0.0642137 0.0642137 0.0642137 0.0642137 0.0642137 0.0642137 0.0642137 0.0642137 0.0642137 0.0642137 0.0642137 0.0642137 0.0642137 0.0642137 0.0642137 0.0642137 0.0642137 0.0642137 0.0642137 0.0642137 0.0642137 0.0642137 0.0642137 0.0642137 0.0642137 0.0642137 0.0642137 0.0642137 0.0642137 0.0642137 0.0642137 0.0642137 0.0642137 0.0642137 0.0642137 0.0642137 0.0642137 0.0642137 0.0642137 0.0642137 0.0642137 0.0642137 0.0642137 0.0642137 0.0642137 0.0642137 0.0642137 0.0642137 0.0642137 0.0642137 0.0642137 0.0642137 0.0642137 0.0642137 0.0642137 0.0642137 0.0642137 0.0642137 0.0642137 0.0642137 0.0642137 0.0642137 0.0642137 0.0642137 0.0642137 0.0642137 0.0642137 0.0642137 0.0642137 0.0642137 0.0642137 0.0642137 0.0642137 0.0642137 0.0642137 0.0642137 0.0642137 0.0642137 0.0642137 0.0642137 0.0642137 0.0642137 0.0642137 0.0642137 0.0642137 0.0642137 0.0642137 0.0642137 0.0642137 0.0642137 0.0642137 0.0642137 0.0642137 0.0642137 0.0642137 0.0642137 0.0642137 0.0642137 0.0642137 0.0642137 0.0642137 0.0642137 0.0642137 0.0642137 0.0642137 0.0642137 0.0642137 0.0642137 0.0642137 0.0642137 0.0642137 0.0642137 0.0642137 0.0642137 0.0642137 0.0642136 0.0642136 0.0642136 0.0642136 0.0642136 0.0642137 0.0642137 0.0642137 0.0642137 0.0642137 0.0642137 0.0642137 0.0642137 0.0642137 0.0642137 0.0642137 0.0642137 0.0642137 0.0642137 0.0642137 0.0642137 0.0642137 0.0642137 0.0642137 0.0642137 0.0642137 0.0642137 0.0642137 0.0642137 0.0642137 0.0642137 0.0642137 0.0642137 0.0642137 0.0642137 0.0642137 0.0642137 0.0642137 0.0642137 0.0642137 0.0642137 0.0642137 0.0642137 0.0642137 0.0642137 0.0642137 0.0642137 0.0642137 0.0642137 0.0642135 0.0642134 0.0642137 0.0642148 0.0642137 0.0642134 0.0642135 0.0642137 0.0642137 0.0642137 0.0642137 0.0642137 0.0642137 0.0642137 0.0642137 0.0642137 0.0642137 0.0642137 0.0642137 0.0642137 0.0642137 0.0642137 0.0642137 0.0642137 0.0642137 0.0642137 0.0642137 0.0642137 0.0642137 0.0642137 0.0642137 0.0642137 0.0642137 0.0642137 0.0642137 0.0642137 0.0642137 0.0642137 0.0642137 0.0642137 0.0642137 0.0642137 0.0642137 0.0642137 0.0642137 0.0642137 0.0642137 0.0642137 0.0642137 0.0642135 0.0642132 0.064214 0.0642207 0.0642338 0.0642207 0.064214 0.0642132 0.0642135 0.0642137 0.0642137 0.0642137 0.0642137 0.0642137 0.0642137 0.0642137 0.0642137 0.0642137 0.0642137 0.0642137 0.0642137 0.0642137 0.0642137 0.0642137 0.0642137 0.0642137 0.0642137 0.0642137 0.0642137 0.0642137 0.0642137 0.0642137 0.0642137 0.0642137 0.0642137 0.0642137 0.0642137 0.0642137 0.0642137 0.0642137 0.0642137 0.0642137 0.0642137 0.0642137 0.0642137 0.0642137 0.0642137 0.0642137 0.0642137 0.0642135 0.0642131 0.0642142 0.0642286 0.0642945 0.0644188 0.0642945 0.0642286 0.0642142 0.0642131 0.0642135 0.0642137 0.0642137 0.0642137 0.0642137 0.0642137 0.0642137 0.0642137 0.0642137 0.0642137 0.0642137 0.0642137 0.0642137 0.0642137 0.0642137 0.0642137 0.0642137 0.0642137 0.0642137 0.0642137 0.0642137 0.0642137 0.0642137 0.0642137 0.0642137 0.0642137 0.0642137 0.0642137 0.0642137 0.0642137 0.0642137 0.0642137 0.0642137 0.0642137 0.0642137 0.0642137 0.0642137 0.0642137 0.0642137 0.0642136 0.0642133 0.0642139 0.0642289 0.0643383 0.0648095 0.0658364 0.0648095 0.0643383 0.0642289 0.0642139 0.0642133 0.0642136 0.0642137 0.0642137 0.0642137 0.0642137 0.0642137 0.0642137 0.0642137 0.0642137 0.0642137 0.0642137 0.0642137 0.0642137 0.0642137 0.0642137 0.0642137 0.0642137 0.0642137 0.0642137 0.0642137 0.0642137 0.0642137 0.0642137 0.0642137 0.0642137 0.0642137 0.0642137 0.0642137 0.0642137 0.0642137 0.0642137 0.0642137 0.0642137 0.0642137 0.0642137 0.0642137 0.0642137 0.0642137 0.0642135 0.0642136 0.0642212 0.064302 0.0648457 0.0673976 0.0761008 0.0673976 0.0648457 0.064302 0.0642212 0.0642136 0.0642135 0.0642137 0.0642137 0.0642137 0.0642137 0.0642137 0.0642137 0.0642137 0.0642137 0.0642137 0.0642137 0.0642137 0.0642137 0.0642137 0.0642137 0.0642137 0.0642137 0.0642137 0.0642137 0.0642137 0.0642137 0.0642137 0.0642137 0.0642137 0.0642137 0.0642137 0.0642137 0.0642137 0.0642137 0.0642137 0.0642137 0.0642137 0.0642137 0.0642137 0.0642137 0.0642137 0.0642137 0.0642137 0.064214 0.0642185 0.0642635 0.064618 0.0669392 0.0807534 0.199514 0.0807534 0.0669392 0.064618 0.0642635 0.0642185 0.064214 0.0642137 0.0642137 0.0642137 0.0642137 0.0642137 0.0642137 0.0642137 0.0642137 0.0642137 0.0642137 0.0642137 0.0642137 0.0642137 0.0642137 0.0642137 0.0642137 0.0642137 0.0642137 0.0642137 
</DataArray>
</CellData>
</Piece>
</UnstructuredGrid>
</VTKFile>
