<VTKFile type="UnstructuredGrid" version="0.1">
<UnstructuredGrid>
<Piece  NumberOfPoints="     785" NumberOfCells="     598">
<Points>
<DataArray type="Float64" NumberOfComponents="3" format="ascii">
-0.349685 -6.08847 0 
-0.33116 -6.07657 0 
-0.307575 -6.06314 0 
-0.27917 -6.04914 0 
-0.246456 -6.03546 0 
-0.210079 -6.02285 0 
-0.170727 -6.0119 0 
-0.129071 -6.00302 0 
-0.0857383 -5.9965 0 
-0.0413164 -5.99252 0 
0.00364151 -5.99119 0 
0.0485994 -5.99252 0 
0.0930214 -5.9965 0 
0.136354 -6.00302 0 
0.178011 -6.0119 0 
0.217362 -6.02285 0 
0.253739 -6.03546 0 
0.286453 -6.04914 0 
0.314858 -6.06314 0 
0.338443 -6.07657 0 
0.356968 -6.08847 0 
-2.81203 -6.01708 0 
-2.76764 -5.64772 0 
-2.66493 -5.24287 0 
-2.49825 -4.84307 0 
-2.26962 -4.46923 0 
-1.9844 -4.1342 0 
-1.64969 -3.84743 0 
-1.27381 -3.61642 0 
-0.866104 -3.44709 0 
-0.436721 -3.34374 0 
0.00364151 -3.309 0 
0.444004 -3.34374 0 
0.873387 -3.44709 0 
1.28109 -3.61642 0 
1.65698 -3.84743 0 
1.99169 -4.1342 0 
2.2769 -4.46923 0 
2.50553 -4.84307 0 
2.67221 -5.24287 0 
2.77492 -5.64772 0 
2.81931 -6.01708 0 
-5.62321 -5.99885 0 
-5.54181 -5.21387 0 
-5.33556 -4.377 0 
-4.99885 -3.56682 0 
-4.53872 -2.81627 0 
-3.9666 -2.14641 0 
-3.29666 -1.57421 0 
-2.54545 -1.11384 0 
-1.73145 -0.776665 0 
-0.874718 -0.570977 0 
0.00364151 -0.501847 0 
0.882001 -0.570977 0 
1.73873 -0.776665 0 
2.55273 -1.11384 0 
3.30395 -1.57421 0 
3.97388 -2.14641 0 
4.546 -2.81627 0 
5.00613 -3.56682 0 
5.34285 -4.377 0 
5.5491 -5.21387 0 
5.6305 -5.99885 0 
-8.44091 -5.9908 0 
-8.32463 -4.77816 0 
-8.0155 -3.50818 0 
-7.50943 -2.28805 0 
-6.81816 -1.16015 0 
-5.95885 -0.154033 0 
-4.9527 0.705295 0 
-3.82451 1.39665 0 
-2.60206 1.90301 0 
-1.31545 2.21189 0 
0.00364151 2.31571 0 
1.32273 2.21189 0 
2.60935 1.90301 0 
3.8318 1.39665 0 
4.95998 0.705295 0 
5.96613 -0.154033 0 
6.82544 -1.16015 0 
7.51671 -2.28805 0 
8.02278 -3.50818 0 
8.33191 -4.77816 0 
8.44819 -5.9908 0 
-11.2585 -5.98612 0 
-11.1075 -4.34079 0 
-10.6954 -2.63841 0 
-10.02 -1.00902 0 
-9.0977 0.496005 0 
-7.95123 1.83834 0 
-6.60887 2.98482 0 
-5.1037 3.90719 0 
-3.47276 4.58275 0 
-1.75623 4.99485 0 
0.00364152 5.13336 0 
1.76351 4.99485 0 
3.48005 4.58275 0 
5.11098 3.90719 0 
6.61616 2.98482 0 
7.95851 1.83834 0 
9.10498 0.496005 0 
10.0273 -1.00902 0 
10.7026 -2.63841 0 
11.1148 -4.34079 0 
11.2657 -5.98612 0 
-14.0665 -5.98322 0 
-13.8812 -3.90389 0 
-13.3663 -1.77109 0 
-12.5223 0.265874 0 
-11.3697 2.1467 0 
-9.93703 3.82415 0 
-8.25958 5.25683 0 
-6.37866 6.40946 0 
-4.34059 7.25365 0 
-2.19555 7.76863 0 
0.00364599 7.94171 0 
2.20284 7.76863 0 
4.34788 7.25365 0 
6.38595 6.40945 0 
8.26687 5.25682 0 
9.94432 3.82415 0 
11.377 2.1467 0 
12.5296 0.265871 0 
13.3736 -1.7711 0 
13.8885 -3.90389 0 
14.0738 -5.98322 0 
-16.7593 -5.98284 0 
-16.5411 -3.48445 0 
-15.9276 -0.939217 0 
-14.9218 1.48845 0 
-13.5484 3.72962 0 
-11.8413 5.72838 0 
-9.84248 7.4355 0 
-7.60126 8.80892 0 
-5.17277 9.81483 0 
-2.61683 10.4285 0 
0.00363746 10.6347 0 
2.62411 10.4285 0 
5.18005 9.81484 0 
7.60853 8.80893 0 
9.84976 7.4355 0 
11.8485 5.72838 0 
13.5557 3.7296 0 
14.9291 1.48843 0 
15.9349 -0.939222 0 
16.5484 -3.48445 0 
16.7666 -5.98284 0 
-12.4953 2.96609 0 
-10.9254 4.81076 0 
-10.8253 4.7142 0 
-9.08144 6.38586 0 
-8.99765 6.27486 0 
-7.01378 7.65316 0 
-6.94839 7.53042 0 
-4.77333 8.5814 0 
-4.72795 8.44994 0 
-2.41526 9.14772 0 
-2.391 9.01079 0 
0.00237771 9.33819 0 
0.00491712 9.19915 0 
2.42004 9.14812 0 
2.4008 9.01039 0 
4.77821 8.58218 0 
4.73766 8.44915 0 
7.01881 7.65431 0 
6.95795 7.52926 0 
9.08668 6.38735 0 
9.007 6.27336 0 
10.9309 4.81251 0 
10.8344 4.71239 0 
12.506 2.96856 0 
-13.7623 0.899077 0 
-12.6029 3.04114 0 
12.395 2.88477 0 
13.7733 0.900958 0 
-14.69 -1.34001 0 
-13.8803 0.956356 0 
13.6506 0.835581 0 
14.7013 -1.3387 0 
-15.254 -3.6875 0 
-14.8154 -1.30178 0 
14.5698 -1.38393 0 
15.2662 -3.68674 0 
-15.4444 -5.98727 0 
-15.3835 -3.66798 0 
15.3952 -3.66728 0 
15.4553 -5.98727 0 
-0.509144 -6.07148 0.0
-0.492472 -6.06076 0.0
-2.6853 -5.6748 0.0
-2.72526 -6.00722 0.0
-0.465075 -6.02305 0.0
-2.58669 -5.28481 0.0
-2.67913 -5.64917 0.0
-0.486302 -6.03513 0.0
-0.429072 -5.98406 0.0
-2.42624 -4.8986 0.0
-2.57626 -5.25842 0.0
-0.454637 -5.99666 0.0
-0.385043 -5.94661 0.0
-2.20589 -4.537 0.0
-2.41165 -4.87346 0.0
-0.414486 -5.95892 0.0
-0.333944 -5.91241 0.0
-1.93084 -4.21262 0.0
-2.18753 -4.51415 0.0
-0.366683 -5.92376 0.0
-0.276861 -5.88263 0.0
-1.60793 -3.93461 0.0
-1.90917 -4.1927 0.0
-0.312277 -5.89249 0.0
-0.214913 -5.85814 0.0
-1.24518 -3.71019 0.0
-1.58347 -3.9181 0.0
-0.252404 -5.86613 0.0
-0.149229 -5.83955 0.0
-0.851558 -3.54508 0.0
-1.21849 -3.69748 0.0
-0.188228 -5.84542 0.0
-0.0809379 -5.82733 0.0
-0.436802 -3.44343 0.0
-0.823247 -3.53644 0.0
-0.120918 -5.83091 0.0
-0.011175 -5.82176 0.0
-0.011175 -3.40779 0.0
-0.407501 -3.43906 0.0
-0.0516372 -5.82296 0.0
0.0589202 -5.82296 0.0
0.414784 -3.43906 0.0
0.0184581 -3.40779 0.0
0.0184581 -5.82176 0.0
0.128201 -5.83091 0.0
0.83053 -3.53644 0.0
0.444085 -3.44343 0.0
0.0882209 -5.82733 0.0
0.195511 -5.84542 0.0
1.22578 -3.69748 0.0
0.858841 -3.54508 0.0
0.156512 -5.83955 0.0
0.259687 -5.86613 0.0
1.59076 -3.9181 0.0
1.25246 -3.71019 0.0
0.222196 -5.85814 0.0
0.31956 -5.89249 0.0
1.91645 -4.1927 0.0
1.61521 -3.93461 0.0
0.284144 -5.88263 0.0
0.373966 -5.92376 0.0
2.19481 -4.51415 0.0
1.93812 -4.21262 0.0
0.341227 -5.91241 0.0
0.421769 -5.95892 0.0
2.41894 -4.87346 0.0
2.21317 -4.537 0.0
0.392326 -5.94661 0.0
0.46192 -5.99666 0.0
2.58354 -5.25842 0.0
2.43352 -4.8986 0.0
0.436355 -5.98406 0.0
0.493585 -6.03513 0.0
2.68642 -5.64917 0.0
2.59398 -5.28481 0.0
0.472358 -6.02305 0.0
0.516427 -6.07148 0.0
2.73254 -6.00722 0.0
2.69259 -5.6748 0.0
0.499755 -6.06076 0.0
-2.96618 -5.98594 0.0
-2.92622 -5.65351 0.0
-5.42298 -5.26306 0.0
-5.49624 -5.96954 0.0
-2.91438 -5.59121 0.0
-2.82194 -5.22685 0.0
-5.22551 -4.44757 0.0
-5.41113 -5.20076 0.0
-2.80048 -5.16328 0.0
-2.65047 -4.80345 0.0
-4.90101 -3.65483 0.0
-5.20405 -4.38399 0.0
-2.61939 -4.74296 0.0
-2.41362 -4.40651 0.0
-4.45581 -2.91884 0.0
-4.86993 -3.59434 0.0
-2.37347 -4.35133 0.0
-2.11677 -4.04981 0.0
-3.90075 -2.2608 0.0
-4.41566 -2.86367 0.0
-2.06847 -4.00151 0.0
-1.76723 -3.74341 0.0
-3.24951 -1.69752 0.0
-3.85245 -2.2125 0.0
-1.71196 -3.70324 0.0
-1.37366 -3.49534 0.0
-2.51813 -1.24302 0.0
-3.19423 -1.65735 0.0
-1.31277 -3.4643 0.0
-0.945834 -3.3119 0.0
-1.72464 -0.908521 0.0
-2.45724 -1.21198 0.0
-0.880827 -3.29077 0.0
-0.494382 -3.19776 0.0
-0.88858 -0.702272 0.0
-1.65964 -0.887391 0.0
-0.426865 -3.18706 0.0
-0.030539 -3.15579 0.0
-0.030539 -0.629357 0.0
-0.821063 -0.691575 0.0
0.0378221 -3.15579 0.0
0.434148 -3.18706 0.0
0.828346 -0.691575 0.0
0.0378221 -0.629357 0.0
0.501665 -3.19776 0.0
0.88811 -3.29077 0.0
1.66692 -0.887391 0.0
0.895863 -0.702272 0.0
0.953117 -3.3119 0.0
1.32005 -3.4643 0.0
2.46452 -1.21198 0.0
1.73193 -0.908521 0.0
1.38094 -3.49534 0.0
1.71924 -3.70324 0.0
3.20151 -1.65735 0.0
2.52542 -1.24302 0.0
1.77451 -3.74341 0.0
2.07576 -4.00151 0.0
3.85973 -2.2125 0.0
3.25679 -1.69752 0.0
2.12406 -4.04981 0.0
2.38075 -4.35133 0.0
4.42294 -2.86367 0.0
3.90803 -2.2608 0.0
2.4209 -4.40651 0.0
2.62667 -4.74296 0.0
4.87721 -3.59434 0.0
4.46309 -2.91884 0.0
2.65775 -4.80345 0.0
2.80777 -5.16328 0.0
5.21134 -4.38399 0.0
4.90829 -3.65483 0.0
2.82922 -5.22685 0.0
2.92166 -5.59121 0.0
5.41842 -5.20076 0.0
5.23279 -4.44757 0.0
2.93351 -5.65351 0.0
2.97346 -5.98594 0.0
5.50352 -5.96954 0.0
5.43026 -5.26306 0.0
-5.69587 -5.24122 0.0
-8.2004 -4.84908 0.0
-8.30506 -5.94045 0.0
-5.76913 -5.9477 0.0
-5.49179 -4.38399 0.0
-7.90373 -3.60205 0.0
-8.18194 -4.74504 0.0
-5.67741 -5.13718 0.0
-5.15417 -3.55003 0.0
-7.4137 -2.39913 0.0
-7.86916 -3.49725 0.0
-5.45722 -4.27919 0.0
-4.68949 -2.77551 0.0
-6.74099 -1.285 0.0
-7.36313 -2.30011 0.0
-5.10361 -3.45101 0.0
-4.10914 -2.08259 0.0
-5.90216 -0.289451 0.0
-6.67554 -1.19495 0.0
-4.62405 -2.68547 0.0
-3.42747 -1.48888 0.0
-4.9179 0.562672 0.0
-5.82343 -0.210723 0.0
-4.03041 -2.00386 0.0
-2.66129 -1.00911 0.0
-3.81245 1.25034 0.0
-4.82782 0.628119 0.0
-3.33739 -1.42344 0.0
-1.82948 -0.655095 0.0
-2.61304 1.75661 0.0
-3.71324 1.30089 0.0
-2.56208 -0.958557 0.0
-0.95253 -0.435568 0.0
-1.34919 2.06902 0.0
-2.50714 1.79102 0.0
-1.72359 -0.620687 0.0
-0.0520314 -0.355932 0.0
-0.0520314 2.17987 0.0
-1.23921 2.08643 0.0
-0.842555 -0.418149 0.0
0.849838 -0.418149 0.0
1.2465 2.08643 0.0
0.0593144 2.17987 0.0
0.0593144 -0.355932 0.0
1.73087 -0.620687 0.0
2.51442 1.79102 0.0
1.35647 2.06902 0.0
0.959813 -0.435568 0.0
2.56936 -0.958557 0.0
3.72052 1.30089 0.0
2.62032 1.75661 0.0
1.83677 -0.655095 0.0
3.34467 -1.42344 0.0
4.8351 0.628119 0.0
3.81973 1.25034 0.0
2.66857 -1.00911 0.0
4.03769 -2.00386 0.0
5.83071 -0.210723 0.0
4.92518 0.562672 0.0
3.43475 -1.48888 0.0
4.63133 -2.68547 0.0
6.68283 -1.19495 0.0
5.90944 -0.289451 0.0
4.11642 -2.08259 0.0
5.11089 -3.45101 0.0
7.37042 -2.30011 0.0
6.74827 -1.285 0.0
4.69677 -2.77551 0.0
5.4645 -4.27919 0.0
7.87644 -3.49725 0.0
7.42098 -2.39913 0.0
5.16146 -3.55003 0.0
5.68469 -5.13718 0.0
8.18923 -4.74504 0.0
7.91101 -3.60205 0.0
5.49907 -4.38399 0.0
5.70315 -5.24122 0.0
5.77641 -5.9477 0.0
8.31234 -5.94045 0.0
8.20769 -4.84908 0.0
-8.47751 -4.82716 0.0
-10.9821 -4.43353 0.0
-11.118 -5.91432 0.0
-8.58216 -5.91854 0.0
-8.17414 -3.53741 0.0
-10.586 -2.75461 0.0
-10.957 -4.28676 0.0
-8.45235 -4.68039 0.0
-7.67071 -2.29276 0.0
-9.93024 -1.14164 0.0
-10.538 -2.60808 0.0
-8.12617 -3.39088 0.0
-6.97819 -1.13966 0.0
-9.02978 0.350877 0.0
-9.85987 -1.00364 0.0
-7.60034 -2.15477 0.0
-6.11371 -0.108773 0.0
-7.90685 1.68437 0.0
-8.93867 0.476261 0.0
-6.88709 -1.01428 0.0
-5.09858 0.774222 0.0
-6.58913 2.8258 0.0
-7.79725 1.79397 0.0
-6.00411 0.00082712 0.0
-3.95781 1.48755 0.0
-5.10907 3.74704 0.0
-6.46373 2.9169 0.0
-4.97318 0.865329 0.0
-2.7195 2.01364 0.0
-3.50313 4.42541 0.0
-4.97097 3.81741 0.0
-3.8197 1.55792 0.0
-1.41413 2.33953 0.0
-1.81083 4.8442 0.0
-3.35571 4.4733 0.0
-2.57208 2.06153 0.0
-0.0738584 2.45721 0.0
-0.0738583 4.9931 0.0
-1.65774 4.86845 0.0
-1.26104 2.36378 0.0
1.26832 2.36378 0.0
1.66502 4.86845 0.0
0.0811414 4.9931 0.0
0.0811414 2.45721 0.0
2.57937 2.06153 0.0
3.363 4.4733 0.0
1.81811 4.8442 0.0
1.42142 2.33953 0.0
3.82699 1.55792 0.0
4.97825 3.81741 0.0
3.51041 4.42541 0.0
2.72678 2.01364 0.0
4.98046 0.865329 0.0
6.47102 2.9169 0.0
5.11636 3.74704 0.0
3.96509 1.48755 0.0
6.01139 0.00082712 0.0
7.80453 1.79397 0.0
6.59641 2.8258 0.0
5.10586 0.774222 0.0
6.89437 -1.01428 0.0
8.94596 0.476261 0.0
7.91413 1.68437 0.0
6.12099 -0.108773 0.0
7.60762 -2.15477 0.0
9.86716 -1.00364 0.0
9.03706 0.350877 0.0
6.98548 -1.13966 0.0
8.13345 -3.39088 0.0
10.5453 -2.60808 0.0
9.93752 -1.14164 0.0
7.67799 -2.29276 0.0
8.45964 -4.68039 0.0
10.9642 -4.28676 0.0
10.5933 -2.75461 0.0
8.18142 -3.53741 0.0
8.48479 -4.82716 0.0
8.58944 -5.91854 0.0
11.1252 -5.91432 0.0
10.9894 -4.43353 0.0
-11.26 -4.41161 0.0
-13.7564 -4.01839 0.0
-13.9231 -5.88979 0.0
-11.3959 -5.8924 0.0
-10.8572 -2.68969 0.0
-13.261 -1.90911 0.0
-13.7245 -3.82862 0.0
-11.2281 -4.22184 0.0
-10.1879 -1.03495 0.0
-12.44 0.112456 0.0
-13.1996 -1.72081 0.0
-10.7957 -2.5014 0.0
-9.26759 0.496599 0.0
-11.3124 1.98223 0.0
-12.3497 0.289482 0.0
-10.0977 -0.857922 0.0
-8.11893 1.8655 0.0
-9.90615 3.65273 0.0
-11.1956 2.14302 0.0
-9.15076 0.657397 0.0
-6.77027 3.03788 0.0
-8.2559 5.08269 0.0
-9.76561 3.79328 0.0
-7.97838 2.00605 0.0
-5.2548 3.98485 0.0
-6.40227 6.23688 0.0
-8.0951 5.19952 0.0
-6.60946 3.15471 0.0
-3.60986 4.68309 0.0
-4.3909 7.0869 0.0
-6.22517 6.32712 0.0
-5.0777 4.07508 0.0
-1.87594 5.1154 0.0
-2.27133 7.6118 0.0
-4.20187 7.14832 0.0
-3.42082 4.74451 0.0
-0.0957411 5.27115 0.0
-0.095737 7.79866 0.0
-2.07501 7.64289 0.0
-1.67962 5.14649 0.0
1.68691 5.14649 0.0
2.0823 7.64289 0.0
0.103029 7.79866 0.0
0.103025 5.27115 0.0
3.42811 4.74451 0.0
4.20916 7.14832 0.0
2.27862 7.6118 0.0
1.88323 5.1154 0.0
5.08499 4.07508 0.0
6.23246 6.32712 0.0
4.39819 7.08689 0.0
3.61714 4.68309 0.0
6.61675 3.15471 0.0
8.10239 5.19951 0.0
6.40956 6.23688 0.0
5.26209 3.98485 0.0
7.98567 2.00605 0.0
9.7729 3.79327 0.0
8.26319 5.08268 0.0
6.77755 3.03788 0.0
9.15804 0.657397 0.0
11.2028 2.14302 0.0
9.91344 3.65272 0.0
8.12622 1.8655 0.0
10.105 -0.857922 0.0
12.357 0.289479 0.0
11.3197 1.98223 0.0
9.27487 0.496599 0.0
10.803 -2.5014 0.0
13.2069 -1.72082 0.0
12.4473 0.112453 0.0
10.1952 -1.03495 0.0
11.2354 -4.22184 0.0
13.7317 -3.82863 0.0
13.2683 -1.90911 0.0
10.8645 -2.68969 0.0
11.2673 -4.41161 0.0
11.4032 -5.8924 0.0
13.9304 -5.88979 0.0
13.7636 -4.01839 0.0
-15.3705 -5.87523 0.0
-14.1304 -5.87159 0.0
-13.9637 -4.00019 0.0
-15.1992 -3.80544 0.0
-15.3157 -3.78787 0.0
-15.1623 -3.58336 0.0
-13.9268 -3.77811 0.0
-13.4634 -1.8586 0.0
-14.6547 -1.47062 0.0
-14.7676 -1.43622 0.0
-14.5829 -1.25116 0.0
-13.3917 -1.63914 0.0
-12.632 0.194133 0.0
-13.748 0.764015 0.0
-13.8542 0.815566 0.0
-13.6427 0.970104 0.0
-12.5267 0.400222 0.0
-11.4893 2.09297 0.0
-12.5024 2.83042 0.0
-12.5992 2.89796 0.0
-12.3647 3.01397 0.0
-11.3517 2.27652 0.0
-10.0623 3.78623 0.0
-10.8617 4.58727 0.0
-10.9518 4.67417 0.0
-10.6945 4.7494 0.0
-9.89507 3.94836 0.0
-8.38537 5.23776 0.0
-9.04964 6.154 0.0
-9.12504 6.2539 0.0
-8.86298 6.28917 0.0
-8.19871 5.37294 0.0
-6.50588 6.4103 0.0
-7.01864 7.41917 0.0
-7.07749 7.52964 0.0
-6.81314 7.52348 0.0
-6.30038 6.51462 0.0
-4.46611 7.27439 0.0
-4.81474 8.35105 0.0
-4.85558 8.46936 0.0
-4.59544 8.42193 0.0
-4.24682 7.34527 0.0
-2.31628 7.80875 0.0
-2.49219 8.92669 0.0
-2.51402 9.04994 0.0
-2.26451 8.96239 0.0
-2.0886 7.84445 0.0
-0.109326 8.00022 0.0
-0.108182 9.13192 0.0
-0.110468 9.25706 0.0
0.122282 9.13156 0.0
0.121138 7.99987 0.0
2.10041 7.8441 0.0
2.27858 8.96168 0.0
2.2959 9.08564 0.0
2.50615 8.92527 0.0
2.32798 7.80769 0.0
4.25852 7.34421 0.0
4.60932 8.42016 0.0
4.64582 8.53989 0.0
4.82839 8.34861 0.0
4.47759 7.27265 0.0
6.31186 6.51288 0.0
6.82665 7.5207 0.0
6.88143 7.63324 0.0
7.03184 7.41576 0.0
6.51704 6.40793 0.0
8.20987 5.37057 0.0
8.87598 6.28545 0.0
8.94769 6.38804 0.0
9.06222 6.1497 0.0
8.39611 5.23481 0.0
9.90581 3.94541 0.0
10.7068 4.74482 0.0
10.7937 4.83493 0.0
10.8696 4.58161 0.0
10.0685 3.78219 0.0
11.3579 2.27249 0.0
12.2742 2.93676 0.0
12.3741 3.01216 0.0
12.4093 2.7501 0.0
11.4931 2.08584 0.0
12.5304 0.39309 0.0
13.5393 0.905829 0.0
13.6498 0.964668 0.0
13.6436 0.70038 0.0
12.6347 0.187641 0.0
13.3944 -1.64563 0.0
14.4709 -1.29718 0.0
14.5893 -1.25647 0.0
14.5417 -1.51577 0.0
13.4652 -1.86422 0.0
13.9286 -3.78373 0.0
15.1685 -3.5883 0.0
15.3272 -3.78722 0.0
15.211 -3.80473 0.0
13.9711 -4.00016 0.0
14.1379 -5.87157 0.0
15.3812 -5.87521 0.0
-12.5637 3.16837 0.0
-12.4668 3.10082 0.0
-11.0539 4.76102 0.0
-11.8782 5.58688 0.0
-13.4146 3.788 0.0
-10.875 4.93548 0.0
-10.7848 4.84857 0.0
-9.21539 6.35307 0.0
-9.90033 7.29774 0.0
-11.6992 5.76133 0.0
-9.0121 6.50116 0.0
-8.9367 6.40126 0.0
-7.15121 7.64172 0.0
-7.67994 8.68191 0.0
-9.69704 7.44583 0.0
-6.92726 7.75619 0.0
-6.86841 7.64572 0.0
-4.91086 8.5916 0.0
-5.27036 9.70169 0.0
-7.45599 8.79637 0.0
-4.67176 8.66962 0.0
-4.63092 8.55131 0.0
-2.54949 9.17932 0.0
-2.73091 10.332 0.0
-5.03126 9.77971 0.0
-2.30114 9.21897 0.0
-2.2793 9.09573 0.0
-0.125264 9.3904 0.0
-0.12413 10.5572 0.0
-2.48255 10.3716 0.0
0.12624 9.39071 0.0
0.128526 9.26557 0.0
2.30214 9.21965 0.0
2.4858 10.372 0.0
0.127374 10.5576 0.0
2.5506 9.18062 0.0
2.53328 9.05666 0.0
4.67295 8.67127 0.0
5.0346 9.78066 0.0
2.73425 10.3329 0.0
4.91224 8.59385 0.0
4.87574 8.47413 0.0
6.92878 7.75877 0.0
7.45953 8.79792 0.0
5.2739 9.70324 0.0
7.15302 7.64487 0.0
7.09824 7.53233 0.0
9.01409 6.50461 0.0
9.70087 7.44794 0.0
7.68377 8.68403 0.0
9.21775 6.35703 0.0
9.14604 6.25445 0.0
10.8775 4.93968 0.0
11.7034 5.76396 0.0
9.90453 7.30037 0.0
11.0556 4.76206 0.0
10.9687 4.67195 0.0
12.4732 3.10251 0.0
13.4179 3.78745 0.0
11.8815 5.58635 0.0
-13.865 1.08802 0.0
-13.7588 1.03647 0.0
-12.7154 2.96433 0.0
-13.5663 3.58396 0.0
-14.8024 1.5669 0.0
12.6213 2.89922 0.0
12.5214 2.82382 0.0
13.7619 1.03838 0.0
14.8021 1.56711 0.0
13.566 3.58417 0.0
-14.8209 -1.16939 0.0
-14.708 -1.2038 0.0
-13.9793 0.862929 0.0
-14.9167 1.34181 0.0
-15.8219 -0.843086 0.0
13.8763 0.814478 0.0
13.7658 0.755638 0.0
14.7115 -1.20121 0.0
15.8217 -0.841684 0.0
14.9165 1.34321 0.0
-15.4098 -3.53864 0.0
-15.2933 -3.55621 0.0
-14.8986 -1.40906 0.0
-15.8996 -1.08276 0.0
-16.4517 -3.37347 0.0
14.7895 -1.4398 0.0
14.6712 -1.48051 0.0
15.2979 -3.55303 0.0
15.414 -3.53552 0.0
16.4519 -3.37098 0.0
15.8997 -1.08027 0.0
-16.6875 -5.86493 0.0
-15.5041 -5.86892 0.0
-15.4493 -3.78156 0.0
-16.4911 -3.61638 0.0
16.4986 -3.61639 0.0
15.4608 -3.78094 0.0
15.5148 -5.86892 0.0
16.695 -5.86494 0.0
</DataArray>
</Points>
<Cells>
<DataArray type="Int32" Name="connectivity" format="ascii">
0 1 188 187 1 22 189 188 22 21 190 189 21 0 187 190 2 23 192 191 23 22 193 192 22 1 194 193 1 2 191 194 3 24 196 195 24 23 197 196 23 2 198 197 2 3 195 198 4 25 200 199 25 24 201 200 24 3 202 201 3 4 199 202 5 26 204 203 26 25 205 204 25 4 206 205 4 5 203 206 6 27 208 207 27 26 209 208 26 5 210 209 5 6 207 210 7 28 212 211 28 27 213 212 27 6 214 213 6 7 211 214 8 29 216 215 29 28 217 216 28 7 218 217 7 8 215 218 9 30 220 219 30 29 221 220 29 8 222 221 8 9 219 222 10 31 224 223 31 30 225 224 30 9 226 225 9 10 223 226 11 32 228 227 32 31 229 228 31 10 230 229 10 11 227 230 12 33 232 231 33 32 233 232 32 11 234 233 11 12 231 234 13 34 236 235 34 33 237 236 33 12 238 237 12 13 235 238 14 35 240 239 35 34 241 240 34 13 242 241 13 14 239 242 15 36 244 243 36 35 245 244 35 14 246 245 14 15 243 246 16 37 248 247 37 36 249 248 36 15 250 249 15 16 247 250 17 38 252 251 38 37 253 252 37 16 254 253 16 17 251 254 18 39 256 255 39 38 257 256 38 17 258 257 17 18 255 258 19 40 260 259 40 39 261 260 39 18 262 261 18 19 259 262 20 41 264 263 41 40 265 264 40 19 266 265 19 20 263 266 21 22 268 267 22 43 269 268 43 42 270 269 42 21 267 270 22 23 272 271 23 44 273 272 44 43 274 273 43 22 271 274 23 24 276 275 24 45 277 276 45 44 278 277 44 23 275 278 24 25 280 279 25 46 281 280 46 45 282 281 45 24 279 282 25 26 284 283 26 47 285 284 47 46 286 285 46 25 283 286 26 27 288 287 27 48 289 288 48 47 290 289 47 26 287 290 27 28 292 291 28 49 293 292 49 48 294 293 48 27 291 294 28 29 296 295 29 50 297 296 50 49 298 297 49 28 295 298 29 30 300 299 30 51 301 300 51 50 302 301 50 29 299 302 30 31 304 303 31 52 305 304 52 51 306 305 51 30 303 306 31 32 308 307 32 53 309 308 53 52 310 309 52 31 307 310 32 33 312 311 33 54 313 312 54 53 314 313 53 32 311 314 33 34 316 315 34 55 317 316 55 54 318 317 54 33 315 318 34 35 320 319 35 56 321 320 56 55 322 321 55 34 319 322 35 36 324 323 36 57 325 324 57 56 326 325 56 35 323 326 36 37 328 327 37 58 329 328 58 57 330 329 57 36 327 330 37 38 332 331 38 59 333 332 59 58 334 333 58 37 331 334 38 39 336 335 39 60 337 336 60 59 338 337 59 38 335 338 39 40 340 339 40 61 341 340 61 60 342 341 60 39 339 342 40 41 344 343 41 62 345 344 62 61 346 345 61 40 343 346 43 64 348 347 64 63 349 348 63 42 350 349 42 43 347 350 44 65 352 351 65 64 353 352 64 43 354 353 43 44 351 354 45 66 356 355 66 65 357 356 65 44 358 357 44 45 355 358 46 67 360 359 67 66 361 360 66 45 362 361 45 46 359 362 47 68 364 363 68 67 365 364 67 46 366 365 46 47 363 366 48 69 368 367 69 68 369 368 68 47 370 369 47 48 367 370 49 70 372 371 70 69 373 372 69 48 374 373 48 49 371 374 50 71 376 375 71 70 377 376 70 49 378 377 49 50 375 378 51 72 380 379 72 71 381 380 71 50 382 381 50 51 379 382 52 73 384 383 73 72 385 384 72 51 386 385 51 52 383 386 53 74 388 387 74 73 389 388 73 52 390 389 52 53 387 390 54 75 392 391 75 74 393 392 74 53 394 393 53 54 391 394 55 76 396 395 76 75 397 396 75 54 398 397 54 55 395 398 56 77 400 399 77 76 401 400 76 55 402 401 55 56 399 402 57 78 404 403 78 77 405 404 77 56 406 405 56 57 403 406 58 79 408 407 79 78 409 408 78 57 410 409 57 58 407 410 59 80 412 411 80 79 413 412 79 58 414 413 58 59 411 414 60 81 416 415 81 80 417 416 80 59 418 417 59 60 415 418 61 82 420 419 82 81 421 420 81 60 422 421 60 61 419 422 61 62 424 423 62 83 425 424 83 82 426 425 82 61 423 426 64 85 428 427 85 84 429 428 84 63 430 429 63 64 427 430 65 86 432 431 86 85 433 432 85 64 434 433 64 65 431 434 66 87 436 435 87 86 437 436 86 65 438 437 65 66 435 438 67 88 440 439 88 87 441 440 87 66 442 441 66 67 439 442 68 89 444 443 89 88 445 444 88 67 446 445 67 68 443 446 69 90 448 447 90 89 449 448 89 68 450 449 68 69 447 450 70 91 452 451 91 90 453 452 90 69 454 453 69 70 451 454 71 92 456 455 92 91 457 456 91 70 458 457 70 71 455 458 72 93 460 459 93 92 461 460 92 71 462 461 71 72 459 462 73 94 464 463 94 93 465 464 93 72 466 465 72 73 463 466 74 95 468 467 95 94 469 468 94 73 470 469 73 74 467 470 75 96 472 471 96 95 473 472 95 74 474 473 74 75 471 474 76 97 476 475 97 96 477 476 96 75 478 477 75 76 475 478 77 98 480 479 98 97 481 480 97 76 482 481 76 77 479 482 78 99 484 483 99 98 485 484 98 77 486 485 77 78 483 486 79 100 488 487 100 99 489 488 99 78 490 489 78 79 487 490 80 101 492 491 101 100 493 492 100 79 494 493 79 80 491 494 81 102 496 495 102 101 497 496 101 80 498 497 80 81 495 498 82 103 500 499 103 102 501 500 102 81 502 501 81 82 499 502 82 83 504 503 83 104 505 504 104 103 506 505 103 82 503 506 85 106 508 507 106 105 509 508 105 84 510 509 84 85 507 510 86 107 512 511 107 106 513 512 106 85 514 513 85 86 511 514 87 108 516 515 108 107 517 516 107 86 518 517 86 87 515 518 88 109 520 519 109 108 521 520 108 87 522 521 87 88 519 522 89 110 524 523 110 109 525 524 109 88 526 525 88 89 523 526 90 111 528 527 111 110 529 528 110 89 530 529 89 90 527 530 91 112 532 531 112 111 533 532 111 90 534 533 90 91 531 534 92 113 536 535 113 112 537 536 112 91 538 537 91 92 535 538 93 114 540 539 114 113 541 540 113 92 542 541 92 93 539 542 94 115 544 543 115 114 545 544 114 93 546 545 93 94 543 546 95 116 548 547 116 115 549 548 115 94 550 549 94 95 547 550 96 117 552 551 117 116 553 552 116 95 554 553 95 96 551 554 97 118 556 555 118 117 557 556 117 96 558 557 96 97 555 558 98 119 560 559 119 118 561 560 118 97 562 561 97 98 559 562 99 120 564 563 120 119 565 564 119 98 566 565 98 99 563 566 100 121 568 567 121 120 569 568 120 99 570 569 99 100 567 570 101 122 572 571 122 121 573 572 121 100 574 573 100 101 571 574 102 123 576 575 123 122 577 576 122 101 578 577 101 102 575 578 103 124 580 579 124 123 581 580 123 102 582 581 102 103 579 582 103 104 584 583 104 125 585 584 125 124 586 585 124 103 583 586 183 105 588 587 105 106 589 588 106 179 590 589 179 184 591 590 184 183 587 591 179 106 593 592 106 107 594 593 107 175 595 594 175 180 596 595 180 179 592 596 175 107 598 597 107 108 599 598 108 171 600 599 171 176 601 600 176 175 597 601 171 108 603 602 108 109 604 603 109 147 605 604 147 172 606 605 172 171 602 606 147 109 608 607 109 110 609 608 110 149 610 609 149 148 611 610 148 147 607 611 149 110 613 612 110 111 614 613 111 151 615 614 151 150 616 615 150 149 612 616 151 111 618 617 111 112 619 618 112 153 620 619 153 152 621 620 152 151 617 621 153 112 623 622 112 113 624 623 113 155 625 624 155 154 626 625 154 153 622 626 155 113 628 627 113 114 629 628 114 157 630 629 157 156 631 630 156 155 627 631 157 114 633 632 114 115 634 633 115 159 635 634 159 158 636 635 158 157 632 636 159 115 638 637 115 116 639 638 116 161 640 639 161 160 641 640 160 159 637 641 161 116 643 642 116 117 644 643 117 163 645 644 163 162 646 645 162 161 642 646 163 117 648 647 117 118 649 648 118 165 650 649 165 164 651 650 164 163 647 651 165 118 653 652 118 119 654 653 119 167 655 654 167 166 656 655 166 165 652 656 167 119 658 657 119 120 659 658 120 169 660 659 169 168 661 660 168 167 657 661 169 120 663 662 120 121 664 663 121 173 665 664 173 170 666 665 170 169 662 666 173 121 668 667 121 122 669 668 122 177 670 669 177 174 671 670 174 173 667 671 177 122 673 672 122 123 674 673 123 181 675 674 181 178 676 675 178 177 672 676 181 123 678 677 123 124 679 678 124 182 680 679 182 181 677 680 185 182 682 681 182 124 683 682 124 125 684 683 125 186 685 684 186 185 681 685 172 147 687 686 147 148 688 687 148 131 689 688 131 130 690 689 130 172 686 690 148 149 692 691 149 150 693 692 150 132 694 693 132 131 695 694 131 148 691 695 150 151 697 696 151 152 698 697 152 133 699 698 133 132 700 699 132 150 696 700 152 153 702 701 153 154 703 702 154 134 704 703 134 133 705 704 133 152 701 705 154 155 707 706 155 156 708 707 156 135 709 708 135 134 710 709 134 154 706 710 156 157 712 711 157 158 713 712 158 136 714 713 136 135 715 714 135 156 711 715 158 159 717 716 159 160 718 717 160 137 719 718 137 136 720 719 136 158 716 720 160 161 722 721 161 162 723 722 162 138 724 723 138 137 725 724 137 160 721 725 162 163 727 726 163 164 728 727 164 139 729 728 139 138 730 729 138 162 726 730 164 165 732 731 165 166 733 732 166 140 734 733 140 139 735 734 139 164 731 735 166 167 737 736 167 168 738 737 168 141 739 738 141 140 740 739 140 166 736 740 168 169 742 741 169 170 743 742 170 142 744 743 142 141 745 744 141 168 741 745 176 171 747 746 171 172 748 747 172 130 749 748 130 129 750 749 129 176 746 750 170 173 752 751 173 174 753 752 174 143 754 753 143 142 755 754 142 170 751 755 180 175 757 756 175 176 758 757 176 129 759 758 129 128 760 759 128 180 756 760 174 177 762 761 177 178 763 762 178 144 764 763 144 143 765 764 143 174 761 765 184 179 767 766 179 180 768 767 180 128 769 768 128 127 770 769 127 184 766 770 178 181 772 771 181 182 773 772 182 185 774 773 185 145 775 774 145 144 776 775 144 178 771 776 126 183 778 777 183 184 779 778 184 127 780 779 127 126 777 780 145 185 782 781 185 186 783 782 186 146 784 783 146 145 781 784 
</DataArray>
<DataArray type="Int32" Name="offsets" format="ascii">
4 8 12 16 20 24 28 32 36 40 44 48 52 56 60 64 68 72 76 80 84 88 92 96 100 104 108 112 116 120 124 128 132 136 140 144 148 152 156 160 164 168 172 176 180 184 188 192 196 200 204 208 212 216 220 224 228 232 236 240 244 248 252 256 260 264 268 272 276 280 284 288 292 296 300 304 308 312 316 320 324 328 332 336 340 344 348 352 356 360 364 368 372 376 380 384 388 392 396 400 404 408 412 416 420 424 428 432 436 440 444 448 452 456 460 464 468 472 476 480 484 488 492 496 500 504 508 512 516 520 524 528 532 536 540 544 548 552 556 560 564 568 572 576 580 584 588 592 596 600 604 608 612 616 620 624 628 632 636 640 644 648 652 656 660 664 668 672 676 680 684 688 692 696 700 704 708 712 716 720 724 728 732 736 740 744 748 752 756 760 764 768 772 776 780 784 788 792 796 800 804 808 812 816 820 824 828 832 836 840 844 848 852 856 860 864 868 872 876 880 884 888 892 896 900 904 908 912 916 920 924 928 932 936 940 944 948 952 956 960 964 968 972 976 980 984 988 992 996 1000 1004 1008 1012 1016 1020 1024 1028 1032 1036 1040 1044 1048 1052 1056 1060 1064 1068 1072 1076 1080 1084 1088 1092 1096 1100 1104 1108 1112 1116 1120 1124 1128 1132 1136 1140 1144 1148 1152 1156 1160 1164 1168 1172 1176 1180 1184 1188 1192 1196 1200 1204 1208 1212 1216 1220 1224 1228 1232 1236 1240 1244 1248 1252 1256 1260 1264 1268 1272 1276 1280 1284 1288 1292 1296 1300 1304 1308 1312 1316 1320 1324 1328 1332 1336 1340 1344 1348 1352 1356 1360 1364 1368 1372 1376 1380 1384 1388 1392 1396 1400 1404 1408 1412 1416 1420 1424 1428 1432 1436 1440 1444 1448 1452 1456 1460 1464 1468 1472 1476 1480 1484 1488 1492 1496 1500 1504 1508 1512 1516 1520 1524 1528 1532 1536 1540 1544 1548 1552 1556 1560 1564 1568 1572 1576 1580 1584 1588 1592 1596 1600 1604 1608 1612 1616 1620 1624 1628 1632 1636 1640 1644 1648 1652 1656 1660 1664 1668 1672 1676 1680 1684 1688 1692 1696 1700 1704 1708 1712 1716 1720 1724 1728 1732 1736 1740 1744 1748 1752 1756 1760 1764 1768 1772 1776 1780 1784 1788 1792 1796 1800 1804 1808 1812 1816 1820 1824 1828 1832 1836 1840 1844 1848 1852 1856 1860 1864 1868 1872 1876 1880 1884 1888 1892 1896 1900 1904 1908 1912 1916 1920 1924 1928 1932 1936 1940 1944 1948 1952 1956 1960 1964 1968 1972 1976 1980 1984 1988 1992 1996 2000 2004 2008 2012 2016 2020 2024 2028 2032 2036 2040 2044 2048 2052 2056 2060 2064 2068 2072 2076 2080 2084 2088 2092 2096 2100 2104 2108 2112 2116 2120 2124 2128 2132 2136 2140 2144 2148 2152 2156 2160 2164 2168 2172 2176 2180 2184 2188 2192 2196 2200 2204 2208 2212 2216 2220 2224 2228 2232 2236 2240 2244 2248 2252 2256 2260 2264 2268 2272 2276 2280 2284 2288 2292 2296 2300 2304 2308 2312 2316 2320 2324 2328 2332 2336 2340 2344 2348 2352 2356 2360 2364 2368 2372 2376 2380 2384 2388 2392 
</DataArray>
<DataArray type="UInt8" Name="types" format="ascii">
7 7 7 7 7 7 7 7 7 7 7 7 7 7 7 7 7 7 7 7 7 7 7 7 7 7 7 7 7 7 7 7 7 7 7 7 7 7 7 7 7 7 7 7 7 7 7 7 7 7 7 7 7 7 7 7 7 7 7 7 7 7 7 7 7 7 7 7 7 7 7 7 7 7 7 7 7 7 7 7 7 7 7 7 7 7 7 7 7 7 7 7 7 7 7 7 7 7 7 7 7 7 7 7 7 7 7 7 7 7 7 7 7 7 7 7 7 7 7 7 7 7 7 7 7 7 7 7 7 7 7 7 7 7 7 7 7 7 7 7 7 7 7 7 7 7 7 7 7 7 7 7 7 7 7 7 7 7 7 7 7 7 7 7 7 7 7 7 7 7 7 7 7 7 7 7 7 7 7 7 7 7 7 7 7 7 7 7 7 7 7 7 7 7 7 7 7 7 7 7 7 7 7 7 7 7 7 7 7 7 7 7 7 7 7 7 7 7 7 7 7 7 7 7 7 7 7 7 7 7 7 7 7 7 7 7 7 7 7 7 7 7 7 7 7 7 7 7 7 7 7 7 7 7 7 7 7 7 7 7 7 7 7 7 7 7 7 7 7 7 7 7 7 7 7 7 7 7 7 7 7 7 7 7 7 7 7 7 7 7 7 7 7 7 7 7 7 7 7 7 7 7 7 7 7 7 7 7 7 7 7 7 7 7 7 7 7 7 7 7 7 7 7 7 7 7 7 7 7 7 7 7 7 7 7 7 7 7 7 7 7 7 7 7 7 7 7 7 7 7 7 7 7 7 7 7 7 7 7 7 7 7 7 7 7 7 7 7 7 7 7 7 7 7 7 7 7 7 7 7 7 7 7 7 7 7 7 7 7 7 7 7 7 7 7 7 7 7 7 7 7 7 7 7 7 7 7 7 7 7 7 7 7 7 7 7 7 7 7 7 7 7 7 7 7 7 7 7 7 7 7 7 7 7 7 7 7 7 7 7 7 7 7 7 7 7 7 7 7 7 7 7 7 7 7 7 7 7 7 7 7 7 7 7 7 7 7 7 7 7 7 7 7 7 7 7 7 7 7 7 7 7 7 7 7 7 7 7 7 7 7 7 7 7 7 7 7 7 7 7 7 7 7 7 7 7 7 7 7 7 7 7 7 7 7 7 7 7 7 7 7 7 7 7 7 7 7 7 7 7 7 7 7 7 7 7 7 7 7 7 7 7 7 7 7 7 7 7 7 7 7 7 7 7 7 7 7 7 7 7 7 7 7 7 7 7 7 7 7 7 7 7 7 7 7 7 7 7 7 7 7 7 7 7 7 7 7 7 7 7 7 7 7 7 7 7 7 7 
</DataArray>
</Cells>
<CellData Scalars="wall variable 0">
<DataArray type="Float64" Name="wall length" format="ascii">
0.0198753 2.09433 0.33035 2.07954 2.11716 0.356366 2.09433 0.0227845 2.14479 0.364719 2.11716 0.0252836 2.17412 0.367318 2.14479 0.0273442 2.20273 0.368205 2.17412 0.0289875 2.22869 0.36859 2.20273 0.030258 2.25045 0.368809 2.22869 0.0312058 2.26683 0.368953 2.25045 0.0318756 2.27699 0.369045 2.26683 0.0323025 2.28043 0.36909 2.27699 0.0325101 2.27699 0.36909 2.28043 0.0325101 2.26683 0.369045 2.27699 0.0323025 2.25045 0.368953 2.26683 0.0318756 2.22869 0.368809 2.25045 0.0312058 2.20273 0.36859 2.22869 0.030258 2.17412 0.368205 2.20273 0.0289875 2.14479 0.367318 2.17412 0.0273442 2.11716 0.364719 2.14479 0.0252836 2.09433 0.356366 2.11716 0.0227845 2.07954 0.33035 2.09433 0.0198753 0.33035 2.34893 0.686772 2.35057 0.356366 2.34879 0.727207 2.34893 0.364719 2.34876 0.735233 2.34879 0.367318 2.34869 0.736687 2.34876 0.368205 2.34862 0.736938 2.34869 0.36859 2.34858 0.736982 2.34862 0.368809 2.34857 0.736992 2.34858 0.368953 2.34857 0.736995 2.34857 0.369045 2.34858 0.736997 2.34857 0.36909 2.34858 0.736998 2.34858 0.36909 2.34858 0.736998 2.34858 0.369045 2.34857 0.736997 2.34858 0.368953 2.34857 0.736995 2.34857 0.368809 2.34858 0.736992 2.34857 0.36859 2.34862 0.736982 2.34858 0.368205 2.34869 0.736938 2.34862 0.367318 2.34876 0.736687 2.34869 0.364719 2.34879 0.735233 2.34876 0.356366 2.34893 0.727207 2.34879 0.33035 2.35057 0.686772 2.34893 2.35339 1.04945 2.35384 0.686772 2.35368 1.09823 2.35339 0.727207 2.35379 1.10529 2.35368 0.735233 2.35381 1.10622 2.35379 0.736687 2.35381 1.10633 2.35381 0.736938 2.35381 1.10634 2.35381 0.736982 2.35381 1.10634 2.35381 0.736992 2.35381 1.10634 2.35381 0.736995 2.35381 1.10634 2.35381 0.736997 2.35381 1.10634 2.35381 0.736998 2.35381 1.10634 2.35381 0.736998 2.35381 1.10634 2.35381 0.736997 2.35381 1.10634 2.35381 0.736995 2.35381 1.10634 2.35381 0.736992 2.35381 1.10634 2.35381 0.736982 2.35381 1.10633 2.35381 0.736938 2.35379 1.10622 2.35381 0.736687 2.35368 1.10529 2.35379 0.735233 2.35339 1.09823 2.35368 0.727207 0.686772 2.35384 1.04945 2.35339 2.35357 1.41474 2.35379 1.04945 2.35378 1.46884 2.35357 1.09823 2.35384 1.47501 2.35378 1.10529 2.35385 1.47564 2.35384 1.10622 2.35386 1.4757 2.35385 1.10633 2.35386 1.4757 2.35386 1.10634 2.35386 1.4757 2.35386 1.10634 2.35386 1.4757 2.35386 1.10634 2.35386 1.4757 2.35386 1.10634 2.35386 1.4757 2.35386 1.10634 2.35386 1.4757 2.35386 1.10634 2.35386 1.4757 2.35386 1.10634 2.35386 1.4757 2.35386 1.10634 2.35386 1.4757 2.35386 1.10634 2.35386 1.4757 2.35386 1.10634 2.35385 1.4757 2.35386 1.10633 2.35384 1.47564 2.35385 1.10622 2.35378 1.47501 2.35384 1.10529 2.35357 1.46884 2.35378 1.09823 1.04945 2.35379 1.41474 2.35357 2.34894 1.78069 2.34905 1.41474 2.34909 1.8384 2.34894 1.46884 2.34912 1.84383 2.34909 1.47501 2.34913 1.84429 2.34912 1.47564 2.34913 1.84432 2.34913 1.4757 2.34913 1.84432 2.34913 1.4757 2.34913 1.84432 2.34913 1.4757 2.34913 1.84432 2.34913 1.4757 2.34913 1.84432 2.34913 1.4757 2.34913 1.84432 2.34913 1.4757 2.34913 1.84432 2.34913 1.4757 2.34913 1.84432 2.34913 1.4757 2.34913 1.84432 2.34913 1.4757 2.34913 1.84432 2.34913 1.4757 2.34913 1.84432 2.34913 1.4757 2.34913 1.84432 2.34913 1.4757 2.34912 1.84429 2.34913 1.47564 2.34909 1.84383 2.34912 1.47501 2.34894 1.8384 2.34909 1.46884 1.41474 2.34905 1.78069 2.34894 1.16787 1.78069 1.17434 0.111281 2.28607 1.17434 1.8384 1.1757 0.111232 2.34254 1.1757 1.84383 1.17587 0.111225 2.34761 1.17587 1.84429 1.17588 0.111227 2.34803 1.17588 1.84432 1.06174 0.11792 2.33508 1.06174 1.84432 1.06173 0.117916 2.32874 1.06173 1.84432 1.06173 0.117916 2.32874 1.06173 1.84432 1.06173 0.117916 2.32874 1.06173 1.84432 1.06173 0.117916 2.32874 1.06173 1.84432 1.06173 0.117916 2.32874 1.06173 1.84432 1.06173 0.117916 2.32874 1.06173 1.84432 1.06173 0.117916 2.32874 1.06173 1.84432 1.06173 0.117916 2.32874 1.06173 1.84432 1.06173 0.117916 2.32874 1.06173 1.84432 1.06173 0.117916 2.32874 1.06173 1.84432 1.06173 0.117916 2.32873 1.06173 1.84429 1.06173 0.117916 2.32869 1.06173 1.84383 1.06165 0.11791 2.32829 1.06165 1.8384 1.17862 2.32333 0.110854 1.17862 1.78069 1.17095 2.28674 0.111227 2.33508 1.10739 2.2032 0.999946 0.11792 2.32874 1.1074 2.2032 1.10739 0.117916 2.32874 1.1074 2.2032 1.1074 0.117916 2.32874 1.1074 2.2032 1.1074 0.117916 2.32874 1.1074 2.2032 1.1074 0.117916 2.32874 1.1074 2.2032 1.1074 0.117916 2.32874 1.1074 2.2032 1.1074 0.117916 2.32874 1.1074 2.2032 1.1074 0.117916 2.32874 1.1074 2.2032 1.1074 0.117916 2.32874 1.1074 2.2032 1.1074 0.117916 2.32874 1.1074 2.2032 1.1074 0.117916 2.32873 1.1074 2.2032 1.1074 0.111225 2.34803 0.999946 2.20318 0.999958 0.117916 2.32869 1.1074 2.20318 1.1074 0.111232 2.34761 0.999958 2.20284 1.00009 0.117916 2.32829 1.10747 2.20284 1.1074 0.111281 2.34254 1.00009 2.19804 1.0013 0.11791 2.32333 0.110854 0.997439 2.19804 1.10747 1.11908 2.28607 1.0013 2.13844 0.997439 2.28674 1.116 2.13844 
</DataArray>
<DataArray type="Float64" Name="wall variable 0" format="ascii">
0 0.000425237 0.00317049 0 0.00042 0.00345346 0.000397558 0 0.000406713 0.00340651 0.000422892 0 0.000396555 0.00327818 0.00041745 0 0.000391528 0.00319398 0.0004041 0 0.000389504 0.00315534 0.000395143 0 0.000388776 0.00314037 0.000390942 0 0.00038853 0.00313504 0.000389293 0 0.000388456 0.00313323 0.000388706 0 0.000388451 0.00313268 0.000388509 0 0.000388509 0.00313268 0.000388451 0 0.000388706 0.00313323 0.000388456 0 0.000389294 0.00313505 0.00038853 0 0.000390942 0.00314038 0.000388776 0 0.000395143 0.00315536 0.000389504 0 0.000404101 0.003194 0.000391529 0 0.000417449 0.0032782 0.000396556 0 0.000422886 0.00340647 0.000406714 0 0.000397554 0.00345326 0.000419999 0 0 0.00317034 0.000425231 0 0.000950832 0.00823434 0.0235684 0 0.00099506 0.00792509 0.0269617 0.00725238 0.000976243 0.00756039 0.0263995 0.00792877 0.000931068 0.0072637 0.0250525 0.00773324 0.000901782 0.00711717 0.0242289 0.00739315 0.000888387 0.00705888 0.023869 0.00718102 0.000883213 0.00703808 0.023733 0.00708498 0.000881386 0.00703107 0.0236846 0.0070478 0.000880775 0.0070289 0.0236679 0.00703451 0.000880592 0.00702866 0.0236627 0.00702998 0.000880592 0.00702998 0.0236627 0.00702865 0.000880775 0.00703452 0.023668 0.0070289 0.000881387 0.00704782 0.0236848 0.00703108 0.000883213 0.00708502 0.0237333 0.00703809 0.000888389 0.00718108 0.0238695 0.00705891 0.000901784 0.0073932 0.0242296 0.00711721 0.000931071 0.00773311 0.0250529 0.00726377 0.000976242 0.00792822 0.0263974 0.00756047 0.00099505 0.007252 0.0269536 0.00792504 0.000950824 0 0.0235617 0.00823381 0.0615126 0.0923853 0 0.0174961 0.0585444 0.112219 0.0499456 0.0187781 0.0546003 0.110183 0.0572786 0.0179531 0.0518584 0.104593 0.0553325 0.0168114 0.0506298 0.101353 0.0526001 0.0161607 0.0501751 0.100007 0.0510238 0.0158836 0.0500182 0.099509 0.0503414 0.0157802 0.0499651 0.0993296 0.050082 0.0157439 0.0499482 0.0992651 0.0499885 0.0157316 0.049946 0.0992442 0.0499558 0.0157278 0.049956 0.0992444 0.0499459 0.0157278 0.0499888 0.099266 0.0499482 0.0157316 0.0500826 0.0993316 0.0499653 0.0157439 0.0503425 0.0995126 0.0500185 0.0157802 0.0510253 0.100013 0.0501757 0.0158837 0.0526009 0.101361 0.0506309 0.0161609 0.055328 0.104595 0.0518601 0.0168116 0.0572613 0.110146 0.0546016 0.017953 0.0499325 0.112084 0.0585401 0.0187769 0.0174952 0 0.0922796 0.0614958 0.216425 0.185362 0 0.106106 0.22093 0.239227 0.170707 0.133191 0.205751 0.238221 0.208245 0.12594 0.194641 0.228266 0.20418 0.116212 0.189966 0.222533 0.1957 0.11123 0.188332 0.2202 0.190809 0.109265 0.187773 0.219324 0.188724 0.108554 0.187575 0.218991 0.18793 0.108301 0.187507 0.218863 0.187635 0.108213 0.187495 0.218819 0.187528 0.108184 0.187529 0.218821 0.187494 0.108185 0.187639 0.218868 0.187508 0.108213 0.187936 0.219002 0.187578 0.108303 0.188735 0.219344 0.187777 0.108556 0.190824 0.220233 0.18834 0.109269 0.195705 0.222574 0.189979 0.111236 0.204118 0.228259 0.194654 0.116217 0.208022 0.237935 0.205732 0.125922 0.170532 0.238258 0.220781 0.133095 0.106043 0 0.18478 0.2162 0.355861 0.203854 0 0.274576 0.366035 0.25941 0.268432 0.389467 0.344584 0.260169 0.336486 0.379319 0.330072 0.252698 0.338907 0.355312 0.324429 0.248692 0.33066 0.343429 0.322513 0.247143 0.32529 0.338943 0.321821 0.246552 0.322919 0.337318 0.32155 0.246315 0.321979 0.336718 0.321444 0.24622 0.32161 0.336494 0.321418 0.246186 0.321466 0.336421 0.321471 0.246189 0.321417 0.336423 0.321622 0.246227 0.321449 0.336501 0.322001 0.246332 0.321561 0.336732 0.322957 0.246584 0.321842 0.337345 0.325337 0.247197 0.322548 0.338988 0.330649 0.248767 0.324475 0.343489 0.338586 0.252706 0.330075 0.355315 0.335435 0.259617 0.3443 0.378923 0.267798 0.256794 0.364895 0.387957 0.273849 0 0.202622 0.354852 0 0.389557 0.347587 0.349069 0.0222478 0.244129 0.531283 0.325292 0.330954 0.0671986 0.299812 0.519481 0.306041 0.313051 0.0717136 0.303781 0.499941 0.298407 0.30556 0.070142 0.299496 0.491535 0.296016 0.303214 0.0690749 0.296688 0.488454 0.295196 0.302437 0.0686495 0.295458 0.487297 0.294861 0.302132 0.0684755 0.294957 0.486845 0.294715 0.302003 0.0683958 0.294751 0.486668 0.294653 0.301952 0.0683579 0.294667 0.486608 0.294636 0.301939 0.0683409 0.294636 0.486613 0.294674 0.30197 0.068336 0.29466 0.486682 0.294766 0.30205 0.068341 0.294729 0.486875 0.294984 0.302248 0.0683601 0.294886 0.487354 0.295505 0.302734 0.0684066 0.29524 0.488552 0.29675 0.303934 0.0685176 0.296085 0.491692 0.299495 0.306693 0.0688104 0.298492 0.500158 0.303354 0.310807 0.0695753 0.305975 0.51941 0.297861 0.305609 0.0704641 0.323388 0.527309 0.243675 0.0645788 0.345938 0.345725 0.387357 0 0.0214458 0.31356 0.0665665 0.308438 0 0.312374 0.310634 0.0661795 0.307451 0 0.309108 0.309371 0.0660191 0.30705 0 0.307715 0.308866 0.0659483 0.306869 0 0.307145 0.308662 0.0659174 0.306788 0 0.306904 0.308582 0.0659067 0.306758 0 0.306801 0.308554 0.0659094 0.306785 0 0.306757 0.308573 0.0659264 0.30687 0 0.306771 0.308638 0.065967 0.307079 0 0.306834 0.308792 0.0660548 0.307586 0 0.306982 0.309145 0.0662431 0.308833 0 0.307321 0.310018 0.0666546 0.311669 0 0.308156 0.318003 0.0674999 0.31142 0 0.317765 0.312591 0.0674537 0.315794 0 0.310629 0.31277 0.068772 0.320964 0 0.31441 0.320572 0.0677195 0.310009 0 0.318419 0.249324 0.064033 0.342516 0 0.25127 0.338149 0.0599121 0.245914 0.248584 0 0.336056 0 0.0200686 0.352924 0 0.350426 0.0192401 0 0 
</DataArray>
<DataArray type="Float64" Name="wall variable 1" format="ascii">
0.5 0.201604 0.201606 0.5 0.201604 0.201606 0.5 0.5 0.201604 0.201606 0.5 0.5 0.201604 0.201606 0.5 0.5 0.201604 0.201606 0.5 0.5 0.201604 0.201606 0.5 0.5 0.201604 0.201606 0.5 0.5 0.201604 0.201606 0.5 0.5 0.201604 0.201606 0.5 0.5 0.201604 0.201606 0.5 0.5 0.201604 0.201606 0.5 0.5 0.201604 0.201606 0.5 0.5 0.201604 0.201606 0.5 0.5 0.201604 0.201606 0.5 0.5 0.201604 0.201606 0.5 0.5 0.201604 0.201606 0.5 0.5 0.201604 0.201606 0.5 0.5 0.201604 0.201606 0.5 0.5 0.201604 0.201606 0.5 0.5 0.5 0.201606 0.5 0.5 0.5 0.201604 0.20162 0.5 0.5 0.201604 0.201633 0.5 0.5 0.201604 0.201632 0.5 0.5 0.201604 0.201629 0.5 0.5 0.201604 0.201627 0.5 0.5 0.201604 0.201626 0.5 0.5 0.201604 0.201626 0.5 0.5 0.201604 0.201626 0.5 0.5 0.201604 0.201626 0.5 0.5 0.201604 0.201626 0.5 0.5 0.201604 0.201626 0.5 0.5 0.201604 0.201626 0.5 0.5 0.201604 0.201626 0.5 0.5 0.201604 0.201626 0.5 0.5 0.201604 0.201626 0.5 0.5 0.201604 0.201627 0.5 0.5 0.201604 0.201629 0.5 0.5 0.201604 0.201632 0.5 0.5 0.201604 0.201633 0.5 0.5 0.5 0.20162 0.5 0.201606 0.201634 0.5 0.5 0.201604 0.201688 0.5 0.5 0.201604 0.201698 0.5 0.5 0.201604 0.201689 0.5 0.5 0.201604 0.201683 0.5 0.5 0.201604 0.20168 0.5 0.5 0.201604 0.201679 0.5 0.5 0.201604 0.201678 0.5 0.5 0.201604 0.201678 0.5 0.5 0.201604 0.201678 0.5 0.5 0.201604 0.201678 0.5 0.5 0.201604 0.201678 0.5 0.5 0.201604 0.201678 0.5 0.5 0.201604 0.201679 0.5 0.5 0.201604 0.20168 0.5 0.5 0.201604 0.201683 0.5 0.5 0.201604 0.201689 0.5 0.5 0.201604 0.201697 0.5 0.5 0.201606 0.201687 0.5 0.5 0.5 0.5 0.201634 0.5 0.201633 0.201616 0.5 0.5 0.201604 0.201635 0.5 0.5 0.201605 0.201636 0.5 0.5 0.201604 0.201632 0.5 0.5 0.201604 0.20163 0.5 0.5 0.201604 0.20163 0.5 0.5 0.201604 0.201629 0.5 0.5 0.201604 0.201629 0.5 0.5 0.201604 0.201629 0.5 0.5 0.201604 0.201629 0.5 0.5 0.201604 0.201629 0.5 0.5 0.201604 0.201629 0.5 0.5 0.201604 0.201629 0.5 0.5 0.201604 0.201629 0.5 0.5 0.201604 0.20163 0.5 0.5 0.201604 0.20163 0.5 0.5 0.201605 0.201632 0.5 0.5 0.201605 0.201636 0.5 0.5 0.201633 0.201635 0.5 0.5 0.5 0.5 0.201616 0.5 0.201635 0.201624 0.5 0.5 0.201605 0.201659 0.5 0.5 0.201604 0.201667 0.5 0.5 0.201604 0.201662 0.5 0.5 0.201604 0.201658 0.5 0.5 0.201604 0.201656 0.5 0.5 0.201604 0.201655 0.5 0.5 0.201604 0.201655 0.5 0.5 0.201604 0.201655 0.5 0.5 0.201604 0.201655 0.5 0.5 0.201604 0.201655 0.5 0.5 0.201604 0.201655 0.5 0.5 0.201604 0.201655 0.5 0.5 0.201604 0.201655 0.5 0.5 0.201604 0.201656 0.5 0.5 0.201604 0.201658 0.5 0.5 0.201604 0.201662 0.5 0.5 0.201606 0.201667 0.5 0.5 0.201634 0.20166 0.5 0.5 0.5 0.5 0.201624 0.5 0.5 0.5 0.201612 0.201618 1.32723 0.5 0.5 0.201604 0.201607 1.05713 0.5 0.5 0.201604 0.201605 1.03701 0.5 0.5 0.201604 0.201605 1.03533 0.5 0.5 0.201604 0.201605 1.03525 0.5 0.5 0.201604 0.201605 1.03525 0.5 0.5 0.201604 0.201605 1.03525 0.5 0.5 0.201604 0.201605 1.03525 0.5 0.5 0.201604 0.201605 1.03525 0.5 0.5 0.201604 0.201605 1.03525 0.5 0.5 0.201604 0.201605 1.03525 0.5 0.5 0.201604 0.201605 1.03525 0.5 0.5 0.201604 0.201605 1.03525 0.5 0.5 0.201604 0.201605 1.03525 0.5 0.5 0.201604 0.201605 1.03525 0.5 0.5 0.201604 0.201605 1.03525 0.5 0.5 0.201604 0.201605 1.03532 0.5 0.5 0.201604 0.201604 1.03699 0.5 0.5 0.201612 1.05711 0.5 0.5 0.5 0.5 1.32723 0.5 0.5 0.201604 0.5 0.5 0.5 0.5 0.201604 0.5 0.5 0.5 0.5 0.201604 0.5 0.5 0.5 0.5 0.201604 0.5 0.5 0.5 0.5 0.201604 0.5 0.5 0.5 0.5 0.201604 0.5 0.5 0.5 0.5 0.201604 0.5 0.5 0.5 0.5 0.201604 0.5 0.5 0.5 0.5 0.201604 0.5 0.5 0.5 0.5 0.201604 0.5 0.5 0.5 0.5 0.201604 0.5 0.5 0.5 0.5 0.201604 0.5 0.5 0.5 0.5 0.201604 0.5 0.5 0.5 0.5 0.201604 0.5 0.5 0.5 0.5 0.201604 0.5 0.5 0.5 0.5 0.201604 0.5 0.5 0.5 0.5 0.201604 0.5 0.5 0.5 0.5 0.201615 0.201614 0.5 0.5 0.5 0.5 0.201616 0.5 0.5 0.5 0.5 0.5 
</DataArray>
<DataArray type="Float64" Name="wall variable 2" format="ascii">
0 0 0 0 0 0 1.29562e-06 0 5.0088e-07 0 1.35921e-07 0 4.27561e-07 0 0 0 2.27648e-07 0 0 0 9.87655e-08 0 0 0 3.86051e-08 0 0 0 1.41881e-08 0 0 0 4.58482e-09 0 0 0 0 0 0 0 0 0 1.31164e-11 0 0 0 4.61697e-09 0 0 0 1.42395e-08 0 0 0 3.8692e-08 0 0 0 9.89009e-08 0 0 0 2.2779e-07 0 0 0 4.27402e-07 0 1.39222e-07 0 4.99444e-07 0 1.29493e-06 0 0 0 0 0 0 0 0.000269153 0 0 0 0.000314831 1.62265e-05 0 5.12014e-06 0.000305926 7.90065e-05 0 0 0.000278185 5.55526e-05 0 0 0.000260118 2.69019e-05 0 0 0.000251844 1.10396e-05 0 0 0.00024861 4.18897e-06 0 0 0.00024744 1.52357e-06 0 0 0.000247035 4.91799e-07 0 0 0.00024691 0 0 0 0.00024691 0 0 4.05447e-09 0.000247037 0 0 5.01678e-07 0.000247444 0 0 1.53914e-06 0.000248617 0 0 4.21477e-06 0.000251856 0 0 1.10776e-05 0.000260133 0 0 2.69315e-05 0.00027819 0 0 5.54586e-05 0.000305862 0 0 7.84559e-05 0.000314616 5.04439e-06 0 1.50392e-05 0.000268981 0 0 0 0.00261757 0 0 0.0088587 0.00158751 0 0 0.0109969 0.00141433 0 0 0.0102779 0.00073768 0 0 0.00926312 0.000304939 0 0 0.00869865 0.000115717 0 0 0.00846257 4.32705e-05 0 0 0.00837458 1.61724e-05 0 0 0.00834307 5.3653e-06 0 0 0.00833196 0 0 0 0.00832843 0 0 1.80775e-07 0.00832849 0 0 5.8023e-06 0.00833214 0 0 1.68475e-05 0.00834346 0 0 4.43461e-05 0.00837528 0 0 0.000117121 0.0084637 0 0 0.000305206 0.0086999 0 0 0.000730478 0.00926229 0 0 0.00138367 0.0102677 0 0 0.0015223 0.0109665 0.0088311 0 0 0.00260071 0.00981613 0 0 0.0491933 0.0129382 0 0 0.0873494 0.00899857 0 0 0.082788 0.0038716 0 0 0.0734282 0.00141805 0 0 0.0686135 0.000521477 0 0 0.0667334 0.000204181 0 0 0.0660479 8.2546e-05 0 0 0.0657964 2.85923e-05 0 0 0.0657032 0 0 0 0.0656725 0 0 2.58454e-06 0.0656737 0 0 3.4788e-05 0.0657075 0 0 9.18922e-05 0.0658055 0 0 0.000218275 0.066064 0 0 0.000536479 0.0667571 0 0 0.00140378 0.0686305 0 0 0.0037143 0.0733645 0 0 0.00841424 0.0824024 0 0 0.0116403 0.0862485 0.0483886 0 0 0.00945606 0.0296905 0 0 0.0859908 0.0251454 0 0 0.201797 0.0120977 0 0 0.201617 0.00462952 0 0 0.183303 0.00181693 0 0 0.174374 0.000797013 0 0 0.171038 0.000376236 0 0 0.169779 0.000175639 0 0 0.169272 6.5169e-05 0 0 0.169063 0 0 0 0.168991 0 0 1.10217e-05 0.169 0 0 9.10688e-05 0.169094 0 0 0.000212889 0.169333 0 0 0.000426096 0.169879 0 0 0.00082332 0.171155 0 0 0.00162966 0.174316 0 0 0.0035774 0.182281 0 0 0.00857074 0.197206 0 0 0.0171719 0.190239 0.0803037 0 0 0.028999 0 0.119987 0.0452567 0 0 0 0.233231 0.0172404 0 0 0 0.2239 0.00467925 0 0 0 0.210204 0.00166225 0 0 0 0.205444 0.000811697 0 0 0 0.203884 0.000435126 0 0 0 0.203277 0.000233116 0 0 0 0.203008 0.000117637 0 0 0 0.202886 4.5309e-05 0 0 0 0.202842 0 0 0 1.02886e-05 0.202852 0 0 0 6.85113e-05 0.202919 0 0 0 0.000148262 0.203069 0 0 0 0.000265983 0.203365 0 0 0 0.000422074 0.203947 0 0 0 0.000546967 0.205235 0 0 0 0.000418672 0.208739 2.84082e-05 0 0 0 0.216889 0.00115166 0 0 0 0.200474 0 0 0 0.0474157 0.107577 0 0 0.0541246 0.00672486 0.00153269 0 0 0.053569 0.00657016 0.000679313 0 0 0.0534118 0.00651633 0.000351153 0 0 0.053382 0.00649553 0.000187965 0 0 0.0533823 0.00648699 9.19045e-05 0 0 0.0533907 0.00648429 2.80179e-05 0 0 0.0534035 0.0064859 0 0 0 0.0534252 0.00649305 0 0 2.42807e-05 0.0534598 0.00650975 0 0 8.12172e-05 0.0535139 0.00654659 0 0 0.000149409 0.0535993 0.00662591 0 0 0.000222175 0.0537899 0.00678423 0 0 0.000291048 0.0548115 0.00720406 0.00431518 0 0 0.0545865 0.00699848 0 0 0.000602371 0.0486305 0.00847957 0.0134018 0 0 0.0582134 0.00685377 0 0 0.00300823 0.0115488 0.00931479 0.0346 0 0 0.0700938 0.0057925 0.00140347 0 0 0.0140482 0 0.00117186 0.0489655 0 0.0571593 0.00103984 0 0 
</DataArray>
</CellData>
</Piece>
</UnstructuredGrid>
</VTKFile>
