<VTKFile type="UnstructuredGrid" version="0.1">
<UnstructuredGrid>
<Piece  NumberOfPoints="     224" NumberOfCells="      56">
<Points>
<DataArray type="Float64" NumberOfComponents="3" format="ascii">
-0.464412 -3.39931 0.0
-0.429749 -3.39625 0.0
-2.73265 -2.82019 0.0
-2.79937 -3.38747 0.0
-0.38124 -3.3527 0.0
-2.52864 -2.2313 0.0
-2.72067 -2.77946 0.0
-0.417766 -3.35552 0.0
-0.322772 -3.31275 0.0
-2.19843 -1.70096 0.0
-2.50798 -2.19378 0.0
-0.360576 -3.31519 0.0
-0.255816 -3.27854 0.0
-1.75856 -1.25698 0.0
-2.17013 -1.66871 0.0
-0.294476 -3.2805 0.0
-0.18205 -3.25159 0.0
-1.23105 -0.921623 0.0
-1.72401 -1.23146 0.0
-0.221264 -3.25302 0.0
-0.103299 -3.23306 0.0
-0.642251 -0.711592 0.0
-1.19185 -0.903962 0.0
-0.142843 -3.23393 0.0
-0.0215238 -3.22374 0.0
-0.0215238 -0.637346 0.0
-0.600174 -0.702563 0.0
-0.0612217 -3.22403 0.0
0.0612217 -3.22403 0.0
0.600174 -0.702563 0.0
0.0215238 -0.637346 0.0
0.0215238 -3.22374 0.0
0.142843 -3.23393 0.0
1.19185 -0.903962 0.0
0.642251 -0.711592 0.0
0.103299 -3.23306 0.0
0.221264 -3.25302 0.0
1.72401 -1.23146 0.0
1.23105 -0.921623 0.0
0.18205 -3.25159 0.0
0.294476 -3.2805 0.0
2.17013 -1.66871 0.0
1.75856 -1.25698 0.0
0.255816 -3.27854 0.0
0.360576 -3.31519 0.0
2.50798 -2.19378 0.0
2.19843 -1.70096 0.0
0.322772 -3.31275 0.0
0.417766 -3.35552 0.0
2.72067 -2.77946 0.0
2.52864 -2.2313 0.0
0.38124 -3.3527 0.0
0.464412 -3.39931 0.0
2.79937 -3.38747 0.0
2.73265 -2.82019 0.0
0.429749 -3.39625 0.0
-3.04516 -3.35861 0.0
-2.97844 -2.79133 0.0
-5.51508 -2.21265 0.0
-5.64716 -3.35788 0.0
-2.95595 -2.69454 0.0
-2.76393 -2.14638 0.0
-5.10794 -1.01717 0.0
-5.49259 -2.11586 0.0
-2.72052 -2.05633 0.0
-2.41097 -1.56351 0.0
-4.44485 0.0590671 0.0
-5.06453 -0.927129 0.0
-2.34861 -1.48532 0.0
-1.93703 -1.0736 0.0
-3.55889 0.960864 0.0
-4.3825 0.137258 0.0
-1.85884 -1.01123 0.0
-1.36589 -0.701393 0.0
-2.49447 1.64291 0.0
-3.4807 1.02323 0.0
-1.27577 -0.657994 0.0
-0.726175 -0.465625 0.0
-1.30496 2.07101 0.0
-2.40435 1.68631 0.0
-0.628661 -0.443367 0.0
-0.0500112 -0.37815 0.0
-0.0500112 2.22368 0.0
-1.20744 2.09327 0.0
0.0500112 -0.37815 0.0
0.628661 -0.443367 0.0
1.20744 2.09327 0.0
0.0500112 2.22368 0.0
0.726175 -0.465625 0.0
1.27577 -0.657994 0.0
2.40435 1.68631 0.0
1.30496 2.07101 0.0
1.36589 -0.701393 0.0
1.85884 -1.01123 0.0
3.4807 1.02323 0.0
2.49447 1.64291 0.0
1.93703 -1.0736 0.0
2.34861 -1.48532 0.0
4.3825 0.137258 0.0
3.55889 0.960864 0.0
2.41097 -1.56351 0.0
2.72052 -2.05633 0.0
5.06453 -0.927129 0.0
4.44485 0.0590671 0.0
2.76393 -2.14638 0.0
2.95595 -2.69454 0.0
5.49259 -2.11586 0.0
5.10794 -1.01717 0.0
2.97844 -2.79133 0.0
3.04516 -3.35861 0.0
5.64716 -3.35788 0.0
5.51508 -2.21265 0.0
-5.79409 -2.1812 0.0
-8.33078 -1.60244 0.0
-8.52806 -3.32617 0.0
-5.92617 -3.32642 0.0
-5.37304 -0.924417 0.0
-7.71728 0.20449 0.0
-8.29437 -1.44435 0.0
-5.75769 -2.02311 0.0
-4.68268 0.208523 0.0
-6.71692 1.83078 0.0
-7.64659 0.351234 0.0
-5.30235 -0.777673 0.0
-3.75749 1.1595 0.0
-5.37975 3.19375 0.0
-6.61535 1.95815 0.0
-4.5811 0.335893 0.0
-2.6439 1.88076 0.0
-3.77282 4.225 0.0
-5.25238 3.29532 0.0
-3.63012 1.26107 0.0
-1.39772 2.33614 0.0
-1.9767 4.87281 0.0
-3.62604 4.29568 0.0
-2.49711 1.95145 0.0
-0.0814571 2.50281 0.0
-0.0814571 5.10471 0.0
-1.81787 4.90906 0.0
-1.23889 2.3724 0.0
1.23889 2.3724 0.0
1.81787 4.90906 0.0
0.0814571 5.10471 0.0
0.0814571 2.50281 0.0
2.49711 1.95145 0.0
3.62604 4.29568 0.0
1.9767 4.87281 0.0
1.39772 2.33614 0.0
3.63012 1.26107 0.0
5.25238 3.29532 0.0
3.77282 4.225 0.0
2.6439 1.88076 0.0
4.5811 0.335893 0.0
6.61535 1.95815 0.0
5.37975 3.19375 0.0
3.75749 1.1595 0.0
5.30235 -0.777673 0.0
7.64659 0.351234 0.0
6.71692 1.83078 0.0
4.68268 0.208523 0.0
5.75769 -2.02311 0.0
8.29437 -1.44435 0.0
7.71728 0.20449 0.0
5.37304 -0.924417 0.0
5.79409 -2.1812 0.0
5.92617 -3.32642 0.0
8.52806 -3.32617 0.0
8.33078 -1.60244 0.0
-11.137 -0.994649 0.0
-11.3992 -3.29436 0.0
-8.81002 -3.2944 0.0
-8.61274 -1.57068 0.0
-10.3179 1.4216 0.0
-11.0865 -0.774609 0.0
-8.56222 -1.35064 0.0
-7.98513 0.298205 0.0
-8.98152 3.59609 0.0
-10.2197 1.62561 0.0
-7.88688 0.502213 0.0
-6.95721 1.98176 0.0
-7.19475 5.41872 0.0
-8.84032 3.77315 0.0
-6.81601 2.15882 0.0
-5.58042 3.39441 0.0
-5.0472 6.79806 0.0
-7.01769 5.55992 0.0
-5.40336 3.53561 0.0
-3.9238 4.46528 0.0
-2.64657 7.66494 0.0
-4.84317 6.89631 0.0
-3.71976 4.56354 0.0
-2.07042 5.14067 0.0
-0.11323 7.97589 0.0
-2.42579 7.71533 0.0
-1.84964 5.19106 0.0
-0.11323 5.3867 0.0
2.42579 7.71533 0.0
0.11323 7.97589 0.0
0.11323 5.3867 0.0
1.84964 5.19106 0.0
4.84317 6.89631 0.0
2.64657 7.66494 0.0
2.07042 5.14067 0.0
3.71976 4.56354 0.0
7.01769 5.55992 0.0
5.0472 6.79806 0.0
3.9238 4.46528 0.0
5.40336 3.53561 0.0
8.84032 3.77315 0.0
7.19475 5.41872 0.0
5.58042 3.39441 0.0
6.81601 2.15882 0.0
10.2197 1.62561 0.0
8.98152 3.59609 0.0
6.95721 1.98176 0.0
7.88688 0.502213 0.0
11.0865 -0.774609 0.0
10.3179 1.4216 0.0
7.98513 0.298205 0.0
8.56222 -1.35064 0.0
8.61274 -1.57068 0.0
8.81002 -3.2944 0.0
11.3992 -3.29436 0.0
11.137 -0.994649 0.0
</DataArray>
</Points>
<Cells>
<DataArray type="Int32" Name="connectivity" format="ascii">
0 1 2 3 
4 5 6 7 
8 9 10 11 
12 13 14 15 
16 17 18 19 
20 21 22 23 
24 25 26 27 
28 29 30 31 
32 33 34 35 
36 37 38 39 
40 41 42 43 
44 45 46 47 
48 49 50 51 
52 53 54 55 
56 57 58 59 
60 61 62 63 
64 65 66 67 
68 69 70 71 
72 73 74 75 
76 77 78 79 
80 81 82 83 
84 85 86 87 
88 89 90 91 
92 93 94 95 
96 97 98 99 
100 101 102 103 
104 105 106 107 
108 109 110 111 
112 113 114 115 
116 117 118 119 
120 121 122 123 
124 125 126 127 
128 129 130 131 
132 133 134 135 
136 137 138 139 
140 141 142 143 
144 145 146 147 
148 149 150 151 
152 153 154 155 
156 157 158 159 
160 161 162 163 
164 165 166 167 
168 169 170 171 
172 173 174 175 
176 177 178 179 
180 181 182 183 
184 185 186 187 
188 189 190 191 
192 193 194 195 
196 197 198 199 
200 201 202 203 
204 205 206 207 
208 209 210 211 
212 213 214 215 
216 217 218 219 
220 221 222 223 
</DataArray>
<DataArray type="Int32" Name="offsets" format="ascii">
4 8 12 16 20 24 28 32 36 40 44 48 52 56 60 64 68 72 76 80 84 88 92 96 100 104 108 112 116 120 124 128 132 136 140 144 148 152 156 160 164 168 172 176 180 184 188 192 196 200 204 208 212 216 220 224 
</DataArray>
<DataArray type="UInt8" Name="types" format="ascii">
7 7 7 7 7 7 7 7 7 7 7 7 7 7 7 7 7 7 7 7 7 7 7 7 7 7 7 7 7 7 7 7 7 7 7 7 7 7 7 7 7 7 7 7 7 7 7 7 7 7 7 7 7 7 7 7 
</DataArray>
</Cells>
<CellData Scalars="cell variable 4" Vectors="cell vector">
<DataArray type="Float64" NumberOfComponents="3" Name="cell vector" format="ascii">
0.9 2 0
0.9 2 0
0.9 2 0
0.9 2 0
0.9 2 0
0.9 2 0
0.9 2 0
0.9 2 0
0.9 2 0
0.9 2 0
0.9 2 0
0.9 2 0
0.9 2 0
0.9 2 0
0.9 0 0
0.9 0 0
0.9 0 0
0.9 0 0
0.9 0 0
0.9 0 0
0.9 0 0
0.9 0 0
0.9 0 0
0.9 0 0
0.9 0 0
0.9 0 0
0.9 0 0
0.9 0 0
0.9 0 0
0.9 0 0
0.9 0 0
0.9 0 0
0.9 0 0
0.9 0 0
0.9 0 0
0.9 0 0
0.9 0 0
0.9 0 0
0.9 0 0
0.9 0 0
0.9 0 0
0.9 0 0
0.9 1 0.742424
0.9 1 0.742424
0.9 1 0.742424
0.9 1 0.742424
0.9 1 0.742424
0.9 1 0.742424
0.9 1 0.742424
0.9 1 0.742424
0.9 1 0.742424
0.9 1 0.742424
0.9 1 0.742424
0.9 1 0.742424
0.9 1 0.742424
0.9 1 0.742424
</DataArray>
<DataArray type="Float64" Name="cell vector length" format="ascii">
0.000932879 0.000932814 0.00093261 0.000932575 0.000932571 0.000932571 0.000932571 0.000932571 0.000932571 0.000932571 0.000932575 0.00093261 0.000932814 0.000932879 0.0123675 0.0123661 0.012361 0.0123603 0.0123602 0.0123602 0.0123602 0.0123602 0.0123602 0.0123602 0.0123603 0.012361 0.0123661 0.0123675 0.0936771 0.0936681 0.0935717 0.0935609 0.09356 0.09356 0.09356 0.09356 0.09356 0.09356 0.0935609 0.0935717 0.0936681 0.0936771 0.564458 0.568156 0.566615 0.566503 0.566497 0.566496 0.566496 0.566496 0.566496 0.566497 0.566503 0.566615 0.568156 0.564458 
</DataArray>
<DataArray type="Float64" Name="cell variable 4" format="ascii">
0.0614278 0.0614114 0.0614114 0.0614114 0.0614114 0.0614114 0.0614114 0.0614114 0.0614114 0.0614114 0.0614114 0.0614114 0.0614114 0.0614278 0.060745 0.0605065 0.060507 0.0605071 0.0605071 0.0605071 0.0605071 0.0605071 0.0605071 0.0605071 0.0605071 0.060507 0.0605065 0.060745 0.0601895 0.0582838 0.0582877 0.0582885 0.0582886 0.0582886 0.0582886 0.0582886 0.0582886 0.0582886 0.0582885 0.0582877 0.0582838 0.0601895 0.151589 0.131866 0.131721 0.131732 0.131733 0.131733 0.131733 0.131733 0.131733 0.131733 0.131732 0.131721 0.131866 0.151589 
</DataArray>
</CellData>
</Piece>
</UnstructuredGrid>
</VTKFile>
