<VTKFile type="UnstructuredGrid" version="0.1">
<UnstructuredGrid>
<Piece  NumberOfPoints="     306" NumberOfCells="      70">
<Points>
<DataArray type="Float64" NumberOfComponents="3" format="ascii">
-0.641205 -5.50907 0.0
-0.602994 -5.4946 0.0
-3.56104 -4.75572 0.0
-3.65514 -5.44894 0.0
-0.541789 -5.42894 0.0
-3.29662 -4.00116 0.0
-3.54567 -4.7046 0.0
-0.587626 -5.44347 0.0
-0.463132 -5.36715 0.0
-2.86822 -3.31284 0.0
-3.26995 -3.95261 0.0
-0.515115 -5.38039 0.0
-0.369752 -5.3141 0.0
-2.2963 -2.73478 0.0
-2.83145 -3.27082 0.0
-0.426365 -5.32513 0.0
-0.264861 -5.27258 0.0
-1.60963 -2.29769 0.0
-2.25127 -2.70148 0.0
-0.324729 -5.2808 0.0
-0.151792 -5.24447 0.0
-0.842706 -2.02381 0.0
-1.55849 -2.27463 0.0
-0.213715 -5.24952 0.0
-0.0339594 -5.23098 0.0
-0.0339594 -1.92697 0.0
-0.787789 -2.01202 0.0
-0.0968743 -5.23268 0.0
0.0851473 -5.23268 0.0
0.776062 -2.01202 0.0
0.0222324 -1.92697 0.0
0.0222324 -5.23098 0.0
0.201988 -5.24952 0.0
1.54676 -2.27463 0.0
0.830979 -2.02381 0.0
0.140065 -5.24447 0.0
0.313002 -5.2808 0.0
2.23955 -2.70148 0.0
1.59791 -2.29769 0.0
0.253134 -5.27258 0.0
0.414638 -5.32513 0.0
2.81973 -3.27082 0.0
2.28457 -2.73478 0.0
0.358025 -5.3141 0.0
0.503388 -5.38039 0.0
3.25822 -3.95261 0.0
2.85649 -3.31284 0.0
0.451405 -5.36715 0.0
0.575899 -5.44347 0.0
3.53395 -4.7046 0.0
3.28489 -4.00116 0.0
0.530062 -5.42894 0.0
0.629478 -5.50907 0.0
3.64341 -5.44894 0.0
3.54931 -4.75572 0.0
0.591267 -5.4946 0.0
-3.97655 -5.41023 0.0
-3.88245 -4.71702 0.0
-7.19041 -3.96509 0.0
-7.37093 -5.40236 0.0
-3.85229 -4.59423 0.0
-3.60324 -3.89079 0.0
-6.6593 -2.41785 0.0
-7.16026 -3.8423 0.0
-3.54659 -3.77409 0.0
-3.14486 -3.13432 0.0
-5.79563 -1.0172 0.0
-6.60265 -2.30115 0.0
-3.06365 -3.03258 0.0
-2.52849 -2.49654 0.0
-4.64163 0.157321 0.0
-5.71442 -0.915454 0.0
-2.42666 -2.41532 0.0
-1.78502 -2.01153 0.0
-3.25515 1.04574 0.0
-4.53979 0.238537 0.0
-1.66765 -1.95499 0.0
-0.951862 -1.70417 0.0
-1.7057 1.60338 0.0
-3.13777 1.10228 0.0
-0.82484 -1.67518 0.0
-0.0710101 -1.59013 0.0
-0.0710105 1.80226 0.0
-1.57868 1.63238 0.0
0.0592831 -1.59013 0.0
0.813113 -1.67518 0.0
1.56695 1.63238 0.0
0.0592827 1.80226 0.0
0.940135 -1.70417 0.0
1.65592 -1.95499 0.0
3.12604 1.10228 0.0
1.69398 1.60338 0.0
1.77329 -2.01153 0.0
2.41493 -2.41532 0.0
4.52807 0.238538 0.0
3.24342 1.04574 0.0
2.51677 -2.49654 0.0
3.05192 -3.03258 0.0
5.70269 -0.915454 0.0
4.6299 0.157322 0.0
3.13313 -3.13432 0.0
3.53486 -3.77409 0.0
6.59092 -2.30115 0.0
5.7839 -1.0172 0.0
3.59151 -3.89079 0.0
3.84057 -4.59423 0.0
7.14853 -3.8423 0.0
6.64757 -2.41785 0.0
3.87072 -4.71702 0.0
3.96482 -5.41023 0.0
7.3592 -5.40236 0.0
7.17869 -3.96509 0.0
-7.55401 -3.92399 0.0
-10.8636 -3.1708 0.0
-11.1288 -5.35872 0.0
-7.73452 -5.36126 0.0
-7.00491 -2.29705 0.0
-10.0637 -0.824526 0.0
-10.8155 -2.9683 0.0
-7.50587 -3.7215 0.0
-6.10575 -0.822249 0.0
-8.76005 1.29431 0.0
-9.97158 -0.633684 0.0
-6.91277 -2.1062 0.0
-4.9006 0.416463 0.0
-7.01728 3.07055 0.0
-8.62769 1.46025 0.0
-5.97339 -0.656311 0.0
-3.44998 1.35603 0.0
-4.92301 4.4146 0.0
-6.8513 3.20291 0.0
-4.73463 0.54882 0.0
-1.82665 1.94924 0.0
-2.58217 5.25891 0.0
-4.73175 4.50671 0.0
-3.25872 1.44814 0.0
-0.112015 2.16636 0.0
-0.11213 5.56116 0.0
-2.3752 5.30615 0.0
-1.61969 1.99648 0.0
1.60795 1.99648 0.0
2.36323 5.3062 0.0
0.100158 5.56116 0.0
0.100274 2.16636 0.0
3.24698 1.44814 0.0
4.7198 4.50681 0.0
2.5702 5.25896 0.0
1.81491 1.94925 0.0
4.72289 0.548829 0.0
6.8394 3.20308 0.0
4.91107 4.41471 0.0
3.43824 1.35603 0.0
5.96165 -0.656302 0.0
8.61574 1.46041 0.0
7.00538 3.07073 0.0
4.88887 0.416474 0.0
6.90103 -2.1062 0.0
9.95968 -0.633487 0.0
8.7481 1.29447 0.0
6.09401 -0.822239 0.0
7.49414 -3.72149 0.0
10.8038 -2.96828 0.0
10.0518 -0.824332 0.0
6.99318 -2.29704 0.0
7.54228 -3.92399 0.0
7.72279 -5.36126 0.0
11.1171 -5.35872 0.0
10.852 -3.17077 0.0
-13.1618 -5.34808 0.0
-11.406 -5.32545 0.0
-11.1408 -3.13753 0.0
-12.8593 -2.73661 0.0
-13.0184 -2.72411 0.0
-12.7897 -2.48103 0.0
-11.0711 -2.88194 0.0
-10.3194 -0.73816 0.0
-11.7585 -0.0591988 0.0
-11.6412 0.186024 0.0
-10.202 -0.492937 0.0
-8.99052 1.43506 0.0
-10.2425 2.4176 0.0
-11.7863 0.283579 0.0
-10.0746 2.63669 0.0
-8.82259 1.65415 0.0
-7.21217 3.26445 0.0
-8.32092 4.6352 0.0
-10.1947 2.7645 0.0
-8.19045 4.9473 0.0
-8.11131 4.80875 0.0
-7.00256 3.43801 0.0
-5.07427 4.6497 0.0
-5.85052 6.23328 0.0
-5.64923 6.50553 0.0
-5.60316 6.35316 0.0
-4.82691 4.76958 0.0
-2.67733 5.52178 0.0
-3.08174 7.23838 0.0
-2.8249 7.45901 0.0
-2.81389 7.30021 0.0
-2.40948 5.5836 0.0
-0.146412 5.83861 0.0
-0.158702 7.60217 0.0
0.14079 7.76012 0.0
0.116185 7.60285 0.0
0.128474 5.83929 0.0
2.39155 5.58433 0.0
2.772 7.3064 0.0
3.09912 7.39375 0.0
3.04014 7.24589 0.0
2.65969 5.52381 0.0
4.80929 4.77166 0.0
5.5634 6.36591 0.0
5.90176 6.37827 0.0
5.81136 6.24725 0.0
5.05725 4.653 0.0
6.98559 3.44138 0.0
8.07554 4.82785 0.0
8.40817 4.76461 0.0
8.29087 4.65699 0.0
7.20092 3.27052 0.0
8.81129 1.6602 0.0
10.1824 2.76935 0.0
10.4927 2.63369 0.0
10.3544 2.55487 0.0
8.9832 1.44572 0.0
10.1948 -0.482239 0.0
11.7784 0.293735 0.0
12.0507 0.0927322 0.0
11.8983 0.0466106 0.0
10.3147 -0.729363 0.0
11.0667 -2.87331 0.0
12.7831 -2.47264 0.0
13.0041 -2.72468 0.0
12.8454 -2.73683 0.0
11.1289 -3.1375 0.0
11.3941 -5.32545 0.0
13.1462 -5.34807 0.0
-11.5444 3.85294 0.0
-10.3227 2.89447 0.0
-8.4489 4.76516 0.0
-8.52804 4.90371 0.0
-9.40884 5.98885 0.0
-9.16275 6.18966 0.0
-8.28195 5.10452 0.0
-5.94203 6.39049 0.0
-5.9881 6.54286 0.0
-6.60527 7.79662 0.0
-6.32062 7.93292 0.0
-5.70345 6.67916 0.0
-3.13595 7.41202 0.0
-3.14696 7.57082 0.0
-3.46967 8.93048 0.0
-3.16183 9.00001 0.0
-2.83912 7.64036 0.0
-0.17292 7.78352 0.0
-0.148315 7.94079 0.0
-0.160388 9.33816 0.0
0.155207 9.33746 0.0
0.167281 7.94008 0.0
2.79849 7.48637 0.0
2.85747 7.63422 0.0
3.15665 8.99925 0.0
3.46417 8.92833 0.0
3.165 7.5633 0.0
5.62927 6.53546 0.0
5.71968 6.66649 0.0
6.3151 7.93072 0.0
6.59913 7.79315 0.0
6.00371 6.52891 0.0
8.17749 4.97849 0.0
8.29479 5.08611 0.0
9.15659 6.18615 0.0
9.4029 5.98883 0.0
8.54109 4.88879 0.0
10.3154 2.89353 0.0
10.4537 2.97235 0.0
11.5386 3.85305 0.0
-13.3424 1.04934 0.0
-11.9375 0.38625 0.0
-10.3937 2.52027 0.0
-10.5138 2.64808 0.0
-11.7355 3.60656 0.0
11.7349 3.60587 0.0
10.6499 2.72518 0.0
11.9356 0.385222 0.0
12.088 0.431344 0.0
13.3417 1.0486 0.0
-13.1194 -2.40331 0.0
-12.9603 -2.41581 0.0
-11.9291 0.00601264 0.0
-12.0743 0.103568 0.0
-13.4792 0.766662 0.0
-14.4769 -2.07989 0.0
13.478 0.764156 0.0
12.2243 0.146903 0.0
12.9567 -2.41847 0.0
13.1154 -2.40631 0.0
14.4754 -2.08232 0.0
-14.9048 -5.31032 0.0
-13.3429 -5.33341 0.0
-13.1995 -2.70944 0.0
-14.5569 -2.38603 0.0
14.5451 -2.38605 0.0
13.1851 -2.71005 0.0
13.3273 -5.33344 0.0
14.8929 -5.31035 0.0
</DataArray>
</Points>
<Cells>
<DataArray type="Int32" Name="connectivity" format="ascii">
0 1 2 3 
4 5 6 7 
8 9 10 11 
12 13 14 15 
16 17 18 19 
20 21 22 23 
24 25 26 27 
28 29 30 31 
32 33 34 35 
36 37 38 39 
40 41 42 43 
44 45 46 47 
48 49 50 51 
52 53 54 55 
56 57 58 59 
60 61 62 63 
64 65 66 67 
68 69 70 71 
72 73 74 75 
76 77 78 79 
80 81 82 83 
84 85 86 87 
88 89 90 91 
92 93 94 95 
96 97 98 99 
100 101 102 103 
104 105 106 107 
108 109 110 111 
112 113 114 115 
116 117 118 119 
120 121 122 123 
124 125 126 127 
128 129 130 131 
132 133 134 135 
136 137 138 139 
140 141 142 143 
144 145 146 147 
148 149 150 151 
152 153 154 155 
156 157 158 159 
160 161 162 163 
164 165 166 167 
168 169 170 171 172 
173 174 175 176 
177 178 179 180 181 
182 183 184 185 186 
187 188 189 190 191 
192 193 194 195 196 
197 198 199 200 201 
202 203 204 205 206 
207 208 209 210 211 
212 213 214 215 216 
217 218 219 220 221 
222 223 224 225 226 
227 228 229 230 231 
232 233 234 235 236 
237 238 239 240 241 
242 243 244 245 246 
247 248 249 250 251 
252 253 254 255 256 
257 258 259 260 261 
262 263 264 265 266 
267 268 269 270 271 
272 273 274 275 276 
277 278 279 280 281 
282 283 284 285 286 
287 288 289 290 291 292 
293 294 295 296 297 
298 299 300 301 
302 303 304 305 
</DataArray>
<DataArray type="Int32" Name="offsets" format="ascii">
4 8 12 16 20 24 28 32 36 40 44 48 52 56 60 64 68 72 76 80 84 88 92 96 100 104 108 112 116 120 124 128 132 136 140 144 148 152 156 160 164 168 173 177 182 187 192 197 202 207 212 217 222 227 232 237 242 247 252 257 262 267 272 277 282 287 293 298 302 306 
</DataArray>
<DataArray type="UInt8" Name="types" format="ascii">
7 7 7 7 7 7 7 7 7 7 7 7 7 7 7 7 7 7 7 7 7 7 7 7 7 7 7 7 7 7 7 7 7 7 7 7 7 7 7 7 7 7 7 7 7 7 7 7 7 7 7 7 7 7 7 7 7 7 7 7 7 7 7 7 7 7 7 7 7 7 
</DataArray>
</Cells>
<CellData Scalars="cell variable 4" Vectors="cell vector">
<DataArray type="Float64" NumberOfComponents="3" Name="cell vector" format="ascii">
0.9 2 0
0.9 2 0
0.9 2 0
0.9 2 0
0.9 2 0
0.9 2 0
0.9 2 0
0.9 2 0
0.9 2 0
0.9 2 0
0.9 2 0
0.9 2 0
0.9 2 0
0.9 2 0
0.9 0 0
0.9 0 0
0.9 0 0
0.9 0 0
0.9 0 0
0.9 0 0
0.9 0 0
0.9 0 0
0.9 0 0
0.9 0 0
0.9 0 0
0.9 0 0
0.9 0 0
0.9 0 0
0.9 0 0
0.9 0 0
0.9 0 0
0.9 0 0
0.9 0 0
0.9 0 0
0.9 0 0
0.9 0 0
0.9 0 0
0.9 0 0
0.9 0 0
0.9 0 0
0.9 0 0
0.9 0 0
0.460645 1 1.18687
0.416097 1 1.18687
0.416184 1 1.18687
0.439459 1 1.18687
0.460584 1 1.18687
0.460584 1 1.18687
0.460584 1 1.18687
0.460584 1 1.18687
0.460584 1 1.18687
0.460584 1 1.18687
0.460584 1 1.18687
0.46058 1 1.18687
0.460522 1 1.18687
0.459731 1 1.18687
0.460541 1 1.18687
0.439416 1 1.18687
0.439416 1 1.18687
0.439416 1 1.18687
0.439416 1 1.18687
0.439416 1 1.18687
0.439416 1 1.18687
0.439416 1 1.18687
0.483816 1 1.18687
0.43942 1 1.18687
0.483903 1 1.18687
0.439478 1 1.18687
0.439355 1 1.18687
0.440269 1 1.18687
</DataArray>
<DataArray type="Float64" Name="cell vector length" format="ascii">
0.00790788 0.00794783 0.00785414 0.0078097 0.00779924 0.00779747 0.00779723 0.00779722 0.00779738 0.00779865 0.00780653 0.00784312 0.00793879 0.00790991 0.0997765 0.100838 0.099192 0.0984184 0.0982442 0.0982156 0.0982117 0.0982115 0.0982139 0.098233 0.0983562 0.098962 0.10069 0.0998448 0.507769 0.530114 0.515774 0.508656 0.507224 0.507003 0.506974 0.506972 0.506988 0.50712 0.508037 0.513089 0.529881 0.509078 1.53143 1.65752 1.7815 1.73599 1.72793 1.72682 1.72668 1.72667 1.72674 1.72736 1.73205 1.75984 1.83837 1.54826 1.8276 1.82439 1.82394 1.82388 1.8239 1.82409 1.82564 1.83669 1.85211 1.89481 2.12963 2.02483 1.54251 1.5757 
</DataArray>
<DataArray type="Float64" Name="cell variable 4" format="ascii">
0.0257647 0.0255981 0.0255999 0.0256014 0.0256019 0.0256019 0.025602 0.025602 0.0256019 0.0256019 0.0256016 0.0256005 0.0255985 0.0257646 0.0427674 0.0406662 0.0405526 0.0405318 0.0405305 0.0405306 0.0405307 0.0405307 0.0405306 0.0405306 0.0405322 0.0405504 0.040657 0.0427667 0.114007 0.101023 0.098176 0.0979629 0.0979718 0.0979769 0.0979779 0.097978 0.0979774 0.0979741 0.0979661 0.0980727 0.0997913 0.11401 0.245399 0.260094 0.221667 0.219503 0.219621 0.219656 0.219661 0.219662 0.219659 0.219641 0.219587 0.220351 0.229911 0.245171 0.251809 0.251909 0.251924 0.251926 0.251925 0.251916 0.251855 0.251706 0.250207 0.254163 0.245841 0.27902 0.358624 0.364705 
</DataArray>
</CellData>
</Piece>
</UnstructuredGrid>
</VTKFile>
