<VTKFile type="UnstructuredGrid" version="0.1">
<UnstructuredGrid>
<Piece  NumberOfPoints="     299" NumberOfCells="     224">
<Points>
<DataArray type="Float64" NumberOfComponents="3" format="ascii">
-0.305047 -3.50487 0 
-0.266114 -3.50044 0 
-0.224661 -3.49634 0 
-0.18143 -3.49279 0 
-0.136978 -3.48993 0 
-0.0917197 -3.48784 0 
-0.0459745 -3.48657 0 
-5.51621e-15 -3.48614 0 
0.0459745 -3.48657 0 
0.0917197 -3.48784 0 
0.136978 -3.48993 0 
0.18143 -3.49279 0 
0.224661 -3.49634 0 
0.266114 -3.50044 0 
0.305047 -3.50487 0 
-2.96065 -3.48777 0 
-2.88419 -2.84554 0 
-2.66573 -2.22228 0 
-2.31351 -1.66148 0 
-1.84514 -1.19288 0 
-1.28411 -0.84022 0 
-0.658598 -0.621258 0 
-2.23771e-15 -0.547024 0 
0.658598 -0.621258 0 
1.28411 -0.84022 0 
1.84514 -1.19288 0 
2.31351 -1.66148 0 
2.66573 -2.22228 0 
2.88419 -2.84554 0 
2.96065 -3.48777 0 
-5.92255 -3.48657 0 
-5.77164 -2.18699 0 
-5.33387 -0.93684 0 
-4.62857 0.185601 0 
-3.69116 1.12301 0 
-2.56866 1.82832 0 
-1.31736 2.26617 0 
-1.08132e-14 2.4146 0 
1.31736 2.26617 0 
2.56866 1.82832 0 
3.69116 1.12301 0 
4.62857 0.185601 0 
5.33387 -0.93684 0 
5.77164 -2.18699 0 
5.92255 -3.48657 0 
-8.88428 -3.48615 0 
-8.65916 -1.5283 0 
-8.00232 0.348185 0 
-6.94416 2.03222 0 
-5.53778 3.4386 0 
-3.85372 4.49677 0 
-1.97641 5.15366 0 
-9.54772e-15 5.37635 0 
1.97641 5.15366 0 
3.85372 4.49677 0 
5.53778 3.4386 0 
6.94416 2.03222 0 
8.00232 0.348185 0 
8.65916 -1.5283 0 
8.88428 -3.48615 0 
-11.8274 -3.48608 0 
-11.5285 -0.873585 0 
-10.654 1.62516 0 
-9.24521 3.86725 0 
-7.37281 5.73965 0 
-5.1307 7.14846 0 
-2.63132 8.02303 0 
4.16685e-16 8.31951 0 
2.63132 8.02303 0 
5.1307 7.14846 0 
7.37281 5.73965 0 
9.24521 3.86725 0 
10.654 1.62516 0 
11.5285 -0.873585 0 
11.8274 -3.48608 0 
-0.477628 -3.48233 0.0
-0.442589 -3.47835 0.0
-2.79885 -2.88893 0.0
-2.86767 -3.46694 0.0
-0.393032 -3.43306 0.0
-2.59 -2.2864 0.0
-2.7866 -2.84734 0.0
-0.43034 -3.43675 0.0
-0.332979 -3.39145 0.0
-2.25185 -1.74326 0.0
-2.56885 -2.24798 0.0
-0.371886 -3.39464 0.0
-0.263996 -3.35583 0.0
-1.80134 -1.28849 0.0
-2.22288 -1.71022 0.0
-0.304003 -3.35841 0.0
-0.187871 -3.3278 0.0
-1.26103 -0.944946 0.0
-1.76595 -1.26234 0.0
-0.228603 -3.32969 0.0
-0.106536 -3.30856 0.0
-0.657896 -0.729785 0.0
-1.22086 -0.926851 0.0
-0.147706 -3.30971 0.0
-0.0220511 -3.29893 0.0
-0.0220511 -0.653724 0.0
-0.614789 -0.720534 0.0
-0.0634282 -3.29931 0.0
0.0634282 -3.29931 0.0
0.614789 -0.720534 0.0
0.0220511 -0.653724 0.0
0.0220511 -3.29893 0.0
0.147706 -3.30971 0.0
1.22086 -0.926851 0.0
0.657896 -0.729785 0.0
0.106536 -3.30856 0.0
0.228603 -3.32969 0.0
1.76595 -1.26234 0.0
1.26103 -0.944946 0.0
0.187871 -3.3278 0.0
0.304003 -3.35841 0.0
2.22288 -1.71022 0.0
1.80134 -1.28849 0.0
0.263996 -3.35583 0.0
0.371886 -3.39464 0.0
2.56885 -2.24798 0.0
2.25185 -1.74326 0.0
0.332979 -3.39145 0.0
0.43034 -3.43675 0.0
2.7866 -2.84734 0.0
2.59 -2.2864 0.0
0.393032 -3.43306 0.0
0.477628 -3.48233 0.0
2.86767 -3.46694 0.0
2.79885 -2.88893 0.0
0.442589 -3.47835 0.0
-3.11955 -3.4373 0.0
-3.05074 -2.85929 0.0
-5.64945 -2.26659 0.0
-5.78526 -3.43621 0.0
-3.02764 -2.76036 0.0
-2.83103 -2.19942 0.0
-5.23235 -1.04253 0.0
-5.62635 -2.16766 0.0
-2.78656 -2.10721 0.0
-2.46956 -1.60249 0.0
-4.55311 0.0598772 0.0
-5.18788 -0.95032 0.0
-2.40569 -1.5224 0.0
-1.98415 -1.10067 0.0
-3.64557 0.983634 0.0
-4.48924 0.139968 0.0
-1.90405 -1.03679 0.0
-1.39913 -0.719392 0.0
-2.55522 1.6823 0.0
-3.56547 1.04751 0.0
-1.30682 -0.674936 0.0
-0.743856 -0.47787 0.0
-1.33674 2.12082 0.0
-2.46292 1.72675 0.0
-0.643967 -0.45507 0.0
-0.0512293 -0.388259 0.0
-0.0512293 2.2772 0.0
-1.23685 2.14362 0.0
0.0512293 -0.388259 0.0
0.643967 -0.45507 0.0
1.23685 2.14362 0.0
0.0512293 2.2772 0.0
0.743856 -0.47787 0.0
1.30682 -0.674936 0.0
2.46292 1.72675 0.0
1.33674 2.12082 0.0
1.39913 -0.719392 0.0
1.90405 -1.03679 0.0
3.56547 1.04751 0.0
2.55522 1.6823 0.0
1.98415 -1.10067 0.0
2.40569 -1.5224 0.0
4.48924 0.139968 0.0
3.64557 0.983634 0.0
2.46956 -1.60249 0.0
2.78656 -2.10721 0.0
5.18788 -0.95032 0.0
4.55311 0.0598772 0.0
2.83103 -2.19942 0.0
3.02764 -2.76036 0.0
5.62635 -2.16766 0.0
5.23235 -1.04253 0.0
3.05074 -2.85929 0.0
3.11955 -3.4373 0.0
5.78526 -3.43621 0.0
5.64945 -2.26659 0.0
-5.93526 -2.23437 0.0
-8.53403 -1.64155 0.0
-8.73664 -3.40362 0.0
-6.07108 -3.40399 0.0
-5.50393 -0.947509 0.0
-7.90553 0.209013 0.0
-8.49669 -1.47982 0.0
-5.89793 -2.07264 0.0
-4.79675 0.212992 0.0
-6.88078 1.87495 0.0
-7.83312 0.359318 0.0
-5.43151 -0.797205 0.0
-3.84903 1.18713 0.0
-5.51099 3.27116 0.0
-6.77672 2.00543 0.0
-4.6927 0.343467 0.0
-2.7083 1.92597 0.0
-3.86485 4.32757 0.0
-5.38051 3.37522 0.0
-3.71855 1.29118 0.0
-1.43177 2.39244 0.0
-2.02492 4.99118 0.0
-3.71449 4.39998 0.0
-2.55794 1.99838 0.0
-0.0834432 2.56316 0.0
-0.0834432 5.22874 0.0
-1.86221 5.02832 0.0
-1.26907 2.42958 0.0
1.26907 2.42958 0.0
1.86221 5.02832 0.0
0.0834432 5.22874 0.0
0.0834432 2.56316 0.0
2.55794 1.99838 0.0
3.71449 4.39998 0.0
2.02492 4.99118 0.0
1.43177 2.39244 0.0
3.71855 1.29118 0.0
5.38051 3.37522 0.0
3.86485 4.32757 0.0
2.7083 1.92597 0.0
4.6927 0.343467 0.0
6.77672 2.00543 0.0
5.51099 3.27116 0.0
3.84903 1.18713 0.0
5.43151 -0.797205 0.0
7.83312 0.359318 0.0
6.88078 1.87495 0.0
4.79675 0.212992 0.0
5.89793 -2.07264 0.0
8.49669 -1.47982 0.0
7.90553 0.209013 0.0
5.50393 -0.947509 0.0
5.93526 -2.23437 0.0
6.07108 -3.40399 0.0
8.73664 -3.40362 0.0
8.53403 -1.64155 0.0
-11.4051 -1.01979 0.0
-11.6741 -3.37104 0.0
-9.02527 -3.3711 0.0
-8.82266 -1.60903 0.0
-10.5663 1.45422 0.0
-11.3533 -0.79465 0.0
-8.77089 -1.38389 0.0
-8.17973 0.304943 0.0
-9.1977 3.68103 0.0
-10.4656 1.66315 0.0
-8.0791 0.513873 0.0
-7.12675 2.02951 0.0
-7.36793 5.54753 0.0
-9.05309 3.86236 0.0
-6.98214 2.21084 0.0
-5.7164 3.47658 0.0
-5.16869 6.96006 0.0
-7.18659 5.69214 0.0
-5.53507 3.62119 0.0
-4.01941 4.57354 0.0
-2.71028 7.84781 0.0
-4.95973 7.0607 0.0
-3.81044 4.67418 0.0
-2.12086 5.26538 0.0
-0.115969 8.16625 0.0
-2.48416 7.89942 0.0
-1.89474 5.317 0.0
-0.115969 5.51741 0.0
2.48416 7.89942 0.0
0.115969 8.16625 0.0
0.115969 5.51741 0.0
1.89474 5.317 0.0
4.95973 7.0607 0.0
2.71028 7.84781 0.0
2.12086 5.26538 0.0
3.81044 4.67418 0.0
7.18659 5.69214 0.0
5.16869 6.96006 0.0
4.01941 4.57354 0.0
5.53507 3.62119 0.0
9.05309 3.86236 0.0
7.36793 5.54753 0.0
5.7164 3.47658 0.0
6.98214 2.21084 0.0
10.4656 1.66315 0.0
9.1977 3.68103 0.0
7.12675 2.02951 0.0
8.0791 0.513873 0.0
11.3533 -0.79465 0.0
10.5663 1.45422 0.0
8.17973 0.304943 0.0
8.77089 -1.38389 0.0
8.82266 -1.60903 0.0
9.02527 -3.3711 0.0
11.6741 -3.37104 0.0
11.4051 -1.01979 0.0
</DataArray>
</Points>
<Cells>
<DataArray type="Int32" Name="connectivity" format="ascii">
0 1 76 75 1 16 77 76 16 15 78 77 15 0 75 78 2 17 80 79 17 16 81 80 16 1 82 81 1 2 79 82 3 18 84 83 18 17 85 84 17 2 86 85 2 3 83 86 4 19 88 87 19 18 89 88 18 3 90 89 3 4 87 90 5 20 92 91 20 19 93 92 19 4 94 93 4 5 91 94 6 21 96 95 21 20 97 96 20 5 98 97 5 6 95 98 7 22 100 99 22 21 101 100 21 6 102 101 6 7 99 102 8 23 104 103 23 22 105 104 22 7 106 105 7 8 103 106 9 24 108 107 24 23 109 108 23 8 110 109 8 9 107 110 10 25 112 111 25 24 113 112 24 9 114 113 9 10 111 114 11 26 116 115 26 25 117 116 25 10 118 117 10 11 115 118 12 27 120 119 27 26 121 120 26 11 122 121 11 12 119 122 13 28 124 123 28 27 125 124 27 12 126 125 12 13 123 126 14 29 128 127 29 28 129 128 28 13 130 129 13 14 127 130 15 16 132 131 16 31 133 132 31 30 134 133 30 15 131 134 16 17 136 135 17 32 137 136 32 31 138 137 31 16 135 138 17 18 140 139 18 33 141 140 33 32 142 141 32 17 139 142 18 19 144 143 19 34 145 144 34 33 146 145 33 18 143 146 19 20 148 147 20 35 149 148 35 34 150 149 34 19 147 150 20 21 152 151 21 36 153 152 36 35 154 153 35 20 151 154 21 22 156 155 22 37 157 156 37 36 158 157 36 21 155 158 22 23 160 159 23 38 161 160 38 37 162 161 37 22 159 162 23 24 164 163 24 39 165 164 39 38 166 165 38 23 163 166 24 25 168 167 25 40 169 168 40 39 170 169 39 24 167 170 25 26 172 171 26 41 173 172 41 40 174 173 40 25 171 174 26 27 176 175 27 42 177 176 42 41 178 177 41 26 175 178 27 28 180 179 28 43 181 180 43 42 182 181 42 27 179 182 28 29 184 183 29 44 185 184 44 43 186 185 43 28 183 186 31 46 188 187 46 45 189 188 45 30 190 189 30 31 187 190 32 47 192 191 47 46 193 192 46 31 194 193 31 32 191 194 33 48 196 195 48 47 197 196 47 32 198 197 32 33 195 198 34 49 200 199 49 48 201 200 48 33 202 201 33 34 199 202 35 50 204 203 50 49 205 204 49 34 206 205 34 35 203 206 36 51 208 207 51 50 209 208 50 35 210 209 35 36 207 210 37 52 212 211 52 51 213 212 51 36 214 213 36 37 211 214 38 53 216 215 53 52 217 216 52 37 218 217 37 38 215 218 39 54 220 219 54 53 221 220 53 38 222 221 38 39 219 222 40 55 224 223 55 54 225 224 54 39 226 225 39 40 223 226 41 56 228 227 56 55 229 228 55 40 230 229 40 41 227 230 42 57 232 231 57 56 233 232 56 41 234 233 41 42 231 234 43 58 236 235 58 57 237 236 57 42 238 237 42 43 235 238 43 44 240 239 44 59 241 240 59 58 242 241 58 43 239 242 61 60 244 243 60 45 245 244 45 46 246 245 46 61 243 246 62 61 248 247 61 46 249 248 46 47 250 249 47 62 247 250 63 62 252 251 62 47 253 252 47 48 254 253 48 63 251 254 64 63 256 255 63 48 257 256 48 49 258 257 49 64 255 258 65 64 260 259 64 49 261 260 49 50 262 261 50 65 259 262 66 65 264 263 65 50 265 264 50 51 266 265 51 66 263 266 67 66 268 267 66 51 269 268 51 52 270 269 52 67 267 270 68 67 272 271 67 52 273 272 52 53 274 273 53 68 271 274 69 68 276 275 68 53 277 276 53 54 278 277 54 69 275 278 70 69 280 279 69 54 281 280 54 55 282 281 55 70 279 282 71 70 284 283 70 55 285 284 55 56 286 285 56 71 283 286 72 71 288 287 71 56 289 288 56 57 290 289 57 72 287 290 73 72 292 291 72 57 293 292 57 58 294 293 58 73 291 294 58 59 296 295 59 74 297 296 74 73 298 297 73 58 295 298 
</DataArray>
<DataArray type="Int32" Name="offsets" format="ascii">
4 8 12 16 20 24 28 32 36 40 44 48 52 56 60 64 68 72 76 80 84 88 92 96 100 104 108 112 116 120 124 128 132 136 140 144 148 152 156 160 164 168 172 176 180 184 188 192 196 200 204 208 212 216 220 224 228 232 236 240 244 248 252 256 260 264 268 272 276 280 284 288 292 296 300 304 308 312 316 320 324 328 332 336 340 344 348 352 356 360 364 368 372 376 380 384 388 392 396 400 404 408 412 416 420 424 428 432 436 440 444 448 452 456 460 464 468 472 476 480 484 488 492 496 500 504 508 512 516 520 524 528 532 536 540 544 548 552 556 560 564 568 572 576 580 584 588 592 596 600 604 608 612 616 620 624 628 632 636 640 644 648 652 656 660 664 668 672 676 680 684 688 692 696 700 704 708 712 716 720 724 728 732 736 740 744 748 752 756 760 764 768 772 776 780 784 788 792 796 800 804 808 812 816 820 824 828 832 836 840 844 848 852 856 860 864 868 872 876 880 884 888 892 896 
</DataArray>
<DataArray type="UInt8" Name="types" format="ascii">
7 7 7 7 7 7 7 7 7 7 7 7 7 7 7 7 7 7 7 7 7 7 7 7 7 7 7 7 7 7 7 7 7 7 7 7 7 7 7 7 7 7 7 7 7 7 7 7 7 7 7 7 7 7 7 7 7 7 7 7 7 7 7 7 7 7 7 7 7 7 7 7 7 7 7 7 7 7 7 7 7 7 7 7 7 7 7 7 7 7 7 7 7 7 7 7 7 7 7 7 7 7 7 7 7 7 7 7 7 7 7 7 7 7 7 7 7 7 7 7 7 7 7 7 7 7 7 7 7 7 7 7 7 7 7 7 7 7 7 7 7 7 7 7 7 7 7 7 7 7 7 7 7 7 7 7 7 7 7 7 7 7 7 7 7 7 7 7 7 7 7 7 7 7 7 7 7 7 7 7 7 7 7 7 7 7 7 7 7 7 7 7 7 7 7 7 7 7 7 7 7 7 7 7 7 7 7 7 7 7 7 7 7 7 7 7 7 7 7 7 7 7 7 7 
</DataArray>
</Cells>
<CellData Scalars="wall variable 0">
<DataArray type="Float64" Name="wall length" format="ascii">
0.036819 2.41778 0.587597 2.37545 2.46864 0.591001 2.41778 0.0375323 2.52065 0.591371 2.46864 0.0379905 2.56765 0.59143 2.52065 0.0382826 2.60476 0.591457 2.56765 0.0384646 2.62843 0.591474 2.60476 0.0385706 2.63655 0.591482 2.62843 0.0386194 2.62843 0.591482 2.63655 0.0386194 2.60476 0.591474 2.62843 0.0385706 2.56765 0.591457 2.60476 0.0384646 2.52065 0.59143 2.56765 0.0382826 2.46864 0.591371 2.52065 0.0379905 2.41778 0.591001 2.46864 0.0375323 2.37545 0.587597 2.41778 0.036819 0.587597 2.64188 1.17888 2.64194 0.591001 2.64189 1.1828 2.64188 0.591371 2.64188 1.18301 2.64189 0.59143 2.64188 1.18301 2.64188 0.591457 2.64188 1.18301 2.64188 0.591474 2.64188 1.18301 2.64188 0.591482 2.64188 1.18301 2.64188 0.591482 2.64188 1.18301 2.64188 0.591474 2.64188 1.18301 2.64188 0.591457 2.64188 1.18301 2.64188 0.59143 2.64188 1.18301 2.64188 0.591371 2.64189 1.18301 2.64188 0.591001 2.64188 1.1828 2.64189 0.587597 2.64194 1.17888 2.64188 2.6419 1.77033 2.6419 1.17888 2.64191 1.77446 2.6419 1.1828 2.64191 1.77461 2.64191 1.18301 2.64191 1.77461 2.64191 1.18301 2.64191 1.77461 2.64191 1.18301 2.64191 1.77461 2.64191 1.18301 2.64191 1.77461 2.64191 1.18301 2.64191 1.77461 2.64191 1.18301 2.64191 1.77461 2.64191 1.18301 2.64191 1.77461 2.64191 1.18301 2.64191 1.77461 2.64191 1.18301 2.64191 1.77461 2.64191 1.18301 2.6419 1.77446 2.64191 1.1828 1.17888 2.6419 1.77033 2.6419 2.3609 2.63752 1.77033 2.63752 2.36512 2.63752 1.77446 2.63752 2.36523 2.63752 1.77461 2.63752 2.36523 2.63752 1.77461 2.63752 2.36523 2.63752 1.77461 2.63752 2.36523 2.63752 1.77461 2.63752 2.36523 2.63752 1.77461 2.63752 2.36523 2.63752 1.77461 2.63752 2.36523 2.63752 1.77461 2.63752 2.36523 2.63752 1.77461 2.63752 2.36523 2.63752 1.77461 2.63752 2.36523 2.63752 1.77461 2.63752 2.36512 2.63752 1.77446 2.63752 1.77033 2.63752 2.3609 2.63752 
</DataArray>
<DataArray type="Float64" Name="wall variable 0" format="ascii">
0 1.78256e-05 0.000252275 0 1.78183e-05 0.000252202 1.78228e-05 0 1.78177e-05 0.000252118 1.78217e-05 0 1.78177e-05 0.000252106 1.78183e-05 0 1.78177e-05 0.000252105 1.78177e-05 0 1.78177e-05 0.000252105 1.78177e-05 0 1.78177e-05 0.000252105 1.78177e-05 0 1.78177e-05 0.000252105 1.78177e-05 0 1.78177e-05 0.000252105 1.78177e-05 0 1.78177e-05 0.000252105 1.78177e-05 0 1.78183e-05 0.000252106 1.78177e-05 0 1.78217e-05 0.000252118 1.78177e-05 0 1.78228e-05 0.000252202 1.78183e-05 0 0 0.000252275 1.78256e-05 0 1.76669e-05 0.000250064 0.00211233 0 1.76099e-05 0.000249239 0.00210672 0.000249344 1.76067e-05 0.000249228 0.0021053 0.000249323 1.76061e-05 0.000249228 0.00210515 0.000249241 1.7606e-05 0.000249228 0.00210513 0.000249229 1.7606e-05 0.000249228 0.00210513 0.000249228 1.7606e-05 0.000249228 0.00210513 0.000249228 1.7606e-05 0.000249228 0.00210513 0.000249228 1.7606e-05 0.000249228 0.00210513 0.000249228 1.7606e-05 0.000249229 0.00210513 0.000249228 1.76061e-05 0.000249241 0.00210515 0.000249228 1.76067e-05 0.000249323 0.0021053 0.000249228 1.76099e-05 0.000249344 0.00210672 0.000249239 1.76669e-05 0 0.00211233 0.000250064 0.00207669 0.0129269 0 0.000246729 0.00202974 0.0127281 0.00203126 0.000240656 0.00202966 0.0127135 0.00203121 0.000240587 0.00202967 0.0127126 0.00202984 0.000240578 0.00202967 0.0127125 0.00202968 0.000240577 0.00202967 0.0127125 0.00202967 0.000240577 0.00202967 0.0127125 0.00202967 0.000240577 0.00202967 0.0127125 0.00202967 0.000240577 0.00202967 0.0127125 0.00202967 0.000240577 0.00202968 0.0127125 0.00202967 0.000240577 0.00202984 0.0127126 0.00202967 0.000240578 0.00203121 0.0127135 0.00202966 0.000240587 0.00203126 0.0127281 0.00202974 0.000240656 0.000246729 0 0.0129269 0.00207669 0 0 0.00415446 0.0239853 0 0.0216569 0.00373179 0.0217015 0 0.0217178 0.00372575 0.0216842 0 0.0216876 0.00372564 0.0216851 0 0.0216854 0.00372562 0.0216852 0 0.0216852 0.00372562 0.0216852 0 0.0216852 0.00372562 0.0216852 0 0.0216852 0.00372562 0.0216852 0 0.0216852 0.00372562 0.0216852 0 0.0216852 0.00372562 0.0216854 0 0.0216851 0.00372564 0.0216876 0 0.0216842 0.00372575 0.0217178 0 0.0217015 0.00373179 0.0216569 0.00415446 0 0 0.0239853 
</DataArray>
<DataArray type="Float64" Name="wall variable 1" format="ascii">
0.5 0.328887 0.328887 0.5 0.328887 0.328887 0.5 0.5 0.328887 0.328887 0.5 0.5 0.328887 0.328887 0.5 0.5 0.328887 0.328887 0.5 0.5 0.328887 0.328887 0.5 0.5 0.328887 0.328887 0.5 0.5 0.328887 0.328887 0.5 0.5 0.328887 0.328887 0.5 0.5 0.328887 0.328887 0.5 0.5 0.328887 0.328887 0.5 0.5 0.328887 0.328887 0.5 0.5 0.328887 0.328887 0.5 0.5 0.5 0.328887 0.5 0.5 0.5 0.328887 0.328887 0.5 0.5 0.328887 0.328887 0.5 0.5 0.328887 0.328887 0.5 0.5 0.328887 0.328887 0.5 0.5 0.328887 0.328887 0.5 0.5 0.328887 0.328887 0.5 0.5 0.328887 0.328887 0.5 0.5 0.328887 0.328887 0.5 0.5 0.328887 0.328887 0.5 0.5 0.328887 0.328887 0.5 0.5 0.328887 0.328887 0.5 0.5 0.328887 0.328887 0.5 0.5 0.328887 0.328887 0.5 0.5 0.5 0.328887 0.5 0.328887 0.328896 0.5 0.5 0.328887 0.328897 0.5 0.5 0.328887 0.328897 0.5 0.5 0.328887 0.328897 0.5 0.5 0.328887 0.328897 0.5 0.5 0.328887 0.328897 0.5 0.5 0.328887 0.328897 0.5 0.5 0.328887 0.328897 0.5 0.5 0.328887 0.328897 0.5 0.5 0.328887 0.328897 0.5 0.5 0.328887 0.328897 0.5 0.5 0.328887 0.328897 0.5 0.5 0.328887 0.328897 0.5 0.5 0.5 0.5 0.328896 0.5 0.5 0.5 0.5 0.328887 0.5 0.5 0.5 0.328887 0.5 0.5 0.5 0.328887 0.5 0.5 0.5 0.328887 0.5 0.5 0.5 0.328887 0.5 0.5 0.5 0.328887 0.5 0.5 0.5 0.328887 0.5 0.5 0.5 0.328887 0.5 0.5 0.5 0.328887 0.5 0.5 0.5 0.328887 0.5 0.5 0.5 0.328887 0.5 0.5 0.5 0.328887 0.5 0.5 0.5 0.328887 0.5 0.5 0.5 0.5 
</DataArray>
<DataArray type="Float64" Name="wall variable 2" format="ascii">
0 6.81639e-12 4.35833e-08 0 5.46697e-12 4.44539e-08 0 0 1.13327e-12 4.44766e-08 0 0 1.37468e-13 4.44789e-08 0 0 1.24221e-14 4.4479e-08 0 0 9.13974e-16 4.4479e-08 0 0 0 4.4479e-08 0 0 0 4.4479e-08 0 0 0 4.4479e-08 9.13974e-16 0 0 4.4479e-08 1.24221e-14 0 0 4.44789e-08 1.37468e-13 0 0 4.44766e-08 1.13327e-12 0 0 4.44539e-08 5.46697e-12 0 0 4.35833e-08 6.81639e-12 0 0 1.28695e-08 9.28538e-06 0 0 1.75359e-09 9.82887e-06 0 0 3.12751e-10 9.82896e-06 0 0 3.41667e-11 9.82833e-06 0 0 2.86645e-12 9.82823e-06 0 0 1.99936e-13 9.82822e-06 0 0 0 9.82822e-06 0 0 0 9.82822e-06 0 0 0 9.82822e-06 1.99936e-13 0 0 9.82823e-06 2.86645e-12 0 0 9.82833e-06 3.41667e-11 0 0 9.82896e-06 3.12751e-10 0 0 9.82887e-06 1.75359e-09 0 0 9.28538e-06 1.28695e-08 4.82123e-06 0 0 0 2.09309e-07 0 0 0 2.75619e-08 0 0 0 2.51591e-09 0 0 0 1.87925e-10 0 0 0 1.21465e-11 0 0 0 0 0 0 0 0 0 0 0 0 0 1.21465e-11 0 0 0 1.87925e-10 0 0 0 2.51591e-09 0 0 0 2.75619e-08 0 0 0 2.09309e-07 0 0 0 0 4.82123e-06 0 0 0.000280253 0.000861527 0 0 0.000144435 1.83621e-05 0 0 0.000141586 7.67536e-07 0 0 0.000141571 5.48538e-08 0 0 0.000141574 3.818e-09 0 0 0.000141574 2.42386e-10 0 0 0.000141574 0 0 0 0.000141574 0 0 2.42386e-10 0.000141574 0 0 3.818e-09 0.000141574 0 0 5.48538e-08 0.000141571 0 0 7.67536e-07 0.000141586 0 0 1.83621e-05 0.000144435 0 0.000280253 0 0 0.000861527 
</DataArray>
</CellData>
</Piece>
</UnstructuredGrid>
</VTKFile>
