<VTKFile type="UnstructuredGrid" version="0.1">
<UnstructuredGrid>
<Piece  NumberOfPoints="     598" NumberOfCells="     140">
<Points>
<DataArray type="Float64" NumberOfComponents="3" format="ascii">
-0.501229 -5.99904 0.0
-0.484585 -5.98853 0.0
-2.65289 -5.60677 0.0
-2.69219 -5.93662 0.0
-0.457428 -5.95136 0.0
-2.55549 -5.22085 0.0
-2.6468 -5.58137 0.0
-0.478494 -5.96314 0.0
-0.421862 -5.91303 0.0
-2.39694 -4.83907 0.0
-2.54518 -5.19475 0.0
-0.447119 -5.92526 0.0
-0.378463 -5.87627 0.0
-2.17922 -4.48177 0.0
-2.38254 -4.81422 0.0
-0.407456 -5.88818 0.0
-0.328167 -5.84273 0.0
-1.90746 -4.16129 0.0
-2.16108 -4.45918 0.0
-0.360329 -5.85368 0.0
-0.272035 -5.81354 0.0
-1.58845 -3.88663 0.0
-1.88606 -4.14161 0.0
-0.306767 -5.82305 0.0
-0.211155 -5.78954 0.0
-1.23008 -3.66494 0.0
-1.56429 -3.87032 0.0
-0.247878 -5.79724 0.0
-0.146626 -5.77133 0.0
-0.841226 -3.50183 0.0
-1.20372 -3.65238 0.0
-0.184797 -5.77698 0.0
-0.0795517 -5.75935 0.0
-0.4315 -3.40142 0.0
-0.813263 -3.4933 0.0
-0.118663 -5.76279 0.0
-0.0110371 -5.75387 0.0
-0.0110371 -3.36621 0.0
-0.402559 -3.3971 0.0
-0.0506111 -5.75503 0.0
0.0578057 -5.75503 0.0
0.409754 -3.3971 0.0
0.0182317 -3.36621 0.0
0.0182317 -5.75387 0.0
0.125858 -5.76279 0.0
0.820457 -3.4933 0.0
0.438694 -3.40142 0.0
0.0867463 -5.75935 0.0
0.191991 -5.77698 0.0
1.21092 -3.65238 0.0
0.848421 -3.50183 0.0
0.153821 -5.77133 0.0
0.255073 -5.79724 0.0
1.57148 -3.87032 0.0
1.23727 -3.66494 0.0
0.218349 -5.78954 0.0
0.313961 -5.82305 0.0
1.89326 -4.14161 0.0
1.59564 -3.88663 0.0
0.279229 -5.81354 0.0
0.367523 -5.85368 0.0
2.16828 -4.45918 0.0
1.91466 -4.16129 0.0
0.335362 -5.84273 0.0
0.41465 -5.88818 0.0
2.38973 -4.81422 0.0
2.18641 -4.48177 0.0
0.385657 -5.87627 0.0
0.454314 -5.92526 0.0
2.55238 -5.19475 0.0
2.40414 -4.83907 0.0
0.429057 -5.91303 0.0
0.485688 -5.96314 0.0
2.654 -5.58137 0.0
2.56269 -5.22085 0.0
0.464623 -5.95136 0.0
0.508424 -5.99904 0.0
2.69939 -5.93662 0.0
2.66009 -5.60677 0.0
0.49178 -5.98853 0.0
-2.93022 -5.91562 0.0
-2.89092 -5.58577 0.0
-5.35763 -5.1999 0.0
-5.42975 -5.8999 0.0
-2.87924 -5.52409 0.0
-2.78794 -5.16356 0.0
-5.16259 -4.39358 0.0
-5.34595 -5.13822 0.0
-2.76675 -5.10071 0.0
-2.61851 -4.74503 0.0
-4.842 -3.61024 0.0
-5.14141 -4.33073 0.0
-2.5878 -4.68526 0.0
-2.38448 -4.3528 0.0
-4.40216 -2.88307 0.0
-4.8113 -3.55046 0.0
-2.34481 -4.29829 0.0
-2.09119 -4.00039 0.0
-3.85378 -2.23294 0.0
-4.36249 -2.82856 0.0
-2.04347 -3.95268 0.0
-1.74586 -3.6977 0.0
-3.21038 -1.67644 0.0
-3.80606 -2.18522 0.0
-1.69125 -3.65801 0.0
-1.35704 -3.45263 0.0
-2.48781 -1.22741 0.0
-3.15577 -1.63676 0.0
-1.29688 -3.42197 0.0
-0.934382 -3.27142 0.0
-1.70387 -0.896945 0.0
-2.42765 -1.19675 0.0
-0.870159 -3.25055 0.0
-0.488396 -3.15867 0.0
-0.877879 -0.693181 0.0
-1.63965 -0.876071 0.0
-0.421693 -3.1481 0.0
-0.030171 -3.11721 0.0
-0.030171 -0.621144 0.0
-0.811176 -0.682612 0.0
0.0373656 -3.11721 0.0
0.428887 -3.1481 0.0
0.81837 -0.682612 0.0
0.0373656 -0.621144 0.0
0.49559 -3.15867 0.0
0.877354 -3.25055 0.0
1.64684 -0.876071 0.0
0.885073 -0.693181 0.0
0.941577 -3.27142 0.0
1.30407 -3.42197 0.0
2.43484 -1.19675 0.0
1.71107 -0.896945 0.0
1.36423 -3.45263 0.0
1.69844 -3.65801 0.0
3.16296 -1.63676 0.0
2.495 -1.22741 0.0
1.75305 -3.6977 0.0
2.05067 -3.95268 0.0
3.81325 -2.18522 0.0
3.21757 -1.67644 0.0
2.09839 -4.00039 0.0
2.35201 -4.29829 0.0
4.36968 -2.82856 0.0
3.86097 -2.23294 0.0
2.39168 -4.3528 0.0
2.595 -4.68526 0.0
4.81849 -3.55046 0.0
4.40935 -2.88307 0.0
2.6257 -4.74503 0.0
2.77394 -5.10071 0.0
5.1486 -4.33073 0.0
4.8492 -3.61024 0.0
2.79513 -5.16356 0.0
2.88644 -5.52409 0.0
5.35314 -5.13822 0.0
5.16979 -4.39358 0.0
2.89812 -5.58577 0.0
2.93742 -5.91562 0.0
5.43695 -5.8999 0.0
5.36482 -5.1999 0.0
-5.62723 -5.17833 0.0
-8.10139 -4.79083 0.0
-8.20451 -5.8714 0.0
-5.69936 -5.87834 0.0
-5.42566 -4.33076 0.0
-7.80834 -3.55825 0.0
-8.08317 -4.68789 0.0
-5.60902 -5.0754 0.0
-5.09211 -3.50669 0.0
-7.32422 -2.36974 0.0
-7.77419 -3.45468 0.0
-5.39152 -4.22719 0.0
-4.63302 -2.74147 0.0
-6.65963 -1.26904 0.0
-7.27427 -2.27191 0.0
-5.04216 -3.40886 0.0
-4.05965 -2.05689 0.0
-5.83093 -0.285503 0.0
-6.59498 -1.18008 0.0
-4.56836 -2.65251 0.0
-3.38619 -1.47033 0.0
-4.85854 0.556336 0.0
-5.75315 -0.207724 0.0
-3.98187 -1.97911 0.0
-2.62924 -0.996332 0.0
-3.76644 1.2357 0.0
-4.76955 0.620994 0.0
-3.29719 -1.40567 0.0
-1.80745 -0.646584 0.0
-2.5815 1.73586 0.0
-3.66842 1.28564 0.0
-2.53122 -0.946391 0.0
-0.941058 -0.429701 0.0
-1.33291 2.0445 0.0
-2.47688 1.76986 0.0
-1.70283 -0.612591 0.0
-0.0514042 -0.351025 0.0
-0.0514042 2.15401 0.0
-1.22426 2.06171 0.0
-0.832409 -0.412493 0.0
0.839604 -0.412493 0.0
1.23145 2.06171 0.0
0.0585988 2.15401 0.0
0.0585988 -0.351025 0.0
1.71002 -0.612591 0.0
2.48407 1.76986 0.0
1.3401 2.0445 0.0
0.948252 -0.429701 0.0
2.53842 -0.946391 0.0
3.67562 1.28564 0.0
2.58869 1.73586 0.0
1.81464 -0.646584 0.0
3.30439 -1.40567 0.0
4.77675 0.620994 0.0
3.77363 1.2357 0.0
2.63643 -0.996332 0.0
3.98906 -1.97911 0.0
5.76034 -0.207724 0.0
4.86574 0.556336 0.0
3.39338 -1.47033 0.0
4.57556 -2.65251 0.0
6.60217 -1.18008 0.0
5.83812 -0.285503 0.0
4.06685 -2.05689 0.0
5.04935 -3.40886 0.0
7.28146 -2.27191 0.0
6.66683 -1.26904 0.0
4.64021 -2.74147 0.0
5.39871 -4.22719 0.0
7.78139 -3.45468 0.0
7.33142 -2.36974 0.0
5.09931 -3.50669 0.0
5.61621 -5.0754 0.0
8.09037 -4.68789 0.0
7.81553 -3.55825 0.0
5.43286 -4.33076 0.0
5.63442 -5.17833 0.0
5.70655 -5.87834 0.0
8.2117 -5.8714 0.0
8.10858 -4.79083 0.0
-8.37513 -4.76918 0.0
-10.8494 -4.38023 0.0
-10.9833 -5.84572 0.0
-8.47826 -5.84976 0.0
-8.07547 -3.49439 0.0
-10.4581 -2.72106 0.0
-10.8245 -4.23508 0.0
-8.35031 -4.62403 0.0
-7.57811 -2.26466 0.0
-9.81023 -1.12749 0.0
-10.4107 -2.57627 0.0
-8.02808 -3.3496 0.0
-6.89396 -1.12546 0.0
-8.92065 0.346994 0.0
-9.74072 -0.991164 0.0
-7.5086 -2.12833 0.0
-6.03991 -0.107016 0.0
-7.81129 1.66437 0.0
-8.83065 0.470864 0.0
-6.80395 -1.00159 0.0
-5.03703 0.76532 0.0
-6.5095 2.79201 0.0
-7.70302 1.77265 0.0
-5.93163 0.00126011 0.0
-3.91003 1.47004 0.0
-5.04733 3.70211 0.0
-6.38562 2.88201 0.0
-4.91315 0.855326 0.0
-2.68667 1.98977 0.0
-3.46079 4.37228 0.0
-4.91089 3.77163 0.0
-3.77359 1.53955 0.0
-1.39706 2.31174 0.0
-1.78895 4.78601 0.0
-3.31516 4.4196 0.0
-2.54104 2.03709 0.0
-0.0729664 2.428 0.0
-0.0729664 4.93312 0.0
-1.63771 4.80997 0.0
-1.24582 2.33569 0.0
1.25301 2.33569 0.0
1.6449 4.80997 0.0
0.080161 4.93312 0.0
0.080161 2.428 0.0
2.54823 2.03709 0.0
3.32235 4.4196 0.0
1.79614 4.78601 0.0
1.40426 2.31174 0.0
3.78079 1.53955 0.0
4.91809 3.77163 0.0
3.46799 4.37228 0.0
2.69386 1.98977 0.0
4.92034 0.855326 0.0
6.39281 2.88201 0.0
5.05453 3.70211 0.0
3.91723 1.47004 0.0
5.93882 0.00126011 0.0
7.71021 1.77265 0.0
6.51669 2.79201 0.0
5.04422 0.76532 0.0
6.81115 -1.00159 0.0
8.83784 0.470864 0.0
7.81849 1.66437 0.0
6.0471 -0.107016 0.0
7.51579 -2.12833 0.0
9.74791 -0.991164 0.0
8.92785 0.346994 0.0
6.90115 -1.12546 0.0
8.03528 -3.3496 0.0
10.4179 -2.57627 0.0
9.81743 -1.12749 0.0
7.58531 -2.26466 0.0
8.3575 -4.62403 0.0
10.8317 -4.23508 0.0
10.4653 -2.72106 0.0
8.08267 -3.49439 0.0
8.38233 -4.76918 0.0
8.48545 -5.84976 0.0
10.9905 -5.84572 0.0
10.8566 -4.38023 0.0
-11.1239 -4.35858 0.0
-13.5901 -3.97005 0.0
-13.7547 -5.82157 0.0
-11.2578 -5.82407 0.0
-10.726 -2.65692 0.0
-13.1008 -1.88574 0.0
-13.5586 -3.7824 0.0
-11.0924 -4.17094 0.0
-10.0648 -1.02209 0.0
-12.2897 0.111465 0.0
-13.0401 -1.69969 0.0
-10.6653 -2.47087 0.0
-9.15558 0.490953 0.0
-11.1757 1.95865 0.0
-12.2005 0.286354 0.0
-9.97565 -0.847205 0.0
-8.02081 1.84331 0.0
-9.78647 3.60897 0.0
-11.0603 2.11751 0.0
-9.04017 0.649808 0.0
-6.68844 3.00152 0.0
-8.15615 5.02165 0.0
-9.64762 3.74782 0.0
-7.88196 1.98216 0.0
-5.1913 3.93704 0.0
-6.32492 6.1619 0.0
-7.99729 5.13707 0.0
-6.52958 3.11694 0.0
-3.56623 4.62684 0.0
-4.33785 7.00164 0.0
-6.14995 6.25105 0.0
-5.01634 4.02619 0.0
-1.85327 5.05393 0.0
-2.24389 7.5202 0.0
-4.1511 7.06232 0.0
-3.37948 4.68752 0.0
-0.0945845 5.2078 0.0
-0.0945831 7.70481 0.0
-2.04994 7.55092 0.0
-1.65932 5.08465 0.0
1.66652 5.08465 0.0
2.05714 7.55092 0.0
0.101781 7.70481 0.0
0.101779 5.2078 0.0
3.38668 4.68752 0.0
4.1583 7.06232 0.0
2.25109 7.5202 0.0
1.86047 5.05393 0.0
5.02353 4.02619 0.0
6.15715 6.25104 0.0
4.34505 7.00164 0.0
3.57343 4.62684 0.0
6.53678 3.11694 0.0
8.00449 5.13707 0.0
6.33211 6.1619 0.0
5.19849 3.93704 0.0
7.88916 1.98216 0.0
9.65481 3.74782 0.0
8.16335 5.02165 0.0
6.69564 3.00152 0.0
9.04736 0.649808 0.0
11.0675 2.11751 0.0
9.79366 3.60897 0.0
8.02801 1.84331 0.0
9.98284 -0.847205 0.0
12.2077 0.286354 0.0
11.1829 1.95865 0.0
9.16278 0.490953 0.0
10.6725 -2.47087 0.0
13.0473 -1.69969 0.0
12.2969 0.111464 0.0
10.072 -1.02209 0.0
11.0996 -4.17094 0.0
13.5658 -3.7824 0.0
13.108 -1.88574 0.0
10.7332 -2.65692 0.0
11.1311 -4.35858 0.0
11.265 -5.82407 0.0
13.7618 -5.82157 0.0
13.5973 -3.97005 0.0
-15.1839 -5.80418 0.0
-13.9594 -5.80351 0.0
-13.7949 -3.95199 0.0
-15.0148 -3.75985 0.0
-15.1297 -3.74183 0.0
-14.9785 -3.54039 0.0
-13.7586 -3.73252 0.0
-13.3007 -1.83586 0.0
-14.477 -1.45328 0.0
-14.5884 -1.41826 0.0
-14.4061 -1.23646 0.0
-13.2298 -1.61904 0.0
-12.4794 0.192116 0.0
-13.5815 0.754291 0.0
-13.686 0.806232 0.0
-13.4774 0.957887 0.0
-12.3753 0.395712 0.0
-11.3505 2.06801 0.0
-12.351 2.79568 0.0
-12.4462 2.86334 0.0
-12.2151 2.97702 0.0
-11.2145 2.24935 0.0
-9.94068 3.74081 0.0
-10.7303 4.53125 0.0
-10.8187 4.61794 0.0
-10.5651 4.69142 0.0
-9.77551 3.90097 0.0
-8.28405 5.1748 0.0
-8.94028 6.07904 0.0
-9.01398 6.17846 0.0
-8.75588 6.21258 0.0
-8.09965 5.30835 0.0
-6.42728 6.33318 0.0
-6.93398 7.32893 0.0
-6.99121 7.43866 0.0
-6.73096 7.43198 0.0
-6.22426 6.43623 0.0
-4.41216 7.18683 0.0
-4.75685 8.24959 0.0
-4.79622 8.36692 0.0
-4.54022 8.31961 0.0
-4.19553 7.25685 0.0
-2.28831 7.71473 0.0
-2.46251 8.81833 0.0
-2.48303 8.94038 0.0
-2.23758 8.8536 0.0
-2.06339 7.75 0.0
-0.108031 7.90389 0.0
-0.10744 9.02116 0.0
-0.10862 9.14491 0.0
0.120233 9.02081 0.0
0.119641 7.90355 0.0
2.075 7.74966 0.0
2.25036 8.85307 0.0
2.26856 8.97549 0.0
2.47518 8.81711 0.0
2.29982 7.7137 0.0
4.20703 7.25582 0.0
4.55284 8.31821 0.0
4.58996 8.43628 0.0
4.76926 8.24753 0.0
4.42345 7.18513 0.0
6.23555 6.43453 0.0
6.7433 7.42975 0.0
6.79844 7.54056 0.0
6.946 7.32608 0.0
6.43825 6.33086 0.0
8.11062 5.30603 0.0
8.76781 6.20957 0.0
8.8396 6.31038 0.0
8.9518 6.07546 0.0
8.29461 5.17193 0.0
9.78607 3.8981 0.0
10.5765 4.6877 0.0
10.6632 4.77605 0.0
10.7373 4.52647 0.0
9.94682 3.73686 0.0
11.2206 2.2454 0.0
12.1249 2.90163 0.0
12.2243 2.97533 0.0
12.2584 2.71724 0.0
11.3542 2.06101 0.0
12.379 0.388715 0.0
13.3747 0.895396 0.0
13.4845 0.952624 0.0
13.4778 0.692436 0.0
12.482 0.185754 0.0
13.2325 -1.6254 0.0
14.2952 -1.28088 0.0
14.4125 -1.24161 0.0
14.3651 -1.49686 0.0
13.3025 -1.84139 0.0
13.7603 -3.73805 0.0
14.9846 -3.54523 0.0
15.1411 -3.74118 0.0
15.0266 -3.75914 0.0
13.8023 -3.95197 0.0
13.9668 -5.80349 0.0
15.1945 -5.80415 0.0
-12.4111 3.13062 0.0
-12.316 3.06295 0.0
-10.9196 4.70388 0.0
-11.7366 5.52179 0.0
-13.2548 3.7443 0.0
-10.7428 4.87624 0.0
-10.6544 4.78955 0.0
-9.10329 6.2766 0.0
-9.78237 7.21227 0.0
-11.5599 5.69415 0.0
-8.90244 6.4229 0.0
-8.82874 6.32348 0.0
-7.06407 7.54956 0.0
-7.58842 8.57995 0.0
-9.58152 7.35858 0.0
-6.84281 7.66265 0.0
-6.78558 7.55292 0.0
-4.85083 8.48785 0.0
-5.20754 9.58758 0.0
-7.36716 8.69303 0.0
-4.6146 8.56493 0.0
-4.57524 8.4476 0.0
-2.51806 9.06836 0.0
-2.69834 10.2104 0.0
-4.97131 9.66466 0.0
-2.27268 9.10754 0.0
-2.25216 8.98549 0.0
-0.123191 9.2768 0.0
-0.122605 10.4329 0.0
-2.45296 10.2495 0.0
0.125293 9.27711 0.0
0.126473 9.15335 0.0
2.2748 9.10803 0.0
2.45623 10.2498 0.0
0.125879 10.4332 0.0
2.52027 9.06946 0.0
2.50208 8.94705 0.0
4.61686 8.56621 0.0
4.97468 9.66558 0.0
2.70171 10.2113 0.0
4.85328 8.48972 0.0
4.81616 8.37166 0.0
6.84533 7.66468 0.0
7.37072 8.69454 0.0
5.2111 9.58908 0.0
7.06687 7.55215 0.0
7.01174 7.44135 0.0
8.90533 6.42564 0.0
9.58536 7.36063 0.0
7.59226 8.582 0.0
9.10654 6.27984 0.0
9.03475 6.17903 0.0
10.7461 4.87961 0.0
11.5641 5.6967 0.0
9.78657 7.21483 0.0
10.9221 4.70412 0.0
10.8354 4.61578 0.0
12.3224 3.06464 0.0
13.2581 3.74372 0.0
11.74 5.52121 0.0
-13.6968 1.07552 0.0
-13.5922 1.02358 0.0
-12.561 2.92904 0.0
-13.4047 3.54272 0.0
-14.6261 1.54967 0.0
12.4687 2.8638 0.0
12.3693 2.7901 0.0
13.5954 1.02548 0.0
14.6258 1.54983 0.0
13.4044 3.54288 0.0
-14.6412 -1.15453 0.0
-14.5299 -1.18955 0.0
-13.8097 0.853139 0.0
-14.739 1.32728 0.0
-15.6334 -0.831638 0.0
13.7085 0.80426 0.0
13.5987 0.747033 0.0
14.5335 -1.18702 0.0
15.6333 -0.830312 0.0
14.7388 1.32861 0.0
-15.223 -3.49544 0.0
-15.108 -3.51347 0.0
-14.7179 -1.39134 0.0
-15.7102 -1.06844 0.0
-16.2557 -3.3322 0.0
14.6105 -1.42273 0.0
14.4931 -1.46199 0.0
15.1126 -3.51036 0.0
15.2271 -3.4924 0.0
16.2559 -3.32977 0.0
15.7103 -1.06602 0.0
-16.4886 -5.7969 0.0
-15.3161 -5.79789 0.0
-15.2619 -3.73554 0.0
-16.2947 -3.5723 0.0
16.3021 -3.5723 0.0
15.2733 -3.73493 0.0
15.3267 -5.7979 0.0
16.4959 -5.7969 0.0
</DataArray>
</Points>
<Cells>
<DataArray type="Int32" Name="connectivity" format="ascii">
0 1 2 3 
4 5 6 7 
8 9 10 11 
12 13 14 15 
16 17 18 19 
20 21 22 23 
24 25 26 27 
28 29 30 31 
32 33 34 35 
36 37 38 39 
40 41 42 43 
44 45 46 47 
48 49 50 51 
52 53 54 55 
56 57 58 59 
60 61 62 63 
64 65 66 67 
68 69 70 71 
72 73 74 75 
76 77 78 79 
80 81 82 83 
84 85 86 87 
88 89 90 91 
92 93 94 95 
96 97 98 99 
100 101 102 103 
104 105 106 107 
108 109 110 111 
112 113 114 115 
116 117 118 119 
120 121 122 123 
124 125 126 127 
128 129 130 131 
132 133 134 135 
136 137 138 139 
140 141 142 143 
144 145 146 147 
148 149 150 151 
152 153 154 155 
156 157 158 159 
160 161 162 163 
164 165 166 167 
168 169 170 171 
172 173 174 175 
176 177 178 179 
180 181 182 183 
184 185 186 187 
188 189 190 191 
192 193 194 195 
196 197 198 199 
200 201 202 203 
204 205 206 207 
208 209 210 211 
212 213 214 215 
216 217 218 219 
220 221 222 223 
224 225 226 227 
228 229 230 231 
232 233 234 235 
236 237 238 239 
240 241 242 243 
244 245 246 247 
248 249 250 251 
252 253 254 255 
256 257 258 259 
260 261 262 263 
264 265 266 267 
268 269 270 271 
272 273 274 275 
276 277 278 279 
280 281 282 283 
284 285 286 287 
288 289 290 291 
292 293 294 295 
296 297 298 299 
300 301 302 303 
304 305 306 307 
308 309 310 311 
312 313 314 315 
316 317 318 319 
320 321 322 323 
324 325 326 327 
328 329 330 331 
332 333 334 335 
336 337 338 339 
340 341 342 343 
344 345 346 347 
348 349 350 351 
352 353 354 355 
356 357 358 359 
360 361 362 363 
364 365 366 367 
368 369 370 371 
372 373 374 375 
376 377 378 379 
380 381 382 383 
384 385 386 387 
388 389 390 391 
392 393 394 395 
396 397 398 399 
400 401 402 403 404 
405 406 407 408 409 
410 411 412 413 414 
415 416 417 418 419 
420 421 422 423 424 
425 426 427 428 429 
430 431 432 433 434 
435 436 437 438 439 
440 441 442 443 444 
445 446 447 448 449 
450 451 452 453 454 
455 456 457 458 459 
460 461 462 463 464 
465 466 467 468 469 
470 471 472 473 474 
475 476 477 478 479 
480 481 482 483 484 
485 486 487 488 489 
490 491 492 493 
494 495 496 497 498 
499 500 501 502 503 
504 505 506 507 508 
509 510 511 512 513 
514 515 516 517 518 
519 520 521 522 523 
524 525 526 527 528 
529 530 531 532 533 
534 535 536 537 538 
539 540 541 542 543 
544 545 546 547 548 
549 550 551 552 553 
554 555 556 557 558 
559 560 561 562 563 
564 565 566 567 568 
569 570 571 572 573 
574 575 576 577 578 
579 580 581 582 583 
584 585 586 587 588 589 
590 591 592 593 
594 595 596 597 
</DataArray>
<DataArray type="Int32" Name="offsets" format="ascii">
4 8 12 16 20 24 28 32 36 40 44 48 52 56 60 64 68 72 76 80 84 88 92 96 100 104 108 112 116 120 124 128 132 136 140 144 148 152 156 160 164 168 172 176 180 184 188 192 196 200 204 208 212 216 220 224 228 232 236 240 244 248 252 256 260 264 268 272 276 280 284 288 292 296 300 304 308 312 316 320 324 328 332 336 340 344 348 352 356 360 364 368 372 376 380 384 388 392 396 400 405 410 415 420 425 430 435 440 445 450 455 460 465 470 475 480 485 490 494 499 504 509 514 519 524 529 534 539 544 549 554 559 564 569 574 579 584 590 594 598 
</DataArray>
<DataArray type="UInt8" Name="types" format="ascii">
7 7 7 7 7 7 7 7 7 7 7 7 7 7 7 7 7 7 7 7 7 7 7 7 7 7 7 7 7 7 7 7 7 7 7 7 7 7 7 7 7 7 7 7 7 7 7 7 7 7 7 7 7 7 7 7 7 7 7 7 7 7 7 7 7 7 7 7 7 7 7 7 7 7 7 7 7 7 7 7 7 7 7 7 7 7 7 7 7 7 7 7 7 7 7 7 7 7 7 7 7 7 7 7 7 7 7 7 7 7 7 7 7 7 7 7 7 7 7 7 7 7 7 7 7 7 7 7 7 7 7 7 7 7 7 7 7 7 7 7 
</DataArray>
</Cells>
<CellData Scalars="cell variable 4" Vectors="cell vector">
<DataArray type="Float64" NumberOfComponents="3" Name="cell vector" format="ascii">
0.9 2 0
0.9 0 0
0.9 0 0
0.9 0 0
0.9 0 0
0.9 0 0
0.9 0 0
0.9 0 0
0.9 0 0
0.9 0 0
0.9 0 0
0.9 0 0
0.9 0 0
0.9 0 0
0.9 0 0
0.9 0 0
0.9 0 0
0.9 0 0
0.9 0 0
0.9 2 0
0.9 2 0
0.9 0 0
0.9 0 0
0.9 0 0
0.9 0 0
0.9 0 0
0.9 0 0
0.9 0 0
0.9 0 0
0.9 0 0
0.9 0 0
0.9 0 0
0.9 0 0
0.9 0 0
0.9 0 0
0.9 0 0
0.9 0 0
0.9 0 0
0.9 0 0
0.9 2 0
0.9 2 0
0.9 0 0
0.9 0 0
0.9 0 0
0.9 0 0
0.9 0 0
0.9 0 0
0.9 0 0
0.9 0 0
0.9 0 0
0.9 0 0
0.9 0 0
0.9 0 0
0.9 0 0
0.9 0 0
0.9 0 0
0.9 0 0
0.9 0 0
0.9 0 0
0.9 2 0
0.9 2 0
0.9 0 0
0.9 0 0
0.9 0 0
0.9 0 0
0.9 0 0
0.9 0 0
0.9 0 0
0.9 0 0
0.9 0 0
0.9 0 0
0.9 0 0
0.9 0 0
0.9 0 0
0.9 0 0
0.9 0 0
0.9 0 0
0.9 0 0
0.9 0 0
0.9 2 0
0.9 2 0
0.9 0 0
0.9 0 0
0.9 0 0
0.9 0 0
0.9 0 0
0.9 0 0
0.9 0 0
0.9 0 0
0.9 0 0
0.9 0 0
0.9 0 0
0.9 0 0
0.9 0 0
0.9 0 0
0.9 0 0
0.9 0 0
0.9 0 0
0.9 0 0
0.9 2 0
0.462851 0 0
0.464256 0 0
0.464578 0 0
0.464619 0 0
0.443438 0 0
0.420927 0 0
0.420927 0 0
0.420927 1 2.21055
0.420927 1 2.21055
0.420927 1 2.21055
0.420927 1 2.21055
0.420927 1 2.21055
0.420927 1 2.21055
0.420927 0 0
0.420927 0 0
0.420927 0 0
0.420925 0 0
0.420901 0 0
0.420671 0 0
0.46422 0 0
0.456562 0 0
0.479073 0 0
0.479073 0 0
0.479073 1 2.21055
0.479073 1 2.21055
0.479073 1 2.21055
0.479073 1 2.21055
0.479073 1 2.21055
0.479073 1 2.21055
0.479073 0 0
0.479073 0 0
0.479073 0 0
0.435381 0 0
0.479075 0 0
0.435422 0 0
0.479099 0 0
0.435744 0 0
0.479329 0 0
0.437149 0 0
0.43578 0 0
</DataArray>
<DataArray type="Float64" Name="cell vector length" format="ascii">
1.81625e-05 0.000132879 0.000420732 0.00118621 0.00307071 0.00719795 0.0148036 0.0255608 0.036213 0.0426012 0.042601 0.0362121 0.0255598 0.0148032 0.00719786 0.0030707 0.00118621 0.000420731 0.000132878 1.81625e-05 3.57476e-05 0.000267264 0.000894503 0.00272012 0.00773529 0.0202092 0.0462664 0.086447 0.128865 0.155011 0.155002 0.128836 0.0864116 0.0462506 0.0202063 0.00773487 0.00272005 0.000894489 0.000267261 3.57475e-05 7.86765e-05 0.000600982 0.00214006 0.00708413 0.0223941 0.0658659 0.16529 0.314885 0.472449 0.569918 0.569677 0.471714 0.314001 0.164857 0.0657808 0.0223814 0.00708188 0.00213958 0.000600893 7.86714e-05 0.000159257 0.00122008 0.00461976 0.0166778 0.0586543 0.18895 0.461014 0.752576 1.04992 1.2289 1.22591 1.04092 0.741158 0.453911 0.187256 0.0583698 0.0166231 0.00460757 0.00121774 0.000159137 0.000314827 0.00213419 0.00845268 0.032714 0.123193 0.385758 0.727064 0.893141 1.06334 1.15419 1.14414 1.03113 0.842643 0.678453 0.367624 0.119053 0.0317746 0.00822835 0.00208922 0.000313158 0.00104596 0.00366561 0.0142592 0.0553399 0.195178 0.467267 0.630849 0.618945 0.654701 0.684141 0.673327 0.61687 0.54164 0.516823 0.388323 0.162051 0.0454745 0.0116805 0.00313165 0.00104731 0.166302 0.40672 0.564105 0.623845 0.75454 0.826696 0.825297 0.762845 0.675953 0.657596 0.476516 0.198868 0.0462952 0.0565445 0.0118613 0.0145821 0.00315683 0.00370658 0.00101899 0.00102784 
</DataArray>
<DataArray type="Float64" Name="cell variable 4" format="ascii">
0.0180841 0.0181404 0.0182866 0.0186877 0.0196819 0.0218149 0.0255528 0.0304175 0.0345867 0.0368033 0.0368033 0.0345868 0.0304176 0.0255528 0.0218149 0.0196819 0.0186877 0.0182866 0.0181404 0.0180841 0.0180916 0.0182074 0.0185284 0.0194743 0.0220113 0.027883 0.038723 0.0529942 0.0648313 0.0708649 0.0708655 0.0648332 0.0529963 0.0387239 0.0278832 0.0220113 0.0194743 0.0185284 0.0182074 0.0180916 0.0181113 0.0183839 0.0191937 0.0217574 0.029105 0.0467183 0.0793011 0.12138 0.154685 0.171158 0.17117 0.154722 0.121429 0.0793295 0.0467236 0.0291056 0.0217575 0.0191938 0.0183839 0.0181113 0.0181492 0.0187198 0.0205344 0.0266571 0.0448531 0.0885269 0.170288 0.256482 0.323803 0.357548 0.357606 0.323999 0.256829 0.170634 0.0886435 0.0448688 0.0266585 0.0205346 0.0187198 0.0181492 0.0182169 0.019202 0.0225498 0.0343713 0.0700295 0.158949 0.296156 0.383353 0.455616 0.485284 0.485315 0.455995 0.384425 0.297511 0.159924 0.0702796 0.0343918 0.0225488 0.0192016 0.0182169 0.0185284 0.0197008 0.0245127 0.0415253 0.0925781 0.204853 0.316137 0.386298 0.435564 0.447468 0.448667 0.436517 0.376037 0.299536 0.203223 0.094393 0.0417359 0.0244419 0.0196926 0.0185284 0.0971967 0.217854 0.326686 0.403384 0.485323 0.50965 0.509337 0.490054 0.425586 0.350758 0.220575 0.0955525 0.0421399 0.0419873 0.024512 0.0245975 0.0197069 0.0197174 0.0185304 0.01853 
</DataArray>
</CellData>
</Piece>
</UnstructuredGrid>
</VTKFile>
