<VTKFile type="UnstructuredGrid" version="0.1">
<UnstructuredGrid>
<Piece  NumberOfPoints="     627" NumberOfCells="     480">
<Points>
<DataArray type="Float64" NumberOfComponents="3" format="ascii">
-0.17096 -3.10012 0 
-0.154058 -3.10004 0 
-0.137035 -3.09996 0 
-0.119953 -3.09989 0 
-0.102842 -3.09983 0 
-0.0857163 -3.09977 0 
-0.0685815 -3.09973 0 
-0.0514408 -3.09969 0 
-0.034296 -3.09966 0 
-0.0171486 -3.09965 0 
-3.49792e-15 -3.09964 0 
0.0171486 -3.09965 0 
0.034296 -3.09966 0 
0.0514408 -3.09969 0 
0.0685815 -3.09973 0 
0.0857163 -3.09977 0 
0.102842 -3.09983 0 
0.119953 -3.09989 0 
0.137035 -3.09996 0 
0.154058 -3.10004 0 
0.17096 -3.10012 0 
-1.70786 -3.09966 0 
-1.6868 -2.83295 0 
-1.62424 -2.57239 0 
-1.52169 -2.3248 0 
-1.38167 -2.0963 0 
-1.20763 -1.89252 0 
-1.00385 -1.71847 0 
-0.775348 -1.57845 0 
-0.527755 -1.47589 0 
-0.267167 -1.41333 0 
-3.22369e-15 -1.3923 0 
0.267167 -1.41333 0 
0.527755 -1.47589 0 
0.775348 -1.57845 0 
1.00385 -1.71847 0 
1.20763 -1.89252 0 
1.38167 -2.0963 0 
1.52169 -2.3248 0 
1.62424 -2.57239 0 
1.6868 -2.83295 0 
1.70786 -3.09966 0 
-3.41575 -3.09965 0 
-3.37366 -2.56578 0 
-3.24854 -2.04461 0 
-3.04342 -1.54942 0 
-2.76337 -1.09242 0 
-2.41528 -0.684849 0 
-2.00771 -0.336753 0 
-1.5507 -0.0566999 0 
-1.05551 0.148413 0 
-0.534335 0.273537 0 
-4.11021e-15 0.31559 0 
0.534335 0.273537 0 
1.05551 0.148413 0 
1.5507 -0.0566999 0 
2.00771 -0.336753 0 
2.41528 -0.684849 0 
2.76337 -1.09242 0 
3.04342 -1.54942 0 
3.24854 -2.04461 0 
3.37366 -2.56578 0 
3.41575 -3.09965 0 
-5.12365 -3.09965 0 
-5.06053 -2.29861 0 
-4.87284 -1.51684 0 
-4.56517 -0.774054 0 
-4.14509 -0.088542 0 
-3.62294 0.522815 0 
-3.01158 1.04496 0 
-2.32607 1.46505 0 
-1.58328 1.77272 0 
-0.801509 1.96041 0 
-3.91763e-15 2.02349 0 
0.801509 1.96041 0 
1.58328 1.77272 0 
2.32607 1.46505 0 
3.01158 1.04496 0 
3.62294 0.522815 0 
4.14509 -0.088542 0 
4.56517 -0.774054 0 
4.87284 -1.51684 0 
5.06053 -2.29861 0 
5.12365 -3.09965 0 
-6.83155 -3.09965 0 
-6.7474 -2.03144 0 
-6.49715 -0.989073 0 
-6.08692 0.00131408 0 
-5.5268 0.915334 0 
-4.8306 1.73048 0 
-4.01546 2.42668 0 
-3.10144 2.98679 0 
-2.11105 3.39702 0 
-1.06868 3.64727 0 
-3.1068e-15 3.73138 0 
1.06868 3.64727 0 
2.11105 3.39702 0 
3.10144 2.98679 0 
4.01546 2.42668 0 
4.8306 1.73048 0 
5.5268 0.915334 0 
6.08692 0.00131408 0 
6.49715 -0.989073 0 
6.7474 -2.03144 0 
6.83155 -3.09965 0 
-8.53944 -3.09964 0 
-8.43426 -1.76426 0 
-8.12145 -0.461305 0 
-7.60866 0.776681 0 
-6.90852 1.91921 0 
-6.03827 2.93814 0 
-5.01933 3.80839 0 
-3.87681 4.50853 0 
-2.63882 5.02133 0 
-1.33586 5.33414 0 
-3.15306e-15 5.43927 0 
1.33586 5.33414 0 
2.63882 5.02133 0 
3.87681 4.50853 0 
5.01933 3.80839 0 
6.03827 2.93814 0 
6.90852 1.91921 0 
7.60866 0.776681 0 
8.12145 -0.461305 0 
8.43426 -1.76426 0 
8.53944 -3.09964 0 
-10.2469 -3.09964 0 
-10.1207 -1.49717 0 
-9.7453 0.0663156 0 
-9.12998 1.55183 0 
-8.28985 2.9228 0 
-7.24559 4.14547 0 
-6.02293 5.18972 0 
-4.65196 6.02985 0 
-3.16644 6.64518 0 
-1.60296 7.02053 0 
-3.21994e-15 7.14669 0 
1.60296 7.02053 0 
3.16644 6.64518 0 
4.65196 6.02985 0 
6.02293 5.18972 0 
7.24559 4.14547 0 
8.28985 2.9228 0 
9.12998 1.55183 0 
9.7453 0.0663156 0 
10.1207 -1.49717 0 
10.2469 -3.09964 0 
-0.272138 -3.0912 0.0
-0.256927 -3.09113 0.0
-1.63639 -2.85074 0.0
-1.65535 -3.09079 0.0
-0.23773 -3.07367 0.0
-1.57621 -2.59885 0.0
-1.63251 -2.83336 0.0
-0.25305 -3.07374 0.0
-0.215854 -3.05701 0.0
-1.47742 -2.35943 0.0
-1.56971 -2.58226 0.0
-0.231228 -3.05708 0.0
-0.191506 -3.04154 0.0
-1.34245 -2.13837 0.0
-1.46847 -2.34402 0.0
-0.206906 -3.0416 0.0
-0.164918 -3.0276 0.0
-1.17464 -1.94108 0.0
-1.33128 -2.12448 0.0
-0.180331 -3.02765 0.0
-0.13636 -3.0155 0.0
-0.978099 -1.77237 0.0
-1.1615 -1.92901 0.0
-0.151782 -3.01554 0.0
-0.106136 -3.00548 0.0
-0.757652 -1.63637 0.0
-0.963301 -1.76239 0.0
-0.121563 -3.00552 0.0
-0.0745808 -2.99778 0.0
-0.518694 -1.53639 0.0
-0.741527 -1.62869 0.0
-0.0900111 -2.9978 0.0
-0.0420551 -2.99255 0.0
-0.267072 -1.47487 0.0
-0.501601 -1.53117 0.0
-0.0574878 -2.99257 0.0
-0.00893965 -2.98991 0.0
-0.00893965 -1.45331 0.0
-0.24939 -1.47223 0.0
-0.0243734 -2.98992 0.0
0.0243734 -2.98992 0.0
0.24939 -1.47223 0.0
0.00893965 -1.45331 0.0
0.00893965 -2.98991 0.0
0.0574878 -2.99257 0.0
0.501601 -1.53117 0.0
0.267072 -1.47487 0.0
0.0420551 -2.99255 0.0
0.0900111 -2.9978 0.0
0.741527 -1.62869 0.0
0.518694 -1.53639 0.0
0.0745808 -2.99778 0.0
0.121563 -3.00552 0.0
0.963301 -1.76239 0.0
0.757652 -1.63637 0.0
0.106136 -3.00548 0.0
0.151782 -3.01554 0.0
1.1615 -1.92901 0.0
0.978099 -1.77237 0.0
0.13636 -3.0155 0.0
0.180331 -3.02765 0.0
1.33128 -2.12448 0.0
1.17464 -1.94108 0.0
0.164918 -3.0276 0.0
0.206906 -3.0416 0.0
1.46847 -2.34402 0.0
1.34245 -2.13837 0.0
0.191506 -3.04154 0.0
0.231228 -3.05708 0.0
1.56971 -2.58226 0.0
1.47742 -2.35943 0.0
0.215854 -3.05701 0.0
0.25305 -3.07374 0.0
1.63251 -2.83336 0.0
1.57621 -2.59885 0.0
0.23773 -3.07367 0.0
0.272138 -3.0912 0.0
1.65535 -3.09079 0.0
1.63639 -2.85074 0.0
0.256927 -3.09113 0.0
-1.80112 -3.0789 0.0
-1.78216 -2.83886 0.0
-3.30034 -2.59841 0.0
-3.33822 -3.07889 0.0
-1.77565 -2.79784 0.0
-1.71935 -2.56334 0.0
-3.18121 -2.08833 0.0
-3.29382 -2.55738 0.0
-1.7065 -2.52381 0.0
-1.61421 -2.30098 0.0
-2.98377 -1.60314 0.0
-3.16837 -2.04881 0.0
-1.59534 -2.26395 0.0
-1.46932 -2.05831 0.0
-2.71285 -1.15481 0.0
-2.9649 -1.56611 0.0
-1.44489 -2.02468 0.0
-1.28825 -1.84128 0.0
-2.37514 -0.754373 0.0
-2.68843 -1.12118 0.0
-1.25887 -1.81189 0.0
-1.07547 -1.65525 0.0
-1.97894 -0.4117 0.0
-2.34575 -0.724986 0.0
-1.04184 -1.63082 0.0
-0.836195 -1.5048 0.0
-1.53401 -0.135224 0.0
-1.94532 -0.387272 0.0
-0.799166 -1.48593 0.0
-0.576332 -1.39363 0.0
-1.05132 0.0682453 0.0
-1.49699 -0.116356 0.0
-0.536807 -1.38079 0.0
-0.302278 -1.32448 0.0
-0.542729 0.193699 0.0
-1.01179 0.0810879 0.0
-0.26123 -1.31798 0.0
-0.0207797 -1.29905 0.0
-0.0207797 0.238049 0.0
-0.501682 0.200201 0.0
0.0207797 -1.29905 0.0
0.26123 -1.31798 0.0
0.501682 0.200201 0.0
0.0207797 0.238049 0.0
0.302278 -1.32448 0.0
0.536807 -1.38079 0.0
1.01179 0.0810879 0.0
0.542729 0.193699 0.0
0.576332 -1.39363 0.0
0.799166 -1.48593 0.0
1.49699 -0.116356 0.0
1.05132 0.0682453 0.0
0.836195 -1.5048 0.0
1.04184 -1.63082 0.0
1.94532 -0.387272 0.0
1.53401 -0.135224 0.0
1.07547 -1.65525 0.0
1.25887 -1.81189 0.0
2.34575 -0.724986 0.0
1.97894 -0.4117 0.0
1.28825 -1.84128 0.0
1.44489 -2.02468 0.0
2.68843 -1.12118 0.0
2.37514 -0.754373 0.0
1.46932 -2.05831 0.0
1.59534 -2.26395 0.0
2.9649 -1.56611 0.0
2.71285 -1.15481 0.0
1.61421 -2.30098 0.0
1.7065 -2.52381 0.0
3.16837 -2.04881 0.0
2.98377 -1.60314 0.0
1.71935 -2.56334 0.0
1.77565 -2.79784 0.0
3.29382 -2.55738 0.0
3.18121 -2.08833 0.0
1.78216 -2.83886 0.0
1.80112 -3.0789 0.0
3.33822 -3.07889 0.0
3.30034 -2.59841 0.0
-3.4663 -2.58535 0.0
-4.98448 -2.34489 0.0
-5.04129 -3.06583 0.0
-3.50418 -3.06583 0.0
-3.34309 -2.04947 0.0
-4.80497 -1.57448 0.0
-4.97389 -2.27807 0.0
-3.4557 -2.51852 0.0
-3.13758 -1.53943 0.0
-4.50715 -0.8416 0.0
-4.78405 -1.51011 0.0
-3.32218 -1.9851 0.0
-2.8548 -1.06782 0.0
-4.09834 -0.164333 0.0
-4.47642 -0.781294 0.0
-3.10685 -1.47913 0.0
-2.50173 -0.646253 0.0
-3.58863 0.440645 0.0
-4.05856 -0.109577 0.0
-2.81502 -1.01306 0.0
-2.08706 -0.285108 0.0
-2.99055 0.958437 0.0
-3.54077 0.488504 0.0
-2.45387 -0.598394 0.0
-1.621 0.00672323 0.0
-2.31883 1.37629 0.0
-2.93579 0.99822 0.0
-2.0323 -0.245325 0.0
-1.11502 0.222052 0.0
-1.59002 1.68393 0.0
-2.25852 1.40702 0.0
-1.56069 0.0374506 0.0
-0.581593 0.355579 0.0
-0.822049 1.87376 0.0
-1.52565 1.70484 0.0
-1.05065 0.242967 0.0
-0.0338414 0.404015 0.0
-0.0338414 1.94112 0.0
-0.755199 1.88435 0.0
-0.514743 0.366167 0.0
0.514743 0.366167 0.0
0.755199 1.88435 0.0
0.0338414 1.94112 0.0
0.0338414 0.404015 0.0
1.05065 0.242967 0.0
1.52565 1.70484 0.0
0.822049 1.87376 0.0
0.581593 0.355579 0.0
1.56069 0.0374506 0.0
2.25852 1.40702 0.0
1.59002 1.68393 0.0
1.11502 0.222052 0.0
2.0323 -0.245325 0.0
2.93579 0.99822 0.0
2.31883 1.37629 0.0
1.621 0.00672323 0.0
2.45387 -0.598394 0.0
3.54077 0.488504 0.0
2.99055 0.958437 0.0
2.08706 -0.285108 0.0
2.81502 -1.01306 0.0
4.05856 -0.109577 0.0
3.58863 0.440645 0.0
2.50173 -0.646253 0.0
3.10685 -1.47913 0.0
4.47642 -0.781294 0.0
4.09834 -0.164333 0.0
2.8548 -1.06782 0.0
3.32218 -1.9851 0.0
4.78405 -1.51011 0.0
4.50715 -0.8416 0.0
3.13758 -1.53943 0.0
3.4557 -2.51852 0.0
4.97389 -2.27807 0.0
4.80497 -1.57448 0.0
3.34309 -2.04947 0.0
3.4663 -2.58535 0.0
3.50418 -3.06583 0.0
5.04129 -3.06583 0.0
4.98448 -2.34489 0.0
-5.1526 -2.33166 0.0
-6.67078 -2.09121 0.0
-6.74651 -3.0526 0.0
-5.20941 -3.0526 0.0
-4.96895 -1.53511 0.0
-6.43082 -1.06012 0.0
-6.65605 -1.99824 0.0
-5.13787 -2.2387 0.0
-4.66295 -0.777064 0.0
-6.03252 -0.0792323 0.0
-6.40173 -0.970581 0.0
-4.93986 -1.44557 0.0
-4.24214 -0.0762183 0.0
-5.48568 0.82727 0.0
-5.98978 0.00465213 0.0
-4.62021 -0.69318 0.0
-3.71686 0.550169 0.0
-4.80376 1.63707 0.0
-5.43034 0.903435 0.0
-4.1868 -5.28165e-05 0.0
-3.10007 1.08667 0.0
-4.00356 2.33022 0.0
-4.73719 1.70364 0.0
-3.65029 0.61674 0.0
-2.40694 1.52009 0.0
-3.10478 2.88966 0.0
-3.92739 2.38556 0.0
-3.02391 1.14201 0.0
-1.65455 1.83973 0.0
-2.12954 3.30161 0.0
-3.02089 2.9324 0.0
-2.32306 1.56283 0.0
-0.861418 2.03774 0.0
-1.10187 3.55592 0.0
-2.04001 3.3307 0.0
-1.56501 1.86882 0.0
-0.0470729 2.10924 0.0
-0.0470729 3.64635 0.0
-1.00889 3.57065 0.0
-0.768431 2.05247 0.0
0.768431 2.05247 0.0
1.00889 3.57065 0.0
0.0470729 3.64635 0.0
0.0470729 2.10924 0.0
1.56501 1.86882 0.0
2.04001 3.3307 0.0
1.10187 3.55592 0.0
0.861418 2.03774 0.0
2.32306 1.56283 0.0
3.02089 2.9324 0.0
2.12954 3.30161 0.0
1.65455 1.83973 0.0
3.02391 1.14201 0.0
3.92739 2.38556 0.0
3.10478 2.88966 0.0
2.40694 1.52009 0.0
3.65029 0.61674 0.0
4.73719 1.70364 0.0
4.00356 2.33022 0.0
3.10007 1.08667 0.0
4.1868 -5.28165e-05 0.0
5.43034 0.903435 0.0
4.80376 1.63707 0.0
3.71686 0.550169 0.0
4.62021 -0.69318 0.0
5.98978 0.00465213 0.0
5.48568 0.82727 0.0
4.24214 -0.0762183 0.0
4.93986 -1.44557 0.0
6.40173 -0.970581 0.0
6.03252 -0.0792323 0.0
4.66295 -0.777064 0.0
5.13787 -2.2387 0.0
6.65605 -1.99824 0.0
6.43082 -1.06012 0.0
4.96895 -1.53511 0.0
5.1526 -2.33166 0.0
5.20941 -3.0526 0.0
6.74651 -3.0526 0.0
6.67078 -2.09121 0.0
-6.83962 -2.07792 0.0
-8.3578 -1.83746 0.0
-8.45245 -3.03931 0.0
-6.91535 -3.03931 0.0
-6.59551 -1.02058 0.0
-8.05738 -0.54559 0.0
-8.33891 -1.71825 0.0
-6.82073 -1.95871 0.0
-6.18899 -0.0144203 0.0
-7.55856 0.68341 0.0
-8.02007 -0.430777 0.0
-6.5582 -0.905769 0.0
-5.63009 0.915761 0.0
-6.87363 1.81925 0.0
-7.50375 0.790974 0.0
-6.13419 0.0931435 0.0
-4.93255 1.74706 0.0
-6.01944 2.83395 0.0
-6.80267 1.91691 0.0
-5.55913 1.01343 0.0
-4.11355 2.459 0.0
-5.01704 3.70254 0.0
-5.93408 2.91932 0.0
-4.84718 1.83242 0.0
-3.19327 3.03406 0.0
-3.8911 4.40363 0.0
-4.91937 3.7735 0.0
-4.01589 2.52996 0.0
-2.19436 3.45808 0.0
-2.66935 4.91995 0.0
-3.78353 4.45844 0.0
-3.0857 3.08887 0.0
-1.14141 3.72061 0.0
-1.38187 5.23879 0.0
-2.55453 4.95725 0.0
-2.07954 3.49538 0.0
-0.0603609 3.81519 0.0
-0.0603609 5.35229 0.0
-1.26263 5.25767 0.0
-1.02218 3.73949 0.0
1.02218 3.73949 0.0
1.26263 5.25767 0.0
0.0603609 5.35229 0.0
0.0603609 3.81519 0.0
2.07954 3.49538 0.0
2.55453 4.95725 0.0
1.38187 5.23879 0.0
1.14141 3.72061 0.0
3.0857 3.08887 0.0
3.78353 4.45844 0.0
2.66935 4.91995 0.0
2.19436 3.45808 0.0
4.01589 2.52996 0.0
4.91937 3.7735 0.0
3.8911 4.40363 0.0
3.19327 3.03406 0.0
4.84718 1.83242 0.0
5.93408 2.91932 0.0
5.01704 3.70254 0.0
4.11355 2.459 0.0
5.55913 1.01343 0.0
6.80267 1.91691 0.0
6.01944 2.83395 0.0
4.93255 1.74706 0.0
6.13419 0.0931435 0.0
7.50375 0.790974 0.0
6.87363 1.81925 0.0
5.63009 0.915761 0.0
6.5582 -0.905769 0.0
8.02007 -0.430777 0.0
7.55856 0.68341 0.0
6.18899 -0.0144203 0.0
6.82073 -1.95871 0.0
8.33891 -1.71825 0.0
8.05738 -0.54559 0.0
6.59551 -1.02058 0.0
6.83962 -2.07792 0.0
6.91535 -3.03931 0.0
8.45245 -3.03931 0.0
8.3578 -1.83746 0.0
-10.0447 -1.58376 0.0
-10.1583 -3.026 0.0
-8.62159 -3.026 0.0
-8.52694 -1.82415 0.0
-9.68382 -0.0311245 0.0
-10.0216 -1.43826 0.0
-8.50389 -1.67865 0.0
-8.22235 -0.505983 0.0
-9.0845 1.44597 0.0
-9.63829 0.109009 0.0
-8.17682 -0.36585 0.0
-7.71531 0.748338 0.0
-8.26149 2.81113 0.0
-9.0176 1.57726 0.0
-7.64842 0.879623 0.0
-7.01829 1.9079 0.0
-7.23505 4.03074 0.0
-8.17488 2.93034 0.0
-6.93168 2.0271 0.0
-6.14846 2.94414 0.0
-6.03046 5.07475 0.0
-7.13086 4.13493 0.0
-6.04427 3.04833 0.0
-5.12723 3.83156 0.0
-4.67738 5.91748 0.0
-5.91126 5.16136 0.0
-5.00802 3.91817 0.0
-3.97975 4.54829 0.0
-3.20913 6.53816 0.0
-4.5461 5.98437 0.0
-3.84846 4.61519 0.0
-2.73427 5.0767 0.0
-1.66186 6.92152 0.0
-3.069 6.58369 0.0
-2.59414 5.12223 0.0
-1.42147 5.40376 0.0
-0.0736726 7.05811 0.0
-1.51633 6.94457 0.0
-1.27594 5.42681 0.0
-0.0736726 5.52143 0.0
1.51633 6.94457 0.0
0.0736726 7.05811 0.0
0.0736726 5.52143 0.0
1.27594 5.42681 0.0
3.069 6.58369 0.0
1.66186 6.92152 0.0
1.42147 5.40376 0.0
2.59414 5.12223 0.0
4.5461 5.98437 0.0
3.20913 6.53816 0.0
2.73427 5.0767 0.0
3.84846 4.61519 0.0
5.91126 5.16136 0.0
4.67738 5.91748 0.0
3.97975 4.54829 0.0
5.00802 3.91817 0.0
7.13086 4.13493 0.0
6.03046 5.07475 0.0
5.12723 3.83156 0.0
6.04427 3.04833 0.0
8.17488 2.93034 0.0
7.23505 4.03074 0.0
6.14846 2.94414 0.0
6.93168 2.0271 0.0
9.0176 1.57726 0.0
8.26149 2.81113 0.0
7.01829 1.9079 0.0
7.64842 0.879623 0.0
9.63829 0.109009 0.0
9.0845 1.44597 0.0
7.71531 0.748338 0.0
8.17682 -0.36585 0.0
10.0216 -1.43826 0.0
9.68382 -0.0311245 0.0
8.22235 -0.505983 0.0
8.50389 -1.67865 0.0
8.52694 -1.82415 0.0
8.62159 -3.026 0.0
10.1583 -3.026 0.0
10.0447 -1.58376 0.0
</DataArray>
</Points>
<Cells>
<DataArray type="Int32" Name="connectivity" format="ascii">
0 1 148 147 1 22 149 148 22 21 150 149 21 0 147 150 2 23 152 151 23 22 153 152 22 1 154 153 1 2 151 154 3 24 156 155 24 23 157 156 23 2 158 157 2 3 155 158 4 25 160 159 25 24 161 160 24 3 162 161 3 4 159 162 5 26 164 163 26 25 165 164 25 4 166 165 4 5 163 166 6 27 168 167 27 26 169 168 26 5 170 169 5 6 167 170 7 28 172 171 28 27 173 172 27 6 174 173 6 7 171 174 8 29 176 175 29 28 177 176 28 7 178 177 7 8 175 178 9 30 180 179 30 29 181 180 29 8 182 181 8 9 179 182 10 31 184 183 31 30 185 184 30 9 186 185 9 10 183 186 11 32 188 187 32 31 189 188 31 10 190 189 10 11 187 190 12 33 192 191 33 32 193 192 32 11 194 193 11 12 191 194 13 34 196 195 34 33 197 196 33 12 198 197 12 13 195 198 14 35 200 199 35 34 201 200 34 13 202 201 13 14 199 202 15 36 204 203 36 35 205 204 35 14 206 205 14 15 203 206 16 37 208 207 37 36 209 208 36 15 210 209 15 16 207 210 17 38 212 211 38 37 213 212 37 16 214 213 16 17 211 214 18 39 216 215 39 38 217 216 38 17 218 217 17 18 215 218 19 40 220 219 40 39 221 220 39 18 222 221 18 19 219 222 20 41 224 223 41 40 225 224 40 19 226 225 19 20 223 226 21 22 228 227 22 43 229 228 43 42 230 229 42 21 227 230 22 23 232 231 23 44 233 232 44 43 234 233 43 22 231 234 23 24 236 235 24 45 237 236 45 44 238 237 44 23 235 238 24 25 240 239 25 46 241 240 46 45 242 241 45 24 239 242 25 26 244 243 26 47 245 244 47 46 246 245 46 25 243 246 26 27 248 247 27 48 249 248 48 47 250 249 47 26 247 250 27 28 252 251 28 49 253 252 49 48 254 253 48 27 251 254 28 29 256 255 29 50 257 256 50 49 258 257 49 28 255 258 29 30 260 259 30 51 261 260 51 50 262 261 50 29 259 262 30 31 264 263 31 52 265 264 52 51 266 265 51 30 263 266 31 32 268 267 32 53 269 268 53 52 270 269 52 31 267 270 32 33 272 271 33 54 273 272 54 53 274 273 53 32 271 274 33 34 276 275 34 55 277 276 55 54 278 277 54 33 275 278 34 35 280 279 35 56 281 280 56 55 282 281 55 34 279 282 35 36 284 283 36 57 285 284 57 56 286 285 56 35 283 286 36 37 288 287 37 58 289 288 58 57 290 289 57 36 287 290 37 38 292 291 38 59 293 292 59 58 294 293 58 37 291 294 38 39 296 295 39 60 297 296 60 59 298 297 59 38 295 298 39 40 300 299 40 61 301 300 61 60 302 301 60 39 299 302 40 41 304 303 41 62 305 304 62 61 306 305 61 40 303 306 43 64 308 307 64 63 309 308 63 42 310 309 42 43 307 310 44 65 312 311 65 64 313 312 64 43 314 313 43 44 311 314 45 66 316 315 66 65 317 316 65 44 318 317 44 45 315 318 46 67 320 319 67 66 321 320 66 45 322 321 45 46 319 322 47 68 324 323 68 67 325 324 67 46 326 325 46 47 323 326 48 69 328 327 69 68 329 328 68 47 330 329 47 48 327 330 49 70 332 331 70 69 333 332 69 48 334 333 48 49 331 334 50 71 336 335 71 70 337 336 70 49 338 337 49 50 335 338 51 72 340 339 72 71 341 340 71 50 342 341 50 51 339 342 52 73 344 343 73 72 345 344 72 51 346 345 51 52 343 346 53 74 348 347 74 73 349 348 73 52 350 349 52 53 347 350 54 75 352 351 75 74 353 352 74 53 354 353 53 54 351 354 55 76 356 355 76 75 357 356 75 54 358 357 54 55 355 358 56 77 360 359 77 76 361 360 76 55 362 361 55 56 359 362 57 78 364 363 78 77 365 364 77 56 366 365 56 57 363 366 58 79 368 367 79 78 369 368 78 57 370 369 57 58 367 370 59 80 372 371 80 79 373 372 79 58 374 373 58 59 371 374 60 81 376 375 81 80 377 376 80 59 378 377 59 60 375 378 61 82 380 379 82 81 381 380 81 60 382 381 60 61 379 382 61 62 384 383 62 83 385 384 83 82 386 385 82 61 383 386 64 85 388 387 85 84 389 388 84 63 390 389 63 64 387 390 65 86 392 391 86 85 393 392 85 64 394 393 64 65 391 394 66 87 396 395 87 86 397 396 86 65 398 397 65 66 395 398 67 88 400 399 88 87 401 400 87 66 402 401 66 67 399 402 68 89 404 403 89 88 405 404 88 67 406 405 67 68 403 406 69 90 408 407 90 89 409 408 89 68 410 409 68 69 407 410 70 91 412 411 91 90 413 412 90 69 414 413 69 70 411 414 71 92 416 415 92 91 417 416 91 70 418 417 70 71 415 418 72 93 420 419 93 92 421 420 92 71 422 421 71 72 419 422 73 94 424 423 94 93 425 424 93 72 426 425 72 73 423 426 74 95 428 427 95 94 429 428 94 73 430 429 73 74 427 430 75 96 432 431 96 95 433 432 95 74 434 433 74 75 431 434 76 97 436 435 97 96 437 436 96 75 438 437 75 76 435 438 77 98 440 439 98 97 441 440 97 76 442 441 76 77 439 442 78 99 444 443 99 98 445 444 98 77 446 445 77 78 443 446 79 100 448 447 100 99 449 448 99 78 450 449 78 79 447 450 80 101 452 451 101 100 453 452 100 79 454 453 79 80 451 454 81 102 456 455 102 101 457 456 101 80 458 457 80 81 455 458 82 103 460 459 103 102 461 460 102 81 462 461 81 82 459 462 82 83 464 463 83 104 465 464 104 103 466 465 103 82 463 466 85 106 468 467 106 105 469 468 105 84 470 469 84 85 467 470 86 107 472 471 107 106 473 472 106 85 474 473 85 86 471 474 87 108 476 475 108 107 477 476 107 86 478 477 86 87 475 478 88 109 480 479 109 108 481 480 108 87 482 481 87 88 479 482 89 110 484 483 110 109 485 484 109 88 486 485 88 89 483 486 90 111 488 487 111 110 489 488 110 89 490 489 89 90 487 490 91 112 492 491 112 111 493 492 111 90 494 493 90 91 491 494 92 113 496 495 113 112 497 496 112 91 498 497 91 92 495 498 93 114 500 499 114 113 501 500 113 92 502 501 92 93 499 502 94 115 504 503 115 114 505 504 114 93 506 505 93 94 503 506 95 116 508 507 116 115 509 508 115 94 510 509 94 95 507 510 96 117 512 511 117 116 513 512 116 95 514 513 95 96 511 514 97 118 516 515 118 117 517 516 117 96 518 517 96 97 515 518 98 119 520 519 119 118 521 520 118 97 522 521 97 98 519 522 99 120 524 523 120 119 525 524 119 98 526 525 98 99 523 526 100 121 528 527 121 120 529 528 120 99 530 529 99 100 527 530 101 122 532 531 122 121 533 532 121 100 534 533 100 101 531 534 102 123 536 535 123 122 537 536 122 101 538 537 101 102 535 538 103 124 540 539 124 123 541 540 123 102 542 541 102 103 539 542 103 104 544 543 104 125 545 544 125 124 546 545 124 103 543 546 127 126 548 547 126 105 549 548 105 106 550 549 106 127 547 550 128 127 552 551 127 106 553 552 106 107 554 553 107 128 551 554 129 128 556 555 128 107 557 556 107 108 558 557 108 129 555 558 130 129 560 559 129 108 561 560 108 109 562 561 109 130 559 562 131 130 564 563 130 109 565 564 109 110 566 565 110 131 563 566 132 131 568 567 131 110 569 568 110 111 570 569 111 132 567 570 133 132 572 571 132 111 573 572 111 112 574 573 112 133 571 574 134 133 576 575 133 112 577 576 112 113 578 577 113 134 575 578 135 134 580 579 134 113 581 580 113 114 582 581 114 135 579 582 136 135 584 583 135 114 585 584 114 115 586 585 115 136 583 586 137 136 588 587 136 115 589 588 115 116 590 589 116 137 587 590 138 137 592 591 137 116 593 592 116 117 594 593 117 138 591 594 139 138 596 595 138 117 597 596 117 118 598 597 118 139 595 598 140 139 600 599 139 118 601 600 118 119 602 601 119 140 599 602 141 140 604 603 140 119 605 604 119 120 606 605 120 141 603 606 142 141 608 607 141 120 609 608 120 121 610 609 121 142 607 610 143 142 612 611 142 121 613 612 121 122 614 613 122 143 611 614 144 143 616 615 143 122 617 616 122 123 618 617 123 144 615 618 145 144 620 619 144 123 621 620 123 124 622 621 124 145 619 622 124 125 624 623 125 146 625 624 146 145 626 625 145 124 623 626 
</DataArray>
<DataArray type="Int32" Name="offsets" format="ascii">
4 8 12 16 20 24 28 32 36 40 44 48 52 56 60 64 68 72 76 80 84 88 92 96 100 104 108 112 116 120 124 128 132 136 140 144 148 152 156 160 164 168 172 176 180 184 188 192 196 200 204 208 212 216 220 224 228 232 236 240 244 248 252 256 260 264 268 272 276 280 284 288 292 296 300 304 308 312 316 320 324 328 332 336 340 344 348 352 356 360 364 368 372 376 380 384 388 392 396 400 404 408 412 416 420 424 428 432 436 440 444 448 452 456 460 464 468 472 476 480 484 488 492 496 500 504 508 512 516 520 524 528 532 536 540 544 548 552 556 560 564 568 572 576 580 584 588 592 596 600 604 608 612 616 620 624 628 632 636 640 644 648 652 656 660 664 668 672 676 680 684 688 692 696 700 704 708 712 716 720 724 728 732 736 740 744 748 752 756 760 764 768 772 776 780 784 788 792 796 800 804 808 812 816 820 824 828 832 836 840 844 848 852 856 860 864 868 872 876 880 884 888 892 896 900 904 908 912 916 920 924 928 932 936 940 944 948 952 956 960 964 968 972 976 980 984 988 992 996 1000 1004 1008 1012 1016 1020 1024 1028 1032 1036 1040 1044 1048 1052 1056 1060 1064 1068 1072 1076 1080 1084 1088 1092 1096 1100 1104 1108 1112 1116 1120 1124 1128 1132 1136 1140 1144 1148 1152 1156 1160 1164 1168 1172 1176 1180 1184 1188 1192 1196 1200 1204 1208 1212 1216 1220 1224 1228 1232 1236 1240 1244 1248 1252 1256 1260 1264 1268 1272 1276 1280 1284 1288 1292 1296 1300 1304 1308 1312 1316 1320 1324 1328 1332 1336 1340 1344 1348 1352 1356 1360 1364 1368 1372 1376 1380 1384 1388 1392 1396 1400 1404 1408 1412 1416 1420 1424 1428 1432 1436 1440 1444 1448 1452 1456 1460 1464 1468 1472 1476 1480 1484 1488 1492 1496 1500 1504 1508 1512 1516 1520 1524 1528 1532 1536 1540 1544 1548 1552 1556 1560 1564 1568 1572 1576 1580 1584 1588 1592 1596 1600 1604 1608 1612 1616 1620 1624 1628 1632 1636 1640 1644 1648 1652 1656 1660 1664 1668 1672 1676 1680 1684 1688 1692 1696 1700 1704 1708 1712 1716 1720 1724 1728 1732 1736 1740 1744 1748 1752 1756 1760 1764 1768 1772 1776 1780 1784 1788 1792 1796 1800 1804 1808 1812 1816 1820 1824 1828 1832 1836 1840 1844 1848 1852 1856 1860 1864 1868 1872 1876 1880 1884 1888 1892 1896 1900 1904 1908 1912 1916 1920 
</DataArray>
<DataArray type="UInt8" Name="types" format="ascii">
7 7 7 7 7 7 7 7 7 7 7 7 7 7 7 7 7 7 7 7 7 7 7 7 7 7 7 7 7 7 7 7 7 7 7 7 7 7 7 7 7 7 7 7 7 7 7 7 7 7 7 7 7 7 7 7 7 7 7 7 7 7 7 7 7 7 7 7 7 7 7 7 7 7 7 7 7 7 7 7 7 7 7 7 7 7 7 7 7 7 7 7 7 7 7 7 7 7 7 7 7 7 7 7 7 7 7 7 7 7 7 7 7 7 7 7 7 7 7 7 7 7 7 7 7 7 7 7 7 7 7 7 7 7 7 7 7 7 7 7 7 7 7 7 7 7 7 7 7 7 7 7 7 7 7 7 7 7 7 7 7 7 7 7 7 7 7 7 7 7 7 7 7 7 7 7 7 7 7 7 7 7 7 7 7 7 7 7 7 7 7 7 7 7 7 7 7 7 7 7 7 7 7 7 7 7 7 7 7 7 7 7 7 7 7 7 7 7 7 7 7 7 7 7 7 7 7 7 7 7 7 7 7 7 7 7 7 7 7 7 7 7 7 7 7 7 7 7 7 7 7 7 7 7 7 7 7 7 7 7 7 7 7 7 7 7 7 7 7 7 7 7 7 7 7 7 7 7 7 7 7 7 7 7 7 7 7 7 7 7 7 7 7 7 7 7 7 7 7 7 7 7 7 7 7 7 7 7 7 7 7 7 7 7 7 7 7 7 7 7 7 7 7 7 7 7 7 7 7 7 7 7 7 7 7 7 7 7 7 7 7 7 7 7 7 7 7 7 7 7 7 7 7 7 7 7 7 7 7 7 7 7 7 7 7 7 7 7 7 7 7 7 7 7 7 7 7 7 7 7 7 7 7 7 7 7 7 7 7 7 7 7 7 7 7 7 7 7 7 7 7 7 7 7 7 7 7 7 7 7 7 7 7 7 7 7 7 7 7 7 7 7 7 7 7 7 7 7 7 7 7 7 7 7 7 7 7 7 7 7 7 7 7 7 7 7 7 7 7 7 7 7 7 7 7 7 7 7 7 7 7 7 7 7 7 7 7 7 7 7 7 7 7 7 7 7 7 7 7 7 
</DataArray>
</Cells>
<CellData Scalars="wall variable 0">
<DataArray type="Float64" Name="wall length" format="ascii">
0.0166819 1.52078 0.261874 1.50207 1.54252 0.261891 1.52078 0.016688 1.56576 0.261892 1.54252 0.0166904 1.58903 0.261892 1.56576 0.0166914 1.61103 0.261892 1.58903 0.0166919 1.63061 0.261892 1.61103 0.0166922 1.64683 0.261892 1.63061 0.0166924 1.65894 0.261892 1.64683 0.0166926 1.66642 0.261892 1.65894 0.0166926 1.66895 0.261892 1.66642 0.0166927 1.66642 0.261892 1.66895 0.0166927 1.65894 0.261892 1.66642 0.0166926 1.64683 0.261892 1.65894 0.0166926 1.63061 0.261892 1.64683 0.0166924 1.61103 0.261892 1.63061 0.0166922 1.58903 0.261892 1.61103 0.0166919 1.56576 0.261892 1.58903 0.0166914 1.54252 0.261892 1.56576 0.0166904 1.52078 0.261891 1.54252 0.016688 1.50207 0.261874 1.52078 0.0166819 0.261874 1.66897 0.523767 1.66897 0.261891 1.66897 0.523784 1.66897 0.261892 1.66897 0.523785 1.66897 0.261892 1.66897 0.523785 1.66897 0.261892 1.66897 0.523785 1.66897 0.261892 1.66897 0.523785 1.66897 0.261892 1.66897 0.523785 1.66897 0.261892 1.66897 0.523785 1.66897 0.261892 1.66897 0.523785 1.66897 0.261892 1.66897 0.523785 1.66897 0.261892 1.66897 0.523785 1.66897 0.261892 1.66897 0.523785 1.66897 0.261892 1.66897 0.523785 1.66897 0.261892 1.66897 0.523785 1.66897 0.261892 1.66897 0.523785 1.66897 0.261892 1.66897 0.523785 1.66897 0.261892 1.66897 0.523785 1.66897 0.261892 1.66897 0.523785 1.66897 0.261891 1.66897 0.523784 1.66897 0.261874 1.66897 0.523767 1.66897 1.66897 0.785659 1.66897 0.523767 1.66897 0.785677 1.66897 0.523784 1.66897 0.785677 1.66897 0.523785 1.66897 0.785677 1.66897 0.523785 1.66897 0.785677 1.66897 0.523785 1.66897 0.785677 1.66897 0.523785 1.66897 0.785677 1.66897 0.523785 1.66897 0.785677 1.66897 0.523785 1.66897 0.785677 1.66897 0.523785 1.66897 0.785677 1.66897 0.523785 1.66897 0.785677 1.66897 0.523785 1.66897 0.785677 1.66897 0.523785 1.66897 0.785677 1.66897 0.523785 1.66897 0.785677 1.66897 0.523785 1.66897 0.785677 1.66897 0.523785 1.66897 0.785677 1.66897 0.523785 1.66897 0.785677 1.66897 0.523785 1.66897 0.785677 1.66897 0.523785 1.66897 0.785677 1.66897 0.523784 0.523767 1.66897 0.785659 1.66897 1.66897 1.04755 1.66897 0.785659 1.66897 1.04757 1.66897 0.785677 1.66897 1.04757 1.66897 0.785677 1.66897 1.04757 1.66897 0.785677 1.66897 1.04757 1.66897 0.785677 1.66897 1.04757 1.66897 0.785677 1.66897 1.04757 1.66897 0.785677 1.66897 1.04757 1.66897 0.785677 1.66897 1.04757 1.66897 0.785677 1.66897 1.04757 1.66897 0.785677 1.66897 1.04757 1.66897 0.785677 1.66897 1.04757 1.66897 0.785677 1.66897 1.04757 1.66897 0.785677 1.66897 1.04757 1.66897 0.785677 1.66897 1.04757 1.66897 0.785677 1.66897 1.04757 1.66897 0.785677 1.66897 1.04757 1.66897 0.785677 1.66897 1.04757 1.66897 0.785677 1.66897 1.04757 1.66897 0.785677 0.785659 1.66897 1.04755 1.66897 1.66897 1.30944 1.66897 1.04755 1.66897 1.30946 1.66897 1.04757 1.66897 1.30946 1.66897 1.04757 1.66897 1.30946 1.66897 1.04757 1.66897 1.30946 1.66897 1.04757 1.66897 1.30946 1.66897 1.04757 1.66897 1.30946 1.66897 1.04757 1.66897 1.30946 1.66897 1.04757 1.66897 1.30946 1.66897 1.04757 1.66897 1.30946 1.66897 1.04757 1.66897 1.30946 1.66897 1.04757 1.66897 1.30946 1.66897 1.04757 1.66897 1.30946 1.66897 1.04757 1.66897 1.30946 1.66897 1.04757 1.66897 1.30946 1.66897 1.04757 1.66897 1.30946 1.66897 1.04757 1.66897 1.30946 1.66897 1.04757 1.66897 1.30946 1.66897 1.04757 1.66897 1.30946 1.66897 1.04757 1.04755 1.66897 1.30944 1.66897 1.57133 1.66896 1.30944 1.66896 1.57135 1.66896 1.30946 1.66896 1.57135 1.66896 1.30946 1.66896 1.57135 1.66896 1.30946 1.66896 1.57135 1.66896 1.30946 1.66896 1.57135 1.66896 1.30946 1.66896 1.57135 1.66896 1.30946 1.66896 1.57135 1.66896 1.30946 1.66896 1.57135 1.66896 1.30946 1.66896 1.57135 1.66896 1.30946 1.66896 1.57135 1.66896 1.30946 1.66896 1.57135 1.66896 1.30946 1.66896 1.57135 1.66896 1.30946 1.66896 1.57135 1.66896 1.30946 1.66896 1.57135 1.66896 1.30946 1.66896 1.57135 1.66896 1.30946 1.66896 1.57135 1.66896 1.30946 1.66896 1.57135 1.66896 1.30946 1.66896 1.57135 1.66896 1.30946 1.66896 1.30944 1.66896 1.57133 1.66896 
</DataArray>
<DataArray type="Float64" Name="wall variable 0" format="ascii">
0 5.00138e-10 1.3223e-08 0 5.00138e-10 1.3223e-08 5.00138e-10 0 5.00138e-10 1.3223e-08 5.00138e-10 0 5.00138e-10 1.3223e-08 5.00138e-10 0 5.00138e-10 1.3223e-08 5.00138e-10 0 5.00138e-10 1.3223e-08 5.00138e-10 0 5.00138e-10 1.3223e-08 5.00138e-10 0 5.00138e-10 1.3223e-08 5.00138e-10 0 5.00138e-10 1.3223e-08 5.00138e-10 0 5.00138e-10 1.3223e-08 5.00138e-10 0 5.00138e-10 1.3223e-08 5.00138e-10 0 5.00138e-10 1.3223e-08 5.00138e-10 0 5.00138e-10 1.3223e-08 5.00138e-10 0 5.00138e-10 1.3223e-08 5.00138e-10 0 5.00138e-10 1.3223e-08 5.00138e-10 0 5.00138e-10 1.3223e-08 5.00138e-10 0 5.00138e-10 1.3223e-08 5.00138e-10 0 5.00138e-10 1.3223e-08 5.00138e-10 0 5.00138e-10 1.3223e-08 5.00138e-10 0 0 1.3223e-08 5.00138e-10 0 5.00137e-10 1.3223e-08 2.89866e-07 0 5.00137e-10 1.3223e-08 2.89866e-07 1.3223e-08 5.00137e-10 1.3223e-08 2.89866e-07 1.3223e-08 5.00137e-10 1.3223e-08 2.89866e-07 1.3223e-08 5.00137e-10 1.3223e-08 2.89866e-07 1.3223e-08 5.00137e-10 1.3223e-08 2.89866e-07 1.3223e-08 5.00137e-10 1.3223e-08 2.89866e-07 1.3223e-08 5.00137e-10 1.3223e-08 2.89866e-07 1.3223e-08 5.00137e-10 1.3223e-08 2.89866e-07 1.3223e-08 5.00137e-10 1.3223e-08 2.89866e-07 1.3223e-08 5.00137e-10 1.3223e-08 2.89866e-07 1.3223e-08 5.00137e-10 1.3223e-08 2.89866e-07 1.3223e-08 5.00137e-10 1.3223e-08 2.89866e-07 1.3223e-08 5.00137e-10 1.3223e-08 2.89866e-07 1.3223e-08 5.00137e-10 1.3223e-08 2.89866e-07 1.3223e-08 5.00137e-10 1.3223e-08 2.89866e-07 1.3223e-08 5.00137e-10 1.3223e-08 2.89866e-07 1.3223e-08 5.00137e-10 1.3223e-08 2.89866e-07 1.3223e-08 5.00137e-10 1.3223e-08 2.89866e-07 1.3223e-08 5.00137e-10 0 2.89866e-07 1.3223e-08 2.89856e-07 5.37541e-06 0 1.32225e-08 2.89855e-07 5.3754e-06 2.89855e-07 1.32225e-08 2.89855e-07 5.3754e-06 2.89855e-07 1.32225e-08 2.89855e-07 5.3754e-06 2.89855e-07 1.32225e-08 2.89855e-07 5.3754e-06 2.89855e-07 1.32225e-08 2.89855e-07 5.3754e-06 2.89855e-07 1.32225e-08 2.89855e-07 5.3754e-06 2.89855e-07 1.32225e-08 2.89855e-07 5.3754e-06 2.89855e-07 1.32225e-08 2.89855e-07 5.3754e-06 2.89855e-07 1.32225e-08 2.89855e-07 5.3754e-06 2.89855e-07 1.32225e-08 2.89855e-07 5.3754e-06 2.89855e-07 1.32225e-08 2.89855e-07 5.3754e-06 2.89855e-07 1.32225e-08 2.89855e-07 5.3754e-06 2.89855e-07 1.32225e-08 2.89855e-07 5.3754e-06 2.89855e-07 1.32225e-08 2.89855e-07 5.3754e-06 2.89855e-07 1.32225e-08 2.89855e-07 5.3754e-06 2.89855e-07 1.32225e-08 2.89855e-07 5.3754e-06 2.89855e-07 1.32225e-08 2.89855e-07 5.3754e-06 2.89855e-07 1.32225e-08 2.89855e-07 5.3754e-06 2.89855e-07 1.32225e-08 1.32225e-08 0 5.37541e-06 2.89856e-07 5.37267e-06 8.15801e-05 0 2.89696e-07 5.37243e-06 8.15769e-05 5.37244e-06 2.89682e-07 5.37243e-06 8.15768e-05 5.37243e-06 2.89682e-07 5.37243e-06 8.15768e-05 5.37243e-06 2.89682e-07 5.37243e-06 8.15768e-05 5.37243e-06 2.89682e-07 5.37243e-06 8.15768e-05 5.37243e-06 2.89682e-07 5.37243e-06 8.15768e-05 5.37243e-06 2.89682e-07 5.37243e-06 8.15768e-05 5.37243e-06 2.89682e-07 5.37243e-06 8.15768e-05 5.37243e-06 2.89682e-07 5.37243e-06 8.15768e-05 5.37243e-06 2.89682e-07 5.37243e-06 8.15768e-05 5.37243e-06 2.89682e-07 5.37243e-06 8.15768e-05 5.37243e-06 2.89682e-07 5.37243e-06 8.15768e-05 5.37243e-06 2.89682e-07 5.37243e-06 8.15768e-05 5.37243e-06 2.89682e-07 5.37243e-06 8.15768e-05 5.37243e-06 2.89682e-07 5.37243e-06 8.15768e-05 5.37243e-06 2.89682e-07 5.37243e-06 8.15768e-05 5.37243e-06 2.89682e-07 5.37243e-06 8.15768e-05 5.37243e-06 2.89682e-07 5.37244e-06 8.15769e-05 5.37243e-06 2.89682e-07 2.89696e-07 0 8.15801e-05 5.37267e-06 8.11393e-05 0.000947872 0 5.34117e-06 8.1085e-05 0.000947361 8.10851e-05 5.33713e-06 8.1085e-05 0.000947357 8.10851e-05 5.33713e-06 8.1085e-05 0.000947357 8.1085e-05 5.33713e-06 8.1085e-05 0.000947357 8.1085e-05 5.33713e-06 8.1085e-05 0.000947357 8.1085e-05 5.33713e-06 8.1085e-05 0.000947357 8.1085e-05 5.33713e-06 8.1085e-05 0.000947357 8.1085e-05 5.33713e-06 8.1085e-05 0.000947357 8.1085e-05 5.33713e-06 8.1085e-05 0.000947357 8.1085e-05 5.33713e-06 8.1085e-05 0.000947357 8.1085e-05 5.33713e-06 8.1085e-05 0.000947357 8.1085e-05 5.33713e-06 8.1085e-05 0.000947357 8.1085e-05 5.33713e-06 8.1085e-05 0.000947357 8.1085e-05 5.33713e-06 8.1085e-05 0.000947357 8.1085e-05 5.33713e-06 8.1085e-05 0.000947357 8.1085e-05 5.33713e-06 8.1085e-05 0.000947357 8.1085e-05 5.33713e-06 8.10851e-05 0.000947357 8.1085e-05 5.33713e-06 8.10851e-05 0.000947361 8.1085e-05 5.33713e-06 5.34117e-06 0 0.000947872 8.11393e-05 0 0 8.53355e-05 0.000989381 0 0.000981886 8.45814e-05 0.000981891 0 0.000981894 8.45813e-05 0.00098189 0 0.00098189 8.45813e-05 0.00098189 0 0.00098189 8.45813e-05 0.00098189 0 0.00098189 8.45813e-05 0.00098189 0 0.00098189 8.45813e-05 0.00098189 0 0.00098189 8.45813e-05 0.00098189 0 0.00098189 8.45813e-05 0.00098189 0 0.00098189 8.45813e-05 0.00098189 0 0.00098189 8.45813e-05 0.00098189 0 0.00098189 8.45813e-05 0.00098189 0 0.00098189 8.45813e-05 0.00098189 0 0.00098189 8.45813e-05 0.00098189 0 0.00098189 8.45813e-05 0.00098189 0 0.00098189 8.45813e-05 0.00098189 0 0.00098189 8.45813e-05 0.00098189 0 0.00098189 8.45813e-05 0.000981894 0 0.000981891 8.45814e-05 0.000981886 8.53355e-05 0 0 0.000989381 
</DataArray>
<DataArray type="Float64" Name="wall variable 1" format="ascii">
0.5 0.435207 0.435207 0.5 0.435207 0.435207 0.5 0.5 0.435207 0.435207 0.5 0.5 0.435207 0.435207 0.5 0.5 0.435207 0.435207 0.5 0.5 0.435207 0.435207 0.5 0.5 0.435207 0.435207 0.5 0.5 0.435207 0.435207 0.5 0.5 0.435207 0.435207 0.5 0.5 0.435207 0.435207 0.5 0.5 0.435207 0.435207 0.5 0.5 0.435207 0.435207 0.5 0.5 0.435207 0.435207 0.5 0.5 0.435207 0.435207 0.5 0.5 0.435207 0.435207 0.5 0.5 0.435207 0.435207 0.5 0.5 0.435207 0.435207 0.5 0.5 0.435207 0.435207 0.5 0.5 0.435207 0.435207 0.5 0.5 0.5 0.435207 0.5 0.5 0.5 0.435207 0.435207 0.5 0.5 0.435207 0.435207 0.5 0.5 0.435207 0.435207 0.5 0.5 0.435207 0.435207 0.5 0.5 0.435207 0.435207 0.5 0.5 0.435207 0.435207 0.5 0.5 0.435207 0.435207 0.5 0.5 0.435207 0.435207 0.5 0.5 0.435207 0.435207 0.5 0.5 0.435207 0.435207 0.5 0.5 0.435207 0.435207 0.5 0.5 0.435207 0.435207 0.5 0.5 0.435207 0.435207 0.5 0.5 0.435207 0.435207 0.5 0.5 0.435207 0.435207 0.5 0.5 0.435207 0.435207 0.5 0.5 0.435207 0.435207 0.5 0.5 0.435207 0.435207 0.5 0.5 0.435207 0.435207 0.5 0.5 0.5 0.435207 0.5 0.435207 0.435207 0.5 0.5 0.435207 0.435207 0.5 0.5 0.435207 0.435207 0.5 0.5 0.435207 0.435207 0.5 0.5 0.435207 0.435207 0.5 0.5 0.435207 0.435207 0.5 0.5 0.435207 0.435207 0.5 0.5 0.435207 0.435207 0.5 0.5 0.435207 0.435207 0.5 0.5 0.435207 0.435207 0.5 0.5 0.435207 0.435207 0.5 0.5 0.435207 0.435207 0.5 0.5 0.435207 0.435207 0.5 0.5 0.435207 0.435207 0.5 0.5 0.435207 0.435207 0.5 0.5 0.435207 0.435207 0.5 0.5 0.435207 0.435207 0.5 0.5 0.435207 0.435207 0.5 0.5 0.435207 0.435207 0.5 0.5 0.5 0.5 0.435207 0.5 0.435207 0.435207 0.5 0.5 0.435207 0.435207 0.5 0.5 0.435207 0.435207 0.5 0.5 0.435207 0.435207 0.5 0.5 0.435207 0.435207 0.5 0.5 0.435207 0.435207 0.5 0.5 0.435207 0.435207 0.5 0.5 0.435207 0.435207 0.5 0.5 0.435207 0.435207 0.5 0.5 0.435207 0.435207 0.5 0.5 0.435207 0.435207 0.5 0.5 0.435207 0.435207 0.5 0.5 0.435207 0.435207 0.5 0.5 0.435207 0.435207 0.5 0.5 0.435207 0.435207 0.5 0.5 0.435207 0.435207 0.5 0.5 0.435207 0.435207 0.5 0.5 0.435207 0.435207 0.5 0.5 0.435207 0.435207 0.5 0.5 0.5 0.5 0.435207 0.5 0.435207 0.435208 0.5 0.5 0.435207 0.435208 0.5 0.5 0.435207 0.435208 0.5 0.5 0.435207 0.435208 0.5 0.5 0.435207 0.435208 0.5 0.5 0.435207 0.435208 0.5 0.5 0.435207 0.435208 0.5 0.5 0.435207 0.435208 0.5 0.5 0.435207 0.435208 0.5 0.5 0.435207 0.435208 0.5 0.5 0.435207 0.435208 0.5 0.5 0.435207 0.435208 0.5 0.5 0.435207 0.435208 0.5 0.5 0.435207 0.435208 0.5 0.5 0.435207 0.435208 0.5 0.5 0.435207 0.435208 0.5 0.5 0.435207 0.435208 0.5 0.5 0.435207 0.435208 0.5 0.5 0.435207 0.435208 0.5 0.5 0.5 0.5 0.435208 0.5 0.5 0.5 0.5 0.435207 0.5 0.5 0.5 0.435207 0.5 0.5 0.5 0.435207 0.5 0.5 0.5 0.435207 0.5 0.5 0.5 0.435207 0.5 0.5 0.5 0.435207 0.5 0.5 0.5 0.435207 0.5 0.5 0.5 0.435207 0.5 0.5 0.5 0.435207 0.5 0.5 0.5 0.435207 0.5 0.5 0.5 0.435207 0.5 0.5 0.5 0.435207 0.5 0.5 0.5 0.435207 0.5 0.5 0.5 0.435207 0.5 0.5 0.5 0.435207 0.5 0.5 0.5 0.435207 0.5 0.5 0.5 0.435207 0.5 0.5 0.5 0.435207 0.5 0.5 0.5 0.435207 0.5 0.5 0.5 0.5 
</DataArray>
<DataArray type="Float64" Name="wall variable 2" format="ascii">
0 6.94302e-24 8.27746e-16 0 1.64213e-23 8.27747e-16 0 0 2.40005e-24 8.27747e-16 0 0 1.89605e-25 8.27747e-16 0 0 1.05482e-26 8.27747e-16 0 0 4.59117e-28 8.27747e-16 0 0 1.72317e-29 8.27747e-16 0 0 5.1769e-31 8.27747e-16 0 0 7.39557e-32 8.27747e-16 0 0 0 8.27747e-16 0 0 0 8.27747e-16 0 0 0 8.27747e-16 7.39557e-32 0 0 8.27747e-16 5.1769e-31 0 0 8.27747e-16 1.72317e-29 0 0 8.27747e-16 4.59117e-28 0 0 8.27747e-16 1.05482e-26 0 0 8.27747e-16 1.89605e-25 0 0 8.27747e-16 2.40005e-24 0 0 8.27747e-16 1.64213e-23 0 0 8.27746e-16 6.94302e-24 0 0 2.18651e-20 5.01042e-13 0 0 1.96787e-20 5.01049e-13 0 0 2.59542e-21 5.01049e-13 0 0 1.8891e-22 5.01049e-13 0 0 9.8373e-24 5.01049e-13 0 0 4.05841e-25 5.01049e-13 0 0 1.38019e-26 5.01049e-13 0 0 3.59721e-28 5.01049e-13 0 0 0 5.01049e-13 0 0 0 5.01049e-13 0 0 0 5.01049e-13 0 0 0 5.01049e-13 0 0 0 5.01049e-13 3.59721e-28 0 0 5.01049e-13 1.38019e-26 0 0 5.01049e-13 4.05841e-25 0 0 5.01049e-13 9.8373e-24 0 0 5.01049e-13 1.8891e-22 0 0 5.01049e-13 2.59542e-21 0 0 5.01049e-13 1.96787e-20 0 0 5.01042e-13 2.18651e-20 1.38748e-16 2.01362e-10 0 0 1.76812e-17 2.014e-10 0 0 2.0247e-18 2.014e-10 0 0 1.32324e-19 2.014e-10 0 0 6.33225e-21 2.014e-10 0 0 2.44374e-22 2.014e-10 0 0 8.11348e-24 2.014e-10 0 0 2.22951e-25 2.014e-10 0 0 0 2.014e-10 0 0 0 2.014e-10 0 0 0 2.014e-10 0 0 0 2.014e-10 0 0 0 2.014e-10 2.22951e-25 0 0 2.014e-10 8.11348e-24 0 0 2.014e-10 2.44374e-22 0 0 2.014e-10 6.33225e-21 0 0 2.014e-10 1.32324e-19 0 0 2.014e-10 2.0247e-18 0 0 2.014e-10 1.76812e-17 0 0 0 2.01362e-10 1.38748e-16 6.8682e-13 5.71708e-08 0 0 1.23232e-14 5.72963e-08 0 0 1.1565e-15 5.72964e-08 0 0 6.55907e-17 5.72965e-08 0 0 2.82181e-18 5.72965e-08 0 0 1.0019e-19 5.72965e-08 0 0 2.9977e-21 5.72965e-08 0 0 8.6854e-23 5.72965e-08 0 0 4.96308e-24 5.72965e-08 0 0 0 5.72965e-08 0 0 0 5.72965e-08 0 0 0 5.72965e-08 4.96308e-24 0 0 5.72965e-08 8.6854e-23 0 0 5.72965e-08 2.9977e-21 0 0 5.72965e-08 1.0019e-19 0 0 5.72965e-08 2.82181e-18 0 0 5.72965e-08 6.55907e-17 0 0 5.72964e-08 1.1565e-15 0 0 5.72963e-08 1.23232e-14 0 0 0 5.71708e-08 6.8682e-13 1.80392e-09 9.1808e-06 0 0 6.22848e-12 9.36084e-06 0 0 4.30133e-13 9.36089e-06 0 0 2.00664e-14 9.36089e-06 0 0 7.52359e-16 9.36089e-06 0 0 2.41217e-17 9.36089e-06 0 0 6.64497e-19 9.36089e-06 0 0 1.20702e-20 9.36089e-06 0 0 6.35275e-22 9.36089e-06 0 0 0 9.36089e-06 0 0 0 9.36089e-06 0 0 0 9.36089e-06 6.35275e-22 0 0 9.36089e-06 1.20702e-20 0 0 9.36089e-06 6.64497e-19 0 0 9.36089e-06 2.41217e-17 0 0 9.36089e-06 7.52359e-16 0 0 9.36089e-06 2.00664e-14 0 0 9.36089e-06 4.30133e-13 0 0 9.36084e-06 6.22848e-12 0 0 0 9.1808e-06 1.80392e-09 0 0 0 1.95771e-06 0 0 0 1.945e-09 0 0 0 7.38552e-11 0 0 0 2.59997e-12 0 0 0 8.16924e-14 0 0 0 2.3176e-15 0 0 0 6.00919e-17 0 0 0 1.42302e-18 0 0 0 4.06576e-20 0 0 0 0 0 0 0 0 0 4.06576e-20 0 0 0 1.42302e-18 0 0 0 6.00919e-17 0 0 0 2.3176e-15 0 0 0 8.16924e-14 0 0 0 2.59997e-12 0 0 0 7.38552e-11 0 0 0 1.945e-09 0 0 0 0 0 1.95771e-06 
</DataArray>
</CellData>
</Piece>
</UnstructuredGrid>
</VTKFile>
