<VTKFile type="UnstructuredGrid" version="0.1">
<UnstructuredGrid>
<Piece  NumberOfPoints="     943" NumberOfCells="     716">
<Points>
<DataArray type="Float64" NumberOfComponents="3" format="ascii">
-0.41338 -7.24921 0 
-0.39445 -7.23521 0 
-0.368938 -7.21848 0 
-0.336869 -7.20027 0 
-0.298768 -7.18194 0 
-0.255454 -7.1647 0 
-0.207869 -7.14952 0 
-0.156959 -7.1371 0 
-0.103629 -7.12793 0 
-0.0487262 -7.12232 0 
0.00695063 -7.12043 0 
0.0626275 -7.12232 0 
0.117531 -7.12793 0 
0.17086 -7.1371 0 
0.22177 -7.14952 0 
0.269356 -7.1647 0 
0.312669 -7.18194 0 
0.35077 -7.20027 0 
0.38284 -7.21848 0 
0.408352 -7.23521 0 
0.427282 -7.24921 0 
-3.17372 -7.15662 0 
-3.12172 -6.75713 0 
-3.00556 -6.30678 0 
-2.81773 -5.85774 0 
-2.56 -5.43641 0 
-2.23825 -5.05828 0 
-1.86045 -4.7344 0 
-1.43602 -4.47342 0 
-0.97555 -4.28207 0 
-0.490519 -4.16527 0 
0.00695063 -4.126 0 
0.504421 -4.16527 0 
0.989451 -4.28207 0 
1.44992 -4.47342 0 
1.87435 -4.7344 0 
2.25215 -5.05828 0 
2.5739 -5.43641 0 
2.83164 -5.85774 0 
3.01946 -6.30678 0 
3.13562 -6.75713 0 
3.18762 -7.15662 0 
-6.34791 -7.13018 0 
-6.2532 -6.2688 0 
-6.01994 -5.3303 0 
-5.63991 -4.41719 0 
-5.12058 -3.57026 0 
-4.47479 -2.81417 0 
-3.71856 -2.16825 0 
-2.87057 -1.64857 0 
-1.95169 -1.26794 0 
-0.984582 -1.03575 0 
0.00695063 -0.957712 0 
0.998483 -1.03575 0 
1.9656 -1.26794 0 
2.88447 -1.64857 0 
3.73247 -2.16825 0 
4.48869 -2.81417 0 
5.13448 -3.57026 0 
5.65381 -4.41719 0 
6.03384 -5.3303 0 
6.2671 -6.2688 0 
6.36181 -7.13018 0 
-9.53158 -7.11839 0 
-9.3972 -5.77799 0 
-9.04783 -4.34936 0 
-8.47645 -2.97257 0 
-7.69593 -1.69915 0 
-6.72564 -0.563107 0 
-5.58954 0.407207 0 
-4.31564 1.18786 0 
-2.9353 1.75961 0 
-1.48251 2.1084 0 
0.00695071 2.22562 0 
1.49641 2.1084 0 
2.9492 1.75961 0 
4.32954 1.18786 0 
5.60344 0.407207 0 
6.73954 -0.563107 0 
7.70983 -1.69915 0 
8.49035 -2.97257 0 
9.06173 -4.34936 0 
9.4111 -5.77799 0 
9.54548 -7.11839 0 
-12.7151 -7.11158 0 
-12.5416 -5.28486 0 
-12.0759 -3.36692 0 
-11.3132 -1.52742 0 
-10.2716 0.172192 0 
-8.97688 1.68818 0 
-7.46088 2.98295 0 
-5.76101 4.02463 0 
-3.9191 4.78756 0 
-1.98053 5.25297 0 
0.00698334 5.40938 0 
1.9945 5.25296 0 
3.93307 4.78754 0 
5.77497 4.0246 0 
7.47484 2.98291 0 
8.99082 1.68813 0 
10.2856 0.17216 0 
11.3272 -1.52746 0 
12.0898 -3.36697 0 
12.5554 -5.28486 0 
12.729 -7.11158 0 
-15.8862 -7.10778 0 
-15.6745 -4.79207 0 
-15.0929 -2.38732 0 
-14.1397 -0.0872473 0 
-12.8379 2.03687 0 
-11.2199 3.93146 0 
-9.3254 5.54948 0 
-7.20107 6.85124 0 
-4.89926 7.80465 0 
-2.47664 8.38624 0 
0.00713245 8.58169 0 
2.4909 8.38618 0 
4.91351 7.80454 0 
7.2153 6.85107 0 
9.33959 5.54927 0 
11.2341 3.93118 0 
12.8521 2.03666 0 
14.1538 -0.0875181 0 
15.107 -2.38761 0 
15.6883 -4.7921 0 
15.9001 -7.10778 0 
-18.8938 -7.10714 0 
-18.6456 -4.32442 0 
-17.954 -1.45856 0 
-16.8202 1.27805 0 
-15.2718 3.80474 0 
-13.3469 6.05791 0 
-11.0935 7.98247 0 
-8.56682 9.53087 0 
-5.82901 10.6649 0 
-2.94749 11.3568 0 
0.00676946 11.5893 0 
2.96104 11.3568 0 
5.84256 10.6651 0 
8.5804 9.53103 0 
11.1071 7.98269 0 
13.3605 6.05814 0 
15.2851 3.80477 0 
16.8335 1.27817 0 
17.9674 -1.45836 0 
18.6595 -4.32442 0 
18.9077 -7.10714 0 
-14.1065 2.9756 0 
-12.348 5.03925 0 
-12.2188 4.95004 0 
-10.2658 6.81963 0 
-10.1524 6.7116 0 
-7.93119 8.25286 0 
-7.83613 8.12842 0 
-5.40113 9.30323 0 
-5.32671 9.16546 0 
-2.7379 9.94488 0 
-2.68595 9.79716 0 
-0.00708749 10.162 0 
0.0211182 10.008 0 
2.72407 9.94927 0 
2.72784 9.79273 0 
5.38833 9.31191 0 
5.36756 9.1567 0 
7.92008 8.26561 0 
7.87528 8.11556 0 
10.257 6.83614 0 
10.1893 6.69494 0 
12.3415 5.05869 0 
12.2525 4.92983 0 
14.1223 2.97705 0 
-15.54 0.641718 0 
-14.2404 3.03853 0 
14.0142 2.86369 0 
15.5555 0.642517 0 
-16.5899 -1.88718 0 
-15.6819 0.682703 0 
15.431 0.547484 0 
16.6056 -1.88659 0 
-17.229 -4.5383 0 
-16.7363 -1.86858 0 
16.4677 -1.96068 0 
17.2473 -4.53781 0 
-17.4448 -7.1358 0 
-17.3765 -4.53926 0 
17.3949 -4.53852 0 
17.4628 -7.1358 0 
-11.6013 1.14388 0 
-10.1476 2.85241 0 
-10.0249 2.74264 0 
-8.43489 4.31579 0 
-8.33096 4.18832 0 
-6.51452 5.49342 0 
-6.43181 5.35127 0 
-4.43357 6.35615 0 
-4.37412 6.20281 0 
-2.24328 6.88272 0 
-2.20855 6.72197 0 
0.0024207 7.06018 0 
0.0115717 6.89597 0 
2.24823 6.88414 0 
2.23158 6.72052 0 
4.43885 6.35895 0 
4.39681 6.19995 0 
6.52035 5.49754 0 
6.45395 5.34707 0 
8.44146 4.32111 0 
8.35234 4.18288 0 
10.1549 2.85864 0 
10.0452 2.73606 0 
11.6184 1.14615 0 
11.491 1.04223 0 
12.796 -0.774068 0 
-12.7788 -0.775695 0 
-11.7302 1.22629 0 
12.6538 -0.85673 0 
13.6584 -2.85339 0 
-13.6408 -2.85453 0 
-12.9188 -0.714524 0 
-14.1652 -5.02811 0 
-13.7886 -2.81568 0 
13.5049 -2.91242 0 
14.1834 -5.02748 0 
-14.3496 -7.12198 0 
-14.317 -5.00953 0 
14.3351 -5.00889 0 
14.3655 -7.12198 0 
-0.591881 -7.22982 0.0
-0.574844 -7.21723 0.0
-3.02939 -6.78695 0.0
-3.07619 -7.14649 0.0
-0.54486 -7.17404 0.0
-2.91782 -6.35351 0.0
-3.02237 -6.75882 0.0
-0.567821 -7.18909 0.0
-0.504153 -7.12817 0.0
-2.73693 -5.91989 0.0
-2.90597 -6.32402 0.0
-0.533015 -7.14455 0.0
-0.453332 -7.08341 0.0
-2.48844 -5.51242 0.0
-2.7204 -5.89163 0.0
-0.487623 -7.0999 0.0
-0.393562 -7.04214 0.0
-2.17808 -5.14636 0.0
-2.46766 -5.48667 0.0
-0.432544 -7.05765 0.0
-0.326215 -7.006 0.0
-1.81354 -4.83239 0.0
-2.15356 -5.12388 0.0
-0.369042 -7.01967 0.0
-0.252724 -6.97618 0.0
-1.40388 -4.57886 0.0
-1.78587 -4.81375 0.0
-0.298543 -6.98736 0.0
-0.174534 -6.95356 0.0
-0.959263 -4.39228 0.0
-1.37369 -4.56449 0.0
-0.222531 -6.96181 0.0
-0.093085 -6.93874 0.0
-0.490699 -4.27739 0.0
-0.927227 -4.38251 0.0
-0.142498 -6.94379 0.0
-0.00981725 -6.9321 0.0
-0.00981725 -4.23711 0.0
-0.45754 -4.27245 0.0
-0.0599264 -6.9338 0.0
0.0738277 -6.9338 0.0
0.471442 -4.27245 0.0
0.0237185 -4.23711 0.0
0.0237185 -6.9321 0.0
0.156399 -6.94379 0.0
0.941128 -4.38251 0.0
0.5046 -4.27739 0.0
0.106986 -6.93874 0.0
0.236432 -6.96181 0.0
1.38759 -4.56449 0.0
0.973164 -4.39228 0.0
0.188435 -6.95356 0.0
0.312444 -6.98736 0.0
1.79977 -4.81375 0.0
1.41778 -4.57886 0.0
0.266626 -6.97618 0.0
0.382943 -7.01967 0.0
2.16746 -5.12388 0.0
1.82744 -4.83239 0.0
0.340116 -7.006 0.0
0.446445 -7.05765 0.0
2.48156 -5.48667 0.0
2.19198 -5.14636 0.0
0.407463 -7.04214 0.0
0.501524 -7.0999 0.0
2.7343 -5.89163 0.0
2.50235 -5.51242 0.0
0.467233 -7.08341 0.0
0.546916 -7.14455 0.0
2.91987 -6.32402 0.0
2.75083 -5.91989 0.0
0.518054 -7.12817 0.0
0.581722 -7.18909 0.0
3.03627 -6.75882 0.0
2.93172 -6.35351 0.0
0.558762 -7.17404 0.0
0.605783 -7.22982 0.0
3.09009 -7.14649 0.0
3.04329 -6.78695 0.0
0.588746 -7.21723 0.0
-3.34797 -7.12219 0.0
-3.30117 -6.76265 0.0
-6.1195 -6.32315 0.0
-6.20474 -7.09839 0.0
-3.28751 -6.6937 0.0
-3.18296 -6.28839 0.0
-5.89591 -5.40956 0.0
-6.10584 -6.2542 0.0
-3.15863 -6.21705 0.0
-2.98959 -5.81291 0.0
-5.52955 -4.51641 0.0
-5.87158 -5.33821 0.0
-2.95448 -5.74476 0.0
-2.72253 -5.36555 0.0
-5.02704 -3.68602 0.0
-5.49444 -4.44826 0.0
-2.6772 -5.30331 0.0
-2.38762 -4.96299 0.0
-4.4005 -2.94329 0.0
-4.98171 -3.62378 0.0
-2.33309 -4.90848 0.0
-1.99307 -4.61699 0.0
-3.66537 -2.30746 0.0
-4.34598 -2.88878 0.0
-1.93067 -4.57164 0.0
-1.54869 -4.33675 0.0
-2.83977 -1.7944 0.0
-3.60297 -2.26211 0.0
-1.47994 -4.30171 0.0
-1.06551 -4.1295 0.0
-1.94404 -1.41679 0.0
-2.77103 -1.75935 0.0
-0.992121 -4.10565 0.0
-0.555593 -4.00053 0.0
-1.00025 -1.18396 0.0
-1.87065 -1.39293 0.0
-0.479364 -3.98845 0.0
-0.0316408 -3.9531 0.0
-0.0316408 -1.10165 0.0
-0.92402 -1.17188 0.0
0.0455421 -3.9531 0.0
0.493265 -3.98845 0.0
0.937922 -1.17188 0.0
0.0455421 -1.10165 0.0
0.569495 -4.00053 0.0
1.00602 -4.10565 0.0
1.88455 -1.39293 0.0
1.01415 -1.18396 0.0
1.07942 -4.1295 0.0
1.49384 -4.30171 0.0
2.78493 -1.75935 0.0
1.95795 -1.41679 0.0
1.56259 -4.33675 0.0
1.94457 -4.57164 0.0
3.61687 -2.26211 0.0
2.85368 -1.7944 0.0
2.00697 -4.61699 0.0
2.34699 -4.90848 0.0
4.35988 -2.88878 0.0
3.67927 -2.30746 0.0
2.40152 -4.96299 0.0
2.6911 -5.30331 0.0
4.99561 -3.62378 0.0
4.4144 -2.94329 0.0
2.73643 -5.36555 0.0
2.96838 -5.74476 0.0
5.50834 -4.44826 0.0
5.04094 -3.68602 0.0
3.00349 -5.81291 0.0
3.17254 -6.21705 0.0
5.88548 -5.33821 0.0
5.54345 -4.51641 0.0
3.19687 -6.28839 0.0
3.30141 -6.6937 0.0
6.11974 -6.2542 0.0
5.90981 -5.40956 0.0
3.31508 -6.76265 0.0
3.36188 -7.12219 0.0
6.21864 -7.09839 0.0
6.1334 -6.32315 0.0
-6.42758 -6.29836 0.0
-9.25718 -5.85664 0.0
-9.37812 -7.063 0.0
-6.51282 -7.07361 0.0
-6.19653 -5.33788 0.0
-8.92162 -4.45504 0.0
-9.23606 -5.7408 0.0
-6.40646 -6.18253 0.0
-5.81541 -4.39811 0.0
-8.36829 -3.09796 0.0
-8.88253 -4.33707 0.0
-6.15743 -5.21991 0.0
-5.29091 -3.52416 0.0
-7.60872 -1.84015 0.0
-8.31119 -2.98624 0.0
-5.75831 -4.28639 0.0
-4.63581 -2.74202 0.0
-6.66157 -0.716065 0.0
-7.53483 -1.7385 0.0
-5.21702 -3.42251 0.0
-3.86632 -2.07181 0.0
-5.5502 0.246102 0.0
-6.57268 -0.627181 0.0
-4.54692 -2.65313 0.0
-3.00141 -1.53021 0.0
-4.30198 1.02258 0.0
-5.44849 0.319994 0.0
-3.76461 -1.99792 0.0
-2.06242 -1.13057 0.0
-2.94766 1.59423 0.0
-4.18997 1.07965 0.0
-2.8894 -1.47313 0.0
-1.07245 -0.882746 0.0
-1.52059 1.94699 0.0
-2.8281 1.63308 0.0
-1.94286 -1.09172 0.0
-0.0559071 -0.792844 0.0
-0.055907 2.07215 0.0
-1.39642 1.96665 0.0
-0.948287 -0.863079 0.0
0.962188 -0.863079 0.0
1.41033 1.96665 0.0
0.0698084 2.07215 0.0
0.0698083 -0.792844 0.0
1.95676 -1.09172 0.0
2.842 1.63308 0.0
1.53449 1.94699 0.0
1.08636 -0.882746 0.0
2.9033 -1.47313 0.0
4.20387 1.07965 0.0
2.96156 1.59423 0.0
2.07632 -1.13057 0.0
3.77851 -1.99792 0.0
5.46239 0.319994 0.0
4.31588 1.02258 0.0
3.01532 -1.53021 0.0
4.56082 -2.65313 0.0
6.58658 -0.627181 0.0
5.5641 0.246102 0.0
3.88022 -2.07181 0.0
5.23092 -3.42251 0.0
7.54873 -1.7385 0.0
6.67547 -0.716066 0.0
4.64971 -2.74202 0.0
5.77221 -4.28639 0.0
8.32509 -2.98623 0.0
7.62263 -1.84015 0.0
5.30481 -3.52416 0.0
6.17134 -5.21991 0.0
8.89643 -4.33707 0.0
8.38219 -3.09796 0.0
5.82931 -4.39811 0.0
6.42036 -6.18253 0.0
9.24996 -5.7408 0.0
8.93552 -4.45504 0.0
6.21043 -5.33788 0.0
6.44148 -6.29836 0.0
6.52672 -7.07361 0.0
9.39202 -7.063 0.0
9.27108 -5.85664 0.0
-9.5702 -5.83184 0.0
-12.4001 -5.38802 0.0
-12.5563 -7.03207 0.0
-9.69114 -7.0382 0.0
-9.22711 -4.3821 0.0
-11.9524 -3.4979 0.0
-12.3715 -5.22404 0.0
-9.54155 -5.66786 0.0
-8.65867 -2.97781 0.0
-11.2118 -1.67717 0.0
-11.8982 -3.33273 0.0
-9.17291 -4.21692 0.0
-7.87673 -1.67594 0.0
-10.1949 0.00826142 0.0
-11.1323 -1.52139 0.0
-8.5792 -2.82202 0.0
-6.90059 -0.511921 0.0
-8.9267 1.51423 0.0
-10.092 0.149848 0.0
-7.77385 -1.53436 0.0
-5.75433 0.485129 0.0
-7.43854 2.8033 0.0
-8.80293 1.638 0.0
-6.77682 -0.388153 0.0
-4.46621 1.2906 0.0
-5.76704 3.84369 0.0
-7.29693 2.90618 0.0
-5.61272 0.588013 0.0
-3.06795 1.88464 0.0
-3.95337 4.6098 0.0
-5.61108 3.92316 0.0
-4.31025 1.37006 0.0
-1.59397 2.25264 0.0
-2.04218 5.08275 0.0
-3.7869 4.66389 0.0
-2.90148 1.93873 0.0
-0.0805665 2.38552 0.0
-0.0805371 5.25091 0.0
-1.8693 5.11013 0.0
-1.42108 2.28002 0.0
1.43499 2.28002 0.0
1.88326 5.11013 0.0
0.0945007 5.25091 0.0
0.0944713 2.38552 0.0
2.91538 1.93873 0.0
3.80086 4.66387 0.0
2.05614 5.08274 0.0
1.60787 2.25264 0.0
4.32416 1.37006 0.0
5.62504 3.92313 0.0
3.96733 4.60978 0.0
3.08185 1.88464 0.0
5.62663 0.588011 0.0
7.31088 2.90614 0.0
5.781 3.84366 0.0
4.48012 1.2906 0.0
6.79072 -0.388156 0.0
8.81688 1.63796 0.0
7.45249 2.80326 0.0
5.76824 0.485127 0.0
7.78775 -1.53436 0.0
10.1059 0.149817 0.0
8.94065 1.51419 0.0
6.91449 -0.511924 0.0
8.5931 -2.82203 0.0
11.1463 -1.52143 0.0
10.2088 0.00823072 0.0
7.89063 -1.67595 0.0
9.18681 -4.21692 0.0
11.9121 -3.33277 0.0
11.2257 -1.67721 0.0
8.67257 -2.97781 0.0
9.55545 -5.66786 0.0
12.3854 -5.22405 0.0
11.9663 -3.49795 0.0
9.24101 -4.3821 0.0
9.5841 -5.83184 0.0
9.70504 -7.0382 0.0
12.5702 -7.03207 0.0
12.414 -5.38802 0.0
-14.2647 -7.0212 0.0
-12.7935 -7.01184 0.0
-12.6374 -5.36779 0.0
-14.0986 -5.13671 0.0
-14.2353 -5.12 0.0
-14.0644 -4.93557 0.0
-12.6031 -5.16664 0.0
-12.184 -3.44051 0.0
-13.5924 -2.97935 0.0
-13.7254 -2.94439 0.0
-13.5265 -2.77836 0.0
-12.1181 -3.23952 0.0
-11.4317 -1.58397 0.0
-12.7507 -0.907415 0.0
-12.8767 -0.852361 0.0
-12.654 -0.718312 0.0
-11.335 -1.39486 0.0
-10.3975 0.134787 0.0
-11.5943 1.00931 0.0
-11.7102 1.08348 0.0
-11.4672 1.17719 0.0
-10.2705 0.302667 0.0
-9.10521 1.66705 0.0
-10.0484 2.61607 0.0
-10.1589 2.71486 0.0
-9.89434 2.7641 0.0
-8.95115 1.81508 0.0
-7.58676 2.98038 0.0
-8.36983 4.06521 0.0
-8.46336 4.17993 0.0
-8.19869 4.1891 0.0
-7.41562 3.10426 0.0
-5.88573 4.04178 0.0
-6.48946 5.23575 0.0
-6.56389 5.36369 0.0
-6.30105 5.33134 0.0
-5.69732 4.13737 0.0
-4.03961 4.82401 0.0
-4.44913 6.09773 0.0
-4.50263 6.23574 0.0
-4.24808 6.16267 0.0
-3.83857 4.88896 0.0
-2.09385 5.30782 0.0
-2.29907 6.62992 0.0
-2.33032 6.7746 0.0
-2.09034 6.66261 0.0
-1.88512 5.34051 0.0
-0.0963625 5.48129 0.0
-0.092233 6.81921 0.0
-0.100469 6.967 0.0
0.119039 6.81885 0.0
0.114909 5.48093 0.0
1.90367 5.34014 0.0
2.11705 6.66095 0.0
2.13203 6.80821 0.0
2.32566 6.62754 0.0
2.11228 5.30674 0.0
3.857 4.88786 0.0
4.27437 6.15903 0.0
4.31221 6.30213 0.0
4.47519 6.0934 0.0
4.05782 4.82223 0.0
5.71553 4.13558 0.0
6.32661 5.32581 0.0
6.38637 5.46123 0.0
6.51469 5.22957 0.0
5.90361 4.03934 0.0
7.43349 3.10183 0.0
8.22325 4.1818 0.0
8.30345 4.30621 0.0
8.39396 4.05733 0.0
7.6042 2.97735 0.0
8.96859 1.81205 0.0
9.91757 2.75519 0.0
10.0162 2.86551 0.0
10.0667 2.60554 0.0
9.11773 1.6624 0.0
10.283 0.298031 0.0
11.3678 1.0811 0.0
11.4826 1.17462 0.0
11.4917 0.909973 0.0
10.4069 0.126909 0.0
11.3443 -1.40275 0.0
12.5383 -0.799092 0.0
12.6663 -0.724696 0.0
12.6339 -0.987375 0.0
11.4399 -1.59103 0.0
12.1263 -3.24659 0.0
13.3999 -2.8375 0.0
13.538 -2.78437 0.0
13.4647 -3.03726 0.0
12.1911 -3.44635 0.0
12.6102 -5.17245 0.0
14.0753 -4.94081 0.0
14.2531 -5.11938 0.0
14.1166 -5.13612 0.0
12.6514 -5.36776 0.0
12.8076 -7.0118 0.0
14.2805 -7.02117 0.0
-17.3613 -7.0089 0.0
-15.9585 -6.98368 0.0
-15.7681 -4.89954 0.0
-17.1671 -4.67115 0.0
-17.2998 -4.67201 0.0
-17.1253 -4.42131 0.0
-15.7262 -4.6497 0.0
-15.2028 -2.48543 0.0
-16.5501 -2.0353 0.0
-16.6818 -2.01856 0.0
-16.4689 -1.78756 0.0
-15.1216 -2.23769 0.0
-14.2637 -0.167623 0.0
-15.524 0.488445 0.0
-15.6516 0.525332 0.0
-15.4049 0.721176 0.0
-14.1446 0.0651072 0.0
-12.973 1.97681 0.0
-14.1147 2.82167 0.0
-14.2352 2.87831 0.0
-13.9591 3.02896 0.0
-12.8174 2.1841 0.0
-11.3612 3.88923 0.0
-12.2602 4.80595 0.0
-12.3764 4.88624 0.0
-12.0713 4.98904 0.0
-11.1723 4.07232 0.0
-9.46723 5.52854 0.0
-10.2116 6.57445 0.0
-10.3136 6.67168 0.0
-10.0007 6.72706 0.0
-9.25631 5.68116 0.0
-7.34442 6.85274 0.0
-7.91598 8.00221 0.0
-8.00153 8.1142 0.0
-7.6838 8.11995 0.0
-7.11224 6.97049 0.0
-5.04061 7.82856 0.0
-5.42531 9.05328 0.0
-5.49229 9.17728 0.0
-5.17757 9.13326 0.0
-4.79287 7.90853 0.0
-2.61251 8.43197 0.0
-2.80089 9.70179 0.0
-2.84765 9.83474 0.0
-2.54369 9.74203 0.0
-2.35531 8.4722 0.0
-0.119912 8.64811 0.0
-0.107325 9.93177 0.0
-0.13271 10.0704 0.0
0.153006 9.93127 0.0
0.140419 8.64761 0.0
2.37581 8.47166 0.0
2.58905 9.73755 0.0
2.58567 9.87844 0.0
2.8461 9.69633 0.0
2.63286 8.43044 0.0
4.8132 7.90696 0.0
5.22185 9.12391 0.0
5.24054 9.2636 0.0
5.46929 9.04299 0.0
5.06064 7.82605 0.0
7.13225 6.96793 0.0
7.72624 8.10597 0.0
7.76655 8.24101 0.0
7.95797 7.98734 0.0
7.36398 6.8493 0.0
9.27585 5.67768 0.0
10.0406 6.70878 0.0
10.1015 6.83586 0.0
10.2509 6.55537 0.0
9.48617 5.52426 0.0
11.1912 4.06798 0.0
12.1078 4.96677 0.0
12.1879 5.08274 0.0
12.2915 4.78233 0.0
11.375 3.88355 0.0
12.8312 2.17848 0.0
13.8771 2.92281 0.0
13.9743 3.02483 0.0
14.0297 2.71191 0.0
12.9838 1.96758 0.0
14.1553 0.0558237 0.0
15.3048 0.627325 0.0
15.4168 0.712855 0.0
15.4225 0.395229 0.0
14.2731 -0.176273 0.0
15.1309 -2.24636 0.0
16.3555 -1.86211 0.0
16.4797 -1.79544 0.0
16.4352 -2.10835 0.0
15.2106 -2.49259 0.0
15.7338 -4.65663 0.0
17.1369 -4.42777 0.0
17.318 -4.67133 0.0
17.1852 -4.67069 0.0
15.7821 -4.89955 0.0
15.9727 -6.98367 0.0
17.3791 -7.00888 0.0
-14.1944 3.1817 0.0
-14.0739 3.12506 0.0
-12.4912 4.98235 0.0
-13.3903 5.89914 0.0
-15.1227 3.87128 0.0
-12.2894 5.17922 0.0
-12.1731 5.09893 0.0
-10.4154 6.78156 0.0
-11.1604 7.82812 0.0
-13.1884 6.09601 0.0
-10.1861 6.94875 0.0
-10.084 6.85152 0.0
-8.08492 8.23866 0.0
-8.65698 9.38887 0.0
-10.931 7.99531 0.0
-7.83224 8.36792 0.0
-7.74669 8.25593 0.0
-5.55519 9.31325 0.0
-5.94028 10.5388 0.0
-8.40431 9.51813 0.0
-5.2854 9.40139 0.0
-5.21842 9.2774 0.0
-2.8885 9.97888 0.0
-3.07713 11.2496 0.0
-5.67049 10.6269 0.0
-2.60824 10.0237 0.0
-2.56148 9.89078 0.0
-0.150509 10.2191 0.0
-0.138038 11.5037 0.0
-2.79687 11.2944 0.0
0.133311 10.2196 0.0
0.158696 10.081 0.0
2.59136 10.0281 0.0
2.80462 11.2949 0.0
0.145782 11.5042 0.0
2.87175 9.9842 0.0
2.87514 9.84331 0.0
5.26958 9.41057 0.0
5.67839 10.6284 0.0
3.08502 11.251 0.0
5.53965 9.3233 0.0
5.52096 9.18361 0.0
7.81823 8.38163 0.0
8.41251 9.52051 0.0
5.94846 10.5411 0.0
8.07132 8.25319 0.0
8.031 8.11814 0.0
10.1745 6.96666 0.0
10.9397 7.99856 0.0
8.66561 9.39207 0.0
10.4044 6.80021 0.0
10.3435 6.67314 0.0
12.2805 5.20051 0.0
13.1976 6.10001 0.0
11.1695 7.8321 0.0
12.4815 5.00014 0.0
12.4014 4.88417 0.0
14.0842 3.12666 0.0
15.1308 3.87162 0.0
13.3986 5.89964 0.0
-15.6629 0.831082 0.0
-15.5352 0.794195 0.0
-14.3656 2.95133 0.0
-15.2938 3.64091 0.0
-16.6874 1.36689 0.0
14.2514 2.89732 0.0
14.1542 2.7953 0.0
15.5413 0.796244 0.0
16.6915 1.36833 0.0
15.298 3.64227 0.0
-16.7408 -1.71912 0.0
-16.6091 -1.73586 0.0
-15.7918 0.577037 0.0
-16.8163 1.11285 0.0
-17.8368 -1.3501 0.0
15.6705 0.543623 0.0
15.5585 0.458093 0.0
16.6156 -1.73257 0.0
17.8412 -1.34717 0.0
16.8207 1.11571 0.0
-17.4045 -4.39307 0.0
-17.2718 -4.39222 0.0
-16.8284 -1.98947 0.0
-17.9243 -1.62045 0.0
-18.5467 -4.19972 0.0
16.7038 -2.00219 0.0
16.5797 -2.06886 0.0
17.2814 -4.38828 0.0
17.4142 -4.38892 0.0
18.5524 -4.19623 0.0
17.9294 -1.61678 0.0
-18.8145 -6.97679 0.0
-17.5103 -7.00258 0.0
-17.4488 -4.66569 0.0
-18.5911 -4.47234 0.0
18.6052 -4.47234 0.0
17.467 -4.66503 0.0
17.5281 -7.00258 0.0
18.8286 -6.97679 0.0
-11.7035 1.35341 0.0
-11.5875 1.27924 0.0
-10.2792 2.81691 0.0
-11.2443 3.78806 0.0
-12.7005 2.08293 0.0
-10.1106 2.98014 0.0
-10.0002 2.88135 0.0
-8.56919 4.29718 0.0
-9.37064 5.40751 0.0
-11.0757 3.95128 0.0
-8.3784 4.43618 0.0
-8.28487 4.32146 0.0
-6.65007 5.49605 0.0
-7.26797 6.71809 0.0
-9.17986 5.54651 0.0
-6.4399 5.6035 0.0
-6.36546 5.47556 0.0
-4.56704 6.37995 0.0
-4.98616 7.6836 0.0
-7.05779 6.82553 0.0
-4.34265 6.4532 0.0
-4.28914 6.31519 0.0
-2.37138 6.92711 0.0
-2.58141 8.28028 0.0
-4.76177 7.75685 0.0
-2.13829 6.96435 0.0
-2.10704 6.81967 0.0
-0.117165 7.12406 0.0
-0.112924 8.49342 0.0
-2.34832 8.31752 0.0
0.118882 7.12438 0.0
0.127118 6.97659 0.0
2.14011 6.96595 0.0
2.35852 8.31778 0.0
0.123123 8.49374 0.0
2.3733 6.92933 0.0
2.35832 6.78208 0.0
4.34486 6.45666 0.0
4.77205 7.75769 0.0
2.59171 8.28117 0.0
4.56945 6.38402 0.0
4.53162 6.24092 0.0
6.4428 5.60875 0.0
7.06825 6.82693 0.0
4.99664 7.68505 0.0
6.65326 5.50187 0.0
6.5935 5.36645 0.0
8.38226 4.44308 0.0
9.19058 5.54843 0.0
7.27872 6.72005 0.0
8.57341 4.3046 0.0
8.49321 4.18019 0.0
10.1155 2.98837 0.0
11.0868 3.95366 0.0
9.38173 5.40994 0.0
10.2826 2.82169 0.0
10.184 2.71136 0.0
11.5998 1.28045 0.0
12.7102 2.08191 0.0
11.2539 3.78698 0.0
11.7388 1.08968 0.0
11.6241 0.996148 0.0
12.7986 -0.638522 0.0
14.0207 -0.0206267 0.0
12.8492 1.89113 0.0
-12.9162 -0.584558 0.0
-12.7903 -0.639612 0.0
-11.8465 1.16217 0.0
-12.8435 1.8917 0.0
-14.0151 -0.020009 0.0
12.9061 -0.848608 0.0
12.7781 -0.923004 0.0
13.6822 -2.72 0.0
14.986 -2.3008 0.0
14.1281 -0.230713 0.0
-13.8064 -2.68701 0.0
-13.6734 -2.72197 0.0
-13.0236 -0.79597 0.0
-14.1225 -0.231421 0.0
-14.9804 -2.30149 0.0
-14.355 -4.88617 0.0
-14.2183 -4.90289 0.0
-13.8793 -2.9117 0.0
-15.0533 -2.52618 0.0
-15.5767 -4.69046 0.0
13.7554 -2.9436 0.0
13.6173 -2.99673 0.0
14.2279 -4.90029 0.0
14.3645 -4.88355 0.0
15.5824 -4.68844 0.0
15.0592 -2.5244 0.0
-14.3923 -5.1114 0.0
-15.614 -4.91569 0.0
-15.8045 -6.99983 0.0
-14.4217 -7.0126 0.0
15.628 -4.91573 0.0
14.4101 -5.11084 0.0
14.4374 -7.01262 0.0
15.8186 -6.99985 0.0
</DataArray>
</Points>
<Cells>
<DataArray type="Int32" Name="connectivity" format="ascii">
0 1 228 227 1 22 229 228 22 21 230 229 21 0 227 230 2 23 232 231 23 22 233 232 22 1 234 233 1 2 231 234 3 24 236 235 24 23 237 236 23 2 238 237 2 3 235 238 4 25 240 239 25 24 241 240 24 3 242 241 3 4 239 242 5 26 244 243 26 25 245 244 25 4 246 245 4 5 243 246 6 27 248 247 27 26 249 248 26 5 250 249 5 6 247 250 7 28 252 251 28 27 253 252 27 6 254 253 6 7 251 254 8 29 256 255 29 28 257 256 28 7 258 257 7 8 255 258 9 30 260 259 30 29 261 260 29 8 262 261 8 9 259 262 10 31 264 263 31 30 265 264 30 9 266 265 9 10 263 266 11 32 268 267 32 31 269 268 31 10 270 269 10 11 267 270 12 33 272 271 33 32 273 272 32 11 274 273 11 12 271 274 13 34 276 275 34 33 277 276 33 12 278 277 12 13 275 278 14 35 280 279 35 34 281 280 34 13 282 281 13 14 279 282 15 36 284 283 36 35 285 284 35 14 286 285 14 15 283 286 16 37 288 287 37 36 289 288 36 15 290 289 15 16 287 290 17 38 292 291 38 37 293 292 37 16 294 293 16 17 291 294 18 39 296 295 39 38 297 296 38 17 298 297 17 18 295 298 19 40 300 299 40 39 301 300 39 18 302 301 18 19 299 302 20 41 304 303 41 40 305 304 40 19 306 305 19 20 303 306 21 22 308 307 22 43 309 308 43 42 310 309 42 21 307 310 22 23 312 311 23 44 313 312 44 43 314 313 43 22 311 314 23 24 316 315 24 45 317 316 45 44 318 317 44 23 315 318 24 25 320 319 25 46 321 320 46 45 322 321 45 24 319 322 25 26 324 323 26 47 325 324 47 46 326 325 46 25 323 326 26 27 328 327 27 48 329 328 48 47 330 329 47 26 327 330 27 28 332 331 28 49 333 332 49 48 334 333 48 27 331 334 28 29 336 335 29 50 337 336 50 49 338 337 49 28 335 338 29 30 340 339 30 51 341 340 51 50 342 341 50 29 339 342 30 31 344 343 31 52 345 344 52 51 346 345 51 30 343 346 31 32 348 347 32 53 349 348 53 52 350 349 52 31 347 350 32 33 352 351 33 54 353 352 54 53 354 353 53 32 351 354 33 34 356 355 34 55 357 356 55 54 358 357 54 33 355 358 34 35 360 359 35 56 361 360 56 55 362 361 55 34 359 362 35 36 364 363 36 57 365 364 57 56 366 365 56 35 363 366 36 37 368 367 37 58 369 368 58 57 370 369 57 36 367 370 37 38 372 371 38 59 373 372 59 58 374 373 58 37 371 374 38 39 376 375 39 60 377 376 60 59 378 377 59 38 375 378 39 40 380 379 40 61 381 380 61 60 382 381 60 39 379 382 40 41 384 383 41 62 385 384 62 61 386 385 61 40 383 386 43 64 388 387 64 63 389 388 63 42 390 389 42 43 387 390 44 65 392 391 65 64 393 392 64 43 394 393 43 44 391 394 45 66 396 395 66 65 397 396 65 44 398 397 44 45 395 398 46 67 400 399 67 66 401 400 66 45 402 401 45 46 399 402 47 68 404 403 68 67 405 404 67 46 406 405 46 47 403 406 48 69 408 407 69 68 409 408 68 47 410 409 47 48 407 410 49 70 412 411 70 69 413 412 69 48 414 413 48 49 411 414 50 71 416 415 71 70 417 416 70 49 418 417 49 50 415 418 51 72 420 419 72 71 421 420 71 50 422 421 50 51 419 422 52 73 424 423 73 72 425 424 72 51 426 425 51 52 423 426 53 74 428 427 74 73 429 428 73 52 430 429 52 53 427 430 54 75 432 431 75 74 433 432 74 53 434 433 53 54 431 434 55 76 436 435 76 75 437 436 75 54 438 437 54 55 435 438 56 77 440 439 77 76 441 440 76 55 442 441 55 56 439 442 57 78 444 443 78 77 445 444 77 56 446 445 56 57 443 446 58 79 448 447 79 78 449 448 78 57 450 449 57 58 447 450 59 80 452 451 80 79 453 452 79 58 454 453 58 59 451 454 60 81 456 455 81 80 457 456 80 59 458 457 59 60 455 458 61 82 460 459 82 81 461 460 81 60 462 461 60 61 459 462 61 62 464 463 62 83 465 464 83 82 466 465 82 61 463 466 64 85 468 467 85 84 469 468 84 63 470 469 63 64 467 470 65 86 472 471 86 85 473 472 85 64 474 473 64 65 471 474 66 87 476 475 87 86 477 476 86 65 478 477 65 66 475 478 67 88 480 479 88 87 481 480 87 66 482 481 66 67 479 482 68 89 484 483 89 88 485 484 88 67 486 485 67 68 483 486 69 90 488 487 90 89 489 488 89 68 490 489 68 69 487 490 70 91 492 491 91 90 493 492 90 69 494 493 69 70 491 494 71 92 496 495 92 91 497 496 91 70 498 497 70 71 495 498 72 93 500 499 93 92 501 500 92 71 502 501 71 72 499 502 73 94 504 503 94 93 505 504 93 72 506 505 72 73 503 506 74 95 508 507 95 94 509 508 94 73 510 509 73 74 507 510 75 96 512 511 96 95 513 512 95 74 514 513 74 75 511 514 76 97 516 515 97 96 517 516 96 75 518 517 75 76 515 518 77 98 520 519 98 97 521 520 97 76 522 521 76 77 519 522 78 99 524 523 99 98 525 524 98 77 526 525 77 78 523 526 79 100 528 527 100 99 529 528 99 78 530 529 78 79 527 530 80 101 532 531 101 100 533 532 100 79 534 533 79 80 531 534 81 102 536 535 102 101 537 536 101 80 538 537 80 81 535 538 82 103 540 539 103 102 541 540 102 81 542 541 81 82 539 542 82 83 544 543 83 104 545 544 104 103 546 545 103 82 543 546 223 84 548 547 84 85 549 548 85 219 550 549 219 224 551 550 224 223 547 551 219 85 553 552 85 86 554 553 86 217 555 554 217 220 556 555 220 219 552 556 217 86 558 557 86 87 559 558 87 213 560 559 213 218 561 560 218 217 557 561 213 87 563 562 87 88 564 563 88 187 565 564 187 214 566 565 214 213 562 566 187 88 568 567 88 89 569 568 89 189 570 569 189 188 571 570 188 187 567 571 189 89 573 572 89 90 574 573 90 191 575 574 191 190 576 575 190 189 572 576 191 90 578 577 90 91 579 578 91 193 580 579 193 192 581 580 192 191 577 581 193 91 583 582 91 92 584 583 92 195 585 584 195 194 586 585 194 193 582 586 195 92 588 587 92 93 589 588 93 197 590 589 197 196 591 590 196 195 587 591 197 93 593 592 93 94 594 593 94 199 595 594 199 198 596 595 198 197 592 596 199 94 598 597 94 95 599 598 95 201 600 599 201 200 601 600 200 199 597 601 201 95 603 602 95 96 604 603 96 203 605 604 203 202 606 605 202 201 602 606 203 96 608 607 96 97 609 608 97 205 610 609 205 204 611 610 204 203 607 611 205 97 613 612 97 98 614 613 98 207 615 614 207 206 616 615 206 205 612 616 207 98 618 617 98 99 619 618 99 209 620 619 209 208 621 620 208 207 617 621 209 99 623 622 99 100 624 623 100 211 625 624 211 210 626 625 210 209 622 626 211 100 628 627 100 101 629 628 101 215 630 629 215 212 631 630 212 211 627 631 215 101 633 632 101 102 634 633 102 221 635 634 221 216 636 635 216 215 632 636 221 102 638 637 102 103 639 638 103 222 640 639 222 221 637 640 225 222 642 641 222 103 643 642 103 104 644 643 104 226 645 644 226 225 641 645 183 105 647 646 105 106 648 647 106 179 649 648 179 184 650 649 184 183 646 650 179 106 652 651 106 107 653 652 107 175 654 653 175 180 655 654 180 179 651 655 175 107 657 656 107 108 658 657 108 171 659 658 171 176 660 659 176 175 656 660 171 108 662 661 108 109 663 662 109 147 664 663 147 172 665 664 172 171 661 665 147 109 667 666 109 110 668 667 110 149 669 668 149 148 670 669 148 147 666 670 149 110 672 671 110 111 673 672 111 151 674 673 151 150 675 674 150 149 671 675 151 111 677 676 111 112 678 677 112 153 679 678 153 152 680 679 152 151 676 680 153 112 682 681 112 113 683 682 113 155 684 683 155 154 685 684 154 153 681 685 155 113 687 686 113 114 688 687 114 157 689 688 157 156 690 689 156 155 686 690 157 114 692 691 114 115 693 692 115 159 694 693 159 158 695 694 158 157 691 695 159 115 697 696 115 116 698 697 116 161 699 698 161 160 700 699 160 159 696 700 161 116 702 701 116 117 703 702 117 163 704 703 163 162 705 704 162 161 701 705 163 117 707 706 117 118 708 707 118 165 709 708 165 164 710 709 164 163 706 710 165 118 712 711 118 119 713 712 119 167 714 713 167 166 715 714 166 165 711 715 167 119 717 716 119 120 718 717 120 169 719 718 169 168 720 719 168 167 716 720 169 120 722 721 120 121 723 722 121 173 724 723 173 170 725 724 170 169 721 725 173 121 727 726 121 122 728 727 122 177 729 728 177 174 730 729 174 173 726 730 177 122 732 731 122 123 733 732 123 181 734 733 181 178 735 734 178 177 731 735 181 123 737 736 123 124 738 737 124 182 739 738 182 181 736 739 185 182 741 740 182 124 742 741 124 125 743 742 125 186 744 743 186 185 740 744 172 147 746 745 147 148 747 746 148 131 748 747 131 130 749 748 130 172 745 749 148 149 751 750 149 150 752 751 150 132 753 752 132 131 754 753 131 148 750 754 150 151 756 755 151 152 757 756 152 133 758 757 133 132 759 758 132 150 755 759 152 153 761 760 153 154 762 761 154 134 763 762 134 133 764 763 133 152 760 764 154 155 766 765 155 156 767 766 156 135 768 767 135 134 769 768 134 154 765 769 156 157 771 770 157 158 772 771 158 136 773 772 136 135 774 773 135 156 770 774 158 159 776 775 159 160 777 776 160 137 778 777 137 136 779 778 136 158 775 779 160 161 781 780 161 162 782 781 162 138 783 782 138 137 784 783 137 160 780 784 162 163 786 785 163 164 787 786 164 139 788 787 139 138 789 788 138 162 785 789 164 165 791 790 165 166 792 791 166 140 793 792 140 139 794 793 139 164 790 794 166 167 796 795 167 168 797 796 168 141 798 797 141 140 799 798 140 166 795 799 168 169 801 800 169 170 802 801 170 142 803 802 142 141 804 803 141 168 800 804 176 171 806 805 171 172 807 806 172 130 808 807 130 129 809 808 129 176 805 809 170 173 811 810 173 174 812 811 174 143 813 812 143 142 814 813 142 170 810 814 180 175 816 815 175 176 817 816 176 129 818 817 129 128 819 818 128 180 815 819 174 177 821 820 177 178 822 821 178 144 823 822 144 143 824 823 143 174 820 824 184 179 826 825 179 180 827 826 180 128 828 827 128 127 829 828 127 184 825 829 178 181 831 830 181 182 832 831 182 185 833 832 185 145 834 833 145 144 835 834 144 178 830 835 126 183 837 836 183 184 838 837 184 127 839 838 127 126 836 839 145 185 841 840 185 186 842 841 186 146 843 842 146 145 840 843 214 187 845 844 187 188 846 845 188 110 847 846 110 109 848 847 109 214 844 848 188 189 850 849 189 190 851 850 190 111 852 851 111 110 853 852 110 188 849 853 190 191 855 854 191 192 856 855 192 112 857 856 112 111 858 857 111 190 854 858 192 193 860 859 193 194 861 860 194 113 862 861 113 112 863 862 112 192 859 863 194 195 865 864 195 196 866 865 196 114 867 866 114 113 868 867 113 194 864 868 196 197 870 869 197 198 871 870 198 115 872 871 115 114 873 872 114 196 869 873 198 199 875 874 199 200 876 875 200 116 877 876 116 115 878 877 115 198 874 878 200 201 880 879 201 202 881 880 202 117 882 881 117 116 883 882 116 200 879 883 202 203 885 884 203 204 886 885 204 118 887 886 118 117 888 887 117 202 884 888 204 205 890 889 205 206 891 890 206 119 892 891 119 118 893 892 118 204 889 893 206 207 895 894 207 208 896 895 208 120 897 896 120 119 898 897 119 206 894 898 208 209 900 899 209 210 901 900 210 121 902 901 121 120 903 902 120 208 899 903 210 211 905 904 211 212 906 905 212 122 907 906 122 121 908 907 121 210 904 908 218 213 910 909 213 214 911 910 214 109 912 911 109 108 913 912 108 218 909 913 212 215 915 914 215 216 916 915 216 123 917 916 123 122 918 917 122 212 914 918 220 217 920 919 217 218 921 920 218 108 922 921 108 107 923 922 107 220 919 923 224 219 925 924 219 220 926 925 220 107 927 926 107 106 928 927 106 224 924 928 216 221 930 929 221 222 931 930 222 225 932 931 225 124 933 932 124 123 934 933 123 216 929 934 224 106 936 935 106 105 937 936 105 223 938 937 223 224 935 938 124 225 940 939 225 226 941 940 226 125 942 941 125 124 939 942 
</DataArray>
<DataArray type="Int32" Name="offsets" format="ascii">
4 8 12 16 20 24 28 32 36 40 44 48 52 56 60 64 68 72 76 80 84 88 92 96 100 104 108 112 116 120 124 128 132 136 140 144 148 152 156 160 164 168 172 176 180 184 188 192 196 200 204 208 212 216 220 224 228 232 236 240 244 248 252 256 260 264 268 272 276 280 284 288 292 296 300 304 308 312 316 320 324 328 332 336 340 344 348 352 356 360 364 368 372 376 380 384 388 392 396 400 404 408 412 416 420 424 428 432 436 440 444 448 452 456 460 464 468 472 476 480 484 488 492 496 500 504 508 512 516 520 524 528 532 536 540 544 548 552 556 560 564 568 572 576 580 584 588 592 596 600 604 608 612 616 620 624 628 632 636 640 644 648 652 656 660 664 668 672 676 680 684 688 692 696 700 704 708 712 716 720 724 728 732 736 740 744 748 752 756 760 764 768 772 776 780 784 788 792 796 800 804 808 812 816 820 824 828 832 836 840 844 848 852 856 860 864 868 872 876 880 884 888 892 896 900 904 908 912 916 920 924 928 932 936 940 944 948 952 956 960 964 968 972 976 980 984 988 992 996 1000 1004 1008 1012 1016 1020 1024 1028 1032 1036 1040 1044 1048 1052 1056 1060 1064 1068 1072 1076 1080 1084 1088 1092 1096 1100 1104 1108 1112 1116 1120 1124 1128 1132 1136 1140 1144 1148 1152 1156 1160 1164 1168 1172 1176 1180 1184 1188 1192 1196 1200 1204 1208 1212 1216 1220 1224 1228 1232 1236 1240 1244 1248 1252 1256 1260 1264 1268 1272 1276 1280 1284 1288 1292 1296 1300 1304 1308 1312 1316 1320 1324 1328 1332 1336 1340 1344 1348 1352 1356 1360 1364 1368 1372 1376 1380 1384 1388 1392 1396 1400 1404 1408 1412 1416 1420 1424 1428 1432 1436 1440 1444 1448 1452 1456 1460 1464 1468 1472 1476 1480 1484 1488 1492 1496 1500 1504 1508 1512 1516 1520 1524 1528 1532 1536 1540 1544 1548 1552 1556 1560 1564 1568 1572 1576 1580 1584 1588 1592 1596 1600 1604 1608 1612 1616 1620 1624 1628 1632 1636 1640 1644 1648 1652 1656 1660 1664 1668 1672 1676 1680 1684 1688 1692 1696 1700 1704 1708 1712 1716 1720 1724 1728 1732 1736 1740 1744 1748 1752 1756 1760 1764 1768 1772 1776 1780 1784 1788 1792 1796 1800 1804 1808 1812 1816 1820 1824 1828 1832 1836 1840 1844 1848 1852 1856 1860 1864 1868 1872 1876 1880 1884 1888 1892 1896 1900 1904 1908 1912 1916 1920 1924 1928 1932 1936 1940 1944 1948 1952 1956 1960 1964 1968 1972 1976 1980 1984 1988 1992 1996 2000 2004 2008 2012 2016 2020 2024 2028 2032 2036 2040 2044 2048 2052 2056 2060 2064 2068 2072 2076 2080 2084 2088 2092 2096 2100 2104 2108 2112 2116 2120 2124 2128 2132 2136 2140 2144 2148 2152 2156 2160 2164 2168 2172 2176 2180 2184 2188 2192 2196 2200 2204 2208 2212 2216 2220 2224 2228 2232 2236 2240 2244 2248 2252 2256 2260 2264 2268 2272 2276 2280 2284 2288 2292 2296 2300 2304 2308 2312 2316 2320 2324 2328 2332 2336 2340 2344 2348 2352 2356 2360 2364 2368 2372 2376 2380 2384 2388 2392 2396 2400 2404 2408 2412 2416 2420 2424 2428 2432 2436 2440 2444 2448 2452 2456 2460 2464 2468 2472 2476 2480 2484 2488 2492 2496 2500 2504 2508 2512 2516 2520 2524 2528 2532 2536 2540 2544 2548 2552 2556 2560 2564 2568 2572 2576 2580 2584 2588 2592 2596 2600 2604 2608 2612 2616 2620 2624 2628 2632 2636 2640 2644 2648 2652 2656 2660 2664 2668 2672 2676 2680 2684 2688 2692 2696 2700 2704 2708 2712 2716 2720 2724 2728 2732 2736 2740 2744 2748 2752 2756 2760 2764 2768 2772 2776 2780 2784 2788 2792 2796 2800 2804 2808 2812 2816 2820 2824 2828 2832 2836 2840 2844 2848 2852 2856 2860 2864 
</DataArray>
<DataArray type="UInt8" Name="types" format="ascii">
7 7 7 7 7 7 7 7 7 7 7 7 7 7 7 7 7 7 7 7 7 7 7 7 7 7 7 7 7 7 7 7 7 7 7 7 7 7 7 7 7 7 7 7 7 7 7 7 7 7 7 7 7 7 7 7 7 7 7 7 7 7 7 7 7 7 7 7 7 7 7 7 7 7 7 7 7 7 7 7 7 7 7 7 7 7 7 7 7 7 7 7 7 7 7 7 7 7 7 7 7 7 7 7 7 7 7 7 7 7 7 7 7 7 7 7 7 7 7 7 7 7 7 7 7 7 7 7 7 7 7 7 7 7 7 7 7 7 7 7 7 7 7 7 7 7 7 7 7 7 7 7 7 7 7 7 7 7 7 7 7 7 7 7 7 7 7 7 7 7 7 7 7 7 7 7 7 7 7 7 7 7 7 7 7 7 7 7 7 7 7 7 7 7 7 7 7 7 7 7 7 7 7 7 7 7 7 7 7 7 7 7 7 7 7 7 7 7 7 7 7 7 7 7 7 7 7 7 7 7 7 7 7 7 7 7 7 7 7 7 7 7 7 7 7 7 7 7 7 7 7 7 7 7 7 7 7 7 7 7 7 7 7 7 7 7 7 7 7 7 7 7 7 7 7 7 7 7 7 7 7 7 7 7 7 7 7 7 7 7 7 7 7 7 7 7 7 7 7 7 7 7 7 7 7 7 7 7 7 7 7 7 7 7 7 7 7 7 7 7 7 7 7 7 7 7 7 7 7 7 7 7 7 7 7 7 7 7 7 7 7 7 7 7 7 7 7 7 7 7 7 7 7 7 7 7 7 7 7 7 7 7 7 7 7 7 7 7 7 7 7 7 7 7 7 7 7 7 7 7 7 7 7 7 7 7 7 7 7 7 7 7 7 7 7 7 7 7 7 7 7 7 7 7 7 7 7 7 7 7 7 7 7 7 7 7 7 7 7 7 7 7 7 7 7 7 7 7 7 7 7 7 7 7 7 7 7 7 7 7 7 7 7 7 7 7 7 7 7 7 7 7 7 7 7 7 7 7 7 7 7 7 7 7 7 7 7 7 7 7 7 7 7 7 7 7 7 7 7 7 7 7 7 7 7 7 7 7 7 7 7 7 7 7 7 7 7 7 7 7 7 7 7 7 7 7 7 7 7 7 7 7 7 7 7 7 7 7 7 7 7 7 7 7 7 7 7 7 7 7 7 7 7 7 7 7 7 7 7 7 7 7 7 7 7 7 7 7 7 7 7 7 7 7 7 7 7 7 7 7 7 7 7 7 7 7 7 7 7 7 7 7 7 7 7 7 7 7 7 7 7 7 7 7 7 7 7 7 7 7 7 7 7 7 7 7 7 7 7 7 7 7 7 7 7 7 7 7 7 7 7 7 7 7 7 7 7 7 7 7 7 7 7 7 7 7 7 7 7 7 7 7 7 7 7 7 7 7 7 7 7 7 7 7 7 7 7 7 7 7 7 7 7 7 7 7 7 7 7 7 7 7 7 7 7 7 7 7 7 7 7 7 7 7 7 7 7 7 7 7 7 7 7 7 7 7 7 7 7 7 7 7 7 7 7 7 7 7 7 7 7 7 7 7 7 7 7 7 7 7 7 7 7 7 7 7 
</DataArray>
</Cells>
<CellData Scalars="wall variable 0">
<DataArray type="Float64" Name="wall length" format="ascii">
0.0211908 2.3325 0.356147 2.32045 2.35473 0.394776 2.3325 0.025516 2.38358 0.407747 2.35473 0.0293477 2.41517 0.411937 2.38358 0.0325535 2.44645 0.41341 2.41517 0.03512 2.47507 0.414051 2.44645 0.0370995 2.49917 0.414411 2.47507 0.038568 2.51737 0.414643 2.49917 0.0395994 2.52867 0.414789 2.51737 0.0402531 2.53251 0.41486 2.52867 0.0405699 2.52867 0.41486 2.53251 0.0405699 2.51737 0.414789 2.52867 0.0402531 2.49917 0.414643 2.51737 0.0395994 2.47507 0.414411 2.49917 0.038568 2.44645 0.414051 2.47507 0.0370995 2.41517 0.41341 2.44645 0.03512 2.38358 0.411937 2.41517 0.0325535 2.35473 0.407747 2.38358 0.0293477 2.3325 0.394776 2.35473 0.025516 2.32045 0.356147 2.3325 0.0211908 0.356147 2.63798 0.750531 2.64077 0.394776 2.63765 0.811823 2.63798 0.407747 2.63763 0.824686 2.63765 0.411937 2.63752 0.827168 2.63763 0.41341 2.63743 0.827631 2.63752 0.414051 2.63737 0.827719 2.63743 0.414411 2.63736 0.82774 2.63737 0.414643 2.63737 0.827748 2.63736 0.414789 2.63739 0.827753 2.63737 0.41486 2.63739 0.827754 2.63739 0.41486 2.63739 0.827754 2.63739 0.414789 2.63737 0.827753 2.63739 0.414643 2.63736 0.827748 2.63737 0.414411 2.63737 0.82774 2.63736 0.414051 2.63743 0.827719 2.63737 0.41341 2.63752 0.827631 2.63743 0.411937 2.63763 0.827168 2.63752 0.407747 2.63765 0.824686 2.63763 0.394776 2.63798 0.811823 2.63765 0.356147 2.64077 0.750531 2.63798 2.64531 1.15483 2.64614 0.750531 2.64575 1.22957 2.64531 0.811823 2.64596 1.24108 2.64575 0.824686 2.64601 1.24269 2.64596 0.827168 2.64601 1.24291 2.64601 0.827631 2.64601 1.24293 2.64601 0.827719 2.64601 1.24294 2.64601 0.82774 2.64601 1.24294 2.64601 0.827748 2.64601 1.24294 2.64601 0.827753 2.64601 1.24294 2.64601 0.827754 2.64601 1.24294 2.64601 0.827754 2.64601 1.24294 2.64601 0.827753 2.64601 1.24294 2.64601 0.827748 2.64601 1.24294 2.64601 0.82774 2.64601 1.24293 2.64601 0.827719 2.64601 1.24291 2.64601 0.827631 2.64596 1.24269 2.64601 0.827168 2.64575 1.24108 2.64596 0.824686 2.64531 1.22957 2.64575 0.811823 0.750531 2.64614 1.15483 2.64531 2.64563 1.56331 2.64603 1.15483 2.64599 1.64676 2.64563 1.22957 2.6461 1.65691 2.64599 1.24108 2.64613 1.65803 2.6461 1.24269 2.64613 1.65815 2.64613 1.24291 2.64613 1.65816 2.64613 1.24293 2.64613 1.65816 2.64613 1.24294 2.64613 1.65816 2.64613 1.24294 2.64613 1.65816 2.64613 1.24294 2.64613 1.65816 2.64613 1.24294 2.64613 1.65816 2.64613 1.24294 2.64613 1.65816 2.64613 1.24294 2.64613 1.65816 2.64613 1.24294 2.64613 1.65816 2.64613 1.24294 2.64613 1.65816 2.64613 1.24293 2.64613 1.65815 2.64613 1.24291 2.64611 1.65803 2.64613 1.24269 2.64599 1.65691 2.64611 1.24108 2.64563 1.64676 2.64599 1.22957 1.15483 2.64603 1.56331 2.64563 1.3589 1.56331 1.36505 0.127369 2.02587 1.36505 1.64676 1.36696 0.127222 2.10735 1.36696 1.65691 1.36726 0.127199 2.11632 1.36726 1.65803 1.36727 0.127221 2.11724 1.36727 1.65815 1.23376 0.136983 2.10163 1.23376 1.65816 1.23375 0.136954 2.09549 1.23375 1.65816 1.23375 0.136954 2.09549 1.23375 1.65816 1.23375 0.136954 2.09549 1.23375 1.65816 1.23375 0.136954 2.09549 1.23375 1.65816 1.23375 0.136954 2.09549 1.23375 1.65816 1.23375 0.136954 2.09549 1.23375 1.65816 1.23375 0.136954 2.09549 1.23375 1.65816 1.23375 0.136954 2.09549 1.23375 1.65816 1.23375 0.136954 2.09549 1.23375 1.65816 1.23375 0.136954 2.09549 1.23375 1.65815 1.23375 0.136954 2.09548 1.23375 1.65803 1.23373 0.136953 2.09539 1.23373 1.65691 1.23358 0.136939 2.09451 1.23358 1.64676 1.36908 2.08584 0.126996 1.36908 1.56331 1.36051 2.02647 1.30407 1.97304 1.31387 0.123852 2.36818 1.31387 2.06237 1.31588 0.123866 2.44875 1.31588 2.07135 1.31612 0.123862 2.456 1.31612 2.07217 1.316 0.123954 2.45659 1.316 2.07224 1.1887 0.131459 2.44303 1.1887 2.07224 1.18864 0.131355 2.43632 1.18864 2.07224 1.18864 0.131354 2.43632 1.18864 2.07224 1.18864 0.131354 2.43632 1.18864 2.07224 1.18864 0.131354 2.43632 1.18864 2.07224 1.18864 0.131354 2.43632 1.18864 2.07224 1.18864 0.131354 2.43632 1.18864 2.07224 1.18864 0.131354 2.43632 1.18864 2.07224 1.18864 0.131354 2.43632 1.18864 2.07224 1.18864 0.131354 2.43632 1.18864 2.07224 1.18864 0.131354 2.43632 1.18864 2.07224 1.18864 0.131354 2.43631 1.18864 2.07217 1.18863 0.131353 2.43626 1.18863 2.07135 1.1885 0.131337 2.43568 1.1885 2.06231 1.31836 2.42865 0.123559 1.31836 1.97303 1.30751 2.36886 0.123954 2.44303 1.22186 2.47107 1.10221 0.131459 2.43632 1.22202 2.47106 1.22186 0.131355 2.43632 1.22201 2.47106 1.22202 0.131354 2.43632 1.22202 2.47106 1.22201 0.131354 2.43632 1.22202 2.47106 1.22202 0.131354 2.43632 1.22202 2.47106 1.22202 0.131354 2.43632 1.22202 2.47106 1.22202 0.131354 2.43632 1.22202 2.47106 1.22202 0.131354 2.43632 1.22202 2.47106 1.22202 0.131354 2.43632 1.22202 2.47106 1.22202 0.131354 2.43632 1.22202 2.47106 1.22202 0.131354 2.43631 1.22202 2.47106 1.22202 0.123862 2.45659 1.10221 2.47103 1.10218 0.131354 2.43626 1.22202 2.47102 1.22202 0.123866 2.456 1.10218 2.47041 1.10236 0.131353 2.43568 1.22212 2.47039 1.22202 0.123852 2.44875 1.10236 2.46241 1.10404 0.131337 2.42865 0.123559 1.09985 2.46247 1.22212 1.23752 2.36818 1.10404 2.36995 1.09985 2.36886 1.23408 2.36995 0.127221 2.10163 1.26813 2.07224 1.14435 0.136983 2.09549 1.26816 2.07224 1.26813 0.136954 2.09549 1.26816 2.07224 1.26816 0.136954 2.09549 1.26816 2.07224 1.26816 0.136954 2.09549 1.26816 2.07224 1.26816 0.136954 2.09549 1.26816 2.07224 1.26816 0.136954 2.09549 1.26816 2.07224 1.26816 0.136954 2.09549 1.26816 2.07224 1.26816 0.136954 2.09549 1.26816 2.07224 1.26816 0.136954 2.09549 1.26816 2.07224 1.26816 0.136954 2.09549 1.26816 2.07224 1.26816 0.136954 2.09548 1.26816 2.07224 1.26816 0.136954 2.09539 1.26816 2.07217 1.26816 0.127199 2.11724 1.14435 2.07217 1.14438 0.136953 2.09451 1.26826 2.07135 1.26816 0.127222 2.11632 1.14438 2.07135 1.14458 0.127369 2.10735 1.14458 2.06237 1.14603 0.136939 2.08584 0.126996 1.14236 2.06231 1.26826 1.14603 1.97304 1.27955 2.02587 1.14236 2.02647 1.27794 1.97303 
</DataArray>
<DataArray type="Float64" Name="wall variable 0" format="ascii">
0 0.00347635 0.0165103 0 0.00375089 0.0214723 0.0029229 0 0.00356203 0.0219883 0.00365672 0 0.00327638 0.020556 0.00366101 0 0.00309724 0.019278 0.00338805 0 0.00301335 0.0185869 0.00316418 0 0.00297911 0.0182849 0.00304451 0 0.00296613 0.0181657 0.00299192 0 0.00296165 0.0181212 0.00297103 0 0.00296101 0.0181066 0.00296327 0 0.00296344 0.018107 0.00296096 0 0.00297128 0.0181223 0.00296174 0 0.00299199 0.0181672 0.00296634 0 0.00304334 0.0182852 0.0029794 0 0.00315822 0.0185788 0.00301332 0 0.00336771 0.019238 0.00309539 0 0.00360878 0.0204213 0.00326763 0 0.00356824 0.0216473 0.00353325 0 0.00285121 0.0209097 0.00368588 0 0 0.0160842 0.00338996 0 0.0120037 0.07961 0.111254 0 0.0157175 0.0833345 0.147312 0.0647116 0.0159891 0.0792027 0.15077 0.0803348 0.0144257 0.0728524 0.141782 0.0791328 0.0131426 0.0688656 0.133956 0.0737402 0.0124843 0.0670611 0.129847 0.0696205 0.0122049 0.0663528 0.128096 0.0674663 0.0120961 0.0660904 0.127414 0.0665307 0.0120557 0.0659999 0.127158 0.0661608 0.0120425 0.0659844 0.127074 0.0660236 0.0120428 0.0660274 0.127078 0.0659836 0.0120566 0.0661666 0.127168 0.0660024 0.0120975 0.0665323 0.127427 0.0660961 0.0122056 0.0674388 0.128097 0.0663603 0.0124792 0.0694817 0.129765 0.0670608 0.0131131 0.0732721 0.133562 0.0688157 0.0143154 0.0779202 0.140444 0.0726047 0.0156846 0.0781225 0.147286 0.0783786 0.0152119 0.0627001 0.141233 0.0815311 0.011674 0 0.106518 0.0774107 0.268715 0.22474 0 0.134807 0.303928 0.314811 0.222263 0.201333 0.296106 0.326836 0.287654 0.20556 0.274831 0.312501 0.287135 0.18585 0.260492 0.298823 0.272091 0.17006 0.253972 0.291496 0.260416 0.162197 0.251439 0.288336 0.254304 0.158947 0.250498 0.287074 0.251648 0.157696 0.250162 0.286584 0.250591 0.15723 0.250087 0.286418 0.250196 0.157078 0.250213 0.286429 0.250086 0.157083 0.250617 0.286614 0.250178 0.157247 0.251652 0.287113 0.250527 0.157721 0.254162 0.288323 0.251464 0.158959 0.259716 0.291175 0.253907 0.162097 0.269727 0.297312 0.259995 0.169477 0.280902 0.307332 0.272783 0.183612 0.275815 0.313436 0.289976 0.19919 0.211375 0.292079 0.292238 0.190701 0.129348 0 0.210182 0.257873 0.4193 0.268321 0 0.335354 0.46833 0.366785 0.327726 0.567041 0.457766 0.382526 0.42807 0.596246 0.433675 0.372783 0.43937 0.549904 0.417996 0.362378 0.428112 0.51245 0.410951 0.356768 0.417227 0.494131 0.408171 0.354315 0.411102 0.486584 0.407089 0.353292 0.408316 0.483629 0.406673 0.352873 0.407157 0.482495 0.406566 0.352725 0.406702 0.482118 0.406733 0.352739 0.406566 0.48214 0.4072 0.352915 0.406706 0.482561 0.408306 0.353361 0.407138 0.483726 0.410774 0.354366 0.40818 0.486606 0.415697 0.356561 0.410674 0.493603 0.423015 0.360877 0.41654 0.509591 0.426326 0.366514 0.42837 0.539011 0.4053 0.363693 0.443094 0.565105 0.309788 0.329754 0.441112 0.516643 0.314978 0 0.247004 0.395062 0 0.433249 0.44804 0.455536 0.0883143 0.306446 0.696556 0.44672 0.465091 0.179051 0.394387 0.713706 0.421436 0.446098 0.19505 0.408288 0.668919 0.403908 0.430396 0.191217 0.402487 0.640544 0.395373 0.42255 0.185669 0.395955 0.628074 0.391831 0.419439 0.182538 0.392262 0.623036 0.390371 0.418243 0.181114 0.390557 0.621003 0.389745 0.417758 0.180487 0.389818 0.62019 0.389478 0.417564 0.18021 0.389507 0.619913 0.389403 0.417522 0.180094 0.389404 0.619939 0.38954 0.417616 0.180062 0.389515 0.620274 0.38987 0.417877 0.180096 0.389808 0.621154 0.390595 0.418495 0.180217 0.390437 0.623222 0.392099 0.419909 0.180521 0.39177 0.628058 0.394835 0.422924 0.181275 0.394577 0.639105 0.39883 0.427747 0.182968 0.400935 0.660776 0.398995 0.428551 0.185254 0.412753 0.683253 0.374702 0.402117 0.182835 0.421506 0.629775 0.294729 0.158423 0.424918 0.419487 0.40576 0 0.0770049 0 0.470176 0.383741 0.37562 0.157462 0.25061 0.733175 0.356172 0.36308 0.218635 0.320572 0.727782 0.331991 0.345208 0.222608 0.328553 0.692366 0.321133 0.335629 0.213642 0.322763 0.674573 0.316813 0.331906 0.207468 0.318001 0.667086 0.315069 0.330563 0.204656 0.315599 0.663947 0.314301 0.330027 0.203452 0.314518 0.662605 0.313947 0.329793 0.20292 0.314038 0.66203 0.313786 0.32969 0.202676 0.313824 0.661804 0.313727 0.329655 0.202564 0.313734 0.661771 0.31376 0.329672 0.202518 0.313739 0.661904 0.313894 0.329746 0.202511 0.313835 0.6623 0.314204 0.32994 0.20254 0.314056 0.663275 0.314913 0.330444 0.202637 0.31455 0.665669 0.316421 0.331731 0.202924 0.315727 0.671696 0.31876 0.33457 0.20383 0.318657 0.686157 0.318557 0.337775 0.206293 0.325236 0.709057 0.299705 0.329519 0.209262 0.335608 0.665216 0.241428 0.203169 0.355705 0.359236 0.44217 0 0.147469 0.418384 0.242018 0.370165 0 0.379397 0.411289 0.238684 0.366124 0 0.370502 0.408089 0.237253 0.364465 0 0.366349 0.406728 0.236605 0.363711 0 0.364531 0.40614 0.236309 0.363357 0 0.363724 0.405882 0.236183 0.3632 0 0.363357 0.405776 0.236158 0.363166 0 0.36319 0.405768 0.236212 0.363228 0 0.363139 0.405846 0.23637 0.363451 0 0.36317 0.40607 0.236735 0.364043 0 0.363312 0.406665 0.237564 0.365544 0 0.363699 0.408427 0.239354 0.368747 0 0.364864 0.429831 0.250059 0.381502 0 0.39343 0.414 0.2421 0.371979 0 0.368807 0.424302 0.266177 0.413574 0 0.394725 0.428639 0.239621 0.361393 0 0.380443 0.304487 0.271913 0.478157 0 0.318599 0.447663 0.201385 0.261955 0.289234 0 0.400497 0 0.165557 0.479194 0 0.450687 0.141819 0 0 0.501433 0.192818 0.457898 0.321566 0.4682 0.491769 0.189095 0.451209 0.31776 0.456939 0.486928 0.187439 0.448576 0.316189 0.451171 0.484841 0.186716 0.44745 0.315518 0.448574 0.483978 0.186405 0.446953 0.315224 0.447437 0.483637 0.186289 0.446763 0.315104 0.446945 0.483546 0.186294 0.446816 0.31508 0.446751 0.483657 0.186413 0.447118 0.315137 0.44679 0.484013 0.186708 0.447832 0.31531 0.447069 0.484852 0.187354 0.449448 0.315735 0.447712 0.486835 0.188648 0.452801 0.316771 0.449205 0.49174 0.190719 0.457913 0.319236 0.452889 0.503151 0.191507 0.457951 0.323814 0.461669 0.51323 0.199973 0.475395 0.330132 0.482445 0.521017 0.18119 0.426521 0.325188 0.476454 0.497897 0.208143 0.514379 0.343042 0.47284 0.362262 0.196065 0.561075 0.339396 0.358402 0.512723 0.140809 0.319151 0.322605 0.294713 0.475766 0.487848 0.247507 0 0.0812082 0.452432 0.0664173 0 0.229783 
</DataArray>
<DataArray type="Float64" Name="wall variable 1" format="ascii">
1.78957 0.200475 0.200513 1.78957 0.200475 0.200555 0.200475 1.78957 0.200475 0.200563 0.200475 1.78957 0.200475 0.200552 0.200475 1.78957 0.200475 0.200542 0.200475 1.78957 0.200475 0.200537 0.200475 1.78957 0.200475 0.200534 0.200475 1.78957 0.200475 0.200533 0.200475 1.78957 0.200475 0.200533 0.200475 1.78957 0.200475 0.200533 0.200475 1.78957 0.200475 0.200533 0.200475 1.78957 0.200475 0.200533 0.200475 1.78957 0.200475 0.200533 0.200475 1.78957 0.200475 0.200534 0.200475 1.78957 0.200475 0.200536 0.200475 1.78957 0.200475 0.200541 0.200475 1.78957 0.200475 0.20055 0.200475 1.78957 0.200475 0.200557 0.200475 1.78957 0.200475 0.200547 0.200475 1.78957 1.78957 0.20051 0.200475 1.78957 0.200513 0.200485 0.20053 1.78957 0.200555 0.200475 0.20067 0.200485 0.200563 0.200476 0.200726 0.200475 0.200552 0.200476 0.200708 0.200476 0.200542 0.200475 0.20068 0.200476 0.200537 0.200475 0.200663 0.200475 0.200534 0.200475 0.200656 0.200475 0.200533 0.200475 0.200653 0.200475 0.200533 0.200475 0.200652 0.200475 0.200533 0.200475 0.200652 0.200475 0.200533 0.200475 0.200652 0.200475 0.200533 0.200475 0.200652 0.200475 0.200533 0.200475 0.200653 0.200475 0.200534 0.200475 0.200656 0.200475 0.200536 0.200475 0.200663 0.200475 0.200541 0.200475 0.200676 0.200475 0.20055 0.200475 0.200693 0.200475 0.200557 0.200476 0.200691 0.200475 0.200547 0.200484 0.200628 0.200476 0.20051 1.78957 0.20052 0.200484 0.200569 0.200492 1.78957 0.20053 0.200482 0.200542 0.200569 0.20067 0.200477 0.200561 0.200482 0.200726 0.200478 0.200551 0.200477 0.200708 0.200476 0.20054 0.200478 0.20068 0.200475 0.200535 0.200476 0.200663 0.200475 0.200533 0.200475 0.200656 0.200475 0.200532 0.200475 0.200653 0.200475 0.200532 0.200475 0.200652 0.200475 0.200532 0.200475 0.200652 0.200475 0.200532 0.200475 0.200652 0.200475 0.200532 0.200475 0.200652 0.200475 0.200532 0.200475 0.200653 0.200475 0.200533 0.200475 0.200656 0.200476 0.200535 0.200475 0.200663 0.200477 0.200541 0.200476 0.200676 0.200476 0.200552 0.200477 0.200693 0.200486 0.200564 0.200476 0.200691 0.200549 0.200546 0.200486 0.200628 0.20052 1.78957 0.200493 0.200549 0.200554 0.200497 1.78957 0.200492 0.200482 0.200554 0.200554 0.200542 0.200476 0.200578 0.200482 0.200561 0.200476 0.200573 0.200476 0.200551 0.200476 0.200563 0.200476 0.20054 0.200475 0.200557 0.200476 0.200535 0.200475 0.200554 0.200475 0.200533 0.200475 0.200553 0.200475 0.200532 0.200475 0.200552 0.200475 0.200532 0.200475 0.200552 0.200475 0.200532 0.200475 0.200552 0.200475 0.200532 0.200475 0.200552 0.200475 0.200532 0.200475 0.200553 0.200475 0.200532 0.200475 0.200554 0.200475 0.200533 0.200475 0.200556 0.200475 0.200535 0.200476 0.200562 0.200475 0.200541 0.200477 0.200569 0.200476 0.200552 0.200488 0.200573 0.200477 0.200564 0.200533 0.200556 0.200488 0.200546 0.200493 1.78957 0.200497 0.200533 1.78957 0.200497 0.200504 0.200578 1.11714 0.200504 0.200554 0.200477 0.200527 0.84453 0.200477 0.200578 0.200475 0.200501 0.821027 0.200475 0.200573 0.200475 0.200492 0.818308 0.200475 0.200563 0.200475 0.200491 0.81788 0.200475 0.200557 0.200475 0.200491 0.817812 0.200475 0.200554 0.200475 0.200491 0.817784 0.200475 0.200553 0.200475 0.200491 0.817772 0.200475 0.200552 0.200475 0.200491 0.817767 0.200475 0.200552 0.200475 0.200491 0.817764 0.200475 0.200552 0.200475 0.200491 0.817763 0.200475 0.200552 0.200475 0.200491 0.817762 0.200475 0.200553 0.200475 0.200491 0.817762 0.200475 0.200554 0.200475 0.200492 0.817761 0.200475 0.200556 0.200475 0.200492 0.817764 0.200475 0.200562 0.200475 0.200492 0.817781 0.200475 0.200569 0.200477 0.200487 0.818053 0.200477 0.200573 0.200482 0.200478 0.820548 0.200482 0.200556 0.200493 0.844009 0.200524 0.200493 0.200497 1.78957 1.11705 1.78957 0.200499 0.200487 0.200508 0.533995 0.200487 0.200567 0.200475 0.200482 0.45399 0.200475 0.200591 0.200475 0.200477 0.448007 0.200475 0.200579 0.200475 0.200477 0.44749 0.200475 0.200567 0.200475 0.200477 0.447459 0.200475 0.20056 0.200475 0.200477 0.447456 0.200475 0.200557 0.200475 0.200477 0.447455 0.200475 0.200556 0.200475 0.200477 0.447455 0.200475 0.200555 0.200475 0.200477 0.447455 0.200475 0.200555 0.200475 0.200477 0.447455 0.200475 0.200555 0.200475 0.200477 0.447454 0.200475 0.200555 0.200475 0.200477 0.447454 0.200475 0.200555 0.200475 0.200477 0.447454 0.200475 0.200556 0.200475 0.200477 0.447454 0.200475 0.200558 0.200475 0.200477 0.447454 0.200475 0.20056 0.200475 0.200477 0.447454 0.200475 0.200563 0.200475 0.200477 0.447477 0.200475 0.200556 0.200478 0.200476 0.447977 0.200478 0.200532 0.200481 0.453973 0.200496 0.200481 0.200492 1.78957 0.533987 0.200477 0.447459 0.200475 1.78957 0.200476 0.200477 0.447456 0.200475 1.78957 0.200475 0.200477 0.447455 0.200475 1.78957 0.200475 0.200477 0.447455 0.200475 1.78957 0.200475 0.200477 0.447455 0.200475 1.78957 0.200475 0.200477 0.447455 0.200475 1.78957 0.200475 0.200477 0.447454 0.200475 1.78957 0.200475 0.200477 0.447454 0.200475 1.78957 0.200475 0.200477 0.447454 0.200475 1.78957 0.200475 0.200477 0.447454 0.200475 1.78957 0.200475 0.200477 0.447454 0.200475 1.78957 0.200475 0.200477 0.447454 0.200475 1.78957 0.200475 0.200477 0.44749 0.200476 1.78957 0.200476 0.200477 0.447477 0.200475 1.78957 0.200475 0.200482 0.448007 0.200476 1.78957 0.200475 0.200477 0.447977 0.200476 1.78957 0.200475 0.200508 0.45399 0.200475 1.78957 0.200491 0.200476 0.453973 0.200496 0.200484 1.78957 0.200476 1.78957 0.533995 0.200491 1.78957 0.200484 0.533987 1.78957 1.78957 0.200492 0.81788 0.200475 0.200567 0.200476 0.200491 0.817812 0.200475 0.20056 0.200475 0.200491 0.817784 0.200475 0.200557 0.200475 0.200491 0.817772 0.200475 0.200556 0.200475 0.200491 0.817767 0.200475 0.200555 0.200475 0.200491 0.817764 0.200475 0.200555 0.200475 0.200491 0.817763 0.200475 0.200555 0.200475 0.200491 0.817762 0.200475 0.200555 0.200475 0.200491 0.817762 0.200475 0.200555 0.200475 0.200491 0.817761 0.200475 0.200556 0.200475 0.200492 0.817764 0.200475 0.200558 0.200475 0.200492 0.817781 0.200475 0.20056 0.200475 0.200492 0.818053 0.200476 0.200563 0.200475 0.200501 0.818308 0.200476 0.200579 0.200476 0.200487 0.820548 0.200487 0.200556 0.200476 0.200527 0.821027 0.200476 0.200591 0.200478 0.200578 0.84453 0.200478 0.200567 0.200544 0.200478 0.844009 0.200524 0.200509 0.200532 0.200487 0.200544 0.200499 1.78957 1.11714 0.200509 1.11705 1.78957 0.200492 
</DataArray>
<DataArray type="Float64" Name="wall variable 2" format="ascii">
0 0 0 0 0 0 0.000133812 0 5.22913e-05 0 3.43767e-05 0 5.00369e-05 0 0 0 2.77893e-05 0 0 0 1.24869e-05 0 0 0 5.0601e-06 0 0 0 1.92933e-06 0 0 0 6.37321e-07 0 0 0 0 0 0 0 0 0 1.9328e-08 0 0 0 6.72109e-07 0 0 0 1.9328e-06 0 0 0 4.91175e-06 0 0 0 1.17625e-05 0 0 0 2.52151e-05 0 0 0 4.25823e-05 0 4.88223e-05 0 3.65015e-05 0 0.000125463 0 0 0 0 0 0 0 0.0113666 0.00132087 0 0 0.0174182 0.00148685 0 0 0.0179314 0.00384637 0 0 0.015708 0.00269903 0 0 0.0138714 0.00128048 0 0 0.0129297 0.000518197 0 0 0.0125294 0.000197739 0 0 0.0123728 7.35593e-05 0 0 0.0123143 2.39939e-05 0 0 0.0122952 0 0 0 0.0122957 0 0 9.78034e-07 0.0123159 0 0 2.57727e-05 0.012375 0 0 7.36806e-05 0.0125291 0 0 0.000189562 0.012915 0 0 0.000478645 0.0138006 0 0 0.00114134 0.01546 0 0 0.00229309 0.0172665 0 0 0.00291866 0.0163209 0 0 0.000335815 0.0106369 0 0 0.00103429 0 0 0 0.0804371 0.0136341 0 0.00146724 0.178723 0.0256119 0 0 0.190381 0.0168988 0 0 0.165345 0.00770623 0 0 0.144814 0.0030684 0 0 0.134629 0.00118594 0 0 0.1304 0.000454375 0 0 0.128749 0.000150872 0 0 0.128123 0 0 0 0.127915 0 0 8.23456e-06 0.127924 0 0 0.000164737 0.128148 0 0 0.000447752 0.128779 0 0 0.00108447 0.130365 0 0 0.0026203 0.13426 0 0 0.00616256 0.143174 0 0 0.012341 0.159592 0 0 0.0149342 0.174577 0.00314795 0 0.000284067 0.153271 0.0686865 0 0 0 0.0312211 0 0 0.121566 0.0443059 0 0 0.399103 0.0361442 0 0 0.450062 0.0200802 0 0 0.396337 0.0095376 0 0 0.353177 0.00435138 0 0 0.33203 0.001967 0 0 0.322922 0.000858343 0 0 0.3191 0.00031036 0 0 0.317528 0 0 0 0.316975 0 0 1.7054e-05 0.317003 0 0 0.000324626 0.317594 0 0 0.000762148 0.319092 0 0 0.0014401 0.322377 0 0 0.00238641 0.329298 0 0 0.00335529 0.342928 3.68787e-05 0 0.0033617 0.363278 0.00458627 0 0 0.364558 0 0 0 0.273123 0.0819687 0 0 0.0216375 0 0.132072 0.0815785 0 0 0 0.415447 0.0580834 0 0 0 0.430502 0.0259427 0 0 0 0.36786 0.0121736 0 0 0 0.333326 0.00639214 0 0 0 0.319154 0.00340816 0 0 0 0.313267 0.00175036 0 0 0 0.31067 0.000839217 0 0 0 0.309517 0.000327705 0 0 0 0.309081 0 0 0 8.68896e-06 0.309093 0 0 0 0.000319695 0.309533 0 0 0 0.000714631 0.310612 0 0 0 0.00120647 0.312845 0 0 0 0.00143198 0.317263 0.000236972 0 0 0 0.3255 0.00794375 0 0 0 0.336939 0.0250559 0 0 0 0.327358 0.0340941 0 0 0 0.211378 0 0 0 0.0700274 0.073793 0 0 0 0.146099 0.077142 0 0 0 0.396198 0.0441594 0 0 0 0.377892 0.0199752 0 0 0 0.336695 0.0100304 0 0 0 0.318399 0.00518214 0 0 0 0.310479 0.0026693 0 0 0 0.306876 0.00136565 0 0 0 0.305204 0.000687587 0 0 0 0.30442 0.000331641 0 0 0 0.30406 0.000137757 0 0 0 0.303923 1.77498e-05 0 0 0 0.303939 0 0 0 8.65298e-05 0.304152 0 0 0 0.000227441 0.304824 0 0 0 0.000463269 0.306773 0 0 0 0.000763456 0.312236 0 0 0 0.000536048 0.326198 0.00190866 0 0 0 0.348729 0.012926 0 0 0 0.281882 0 0 0 0.0689944 0.11935 0 0 0.1065 0.0509385 0.0103376 0 0 0.10261 0.0475887 0.00494062 0 0 0.101353 0.0460529 0.00245952 0 0 0.100948 0.0453098 0.00123874 0 0 0.100812 0.044945 0.000620957 0 0 0.100762 0.0447703 0.000308602 0 0 0.10074 0.0447001 0.000153196 0 0 0.100729 0.044699 7.58257e-05 0 0 0.100725 0.0447625 3.36066e-05 0 0 0.100759 0.04494 0 0 0 0.100994 0.0453739 0 0 4.57961e-05 0.102172 0.0463561 0 0 0.000483359 0.116151 0.0588868 0.0233708 0 0 0.106978 0.0480227 0 0 0.00271971 0.118125 0.0769904 0.056378 0 0 0.122149 0.0480927 0 0 0.0118457 0.0268295 0.0919996 0.118216 0 0 0.155681 0.0349008 0.00525431 0 0 0.0398223 0 0.0253485 0.116096 0 0.118678 0.0166539 0 0 0.211705 0.0522562 0.015338 0 0 0.202571 0.0482795 0.00695346 0 0 0.199207 0.0466088 0.00337595 0 0 0.198113 0.0458581 0.00165242 0 0 0.197772 0.0455065 0.000760527 0 0 0.197689 0.0453478 0.000266794 0 0 0.197727 0.0453013 0 0 0 0.197891 0.0453418 0 0 6.6295e-05 0.198253 0.0455044 0 0 0.000398778 0.199026 0.0459383 0 0 0.00083026 0.200792 0.0469347 0 0 0.001447 0.205148 0.0488134 0 0 0.00245269 0.215248 0.0508142 0 0 0.00446026 0.228544 0.0616415 0.036872 0 0 0.229324 0.046754 0.00150217 0 0.00687092 0.222962 0.0791993 0.0861354 0 0 0.103249 0.083971 0.142556 0 0 0.20818 0.0250656 0.0604974 0 0 0 0.0766797 0 0 0.012688 0.0809553 0.00644861 0 0 
</DataArray>
</CellData>
</Piece>
</UnstructuredGrid>
</VTKFile>
