<VTKFile type="UnstructuredGrid" version="0.1">
<UnstructuredGrid>
<Piece  NumberOfPoints="     716" NumberOfCells="     160">
<Points>
<DataArray type="Float64" NumberOfComponents="3" format="ascii">
-0.601071 -7.3172 0.0
-0.58399 -7.30443 0.0
-3.06644 -6.86947 0.0
-3.11396 -7.23187 0.0
-0.553728 -7.26067 0.0
-2.95348 -6.43138 0.0
-3.05933 -6.84107 0.0
-0.576875 -7.27603 0.0
-0.512515 -7.21408 0.0
-2.77041 -5.9927 0.0
-2.94148 -6.40157 0.0
-0.54173 -7.23086 0.0
-0.460963 -7.16855 0.0
-2.51891 -5.58034 0.0
-2.75367 -5.96411 0.0
-0.495776 -7.18549 0.0
-0.40026 -7.12652 0.0
-2.20477 -5.20982 0.0
-2.49786 -5.55427 0.0
-0.439915 -7.14248 0.0
-0.331807 -7.0897 0.0
-1.83578 -4.89201 0.0
-2.17994 -5.18707 0.0
-0.375434 -7.10378 0.0
-0.257071 -7.05931 0.0
-1.42111 -4.63537 0.0
-1.80776 -4.87314 0.0
-0.303791 -7.07083 0.0
-0.177532 -7.03625 0.0
-0.97104 -4.4465 0.0
-1.39054 -4.62083 0.0
-0.226502 -7.04476 0.0
-0.0946646 -7.02115 0.0
-0.496726 -4.33019 0.0
-0.938605 -4.43661 0.0
-0.145098 -7.02636 0.0
-0.00994052 -7.01439 0.0
-0.00994052 -4.28941 0.0
-0.463155 -4.32519 0.0
-0.0610934 -7.01615 0.0
0.0751655 -7.01615 0.0
0.477227 -4.32519 0.0
0.0240127 -4.28941 0.0
0.0240127 -7.01439 0.0
0.15917 -7.02636 0.0
0.952678 -4.43661 0.0
0.510799 -4.33019 0.0
0.108737 -7.02115 0.0
0.240574 -7.04476 0.0
1.40461 -4.62083 0.0
0.985112 -4.4465 0.0
0.191604 -7.03625 0.0
0.317863 -7.07083 0.0
1.82183 -4.87314 0.0
1.43518 -4.63537 0.0
0.271144 -7.05931 0.0
0.389506 -7.10378 0.0
2.19401 -5.18707 0.0
1.84985 -4.89201 0.0
0.345879 -7.0897 0.0
0.453987 -7.14248 0.0
2.51193 -5.55427 0.0
2.21884 -5.20982 0.0
0.414332 -7.12652 0.0
0.509848 -7.18549 0.0
2.76774 -5.96411 0.0
2.53298 -5.58034 0.0
0.475035 -7.16855 0.0
0.555803 -7.23086 0.0
2.95556 -6.40157 0.0
2.78448 -5.9927 0.0
0.526587 -7.21408 0.0
0.590947 -7.27603 0.0
3.0734 -6.84107 0.0
2.96755 -6.43138 0.0
0.5678 -7.26067 0.0
0.615143 -7.3172 0.0
3.12803 -7.23187 0.0
3.08051 -6.86947 0.0
0.598062 -7.30443 0.0
-3.38904 -7.20724 0.0
-3.34152 -6.84484 0.0
-6.19422 -6.4001 0.0
-6.28073 -7.18265 0.0
-3.32766 -6.77519 0.0
-3.22182 -6.3655 0.0
-5.96783 -5.47603 0.0
-6.18036 -6.33045 0.0
-3.19718 -6.29333 0.0
-3.0261 -5.88446 0.0
-5.59699 -4.57216 0.0
-5.94319 -5.40386 0.0
-2.99056 -5.81549 0.0
-2.7558 -5.43171 0.0
-5.08836 -3.73168 0.0
-5.56145 -4.50318 0.0
-2.70992 -5.36871 0.0
-2.41683 -5.02426 0.0
-4.45418 -2.9799 0.0
-5.04248 -3.66868 0.0
-2.36163 -4.96908 0.0
-2.01747 -4.67403 0.0
-3.71009 -2.33631 0.0
-4.39899 -2.92472 0.0
-1.95431 -4.62812 0.0
-1.56766 -4.39035 0.0
-2.87442 -1.81699 0.0
-3.64692 -2.29041 0.0
-1.49807 -4.35488 0.0
-1.07857 -4.18055 0.0
-1.96776 -1.43478 0.0
-2.80483 -1.78152 0.0
-1.00428 -4.15641 0.0
-0.562402 -4.04999 0.0
-1.01245 -1.1991 0.0
-1.89347 -1.41063 0.0
-0.485241 -4.03777 0.0
-0.0320268 -4.00199 0.0
-0.0320268 -1.11579 0.0
-0.935292 -1.18688 0.0
0.0460989 -4.00199 0.0
0.499314 -4.03777 0.0
0.949364 -1.18688 0.0
0.0460989 -1.11579 0.0
0.576474 -4.04999 0.0
1.01835 -4.15641 0.0
1.90754 -1.41063 0.0
1.02652 -1.1991 0.0
1.09264 -4.18055 0.0
1.51214 -4.35488 0.0
2.81891 -1.78152 0.0
1.98183 -1.43478 0.0
1.58173 -4.39035 0.0
1.96838 -4.62812 0.0
3.661 -2.29041 0.0
2.88849 -1.81699 0.0
2.03154 -4.67403 0.0
2.37571 -4.96908 0.0
4.41306 -2.92472 0.0
3.72416 -2.33631 0.0
2.4309 -5.02426 0.0
2.72399 -5.36871 0.0
5.05655 -3.66868 0.0
4.46825 -2.9799 0.0
2.76987 -5.43171 0.0
3.00463 -5.81549 0.0
5.57552 -4.50318 0.0
5.10243 -3.73168 0.0
3.04017 -5.88446 0.0
3.21125 -6.29333 0.0
5.95726 -5.40386 0.0
5.61107 -4.57216 0.0
3.23589 -6.3655 0.0
3.34173 -6.77519 0.0
6.19443 -6.33045 0.0
5.9819 -5.47603 0.0
3.35559 -6.84484 0.0
3.40311 -7.20724 0.0
6.2948 -7.18265 0.0
6.20829 -6.4001 0.0
-6.50605 -6.375 0.0
-9.3704 -5.92798 0.0
-9.49307 -7.14658 0.0
-6.59256 -7.15755 0.0
-6.27211 -5.4035 0.0
-9.03068 -4.50986 0.0
-9.349 -5.81089 0.0
-6.48465 -6.25791 0.0
-5.88634 -4.45242 0.0
-8.47058 -3.1363 0.0
-8.99111 -4.39049 0.0
-6.23254 -5.28412 0.0
-5.35545 -3.56784 0.0
-7.70173 -1.86315 0.0
-8.41279 -3.02323 0.0
-5.82855 -4.33934 0.0
-4.69237 -2.77616 0.0
-6.743 -0.72532 0.0
-7.62694 -1.76025 0.0
-5.28066 -3.46494 0.0
-3.91349 -2.09778 0.0
-5.61804 0.248608 0.0
-6.65303 -0.63535 0.0
-4.60239 -2.68619 0.0
-3.03803 -1.54956 0.0
-4.35457 1.03458 0.0
-5.5151 0.323403 0.0
-3.81054 -2.02298 0.0
-2.08758 -1.14505 0.0
-2.98369 1.61322 0.0
-4.24119 1.09235 0.0
-2.92465 -1.49179 0.0
-1.08554 -0.894203 0.0
-1.53918 1.97028 0.0
-2.86267 1.65254 0.0
-1.96656 -1.10573 0.0
-0.0565895 -0.803204 0.0
-0.0565894 2.09698 0.0
-1.41349 1.99019 0.0
-0.959855 -0.874296 0.0
0.973927 -0.874296 0.0
1.42757 1.99019 0.0
0.0706618 2.09698 0.0
0.0706616 -0.803204 0.0
1.98063 -1.10573 0.0
2.87674 1.65254 0.0
1.55325 1.97028 0.0
1.09961 -0.894203 0.0
2.93872 -1.49179 0.0
4.25526 1.09235 0.0
2.99777 1.61322 0.0
2.10165 -1.14505 0.0
3.82461 -2.02298 0.0
5.52917 0.323403 0.0
4.36864 1.03458 0.0
3.0521 -1.54956 0.0
4.61646 -2.68619 0.0
6.6671 -0.63535 0.0
5.63211 0.248608 0.0
3.92756 -2.09778 0.0
5.29473 -3.46494 0.0
7.64101 -1.76025 0.0
6.75708 -0.725321 0.0
4.70644 -2.77616 0.0
5.84262 -4.33934 0.0
8.42686 -3.02323 0.0
7.71581 -1.86315 0.0
5.36953 -3.56784 0.0
6.24661 -5.28412 0.0
9.00518 -4.39049 0.0
8.48466 -3.1363 0.0
5.90041 -4.45242 0.0
6.49872 -6.25791 0.0
9.36307 -5.81089 0.0
9.04476 -4.50986 0.0
6.28619 -5.4035 0.0
6.52012 -6.375 0.0
6.60663 -7.15755 0.0
9.50714 -7.14658 0.0
9.38447 -5.92798 0.0
-9.68726 -5.90287 0.0
-12.552 -5.45368 0.0
-12.7103 -7.11516 0.0
-9.80993 -7.12147 0.0
-9.33993 -4.43603 0.0
-12.0987 -3.54098 0.0
-12.523 -5.28787 0.0
-9.65824 -5.73706 0.0
-8.76453 -3.01468 0.0
-11.349 -1.69804 0.0
-12.0438 -3.37381 0.0
-9.28505 -4.26886 0.0
-7.97303 -1.69692 0.0
-10.3197 0.00801354 0.0
-11.2686 -1.54036 0.0
-8.68409 -2.857 0.0
-6.98496 -0.518666 0.0
-9.03599 1.53243 0.0
-10.2155 0.151332 0.0
-7.86889 -1.5536 0.0
-5.82469 0.490574 0.0
-7.52961 2.83727 0.0
-8.91071 1.65771 0.0
-6.85967 -0.393384 0.0
-4.52082 1.30589 0.0
-5.83764 3.8904 0.0
-7.38627 2.94142 0.0
-5.68135 0.594717 0.0
-3.10546 1.9072 0.0
-4.00176 4.66589 0.0
-5.67977 3.97084 0.0
-4.36295 1.38633 0.0
-1.61345 2.27969 0.0
-2.06717 5.14463 0.0
-3.83325 4.72064 0.0
-2.93695 1.96195 0.0
-0.0815513 2.4142 0.0
-0.0815085 5.31485 0.0
-1.89217 5.17235 0.0
-1.43846 2.30741 0.0
1.45253 2.30741 0.0
1.90634 5.17234 0.0
0.0956713 5.31485 0.0
0.0956285 2.4142 0.0
2.95103 1.96195 0.0
3.84741 4.72061 0.0
2.08133 5.14462 0.0
1.62753 2.27969 0.0
4.37703 1.38633 0.0
5.69393 3.9708 0.0
4.01592 4.66586 0.0
3.11953 1.9072 0.0
5.69542 0.594715 0.0
7.40041 2.94136 0.0
5.85179 3.89036 0.0
4.53489 1.30589 0.0
6.87375 -0.393387 0.0
8.92484 1.65765 0.0
7.54375 2.83722 0.0
5.83876 0.490571 0.0
7.88297 -1.5536 0.0
10.2297 0.151284 0.0
9.05013 1.53236 0.0
6.99903 -0.51867 0.0
8.69816 -2.857 0.0
11.2827 -1.54042 0.0
10.3338 0.00796599 0.0
7.98711 -1.69692 0.0
9.29913 -4.26887 0.0
12.058 -3.37388 0.0
11.3632 -1.69811 0.0
8.7786 -3.01469 0.0
9.67231 -5.73706 0.0
12.537 -5.28787 0.0
12.1128 -3.54105 0.0
9.354 -4.43603 0.0
9.70133 -5.90287 0.0
9.824 -7.12147 0.0
12.7244 -7.11516 0.0
12.566 -5.45369 0.0
-14.44 -7.10642 0.0
-12.9505 -7.09472 0.0
-12.7922 -5.43324 0.0
-14.2717 -5.19862 0.0
-14.4103 -5.1835 0.0
-14.237 -4.99509 0.0
-12.7575 -5.22972 0.0
-12.3332 -3.48283 0.0
-13.7591 -3.01493 0.0
-13.8942 -2.98154 0.0
-13.6923 -2.81149 0.0
-12.2665 -3.2794 0.0
-11.5717 -1.60363 0.0
-12.9068 -0.91763 0.0
-13.0352 -0.863815 0.0
-12.8089 -0.726213 0.0
-11.4737 -1.41221 0.0
-10.5248 0.136157 0.0
-11.736 1.0225 0.0
-11.8545 1.09585 0.0
-11.6074 1.19244 0.0
-10.3962 0.30609 0.0
-9.21668 1.68719 0.0
-10.1711 2.64896 0.0
-10.2843 2.7474 0.0
-10.0151 2.7988 0.0
-9.06073 1.83703 0.0
-7.67962 3.01659 0.0
-8.47174 4.11575 0.0
-8.56806 4.23054 0.0
-8.2985 4.24115 0.0
-7.50638 3.14199 0.0
-5.95776 4.09098 0.0
-6.56818 5.30052 0.0
-6.64536 5.42896 0.0
-6.37745 5.39728 0.0
-5.76703 4.18774 0.0
-4.08902 4.88279 0.0
-4.50271 6.17293 0.0
-4.55885 6.31186 0.0
-4.2992 6.23866 0.0
-3.88551 4.94852 0.0
-2.11943 5.37251 0.0
-2.3262 6.71148 0.0
-2.35991 6.85749 0.0
-2.11491 6.74457 0.0
-1.90814 5.40559 0.0
-0.0974738 5.54809 0.0
-0.0922398 6.90292 0.0
-0.102696 7.05241 0.0
0.121624 6.90255 0.0
0.11639 5.54772 0.0
1.92705 5.40521 0.0
2.14417 6.74254 0.0
2.15722 6.89182 0.0
2.35534 6.70872 0.0
2.13823 5.37138 0.0
3.9043 4.94738 0.0
4.32795 6.23428 0.0
4.3642 6.37968 0.0
4.53123 6.16784 0.0
4.10759 4.88093 0.0
5.78559 4.18587 0.0
6.40534 5.39066 0.0
6.46388 5.5286 0.0
6.59572 5.29324 0.0
5.97598 4.08845 0.0
7.52459 3.13945 0.0
8.32518 4.23245 0.0
8.40458 4.35953 0.0
8.49798 4.10644 0.0
7.69739 3.01344 0.0
9.07848 1.83386 0.0
10.0402 2.78817 0.0
10.1385 2.90127 0.0
10.1912 2.63669 0.0
9.22944 1.68238 0.0
10.409 0.301296 0.0
11.5082 1.0934 0.0
11.6229 1.18972 0.0
11.6336 0.920178 0.0
10.5344 0.12807 0.0
11.4833 -1.42032 0.0
12.6929 -0.80997 0.0
12.8213 -0.73283 0.0
12.7896 -1.00056 0.0
11.5801 -1.61091 0.0
12.2748 -3.28669 0.0
13.5648 -2.87345 0.0
13.7039 -2.81772 0.0
13.6304 -3.07559 0.0
12.3404 -3.48883 0.0
12.7646 -5.23565 0.0
14.2479 -5.00049 0.0
14.4283 -5.18289 0.0
14.2898 -5.19805 0.0
12.8064 -5.43322 0.0
12.9647 -7.09469 0.0
14.456 -7.10639 0.0
-17.5742 -7.0929 0.0
-16.1543 -7.06616 0.0
-15.9613 -4.95928 0.0
-17.3777 -4.72702 0.0
-17.512 -4.73052 0.0
-17.3352 -4.47423 0.0
-15.9189 -4.70649 0.0
-15.389 -2.51603 0.0
-16.7528 -2.05905 0.0
-16.8866 -2.04476 0.0
-16.6706 -1.8083 0.0
-15.3068 -2.26527 0.0
-14.4384 -0.16988 0.0
-15.7139 0.495564 0.0
-15.8439 0.530345 0.0
-15.5933 0.731141 0.0
-14.3179 0.0656958 0.0
-13.1319 2.00082 0.0
-14.2871 2.85727 0.0
-14.4103 2.91223 0.0
-14.1296 3.06709 0.0
-12.9744 2.21064 0.0
-11.5004 3.93667 0.0
-12.4097 4.86585 0.0
-12.529 4.94494 0.0
-12.2185 5.05119 0.0
-11.3092 4.122 0.0
-9.58316 5.59606 0.0
-10.3358 6.65587 0.0
-10.441 6.75236 0.0
-10.1223 6.81035 0.0
-9.36966 5.75054 0.0
-7.43434 6.93647 0.0
-8.01188 8.10097 0.0
-8.1007 8.21273 0.0
-7.77685 8.22015 0.0
-7.1993 7.05565 0.0
-5.10229 7.92423 0.0
-5.49056 9.16474 0.0
-5.5608 9.28902 0.0
-5.23977 9.24569 0.0
-4.85151 8.00518 0.0
-2.64443 8.53502 0.0
-2.83386 9.82099 0.0
-2.8838 9.95473 0.0
-2.5735 9.86171 0.0
-2.38408 8.57574 0.0
-0.121289 8.7538 0.0
-0.107216 10.0536 0.0
-0.135614 10.1935 0.0
0.156308 10.0531 0.0
0.142235 8.75328 0.0
2.40502 8.57517 0.0
2.62225 9.85674 0.0
2.61608 9.99936 0.0
2.88244 9.81501 0.0
2.66521 8.53344 0.0
4.87227 8.00354 0.0
5.28731 9.23535 0.0
5.30353 9.37718 0.0
5.53778 9.15343 0.0
5.12274 7.92162 0.0
7.21973 7.05299 0.0
7.82236 8.20471 0.0
7.86057 8.34225 0.0
8.05693 8.08461 0.0
7.4543 6.9329 0.0
9.38959 5.74691 0.0
10.165 6.79018 0.0
10.2242 6.92005 0.0
10.3779 6.63487 0.0
9.60249 5.5916 0.0
11.3284 4.11748 0.0
12.2575 5.02661 0.0
12.3363 5.14561 0.0
12.4434 4.83991 0.0
11.5144 3.93078 0.0
12.9885 2.20482 0.0
14.0483 2.95741 0.0
14.1448 3.06262 0.0
14.2028 2.74392 0.0
13.143 1.99133 0.0
14.3288 0.0561448 0.0
15.4933 0.633633 0.0
15.6051 0.722426 0.0
15.6125 0.398687 0.0
14.448 -0.178801 0.0
15.3164 -2.27421 0.0
16.5568 -1.88644 0.0
16.6812 -1.81651 0.0
16.6374 -2.13562 0.0
15.397 -2.52339 0.0
15.9266 -4.71357 0.0
17.3469 -4.48087 0.0
17.5303 -4.72984 0.0
17.3958 -4.7266 0.0
15.9755 -4.95929 0.0
16.1686 -7.06615 0.0
17.5922 -7.09289 0.0
-14.369 3.21912 0.0
-14.2458 3.16416 0.0
-12.6452 5.04201 0.0
-13.5522 5.96884 0.0
-15.3055 3.91651 0.0
-12.4409 5.24129 0.0
-12.3216 5.1622 0.0
-10.544 6.86337 0.0
-11.2953 7.92114 0.0
-13.3479 6.16812 0.0
-10.3119 7.03261 0.0
-10.2067 6.93612 0.0
-8.18515 8.33849 0.0
-8.76171 9.50076 0.0
-11.0632 8.09037 0.0
-7.9294 8.46934 0.0
-7.84058 8.35758 0.0
-5.62453 9.42644 0.0
-6.01218 10.6646 0.0
-8.50596 9.63161 0.0
-5.35146 9.51567 0.0
-5.28122 9.39139 0.0
-2.92525 10.1004 0.0
-3.11443 11.384 0.0
-5.73911 10.7538 0.0
-2.64158 10.1458 0.0
-2.59165 10.0121 0.0
-0.153759 10.3439 0.0
-0.139821 11.6412 0.0
-2.83077 11.4294 0.0
0.133515 10.3443 0.0
0.161913 10.2044 0.0
2.62169 10.1507 0.0
2.8384 11.4299 0.0
0.147452 11.6417 0.0
2.9055 10.1063 0.0
2.91166 9.96365 0.0
5.33275 9.52582 0.0
5.74691 10.7554 0.0
3.12221 11.3855 0.0
5.60611 9.4375 0.0
5.58989 9.29567 0.0
7.91268 8.48449 0.0
8.51408 9.63411 0.0
6.02027 10.667 0.0
8.16886 8.3545 0.0
8.13065 8.21695 0.0
10.2979 7.05239 0.0
11.0718 8.09377 0.0
8.77026 9.50411 0.0
10.5306 6.88392 0.0
10.4714 6.75405 0.0
12.4298 5.26479 0.0
13.357 6.17229 0.0
11.3045 7.9253 0.0
12.6333 5.06199 0.0
12.5544 4.94298 0.0
14.2558 3.1657 0.0
15.3136 3.91698 0.0
13.5605 5.9695 0.0
-15.8552 0.839631 0.0
-15.7252 0.80485 0.0
-14.5422 2.98594 0.0
-15.4788 3.68333 0.0
-16.8891 1.38184 0.0
14.425 2.93357 0.0
14.3285 2.82837 0.0
15.7309 0.806868 0.0
16.8932 1.38346 0.0
15.4828 3.68486 0.0
-16.9462 -1.74186 0.0
-16.8124 -1.75615 0.0
-15.9857 0.58249 0.0
-17.0196 1.1247 0.0
-18.0524 -1.36797 0.0
15.8617 0.551179 0.0
15.7499 0.462386 0.0
16.8186 -1.75281 0.0
18.0568 -1.36483 0.0
17.024 1.12777 0.0
-17.6177 -4.44845 0.0
-17.4834 -4.44495 0.0
-17.0348 -2.01549 0.0
-18.141 -1.6416 0.0
-18.7709 -4.25172 0.0
16.9079 -2.02575 0.0
16.7835 -2.09568 0.0
17.493 -4.44094 0.0
17.6275 -4.44418 0.0
18.7766 -4.24811 0.0
18.1461 -1.63777 0.0
-19.0421 -7.05923 0.0
-17.7249 -7.0866 0.0
-17.6627 -4.72422 0.0
-18.8159 -4.52749 0.0
18.8301 -4.52748 0.0
17.681 -4.72355 0.0
17.7429 -7.0866 0.0
19.0564 -7.05923 0.0
-11.8478 1.369 0.0
-11.7292 1.29566 0.0
-10.4062 2.85062 0.0
-11.3821 3.83418 0.0
-12.8561 2.10815 0.0
-10.2356 3.01586 0.0
-10.1223 2.91742 0.0
-8.67527 4.34915 0.0
-9.4855 5.47347 0.0
-11.2115 3.99941 0.0
-8.48215 4.48986 0.0
-8.38583 4.37508 0.0
-6.73269 5.56289 0.0
-7.35706 6.80011 0.0
-9.29238 5.61418 0.0
-6.51994 5.67166 0.0
-6.44276 5.54322 0.0
-4.62416 6.4578 0.0
-5.04729 7.77746 0.0
-7.14431 6.90888 0.0
-4.39701 6.53195 0.0
-4.34087 6.39302 0.0
-2.40159 7.01185 0.0
-2.61307 8.38146 0.0
-4.82015 7.85161 0.0
-2.16564 7.04955 0.0
-2.13193 6.90355 0.0
-0.119709 7.21138 0.0
-0.114339 8.59721 0.0
-2.37712 8.41916 0.0
0.119234 7.21171 0.0
0.129691 7.06223 0.0
2.16529 7.0515 0.0
2.38739 8.41943 0.0
0.124604 8.59754 0.0
2.40134 7.01445 0.0
2.38829 6.86517 0.0
4.39714 6.53613 0.0
4.8305 7.85248 0.0
2.62344 8.38238 0.0
4.62449 6.46261 0.0
4.58825 6.31721 0.0
6.5209 5.67797 0.0
7.15484 6.91032 0.0
5.05785 7.77895 0.0
6.73395 5.56979 0.0
6.6754 5.43185 0.0
8.48426 4.49815 0.0
9.30318 5.61615 0.0
7.36789 6.80213 0.0
8.67777 4.35797 0.0
8.59836 4.23089 0.0
10.2389 3.02571 0.0
11.2226 4.00185 0.0
9.49668 5.47597 0.0
10.4081 2.85699 0.0
10.3098 2.74389 0.0
11.7416 1.29693 0.0
12.8659 2.10716 0.0
11.3918 3.83312 0.0
11.8823 1.10382 0.0
11.7675 1.00751 0.0
12.9553 -0.645502 0.0
14.1925 -0.0211326 0.0
13.0066 1.91405 0.0
-13.0753 -0.592827 0.0
-12.9469 -0.646642 0.0
-11.9925 1.17542 0.0
-13.0009 1.91456 0.0
-14.1869 -0.0205612 0.0
13.064 -0.858161 0.0
12.9355 -0.935301 0.0
13.8498 -2.75246 0.0
15.1696 -2.3292 0.0
14.3012 -0.233792 0.0
-13.9762 -2.72113 0.0
-13.8411 -2.75451 0.0
-13.184 -0.806834 0.0
-14.2955 -0.234569 0.0
-15.1639 -2.32996 0.0
-14.5314 -4.94699 0.0
-14.3928 -4.96211 0.0
-14.0501 -2.94856 0.0
-15.2378 -2.55739 0.0
-15.7676 -4.74785 0.0
13.9239 -2.97884 0.0
13.7849 -3.03457 0.0
14.4024 -4.95946 0.0
14.5409 -4.9443 0.0
15.7733 -4.74576 0.0
15.2437 -2.55558 0.0
-14.5692 -5.17485 0.0
-15.8054 -4.97571 0.0
-15.9984 -7.08259 0.0
-14.5989 -7.09777 0.0
15.8195 -4.97576 0.0
14.5871 -5.17429 0.0
14.6148 -7.09779 0.0
16.0126 -7.08261 0.0
</DataArray>
</Points>
<Cells>
<DataArray type="Int32" Name="connectivity" format="ascii">
0 1 2 3 
4 5 6 7 
8 9 10 11 
12 13 14 15 
16 17 18 19 
20 21 22 23 
24 25 26 27 
28 29 30 31 
32 33 34 35 
36 37 38 39 
40 41 42 43 
44 45 46 47 
48 49 50 51 
52 53 54 55 
56 57 58 59 
60 61 62 63 
64 65 66 67 
68 69 70 71 
72 73 74 75 
76 77 78 79 
80 81 82 83 
84 85 86 87 
88 89 90 91 
92 93 94 95 
96 97 98 99 
100 101 102 103 
104 105 106 107 
108 109 110 111 
112 113 114 115 
116 117 118 119 
120 121 122 123 
124 125 126 127 
128 129 130 131 
132 133 134 135 
136 137 138 139 
140 141 142 143 
144 145 146 147 
148 149 150 151 
152 153 154 155 
156 157 158 159 
160 161 162 163 
164 165 166 167 
168 169 170 171 
172 173 174 175 
176 177 178 179 
180 181 182 183 
184 185 186 187 
188 189 190 191 
192 193 194 195 
196 197 198 199 
200 201 202 203 
204 205 206 207 
208 209 210 211 
212 213 214 215 
216 217 218 219 
220 221 222 223 
224 225 226 227 
228 229 230 231 
232 233 234 235 
236 237 238 239 
240 241 242 243 
244 245 246 247 
248 249 250 251 
252 253 254 255 
256 257 258 259 
260 261 262 263 
264 265 266 267 
268 269 270 271 
272 273 274 275 
276 277 278 279 
280 281 282 283 
284 285 286 287 
288 289 290 291 
292 293 294 295 
296 297 298 299 
300 301 302 303 
304 305 306 307 
308 309 310 311 
312 313 314 315 
316 317 318 319 
320 321 322 323 324 
325 326 327 328 329 
330 331 332 333 334 
335 336 337 338 339 
340 341 342 343 344 
345 346 347 348 349 
350 351 352 353 354 
355 356 357 358 359 
360 361 362 363 364 
365 366 367 368 369 
370 371 372 373 374 
375 376 377 378 379 
380 381 382 383 384 
385 386 387 388 389 
390 391 392 393 394 
395 396 397 398 399 
400 401 402 403 404 
405 406 407 408 409 
410 411 412 413 
414 415 416 417 418 
419 420 421 422 423 
424 425 426 427 428 
429 430 431 432 433 
434 435 436 437 438 
439 440 441 442 443 
444 445 446 447 448 
449 450 451 452 453 
454 455 456 457 458 
459 460 461 462 463 
464 465 466 467 468 
469 470 471 472 473 
474 475 476 477 478 
479 480 481 482 483 
484 485 486 487 488 
489 490 491 492 493 
494 495 496 497 498 
499 500 501 502 503 
504 505 506 507 508 
509 510 511 512 
513 514 515 516 517 
518 519 520 521 522 
523 524 525 526 527 
528 529 530 531 532 
533 534 535 536 537 
538 539 540 541 542 
543 544 545 546 547 
548 549 550 551 552 
553 554 555 556 557 
558 559 560 561 562 
563 564 565 566 567 
568 569 570 571 572 
573 574 575 576 577 
578 579 580 581 582 
583 584 585 586 587 
588 589 590 591 592 
593 594 595 596 597 
598 599 600 601 602 
603 604 605 606 607 608 
609 610 611 612 
613 614 615 616 
617 618 619 620 621 
622 623 624 625 626 
627 628 629 630 631 
632 633 634 635 636 
637 638 639 640 641 
642 643 644 645 646 
647 648 649 650 651 
652 653 654 655 656 
657 658 659 660 661 
662 663 664 665 666 
667 668 669 670 671 
672 673 674 675 676 
677 678 679 680 681 
682 683 684 685 686 
687 688 689 690 691 
692 693 694 695 696 
697 698 699 700 701 
702 703 704 705 706 707 
708 709 710 711 
712 713 714 715 
</DataArray>
<DataArray type="Int32" Name="offsets" format="ascii">
4 8 12 16 20 24 28 32 36 40 44 48 52 56 60 64 68 72 76 80 84 88 92 96 100 104 108 112 116 120 124 128 132 136 140 144 148 152 156 160 164 168 172 176 180 184 188 192 196 200 204 208 212 216 220 224 228 232 236 240 244 248 252 256 260 264 268 272 276 280 284 288 292 296 300 304 308 312 316 320 325 330 335 340 345 350 355 360 365 370 375 380 385 390 395 400 405 410 414 419 424 429 434 439 444 449 454 459 464 469 474 479 484 489 494 499 504 509 513 518 523 528 533 538 543 548 553 558 563 568 573 578 583 588 593 598 603 609 613 617 622 627 632 637 642 647 652 657 662 667 672 677 682 687 692 697 702 708 712 716 
</DataArray>
<DataArray type="UInt8" Name="types" format="ascii">
7 7 7 7 7 7 7 7 7 7 7 7 7 7 7 7 7 7 7 7 7 7 7 7 7 7 7 7 7 7 7 7 7 7 7 7 7 7 7 7 7 7 7 7 7 7 7 7 7 7 7 7 7 7 7 7 7 7 7 7 7 7 7 7 7 7 7 7 7 7 7 7 7 7 7 7 7 7 7 7 7 7 7 7 7 7 7 7 7 7 7 7 7 7 7 7 7 7 7 7 7 7 7 7 7 7 7 7 7 7 7 7 7 7 7 7 7 7 7 7 7 7 7 7 7 7 7 7 7 7 7 7 7 7 7 7 7 7 7 7 7 7 7 7 7 7 7 7 7 7 7 7 7 7 7 7 7 7 7 7 
</DataArray>
</Cells>
<CellData Scalars="cell variable 4" Vectors="cell vector">
<DataArray type="Float64" NumberOfComponents="3" Name="cell vector" format="ascii">
0.9 2 0
0.9 2 0
0.9 2 0
0.9 2 0
0.9 2 0
0.9 2 0
0.9 2 0
0.9 2 0
0.9 2 0
0.9 2 0
0.9 2 0
0.9 2 0
0.9 2 0
0.9 2 0
0.9 2 0
0.9 2 0
0.9 2 0
0.9 2 0
0.9 2 0
0.9 2 0
0.9 0 0
0.9 0 0
0.9 0 0
0.9 0 0
0.9 0 0
0.9 0 0
0.9 0 0
0.9 0 0
0.9 0 0
0.9 0 0
0.9 0 0
0.9 0 0
0.9 0 0
0.9 0 0
0.9 0 0
0.9 0 0
0.9 0 0
0.9 0 0
0.9 0 0
0.9 0 0
0.9 0 0
0.9 0 0
0.9 0 0
0.9 0 0
0.9 0 0
0.9 0 0
0.9 0 0
0.9 0 0
0.9 0 0
0.9 0 0
0.9 0 0
0.9 0 0
0.9 0 0
0.9 0 0
0.9 0 0
0.9 0 0
0.9 0 0
0.9 0 0
0.9 0 0
0.9 0 0
0.9 0 0
0.9 0 0
0.9 0 0
0.9 0 0
0.9 0 0
0.9 0 0
0.9 0 0
0.9 0 0
0.9 0 0
0.9 0 0
0.9 0 0
0.9 0 0
0.9 0 0
0.9 0 0
0.9 0 0
0.9 0 0
0.9 0 0
0.9 0 0
0.9 0 0
0.9 0 0
0.460114 0 0
0.462273 0 0
0.46281 0 0
0.462895 0 0
0.441711 0 0
0.41884 0 0
0.418841 0 0
0.41884 0 0
0.41884 0 0
0.41884 0 0
0.41884 0 0
0.41884 0 0
0.41884 0 0
0.41884 0 0
0.41884 0 0
0.418839 0 0
0.418833 0 0
0.418775 0 0
0.418341 0 0
0.461012 0 0
0.462851 1 2.69927
0.464256 1 2.69927
0.464578 1 2.69927
0.464619 1 2.69927
0.443438 1 2.69927
0.420927 1 2.69927
0.420927 1 2.69927
0.420927 1 2.69927
0.420927 1 2.69927
0.420927 1 2.69927
0.420927 1 2.69927
0.420927 1 2.69927
0.420927 1 2.69927
0.420927 1 2.69927
0.420927 1 2.69927
0.420927 1 2.69927
0.420925 1 2.69927
0.420901 1 2.69927
0.420671 1 2.69927
0.46422 1 2.69927
0.456562 1 2.69927
0.479073 1 2.69927
0.479073 1 2.69927
0.479073 1 2.69927
0.479073 1 2.69927
0.479073 1 2.69927
0.479073 1 2.69927
0.479073 1 2.69927
0.479073 1 2.69927
0.479073 1 2.69927
0.479073 1 2.69927
0.479073 1 2.69927
0.435381 1 2.69927
0.479075 1 2.69927
0.435422 1 2.69927
0.479099 1 2.69927
0.435744 1 2.69927
0.479329 1 2.69927
0.437149 1 2.69927
0.43578 1 2.69927
0.458289 0 0
0.48116 0 0
0.481159 0 0
0.48116 0 0
0.48116 0 0
0.48116 0 0
0.48116 0 0
0.48116 0 0
0.48116 0 0
0.48116 0 0
0.48116 0 0
0.481161 0 0
0.481167 0 0
0.437105 0 0
0.481225 0 0
0.43719 0 0
0.437727 0 0
0.481659 0 0
0.439886 0 0
0.438988 0 0
</DataArray>
<DataArray type="Float64" Name="cell vector length" format="ascii">
0.18156 0.256725 0.273319 0.254964 0.234492 0.222277 0.21659 0.214245 0.213342 0.213042 0.213051 0.213366 0.214267 0.216535 0.221865 0.232855 0.249957 0.261793 0.240015 0.170399 1.11974 1.80324 1.96034 1.83616 1.68401 1.59137 1.54802 1.53006 1.5231 1.52077 1.52085 1.52331 1.53019 1.54717 1.58629 1.66467 1.77767 1.82689 1.61655 1.01434 1.61045 2.94649 3.42103 3.33957 3.11837 2.95959 2.87918 2.84408 2.82986 2.82492 2.8251 2.8302 2.84354 2.87373 2.93565 3.03626 3.10861 2.93777 2.3428 1.32696 1.09544 1.76312 1.96839 1.97105 1.91277 1.85942 1.82773 1.81195 1.80478 1.80202 1.80201 1.80446 1.81001 1.81987 1.83265 1.8327 1.76809 1.56969 1.24713 0.828397 0.751895 1.17188 1.27282 1.24908 1.20546 1.17388 1.15621 1.14724 1.14294 1.14118 1.14108 1.14242 1.14545 1.1506 1.15652 1.15266 1.10047 0.932676 0.66175 0.503781 0.594311 0.884744 0.904544 0.846463 0.801231 0.776698 0.764524 0.758503 0.755503 0.754039 0.753419 0.753338 0.753733 0.754876 0.757565 0.76246 0.763875 0.730066 0.570245 0.444325 0.801876 0.76943 0.753706 0.746012 0.74216 0.74021 0.739244 0.738802 0.738683 0.738915 0.740007 0.743404 0.86388 0.750265 0.945295 0.752588 0.925289 0.727398 0.660511 0.551482 1.5627 1.49454 1.46053 1.4438 1.43555 1.43163 1.43018 1.43042 1.43224 1.43614 1.44277 1.44918 1.43217 1.68477 1.31932 1.81855 1.68405 1.03322 1.05996 0.727759 
</DataArray>
<DataArray type="Float64" Name="cell variable 4" format="ascii">
0.0611675 0.0677772 0.0687038 0.0657187 0.0630814 0.0616704 0.0610594 0.0608199 0.0607308 0.0607017 0.0607025 0.060733 0.0608233 0.0610619 0.061661 0.0630202 0.0654847 0.0680617 0.0667141 0.0604087 0.293874 0.330955 0.331715 0.31155 0.294522 0.28595 0.282486 0.281191 0.28072 0.280569 0.280574 0.280739 0.281225 0.282522 0.28591 0.29403 0.309331 0.32524 0.320346 0.288287 0.495499 0.622351 0.652214 0.627305 0.595925 0.577745 0.569929 0.566906 0.565776 0.565414 0.565437 0.565847 0.567016 0.569972 0.577184 0.592647 0.615206 0.621868 0.578831 0.475132 0.536415 0.546163 0.550469 0.561049 0.561655 0.55996 0.559191 0.558999 0.55898 0.559006 0.559018 0.55903 0.559144 0.559577 0.560898 0.563694 0.565471 0.561869 0.561651 0.536734 0.405554 0.404009 0.412875 0.424243 0.428038 0.429591 0.430594 0.43121 0.431548 0.431716 0.431753 0.431688 0.431582 0.431572 0.432187 0.434072 0.438226 0.44852 0.474776 0.453429 0.427326 0.418973 0.425298 0.433408 0.439064 0.442861 0.445028 0.446155 0.446725 0.447011 0.447158 0.447221 0.447221 0.447164 0.447071 0.447408 0.449294 0.451961 0.464137 0.461906 0.566165 0.569993 0.572478 0.573768 0.574408 0.574721 0.574877 0.574961 0.575008 0.575045 0.57513 0.575682 0.564224 0.578096 0.575215 0.580291 0.607107 0.563439 0.591953 0.58077 0.572046 0.570068 0.569885 0.569993 0.570094 0.570163 0.570216 0.570222 0.57022 0.570404 0.571314 0.574498 0.581706 0.579987 0.588158 0.600176 0.624683 0.556001 0.565244 0.554138 
</DataArray>
</CellData>
</Piece>
</UnstructuredGrid>
</VTKFile>
