<VTKFile type="UnstructuredGrid" version="0.1">
<UnstructuredGrid>
<Piece  NumberOfPoints="     480" NumberOfCells="     120">
<Points>
<DataArray type="Float64" NumberOfComponents="3" format="ascii">
-0.379882 -4.03791 0.0
-0.36356 -4.03195 0.0
-2.13563 -3.71987 0.0
-2.16414 -4.00738 0.0
-0.340222 -4.00441 0.0
-2.05749 -3.39988 0.0
-2.13074 -3.69834 0.0
-0.358672 -4.01043 0.0
-0.311635 -3.97725 0.0
-1.92937 -3.0896 0.0
-2.04918 -3.3785 0.0
-0.331919 -3.98303 0.0
-0.278242 -3.95182 0.0
-1.75375 -2.80138 0.0
-1.91779 -3.06949 0.0
-0.300057 -3.95715 0.0
-0.240631 -3.92893 0.0
-1.53496 -2.54364 0.0
-1.7392 -2.7832 0.0
-0.263692 -3.93364 0.0
-0.199429 -3.90915 0.0
-1.27843 -2.32305 0.0
-1.51781 -2.52783 0.0
-0.223475 -3.91312 0.0
-0.155277 -3.8929 0.0
-0.990473 -2.14513 0.0
-1.25907 -2.30997 0.0
-0.180074 -3.89606 0.0
-0.108826 -3.88053 0.0
-0.67818 -2.01428 0.0
-0.969362 -2.13506 0.0
-0.134166 -3.88283 0.0
-0.0607456 -3.8723 0.0
-0.34923 -1.93375 0.0
-0.65579 -2.00744 0.0
-0.086436 -3.87369 0.0
-0.0117146 -3.86838 0.0
-0.0117146 -1.90552 0.0
-0.326062 -1.93029 0.0
-0.0375775 -3.86885 0.0
0.0375775 -3.86885 0.0
0.326062 -1.93029 0.0
0.0117146 -1.90552 0.0
0.0117146 -3.86838 0.0
0.086436 -3.87369 0.0
0.65579 -2.00744 0.0
0.34923 -1.93375 0.0
0.0607456 -3.8723 0.0
0.134166 -3.88283 0.0
0.969362 -2.13506 0.0
0.67818 -2.01428 0.0
0.108826 -3.88053 0.0
0.180074 -3.89606 0.0
1.25907 -2.30997 0.0
0.990473 -2.14513 0.0
0.155277 -3.8929 0.0
0.223475 -3.91312 0.0
1.51781 -2.52783 0.0
1.27843 -2.32305 0.0
0.199429 -3.90915 0.0
0.263692 -3.93364 0.0
1.7392 -2.7832 0.0
1.53496 -2.54364 0.0
0.240631 -3.92893 0.0
0.300057 -3.95715 0.0
1.91779 -3.06949 0.0
1.75375 -2.80138 0.0
0.278242 -3.95182 0.0
0.331919 -3.98303 0.0
2.04918 -3.3785 0.0
1.92937 -3.0896 0.0
0.311635 -3.97725 0.0
0.358672 -4.01043 0.0
2.13074 -3.69834 0.0
2.05749 -3.39988 0.0
0.340222 -4.00441 0.0
0.379882 -4.03791 0.0
2.16414 -4.00738 0.0
2.13563 -3.71987 0.0
0.36356 -4.03195 0.0
-2.35542 -3.99105 0.0
-2.32691 -3.70353 0.0
-4.31064 -3.39143 0.0
-4.36444 -3.98561 0.0
-2.31793 -3.65199 0.0
-2.24467 -3.35353 0.0
-4.15458 -2.73325 0.0
-4.30165 -3.33989 0.0
-2.22776 -3.3024 0.0
-2.10795 -3.01349 0.0
-3.89673 -2.10097 0.0
-4.13768 -2.68211 0.0
-2.08329 -2.96525 0.0
-1.91925 -2.69714 0.0
-3.54295 -1.51569 0.0
-3.87207 -2.05273 0.0
-1.88735 -2.65325 0.0
-1.68311 -2.41369 0.0
-3.10192 -0.99277 0.0
-3.51105 -1.47181 0.0
-1.64474 -2.37532 0.0
-1.40536 -2.17054 0.0
-2.5845 -0.545246 0.0
-3.06354 -0.954392 0.0
-1.36145 -2.13863 0.0
-1.09285 -1.97379 0.0
-2.00343 -0.184165 0.0
-2.54059 -0.513337 0.0
-1.04448 -1.94914 0.0
-0.753301 -1.82837 0.0
-1.37303 0.0815713 0.0
-1.95507 -0.159517 0.0
-0.701672 -1.81159 0.0
-0.395112 -1.7379 0.0
-0.708816 0.245419 0.0
-1.3214 0.0983497 0.0
-0.341492 -1.7294 0.0
-0.0271447 -1.70463 0.0
-0.0271447 0.303343 0.0
-0.655196 0.253913 0.0
0.0271447 -1.70463 0.0
0.341492 -1.7294 0.0
0.655196 0.253913 0.0
0.0271447 0.303343 0.0
0.395112 -1.7379 0.0
0.701672 -1.81159 0.0
1.3214 0.0983497 0.0
0.708816 0.245419 0.0
0.753301 -1.82837 0.0
1.04448 -1.94914 0.0
1.95507 -0.159517 0.0
1.37303 0.0815713 0.0
1.09285 -1.97379 0.0
1.36145 -2.13863 0.0
2.54059 -0.513337 0.0
2.00343 -0.184165 0.0
1.40536 -2.17054 0.0
1.64474 -2.37532 0.0
3.06354 -0.954392 0.0
2.5845 -0.545246 0.0
1.68311 -2.41369 0.0
1.88735 -2.65325 0.0
3.51105 -1.47181 0.0
3.10192 -0.99277 0.0
1.91925 -2.69714 0.0
2.08329 -2.96525 0.0
3.87207 -2.05273 0.0
3.54295 -1.51569 0.0
2.10795 -3.01349 0.0
2.22776 -3.3024 0.0
4.13768 -2.68211 0.0
3.89673 -2.10097 0.0
2.24467 -3.35353 0.0
2.31793 -3.65199 0.0
4.30165 -3.33989 0.0
4.15458 -2.73325 0.0
2.32691 -3.70353 0.0
2.35542 -3.99105 0.0
4.36444 -3.98561 0.0
4.31064 -3.39143 0.0
-4.52739 -3.37427 0.0
-6.5136 -3.06131 0.0
-6.59211 -3.96615 0.0
-4.5812 -3.96844 0.0
-4.36607 -2.68259 0.0
-6.27868 -2.06163 0.0
-6.49935 -2.97627 0.0
-4.51314 -3.28923 0.0
-4.09776 -2.0177 0.0
-5.88955 -1.10482 0.0
-6.25131 -1.97788 0.0
-4.3387 -2.59884 0.0
-3.72849 -1.40193 0.0
-5.35537 -0.219919 0.0
-5.8494 -1.02608 0.0
-4.05761 -1.93896 0.0
-3.26738 -0.851357 0.0
-4.68932 0.570606 0.0
-5.30339 -0.148386 0.0
-3.67651 -1.33039 0.0
-2.7258 -0.379684 0.0
-3.90779 1.24721 0.0
-4.62679 0.633132 0.0
-3.20485 -0.788831 0.0
-2.11711 0.00146339 0.0
-3.03005 1.79323 0.0
-3.83625 1.29919 0.0
-2.65427 -0.327709 0.0
-1.45629 0.282697 0.0
-2.07769 2.19522 0.0
-2.95126 1.83338 0.0
-2.03832 0.0416083 0.0
-0.759602 0.457092 0.0
-1.07418 2.44328 0.0
-1.99359 2.22255 0.0
-1.37219 0.310022 0.0
-0.0442133 0.520354 0.0
-0.0442133 2.5313 0.0
-0.98684 2.45711 0.0
-0.672264 0.470925 0.0
0.672264 0.470925 0.0
0.98684 2.45711 0.0
0.0442133 2.5313 0.0
0.0442133 0.520354 0.0
1.37219 0.310022 0.0
1.99359 2.22255 0.0
1.07418 2.44328 0.0
0.759602 0.457092 0.0
2.03832 0.0416083 0.0
2.95126 1.83338 0.0
2.07769 2.19522 0.0
1.45629 0.282697 0.0
2.65427 -0.327709 0.0
3.83625 1.29919 0.0
3.03005 1.79323 0.0
2.11711 0.00146339 0.0
3.20485 -0.788831 0.0
4.62679 0.633132 0.0
3.90779 1.24721 0.0
2.7258 -0.379684 0.0
3.67651 -1.33039 0.0
5.30339 -0.148386 0.0
4.68932 0.570606 0.0
3.26738 -0.851357 0.0
4.05761 -1.93896 0.0
5.8494 -1.02608 0.0
5.35537 -0.219919 0.0
3.72849 -1.40193 0.0
4.3387 -2.59884 0.0
6.25131 -1.97788 0.0
5.88955 -1.10482 0.0
4.09776 -2.0177 0.0
4.51314 -3.28923 0.0
6.49935 -2.97627 0.0
6.27868 -2.06163 0.0
4.36607 -2.68259 0.0
4.52739 -3.37427 0.0
4.5812 -3.96844 0.0
6.59211 -3.96615 0.0
6.5136 -3.06131 0.0
-6.73344 -3.04398 0.0
-8.71966 -2.73042 0.0
-8.82286 -3.94752 0.0
-6.81195 -3.94882 0.0
-6.49317 -2.01022 0.0
-8.40575 -1.38901 0.0
-8.70006 -2.61131 0.0
-6.71384 -2.92487 0.0
-6.09337 -1.02042 0.0
-7.88517 -0.107481 0.0
-8.36771 -1.27226 0.0
-6.45513 -1.89347 0.0
-5.54348 -0.104646 0.0
-7.17039 1.07737 0.0
-7.82931 0.00212774 0.0
-6.03751 -0.910807 0.0
-4.85708 0.71389 0.0
-6.27905 2.13586 0.0
-7.09807 1.17691 0.0
-5.47116 -0.00510202 0.0
-4.05108 1.41498 0.0
-5.23309 3.04188 0.0
-6.19204 2.22287 0.0
-4.77007 0.800897 0.0
-3.14532 1.98135 0.0
-4.05828 3.77313 0.0
-5.13355 3.11421 0.0
-3.95153 1.4873 0.0
-2.16212 2.39905 0.0
-2.78354 4.3116 0.0
-3.94865 3.82899 0.0
-3.03569 2.03721 0.0
-1.12568 2.65781 0.0
-1.44027 4.64402 0.0
-2.66652 4.34962 0.0
-2.0451 2.43707 0.0
-0.0615232 2.75124 0.0
-0.0615232 4.76221 0.0
-1.31873 4.66327 0.0
-1.00415 2.67706 0.0
1.00415 2.67706 0.0
1.31873 4.66327 0.0
0.0615232 4.76221 0.0
0.0615232 2.75124 0.0
2.0451 2.43707 0.0
2.66652 4.34962 0.0
1.44027 4.64402 0.0
1.12568 2.65781 0.0
3.03569 2.03721 0.0
3.94865 3.82899 0.0
2.78354 4.3116 0.0
2.16212 2.39905 0.0
3.95153 1.4873 0.0
5.13355 3.11421 0.0
4.05828 3.77313 0.0
3.14532 1.98135 0.0
4.77007 0.800897 0.0
6.19204 2.22287 0.0
5.23309 3.04188 0.0
4.05108 1.41498 0.0
5.47116 -0.00510202 0.0
7.09807 1.17691 0.0
6.27905 2.13586 0.0
4.85708 0.71389 0.0
6.03751 -0.910807 0.0
7.82931 0.00212774 0.0
7.17039 1.07737 0.0
5.54348 -0.104646 0.0
6.45513 -1.89347 0.0
8.36771 -1.27226 0.0
7.88517 -0.107481 0.0
6.09337 -1.02042 0.0
6.71384 -2.92487 0.0
8.70006 -2.61131 0.0
8.40575 -1.38901 0.0
6.49317 -2.01022 0.0
6.73344 -3.04398 0.0
6.81195 -3.94882 0.0
8.82286 -3.94752 0.0
8.71966 -2.73042 0.0
-8.94034 -2.71304 0.0
-10.924 -2.39957 0.0
-11.0518 -3.92933 0.0
-9.04354 -3.93014 0.0
-8.62104 -1.33738 0.0
-10.5311 -0.716887 0.0
-10.899 -2.24621 0.0
-8.91535 -2.55968 0.0
-8.08973 -0.0227599 0.0
-9.87916 0.888988 0.0
-10.4823 -0.567042 0.0
-8.57227 -1.18754 0.0
-7.35918 1.19306 0.0
-8.98394 2.37352 0.0
-9.80752 1.02956 0.0
-8.01809 0.117815 0.0
-6.44741 2.27966 0.0
-7.86751 3.69975 0.0
-8.8912 2.50117 0.0
-7.26643 1.32071 0.0
-5.37689 3.21025 0.0
-6.55735 4.83501 0.0
-7.75594 3.81133 0.0
-6.33584 2.39123 0.0
-4.17397 3.96192 0.0
-5.08573 5.75135 0.0
-6.4297 4.92776 0.0
-5.24924 3.303 0.0
-2.86828 4.51616 0.0
-3.48888 6.42618 0.0
-4.94514 5.82298 0.0
-4.03338 4.03355 0.0
-1.49195 4.85931 0.0
-1.80613 6.84291 0.0
-3.33881 6.47494 0.0
-2.71821 4.56492 0.0
-0.0788952 4.98294 0.0
-0.0788952 6.99126 0.0
-1.65028 6.86759 0.0
-1.33611 4.884 0.0
1.33611 4.884 0.0
1.65028 6.86759 0.0
0.0788952 6.99126 0.0
0.0788952 4.98294 0.0
2.71821 4.56492 0.0
3.33881 6.47494 0.0
1.80613 6.84291 0.0
1.49195 4.85931 0.0
4.03338 4.03355 0.0
4.94514 5.82298 0.0
3.48888 6.42618 0.0
2.86828 4.51616 0.0
5.24924 3.303 0.0
6.4297 4.92776 0.0
5.08573 5.75135 0.0
4.17397 3.96192 0.0
6.33584 2.39123 0.0
7.75594 3.81133 0.0
6.55735 4.83501 0.0
5.37689 3.21025 0.0
7.26643 1.32071 0.0
8.8912 2.50117 0.0
7.86751 3.69975 0.0
6.44741 2.27966 0.0
8.01809 0.117815 0.0
9.80752 1.02956 0.0
8.98394 2.37352 0.0
7.35918 1.19306 0.0
8.57227 -1.18754 0.0
10.4823 -0.567042 0.0
9.87916 0.888988 0.0
8.08973 -0.0227599 0.0
8.91535 -2.55968 0.0
10.899 -2.24621 0.0
10.5311 -0.716887 0.0
8.62104 -1.33738 0.0
8.94034 -2.71304 0.0
9.04354 -3.93014 0.0
11.0518 -3.92933 0.0
10.924 -2.39957 0.0
-13.0863 -2.07504 0.0
-13.2384 -3.91202 0.0
-11.2705 -3.91213 0.0
-11.1426 -2.38237 0.0
-12.616 -0.0576533 0.0
-13.056 -1.88771 0.0
-11.1122 -2.19504 0.0
-10.7444 -0.665722 0.0
-11.8353 1.86635 0.0
-12.5566 0.124961 0.0
-10.685 -0.483107 0.0
-10.0818 0.972923 0.0
-10.7631 3.64487 0.0
-11.748 2.0376 0.0
-9.99455 1.14417 0.0
-9.17097 2.48812 0.0
-9.42586 5.23377 0.0
-10.6501 3.80037 0.0
-9.05799 2.64363 0.0
-8.0343 3.84221 0.0
-7.85655 6.59392 0.0
-9.28995 5.36968 0.0
-7.89839 3.97812 0.0
-6.69981 5.00181 0.0
-6.09378 7.69184 0.0
-7.70105 6.7069 0.0
-6.54431 5.11479 0.0
-5.20034 5.93837 0.0
-4.18096 8.50048 0.0
-5.92252 7.7791 0.0
-5.02908 6.02563 0.0
-3.57282 6.62883 0.0
-2.16519 8.99993 0.0
-3.99815 8.55987 0.0
-3.39002 6.68823 0.0
-1.85733 7.05619 0.0
-0.0961049 9.1779 0.0
-1.97534 9.03 0.0
-1.66749 7.08626 0.0
-0.0961049 7.20993 0.0
1.97534 9.03 0.0
0.0961049 9.1779 0.0
0.0961049 7.20993 0.0
1.66749 7.08626 0.0
3.99815 8.55987 0.0
2.16519 8.99993 0.0
1.85733 7.05619 0.0
3.39002 6.68823 0.0
5.92252 7.7791 0.0
4.18096 8.50048 0.0
3.57282 6.62883 0.0
5.02908 6.02563 0.0
7.70105 6.7069 0.0
6.09378 7.69184 0.0
5.20034 5.93837 0.0
6.54431 5.11479 0.0
9.28995 5.36968 0.0
7.85655 6.59392 0.0
6.69981 5.00181 0.0
7.89839 3.97812 0.0
10.6501 3.80037 0.0
9.42586 5.23377 0.0
8.0343 3.84221 0.0
9.05799 2.64363 0.0
11.748 2.0376 0.0
10.7631 3.64487 0.0
9.17097 2.48812 0.0
9.99455 1.14417 0.0
12.5566 0.124961 0.0
11.8353 1.86635 0.0
10.0818 0.972923 0.0
10.685 -0.483107 0.0
13.056 -1.88771 0.0
12.616 -0.0576533 0.0
10.7444 -0.665722 0.0
11.1122 -2.19504 0.0
11.1426 -2.38237 0.0
11.2705 -3.91213 0.0
13.2384 -3.91202 0.0
13.0863 -2.07504 0.0
</DataArray>
</Points>
<Cells>
<DataArray type="Int32" Name="connectivity" format="ascii">
0 1 2 3 
4 5 6 7 
8 9 10 11 
12 13 14 15 
16 17 18 19 
20 21 22 23 
24 25 26 27 
28 29 30 31 
32 33 34 35 
36 37 38 39 
40 41 42 43 
44 45 46 47 
48 49 50 51 
52 53 54 55 
56 57 58 59 
60 61 62 63 
64 65 66 67 
68 69 70 71 
72 73 74 75 
76 77 78 79 
80 81 82 83 
84 85 86 87 
88 89 90 91 
92 93 94 95 
96 97 98 99 
100 101 102 103 
104 105 106 107 
108 109 110 111 
112 113 114 115 
116 117 118 119 
120 121 122 123 
124 125 126 127 
128 129 130 131 
132 133 134 135 
136 137 138 139 
140 141 142 143 
144 145 146 147 
148 149 150 151 
152 153 154 155 
156 157 158 159 
160 161 162 163 
164 165 166 167 
168 169 170 171 
172 173 174 175 
176 177 178 179 
180 181 182 183 
184 185 186 187 
188 189 190 191 
192 193 194 195 
196 197 198 199 
200 201 202 203 
204 205 206 207 
208 209 210 211 
212 213 214 215 
216 217 218 219 
220 221 222 223 
224 225 226 227 
228 229 230 231 
232 233 234 235 
236 237 238 239 
240 241 242 243 
244 245 246 247 
248 249 250 251 
252 253 254 255 
256 257 258 259 
260 261 262 263 
264 265 266 267 
268 269 270 271 
272 273 274 275 
276 277 278 279 
280 281 282 283 
284 285 286 287 
288 289 290 291 
292 293 294 295 
296 297 298 299 
300 301 302 303 
304 305 306 307 
308 309 310 311 
312 313 314 315 
316 317 318 319 
320 321 322 323 
324 325 326 327 
328 329 330 331 
332 333 334 335 
336 337 338 339 
340 341 342 343 
344 345 346 347 
348 349 350 351 
352 353 354 355 
356 357 358 359 
360 361 362 363 
364 365 366 367 
368 369 370 371 
372 373 374 375 
376 377 378 379 
380 381 382 383 
384 385 386 387 
388 389 390 391 
392 393 394 395 
396 397 398 399 
400 401 402 403 
404 405 406 407 
408 409 410 411 
412 413 414 415 
416 417 418 419 
420 421 422 423 
424 425 426 427 
428 429 430 431 
432 433 434 435 
436 437 438 439 
440 441 442 443 
444 445 446 447 
448 449 450 451 
452 453 454 455 
456 457 458 459 
460 461 462 463 
464 465 466 467 
468 469 470 471 
472 473 474 475 
476 477 478 479 
</DataArray>
<DataArray type="Int32" Name="offsets" format="ascii">
4 8 12 16 20 24 28 32 36 40 44 48 52 56 60 64 68 72 76 80 84 88 92 96 100 104 108 112 116 120 124 128 132 136 140 144 148 152 156 160 164 168 172 176 180 184 188 192 196 200 204 208 212 216 220 224 228 232 236 240 244 248 252 256 260 264 268 272 276 280 284 288 292 296 300 304 308 312 316 320 324 328 332 336 340 344 348 352 356 360 364 368 372 376 380 384 388 392 396 400 404 408 412 416 420 424 428 432 436 440 444 448 452 456 460 464 468 472 476 480 
</DataArray>
<DataArray type="UInt8" Name="types" format="ascii">
7 7 7 7 7 7 7 7 7 7 7 7 7 7 7 7 7 7 7 7 7 7 7 7 7 7 7 7 7 7 7 7 7 7 7 7 7 7 7 7 7 7 7 7 7 7 7 7 7 7 7 7 7 7 7 7 7 7 7 7 7 7 7 7 7 7 7 7 7 7 7 7 7 7 7 7 7 7 7 7 7 7 7 7 7 7 7 7 7 7 7 7 7 7 7 7 7 7 7 7 7 7 7 7 7 7 7 7 7 7 7 7 7 7 7 7 7 7 7 7 
</DataArray>
</Cells>
<CellData Scalars="cell variable 4" Vectors="cell vector">
<DataArray type="Float64" NumberOfComponents="3" Name="cell vector" format="ascii">
0.9 2 0
0.9 0 0
0.9 0 0
0.9 0 0
0.9 0 0
0.9 0 0
0.9 0 0
0.9 0 0
0.9 0 0
0.9 0 0
0.9 0 0
0.9 0 0
0.9 0 0
0.9 0 0
0.9 0 0
0.9 0 0
0.9 0 0
0.9 0 0
0.9 0 0
0.9 2 0
0.9 2 0
0.9 0 0
0.9 0 0
0.9 0 0
0.9 0 0
0.9 0 0
0.9 0 0
0.9 0 0
0.9 0 0
0.9 0 0
0.9 0 0
0.9 0 0
0.9 0 0
0.9 0 0
0.9 0 0
0.9 0 0
0.9 0 0
0.9 0 0
0.9 0 0
0.9 2 0
0.9 2 0
0.9 0 0
0.9 0 0
0.9 0 0
0.9 0 0
0.9 0 0
0.9 0 0
0.9 0 0
0.9 0 0
0.9 0 0
0.9 0 0
0.9 0 0
0.9 0 0
0.9 0 0
0.9 0 0
0.9 0 0
0.9 0 0
0.9 0 0
0.9 0 0
0.9 2 0
0.9 2 0
0.9 0 0
0.9 0 0
0.9 0 0
0.9 0 0
0.9 0 0
0.9 0 0
0.9 0 0
0.9 0 0
0.9 0 0
0.9 0 0
0.9 0 0
0.9 0 0
0.9 0 0
0.9 0 0
0.9 0 0
0.9 0 0
0.9 0 0
0.9 0 0
0.9 2 0
0.9 2 0
0.9 0 0
0.9 0 0
0.9 0 0
0.9 0 0
0.9 0 0
0.9 0 0
0.9 0 0
0.9 0 0
0.9 0 0
0.9 0 0
0.9 0 0
0.9 0 0
0.9 0 0
0.9 0 0
0.9 0 0
0.9 0 0
0.9 0 0
0.9 0 0
0.9 2 0
0.9 0 0
0.9 0 0
0.9 0 0
0.9 0 0
0.9 0 0
0.9 0 0
0.9 0 0
0.9 1 1.47745
0.9 1 1.47745
0.9 1 1.47745
0.9 1 1.47745
0.9 1 1.47745
0.9 1 1.47745
0.9 0 0
0.9 0 0
0.9 0 0
0.9 0 0
0.9 0 0
0.9 0 0
0.9 0 0
</DataArray>
<DataArray type="Float64" Name="cell vector length" format="ascii">
1.09803e-06 8.42643e-06 3.21496e-05 0.000106731 0.000309854 0.000772126 0.00160727 0.00269449 0.00354365 0.00395604 0.00395604 0.00354365 0.00269449 0.00160727 0.000772126 0.000309854 0.000106731 3.21496e-05 8.42643e-06 1.09803e-06 2.76783e-06 2.15032e-05 8.43163e-05 0.000290222 0.000882267 0.00232817 0.00517664 0.00920232 0.0122767 0.0137027 0.0137027 0.0122767 0.00920232 0.00517664 0.00232817 0.000882267 0.000290222 8.43163e-05 2.15032e-05 2.76783e-06 7.39073e-06 5.80703e-05 0.000234924 0.000844221 0.00271811 0.00773472 0.0188644 0.0366046 0.0498309 0.0556331 0.0556331 0.0498309 0.0366046 0.0188644 0.00773472 0.00271811 0.000844221 0.000234924 5.80703e-05 7.39073e-06 1.71014e-05 0.000134324 0.000563419 0.00213534 0.00740914 0.0233965 0.0652311 0.1433 0.198947 0.221533 0.221533 0.198947 0.1433 0.0652311 0.0233965 0.00740914 0.00213534 0.000563419 0.000134324 1.71014e-05 3.48104e-05 0.000252193 0.00109839 0.00442987 0.0168529 0.0608008 0.199811 0.474269 0.652045 0.716762 0.716762 0.652045 0.474269 0.199811 0.0608008 0.0168529 0.00442987 0.00109839 0.000252193 3.48104e-05 8.56665e-05 0.000363633 0.0016188 0.006896 0.0285216 0.114994 0.387959 0.658013 0.843465 0.902911 0.902911 0.843465 0.658013 0.387959 0.114994 0.0285216 0.006896 0.0016188 0.000363633 8.56665e-05 
</DataArray>
<DataArray type="Float64" Name="cell variable 4" format="ascii">
0.0376269 0.0376283 0.0376334 0.0376515 0.0377069 0.0378462 0.0381174 0.0384818 0.0387492 0.0388704 0.0388704 0.0387492 0.0384818 0.0381174 0.0378462 0.0377069 0.0376515 0.0376334 0.0376283 0.0376269 0.037627 0.0376308 0.0376446 0.0376961 0.0378624 0.0383089 0.0392434 0.0405794 0.0414995 0.041889 0.041889 0.0414995 0.0405794 0.0392434 0.0383089 0.0378624 0.0376961 0.0376446 0.0376308 0.037627 0.0376276 0.037639 0.037683 0.0378548 0.0384415 0.0401263 0.0439278 0.0497578 0.0533655 0.0547465 0.0547465 0.0533655 0.0497578 0.0439278 0.0401263 0.0384415 0.0378548 0.037683 0.037639 0.0376276 0.037629 0.0376584 0.037777 0.0382656 0.040048 0.0455581 0.0589278 0.0816673 0.0932308 0.0969573 0.0969573 0.0932308 0.0816673 0.0589278 0.0455581 0.040048 0.0382656 0.037777 0.0376584 0.037629 0.0376318 0.0376916 0.0379463 0.0390615 0.0434418 0.0580758 0.0978728 0.183781 0.21286 0.220002 0.220002 0.21286 0.183781 0.0978728 0.0580758 0.0434418 0.0390615 0.0379463 0.0376916 0.0376318 0.0376517 0.0377363 0.0381781 0.0402226 0.04892 0.0823181 0.199753 0.37069 0.41393 0.415839 0.415839 0.41393 0.37069 0.199753 0.0823181 0.04892 0.0402226 0.0381781 0.0377363 0.0376517 
</DataArray>
</CellData>
</Piece>
</UnstructuredGrid>
</VTKFile>
