<VTKFile type="UnstructuredGrid" version="0.1">
<UnstructuredGrid>
<Piece  NumberOfPoints="    2854" NumberOfCells="     644">
<Points>
<DataArray type="Float64" NumberOfComponents="3" format="ascii">
-0.24221 -10.1621 0.0
-0.242128 -10.1576 0.0
-1.22718 -9.98628 0.0
-1.23166 -10.0691 0.0
-0.241717 -10.1452 0.0
-1.21973 -9.87478 0.0
-1.22683 -9.97931 0.0
-0.241777 -10.1507 0.0
-0.240946 -10.1303 0.0
-1.20863 -9.7471 0.0
-1.21903 -9.86648 0.0
-0.241017 -10.1369 0.0
-0.239744 -10.1134 0.0
-1.1933 -9.60996 0.0
-1.20759 -9.73796 0.0
-0.239906 -10.1211 0.0
-0.237985 -10.0948 0.0
-1.1734 -9.46837 0.0
-1.19191 -9.60038 0.0
-0.238358 -10.1038 0.0
-0.235527 -10.0748 0.0
-1.14886 -9.32575 0.0
-1.17167 -9.45864 0.0
-0.236255 -10.0851 0.0
-0.232234 -10.0537 0.0
-1.11973 -9.18433 0.0
-1.1468 -9.31606 0.0
-0.233466 -10.0651 0.0
-0.227988 -10.0317 0.0
-1.08616 -9.04561 0.0
-1.11736 -9.1748 0.0
-0.229858 -10.0442 0.0
-0.222696 -10.0091 0.0
-1.0483 -8.91065 0.0
-1.08349 -9.03632 0.0
-0.225314 -10.0224 0.0
-0.216294 -9.98627 0.0
-1.00631 -8.78026 0.0
-1.04535 -8.90166 0.0
-0.219738 -10.0001 0.0
-0.208749 -9.96339 0.0
-0.960354 -8.65508 0.0
-1.00309 -8.7716 0.0
-0.213065 -9.97762 0.0
-0.200056 -9.94077 0.0
-0.910588 -8.53571 0.0
-0.956866 -8.64681 0.0
-0.205262 -9.95511 0.0
-0.19023 -9.91868 0.0
-0.857191 -8.42266 0.0
-0.906853 -8.52785 0.0
-0.196321 -9.93291 0.0
-0.179305 -9.89737 0.0
-0.800346 -8.3164 0.0
-0.853219 -8.41524 0.0
-0.186258 -9.91127 0.0
-0.167327 -9.87705 0.0
-0.740243 -8.21738 0.0
-0.79615 -8.30947 0.0
-0.175109 -9.89043 0.0
-0.154346 -9.85792 0.0
-0.677072 -8.126 0.0
-0.735833 -8.21095 0.0
-0.162917 -9.87062 0.0
-0.140418 -9.84016 0.0
-0.611022 -8.04263 0.0
-0.672461 -8.1201 0.0
-0.149735 -9.85202 0.0
-0.125599 -9.82393 0.0
-0.542276 -7.96762 0.0
-0.606223 -8.03729 0.0
-0.135618 -9.83482 0.0
-0.109948 -9.80937 0.0
-0.471009 -7.90133 0.0
-0.537299 -7.96287 0.0
-0.120623 -9.81918 0.0
-0.0935237 -9.79664 0.0
-0.397395 -7.84411 0.0
-0.465867 -7.89719 0.0
-0.104806 -9.80523 0.0
-0.0763949 -9.78586 0.0
-0.321621 -7.79634 0.0
-0.3921 -7.84059 0.0
-0.0882285 -9.79312 0.0
-0.0586437 -9.77719 0.0
-0.243914 -7.75843 0.0
-0.316186 -7.79348 0.0
-0.0709606 -9.783 0.0
-0.0403758 -9.77076 0.0
-0.164584 -7.73081 0.0
-0.238359 -7.75625 0.0
-0.0530886 -9.77501 0.0
-0.0217279 -9.76669 0.0
-0.0840528 -7.71388 0.0
-0.158933 -7.72933 0.0
-0.034725 -9.76929 0.0
-0.0028681 -9.76507 0.0
-0.0028681 -7.70795 0.0
-0.0783397 -7.71314 0.0
-0.0160147 -9.76595 0.0
0.0160135 -9.76595 0.0
0.0783384 -7.71314 0.0
0.00286685 -7.70795 0.0
0.00286685 -9.76507 0.0
0.0347238 -9.76929 0.0
0.158932 -7.72933 0.0
0.0840516 -7.71388 0.0
0.0217266 -9.76669 0.0
0.0530874 -9.77501 0.0
0.238358 -7.75625 0.0
0.164583 -7.73081 0.0
0.0403746 -9.77076 0.0
0.0709594 -9.783 0.0
0.316185 -7.79348 0.0
0.243913 -7.75843 0.0
0.0586424 -9.77719 0.0
0.0882272 -9.79312 0.0
0.392098 -7.84059 0.0
0.321619 -7.79634 0.0
0.0763936 -9.78586 0.0
0.104804 -9.80523 0.0
0.465866 -7.89719 0.0
0.397394 -7.84411 0.0
0.0935224 -9.79664 0.0
0.120621 -9.81918 0.0
0.537298 -7.96287 0.0
0.471008 -7.90133 0.0
0.109946 -9.80937 0.0
0.135617 -9.83482 0.0
0.606221 -8.03729 0.0
0.542274 -7.96762 0.0
0.125598 -9.82393 0.0
0.149734 -9.85202 0.0
0.67246 -8.1201 0.0
0.611021 -8.04263 0.0
0.140416 -9.84016 0.0
0.162916 -9.87062 0.0
0.735832 -8.21095 0.0
0.677071 -8.126 0.0
0.154344 -9.85792 0.0
0.175108 -9.89043 0.0
0.796149 -8.30947 0.0
0.740242 -8.21738 0.0
0.167325 -9.87705 0.0
0.186257 -9.91127 0.0
0.853218 -8.41524 0.0
0.800345 -8.3164 0.0
0.179304 -9.89737 0.0
0.196319 -9.93291 0.0
0.906851 -8.52785 0.0
0.85719 -8.42266 0.0
0.190229 -9.91868 0.0
0.20526 -9.95511 0.0
0.956865 -8.64681 0.0
0.910587 -8.53571 0.0
0.200055 -9.94077 0.0
0.213064 -9.97762 0.0
1.00308 -8.7716 0.0
0.960353 -8.65508 0.0
0.208748 -9.96339 0.0
0.219736 -10.0001 0.0
1.04535 -8.90166 0.0
1.00631 -8.78026 0.0
0.216293 -9.98627 0.0
0.225312 -10.0224 0.0
1.08349 -9.03632 0.0
1.0483 -8.91065 0.0
0.222694 -10.0091 0.0
0.229857 -10.0442 0.0
1.11735 -9.1748 0.0
1.08616 -9.04561 0.0
0.227987 -10.0317 0.0
0.233465 -10.0651 0.0
1.14679 -9.31606 0.0
1.11973 -9.18433 0.0
0.232233 -10.0537 0.0
0.236254 -10.0851 0.0
1.17167 -9.45864 0.0
1.14886 -9.32575 0.0
0.235526 -10.0748 0.0
0.238356 -10.1038 0.0
1.19191 -9.60038 0.0
1.1734 -9.46837 0.0
0.237984 -10.0948 0.0
0.239905 -10.1211 0.0
1.20758 -9.73796 0.0
1.1933 -9.60996 0.0
0.239743 -10.1134 0.0
0.241016 -10.1369 0.0
1.21903 -9.86648 0.0
1.20862 -9.7471 0.0
0.240945 -10.1303 0.0
0.241775 -10.1507 0.0
1.22683 -9.97931 0.0
1.21973 -9.87478 0.0
0.241715 -10.1452 0.0
0.242209 -10.1621 0.0
1.23166 -10.0691 0.0
1.22718 -9.98628 0.0
0.242126 -10.1576 0.0
-1.34099 -10.0577 0.0
-1.33651 -9.9749 0.0
-2.467 -9.82432 0.0
-2.47536 -10.0091 0.0
-1.33557 -9.95721 0.0
-1.32846 -9.85268 0.0
-2.4514 -9.57186 0.0
-2.46605 -9.80663 0.0
-1.32665 -9.8318 0.0
-1.31624 -9.71243 0.0
-2.42726 -9.29006 0.0
-2.44958 -9.55098 0.0
-1.31373 -9.6899 0.0
-1.29944 -9.56189 0.0
-2.39402 -8.99599 0.0
-2.42474 -9.26753 0.0
-1.29627 -9.53869 0.0
-1.27776 -9.40668 0.0
-2.35154 -8.69925 0.0
-2.39085 -8.9728 0.0
-1.27391 -9.38339 0.0
-1.2511 -9.25049 0.0
-2.29987 -8.40505 0.0
-2.34769 -8.67596 0.0
-1.24657 -9.22745 0.0
-1.21951 -9.09572 0.0
-2.2392 -8.11641 0.0
-2.29534 -8.38201 0.0
-1.2143 -9.07314 0.0
-1.18311 -8.94395 0.0
-2.1698 -7.83533 0.0
-2.234 -8.09384 0.0
-1.17723 -8.92199 0.0
-1.14205 -8.79632 0.0
-2.09192 -7.56329 0.0
-2.16392 -7.81337 0.0
-1.13552 -8.77511 0.0
-1.09648 -8.6537 0.0
-2.00589 -7.30151 0.0
-2.08539 -7.54207 0.0
-1.08932 -8.63333 0.0
-1.04659 -8.51681 0.0
-1.91204 -7.0511 0.0
-1.99873 -7.28114 0.0
-1.03882 -8.49737 0.0
-0.992538 -8.38627 0.0
-1.81073 -6.81306 0.0
-1.90427 -7.03166 0.0
-0.984186 -8.36784 0.0
-0.934525 -8.26265 0.0
-1.70235 -6.58831 0.0
-1.80238 -6.79463 0.0
-0.925622 -8.24531 0.0
-0.872749 -8.14647 0.0
-1.5873 -6.3777 0.0
-1.69345 -6.57096 0.0
-0.863329 -8.13028 0.0
-0.807422 -8.0382 0.0
-1.466 -6.18204 0.0
-1.57788 -6.36151 0.0
-0.797515 -8.02322 0.0
-0.738754 -7.93827 0.0
-1.33888 -6.00206 0.0
-1.45609 -6.16707 0.0
-0.728395 -7.92458 0.0
-0.666955 -7.8471 0.0
-1.20637 -5.83843 0.0
-1.32852 -5.98836 0.0
-0.656176 -7.83474 0.0
-0.592229 -7.76507 0.0
-1.0689 -5.6918 0.0
-1.19559 -5.82607 0.0
-0.581064 -7.75409 0.0
-0.514773 -7.69255 0.0
-0.926885 -5.56275 0.0
-1.05773 -5.68082 0.0
-0.503253 -7.68301 0.0
-0.434781 -7.62993 0.0
-0.780751 -5.45188 0.0
-0.915365 -5.55321 0.0
-0.42294 -7.62187 0.0
-0.352461 -7.57762 0.0
-0.630937 -5.35979 0.0
-0.76891 -5.44383 0.0
-0.340336 -7.57109 0.0
-0.268064 -7.53604 0.0
-0.477934 -5.28706 0.0
-0.618812 -5.35326 0.0
-0.2557 -7.5311 0.0
-0.181924 -7.50566 0.0
-0.322329 -5.23431 0.0
-0.46557 -5.28211 0.0
-0.169375 -7.50233 0.0
-0.0944942 -7.48688 0.0
-0.164846 -5.20206 0.0
-0.309779 -5.23098 0.0
-0.0818265 -7.48521 0.0
-0.00635489 -7.48003 0.0
-0.00635489 -5.1907 0.0
-0.152178 -5.20039 0.0
0.00635363 -7.48003 0.0
0.0818252 -7.48521 0.0
0.152177 -5.20039 0.0
0.00635363 -5.1907 0.0
0.094493 -7.48688 0.0
0.169373 -7.50233 0.0
0.309778 -5.23098 0.0
0.164845 -5.20206 0.0
0.181923 -7.50566 0.0
0.255698 -7.5311 0.0
0.465568 -5.28211 0.0
0.322328 -5.23431 0.0
0.268063 -7.53604 0.0
0.340335 -7.57109 0.0
0.618811 -5.35326 0.0
0.477933 -5.28706 0.0
0.35246 -7.57762 0.0
0.422939 -7.62187 0.0
0.768909 -5.44383 0.0
0.630936 -5.35979 0.0
0.43478 -7.62993 0.0
0.503252 -7.68301 0.0
0.915363 -5.55321 0.0
0.78075 -5.45188 0.0
0.514772 -7.69255 0.0
0.581062 -7.75409 0.0
1.05773 -5.68082 0.0
0.926884 -5.56275 0.0
0.592228 -7.76507 0.0
0.656175 -7.83474 0.0
1.19559 -5.82607 0.0
1.0689 -5.6918 0.0
0.666954 -7.8471 0.0
0.728393 -7.92458 0.0
1.32852 -5.98836 0.0
1.20637 -5.83843 0.0
0.738752 -7.93827 0.0
0.797514 -8.02322 0.0
1.45609 -6.16707 0.0
1.33888 -6.00206 0.0
0.80742 -8.0382 0.0
0.863327 -8.13028 0.0
1.57788 -6.36151 0.0
1.466 -6.18204 0.0
0.872748 -8.14647 0.0
0.925621 -8.24531 0.0
1.69345 -6.57096 0.0
1.5873 -6.3777 0.0
0.934523 -8.26265 0.0
0.984185 -8.36784 0.0
1.80238 -6.79463 0.0
1.70235 -6.58831 0.0
0.992537 -8.38627 0.0
1.03882 -8.49737 0.0
1.90427 -7.03166 0.0
1.81073 -6.81306 0.0
1.04659 -8.51681 0.0
1.08932 -8.63333 0.0
1.99873 -7.28114 0.0
1.91204 -7.0511 0.0
1.09648 -8.6537 0.0
1.13551 -8.77511 0.0
2.08539 -7.54207 0.0
2.00589 -7.30151 0.0
1.14204 -8.79632 0.0
1.17723 -8.92199 0.0
2.16392 -7.81337 0.0
2.09192 -7.56329 0.0
1.18311 -8.94395 0.0
1.2143 -9.07314 0.0
2.234 -8.09384 0.0
2.16979 -7.83533 0.0
1.2195 -9.09572 0.0
1.24657 -9.22745 0.0
2.29534 -8.38201 0.0
2.2392 -8.11641 0.0
1.2511 -9.25049 0.0
1.27391 -9.38339 0.0
2.34769 -8.67596 0.0
2.29986 -8.40505 0.0
1.27776 -9.40668 0.0
1.29627 -9.53869 0.0
2.39085 -8.9728 0.0
2.35154 -8.69925 0.0
1.29944 -9.56189 0.0
1.31373 -9.6899 0.0
2.42474 -9.26753 0.0
2.39402 -8.99599 0.0
1.31624 -9.71243 0.0
1.32664 -9.8318 0.0
2.44958 -9.55098 0.0
2.42725 -9.29006 0.0
1.32846 -9.85268 0.0
1.33556 -9.95721 0.0
2.46605 -9.80663 0.0
2.4514 -9.57186 0.0
1.33651 -9.9749 0.0
1.34099 -10.0577 0.0
2.47536 -10.0091 0.0
2.467 -9.82432 0.0
-2.59011 -9.81432 0.0
-3.72749 -9.67169 0.0
-3.73874 -9.96916 0.0
-2.59847 -9.99915 0.0
-2.5738 -9.5487 0.0
-3.70443 -9.2664 0.0
-3.72583 -9.64084 0.0
-2.58845 -9.78348 0.0
-2.54867 -9.25176 0.0
-3.66809 -8.82327 0.0
-3.70162 -9.23039 0.0
-2.57099 -9.51269 0.0
-2.51404 -8.94204 0.0
-3.61775 -8.3684 0.0
-3.66418 -8.78508 0.0
-2.54476 -9.21357 0.0
-2.46968 -8.62973 0.0
-3.55331 -7.91403 0.0
-3.6127 -8.32964 0.0
-2.50899 -8.90328 0.0
-2.41564 -8.32028 0.0
-3.47493 -7.46613 0.0
-3.5471 -7.87549 0.0
-2.46347 -8.5912 0.0
-2.35214 -8.01681 0.0
-3.38292 -7.02809 0.0
-3.46756 -7.42825 0.0
-2.40828 -8.2824 0.0
-2.27943 -7.72135 0.0
-3.27766 -6.60227 0.0
-3.37442 -6.99113 0.0
-2.34363 -7.97985 0.0
-2.19782 -7.43542 0.0
-3.15955 -6.19057 0.0
-3.26804 -6.56643 0.0
-2.26981 -7.6855 0.0
-2.10762 -7.1603 0.0
-3.02908 -5.79469 0.0
-3.14886 -6.156 0.0
-2.18712 -7.40085 0.0
-2.00921 -6.89712 0.0
-2.88676 -5.41621 0.0
-3.01735 -5.76155 0.0
-2.0959 -7.12716 0.0
-1.90295 -6.64694 0.0
-2.73314 -5.0566 0.0
-2.87404 -5.38462 0.0
-1.99649 -6.86554 0.0
-1.78926 -6.41071 0.0
-2.56883 -4.71724 0.0
-2.71948 -5.02669 0.0
-1.88929 -6.61703 0.0
-1.66857 -6.18934 0.0
-2.39444 -4.39945 0.0
-2.55428 -4.68913 0.0
-1.77472 -6.3826 0.0
-1.54131 -5.98365 0.0
-2.21065 -4.10441 0.0
-2.37906 -4.37324 0.0
-1.65319 -6.16313 0.0
-1.40794 -5.79443 0.0
-2.01812 -3.83325 0.0
-2.19449 -4.0802 0.0
-1.52515 -5.95944 0.0
-1.26891 -5.62238 0.0
-1.81753 -3.58699 0.0
-2.00124 -3.81113 0.0
-1.39106 -5.77231 0.0
-1.12468 -5.46816 0.0
-1.60959 -3.36659 0.0
-1.79999 -3.56705 0.0
-1.25137 -5.60244 0.0
-0.975686 -5.33241 0.0
-1.39498 -3.17292 0.0
-1.59145 -3.34891 0.0
-1.10653 -5.45048 0.0
-0.822383 -5.21574 0.0
-1.1744 -3.00683 0.0
-1.37629 -3.15757 0.0
-0.956997 -5.31706 0.0
-0.665236 -5.11875 0.0
-0.948575 -2.86912 0.0
-1.15523 -2.99388 0.0
-0.803209 -5.20279 0.0
-0.504761 -5.04208 0.0
-0.718283 -2.76058 0.0
-0.928978 -2.85865 0.0
-0.645639 -5.10828 0.0
-0.341573 -4.98634 0.0
-0.48441 -2.68198 0.0
-0.698335 -2.75265 0.0
-0.484814 -5.03415 0.0
-0.176426 -4.95209 0.0
-0.247992 -2.63397 0.0
-0.464196 -2.67665 0.0
-0.321359 -4.98101 0.0
-0.0102205 -4.93973 0.0
-0.0102205 -2.61701 0.0
-0.22761 -2.63129 0.0
-0.156044 -4.94941 0.0
0.156043 -4.94941 0.0
0.227609 -2.63129 0.0
0.0102193 -2.61701 0.0
0.0102193 -4.93973 0.0
0.321358 -4.98101 0.0
0.464195 -2.67665 0.0
0.247991 -2.63397 0.0
0.176425 -4.95209 0.0
0.484813 -5.03415 0.0
0.698334 -2.75265 0.0
0.484409 -2.68198 0.0
0.341572 -4.98634 0.0
0.645638 -5.10828 0.0
0.928977 -2.85865 0.0
0.718281 -2.76058 0.0
0.50476 -5.04208 0.0
0.803208 -5.20279 0.0
1.15522 -2.99388 0.0
0.948573 -2.86912 0.0
0.665235 -5.11875 0.0
0.956996 -5.31706 0.0
1.37629 -3.15757 0.0
1.1744 -3.00683 0.0
0.822382 -5.21574 0.0
1.10653 -5.45048 0.0
1.59144 -3.34891 0.0
1.39498 -3.17292 0.0
0.975684 -5.33241 0.0
1.25137 -5.60244 0.0
1.79999 -3.56705 0.0
1.60959 -3.36659 0.0
1.12468 -5.46816 0.0
1.39106 -5.77231 0.0
2.00124 -3.81113 0.0
1.81753 -3.58699 0.0
1.26891 -5.62238 0.0
1.52515 -5.95944 0.0
2.19449 -4.0802 0.0
2.01811 -3.83325 0.0
1.40794 -5.79443 0.0
1.65318 -6.16313 0.0
2.37906 -4.37324 0.0
2.21065 -4.10441 0.0
1.54131 -5.98365 0.0
1.77471 -6.3826 0.0
2.55428 -4.68913 0.0
2.39444 -4.39945 0.0
1.66857 -6.18934 0.0
1.88929 -6.61703 0.0
2.71948 -5.02669 0.0
2.56883 -4.71724 0.0
1.78926 -6.41071 0.0
1.99649 -6.86554 0.0
2.87404 -5.38462 0.0
2.73314 -5.0566 0.0
1.90295 -6.64694 0.0
2.09589 -7.12716 0.0
3.01735 -5.76155 0.0
2.88676 -5.41621 0.0
2.00921 -6.89712 0.0
2.18712 -7.40085 0.0
3.14886 -6.156 0.0
3.02908 -5.79469 0.0
2.10762 -7.1603 0.0
2.26981 -7.6855 0.0
3.26804 -6.56643 0.0
3.15955 -6.19057 0.0
2.19782 -7.43542 0.0
2.34363 -7.97985 0.0
3.37441 -6.99113 0.0
3.27766 -6.60227 0.0
2.27943 -7.72135 0.0
2.40827 -8.2824 0.0
3.46756 -7.42825 0.0
3.38292 -7.02809 0.0
2.35214 -8.01681 0.0
2.46347 -8.5912 0.0
3.5471 -7.87549 0.0
3.47493 -7.46613 0.0
2.41564 -8.32028 0.0
2.50899 -8.90328 0.0
3.6127 -8.32964 0.0
3.55331 -7.91403 0.0
2.46967 -8.62973 0.0
2.54476 -9.21357 0.0
3.66418 -8.78508 0.0
3.61775 -8.3684 0.0
2.51404 -8.94204 0.0
2.57099 -9.51269 0.0
3.70162 -9.23039 0.0
3.66809 -8.82327 0.0
2.54866 -9.25176 0.0
2.58845 -9.78348 0.0
3.72583 -9.64084 0.0
3.70443 -9.2664 0.0
2.5738 -9.5487 0.0
2.59011 -9.81432 0.0
2.59847 -9.99915 0.0
3.73874 -9.96916 0.0
3.72749 -9.67169 0.0
-3.8527 -9.66251 0.0
-4.99129 -9.52162 0.0
-5.00516 -9.93871 0.0
-3.86394 -9.95998 0.0
-3.82908 -9.24304 0.0
-4.96105 -8.95838 0.0
-4.98907 -9.4766 0.0
-3.85048 -9.61748 0.0
-3.7918 -8.78405 0.0
-4.91264 -8.35235 0.0
-4.95731 -8.9065 0.0
-3.82534 -9.19117 0.0
-3.74005 -8.31313 0.0
-4.84526 -7.73664 0.0
-4.90731 -8.29811 0.0
-3.78648 -8.72982 0.0
-3.67369 -7.84297 0.0
-4.75888 -7.12491 0.0
-4.83829 -7.68208 0.0
-3.73309 -8.25858 0.0
-3.5929 -7.37965 0.0
-4.6538 -6.52345 0.0
-4.75026 -7.07095 0.0
-3.66507 -7.78901 0.0
-3.498 -6.92659 0.0
-4.53042 -5.93595 0.0
-4.64354 -6.47055 0.0
-3.58264 -7.32675 0.0
-3.38939 -6.48619 0.0
-4.38926 -5.36517 0.0
-4.51857 -5.88442 0.0
-3.48615 -6.87505 0.0
-3.26749 -6.06038 0.0
-4.23087 -4.81347 0.0
-4.37585 -5.31522 0.0
-3.37597 -6.43624 0.0
-3.13279 -5.65093 0.0
-4.05589 -4.28308 0.0
-4.21596 -4.76533 0.0
-3.25257 -6.01224 0.0
-2.98584 -5.25944 0.0
-3.86501 -3.77607 0.0
-4.03953 -4.23694 0.0
-3.11643 -5.60479 0.0
-2.8272 -4.88745 0.0
-3.65897 -3.29442 0.0
-3.84727 -3.73211 0.0
-2.9681 -5.21548 0.0
-2.65749 -4.53639 0.0
-3.43858 -2.83999 0.0
-3.63992 -3.25281 0.0
-2.80815 -4.84584 0.0
-2.47737 -4.2076 0.0
-3.2047 -2.41453 0.0
-3.41829 -2.80088 0.0
-2.6372 -4.49728 0.0
-2.2875 -3.90232 0.0
-2.95821 -2.01966 0.0
-3.18325 -2.37808 0.0
-2.45592 -4.17115 0.0
-2.0886 -3.62172 0.0
-2.70003 -1.65688 0.0
-2.93568 -1.986 0.0
-2.26497 -3.86867 0.0
-1.88137 -3.36686 0.0
-2.43112 -1.3276 0.0
-2.67651 -1.62616 0.0
-2.06507 -3.591 0.0
-1.66652 -3.13871 0.0
-2.15243 -1.03308 0.0
-2.40668 -1.29992 0.0
-1.85693 -3.33917 0.0
-1.44479 -2.9382 0.0
-1.86493 -0.774486 0.0
-2.12717 -1.00855 0.0
-1.64126 -3.11418 0.0
-1.21689 -2.76618 0.0
-1.56961 -0.552921 0.0
-1.83892 -0.753211 0.0
-1.41878 -2.91692 0.0
-0.983577 -2.62349 0.0
-1.26746 -0.369414 0.0
-1.54294 -0.534997 0.0
-1.19023 -2.74825 0.0
-0.745655 -2.51095 0.0
-0.959576 -0.224942 0.0
-1.24024 -0.354931 0.0
-0.956351 -2.60901 0.0
-0.504043 -2.42932 0.0
-0.647139 -0.12041 0.0
-0.931888 -0.213986 0.0
-0.717968 -2.49999 0.0
-0.259805 -2.37928 0.0
-0.331498 -0.0565897 0.0
-0.619105 -0.113056 0.0
-0.476008 -2.42197 0.0
-0.0141634 -2.36131 0.0
-0.0141634 -0.0340171 0.0
-0.303247 -0.0528966 0.0
-0.231553 -2.37559 0.0
0.231552 -2.37559 0.0
0.303246 -0.0528966 0.0
0.0141621 -0.0340171 0.0
0.0141621 -2.36131 0.0
0.476007 -2.42197 0.0
0.619104 -0.113056 0.0
0.331497 -0.0565897 0.0
0.259803 -2.37928 0.0
0.717967 -2.49999 0.0
0.931887 -0.213986 0.0
0.647138 -0.12041 0.0
0.504042 -2.42932 0.0
0.956349 -2.60901 0.0
1.24023 -0.354931 0.0
0.959575 -0.224942 0.0
0.745654 -2.51095 0.0
1.19023 -2.74825 0.0
1.54294 -0.534997 0.0
1.26746 -0.369414 0.0
0.983576 -2.62349 0.0
1.41878 -2.91692 0.0
1.83892 -0.753211 0.0
1.56961 -0.552921 0.0
1.21689 -2.76618 0.0
1.64126 -3.11418 0.0
2.12716 -1.00855 0.0
1.86493 -0.774486 0.0
1.44479 -2.9382 0.0
1.85693 -3.33917 0.0
2.40668 -1.29992 0.0
2.15243 -1.03308 0.0
1.66652 -3.13871 0.0
2.06507 -3.591 0.0
2.67651 -1.62616 0.0
2.43112 -1.3276 0.0
1.88137 -3.36686 0.0
2.26497 -3.86867 0.0
2.93568 -1.986 0.0
2.70003 -1.65688 0.0
2.0886 -3.62172 0.0
2.45592 -4.17115 0.0
3.18325 -2.37808 0.0
2.9582 -2.01966 0.0
2.2875 -3.90232 0.0
2.6372 -4.49728 0.0
3.41829 -2.80088 0.0
3.20469 -2.41453 0.0
2.47737 -4.2076 0.0
2.80815 -4.84584 0.0
3.63991 -3.25281 0.0
3.43858 -2.83999 0.0
2.65749 -4.53639 0.0
2.9681 -5.21548 0.0
3.84726 -3.73211 0.0
3.65897 -3.29442 0.0
2.8272 -4.88745 0.0
3.11643 -5.60479 0.0
4.03953 -4.23694 0.0
3.86501 -3.77607 0.0
2.98584 -5.25944 0.0
3.25257 -6.01224 0.0
4.21596 -4.76533 0.0
4.05589 -4.28308 0.0
3.13279 -5.65093 0.0
3.37597 -6.43624 0.0
4.37585 -5.31522 0.0
4.23087 -4.81347 0.0
3.26749 -6.06038 0.0
3.48615 -6.87505 0.0
4.51856 -5.88442 0.0
4.38926 -5.36517 0.0
3.38939 -6.48619 0.0
3.58264 -7.32675 0.0
4.64354 -6.47055 0.0
4.53042 -5.93595 0.0
3.498 -6.92659 0.0
3.66507 -7.78901 0.0
4.75026 -7.07095 0.0
4.65379 -6.52345 0.0
3.5929 -7.37965 0.0
3.73309 -8.25858 0.0
4.83829 -7.68208 0.0
4.75888 -7.12491 0.0
3.67369 -7.84297 0.0
3.78648 -8.72982 0.0
4.90731 -8.29811 0.0
4.84526 -7.73664 0.0
3.74005 -8.31313 0.0
3.82533 -9.19117 0.0
4.95731 -8.9065 0.0
4.91264 -8.35235 0.0
3.7918 -8.78405 0.0
3.85047 -9.61748 0.0
4.98907 -9.4766 0.0
4.96105 -8.95838 0.0
3.82908 -9.24304 0.0
3.8527 -9.66251 0.0
3.86394 -9.95998 0.0
5.00516 -9.93871 0.0
4.99129 -9.52162 0.0
-5.11717 -9.51283 0.0
-6.25602 -9.37218 0.0
-6.2724 -9.91381 0.0
-5.13104 -9.92991 0.0
-5.08641 -8.93484 0.0
-6.21865 -8.64845 0.0
-6.25328 -9.31241 0.0
-5.11443 -9.45306 0.0
-5.03706 -8.31269 0.0
-6.15815 -7.87934 0.0
-6.21397 -8.58046 0.0
-5.08173 -8.86684 0.0
-4.96824 -7.68086 0.0
-6.0737 -7.10323 0.0
-6.15139 -7.80899 0.0
-5.0303 -8.24234 0.0
-4.87991 -7.05333 0.0
-5.96536 -6.33454 0.0
-6.06478 -7.03288 0.0
-4.95932 -7.6105 0.0
-4.77239 -6.43643 0.0
-5.83354 -5.57974 0.0
-5.9543 -6.26513 0.0
-4.86886 -6.98393 0.0
-4.64611 -5.83388 0.0
-5.67878 -4.84285 0.0
-5.82037 -5.51178 0.0
-4.75922 -6.36848 0.0
-4.50158 -5.24846 0.0
-5.5017 -4.12709 0.0
-5.66355 -4.77668 0.0
-4.63088 -5.76771 0.0
-4.33938 -4.6826 0.0
-5.303 -3.43535 0.0
-5.48447 -4.06298 0.0
-4.48435 -5.18435 0.0
-4.16015 -4.13857 0.0
-5.08348 -2.77036 0.0
-5.28384 -3.37357 0.0
-4.32022 -4.62082 0.0
-3.96461 -3.6185 0.0
-4.844 -2.13474 0.0
-5.06246 -2.71115 0.0
-4.13914 -4.07936 0.0
-3.75353 -3.1244 0.0
-4.5855 -1.53095 0.0
-4.82121 -2.07833 0.0
-3.94182 -3.56209 0.0
-3.52772 -2.6582 0.0
-4.309 -0.961346 0.0
-4.56103 -1.47756 0.0
-3.72905 -3.07101 0.0
-3.28806 -2.22167 0.0
-4.01557 -0.42812 0.0
-4.28294 -0.911182 0.0
-3.50166 -2.60803 0.0
-3.03547 -1.81651 0.0
-3.70634 0.0666736 0.0
-3.98802 -0.381376 0.0
-3.26051 -2.17493 0.0
-2.77089 -1.44424 0.0
-3.38247 0.521135 0.0
-3.6774 0.10982 0.0
-3.00654 -1.77336 0.0
-2.4953 -1.1063 0.0
-3.04517 0.933518 0.0
-3.35226 0.560517 0.0
-2.74068 -1.40486 0.0
-2.20967 -0.803995 0.0
-2.69568 1.30222 0.0
-3.0138 0.968983 0.0
-2.46392 -1.07084 0.0
-1.91501 -0.538523 0.0
-2.33522 1.62578 0.0
-2.66325 1.33363 0.0
-2.17724 -0.772584 0.0
-1.61232 -0.311007 0.0
-1.96508 1.90285 0.0
-2.30185 1.65301 0.0
-1.88164 -0.511297 0.0
-1.30264 -0.122502 0.0
-1.58656 2.13218 0.0
-1.93089 1.92577 0.0
-1.57813 -0.288085 0.0
-0.987088 0.0259952 0.0
-1.20102 2.3126 0.0
-1.55166 2.15068 0.0
-1.26775 -0.103994 0.0
-0.666871 0.133562 0.0
-0.809973 2.44306 0.0
-1.16556 2.32659 0.0
-0.95162 0.0399863 0.0
-0.343369 0.199414 0.0
-0.415065 2.52269 0.0
-0.774078 2.45245 0.0
-0.630976 0.142947 0.0
-0.0181257 0.223004 0.0
-0.0181257 2.55088 0.0
-0.378905 2.5274 0.0
-0.307209 0.204125 0.0
0.307208 0.204125 0.0
0.378903 2.5274 0.0
0.0181244 2.55088 0.0
0.0181244 0.223004 0.0
0.630974 0.142947 0.0
0.774077 2.45245 0.0
0.415063 2.52269 0.0
0.343368 0.199414 0.0
0.951618 0.0399863 0.0
1.16555 2.32659 0.0
0.809972 2.44306 0.0
0.666869 0.133562 0.0
1.26775 -0.103994 0.0
1.55166 2.15068 0.0
1.20102 2.3126 0.0
0.987087 0.0259952 0.0
1.57812 -0.288085 0.0
1.93089 1.92577 0.0
1.58656 2.13218 0.0
1.30264 -0.122502 0.0
1.88164 -0.511297 0.0
2.30185 1.65301 0.0
1.96508 1.90285 0.0
1.61232 -0.311007 0.0
2.17724 -0.772584 0.0
2.66324 1.33363 0.0
2.33522 1.62578 0.0
1.91501 -0.538523 0.0
2.46392 -1.07084 0.0
3.0138 0.968983 0.0
2.69567 1.30222 0.0
2.20967 -0.803995 0.0
2.74068 -1.40486 0.0
3.35226 0.560517 0.0
3.04517 0.933518 0.0
2.4953 -1.1063 0.0
3.00654 -1.77336 0.0
3.6774 0.10982 0.0
3.38247 0.521135 0.0
2.77089 -1.44424 0.0
3.26051 -2.17493 0.0
3.98802 -0.381376 0.0
3.70634 0.0666736 0.0
3.03547 -1.81651 0.0
3.50165 -2.60803 0.0
4.28294 -0.911182 0.0
4.01557 -0.42812 0.0
3.28806 -2.22167 0.0
3.72905 -3.07101 0.0
4.56103 -1.47756 0.0
4.309 -0.961346 0.0
3.52772 -2.6582 0.0
3.94182 -3.56209 0.0
4.82121 -2.07833 0.0
4.5855 -1.53095 0.0
3.75352 -3.1244 0.0
4.13913 -4.07936 0.0
5.06246 -2.71115 0.0
4.844 -2.13474 0.0
3.96461 -3.6185 0.0
4.32022 -4.62082 0.0
5.28384 -3.37357 0.0
5.08348 -2.77036 0.0
4.16015 -4.13857 0.0
4.48435 -5.18435 0.0
5.48447 -4.06298 0.0
5.303 -3.43535 0.0
4.33937 -4.6826 0.0
4.63088 -5.76771 0.0
5.66355 -4.77668 0.0
5.5017 -4.12709 0.0
4.50158 -5.24846 0.0
4.75922 -6.36848 0.0
5.82037 -5.51178 0.0
5.67878 -4.84285 0.0
4.64611 -5.83388 0.0
4.86885 -6.98393 0.0
5.9543 -6.26513 0.0
5.83354 -5.57974 0.0
4.77239 -6.43643 0.0
4.95932 -7.6105 0.0
6.06478 -7.03288 0.0
5.96536 -6.33454 0.0
4.87991 -7.05333 0.0
5.03029 -8.24234 0.0
6.15139 -7.80899 0.0
6.07369 -7.10323 0.0
4.96824 -7.68086 0.0
5.08173 -8.86684 0.0
6.21397 -8.58046 0.0
6.15815 -7.87934 0.0
5.03706 -8.31269 0.0
5.11443 -9.45306 0.0
6.25328 -9.31241 0.0
6.21865 -8.64845 0.0
5.08641 -8.93484 0.0
5.11717 -9.51283 0.0
5.13104 -9.92991 0.0
6.2724 -9.91381 0.0
6.25602 -9.37218 0.0
-6.38219 -9.3636 0.0
-7.52109 -9.22271 0.0
-7.53991 -9.89251 0.0
-6.39857 -9.90522 0.0
-6.34433 -8.62478 0.0
-7.4766 -8.33718 0.0
-7.51786 -9.14786 0.0
-6.37896 -9.28874 0.0
-6.28287 -7.83944 0.0
-7.40398 -7.40517 0.0
-7.47097 -8.25295 0.0
-6.33869 -8.54056 0.0
-6.19695 -7.04723 0.0
-7.30242 -6.46909 0.0
-7.39575 -7.31871 0.0
-6.27465 -7.75298 0.0
-6.08665 -6.26274 0.0
-7.1721 -5.54369 0.0
-7.29154 -6.38294 0.0
-6.18608 -6.96108 0.0
-5.95239 -5.4925 0.0
-7.01354 -4.63569 0.0
-7.15859 -5.45885 0.0
-6.07315 -6.17789 0.0
-5.79471 -4.74055 0.0
-6.82738 -3.74947 0.0
-6.99745 -4.55266 0.0
-5.9363 -5.40947 0.0
-5.61425 -4.01013 0.0
-6.61437 -2.88873 0.0
-6.80878 -3.66864 0.0
-5.7761 -4.65972 0.0
-5.41173 -3.3042 0.0
-6.37535 -2.05693 0.0
-6.59332 -2.81044 0.0
-5.5932 -3.93184 0.0
-5.18795 -2.62555 0.0
-6.11128 -1.25733 0.0
-6.35194 -1.98149 0.0
-5.38832 -3.22876 0.0
-4.94381 -1.97683 0.0
-5.82319 -0.493069 0.0
-6.0856 -1.18503 0.0
-5.16227 -2.55325 0.0
-4.68025 -1.36058 0.0
-5.51223 0.232877 0.0
-5.79534 -0.42419 0.0
-4.91596 -1.90795 0.0
-4.39832 -0.779171 0.0
-5.1796 0.917683 0.0
-5.48232 0.298065 0.0
-4.65035 -1.29539 0.0
-4.09911 -0.234866 0.0
-4.82661 1.55869 0.0
-5.14775 0.978926 0.0
-4.36648 -0.717928 0.0
-3.78376 0.270244 0.0
-4.45462 2.15343 0.0
-4.79295 1.61575 0.0
-4.06544 -0.177805 0.0
-3.45347 0.73422 0.0
-4.06504 2.6996 0.0
-4.41926 2.20609 0.0
-3.74841 0.322904 0.0
-3.10948 1.15528 0.0
-3.65934 3.1951 0.0
-4.02813 2.74766 0.0
-3.41656 0.782275 0.0
-2.75303 1.53178 0.0
-3.23901 3.638 0.0
-3.62101 3.23837 0.0
-3.07115 1.19854 0.0
-2.3854 1.86223 0.0
-2.80559 4.02654 0.0
-3.1994 3.6763 0.0
-2.71342 1.57008 0.0
-2.00788 2.14526 0.0
-2.36062 4.35912 0.0
-2.76484 4.05973 0.0
-2.34465 1.89542 0.0
-1.62181 2.37959 0.0
-1.9057 4.63426 0.0
-2.31888 4.38704 0.0
-1.96614 2.17319 0.0
-1.22859 2.56405 0.0
-1.4425 4.85063 0.0
-1.86311 4.6568 0.0
-1.57923 2.40213 0.0
-0.829741 2.69755 0.0
-0.972824 5.00702 0.0
-1.39923 4.86766 0.0
-1.18532 2.58107 0.0
-0.426957 2.77921 0.0
-0.498642 5.10246 0.0
-0.929054 5.01844 0.0
-0.785971 2.70897 0.0
-0.0220952 2.80842 0.0
-0.0220952 5.13626 0.0
-0.454559 5.10819 0.0
-0.382874 2.78494 0.0
0.382873 2.78494 0.0
0.454558 5.10819 0.0
0.022094 5.13626 0.0
0.022094 2.80842 0.0
0.78597 2.70897 0.0
0.929053 5.01844 0.0
0.498641 5.10246 0.0
0.426956 2.77921 0.0
1.18532 2.58107 0.0
1.39923 4.86766 0.0
0.972823 5.00702 0.0
0.82974 2.69755 0.0
1.57923 2.40213 0.0
1.86311 4.6568 0.0
1.4425 4.85063 0.0
1.22859 2.56405 0.0
1.96614 2.17319 0.0
2.31888 4.38704 0.0
1.9057 4.63426 0.0
1.62181 2.37959 0.0
2.34465 1.89542 0.0
2.76484 4.05973 0.0
2.36062 4.35912 0.0
2.00788 2.14526 0.0
2.71342 1.57008 0.0
3.1994 3.6763 0.0
2.80559 4.02654 0.0
2.3854 1.86223 0.0
3.07115 1.19854 0.0
3.62101 3.23837 0.0
3.23901 3.638 0.0
2.75303 1.53178 0.0
3.41656 0.782275 0.0
4.02813 2.74766 0.0
3.65933 3.1951 0.0
3.10948 1.15528 0.0
3.74841 0.322904 0.0
4.41926 2.20609 0.0
4.06504 2.6996 0.0
3.45347 0.73422 0.0
4.06544 -0.177805 0.0
4.79294 1.61575 0.0
4.45461 2.15343 0.0
3.78376 0.270244 0.0
4.36648 -0.717928 0.0
5.14775 0.978926 0.0
4.82661 1.55869 0.0
4.09911 -0.234866 0.0
4.65035 -1.29539 0.0
5.48232 0.298065 0.0
5.1796 0.917683 0.0
4.39832 -0.779171 0.0
4.91596 -1.90795 0.0
5.79534 -0.42419 0.0
5.51222 0.232877 0.0
4.68025 -1.36058 0.0
5.16227 -2.55325 0.0
6.0856 -1.18503 0.0
5.82319 -0.493069 0.0
4.94381 -1.97683 0.0
5.38832 -3.22876 0.0
6.35194 -1.98149 0.0
6.11128 -1.25733 0.0
5.18795 -2.62555 0.0
5.5932 -3.93184 0.0
6.59332 -2.81044 0.0
6.37535 -2.05693 0.0
5.41173 -3.3042 0.0
5.7761 -4.65972 0.0
6.80877 -3.66864 0.0
6.61437 -2.88873 0.0
5.61425 -4.01013 0.0
5.9363 -5.40947 0.0
6.99745 -4.55266 0.0
6.82738 -3.74947 0.0
5.79471 -4.74055 0.0
6.07315 -6.17789 0.0
7.15859 -5.45885 0.0
7.01354 -4.63569 0.0
5.95239 -5.4925 0.0
6.18608 -6.96108 0.0
7.29154 -6.38294 0.0
7.1721 -5.54369 0.0
6.08665 -6.26274 0.0
6.27464 -7.75298 0.0
7.39575 -7.31871 0.0
7.30242 -6.46909 0.0
6.19695 -7.04723 0.0
6.33869 -8.54056 0.0
7.47097 -8.25295 0.0
7.40398 -7.40517 0.0
6.28287 -7.83944 0.0
6.37896 -9.28874 0.0
7.51786 -9.14786 0.0
7.4766 -8.33718 0.0
6.34433 -8.62478 0.0
6.38219 -9.3636 0.0
6.39857 -9.90522 0.0
7.53991 -9.89251 0.0
7.52108 -9.22271 0.0
-7.6474 -9.21426 0.0
-8.78613 -9.073 0.0
-8.80735 -9.87373 0.0
-7.66622 -9.88405 0.0
-7.60243 -8.3134 0.0
-8.73452 -8.02496 0.0
-8.78241 -8.98283 0.0
-7.64368 -9.12408 0.0
-7.52884 -7.36514 0.0
-8.64974 -6.93038 0.0
-8.72792 -7.92448 0.0
-7.59583 -8.21291 0.0
-7.4258 -6.41296 0.0
-8.53105 -5.83465 0.0
-8.64004 -6.82783 0.0
-7.51914 -7.26259 0.0
-7.29351 -5.4718 0.0
-8.37874 -4.75278 0.0
-8.5182 -5.73273 0.0
-7.41295 -6.31104 0.0
-7.1325 -4.54835 0.0
-8.19342 -3.69168 0.0
-8.36278 -4.6525 0.0
-7.27755 -5.37151 0.0
-6.94342 -3.64706 0.0
-7.97585 -2.65619 0.0
-8.17441 -3.59358 0.0
-7.11349 -4.45025 0.0
-6.72702 -2.77166 0.0
-7.7269 -1.65054 0.0
-7.95386 -2.5607 0.0
-6.92143 -3.55157 0.0
-6.48418 -1.92566 0.0
-7.44756 -0.678709 0.0
-7.70202 -1.55805 0.0
-6.70215 -2.67918 0.0
-6.21585 -1.11239 0.0
-7.13893 0.255471 0.0
-7.41989 -0.589586 0.0
-6.45651 -1.83654 0.0
-5.92309 -0.335019 0.0
-6.80224 1.14835 0.0
-7.10858 0.34088 0.0
-6.1855 -1.02698 0.0
-5.60706 0.403409 0.0
-6.43881 1.99643 0.0
-6.76933 1.22971 0.0
-5.89018 -0.253658 0.0
-5.269 1.10002 0.0
-6.05006 2.79641 0.0
-6.40346 2.07342 0.0
-5.57172 0.480405 0.0
-4.91022 1.75212 0.0
-5.63751 3.54518 0.0
-6.01242 2.86874 0.0
-5.23137 1.17235 0.0
-4.53211 2.35719 0.0
-5.20277 4.23984 0.0
-5.59773 3.61257 0.0
-4.87044 1.81951 0.0
-4.1361 2.91288 0.0
-4.74748 4.8777 0.0
-5.16099 4.30202 0.0
-4.49033 2.41937 0.0
-3.7237 3.41706 0.0
-4.27339 5.4563 0.0
-4.70387 4.93444 0.0
-4.09249 2.96962 0.0
-3.29641 3.86776 0.0
-3.78225 5.97338 0.0
-4.2281 5.50737 0.0
-3.67841 3.46813 0.0
-2.85581 4.2632 0.0
-3.27586 6.42688 0.0
-3.73545 6.01858 0.0
-3.24962 3.91296 0.0
-2.40345 4.60174 0.0
-2.75607 6.81495 0.0
-3.22773 6.46603 0.0
-2.80767 4.30235 0.0
-1.94098 4.8819 0.0
-2.22476 7.1359 0.0
-2.70678 6.84789 0.0
-2.35416 4.63468 0.0
-1.47009 5.1023 0.0
-1.68392 7.38821 0.0
-2.17449 7.16247 0.0
-1.8907 4.90847 0.0
-0.992608 5.26173 0.0
-1.13564 7.57052 0.0
-1.63285 7.40827 0.0
-1.41902 5.12236 0.0
-0.510544 5.3592 0.0
-0.582202 7.68175 0.0
-1.08399 7.58397 0.0
-0.940956 5.27518 0.0
-0.0260677 5.39402 0.0
-0.0260673 7.72117 0.0
-0.53019 7.6885 0.0
-0.458532 5.36595 0.0
0.45853 5.36595 0.0
0.530189 7.6885 0.0
0.026067 7.72117 0.0
0.0260665 5.39402 0.0
0.940955 5.27518 0.0
1.08399 7.58397 0.0
0.582201 7.68175 0.0
0.510543 5.3592 0.0
1.41902 5.12236 0.0
1.63285 7.40827 0.0
1.13564 7.57052 0.0
0.992606 5.26173 0.0
1.8907 4.90847 0.0
2.17449 7.16247 0.0
1.68392 7.38821 0.0
1.47008 5.1023 0.0
2.35416 4.63468 0.0
2.70677 6.84789 0.0
2.22476 7.1359 0.0
1.94097 4.8819 0.0
2.80767 4.30235 0.0
3.22773 6.46603 0.0
2.75607 6.81495 0.0
2.40345 4.60174 0.0
3.24962 3.91296 0.0
3.73545 6.01858 0.0
3.27586 6.42688 0.0
2.8558 4.2632 0.0
3.67841 3.46813 0.0
4.2281 5.50737 0.0
3.78224 5.97338 0.0
3.29641 3.86776 0.0
4.09249 2.96962 0.0
4.70387 4.93444 0.0
4.27339 5.4563 0.0
3.7237 3.41706 0.0
4.49033 2.41937 0.0
5.16099 4.30202 0.0
4.74748 4.8777 0.0
4.1361 2.91288 0.0
4.87044 1.81951 0.0
5.59773 3.61257 0.0
5.20276 4.23984 0.0
4.53211 2.35719 0.0
5.23137 1.17235 0.0
6.01242 2.86874 0.0
5.63751 3.54518 0.0
4.91022 1.75212 0.0
5.57172 0.480405 0.0
6.40346 2.07342 0.0
6.05006 2.79641 0.0
5.269 1.10002 0.0
5.89018 -0.253658 0.0
6.76933 1.22971 0.0
6.4388 1.99643 0.0
5.60706 0.403409 0.0
6.1855 -1.02698 0.0
7.10858 0.34088 0.0
6.80224 1.14835 0.0
5.92309 -0.335019 0.0
6.45651 -1.83654 0.0
7.41989 -0.589586 0.0
7.13893 0.255471 0.0
6.21585 -1.11239 0.0
6.70214 -2.67918 0.0
7.70202 -1.55805 0.0
7.44756 -0.678709 0.0
6.48418 -1.92566 0.0
6.92143 -3.55157 0.0
7.95386 -2.5607 0.0
7.7269 -1.65054 0.0
6.72702 -2.77166 0.0
7.11349 -4.45025 0.0
8.17441 -3.59358 0.0
7.97585 -2.65619 0.0
6.94342 -3.64706 0.0
7.27755 -5.37151 0.0
8.36278 -4.6525 0.0
8.19342 -3.69168 0.0
7.1325 -4.54835 0.0
7.41295 -6.31104 0.0
8.5182 -5.73273 0.0
8.37874 -4.75278 0.0
7.29351 -5.4718 0.0
7.51914 -7.26259 0.0
8.64004 -6.82783 0.0
8.53105 -5.83465 0.0
7.4258 -6.41296 0.0
7.59583 -8.21291 0.0
8.72792 -7.92448 0.0
8.64974 -6.93038 0.0
7.52884 -7.36514 0.0
7.64368 -9.12408 0.0
8.78241 -8.98283 0.0
8.73452 -8.02496 0.0
7.60243 -8.3134 0.0
7.6474 -9.21426 0.0
7.66622 -9.88405 0.0
8.80734 -9.87373 0.0
8.78612 -9.073 0.0
-8.91245 -9.06464 0.0
-10.05 -8.92312 0.0
-10.0735 -9.85685 0.0
-8.93367 -9.86537 0.0
-8.86036 -8.00112 0.0
-9.55521 -7.82372 0.0
-9.99131 -7.71237 0.0
-10.0458 -8.81746 0.0
-8.90825 -8.95898 0.0
-9.51686 -7.72103 0.0
-8.822 -7.89843 0.0
-8.74383 -6.90433 0.0
-9.20446 -6.72569 0.0
-9.19422 -6.61211 0.0
-8.73359 -6.79076 0.0
-8.6246 -5.79758 0.0
-9.0469 -5.57697 0.0
-9.4556 -6.51025 0.0
-9.03317 -5.46387 0.0
-8.61087 -5.68448 0.0
-8.47141 -4.70453 0.0
-8.86112 -4.44678 0.0
-9.34999 -5.29734 0.0
-8.84377 -4.33509 0.0
-8.45406 -4.59284 0.0
-8.28471 -3.63202 0.0
-8.65193 -3.33597 0.0
-9.19501 -4.10159 0.0
-8.99558 -2.93136 0.0
-8.63105 -3.22647 0.0
-8.26383 -3.52251 0.0
-8.06527 -2.58512 0.0
-8.41596 -2.24903 0.0
-8.75628 -1.79164 0.0
-8.39167 -2.1423 0.0
-8.04098 -2.47839 0.0
-7.81402 -1.56822 0.0
-8.15075 -1.19113 0.0
-8.47571 -0.691498 0.0
-8.12308 -1.0876 0.0
-7.78636 -1.46469 0.0
-7.53189 -0.585347 0.0
-7.85921 -0.162134 0.0
-8.16037 0.36807 0.0
-7.82839 -0.0623266 0.0
-7.50106 -0.485539 0.0
-7.2201 0.359519 0.0
-7.53793 0.830042 0.0
-7.80957 1.37923 0.0
-7.504 0.925747 0.0
-7.18617 0.455224 0.0
-6.87983 1.26269 0.0
-7.18973 1.78514 0.0
-7.42864 2.34219 0.0
-7.15293 1.87631 0.0
-6.84303 1.35385 0.0
-6.51251 2.12057 0.0
-6.81269 2.69511 0.0
-7.01834 3.25169 0.0
-6.77314 2.78139 0.0
-6.47296 2.20685 0.0
-6.11955 2.92983 0.0
-6.40889 3.55788 0.0
-6.57998 4.1028 0.0
-6.36673 3.63894 0.0
-6.07739 3.01089 0.0
-5.70248 3.68733 0.0
-5.98012 4.37149 0.0
-5.93557 4.44698 0.0
-5.65794 3.76282 0.0
-5.26297 4.39009 0.0
-5.52613 5.12857 0.0
-6.11757 4.89642 0.0
-5.47935 5.19822 0.0
-5.21619 4.45975 0.0
-4.80269 5.03543 0.0
-5.04925 5.82767 0.0
-5.63218 5.62803 0.0
-5.00041 5.89121 0.0
-4.75385 5.09897 0.0
-4.32337 5.62083 0.0
-4.55111 6.46573 0.0
-5.12584 6.29515 0.0
-4.50039 6.52291 0.0
-4.27265 5.67801 0.0
-3.8268 6.14402 0.0
-4.03386 7.04167 0.0
-4.60011 6.89378 0.0
-3.98148 7.09227 0.0
-3.77441 6.19462 0.0
-3.31482 6.60292 0.0
-3.49848 7.54944 0.0
-4.05809 7.42542 0.0
-3.44461 7.59325 0.0
-3.26095 6.64673 0.0
-2.7893 6.99565 0.0
-2.94734 7.98848 0.0
-3.50127 7.8864 0.0
-2.89218 8.02533 0.0
-2.73414 7.0325 0.0
-2.25213 7.32052 0.0
-2.38244 8.35671 0.0
-2.93171 8.27503 0.0
-2.32619 8.38643 0.0
-2.19588 7.35023 0.0
-1.70531 7.57596 0.0
-1.80585 8.65226 0.0
-2.35153 8.58979 0.0
-1.74878 8.67419 0.0
-1.64823 7.5979 0.0
-1.15102 7.76014 0.0
-1.21879 8.85539 0.0
-1.76297 8.82884 0.0
-1.16121 8.86902 0.0
-1.09344 7.77377 0.0
-0.591657 7.87155 0.0
-0.624942 8.94957 0.0
-1.16847 8.99067 0.0
-0.566552 8.95903 0.0
-0.533267 7.88101 0.0
-0.0291441 7.91368 0.0
-0.028977 8.97029 0.0
-0.0292863 9.08764 0.0
-0.569953 9.07877 0.0
0.0298123 8.967 0.0
0.0296452 7.91039 0.0
0.533767 7.87772 0.0
0.567058 8.95591 0.0
0.570446 9.07565 0.0
0.624948 8.94975 0.0
0.591656 7.87156 0.0
1.09344 7.77378 0.0
1.16123 8.86925 0.0
1.16848 8.99094 0.0
1.21881 8.85563 0.0
1.15102 7.76016 0.0
1.64823 7.59791 0.0
1.74873 8.6737 0.0
1.76301 8.82921 0.0
1.80581 8.65175 0.0
1.70531 7.57596 0.0
2.19588 7.35023 0.0
2.3261 8.3857 0.0
2.3516 8.5903 0.0
2.38235 8.35599 0.0
2.25213 7.32051 0.0
2.73414 7.0325 0.0
2.89203 8.02432 0.0
2.93183 8.27576 0.0
2.94719 7.98747 0.0
2.7893 6.99565 0.0
3.26096 6.64673 0.0
3.44436 7.59188 0.0
3.50148 7.88741 0.0
3.49823 7.54807 0.0
3.31484 6.60292 0.0
3.77443 6.19462 0.0
3.98148 7.09221 0.0
4.05843 7.4268 0.0
4.03385 7.04161 0.0
3.8268 6.14402 0.0
4.27265 5.67801 0.0
4.50071 6.52409 0.0
4.60012 6.89384 0.0
4.55142 6.46691 0.0
4.32336 5.62083 0.0
4.75384 5.09897 0.0
5.00057 5.89178 0.0
5.12545 6.29395 0.0
5.04941 5.82824 0.0
4.80268 5.03543 0.0
5.21618 4.45975 0.0
5.47927 5.19803 0.0
5.63196 5.62746 0.0
5.52606 5.12838 0.0
5.26297 4.39009 0.0
5.65794 3.76282 0.0
5.93512 4.44587 0.0
6.11765 4.89662 0.0
5.97968 4.37038 0.0
5.70249 3.68732 0.0
6.07741 3.01088 0.0
6.36746 3.64049 0.0
6.58051 4.10392 0.0
6.40958 3.55945 0.0
6.11953 2.92984 0.0
6.47293 2.20686 0.0
6.77328 2.7817 0.0
7.01749 3.25012 0.0
6.81285 2.69541 0.0
6.5125 2.12057 0.0
6.84302 1.35386 0.0
7.15222 1.87512 0.0
7.42845 2.34188 0.0
7.18904 1.78394 0.0
6.87985 1.26268 0.0
7.18619 0.455213 0.0
7.50467 0.926693 0.0
7.8104 1.38041 0.0
7.53856 0.831011 0.0
7.22008 0.35953 0.0
7.50104 -0.485528 0.0
7.82759 -0.0633202 0.0
8.15961 0.367127 0.0
7.85846 -0.163154 0.0
7.53191 -0.585362 0.0
7.78637 -1.4647 0.0
8.12368 -1.08696 0.0
8.47662 -0.690521 0.0
8.15131 -1.19047 0.0
7.814 -1.56821 0.0
8.04097 -2.47838 0.0
8.39182 -2.14213 0.0
8.75561 -1.79226 0.0
8.41612 -2.24887 0.0
8.06526 -2.58512 0.0
8.26382 -3.52251 0.0
8.63046 -3.22693 0.0
8.99539 -2.9315 0.0
8.65136 -3.33646 0.0
8.28472 -3.63204 0.0
8.45407 -4.59285 0.0
8.8446 -4.33456 0.0
9.19567 -4.10118 0.0
8.86192 -4.44621 0.0
8.47139 -4.7045 0.0
8.61085 -5.68446 0.0
9.03297 -5.46394 0.0
9.34907 -5.29779 0.0
9.04672 -5.57707 0.0
8.6246 -5.79759 0.0
8.7336 -6.79076 0.0
9.19283 -6.61266 0.0
9.4558 -6.51018 0.0
9.20307 -6.72627 0.0
8.74384 -6.90438 0.0
8.82202 -7.89848 0.0
9.51836 -7.7207 0.0
8.90825 -8.95898 0.0
10.0458 -8.81746 0.0
9.99131 -7.71237 0.0
9.5567 -7.82334 0.0
8.86036 -8.00112 0.0
8.91245 -9.06464 0.0
8.93367 -9.86537 0.0
10.0735 -9.85685 0.0
10.05 -8.92312 0.0
-10.1759 -8.91484 0.0
-10.8215 -8.83305 0.0
-11.3064 -8.7745 0.0
-11.3192 -9.29038 0.0
-11.3322 -9.8418 0.0
-10.1995 -9.84856 0.0
-10.7856 -8.72058 0.0
-10.14 -8.80236 0.0
-10.0855 -7.69727 0.0
-10.595 -7.57344 0.0
-10.5873 -7.44647 0.0
-10.0777 -7.5703 0.0
-9.98834 -6.43037 0.0
-10.4523 -6.25999 0.0
-10.7614 -7.38751 0.0
-10.4406 -6.13058 0.0
-9.97662 -6.30096 0.0
-9.85191 -5.16467 0.0
-10.2789 -4.95147 0.0
-10.6851 -6.01631 0.0
-10.2632 -4.82271 0.0
-9.83616 -5.0359 0.0
-9.67663 -3.91556 0.0
-10.0731 -3.66309 0.0
-10.5586 -4.64817 0.0
-10.3847 -3.29722 0.0
-10.0534 -3.53623 0.0
-9.65689 -3.7887 0.0
-9.46318 -2.69052 0.0
-9.83233 -2.40235 0.0
-10.1597 -1.97559 0.0
-9.80857 -2.27789 0.0
-9.43942 -2.56605 0.0
-9.21232 -1.49474 0.0
-9.56294 -1.16791 0.0
-9.89063 -0.68744 0.0
-9.53533 -1.04661 0.0
-9.18472 -1.37344 0.0
-8.92516 -0.33329 0.0
-9.25945 0.0321865 0.0
-9.57544 0.557078 0.0
-9.22802 0.149876 0.0
-8.89372 -0.2156 0.0
-8.60272 0.789282 0.0
-8.92577 1.19829 0.0
-9.22106 1.7565 0.0
-8.89074 1.31176 0.0
-8.56769 0.902744 0.0
-8.24643 1.86842 0.0
-8.55833 2.32177 0.0
-8.82638 2.9018 0.0
-8.51976 2.43059 0.0
-8.20786 1.97725 0.0
-7.85759 2.89993 0.0
-8.16062 3.40258 0.0
-8.39738 3.99296 0.0
-8.11879 3.50625 0.0
-7.81576 3.0036 0.0
-7.43785 3.8797 0.0
-7.73051 4.43179 0.0
-7.93483 5.0239 0.0
-7.68554 4.52991 0.0
-7.39288 3.97782 0.0
-6.98884 4.80391 0.0
-7.2704 5.40726 0.0
-7.4401 5.98883 0.0
-7.22245 5.49945 0.0
-6.94089 4.89609 0.0
-6.51227 5.66896 0.0
-6.7824 6.32693 0.0
-6.91791 6.88878 0.0
-6.73174 6.4128 0.0
-6.46161 5.75482 0.0
-6.01008 6.47146 0.0
-6.2661 7.18242 0.0
-6.3694 7.71849 0.0
-6.21288 7.26164 0.0
-5.95687 6.55068 0.0
-5.48417 7.20832 0.0
-5.72416 7.9722 0.0
-5.79692 8.47514 0.0
-5.6686 8.04446 0.0
-5.42862 7.28058 0.0
-4.93654 7.87666 0.0
-5.15841 8.69279 0.0
-5.10073 8.75781 0.0
-4.87886 7.94168 0.0
-4.36926 8.47388 0.0
-4.57083 9.34102 0.0
-5.20285 9.15614 0.0
-4.51124 9.39855 0.0
-4.30967 8.53141 0.0
-3.78441 8.99762 0.0
-3.96348 9.91401 0.0
-4.58953 9.75913 0.0
-3.90219 9.96382 0.0
-3.72311 9.04743 0.0
-3.18414 9.44573 0.0
-3.33889 10.4112 0.0
-3.95893 10.2799 0.0
-3.27616 10.4531 0.0
-3.12141 9.4876 0.0
-2.5707 9.81628 0.0
-2.69862 10.8261 0.0
-3.31442 10.7207 0.0
-2.63466 10.8598 0.0
-2.50675 9.85003 0.0
-1.94637 10.1076 0.0
-2.04545 11.1586 0.0
-2.65794 11.0778 0.0
-1.98055 11.1839 0.0
-1.88146 10.1328 0.0
-1.3136 10.3178 0.0
-1.38141 11.3981 0.0
-1.99211 11.3495 0.0
-1.31599 11.4136 0.0
-1.24817 10.3334 0.0
-0.675174 10.4449 0.0
-0.709211 11.5061 0.0
-1.31974 11.5336 0.0
-0.64278 11.5164 0.0
-0.608743 10.4553 0.0
-0.0330853 10.4925 0.0
-0.0311578 11.5312 0.0
-0.0349158 11.6462 0.0
-0.642754 11.6341 0.0
0.035724 11.528 0.0
0.0337965 10.4893 0.0
0.609415 10.452 0.0
0.643462 11.5139 0.0
0.643324 11.6315 0.0
0.709227 11.5068 0.0
0.675179 10.4449 0.0
1.24818 10.3334 0.0
1.31605 11.4146 0.0
1.31981 11.5346 0.0
1.38147 11.399 0.0
1.3136 10.3179 0.0
1.88147 10.1328 0.0
1.98043 11.1826 0.0
1.99221 11.3507 0.0
2.04534 11.1573 0.0
1.94638 10.1076 0.0
2.50676 9.85003 0.0
2.63447 10.8582 0.0
2.65812 11.0792 0.0
2.69842 10.8245 0.0
2.57072 9.81627 0.0
3.12143 9.4876 0.0
3.27585 10.4511 0.0
3.31469 10.7223 0.0
3.33859 10.4092 0.0
3.18417 9.44572 0.0
3.72314 9.04742 0.0
3.90257 9.96559 0.0
3.95934 10.2819 0.0
3.96382 9.91578 0.0
3.78439 8.99762 0.0
4.30964 8.53142 0.0
4.51152 9.39983 0.0
4.58909 9.75734 0.0
4.57111 9.3423 0.0
4.36924 8.47389 0.0
4.87885 7.94169 0.0
5.10089 8.75846 0.0
5.20247 9.15487 0.0
5.15858 8.69344 0.0
4.93653 7.87666 0.0
5.42861 7.28058 0.0
5.66856 8.04436 0.0
5.7967 8.47449 0.0
5.72413 7.9721 0.0
5.48417 7.20832 0.0
5.95687 6.55068 0.0
6.21252 7.26065 0.0
6.36943 7.71859 0.0
6.26575 7.18143 0.0
6.0101 6.47146 0.0
6.46162 5.75481 0.0
6.73181 6.41292 0.0
6.91834 6.88977 0.0
6.78245 6.32706 0.0
6.51227 5.66896 0.0
6.94089 4.89609 0.0
7.22297 5.50054 0.0
7.44004 5.9887 0.0
7.2709 5.40836 0.0
6.98882 4.80391 0.0
7.39287 3.97783 0.0
7.68535 4.52961 0.0
7.93421 5.02281 0.0
7.73034 4.43148 0.0
7.43786 3.8797 0.0
7.81576 3.0036 0.0
8.11897 3.50652 0.0
8.39758 3.99327 0.0
8.16079 3.40286 0.0
7.85758 2.89994 0.0
8.20786 1.97725 0.0
8.52022 2.43125 0.0
8.82618 2.90152 0.0
8.55877 2.32243 0.0
8.24641 1.86843 0.0
8.56768 0.902757 0.0
8.88964 1.3104 0.0
9.22053 1.75586 0.0
8.92471 1.1969 0.0
8.60276 0.789258 0.0
8.89375 -0.215628 0.0
9.22873 0.150593 0.0
9.5767 0.558382 0.0
9.26012 0.0329475 0.0
8.92514 -0.333274 0.0
9.1847 -1.37342 0.0
9.53587 -1.04608 0.0
9.88984 -0.688139 0.0
9.56348 -1.16738 0.0
9.21231 -1.49472 0.0
9.43941 -2.56603 0.0
9.80883 -2.27765 0.0
10.159 -1.97606 0.0
9.83259 -2.40213 0.0
9.46317 -2.69051 0.0
9.65688 -3.78869 0.0
10.0533 -3.5363 0.0
10.3844 -3.29741 0.0
10.073 -3.66317 0.0
9.67663 -3.91557 0.0
9.83616 -5.03591 0.0
10.2627 -4.82298 0.0
10.5587 -4.6481 0.0
10.2784 -4.95176 0.0
9.85192 -5.16469 0.0
9.97662 -6.30099 0.0
10.4428 -6.12976 0.0
10.6857 -6.01613 0.0
10.4545 -6.25906 0.0
9.98831 -6.43029 0.0
10.0777 -7.57022 0.0
10.5856 -7.4468 0.0
10.759 -7.38801 0.0
10.5933 -7.57392 0.0
10.0855 -7.69733 0.0
10.14 -8.80243 0.0
10.7873 -8.72043 0.0
10.1759 -8.91484 0.0
10.1995 -9.84856 0.0
11.3322 -9.8418 0.0
11.3192 -9.28691 0.0
11.3064 -8.77449 0.0
10.8232 -8.83284 0.0
-11.4556 -9.86554 0.0
-11.4426 -9.31411 0.0
-12.5362 -9.28358 0.0
-12.549 -9.86093 0.0
-11.4245 -8.66713 0.0
-11.397 -7.97423 0.0
-12.4896 -7.90379 0.0
-12.5147 -8.5311 0.0
-11.3534 -7.26796 0.0
-11.3014 -6.50675 0.0
-12.3936 -6.39233 0.0
-12.4342 -6.99102 0.0
-11.2377 -5.83313 0.0
-11.1571 -5.02825 0.0
-12.2499 -4.86896 0.0
-12.3031 -5.41879 0.0
-11.0774 -4.4068 0.0
-10.9655 -3.56685 0.0
-12.0598 -3.36213 0.0
-12.1221 -3.85923 0.0
-11.5501 -2.50893 0.0
-10.8494 -2.99063 0.0
-10.6309 -1.75714 0.0
-10.9759 -1.49718 0.0
-11.298 -1.04282 0.0
-10.9495 -1.35904 0.0
-10.6044 -1.619 0.0
-10.3482 -0.415635 0.0
-10.6704 -0.123967 0.0
-10.9972 0.38721 0.0
-10.6394 0.0113798 0.0
-10.3172 -0.280289 0.0
-10.0246 0.887852 0.0
-10.3263 1.20982 0.0
-10.6456 1.76883 0.0
-10.291 1.34113 0.0
-9.9893 1.01916 0.0
-9.66142 2.14748 0.0
-9.94867 2.50403 0.0
-10.2505 3.10019 0.0
-9.90938 2.6306 0.0
-9.62213 2.27404 0.0
-9.26033 3.35816 0.0
-9.53398 3.74952 0.0
-9.81072 4.37127 0.0
-9.49074 3.8709 0.0
-9.21709 3.47954 0.0
-8.8228 4.51524 0.0
-9.08636 4.94667 0.0
-9.33281 5.58187 0.0
-9.03949 5.06228 0.0
-8.77593 4.63085 0.0
-8.35071 5.61412 0.0
-8.60347 6.08587 0.0
-8.81763 6.72528 0.0
-8.5531 6.19528 0.0
-8.30034 5.72353 0.0
-7.84586 6.65057 0.0
-8.08804 7.16503 0.0
-8.26676 7.79508 0.0
-8.03435 7.26782 0.0
-7.79217 6.75336 0.0
-7.31019 7.62058 0.0
-7.54237 8.18212 0.0
-7.6855 8.79245 0.0
-7.48566 8.27783 0.0
-7.25348 7.7163 0.0
-6.74587 8.52035 0.0
-6.96592 9.12791 0.0
-7.07514 9.71165 0.0
-6.90638 9.21621 0.0
-6.68633 8.60864 0.0
-6.15503 9.34642 0.0
-6.36161 10.0009 0.0
-6.43835 10.5496 0.0
-6.29946 10.0814 0.0
-6.09289 9.42695 0.0
-5.53992 10.0956 0.0
-5.73139 10.7972 0.0
-5.77776 11.3035 0.0
-5.66689 10.8696 0.0
-5.47542 10.168 0.0
-4.90285 10.7649 0.0
-5.0774 11.5135 0.0
-5.09603 11.9709 0.0
-5.01079 11.5775 0.0
-4.83623 10.829 0.0
-4.24619 11.3518 0.0
-4.40189 12.1465 0.0
-4.3953 12.5471 0.0
-4.33338 12.202 0.0
-4.17768 11.4073 0.0
-3.57233 11.8538 0.0
-3.70759 12.6957 0.0
-3.67935 13.0347 0.0
-3.6375 12.7423 0.0
-3.50224 11.9005 0.0
-2.88382 12.2689 0.0
-2.9962 13.1539 0.0
-2.95032 13.4297 0.0
-2.92476 13.1915 0.0
-2.81239 12.3065 0.0
-2.18323 12.5951 0.0
-2.27077 13.5212 0.0
-2.21102 13.7305 0.0
-2.19825 13.5495 0.0
-2.11071 12.6234 0.0
-1.47326 12.8307 0.0
-1.53404 13.7954 0.0
-1.46442 13.9359 0.0
-1.46074 13.8144 0.0
-1.39997 12.8497 0.0
-0.756845 12.9746 0.0
-0.789071 13.9752 0.0
-0.715003 14.0908 0.0
-0.715482 13.986 0.0
-0.683257 12.9854 0.0
-0.0372435 13.0272 0.0
-0.0352626 13.9579 0.0
-0.0390796 14.0599 0.0
0.0399524 13.9551 0.0
0.0379715 13.0243 0.0
0.683973 12.9825 0.0
0.716149 13.9819 0.0
0.715546 14.0867 0.0
0.789031 13.974 0.0
0.756856 12.9746 0.0
1.39998 12.8497 0.0
1.46068 13.8132 0.0
1.46449 13.937 0.0
1.53398 13.7942 0.0
1.47328 12.8307 0.0
2.11073 12.6234 0.0
2.19812 13.548 0.0
2.21115 13.7318 0.0
2.27064 13.5197 0.0
2.18324 12.5951 0.0
2.8124 12.3065 0.0
2.92454 13.1897 0.0
2.95053 13.4312 0.0
2.99598 13.1521 0.0
2.88385 12.2689 0.0
3.50226 11.9005 0.0
3.63753 12.7424 0.0
3.67967 13.0365 0.0
3.7076 12.6958 0.0
3.57233 11.8538 0.0
4.17767 11.4073 0.0
4.33376 12.2039 0.0
4.39529 12.547 0.0
4.40225 12.1484 0.0
4.24616 11.3518 0.0
4.83621 10.829 0.0
5.01108 11.5789 0.0
5.09554 11.9689 0.0
5.0777 11.5148 0.0
4.90283 10.7649 0.0
5.4754 10.168 0.0
5.66704 10.8703 0.0
5.77737 11.3022 0.0
5.73155 10.7978 0.0
5.53991 10.0956 0.0
6.09288 9.42695 0.0
6.29938 10.0812 0.0
6.43813 10.549 0.0
6.36153 10.0006 0.0
6.15503 9.34642 0.0
6.68633 8.60865 0.0
6.90591 9.21494 0.0
7.07523 9.71188 0.0
6.96547 9.12664 0.0
6.74589 8.52034 0.0
7.2535 7.71629 0.0
7.48567 8.27778 0.0
7.68605 8.79371 0.0
7.54236 8.18208 0.0
7.31019 7.62058 0.0
7.79217 6.75336 0.0
8.03484 7.26885 0.0
8.26678 7.79512 0.0
8.08852 7.16607 0.0
7.84584 6.65058 0.0
8.30032 5.72354 0.0
8.55278 6.19474 0.0
8.81705 6.72427 0.0
8.60318 6.08531 0.0
8.35072 5.61411 0.0
8.77594 4.63084 0.0
9.03957 5.06239 0.0
9.33316 5.58241 0.0
9.08643 4.94679 0.0
8.8228 4.51524 0.0
9.21709 3.47954 0.0
9.49115 3.87148 0.0
9.81063 4.37115 0.0
9.53437 3.75011 0.0
9.26031 3.35817 0.0
9.62212 2.27406 0.0
9.90808 2.62903 0.0
10.25 3.09965 0.0
9.94743 2.50242 0.0
9.66147 2.14744 0.0
9.98934 1.01912 0.0
10.2919 1.34197 0.0
10.647 1.77031 0.0
10.3271 1.21073 0.0
10.0246 0.887876 0.0
10.3172 -0.280254 0.0
10.6378 0.0100074 0.0
10.9963 0.386407 0.0
10.6689 -0.125423 0.0
10.3483 -0.415684 0.0
10.6045 -1.61905 0.0
10.9504 -1.35841 0.0
11.2997 -1.04158 0.0
10.9768 -1.49647 0.0
10.6309 -1.75711 0.0
10.8494 -2.99059 0.0
11.5492 -2.50951 0.0
11.92 -2.39217 0.0
11.5992 -2.58729 0.0
10.8994 -3.06837 0.0
10.9668 -3.48692 0.0
12.0614 -3.28456 0.0
12.2513 -4.79295 0.0
12.1425 -3.92976 0.0
11.0978 -4.47734 0.0
11.1581 -4.94897 0.0
12.3946 -6.31776 0.0
12.3185 -5.49176 0.0
11.2532 -5.90611 0.0
11.302 -6.42776 0.0
12.4903 -7.83257 0.0
12.4446 -7.06462 0.0
11.3638 -7.34156 0.0
11.3974 -7.89724 0.0
12.5363 -9.22383 0.0
12.52 -8.59912 0.0
11.4298 -8.73515 0.0
11.4425 -9.24756 0.0
-11.1582 -4.95064 0.0
-11.0977 -4.47735 0.0
-12.1425 -3.92977 0.0
-12.2511 -4.79135 0.0
11.1569 -5.02659 0.0
11.2376 -5.83314 0.0
12.303 -5.41879 0.0
12.2501 -4.87057 0.0
-11.3022 -6.43002 0.0
-11.2531 -5.90611 0.0
-12.3185 -5.49178 0.0
-12.3944 -6.3156 0.0
11.3011 -6.50451 0.0
11.3533 -7.26796 0.0
12.4341 -6.99102 0.0
12.3937 -6.39451 0.0
-10.967 -3.48813 0.0
-10.8994 -3.06838 0.0
-11.6002 -2.58669 0.0
-11.9199 -2.39217 0.0
-12.0612 -3.2834 0.0
10.9653 -3.56565 0.0
11.0773 -4.40681 0.0
12.1221 -3.85923 0.0
12.0599 -3.36329 0.0
-11.9206 -2.2577 0.0
-11.6008 -2.45221 0.0
-11.0265 -1.44046 0.0
-11.3751 -1.12424 0.0
-11.6724 -0.900231 0.0
11.3768 -1.12299 0.0
11.0274 -1.43982 0.0
11.5998 -2.45286 0.0
11.9206 -2.25774 0.0
11.6725 -0.900263 0.0
-11.6429 -0.754527 0.0
-11.3456 -0.978539 0.0
-10.718 -0.0596908 0.0
-11.0758 0.316139 0.0
-11.3536 0.567911 0.0
11.0749 0.315367 0.0
10.7164 -0.0610328 0.0
11.3472 -0.977191 0.0
11.6429 -0.754462 0.0
11.3536 0.567966 0.0
-11.3198 0.709348 0.0
-11.0419 0.457576 0.0
-10.371 1.28019 0.0
-10.7256 1.70789 0.0
-10.9908 1.99136 0.0
10.727 1.70937 0.0
10.3719 1.28103 0.0
11.0411 0.456715 0.0
11.3198 0.709314 0.0
10.9908 1.99133 0.0
-11.3974 -7.90019 0.0
-11.3637 -7.34157 0.0
-12.4445 -7.06463 0.0
-12.49 -7.82975 0.0
11.3967 -7.97129 0.0
11.4244 -8.66713 0.0
12.5146 -8.5311 0.0
12.4896 -7.90663 0.0
-10.9528 2.12788 0.0
-10.6876 1.84441 0.0
-9.99075 2.57961 0.0
-10.3319 3.04921 0.0
-10.5856 3.36472 0.0
10.3314 3.04869 0.0
9.98943 2.57807 0.0
10.689 1.84597 0.0
10.9528 2.12793 0.0
10.5856 3.36476 0.0
-10.5436 3.49603 0.0
-10.2899 3.18051 0.0
-9.57339 3.82984 0.0
-9.89337 4.3302 0.0
-10.1398 4.68316 0.0
9.8933 4.33007 0.0
9.57381 3.8304 0.0
10.2895 3.17994 0.0
10.5437 3.49601 0.0
10.1398 4.68315 0.0
-10.0941 4.80871 0.0
-9.84767 4.45575 0.0
-9.12331 5.03115 0.0
-9.41663 5.55075 0.0
-9.65528 5.94183 0.0
9.41697 5.55129 0.0
9.12339 5.03127 0.0
9.84759 4.45562 0.0
10.0941 4.80871 0.0
9.65529 5.94183 0.0
-9.6059 6.06129 0.0
-9.36725 5.67021 0.0
-8.63791 6.1742 0.0
-8.90244 6.70421 0.0
-9.13387 7.13623 0.0
8.90187 6.70319 0.0
8.6376 6.17366 0.0
9.36758 5.67076 0.0
9.60589 6.0613 0.0
9.13385 7.13624 0.0
-9.08103 7.24915 0.0
-8.84961 6.81712 0.0
-8.12002 7.25687 0.0
-8.35243 7.78413 0.0
-8.57759 8.26195 0.0
8.35247 7.78416 0.0
8.12053 7.25789 0.0
8.84907 6.81609 0.0
9.08105 7.24913 0.0
8.57761 8.26194 0.0
-8.52154 8.3679 0.0
-8.29638 7.89008 0.0
-7.57199 8.27711 0.0
-7.77183 8.79174 0.0
-7.98861 9.31485 0.0
7.77236 8.793 0.0
7.57197 8.27708 0.0
8.2964 7.89012 0.0
8.52153 8.3679 0.0
7.98861 9.31485 0.0
-7.92945 9.4135 0.0
-7.71267 8.89039 0.0
-6.99309 9.22585 0.0
-7.16185 9.72129 0.0
-7.36904 10.2911 0.0
7.16192 9.72154 0.0
6.9926 9.22459 0.0
7.71318 8.89166 0.0
7.92943 9.41352 0.0
7.36902 10.2911 0.0
-7.30703 10.382 0.0
-7.09984 9.81225 0.0
-6.3863 10.1015 0.0
-6.52519 10.5697 0.0
-6.72121 11.1869 0.0
6.52498 10.5691 0.0
6.38622 10.1012 0.0
7.09992 9.8125 0.0
7.30702 10.382 0.0
6.72121 11.1869 0.0
-6.65658 11.2699 0.0
-6.46055 10.6526 0.0
-5.75359 10.9002 0.0
-5.86446 11.3341 0.0
-6.04753 11.9991 0.0
5.8641 11.3327 0.0
5.75377 10.9008 0.0
6.46035 10.652 0.0
6.65658 11.2699 0.0
6.04753 11.9991 0.0
-5.9805 12.0737 0.0
-5.79743 11.4087 0.0
-5.09707 11.6186 0.0
-5.18231 12.0119 0.0
-5.35043 12.7245 0.0
5.18187 12.01 0.0
5.09741 11.62 0.0
5.79708 11.4074 0.0
5.98051 12.0737 0.0
5.35045 12.7245 0.0
-10.9885 -4.4134 0.0
-10.6153 -4.59948 0.0
-10.1299 -3.6144 0.0
-10.4612 -3.37539 0.0
-10.8091 -3.1537 0.0
-10.8767 -3.57344 0.0
10.4609 -3.37558 0.0
10.1298 -3.61447 0.0
10.6155 -4.5994 0.0
10.9885 -4.41339 0.0
10.8765 -3.57224 0.0
10.8091 -3.15369 0.0
-11.1475 -5.82946 0.0
-10.744 -5.97675 0.0
-10.3378 -4.91191 0.0
-10.6332 -4.73737 0.0
-11.0064 -4.55129 0.0
-11.0669 -5.02458 0.0
10.6333 -4.73728 0.0
10.3373 -4.91216 0.0
10.7445 -5.97652 0.0
11.1475 -5.82944 0.0
11.0667 -5.0229 0.0
11.0064 -4.55127 0.0
-5.28125 12.7905 0.0
-5.11313 12.0779 0.0
-4.41899 12.2536 0.0
-4.48092 12.5987 0.0
-4.63245 13.3603 0.0
4.48093 12.5986 0.0
4.41941 12.2555 0.0
5.1127 12.076 0.0
5.28127 12.7905 0.0
4.63248 13.3603 0.0
-10.7869 -3.0187 0.0
-10.439 -3.24039 0.0
-9.88657 -2.34552 0.0
-10.2377 -2.04323 0.0
-10.5684 -1.78521 0.0
10.2371 -2.04372 0.0
9.88684 -2.34531 0.0
10.4387 -3.24059 0.0
10.7869 -3.0187 0.0
10.5684 -1.78522 0.0
-10.5424 -1.65347 0.0
-10.2117 -1.91149 0.0
-9.61491 -1.10381 0.0
-9.97021 -0.744634 0.0
-10.2862 -0.450114 0.0
9.96945 -0.745366 0.0
9.61548 -1.10331 0.0
10.211 -1.91199 0.0
10.5424 -1.65349 0.0
10.2862 -0.450125 0.0
-4.5614 13.4174 0.0
-4.40987 12.6558 0.0
-3.72215 12.8044 0.0
-3.76401 13.0968 0.0
-3.89621 13.904 0.0
3.7643 13.0986 0.0
3.72216 12.8045 0.0
4.40985 12.6557 0.0
4.5614 13.4174 0.0
3.89621 13.904 0.0
9.65773 0.511535 0.0
9.30977 0.103746 0.0
9.93949 -0.61734 0.0
10.2562 -0.322099 0.0
9.9636 0.846031 0.0
-10.2562 -0.322084 0.0
-9.94024 -0.616603 0.0
-9.30907 0.103024 0.0
-9.65649 0.510226 0.0
-9.96359 0.846057 0.0
-9.9299 0.969812 0.0
-9.6228 0.633981 0.0
-8.97313 1.2752 0.0
-9.30345 1.71994 0.0
-9.60202 2.09812 0.0
9.3029 1.71932 0.0
8.97201 1.27386 0.0
9.624 0.635341 0.0
9.92986 0.969837 0.0
9.60199 2.09816 0.0
-3.82348 13.952 0.0
-3.69128 13.1448 0.0
-3.00812 13.264 0.0
-3.03368 13.5022 0.0
-3.14431 14.3533 0.0
3.03385 13.5037 0.0
3.00786 13.2622 0.0
3.69155 13.1466 0.0
3.82346 13.952 0.0
3.14429 14.3533 0.0
-0.680803 12.8641 0.0
-0.644442 11.761 0.0
-0.0366035 11.7731 0.0
-0.0347895 12.9058 0.0
0.0323003 11.7699 0.0
0.0360582 11.6549 0.0
0.643658 11.7584 0.0
0.680116 12.8608 0.0
0.0341143 12.9026 0.0
-3.07021 14.392 0.0
-2.95958 13.5409 0.0
-2.28003 13.6324 0.0
-2.29279 13.8133 0.0
-2.37955 14.7063 0.0
2.29289 13.8146 0.0
2.27986 13.6309 0.0
2.95975 13.5424 0.0
3.07019 14.392 0.0
2.37953 14.7063 0.0
8.90977 2.87529 0.0
8.60381 2.40502 0.0
9.26556 1.83845 0.0
9.56465 2.21728 0.0
9.20285 3.30139 0.0
-9.56463 2.21729 0.0
-9.26607 1.8391 0.0
-8.60334 2.40437 0.0
-8.90995 2.87558 0.0
-9.20284 3.30141 0.0
-1.39288 12.7285 0.0
-1.32396 11.6601 0.0
-0.713427 11.6326 0.0
-0.713401 11.7503 0.0
-0.749762 12.8533 0.0
0.713299 11.751 0.0
0.713437 11.6334 0.0
1.32402 11.6611 0.0
1.39288 12.7285 0.0
0.749756 12.8534 0.0
-2.30436 14.7355 0.0
-2.2176 13.8425 0.0
-1.54062 13.9075 0.0
-1.54429 14.0289 0.0
-1.60485 14.9612 0.0
1.54434 14.0301 0.0
1.54053 13.9062 0.0
2.2177 13.8438 0.0
2.30434 14.7355 0.0
1.60484 14.9612 0.0
-1.52886 14.9807 0.0
-1.4683 14.0485 0.0
-0.792954 14.0878 0.0
-0.792475 14.1926 0.0
-0.823323 15.1167 0.0
0.792279 14.1913 0.0
0.792882 14.0865 0.0
1.46834 14.0496 0.0
1.52884 14.9807 0.0
0.823298 15.1167 0.0
-0.746667 15.1278 0.0
-0.715818 14.2036 0.0
-0.0398948 14.1727 0.0
-0.0380813 15.173 0.0
0.0354958 14.1698 0.0
0.0393128 14.0678 0.0
0.714906 14.1994 0.0
0.745925 15.1248 0.0
0.0373093 15.1701 0.0
-2.09961 12.5048 0.0
-2.00018 11.4752 0.0
-1.38948 11.5238 0.0
-1.39323 11.6437 0.0
-1.46216 12.7121 0.0
1.39329 11.6448 0.0
1.38954 11.5247 0.0
2.00028 11.4764 0.0
2.09961 12.5048 0.0
1.46216 12.7121 0.0
-9.16199 3.41548 0.0
-8.8691 2.98965 0.0
-8.20335 3.49043 0.0
-8.48194 3.97715 0.0
-8.7677 4.45117 0.0
8.48213 3.97745 0.0
8.20352 3.49071 0.0
8.86891 2.98937 0.0
9.16199 3.41547 0.0
8.7677 4.45116 0.0
-2.79704 12.1898 0.0
-2.66938 11.2024 0.0
-2.0569 11.2831 0.0
-2.06846 11.4488 0.0
-2.16789 12.4784 0.0
2.06854 11.4499 0.0
2.05676 11.2818 0.0
2.66954 11.2037 0.0
2.79703 12.1898 0.0
2.16787 12.4784 0.0
-8.72344 4.5598 0.0
-8.43768 4.08578 0.0
-7.77081 4.52461 0.0
-8.02009 5.01861 0.0
-8.29822 5.54308 0.0
8.01949 5.01751 0.0
7.77063 4.52431 0.0
8.43786 4.0861 0.0
8.72343 4.55981 0.0
8.29822 5.54308 0.0
-3.48266 11.786 0.0
-3.32911 10.8437 0.0
-2.71331 10.949 0.0
-2.73659 11.167 0.0
-2.86425 12.1544 0.0
2.73674 11.1684 0.0
2.71309 10.9474 0.0
3.32936 10.8453 0.0
3.48265 11.786 0.0
2.86423 12.1544 0.0
-8.25076 5.64584 0.0
-7.97263 5.12137 0.0
-7.30821 5.50473 0.0
-7.52586 5.99411 0.0
-7.79628 6.57289 0.0
7.52582 5.99397 0.0
7.30875 5.50581 0.0
7.97205 5.12026 0.0
8.25078 5.64584 0.0
7.7963 6.57287 0.0
-11.2622 -7.25425 0.0
-10.8222 -7.35823 0.0
-10.513 -6.23071 0.0
-10.7576 -6.11643 0.0
-11.1611 -5.96915 0.0
-11.2101 -6.49305 0.0
10.7582 -6.11631 0.0
10.5153 -6.22994 0.0
10.8198 -7.3589 0.0
11.2622 -7.25434 0.0
11.21 -6.49089 0.0
11.1611 -5.96924 0.0
-7.74582 6.66938 0.0
-7.4754 6.0906 0.0
-6.8177 6.4287 0.0
-7.00387 6.90468 0.0
-7.26385 7.5366 0.0
7.00429 6.90568 0.0
6.81775 6.42883 0.0
7.47534 6.09047 0.0
7.74582 6.66938 0.0
7.26385 7.5366 0.0
-4.15394 11.2956 0.0
-3.97682 10.4009 0.0
-3.35678 10.5322 0.0
-3.39504 10.7998 0.0
-3.54859 11.7422 0.0
3.39528 10.8014 0.0
3.35644 10.5302 0.0
3.97719 10.4028 0.0
4.15392 11.2957 0.0
3.54857 11.7422 0.0
-7.21051 7.62649 0.0
-6.95053 6.99458 0.0
-6.29872 7.28823 0.0
-6.45524 7.74508 0.0
-6.7029 8.43054 0.0
6.45526 7.74518 0.0
6.29834 7.28724 0.0
6.95094 6.99558 0.0
7.21049 7.6265 0.0
6.70289 8.43055 0.0
-4.80837 10.7207 0.0
-4.61051 9.87778 0.0
-3.98446 10.0327 0.0
-4.0412 10.3488 0.0
-4.21832 11.2435 0.0
4.04162 10.3507 0.0
3.98484 10.0344 0.0
4.6101 9.87599 0.0
4.80839 10.7207 0.0
4.21834 11.2435 0.0
5.88212 8.51175 0.0
5.75398 8.08162 0.0
6.39928 7.82811 0.0
6.64691 8.51348 0.0
6.11561 9.25125 0.0
-6.64692 8.51348 0.0
-6.39925 7.82801 0.0
-5.75401 8.08171 0.0
-5.88233 8.5124 0.0
-6.11562 9.25125 0.0
-5.44358 10.0636 0.0
-5.22687 9.27209 0.0
-4.59485 9.45698 0.0
-4.67315 9.81755 0.0
-4.87101 10.6605 0.0
4.67273 9.81576 0.0
4.59517 9.45824 0.0
5.22653 9.27081 0.0
5.44359 10.0636 0.0
4.87102 10.6605 0.0
-6.05719 9.3269 0.0
-5.82391 8.58805 0.0
-5.1854 8.80569 0.0
-5.28751 9.20402 0.0
-5.50422 9.99554 0.0
5.28716 9.20274 0.0
5.18558 8.80634 0.0
5.8237 8.58739 0.0
6.0572 9.3269 0.0
5.50423 9.99553 0.0
-11.3326 -8.64465 0.0
-10.8478 -8.7032 0.0
-10.6572 -7.55606 0.0
-10.8313 -7.4971 0.0
-11.2714 -7.39313 0.0
-11.3051 -7.95175 0.0
10.829 -7.49762 0.0
10.6555 -7.55641 0.0
10.8495 -8.70293 0.0
11.3326 -8.64458 0.0
11.3049 -7.94875 0.0
11.2714 -7.39307 0.0
-0.60654 10.3275 0.0
-0.571712 9.20756 0.0
-0.0310455 9.21643 0.0
-0.0308824 10.3647 0.0
0.0302348 9.21319 0.0
0.0305441 9.09585 0.0
0.571178 9.20449 0.0
0.606016 10.3242 0.0
0.0303978 10.3615 0.0
-1.24084 10.2061 0.0
-1.17314 9.11911 0.0
-0.629614 9.078 0.0
-0.633015 9.19774 0.0
-0.667842 10.3176 0.0
0.633006 9.19792 0.0
0.629618 9.07818 0.0
1.17315 9.11937 0.0
1.24084 10.2061 0.0
0.667844 10.3176 0.0
-1.87021 10.0066 0.0
-1.77156 8.95636 0.0
-1.22738 8.98291 0.0
-1.23464 9.10457 0.0
-1.30234 10.1916 0.0
1.23465 9.10484 0.0
1.22739 8.98315 0.0
1.77159 8.95673 0.0
1.87021 10.0066 0.0
1.30234 10.1916 0.0
-2.49127 9.72577 0.0
-2.36372 8.71598 0.0
-1.81805 8.77845 0.0
-1.83224 8.9331 0.0
-1.93089 9.98329 0.0
1.83227 8.93346 0.0
1.818 8.77794 0.0
2.36378 8.7165 0.0
2.49127 9.72577 0.0
1.93088 9.98329 0.0
-3.10163 9.36565 0.0
-2.94731 8.3995 0.0
-2.39803 8.48118 0.0
-2.42337 8.68455 0.0
-2.55092 9.69433 0.0
2.42343 8.68506 0.0
2.39793 8.48046 0.0
2.94742 8.40023 0.0
3.10162 9.36566 0.0
2.55091 9.69434 0.0
-3.6991 8.92837 0.0
-3.52021 8.00873 0.0
-2.96628 8.11081 0.0
-3.00581 8.36051 0.0
-3.16013 9.32667 0.0
3.00592 8.36125 0.0
2.96611 8.10981 0.0
3.5204 8.00975 0.0
3.69909 8.92837 0.0
3.16012 9.32667 0.0
-4.28148 8.41581 0.0
-4.0803 7.54521 0.0
-3.52068 7.66923 0.0
-3.57734 7.96237 0.0
-3.75623 8.88201 0.0
3.57753 7.96339 0.0
3.5204 7.66786 0.0
4.0806 7.54659 0.0
4.28147 8.41581 0.0
3.75622 8.88201 0.0
-9.59296 -3.8198 0.0
-9.24995 -4.04665 0.0
-8.70688 -3.28103 0.0
-9.07141 -2.98592 0.0
-9.39925 -2.72161 0.0
9.07121 -2.98605 0.0
8.70628 -3.28148 0.0
9.25059 -4.0462 0.0
9.59294 -3.81978 0.0
9.39923 -2.72159 0.0
-9.37627 -2.60483 0.0
-9.04843 -2.86914 0.0
-8.46881 -2.18681 0.0
-8.83342 -1.83615 0.0
-9.14918 -1.53352 0.0
8.83277 -1.83679 0.0
8.46898 -2.18666 0.0
9.04825 -2.86929 0.0
9.37628 -2.60484 0.0
9.14918 -1.53353 0.0
-4.84664 7.83007 0.0
-4.62548 7.01064 0.0
-4.05924 7.15853 0.0
-4.13585 7.49167 0.0
-4.33704 8.36227 0.0
4.13617 7.49306 0.0
4.05922 7.15847 0.0
4.6255 7.0107 0.0
4.84664 7.83007 0.0
4.33704 8.36227 0.0
-9.12273 -1.42001 0.0
-8.80698 -1.72265 0.0
-8.20144 -1.12214 0.0
-8.55407 -0.726043 0.0
-8.86317 -0.379864 0.0
8.55497 -0.725065 0.0
8.20203 -1.12151 0.0
8.80633 -1.72329 0.0
9.12274 -1.42003 0.0
8.86318 -0.37988 0.0
8.23905 0.342541 0.0
7.90703 -0.0879059 0.0
8.52519 -0.615273 0.0
8.8334 -0.270088 0.0
8.54241 0.734798 0.0
-8.83342 -0.270104 0.0
-8.52433 -0.616283 0.0
-7.90783 -0.086919 0.0
-8.23981 0.343477 0.0
-8.54243 0.734778 0.0
9.27006 -4.16594 0.0
8.91899 -4.39932 0.0
9.40614 -5.2509 0.0
9.77194 -5.05986 0.0
9.61241 -3.93951 0.0
-9.77193 -5.05983 0.0
-9.40703 -5.2504 0.0
-8.91816 -4.39983 0.0
-9.26939 -4.16634 0.0
-9.6124 -3.93949 0.0
7.89074 1.36583 0.0
7.58501 0.912108 0.0
8.20607 0.448225 0.0
8.50943 0.840482 0.0
8.18816 1.80616 0.0
-8.50941 0.840493 0.0
-8.20679 0.449193 0.0
-7.58435 0.911165 0.0
-7.88992 1.36465 0.0
-8.18814 1.80617 0.0
-5.39247 7.17351 0.0
-5.15424 6.40871 0.0
-4.57952 6.57928 0.0
-4.67923 6.95015 0.0
-4.9004 7.76959 0.0
4.67926 6.95021 0.0
4.57985 6.58046 0.0
5.15388 6.4075 0.0
5.39248 7.1735 0.0
4.90041 7.76958 0.0
-8.15203 1.9074 0.0
-7.8538 1.46588 0.0
-7.23396 1.87179 0.0
-7.50967 2.33767 0.0
-7.80175 2.83009 0.0
7.50946 2.33738 0.0
7.23323 1.87062 0.0
7.85459 1.46709 0.0
8.15201 1.90742 0.0
7.80173 2.83011 0.0
-7.7626 2.92652 0.0
-7.47052 2.4341 0.0
-6.85457 2.78703 0.0
-7.09977 3.25733 0.0
-7.3847 3.80262 0.0
7.09895 3.25575 0.0
6.85474 2.78733 0.0
7.47034 2.4338 0.0
7.7626 2.92652 0.0
7.3847 3.80262 0.0
5.20566 6.34029 0.0
5.08078 5.93812 0.0
5.66333 5.73734 0.0
5.91696 6.44865 0.0
5.44426 7.10629 0.0
-5.91695 6.44866 0.0
-5.66353 5.73791 0.0
-5.0806 5.93756 0.0
-5.20603 6.3415 0.0
-5.44426 7.10629 0.0
-7.34269 3.89386 0.0
-7.05776 3.34857 0.0
-6.44831 3.65476 0.0
-6.66156 4.11862 0.0
-6.93865 4.71995 0.0
6.6621 4.11974 0.0
6.44905 3.65631 0.0
7.05696 3.34698 0.0
7.34271 3.89385 0.0
6.93866 4.71993 0.0
5.71294 5.66367 0.0
5.56024 5.23424 0.0
6.15184 5.00249 0.0
6.41809 5.65835 0.0
5.96656 6.37499 0.0
-6.41809 5.65834 0.0
-6.15176 5.00229 0.0
-5.56031 5.23444 0.0
-5.71315 5.66424 0.0
-5.96657 6.37499 0.0
-6.89396 4.80564 0.0
-6.61687 4.20431 0.0
-6.01701 4.47301 0.0
-6.19901 4.92245 0.0
-6.46534 5.5785 0.0
6.19908 4.92265 0.0
6.01655 4.4719 0.0
6.61738 4.20545 0.0
6.89394 4.80565 0.0
6.46532 5.57851 0.0
12.5489 -9.86093 0.0
12.5361 -9.28691 0.0
11.4424 -9.31064 0.0
11.4555 -9.86553 0.0
-11.4425 -9.25104 0.0
-11.4297 -8.73515 0.0
-12.5198 -8.59912 0.0
-12.5361 -9.2205 0.0
-9.91248 -6.31832 0.0
-9.51475 -6.4724 0.0
-9.10606 -5.53912 0.0
-9.42288 -5.37259 0.0
-9.78777 -5.18202 0.0
9.42197 -5.37306 0.0
9.10586 -5.53921 0.0
9.51495 -6.47231 0.0
9.91247 -6.31831 0.0
9.78777 -5.18201 0.0
-10.0139 -7.58182 0.0
-9.57782 -7.69317 0.0
-9.26542 -6.69783 0.0
-9.5268 -6.59597 0.0
-9.92453 -6.44189 0.0
9.52698 -6.59584 0.0
9.26401 -6.69832 0.0
9.5793 -7.69275 0.0
10.0139 -7.58177 0.0
9.92451 -6.44184 0.0
</DataArray>
</Points>
<Cells>
<DataArray type="Int32" Name="connectivity" format="ascii">
0 1 2 3 
4 5 6 7 
8 9 10 11 
12 13 14 15 
16 17 18 19 
20 21 22 23 
24 25 26 27 
28 29 30 31 
32 33 34 35 
36 37 38 39 
40 41 42 43 
44 45 46 47 
48 49 50 51 
52 53 54 55 
56 57 58 59 
60 61 62 63 
64 65 66 67 
68 69 70 71 
72 73 74 75 
76 77 78 79 
80 81 82 83 
84 85 86 87 
88 89 90 91 
92 93 94 95 
96 97 98 99 
100 101 102 103 
104 105 106 107 
108 109 110 111 
112 113 114 115 
116 117 118 119 
120 121 122 123 
124 125 126 127 
128 129 130 131 
132 133 134 135 
136 137 138 139 
140 141 142 143 
144 145 146 147 
148 149 150 151 
152 153 154 155 
156 157 158 159 
160 161 162 163 
164 165 166 167 
168 169 170 171 
172 173 174 175 
176 177 178 179 
180 181 182 183 
184 185 186 187 
188 189 190 191 
192 193 194 195 
196 197 198 199 
200 201 202 203 
204 205 206 207 
208 209 210 211 
212 213 214 215 
216 217 218 219 
220 221 222 223 
224 225 226 227 
228 229 230 231 
232 233 234 235 
236 237 238 239 
240 241 242 243 
244 245 246 247 
248 249 250 251 
252 253 254 255 
256 257 258 259 
260 261 262 263 
264 265 266 267 
268 269 270 271 
272 273 274 275 
276 277 278 279 
280 281 282 283 
284 285 286 287 
288 289 290 291 
292 293 294 295 
296 297 298 299 
300 301 302 303 
304 305 306 307 
308 309 310 311 
312 313 314 315 
316 317 318 319 
320 321 322 323 
324 325 326 327 
328 329 330 331 
332 333 334 335 
336 337 338 339 
340 341 342 343 
344 345 346 347 
348 349 350 351 
352 353 354 355 
356 357 358 359 
360 361 362 363 
364 365 366 367 
368 369 370 371 
372 373 374 375 
376 377 378 379 
380 381 382 383 
384 385 386 387 
388 389 390 391 
392 393 394 395 
396 397 398 399 
400 401 402 403 
404 405 406 407 
408 409 410 411 
412 413 414 415 
416 417 418 419 
420 421 422 423 
424 425 426 427 
428 429 430 431 
432 433 434 435 
436 437 438 439 
440 441 442 443 
444 445 446 447 
448 449 450 451 
452 453 454 455 
456 457 458 459 
460 461 462 463 
464 465 466 467 
468 469 470 471 
472 473 474 475 
476 477 478 479 
480 481 482 483 
484 485 486 487 
488 489 490 491 
492 493 494 495 
496 497 498 499 
500 501 502 503 
504 505 506 507 
508 509 510 511 
512 513 514 515 
516 517 518 519 
520 521 522 523 
524 525 526 527 
528 529 530 531 
532 533 534 535 
536 537 538 539 
540 541 542 543 
544 545 546 547 
548 549 550 551 
552 553 554 555 
556 557 558 559 
560 561 562 563 
564 565 566 567 
568 569 570 571 
572 573 574 575 
576 577 578 579 
580 581 582 583 
584 585 586 587 
588 589 590 591 
592 593 594 595 
596 597 598 599 
600 601 602 603 
604 605 606 607 
608 609 610 611 
612 613 614 615 
616 617 618 619 
620 621 622 623 
624 625 626 627 
628 629 630 631 
632 633 634 635 
636 637 638 639 
640 641 642 643 
644 645 646 647 
648 649 650 651 
652 653 654 655 
656 657 658 659 
660 661 662 663 
664 665 666 667 
668 669 670 671 
672 673 674 675 
676 677 678 679 
680 681 682 683 
684 685 686 687 
688 689 690 691 
692 693 694 695 
696 697 698 699 
700 701 702 703 
704 705 706 707 
708 709 710 711 
712 713 714 715 
716 717 718 719 
720 721 722 723 
724 725 726 727 
728 729 730 731 
732 733 734 735 
736 737 738 739 
740 741 742 743 
744 745 746 747 
748 749 750 751 
752 753 754 755 
756 757 758 759 
760 761 762 763 
764 765 766 767 
768 769 770 771 
772 773 774 775 
776 777 778 779 
780 781 782 783 
784 785 786 787 
788 789 790 791 
792 793 794 795 
796 797 798 799 
800 801 802 803 
804 805 806 807 
808 809 810 811 
812 813 814 815 
816 817 818 819 
820 821 822 823 
824 825 826 827 
828 829 830 831 
832 833 834 835 
836 837 838 839 
840 841 842 843 
844 845 846 847 
848 849 850 851 
852 853 854 855 
856 857 858 859 
860 861 862 863 
864 865 866 867 
868 869 870 871 
872 873 874 875 
876 877 878 879 
880 881 882 883 
884 885 886 887 
888 889 890 891 
892 893 894 895 
896 897 898 899 
900 901 902 903 
904 905 906 907 
908 909 910 911 
912 913 914 915 
916 917 918 919 
920 921 922 923 
924 925 926 927 
928 929 930 931 
932 933 934 935 
936 937 938 939 
940 941 942 943 
944 945 946 947 
948 949 950 951 
952 953 954 955 
956 957 958 959 
960 961 962 963 
964 965 966 967 
968 969 970 971 
972 973 974 975 
976 977 978 979 
980 981 982 983 
984 985 986 987 
988 989 990 991 
992 993 994 995 
996 997 998 999 
1000 1001 1002 1003 
1004 1005 1006 1007 
1008 1009 1010 1011 
1012 1013 1014 1015 
1016 1017 1018 1019 
1020 1021 1022 1023 
1024 1025 1026 1027 
1028 1029 1030 1031 
1032 1033 1034 1035 
1036 1037 1038 1039 
1040 1041 1042 1043 
1044 1045 1046 1047 
1048 1049 1050 1051 
1052 1053 1054 1055 
1056 1057 1058 1059 
1060 1061 1062 1063 
1064 1065 1066 1067 
1068 1069 1070 1071 
1072 1073 1074 1075 
1076 1077 1078 1079 
1080 1081 1082 1083 
1084 1085 1086 1087 
1088 1089 1090 1091 
1092 1093 1094 1095 
1096 1097 1098 1099 
1100 1101 1102 1103 
1104 1105 1106 1107 
1108 1109 1110 1111 
1112 1113 1114 1115 
1116 1117 1118 1119 
1120 1121 1122 1123 
1124 1125 1126 1127 
1128 1129 1130 1131 
1132 1133 1134 1135 
1136 1137 1138 1139 
1140 1141 1142 1143 
1144 1145 1146 1147 
1148 1149 1150 1151 
1152 1153 1154 1155 
1156 1157 1158 1159 
1160 1161 1162 1163 
1164 1165 1166 1167 
1168 1169 1170 1171 
1172 1173 1174 1175 
1176 1177 1178 1179 
1180 1181 1182 1183 
1184 1185 1186 1187 
1188 1189 1190 1191 
1192 1193 1194 1195 
1196 1197 1198 1199 
1200 1201 1202 1203 
1204 1205 1206 1207 
1208 1209 1210 1211 
1212 1213 1214 1215 
1216 1217 1218 1219 
1220 1221 1222 1223 
1224 1225 1226 1227 
1228 1229 1230 1231 
1232 1233 1234 1235 
1236 1237 1238 1239 
1240 1241 1242 1243 
1244 1245 1246 1247 
1248 1249 1250 1251 
1252 1253 1254 1255 
1256 1257 1258 1259 
1260 1261 1262 1263 
1264 1265 1266 1267 
1268 1269 1270 1271 
1272 1273 1274 1275 
1276 1277 1278 1279 
1280 1281 1282 1283 
1284 1285 1286 1287 
1288 1289 1290 1291 
1292 1293 1294 1295 
1296 1297 1298 1299 
1300 1301 1302 1303 
1304 1305 1306 1307 
1308 1309 1310 1311 
1312 1313 1314 1315 
1316 1317 1318 1319 
1320 1321 1322 1323 
1324 1325 1326 1327 
1328 1329 1330 1331 
1332 1333 1334 1335 
1336 1337 1338 1339 
1340 1341 1342 1343 
1344 1345 1346 1347 
1348 1349 1350 1351 
1352 1353 1354 1355 
1356 1357 1358 1359 
1360 1361 1362 1363 
1364 1365 1366 1367 
1368 1369 1370 1371 
1372 1373 1374 1375 
1376 1377 1378 1379 
1380 1381 1382 1383 
1384 1385 1386 1387 
1388 1389 1390 1391 
1392 1393 1394 1395 
1396 1397 1398 1399 
1400 1401 1402 1403 
1404 1405 1406 1407 1408 
1409 1410 1411 1412 
1413 1414 1415 1416 1417 
1418 1419 1420 1421 1422 
1423 1424 1425 1426 1427 
1428 1429 1430 1431 1432 
1433 1434 1435 1436 1437 
1438 1439 1440 1441 1442 
1443 1444 1445 1446 1447 
1448 1449 1450 1451 1452 
1453 1454 1455 1456 1457 
1458 1459 1460 1461 1462 
1463 1464 1465 1466 1467 
1468 1469 1470 1471 1472 
1473 1474 1475 1476 1477 
1478 1479 1480 1481 1482 
1483 1484 1485 1486 1487 
1488 1489 1490 1491 1492 
1493 1494 1495 1496 1497 
1498 1499 1500 1501 1502 
1503 1504 1505 1506 1507 
1508 1509 1510 1511 1512 
1513 1514 1515 1516 1517 
1518 1519 1520 1521 1522 1523 
1524 1525 1526 1527 1528 
1529 1530 1531 1532 1533 
1534 1535 1536 1537 1538 
1539 1540 1541 1542 1543 
1544 1545 1546 1547 1548 
1549 1550 1551 1552 1553 
1554 1555 1556 1557 1558 
1559 1560 1561 1562 1563 
1564 1565 1566 1567 1568 
1569 1570 1571 1572 1573 
1574 1575 1576 1577 1578 
1579 1580 1581 1582 1583 
1584 1585 1586 1587 1588 
1589 1590 1591 1592 1593 
1594 1595 1596 1597 1598 
1599 1600 1601 1602 1603 
1604 1605 1606 1607 1608 
1609 1610 1611 1612 1613 
1614 1615 1616 1617 1618 
1619 1620 1621 1622 1623 
1624 1625 1626 1627 1628 
1629 1630 1631 1632 1633 
1634 1635 1636 1637 
1638 1639 1640 1641 1642 
1643 1644 1645 1646 
1647 1648 1649 1650 1651 1652 
1653 1654 1655 1656 
1657 1658 1659 1660 1661 
1662 1663 1664 1665 1666 
1667 1668 1669 1670 1671 
1672 1673 1674 1675 1676 
1677 1678 1679 1680 1681 
1682 1683 1684 1685 1686 
1687 1688 1689 1690 1691 
1692 1693 1694 1695 1696 
1697 1698 1699 1700 1701 
1702 1703 1704 1705 1706 
1707 1708 1709 1710 1711 
1712 1713 1714 1715 1716 
1717 1718 1719 1720 1721 
1722 1723 1724 1725 1726 
1727 1728 1729 1730 1731 
1732 1733 1734 1735 1736 
1737 1738 1739 1740 1741 
1742 1743 1744 1745 1746 
1747 1748 1749 1750 1751 
1752 1753 1754 1755 1756 
1757 1758 1759 1760 1761 
1762 1763 1764 1765 1766 
1767 1768 1769 1770 1771 1772 
1773 1774 1775 1776 1777 
1778 1779 1780 1781 1782 
1783 1784 1785 1786 1787 
1788 1789 1790 1791 1792 
1793 1794 1795 1796 1797 
1798 1799 1800 1801 1802 
1803 1804 1805 1806 1807 
1808 1809 1810 1811 1812 
1813 1814 1815 1816 1817 
1818 1819 1820 1821 1822 
1823 1824 1825 1826 1827 
1828 1829 1830 1831 1832 
1833 1834 1835 1836 1837 
1838 1839 1840 1841 1842 
1843 1844 1845 1846 1847 
1848 1849 1850 1851 1852 
1853 1854 1855 1856 1857 
1858 1859 1860 1861 1862 
1863 1864 1865 1866 1867 
1868 1869 1870 1871 1872 
1873 1874 1875 1876 1877 
1878 1879 1880 1881 1882 
1883 1884 1885 1886 1887 
1888 1889 1890 1891 
1892 1893 1894 1895 1896 1897 
1898 1899 1900 1901 
1902 1903 1904 1905 
1906 1907 1908 1909 
1910 1911 1912 1913 
1914 1915 1916 1917 
1918 1919 1920 1921 
1922 1923 1924 1925 1926 
1927 1928 1929 1930 1931 
1932 1933 1934 1935 1936 
1937 1938 1939 1940 1941 
1942 1943 1944 1945 1946 
1947 1948 1949 1950 1951 
1952 1953 1954 1955 1956 
1957 1958 1959 1960 1961 
1962 1963 1964 1965 1966 
1967 1968 1969 1970 1971 
1972 1973 1974 1975 1976 
1977 1978 1979 1980 1981 
1982 1983 1984 1985 1986 
1987 1988 1989 1990 1991 
1992 1993 1994 1995 1996 
1997 1998 1999 2000 2001 
2002 2003 2004 2005 2006 
2007 2008 2009 2010 2011 
2012 2013 2014 2015 2016 2017 
2018 2019 2020 2021 2022 
2023 2024 2025 2026 2027 
2028 2029 2030 2031 2032 
2033 2034 2035 2036 2037 
2038 2039 2040 2041 2042 
2043 2044 2045 2046 2047 
2048 2049 2050 2051 2052 
2053 2054 2055 2056 2057 
2058 2059 2060 2061 2062 
2063 2064 2065 2066 2067 
2068 2069 2070 2071 2072 
2073 2074 2075 2076 2077 
2078 2079 2080 2081 2082 
2083 2084 2085 2086 2087 
2088 2089 2090 2091 2092 
2093 2094 2095 2096 2097 
2098 2099 2100 2101 2102 
2103 2104 2105 2106 2107 
2108 2109 2110 2111 2112 
2113 2114 2115 2116 
2117 2118 2119 2120 2121 
2122 2123 2124 2125 
2126 2127 2128 2129 
2130 2131 2132 2133 
2134 2135 2136 2137 
2138 2139 2140 2141 
2142 2143 2144 2145 
2146 2147 2148 2149 
2150 2151 2152 2153 
2154 2155 2156 2157 2158 
2159 2160 2161 2162 
2163 2164 2165 2166 2167 
2168 2169 2170 2171 2172 
2173 2174 2175 2176 2177 
2178 2179 2180 2181 2182 
2183 2184 2185 2186 2187 
2188 2189 2190 2191 2192 
2193 2194 2195 2196 
2197 2198 2199 2200 
2201 2202 2203 2204 2205 
2206 2207 2208 2209 2210 
2211 2212 2213 2214 2215 
2216 2217 2218 2219 2220 
2221 2222 2223 2224 2225 
2226 2227 2228 2229 2230 
2231 2232 2233 2234 2235 
2236 2237 2238 2239 2240 
2241 2242 2243 2244 2245 
2246 2247 2248 2249 2250 
2251 2252 2253 2254 2255 
2256 2257 2258 2259 2260 
2261 2262 2263 2264 2265 
2266 2267 2268 2269 2270 
2271 2272 2273 2274 2275 
2276 2277 2278 2279 2280 
2281 2282 2283 2284 2285 
2286 2287 2288 2289 2290 
2291 2292 2293 2294 2295 
2296 2297 2298 2299 2300 
2301 2302 2303 2304 2305 2306 
2307 2308 2309 2310 2311 2312 
2313 2314 2315 2316 2317 2318 
2319 2320 2321 2322 2323 2324 
2325 2326 2327 2328 2329 
2330 2331 2332 2333 2334 
2335 2336 2337 2338 2339 
2340 2341 2342 2343 2344 
2345 2346 2347 2348 2349 
2350 2351 2352 2353 2354 
2355 2356 2357 2358 2359 
2360 2361 2362 2363 2364 
2365 2366 2367 2368 2369 
2370 2371 2372 2373 2374 
2375 2376 2377 2378 2379 
2380 2381 2382 2383 2384 
2385 2386 2387 2388 2389 
2390 2391 2392 2393 2394 
2395 2396 2397 2398 
2399 2400 2401 2402 2403 
2404 2405 2406 2407 2408 
2409 2410 2411 2412 2413 
2414 2415 2416 2417 2418 
2419 2420 2421 2422 2423 
2424 2425 2426 2427 2428 
2429 2430 2431 2432 2433 
2434 2435 2436 2437 2438 
2439 2440 2441 2442 2443 
2444 2445 2446 2447 2448 
2449 2450 2451 2452 2453 
2454 2455 2456 2457 
2458 2459 2460 2461 2462 
2463 2464 2465 2466 2467 
2468 2469 2470 2471 2472 
2473 2474 2475 2476 2477 
2478 2479 2480 2481 2482 
2483 2484 2485 2486 2487 
2488 2489 2490 2491 2492 
2493 2494 2495 2496 2497 
2498 2499 2500 2501 2502 
2503 2504 2505 2506 2507 
2508 2509 2510 2511 2512 
2513 2514 2515 2516 2517 
2518 2519 2520 2521 2522 
2523 2524 2525 2526 2527 2528 
2529 2530 2531 2532 2533 2534 
2535 2536 2537 2538 2539 
2540 2541 2542 2543 2544 
2545 2546 2547 2548 2549 
2550 2551 2552 2553 2554 
2555 2556 2557 2558 2559 
2560 2561 2562 2563 2564 
2565 2566 2567 2568 2569 
2570 2571 2572 2573 2574 
2575 2576 2577 2578 2579 
2580 2581 2582 2583 2584 
2585 2586 2587 2588 2589 
2590 2591 2592 2593 2594 
2595 2596 2597 2598 2599 
2600 2601 2602 2603 2604 
2605 2606 2607 2608 2609 2610 
2611 2612 2613 2614 2615 2616 
2617 2618 2619 2620 
2621 2622 2623 2624 2625 
2626 2627 2628 2629 2630 
2631 2632 2633 2634 2635 
2636 2637 2638 2639 2640 
2641 2642 2643 2644 2645 
2646 2647 2648 2649 2650 
2651 2652 2653 2654 2655 
2656 2657 2658 2659 2660 
2661 2662 2663 2664 2665 
2666 2667 2668 2669 2670 
2671 2672 2673 2674 2675 
2676 2677 2678 2679 2680 
2681 2682 2683 2684 2685 
2686 2687 2688 2689 2690 
2691 2692 2693 2694 2695 
2696 2697 2698 2699 2700 
2701 2702 2703 2704 2705 
2706 2707 2708 2709 2710 
2711 2712 2713 2714 2715 
2716 2717 2718 2719 2720 
2721 2722 2723 2724 2725 
2726 2727 2728 2729 2730 
2731 2732 2733 2734 2735 
2736 2737 2738 2739 2740 
2741 2742 2743 2744 2745 
2746 2747 2748 2749 2750 
2751 2752 2753 2754 2755 
2756 2757 2758 2759 2760 
2761 2762 2763 2764 2765 
2766 2767 2768 2769 2770 
2771 2772 2773 2774 2775 
2776 2777 2778 2779 2780 
2781 2782 2783 2784 2785 
2786 2787 2788 2789 2790 
2791 2792 2793 2794 2795 
2796 2797 2798 2799 2800 
2801 2802 2803 2804 2805 
2806 2807 2808 2809 2810 
2811 2812 2813 2814 2815 
2816 2817 2818 2819 2820 
2821 2822 2823 2824 2825 
2826 2827 2828 2829 
2830 2831 2832 2833 
2834 2835 2836 2837 2838 
2839 2840 2841 2842 2843 
2844 2845 2846 2847 2848 
2849 2850 2851 2852 2853 
</DataArray>
<DataArray type="Int32" Name="offsets" format="ascii">
4 8 12 16 20 24 28 32 36 40 44 48 52 56 60 64 68 72 76 80 84 88 92 96 100 104 108 112 116 120 124 128 132 136 140 144 148 152 156 160 164 168 172 176 180 184 188 192 196 200 204 208 212 216 220 224 228 232 236 240 244 248 252 256 260 264 268 272 276 280 284 288 292 296 300 304 308 312 316 320 324 328 332 336 340 344 348 352 356 360 364 368 372 376 380 384 388 392 396 400 404 408 412 416 420 424 428 432 436 440 444 448 452 456 460 464 468 472 476 480 484 488 492 496 500 504 508 512 516 520 524 528 532 536 540 544 548 552 556 560 564 568 572 576 580 584 588 592 596 600 604 608 612 616 620 624 628 632 636 640 644 648 652 656 660 664 668 672 676 680 684 688 692 696 700 704 708 712 716 720 724 728 732 736 740 744 748 752 756 760 764 768 772 776 780 784 788 792 796 800 804 808 812 816 820 824 828 832 836 840 844 848 852 856 860 864 868 872 876 880 884 888 892 896 900 904 908 912 916 920 924 928 932 936 940 944 948 952 956 960 964 968 972 976 980 984 988 992 996 1000 1004 1008 1012 1016 1020 1024 1028 1032 1036 1040 1044 1048 1052 1056 1060 1064 1068 1072 1076 1080 1084 1088 1092 1096 1100 1104 1108 1112 1116 1120 1124 1128 1132 1136 1140 1144 1148 1152 1156 1160 1164 1168 1172 1176 1180 1184 1188 1192 1196 1200 1204 1208 1212 1216 1220 1224 1228 1232 1236 1240 1244 1248 1252 1256 1260 1264 1268 1272 1276 1280 1284 1288 1292 1296 1300 1304 1308 1312 1316 1320 1324 1328 1332 1336 1340 1344 1348 1352 1356 1360 1364 1368 1372 1376 1380 1384 1388 1392 1396 1400 1404 1409 1413 1418 1423 1428 1433 1438 1443 1448 1453 1458 1463 1468 1473 1478 1483 1488 1493 1498 1503 1508 1513 1518 1524 1529 1534 1539 1544 1549 1554 1559 1564 1569 1574 1579 1584 1589 1594 1599 1604 1609 1614 1619 1624 1629 1634 1638 1643 1647 1653 1657 1662 1667 1672 1677 1682 1687 1692 1697 1702 1707 1712 1717 1722 1727 1732 1737 1742 1747 1752 1757 1762 1767 1773 1778 1783 1788 1793 1798 1803 1808 1813 1818 1823 1828 1833 1838 1843 1848 1853 1858 1863 1868 1873 1878 1883 1888 1892 1898 1902 1906 1910 1914 1918 1922 1927 1932 1937 1942 1947 1952 1957 1962 1967 1972 1977 1982 1987 1992 1997 2002 2007 2012 2018 2023 2028 2033 2038 2043 2048 2053 2058 2063 2068 2073 2078 2083 2088 2093 2098 2103 2108 2113 2117 2122 2126 2130 2134 2138 2142 2146 2150 2154 2159 2163 2168 2173 2178 2183 2188 2193 2197 2201 2206 2211 2216 2221 2226 2231 2236 2241 2246 2251 2256 2261 2266 2271 2276 2281 2286 2291 2296 2301 2307 2313 2319 2325 2330 2335 2340 2345 2350 2355 2360 2365 2370 2375 2380 2385 2390 2395 2399 2404 2409 2414 2419 2424 2429 2434 2439 2444 2449 2454 2458 2463 2468 2473 2478 2483 2488 2493 2498 2503 2508 2513 2518 2523 2529 2535 2540 2545 2550 2555 2560 2565 2570 2575 2580 2585 2590 2595 2600 2605 2611 2617 2621 2626 2631 2636 2641 2646 2651 2656 2661 2666 2671 2676 2681 2686 2691 2696 2701 2706 2711 2716 2721 2726 2731 2736 2741 2746 2751 2756 2761 2766 2771 2776 2781 2786 2791 2796 2801 2806 2811 2816 2821 2826 2830 2834 2839 2844 2849 2854 
</DataArray>
<DataArray type="UInt8" Name="types" format="ascii">
7 7 7 7 7 7 7 7 7 7 7 7 7 7 7 7 7 7 7 7 7 7 7 7 7 7 7 7 7 7 7 7 7 7 7 7 7 7 7 7 7 7 7 7 7 7 7 7 7 7 7 7 7 7 7 7 7 7 7 7 7 7 7 7 7 7 7 7 7 7 7 7 7 7 7 7 7 7 7 7 7 7 7 7 7 7 7 7 7 7 7 7 7 7 7 7 7 7 7 7 7 7 7 7 7 7 7 7 7 7 7 7 7 7 7 7 7 7 7 7 7 7 7 7 7 7 7 7 7 7 7 7 7 7 7 7 7 7 7 7 7 7 7 7 7 7 7 7 7 7 7 7 7 7 7 7 7 7 7 7 7 7 7 7 7 7 7 7 7 7 7 7 7 7 7 7 7 7 7 7 7 7 7 7 7 7 7 7 7 7 7 7 7 7 7 7 7 7 7 7 7 7 7 7 7 7 7 7 7 7 7 7 7 7 7 7 7 7 7 7 7 7 7 7 7 7 7 7 7 7 7 7 7 7 7 7 7 7 7 7 7 7 7 7 7 7 7 7 7 7 7 7 7 7 7 7 7 7 7 7 7 7 7 7 7 7 7 7 7 7 7 7 7 7 7 7 7 7 7 7 7 7 7 7 7 7 7 7 7 7 7 7 7 7 7 7 7 7 7 7 7 7 7 7 7 7 7 7 7 7 7 7 7 7 7 7 7 7 7 7 7 7 7 7 7 7 7 7 7 7 7 7 7 7 7 7 7 7 7 7 7 7 7 7 7 7 7 7 7 7 7 7 7 7 7 7 7 7 7 7 7 7 7 7 7 7 7 7 7 7 7 7 7 7 7 7 7 7 7 7 7 7 7 7 7 7 7 7 7 7 7 7 7 7 7 7 7 7 7 7 7 7 7 7 7 7 7 7 7 7 7 7 7 7 7 7 7 7 7 7 7 7 7 7 7 7 7 7 7 7 7 7 7 7 7 7 7 7 7 7 7 7 7 7 7 7 7 7 7 7 7 7 7 7 7 7 7 7 7 7 7 7 7 7 7 7 7 7 7 7 7 7 7 7 7 7 7 7 7 7 7 7 7 7 7 7 7 7 7 7 7 7 7 7 7 7 7 7 7 7 7 7 7 7 7 7 7 7 7 7 7 7 7 7 7 7 7 7 7 7 7 7 7 7 7 7 7 7 7 7 7 7 7 7 7 7 7 7 7 7 7 7 7 7 7 7 7 7 7 7 7 7 7 7 7 7 7 7 7 7 7 7 7 7 7 7 7 7 7 7 7 7 7 7 7 7 7 7 7 7 7 7 7 7 7 7 7 7 7 7 7 7 7 7 7 7 7 7 7 7 7 7 7 7 7 7 7 7 7 7 7 7 7 7 7 7 7 7 7 7 7 7 7 7 7 7 7 7 7 7 7 7 7 7 7 7 7 7 7 7 7 7 7 7 
</DataArray>
</Cells>
<CellData Scalars="cell variable 4" Vectors="cell vector">
<DataArray type="Float64" NumberOfComponents="3" Name="cell vector" format="ascii">
0.9 2 0
0.9 2 0
0.9 2 0
0.9 2 0
0.9 2 0
0.9 2 0
0.9 2 0
0.9 2 0
0.9 2 0
0.9 2 0
0.9 2 0
0.9 2 0
0.9 2 0
0.9 2 0
0.9 2 0
0.9 2 0
0.9 2 0
0.9 2 0
0.9 2 0
0.9 2 0
0.9 2 0
0.9 2 0
0.9 2 0
0.9 2 0
0.9 2 0
0.9 2 0
0.9 2 0
0.9 2 0
0.9 2 0
0.9 2 0
0.9 2 0
0.9 2 0
0.9 2 0
0.9 2 0
0.9 2 0
0.9 2 0
0.9 2 0
0.9 2 0
0.9 2 0
0.9 2 0
0.9 2 0
0.9 2 0
0.9 2 0
0.9 2 0
0.9 2 0
0.9 2 0
0.9 2 0
0.9 2 0
0.9 2 0
0.9 2 0
0.9 0 0
0.9 0 0
0.9 0 0
0.9 0 0
0.9 0 0
0.9 0 0
0.9 0 0
0.9 0 0
0.9 0 0
0.9 0 0
0.9 0 0
0.9 0 0
0.9 0 0
0.9 0 0
0.9 0 0
0.9 0 0
0.9 0 0
0.9 0 0
0.9 0 0
0.9 0 0
0.9 0 0
0.9 0 0
0.9 0 0
0.9 0 0
0.9 0 0
0.9 0 0
0.9 0 0
0.9 0 0
0.9 0 0
0.9 0 0
0.9 0 0
0.9 0 0
0.9 0 0
0.9 0 0
0.9 0 0
0.9 0 0
0.9 0 0
0.9 0 0
0.9 0 0
0.9 0 0
0.9 0 0
0.9 0 0
0.9 0 0
0.9 0 0
0.9 0 0
0.9 0 0
0.9 0 0
0.9 0 0
0.9 0 0
0.9 0 0
0.9 0 0
0.9 0 0
0.9 0 0
0.9 0 0
0.9 0 0
0.9 0 0
0.9 0 0
0.9 0 0
0.9 0 0
0.9 0 0
0.9 0 0
0.9 0 0
0.9 0 0
0.9 0 0
0.9 0 0
0.9 0 0
0.9 0 0
0.9 0 0
0.9 0 0
0.9 0 0
0.9 0 0
0.9 0 0
0.9 0 0
0.9 0 0
0.9 0 0
0.9 0 0
0.9 0 0
0.9 0 0
0.9 0 0
0.9 0 0
0.9 0 0
0.9 0 0
0.9 0 0
0.9 0 0
0.9 0 0
0.9 0 0
0.9 0 0
0.9 0 0
0.9 0 0
0.9 0 0
0.9 0 0
0.9 0 0
0.9 0 0
0.9 0 0
0.9 0 0
0.9 0 0
0.9 0 0
0.9 0 0
0.9 0 0
0.9 0 0
0.9 0 0
0.9 0 0
0.9 0 0
0.9 0 0
0.9 0 0
0.9 0 0
0.9 0 0
0.9 0 0
0.9 0 0
0.9 0 0
0.9 0 0
0.9 0 0
0.9 0 0
0.9 0 0
0.9 0 0
0.9 0 0
0.9 0 0
0.9 0 0
0.9 0 0
0.9 0 0
0.9 0 0
0.9 0 0
0.9 0 0
0.9 0 0
0.9 0 0
0.9 0 0
0.9 0 0
0.9 0 0
0.9 0 0
0.9 0 0
0.9 0 0
0.9 0 0
0.9 0 0
0.9 0 0
0.9 0 0
0.9 0 0
0.9 0 0
0.9 0 0
0.9 0 0
0.9 0 0
0.9 0 0
0.9 0 0
0.9 0 0
0.9 0 0
0.9 0 0
0.9 0 0
0.9 0 0
0.9 0 0
0.9 0 0
0.9 0 0
0.9 0 0
0.9 0 0
0.9 0 0
0.9 0 0
0.9 0 0
0.9 0 0
0.9 0 0
0.9 0 0
0.9 0 0
0.9 0 0
0.9 0 0
0.9 0 0
0.9 0 0
0.9 0 0
0.9 0 0
0.9 0 0
0.9 0 0
0.9 0 0
0.9 0 0
0.9 0 0
0.9 0 0
0.9 0 0
0.9 0 0
0.9 0 0
0.9 0 0
0.9 0 0
0.9 0 0
0.9 0 0
0.9 0 0
0.9 0 0
0.9 0 0
0.9 0 0
0.9 0 0
0.9 0 0
0.9 0 0
0.9 0 0
0.9 0 0
0.9 0 0
0.9 0 0
0.9 0 0
0.9 0 0
0.9 0 0
0.9 0 0
0.9 0 0
0.9 0 0
0.9 0 0
0.9 0 0
0.9 0 0
0.9 0 0
0.9 0 0
0.9 0 0
0.9 0 0
0.9 0 0
0.9 0 0
0.9 0 0
0.9 0 0
0.9 0 0
0.9 0 0
0.9 0 0
0.9 0 0
0.9 0 0
0.9 0 0
0.9 0 0
0.9 0 0
0.9 0 0
0.9 0 0
0.9 0 0
0.9 0 0
0.9 0 0
0.9 0 0
0.9 0 0
0.9 0 0
0.9 0 0
0.9 0 0
0.9 0 0
0.9 0 0
0.9 0 0
0.9 0 0
0.9 0 0
0.9 0 0
0.9 0 0
0.9 0 0
0.9 0 0
0.9 0 0
0.9 0 0
0.9 0 0
0.9 0 0
0.9 0 0
0.9 0 0
0.9 0 0
0.9 0 0
0.9 0 0
0.9 0 0
0.9 0 0
0.9 0 0
0.9 0 0
0.9 0 0
0.9 0 0
0.9 0 0
0.9 0 0
0.9 0 0
0.9 0 0
0.9 0 0
0.9 0 0
0.9 0 0
0.9 0 0
0.9 0 0
0.9 0 0
0.9 0 0
0.9 0 0
0.9 0 0
0.9 0 0
0.9 0 0
0.9 0 0
0.9 0 0
0.9 0 0
0.9 0 0
0.9 0 0
0.9 0 0
0.9 0 0
0.9 0 0
0.9 0 0
0.9 0 0
0.9 0 0
0.9 0 0
0.9 0 0
0.9 0 0
0.9 0 0
0.9 0 0
0.9 0 0
0.9 0 0
0.9 0 0
0.9 0 0
0.9 0 0
0.9 0 0
0.9 0 0
0.9 0 0
0.9 0 0
0.9 0 0
0.9 0 0
0.9 0 0
0.9 0 0
0.9 0 0
0.9 0 0
0.9 0 0
0.9 0 0
0.9 0 0
0.9 0 0
0.9 0 0
0.9 0 0
0.9 0 0
0.9 0 0
0.445521 0 0
0.446008 0 0
0.446439 0 0
0.446706 0 0
0.446846 0 0
0.446911 0 0
0.446844 0 0
0.446744 0 0
0.446573 0 0
0.446406 0 0
0.44623 0 0
0.446036 0 0
0.44587 0 0
0.445715 0 0
0.445575 0 0
0.445442 0 0
0.445336 0 0
0.445247 0 0
0.445176 0 0
0.44512 0 0
0.441632 0 0
0.431909 0 0
0.44504 0 0
0.422289 0 0
0.431993 0 0
0.441747 0 0
0.445121 0 0
0.445178 0 0
0.445251 0 0
0.445342 0 0
0.445442 0 0
0.445568 0 0
0.445711 0 0
0.445871 0 0
0.446046 0 0
0.446213 0 0
0.446403 0 0
0.446589 0 0
0.446729 0 0
0.446861 0 0
0.446898 0 0
0.446843 0 0
0.446718 0 0
0.446424 0 0
0.446011 0 0
0.445537 0 0
0.9 0 0
0.9 0 0
0.9 0 0
0.445551 0 0
0.446044 0 0
0.44644 0 0
0.44678 0 0
0.447064 0 0
0.447217 0 0
0.447317 0 0
0.447295 0 0
0.447242 0 0
0.447111 0 0
0.446979 0 0
0.44683 0 0
0.446655 0 0
0.446502 0 0
0.446357 0 0
0.446222 0 0
0.446101 0 0
0.445994 0 0
0.445895 0 0
0.445821 0 0
0.445763 0 0
0.443979 0 0
0.433379 0 0
0.445678 0 0
0.423159 0 0
0.433748 0 0
0.444387 0 0
0.445766 0 0
0.445826 0 0
0.445902 0 0
0.445986 0 0
0.446094 0 0
0.446218 0 0
0.446357 0 0
0.44651 0 0
0.446653 0 0
0.446819 0 0
0.446983 0 0
0.447107 0 0
0.447233 0 0
0.447317 0 0
0.447304 0 0
0.447207 0 0
0.447059 0 0
0.446782 0 0
0.446447 0 0
0.446023 0 0
0.445562 0 0
0.9 0 0
0.450304 0 0
0.45088 0 0
0.451422 0 0
0.451952 0 0
0.452466 0 0
0.447512 0 0
0.447711 0 0
0.447871 0 0
0.447911 0 1.99734
0.447919 0 0
0.447838 0 0
0.447748 0 0
0.447629 0 0
0.447472 0 0
0.447333 0 0
0.447194 0 0
0.447062 0 3.15962
0.446939 0 0
0.446829 0 0
0.446725 0 0
0.446647 0 0
0.446584 0 0
0.446538 0 0
0.446507 0 0
0.45628 0 4.6959
0.433463 0 0
0.446508 0 0
0.44654 0 0
0.446587 0 0
0.446652 0 0
0.446725 0 0
0.446821 0 0
0.446932 0 0
0.447058 0 3.15962
0.447196 0 0
0.447343 0 0
0.447472 0 0
0.447619 0 0
0.447754 0 0
0.447836 0 0
0.447911 0 0
0.447936 0 0
0.447856 0 1.97111
0.447738 0 0
0.447498 0 0
0.447521 0 0
0.44803 0 0
0.448553 0 0
0.449085 0 0
0.449644 0 0
0.448048 0 0
0.45197 0 0
0.448578 0 0
0.451447 0 0
0.447534 0 0
0.452479 0 0
0.452488 0 0
0.452502 0 0
0.452289 0 0
0.452262 0 0
0.452129 0 0
0.452144 1 2.75168
0.44912 0 0
0.450915 0 0
0.452089 1 2.75168
0.452064 0 0
0.452081 0 0
0.452089 0 0
0.452162 0 0
0.452164 0 0
0.452252 0 0
0.452246 0 0
0.452371 0 0
0.452381 0 0
0.452528 0 0
0.452528 0 0
0.452667 0 0
0.452657 0 0
0.452806 0 0
0.452804 0 0
0.452938 1 3.75168
0.452942 1 3.75168
0.453061 0 0
0.453068 0 0
0.45322 0 0
0.453218 0 0
0.45356 0 0
0.453553 0 0
0.453171 0 0
0.453179 0 0
0.452936 0 0
0.452941 0 0
0.452783 0 0
0.452793 0 0
0.453275 0 0
0.453275 0 0
0.452696 0 0
0.452683 0 0
0.452705 0 0
0.452683 0 0
0.453353 0 0
0.453348 0 0
0.454322 0 0
0.476841 0 0
0.453416 0 0
0.453413 0 0
0.452767 0 0
0.452758 0 0
0.466621 0 0
0.466252 0 0
0.453462 0 0
0.45346 0 0
0.453493 0 0
0.453492 0 0
0.44372 1 5.25168
0.466537 0 0
0.456021 0 0
0.455613 0 0
0.452889 0 0
0.452893 0 0
0.454237 0 0
0.454234 0 0
0.453021 0 0
0.453017 0 0
0.454179 0 0
0.454174 0 0
0.45317 0 0
0.453181 0 0
0.453956 0 0
0.453977 0 0
0.453345 0 0
0.453347 0 0
0.454105 0 0
0.454098 0 0
0.453498 0 0
0.45349 0 0
0.454006 0 0
0.454014 0 0
0.453643 0 0
0.453643 0 0
0.453899 0 0
0.453906 0 0
0.453778 0 0
0.453782 0 0
0.454449 0 0
0.454438 0 0
0.45496 0 0
0.477711 0 0
0.468091 0 0
0.468007 0 0
0.458368 0 0
0.458253 0 0
0.45488 0 0
0.454879 0 0
0.454824 0 0
0.454822 0 0
0.454753 0 0
0.454749 0 0
0.454664 0 0
0.454658 0 0
0.453294 0 0
0.453282 0 0
0.453154 0 0
0.453157 0 0
0.454558 0 0
0.454558 0 0
0.453089 0 0
0.453102 0 0
0.453139 0 0
0.453156 0 0
0.453576 0 0
0.453561 0 0
0.453271 0 0
0.453256 0 0
0.454425 0 0
0.454432 0 0
0.453427 0 0
0.453411 0 0
0.453594 0 0
0.453597 0 0
0.454289 0 0
0.454285 0 0
0.45377 0 0
0.453787 0 0
0.454129 0 0
0.45413 0 0
0.453964 0 0
0.453954 0 0
0.450356 0 0
0.449696 0 0
0.453992 0 0
0.453989 0 0
0.454479 0 0
0.454463 0 0
</DataArray>
<DataArray type="Float64" Name="cell vector length" format="ascii">
2.83971e-07 6.60586e-07 1.75261e-06 4.33556e-06 9.63469e-06 1.88161e-05 3.15289e-05 4.43243e-05 5.2144e-05 5.41952e-05 5.81064e-05 7.82253e-05 0.000129335 0.000219631 0.000342739 0.000478963 0.000618544 0.000792281 0.001083 0.0016081 0.0024626 0.00360629 0.00478924 0.00566488 0.00596137 0.00557866 0.00462689 0.00338289 0.00219468 0.00132199 0.00082449 0.000606418 0.000530321 0.000485669 0.000415429 0.00031333 0.000205071 0.000119147 6.70391e-05 4.47668e-05 4.21025e-05 4.7231e-05 4.9354e-05 4.33009e-05 3.11968e-05 1.87263e-05 9.6171e-06 4.34791e-06 1.81302e-06 8.5624e-07 2.1046e-06 4.95787e-06 1.33305e-05 3.34447e-05 7.54293e-05 0.000149452 0.000253466 0.000358715 0.000421359 0.000432254 0.000450845 0.000593594 0.000982048 0.00168677 0.00265975 0.00374211 0.00485502 0.00623445 0.00849237 0.0124676 0.0188483 0.0272882 0.0357987 0.0418883 0.0438561 0.0411248 0.0343511 0.0252844 0.0164401 0.00990908 0.00622802 0.00464896 0.00411096 0.0037771 0.00322636 0.00242089 0.00156874 0.000899366 0.000501828 0.000340181 0.000331605 0.000381161 0.000401257 0.000351584 0.000251335 0.000148991 7.53886e-05 3.35646e-05 1.37842e-05 6.41651e-06 6.72568e-06 1.63145e-05 4.52325e-05 0.000117197 0.000273334 0.000559509 0.000975052 0.00140144 0.00164497 0.00165007 0.00162664 0.00203343 0.00336386 0.00593051 0.00957251 0.0136813 0.0180009 0.0234184 0.0318032 0.0450016 0.0639005 0.0855395 0.102946 0.112586 0.114792 0.109866 0.0974136 0.0771434 0.0529742 0.0329494 0.0214038 0.0165345 0.0148714 0.0136693 0.0116091 0.00861134 0.00545784 0.00303336 0.00166048 0.00116892 0.00123417 0.00148777 0.00158424 0.00138232 0.000971318 0.000560035 0.000274081 0.000117858 4.67472e-05 2.1046e-05 1.9072e-05 4.79077e-05 0.000137813 0.000371377 0.000902784 0.00192503 0.00347282 0.00509408 0.0060054 0.00595018 0.00555528 0.00650403 0.0106863 0.0193706 0.0319047 0.0460253 0.061453 0.0817623 0.110311 0.141288 0.164294 0.174424 0.174127 0.17046 0.167448 0.16531 0.162577 0.153668 0.130359 0.0958945 0.0692722 0.0559585 0.0501989 0.0454079 0.0382481 0.028215 0.0175379 0.00940535 0.0050449 0.00375356 0.00434827 0.00547006 0.00584026 0.00505679 0.00347955 0.00193821 0.000909899 0.000374838 0.000142538 6.16359e-05 4.9395e-05 0.000128654 0.000385084 0.00108423 0.00276441 0.00618793 0.0116338 0.0174504 0.0207529 0.0207107 0.018614 0.0201754 0.0321639 0.0581369 0.0917055 0.123963 0.159764 0.21142 0.273575 0.294093 0.258645 0.217634 0.188417 0.170837 0.163681 0.164613 0.173468 0.18755 0.201109 0.20386 0.187588 0.160269 0.137598 0.120099 0.102819 0.0800827 0.0515798 0.0272962 0.0145331 0.011735 0.0149679 0.0193107 0.0203351 0.0174374 0.0117457 0.00628511 0.00280825 0.00110117 0.000399749 0.000165618 0.000115811 0.00031112 0.000968655 0.00285456 0.00767484 0.0181579 0.0354501 0.0531004 0.0629306 0.0655833 0.0595765 0.0595134 0.0849961 0.131145 0.164524 0.187709 0.224251 0.291458 0.372398 0.377977 0.29182 0.212843 0.166504 0.14257 0.134507 0.136693 0.151707 0.180676 0.225989 0.288173 0.320354 0.27383 0.215279 0.179639 0.160488 0.145015 0.114957 0.0688573 0.0389566 0.0356731 0.0491806 0.0618217 0.0620533 0.0534525 0.03617 0.0186929 0.00789491 0.00293203 0.00101445 0.000404352 0.000244008 0.000667534 0.00213816 0.0064948 0.0183223 0.0450043 0.0836232 0.109033 0.121534 0.14068 0.149997 0.146422 0.160052 0.174042 0.173291 0.17588 0.200181 0.262645 0.351026 0.372742 0.282182 0.187935 0.135928 0.111544 0.105471 0.106508 0.122919 0.158368 0.222655 0.320585 0.362255 0.289869 0.209711 0.167738 0.153595 0.153482 0.150817 0.124028 0.0902507 0.0984501 0.129547 0.134303 0.120584 0.110544 0.0863546 0.047262 0.0192912 0.00687926 0.00228842 0.000888119 0.000474737 0.00141745 0.00401339 0.0112414 0.0316678 0.0727851 0.106109 0.113512 0.121623 0.157927 0.214399 0.238463 0.203332 0.168049 0.145479 0.134543 0.146025 0.19827 0.288766 0.336333 0.268191 0.168336 0.113577 0.0902239 0.0898433 0.0856216 0.101438 0.139471 0.215367 0.327404 0.349328 0.255653 0.167869 0.12716 0.119441 0.128185 0.140416 0.147072 0.158393 0.195589 0.193702 0.152205 0.121548 0.116093 0.110688 0.0779993 0.0349786 0.0135454 0.00502642 0.00178733 0.000872795 0.00176202 0.00568504 0.0204586 0.0662777 0.136393 0.167051 0.154905 0.150703 0.221985 0.336958 0.412342 0.337322 0.237011 0.178621 0.148164 0.150756 0.233628 0.386036 0.491493 0.385387 0.225451 0.150891 0.125285 0.131305 0.122078 0.138808 0.186697 0.302116 0.481839 0.493539 0.336048 0.204691 0.136882 0.135254 0.158626 0.191919 0.226365 0.293983 0.347645 0.300597 0.212511 0.150894 0.162283 0.186333 0.154767 0.0672621 0.0204291 0.00656699 0.00334714 0.000395605 0.000935437 0.00366323 0.0165463 0.115103 0.295639 0.299241 0.240765 0.224202 0.292295 0.40056 0.509851 0.457629 0.322125 0.246786 0.214933 0.223319 0.303181 0.416398 0.500685 0.439679 0.329535 0.279072 0.254833 0.238262 0.254153 0.271148 0.297029 0.377144 0.497292 0.485801 0.369607 0.280967 0.216625 0.206625 0.230382 0.274097 0.332407 0.408405 0.414004 0.350204 0.278151 0.222274 0.250014 0.299237 0.356466 0.1188 0.0240507 0.00584696 0.00180017 0.0356281 0.0611743 0.00622576 0.0140238 0.280145 0.239599 0.342948 0.323524 0.312765 0.273649 0.275934 0.258798 0.00150367 0.0036457 0.265504 0.261698 0.282879 0.300025 0.363553 0.357885 0.456702 0.388341 0.433968 0.361705 0.371088 0.342516 0.337251 0.324649 0.303134 0.294504 0.280667 0.270932 0.305131 0.274329 0.163986 0.326969 0.0436352 0.141789 0.408304 0.344312 0.245161 0.276665 0.252639 0.23391 0.516803 0.46366 0.223306 0.229028 0.228125 0.281654 0.527442 0.514023 0.270335 0.25296 0.495284 0.486126 0.351452 0.302172 0.254618 0.256436 0.473512 0.473712 0.415379 0.469831 0.357988 0.415458 0.265788 0.286871 0.414675 0.387966 0.322808 0.376602 0.486532 0.343132 0.46313 0.532381 0.396335 0.292379 0.0106408 0.0389867 0.30389 0.263528 0.580556 0.567594 0.257551 0.237283 0.49437 0.421556 0.218621 0.233713 0.332963 0.29019 0.245015 0.227339 0.00276389 0.0103569 0.145956 0.134856 0.138379 0.148413 0.160794 0.18791 0.222941 0.273223 0.353295 0.414142 0.472322 0.453777 0.405119 0.332866 0.106129 0.157861 0.150318 0.158601 0.269309 0.22229 0.155534 0.157365 0.192834 0.159213 0.114218 0.0472586 0.2326 0.203854 0.194707 0.168931 0.267102 0.227464 0.294425 0.192566 0.161336 0.181337 0.256831 0.191095 0.173473 0.195471 0.221001 0.188048 0.00158735 0.000451099 0.01618 0.0499171 0.00496261 0.0166756 
</DataArray>
<DataArray type="Float64" Name="cell variable 4" format="ascii">
0.00086386 0.000864062 0.000864672 0.000866176 0.000869402 0.000875251 0.000883728 0.000892606 0.000898036 0.000899107 0.000901815 0.000916962 0.000955673 0.0010248 0.00111976 0.0012221 0.00131709 0.00142576 0.00162334 0.00202737 0.00274071 0.00374669 0.00483175 0.00566423 0.00596468 0.00562701 0.00476006 0.00364389 0.00260952 0.00187554 0.00147289 0.0013091 0.00126341 0.00123893 0.00118642 0.00110394 0.00101716 0.000950098 0.000910252 0.000893167 0.00089074 0.000894422 0.000896206 0.000891943 0.000883508 0.000875186 0.000869386 0.000866179 0.0008647 0.000864161 0.000864786 0.000866357 0.000871144 0.000883152 0.000909382 0.000957855 0.00102933 0.00110481 0.00114949 0.00115294 0.00116392 0.00127193 0.00156858 0.00211153 0.00286383 0.00366956 0.00439837 0.00519702 0.00661315 0.00948331 0.014481 0.0213437 0.0284842 0.0337857 0.0356569 0.0335225 0.0279616 0.0205604 0.0134331 0.00823014 0.00536211 0.00423267 0.00395378 0.00379525 0.0033917 0.0027394 0.00205092 0.00152351 0.00121623 0.00109054 0.00108093 0.00111837 0.00113618 0.00110008 0.00102782 0.000957438 0.000909287 0.000883185 0.000871361 0.000867113 0.00086726 0.000872744 0.00088993 0.000934646 0.00103636 0.00123238 0.00153257 0.00185597 0.00203727 0.0020112 0.00196812 0.00227317 0.00329374 0.00526741 0.00804231 0.010964 0.0134746 0.0159964 0.0201559 0.0282604 0.0419341 0.0597755 0.0766851 0.0879847 0.0916869 0.0872458 0.0751138 0.0571881 0.0381337 0.0233734 0.0151758 0.012207 0.0117316 0.0113686 0.00997052 0.00758501 0.00503967 0.00311857 0.0020455 0.00165535 0.00169642 0.00190216 0.00199684 0.00184246 0.00152889 0.00123176 0.00103635 0.000934836 0.000890663 0.000875281 0.000874176 0.000891366 0.000947135 0.00109883 0.0014613 0.00219579 0.00337224 0.00467121 0.00537143 0.00514744 0.00467281 0.00534243 0.00850277 0.0149485 0.0239218 0.0329476 0.040213 0.0469543 0.0569058 0.0739714 0.0993475 0.12673 0.147494 0.159735 0.163574 0.158626 0.144928 0.121598 0.0895307 0.0587547 0.0407269 0.0348894 0.0347483 0.0340574 0.0299207 0.0224431 0.0141697 0.00787085 0.00447176 0.00342342 0.00386628 0.00483885 0.00526356 0.00464009 0.00336828 0.00219843 0.00146296 0.00109986 0.000949392 0.000898976 0.000891916 0.00094131 0.00110789 0.00158419 0.00278549 0.0053506 0.00963263 0.0144286 0.0169317 0.0158974 0.0133439 0.0141568 0.0227389 0.0408594 0.0646203 0.085597 0.100392 0.113886 0.131798 0.150478 0.168337 0.189634 0.208969 0.221586 0.225774 0.220533 0.206468 0.183862 0.153834 0.119641 0.09555 0.0880408 0.0891772 0.0877905 0.0788232 0.0608251 0.0386115 0.0206934 0.0110647 0.00871546 0.0111654 0.0151182 0.0166859 0.0143843 0.00965835 0.00538302 0.00279925 0.00158948 0.00111462 0.000962284 0.00093243 0.00106046 0.0015103 0.00286626 0.00647398 0.0145056 0.0281628 0.0432158 0.0506369 0.0475431 0.0378936 0.0361691 0.0546968 0.0938886 0.133225 0.158307 0.17367 0.189528 0.211257 0.2213 0.22193 0.239468 0.262355 0.277622 0.282729 0.276968 0.260737 0.234151 0.203088 0.180742 0.171839 0.164909 0.163509 0.16097 0.150755 0.127612 0.0892065 0.049235 0.0265838 0.0230699 0.0329812 0.0459887 0.0502431 0.0432699 0.0283867 0.014708 0.00655036 0.00289103 0.00153062 0.0011136 0.00101313 0.0013041 0.00236765 0.00573632 0.0150966 0.0362603 0.0714911 0.105026 0.117632 0.114619 0.0929279 0.0802037 0.10552 0.15483 0.193556 0.218603 0.231613 0.244444 0.266587 0.276455 0.266461 0.280858 0.30862 0.326836 0.332758 0.326825 0.308471 0.276682 0.242051 0.230615 0.23434 0.22521 0.223636 0.223341 0.213707 0.189345 0.149869 0.0950685 0.0557709 0.0558859 0.0852118 0.112974 0.117443 0.10552 0.072476 0.0371681 0.0154137 0.00584028 0.00243184 0.00142983 0.00115514 0.00171933 0.00382656 0.0106015 0.0297411 0.0706631 0.124035 0.160884 0.173972 0.171729 0.152018 0.13055 0.137365 0.177798 0.223578 0.256668 0.268192 0.268091 0.27555 0.27819 0.266781 0.283437 0.321218 0.345967 0.355854 0.347141 0.324117 0.28341 0.242608 0.237712 0.246579 0.245125 0.256431 0.266423 0.256212 0.223316 0.177006 0.125783 0.0900729 0.10609 0.146747 0.17158 0.174167 0.161276 0.125629 0.0734512 0.0308503 0.0111028 0.00404177 0.00200785 0.00141455 0.00219981 0.00520672 0.0158565 0.0453146 0.0949735 0.143413 0.183231 0.205225 0.204016 0.19148 0.174243 0.154854 0.175643 0.222488 0.263584 0.278686 0.270441 0.275931 0.281874 0.257346 0.253977 0.286151 0.311515 0.320593 0.312842 0.290018 0.253381 0.227448 0.247877 0.260386 0.252321 0.26495 0.280229 0.265274 0.224642 0.176203 0.132341 0.121464 0.156431 0.188149 0.205682 0.205703 0.182642 0.143298 0.0998368 0.046077 0.016294 0.00600586 0.00304966 0.00117829 0.00158981 0.00370556 0.012794 0.0595903 0.158514 0.18676 0.221179 0.256081 0.249684 0.227157 0.212873 0.187671 0.187659 0.221169 0.260838 0.292848 0.284016 0.278146 0.279008 0.250079 0.230302 0.241174 0.267571 0.287873 0.26783 0.241437 0.223637 0.220904 0.248483 0.262106 0.26118 0.282504 0.295139 0.261889 0.222509 0.185409 0.154034 0.155345 0.190173 0.225066 0.253231 0.257342 0.22579 0.216406 0.223032 0.0716704 0.0186661 0.00539386 0.00222577 0.0227462 0.0421862 0.00551337 0.0119904 0.137847 0.137516 0.209121 0.260627 0.253345 0.290226 0.290075 0.283015 0.00197766 0.00386761 0.280943 0.245822 0.242979 0.204531 0.215573 0.17693 0.220772 0.176778 0.227918 0.208946 0.255544 0.255567 0.296279 0.296871 0.327201 0.327596 0.303963 0.305529 0.283393 0.276257 0.0743759 0.153212 0.0255439 0.0697328 0.292073 0.258637 0.139662 0.197026 0.193549 0.232728 0.31829 0.279337 0.240921 0.233052 0.24037 0.223285 0.309538 0.290658 0.352411 0.327916 0.306984 0.28471 0.190928 0.221846 0.327238 0.310577 0.331441 0.301934 0.357424 0.332541 0.323825 0.358244 0.308822 0.285779 0.199909 0.156567 0.288179 0.265113 0.190346 0.137539 0.295232 0.277443 0.185634 0.168993 0.00773675 0.0241159 0.221347 0.222098 0.318421 0.279175 0.267533 0.267792 0.297953 0.259128 0.297629 0.297722 0.283672 0.272669 0.301805 0.302296 0.00267092 0.00765886 0.352381 0.345702 0.345002 0.326386 0.324609 0.291191 0.292579 0.254984 0.281305 0.252055 0.296815 0.257068 0.285944 0.248351 0.0725172 0.13111 0.129438 0.169336 0.272865 0.259086 0.168776 0.179704 0.17405 0.17941 0.0751719 0.0307014 0.146232 0.174053 0.273814 0.271189 0.151939 0.105491 0.132361 0.091745 0.263235 0.264678 0.143988 0.131754 0.232824 0.234189 0.18893 0.186965 0.00220271 0.00118454 0.0109921 0.0314683 0.00387753 0.0112008 
</DataArray>
</CellData>
</Piece>
</UnstructuredGrid>
</VTKFile>
