<VTKFile type="UnstructuredGrid" version="0.1">
<UnstructuredGrid>
<Piece  NumberOfPoints="    2586" NumberOfCells="     598">
<Points>
<DataArray type="Float64" NumberOfComponents="3" format="ascii">
-0.256845 -8.96929 0.0
-0.255942 -8.96499 0.0
-1.29008 -8.80772 0.0
-1.29482 -8.8885 0.0
-0.254472 -8.95312 0.0
-1.28196 -8.70118 0.0
-1.28964 -8.80101 0.0
-0.255503 -8.95827 0.0
-0.252478 -8.93923 0.0
-1.26983 -8.58108 0.0
-1.28115 -8.69333 0.0
-0.25366 -8.94527 0.0
-0.249925 -8.92375 0.0
-1.2532 -8.45348 0.0
-1.26866 -8.57255 0.0
-0.251308 -8.9307 0.0
-0.246738 -8.90705 0.0
-1.23181 -8.32267 0.0
-1.25168 -8.44462 0.0
-0.248399 -8.91489 0.0
-0.242834 -8.88939 0.0
-1.20559 -8.1915 0.0
-1.22993 -8.31373 0.0
-0.244865 -8.8981 0.0
-0.23813 -8.87102 0.0
-1.17463 -8.0618 0.0
-1.20338 -8.18262 0.0
-0.240625 -8.88051 0.0
-0.232551 -8.85213 0.0
-1.13904 -7.93481 0.0
-1.1721 -8.05308 0.0
-0.235599 -8.8623 0.0
-0.226039 -8.83292 0.0
-1.09898 -7.8114 0.0
-1.13621 -7.92632 0.0
-0.229714 -8.84364 0.0
-0.218548 -8.81361 0.0
-1.0546 -7.69226 0.0
-1.09585 -7.80319 0.0
-0.222908 -8.82472 0.0
-0.210055 -8.7944 0.0
-1.00606 -7.57796 0.0
-1.05119 -7.68437 0.0
-0.215136 -8.80572 0.0
-0.200551 -8.77548 0.0
-0.953526 -7.46902 0.0
-1.00238 -7.57043 0.0
-0.206372 -8.78686 0.0
-0.190045 -8.75706 0.0
-0.897181 -7.36589 0.0
-0.949585 -7.46186 0.0
-0.19661 -8.76833 0.0
-0.178561 -8.73933 0.0
-0.837212 -7.26901 0.0
-0.892994 -7.35915 0.0
-0.185858 -8.75032 0.0
-0.166131 -8.72245 0.0
-0.773818 -7.17879 0.0
-0.832791 -7.26271 0.0
-0.17414 -8.73303 0.0
-0.1528 -8.70659 0.0
-0.707205 -7.09561 0.0
-0.769175 -7.17296 0.0
-0.161489 -8.71662 0.0
-0.138618 -8.6919 0.0
-0.637588 -7.01983 0.0
-0.702355 -7.09027 0.0
-0.14795 -8.70125 0.0
-0.123641 -8.67851 0.0
-0.565189 -6.9518 0.0
-0.632545 -7.015 0.0
-0.133575 -8.68707 0.0
-0.107933 -8.66654 0.0
-0.490238 -6.89184 0.0
-0.559968 -6.9475 0.0
-0.11842 -8.67421 0.0
-0.0915637 -8.65612 0.0
-0.412979 -6.84028 0.0
-0.484854 -6.8881 0.0
-0.102549 -8.66281 0.0
-0.0746119 -8.64736 0.0
-0.333681 -6.79744 0.0
-0.40745 -6.83712 0.0
-0.0860347 -8.65296 0.0
-0.0571667 -8.64034 0.0
-0.252648 -6.76364 0.0
-0.328026 -6.79488 0.0
-0.0689566 -8.6448 0.0
-0.0393296 -8.63517 0.0
-0.170234 -6.73914 0.0
-0.246888 -6.76169 0.0
-0.0514071 -8.6384 0.0
-0.0212154 -8.6319 0.0
-0.0868473 -6.72421 0.0
-0.164395 -6.73784 0.0
-0.0334914 -8.63386 0.0
-0.0029506 -8.63058 0.0
-0.0029506 -6.71899 0.0
-0.0809601 -6.72355 0.0
-0.0153281 -8.63124 0.0
0.0153309 -8.63124 0.0
0.0809629 -6.72355 0.0
0.00295341 -6.71899 0.0
0.00295341 -8.63058 0.0
0.0334943 -8.63386 0.0
0.164398 -6.73784 0.0
0.0868501 -6.72421 0.0
0.0212182 -8.6319 0.0
0.0514099 -8.6384 0.0
0.246891 -6.76169 0.0
0.170236 -6.73914 0.0
0.0393324 -8.63517 0.0
0.0689594 -8.6448 0.0
0.328028 -6.79488 0.0
0.252651 -6.76364 0.0
0.0571695 -8.64034 0.0
0.0860375 -8.65296 0.0
0.407453 -6.83712 0.0
0.333684 -6.79744 0.0
0.0746148 -8.64736 0.0
0.102552 -8.66281 0.0
0.484857 -6.8881 0.0
0.412982 -6.84028 0.0
0.0915665 -8.65612 0.0
0.118423 -8.67421 0.0
0.55997 -6.9475 0.0
0.49024 -6.89184 0.0
0.107936 -8.66654 0.0
0.133578 -8.68707 0.0
0.632548 -7.015 0.0
0.565192 -6.9518 0.0
0.123644 -8.67851 0.0
0.147953 -8.70125 0.0
0.702358 -7.09027 0.0
0.637591 -7.01983 0.0
0.138621 -8.6919 0.0
0.161492 -8.71662 0.0
0.769178 -7.17296 0.0
0.707208 -7.09561 0.0
0.152803 -8.70659 0.0
0.174142 -8.73303 0.0
0.832794 -7.26271 0.0
0.77382 -7.17879 0.0
0.166134 -8.72245 0.0
0.185861 -8.75032 0.0
0.892997 -7.35915 0.0
0.837215 -7.26901 0.0
0.178564 -8.73933 0.0
0.196613 -8.76833 0.0
0.949588 -7.46186 0.0
0.897184 -7.36589 0.0
0.190048 -8.75706 0.0
0.206375 -8.78686 0.0
1.00238 -7.57043 0.0
0.953529 -7.46902 0.0
0.200554 -8.77548 0.0
0.215138 -8.80572 0.0
1.05119 -7.68437 0.0
1.00606 -7.57796 0.0
0.210058 -8.7944 0.0
0.22291 -8.82472 0.0
1.09585 -7.80319 0.0
1.0546 -7.69226 0.0
0.218551 -8.81361 0.0
0.229717 -8.84364 0.0
1.13621 -7.92632 0.0
1.09898 -7.8114 0.0
0.226042 -8.83292 0.0
0.235602 -8.8623 0.0
1.1721 -8.05308 0.0
1.13905 -7.93481 0.0
0.232554 -8.85213 0.0
0.240627 -8.88051 0.0
1.20339 -8.18262 0.0
1.17463 -8.0618 0.0
0.238133 -8.87102 0.0
0.244867 -8.8981 0.0
1.22994 -8.31373 0.0
1.2056 -8.1915 0.0
0.242837 -8.88939 0.0
0.248402 -8.91489 0.0
1.25168 -8.44462 0.0
1.23181 -8.32267 0.0
0.246741 -8.90705 0.0
0.251311 -8.9307 0.0
1.26867 -8.57255 0.0
1.25321 -8.45348 0.0
0.249927 -8.92375 0.0
0.253663 -8.94527 0.0
1.28115 -8.69333 0.0
1.26984 -8.58108 0.0
0.252481 -8.93923 0.0
0.255506 -8.95827 0.0
1.28965 -8.80101 0.0
1.28197 -8.70118 0.0
0.254475 -8.95312 0.0
0.256847 -8.96929 0.0
1.29482 -8.8885 0.0
1.29009 -8.80772 0.0
0.255944 -8.96499 0.0
-1.40959 -8.87841 0.0
-1.40485 -8.79764 0.0
-2.59305 -8.66148 0.0
-2.60155 -8.84017 0.0
-1.40383 -8.78073 0.0
-1.39615 -8.6809 0.0
-2.57673 -8.42303 0.0
-2.59203 -8.64458 0.0
-1.39424 -8.66129 0.0
-1.38292 -8.54905 0.0
-2.55131 -8.16069 0.0
-2.57481 -8.40343 0.0
-1.38028 -8.52812 0.0
-1.36482 -8.40905 0.0
-2.51628 -7.88912 0.0
-2.54867 -8.13976 0.0
-1.36148 -8.38764 0.0
-1.34161 -8.2657 0.0
-2.47152 -7.61626 0.0
-2.51294 -7.86772 0.0
-1.33756 -8.24428 0.0
-1.31322 -8.12205 0.0
-2.4171 -7.34634 0.0
-2.46747 -7.59484 0.0
-1.30845 -8.10091 0.0
-1.2797 -7.98009 0.0
-2.35323 -7.08184 0.0
-2.41234 -7.32519 0.0
-1.27421 -7.9594 0.0
-1.24116 -7.84112 0.0
-2.28014 -6.82443 0.0
-2.34774 -7.06115 0.0
-1.23497 -7.82102 0.0
-1.19774 -7.70609 0.0
-2.19814 -6.57538 0.0
-2.27395 -6.80432 0.0
-1.19086 -7.68668 0.0
-1.14961 -7.57574 0.0
-2.10753 -6.33579 0.0
-2.19126 -6.55597 0.0
-1.14206 -7.5571 0.0
-1.09693 -7.4507 0.0
-2.00867 -6.10662 0.0
-2.09998 -6.31715 0.0
-1.08874 -7.43291 0.0
-1.03989 -7.3315 0.0
-1.90193 -5.8888 0.0
-2.00048 -6.08884 0.0
-1.03109 -7.31465 0.0
-0.978685 -7.21868 0.0
-1.78771 -5.68316 0.0
-1.89312 -5.87194 0.0
-0.9693 -7.20282 0.0
-0.913518 -7.11268 0.0
-1.66644 -5.49051 0.0
-1.77833 -5.6673 0.0
-0.903585 -7.09789 0.0
-0.844612 -7.01397 0.0
-1.53856 -5.31159 0.0
-1.65651 -5.47571 0.0
-0.834167 -7.0003 0.0
-0.772196 -6.92295 0.0
-1.40453 -5.14709 0.0
-1.52811 -5.29791 0.0
-0.761275 -6.91045 0.0
-0.696508 -6.84002 0.0
-1.26483 -4.99768 0.0
-1.39361 -5.13459 0.0
-0.685148 -6.82875 0.0
-0.617791 -6.76554 0.0
-1.11993 -4.86394 0.0
-1.25347 -4.9864 0.0
-0.606031 -6.75555 0.0
-0.536301 -6.69988 0.0
-0.970357 -4.74646 0.0
-1.10817 -4.85395 0.0
-0.524182 -6.69121 0.0
-0.452307 -6.64339 0.0
-0.816615 -4.64577 0.0
-0.958237 -4.73779 0.0
-0.439871 -6.63608 0.0
-0.366103 -6.59641 0.0
-0.659263 -4.56239 0.0
-0.804179 -4.63847 0.0
-0.353397 -6.59051 0.0
-0.278019 -6.55926 0.0
-0.498897 -4.49677 0.0
-0.646557 -4.55648 0.0
-0.265095 -6.5548 0.0
-0.18844 -6.53225 0.0
-0.336175 -4.44933 0.0
-0.485973 -4.4923 0.0
-0.175353 -6.52926 0.0
-0.0978052 -6.51563 0.0
-0.171818 -4.42042 0.0
-0.323088 -4.44634 0.0
-0.0846184 -6.51413 0.0
-0.00660894 -6.50957 0.0
-0.00660894 -4.41026 0.0
-0.158631 -4.41892 0.0
0.00661175 -6.50957 0.0
0.0846212 -6.51413 0.0
0.158634 -4.41892 0.0
0.00661175 -4.41026 0.0
0.097808 -6.51563 0.0
0.175356 -6.52926 0.0
0.323091 -4.44634 0.0
0.171821 -4.42042 0.0
0.188443 -6.53225 0.0
0.265098 -6.5548 0.0
0.485976 -4.4923 0.0
0.336178 -4.44933 0.0
0.278022 -6.55926 0.0
0.3534 -6.59051 0.0
0.64656 -4.55648 0.0
0.4989 -4.49677 0.0
0.366105 -6.59641 0.0
0.439874 -6.63608 0.0
0.804182 -4.63847 0.0
0.659266 -4.56239 0.0
0.45231 -6.64339 0.0
0.524185 -6.69121 0.0
0.95824 -4.73779 0.0
0.816618 -4.64577 0.0
0.536304 -6.69988 0.0
0.606034 -6.75555 0.0
1.10818 -4.85395 0.0
0.97036 -4.74646 0.0
0.617794 -6.76554 0.0
0.68515 -6.82875 0.0
1.25347 -4.9864 0.0
1.11994 -4.86394 0.0
0.696511 -6.84002 0.0
0.761278 -6.91045 0.0
1.39361 -5.13459 0.0
1.26483 -4.99768 0.0
0.772199 -6.92295 0.0
0.83417 -7.0003 0.0
1.52812 -5.29791 0.0
1.40453 -5.14709 0.0
0.844615 -7.01397 0.0
0.903588 -7.09789 0.0
1.65651 -5.47571 0.0
1.53856 -5.31159 0.0
0.913521 -7.11268 0.0
0.969303 -7.20282 0.0
1.77833 -5.6673 0.0
1.66644 -5.49051 0.0
0.978688 -7.21868 0.0
1.03109 -7.31465 0.0
1.89313 -5.87194 0.0
1.78771 -5.68316 0.0
1.0399 -7.3315 0.0
1.08874 -7.43291 0.0
2.00048 -6.08884 0.0
1.90193 -5.8888 0.0
1.09694 -7.4507 0.0
1.14206 -7.5571 0.0
2.09998 -6.31715 0.0
2.00867 -6.10662 0.0
1.14961 -7.57574 0.0
1.19086 -7.68668 0.0
2.19126 -6.55597 0.0
2.10753 -6.33579 0.0
1.19775 -7.70609 0.0
1.23497 -7.82102 0.0
2.27395 -6.80432 0.0
2.19814 -6.57538 0.0
1.24116 -7.84112 0.0
1.27422 -7.9594 0.0
2.34775 -7.06115 0.0
2.28015 -6.82443 0.0
1.2797 -7.98009 0.0
1.30846 -8.10091 0.0
2.41234 -7.32519 0.0
2.35323 -7.08184 0.0
1.31322 -8.12205 0.0
1.33756 -8.24428 0.0
2.46747 -7.59484 0.0
2.41711 -7.34634 0.0
1.34161 -8.2657 0.0
1.36148 -8.38764 0.0
2.51295 -7.86772 0.0
2.47152 -7.61626 0.0
1.36482 -8.40905 0.0
1.38028 -8.52812 0.0
2.54867 -8.13976 0.0
2.51629 -7.88912 0.0
1.38292 -8.54905 0.0
1.39424 -8.66129 0.0
2.57482 -8.40343 0.0
2.55131 -8.16069 0.0
1.39615 -8.6809 0.0
1.40384 -8.78073 0.0
2.59203 -8.64458 0.0
2.57673 -8.42303 0.0
1.40486 -8.79764 0.0
1.40959 -8.87841 0.0
2.60155 -8.84017 0.0
2.59305 -8.66148 0.0
-2.72243 -8.65267 0.0
-3.91752 -8.52261 0.0
-3.92891 -8.80831 0.0
-2.73093 -8.83135 0.0
-2.7054 -8.40184 0.0
-3.8935 -8.14262 0.0
-3.91579 -8.49333 0.0
-2.7207 -8.62339 0.0
-2.67897 -8.12551 0.0
-3.85538 -7.73248 0.0
-3.89058 -8.10903 0.0
-2.70248 -8.36825 0.0
-2.6425 -7.83959 0.0
-3.80247 -7.31405 0.0
-3.85129 -7.6972 0.0
-2.67488 -8.09023 0.0
-2.59577 -7.5525 0.0
-3.73469 -6.89729 0.0
-3.79717 -7.27841 0.0
-2.6372 -7.80395 0.0
-2.53888 -7.26864 0.0
-3.65225 -6.487 0.0
-3.72816 -6.86194 0.0
-2.58925 -7.51715 0.0
-2.47202 -6.99059 0.0
-3.55546 -6.086 0.0
-3.6445 -6.4523 0.0
-2.53113 -7.23394 0.0
-2.39547 -6.72003 0.0
-3.44471 -5.69628 0.0
-3.54651 -6.05216 0.0
-2.46307 -6.95675 0.0
-2.30954 -6.45828 0.0
-3.32044 -5.31954 0.0
-3.43458 -5.66348 0.0
-2.38535 -6.68722 0.0
-2.21456 -6.20647 0.0
-3.18313 -4.95729 0.0
-3.30918 -5.28791 0.0
-2.29828 -6.42665 0.0
-2.1109 -5.96562 0.0
-3.03333 -4.61097 0.0
-3.17079 -4.92697 0.0
-2.20221 -6.17615 0.0
-1.99895 -5.73668 0.0
-2.87162 -4.28193 0.0
-3.01994 -4.58207 0.0
-2.0975 -5.93672 0.0
-1.87916 -5.52053 0.0
-2.69861 -3.97145 0.0
-2.85724 -4.25457 0.0
-1.98457 -5.70932 0.0
-1.75195 -5.31802 0.0
-2.51497 -3.68072 0.0
-2.68329 -3.94573 0.0
-1.86383 -5.49481 0.0
-1.6178 -5.12992 0.0
-2.32138 -3.41087 0.0
-2.49876 -3.65675 0.0
-1.73574 -5.29405 0.0
-1.47719 -4.95696 0.0
-2.11857 -3.16295 0.0
-2.30435 -3.38874 0.0
-1.60077 -5.10778 0.0
-1.33062 -4.79983 0.0
-1.90727 -2.93793 0.0
-2.10078 -3.14274 0.0
-1.45941 -4.93675 0.0
-1.17861 -4.65916 0.0
-1.68827 -2.73672 0.0
-1.8888 -2.91973 0.0
-1.31214 -4.78162 0.0
-1.02169 -4.53554 0.0
-1.46234 -2.56013 0.0
-1.66916 -2.72059 0.0
-1.15951 -4.64303 0.0
-0.860399 -4.42955 0.0
-1.23031 -2.40895 0.0
-1.44267 -2.54615 0.0
-1.00202 -4.52156 0.0
-0.695327 -4.3417 0.0
-0.993035 -2.28388 0.0
-1.21015 -2.39718 0.0
-0.840243 -4.41778 0.0
-0.527098 -4.27248 0.0
-0.751422 -2.18556 0.0
-0.972466 -2.27439 0.0
-0.674758 -4.3322 0.0
-0.3564 -4.22234 0.0
-0.506448 -2.11454 0.0
-0.730522 -2.17838 0.0
-0.506198 -4.26531 0.0
-0.183986 -4.19161 0.0
-0.259161 -2.07125 0.0
-0.485305 -2.10973 0.0
-0.335256 -4.21753 0.0
-0.0106705 -4.18053 0.0
-0.0106705 -2.05598 0.0
-0.237867 -2.06883 0.0
-0.162693 -4.1892 0.0
0.162696 -4.1892 0.0
0.23787 -2.06883 0.0
0.0106733 -2.05598 0.0
0.0106733 -4.18053 0.0
0.335259 -4.21753 0.0
0.485307 -2.10973 0.0
0.259163 -2.07125 0.0
0.183989 -4.19161 0.0
0.506201 -4.26531 0.0
0.730525 -2.17838 0.0
0.506451 -2.11454 0.0
0.356403 -4.22234 0.0
0.674761 -4.3322 0.0
0.972469 -2.27439 0.0
0.751425 -2.18556 0.0
0.527101 -4.27248 0.0
0.840246 -4.41778 0.0
1.21016 -2.39718 0.0
0.993037 -2.28388 0.0
0.69533 -4.3417 0.0
1.00202 -4.52156 0.0
1.44268 -2.54615 0.0
1.23031 -2.40895 0.0
0.860402 -4.42955 0.0
1.15951 -4.64303 0.0
1.66916 -2.72059 0.0
1.46234 -2.56013 0.0
1.02169 -4.53554 0.0
1.31215 -4.78162 0.0
1.8888 -2.91973 0.0
1.68827 -2.73672 0.0
1.17862 -4.65916 0.0
1.45941 -4.93675 0.0
2.10079 -3.14274 0.0
1.90728 -2.93793 0.0
1.33063 -4.79983 0.0
1.60078 -5.10778 0.0
2.30436 -3.38874 0.0
2.11857 -3.16295 0.0
1.47719 -4.95696 0.0
1.73575 -5.29405 0.0
2.49877 -3.65675 0.0
2.32138 -3.41087 0.0
1.6178 -5.12992 0.0
1.86384 -5.49481 0.0
2.68329 -3.94573 0.0
2.51497 -3.68072 0.0
1.75195 -5.31802 0.0
1.98457 -5.70932 0.0
2.85724 -4.25457 0.0
2.69861 -3.97145 0.0
1.87916 -5.52053 0.0
2.09751 -5.93672 0.0
3.01995 -4.58207 0.0
2.87162 -4.28193 0.0
1.99896 -5.73668 0.0
2.20221 -6.17615 0.0
3.17079 -4.92697 0.0
3.03334 -4.61097 0.0
2.1109 -5.96562 0.0
2.29828 -6.42665 0.0
3.30918 -5.28791 0.0
3.18314 -4.95729 0.0
2.21456 -6.20647 0.0
2.38536 -6.68722 0.0
3.43459 -5.66348 0.0
3.32044 -5.31954 0.0
2.30954 -6.45828 0.0
2.46308 -6.95675 0.0
3.54651 -6.05216 0.0
3.44471 -5.69628 0.0
2.39548 -6.72003 0.0
2.53114 -7.23394 0.0
3.6445 -6.4523 0.0
3.55546 -6.086 0.0
2.47203 -6.99059 0.0
2.58925 -7.51715 0.0
3.72817 -6.86194 0.0
3.65225 -6.487 0.0
2.53888 -7.26864 0.0
2.6372 -7.80395 0.0
3.79717 -7.27841 0.0
3.73469 -6.89729 0.0
2.59578 -7.5525 0.0
2.67488 -8.09023 0.0
3.85129 -7.6972 0.0
3.80247 -7.31405 0.0
2.6425 -7.83959 0.0
2.70248 -8.36825 0.0
3.89058 -8.10903 0.0
3.85538 -7.73248 0.0
2.67897 -8.12551 0.0
2.72071 -8.62339 0.0
3.91579 -8.49333 0.0
3.89351 -8.14262 0.0
2.70541 -8.40184 0.0
2.72243 -8.65267 0.0
2.73093 -8.83135 0.0
3.92891 -8.80831 0.0
3.91752 -8.52261 0.0
-4.04908 -8.51443 0.0
-5.24529 -8.38543 0.0
-5.25935 -8.78396 0.0
-4.06047 -8.80013 0.0
-4.0245 -8.12121 0.0
-5.21378 -7.85995 0.0
-5.243 -8.34292 0.0
-4.04678 -8.47192 0.0
-3.9854 -7.6965 0.0
-5.16299 -7.30096 0.0
-5.20989 -7.8118 0.0
-4.0206 -8.07306 0.0
-3.931 -7.26341 0.0
-5.09217 -6.73579 0.0
-5.15741 -7.25102 0.0
-3.97982 -7.64656 0.0
-3.8612 -6.83224 0.0
-5.00135 -6.17541 0.0
-5.08485 -6.68574 0.0
-3.92368 -7.21336 0.0
-3.77622 -6.40787 0.0
-4.89084 -5.62489 0.0
-4.99228 -6.12598 0.0
-3.85214 -6.78281 0.0
-3.67639 -5.99315 0.0
-4.7611 -5.08733 0.0
-4.88006 -5.57647 0.0
-3.76543 -6.35945 0.0
-3.56212 -5.59011 0.0
-4.61263 -4.56513 0.0
-4.74863 -5.04017 0.0
-3.66392 -5.94599 0.0
-3.43386 -5.20048 0.0
-4.44604 -4.06042 0.0
-4.59853 -4.51944 0.0
-3.54801 -5.54442 0.0
-3.29212 -4.82582 0.0
-4.26197 -3.5752 0.0
-4.43035 -4.01638 0.0
-3.41817 -5.15644 0.0
-3.13746 -4.46761 0.0
-4.06115 -3.11138 0.0
-4.24476 -3.53299 0.0
-3.27491 -4.78361 0.0
-2.97047 -4.12725 0.0
-3.84436 -2.67075 0.0
-4.04248 -3.07115 0.0
-3.11879 -4.42739 0.0
-2.79179 -3.80606 0.0
-3.61243 -2.25505 0.0
-3.82431 -2.63268 0.0
-2.95041 -4.08918 0.0
-2.60211 -3.50527 0.0
-3.36627 -1.86587 0.0
-3.59107 -2.21927 0.0
-2.77043 -3.77028 0.0
-2.40214 -3.22606 0.0
-3.1068 -1.50474 0.0
-3.34368 -1.83254 0.0
-2.57953 -3.47193 0.0
-2.19263 -2.96951 0.0
-2.83501 -1.17306 0.0
-3.08308 -1.47397 0.0
-2.37842 -3.19529 0.0
-1.97435 -2.73661 0.0
-2.55192 -0.872127 0.0
-2.81024 -1.14497 0.0
-2.16786 -2.94142 0.0
-1.7481 -2.52832 0.0
-2.25856 -0.603144 0.0
-2.52618 -0.846839 0.0
-1.94862 -2.71133 0.0
-1.51468 -2.34548 0.0
-1.95604 -0.36721 0.0
-2.23197 -0.580756 0.0
-1.7215 -2.50593 0.0
-1.27495 -2.18888 0.0
-1.64546 -0.165328 0.0
-1.92868 -0.347816 0.0
-1.48732 -2.32608 0.0
-1.02981 -2.05926 0.0
-1.32799 0.00159327 0.0
-1.61743 -0.149014 0.0
-1.24693 -2.17257 0.0
-0.780176 -1.95728 0.0
-1.00486 0.132748 0.0
-1.2994 0.0147506 0.0
-1.00122 -2.04611 0.0
-0.527069 -1.8835 0.0
-0.677354 0.227453 0.0
-0.975823 0.142682 0.0
-0.751143 -1.94735 0.0
-0.271566 -1.83836 0.0
-0.346859 0.285176 0.0
-0.647995 0.234109 0.0
-0.49771 -1.87684 0.0
-0.0148112 -1.82217 0.0
-0.0148112 0.305571 0.0
-0.3173 0.288514 0.0
-0.242008 -1.83502 0.0
0.242011 -1.83502 0.0
0.317303 0.288514 0.0
0.0148141 0.305571 0.0
0.0148141 -1.82217 0.0
0.497713 -1.87684 0.0
0.647998 0.234109 0.0
0.346861 0.285176 0.0
0.271569 -1.83836 0.0
0.751146 -1.94735 0.0
0.975826 0.142682 0.0
0.677357 0.227453 0.0
0.527072 -1.8835 0.0
1.00122 -2.04611 0.0
1.29941 0.0147506 0.0
1.00486 0.132748 0.0
0.780178 -1.95728 0.0
1.24693 -2.17257 0.0
1.61743 -0.149014 0.0
1.32799 0.00159327 0.0
1.02981 -2.05926 0.0
1.48732 -2.32608 0.0
1.92868 -0.347816 0.0
1.64546 -0.165328 0.0
1.27496 -2.18888 0.0
1.7215 -2.50593 0.0
2.23197 -0.580756 0.0
1.95604 -0.36721 0.0
1.51468 -2.34548 0.0
1.94863 -2.71133 0.0
2.52619 -0.846839 0.0
2.25857 -0.603144 0.0
1.7481 -2.52832 0.0
2.16787 -2.94142 0.0
2.81024 -1.14497 0.0
2.55192 -0.872127 0.0
1.97436 -2.73661 0.0
2.37843 -3.19529 0.0
3.08308 -1.47397 0.0
2.83501 -1.17306 0.0
2.19264 -2.96951 0.0
2.57953 -3.47193 0.0
3.34369 -1.83254 0.0
3.1068 -1.50474 0.0
2.40215 -3.22606 0.0
2.77043 -3.77028 0.0
3.59108 -2.21927 0.0
3.36627 -1.86587 0.0
2.60211 -3.50527 0.0
2.95042 -4.08918 0.0
3.82431 -2.63268 0.0
3.61243 -2.25505 0.0
2.79179 -3.80606 0.0
3.11879 -4.42739 0.0
4.04248 -3.07115 0.0
3.84436 -2.67075 0.0
2.97047 -4.12725 0.0
3.27491 -4.78361 0.0
4.24476 -3.53299 0.0
4.06115 -3.11138 0.0
3.13746 -4.46761 0.0
3.41817 -5.15644 0.0
4.43035 -4.01638 0.0
4.26198 -3.5752 0.0
3.29213 -4.82582 0.0
3.54801 -5.54442 0.0
4.59853 -4.51944 0.0
4.44604 -4.06042 0.0
3.43387 -5.20048 0.0
3.66392 -5.94599 0.0
4.74863 -5.04017 0.0
4.61264 -4.56513 0.0
3.56212 -5.59011 0.0
3.76544 -6.35945 0.0
4.88006 -5.57647 0.0
4.7611 -5.08733 0.0
3.67639 -5.99315 0.0
3.85214 -6.78281 0.0
4.99229 -6.12598 0.0
4.89084 -5.62489 0.0
3.77622 -6.40787 0.0
3.92368 -7.21336 0.0
5.08486 -6.68574 0.0
5.00135 -6.17541 0.0
3.8612 -6.83224 0.0
3.97982 -7.64656 0.0
5.15742 -7.25102 0.0
5.09217 -6.73579 0.0
3.931 -7.26341 0.0
4.0206 -8.07306 0.0
5.20989 -7.8118 0.0
5.16299 -7.30096 0.0
3.9854 -7.6965 0.0
4.04679 -8.47192 0.0
5.243 -8.34292 0.0
5.21379 -7.85995 0.0
4.0245 -8.12121 0.0
4.04908 -8.51443 0.0
4.06047 -8.80013 0.0
5.25935 -8.78396 0.0
5.24529 -8.38543 0.0
-5.37754 -8.37753 0.0
-6.57398 -8.24852 0.0
-6.59061 -8.76392 0.0
-5.3916 -8.77606 0.0
-5.34551 -7.83836 0.0
-6.53501 -7.57569 0.0
-6.57116 -8.19231 0.0
-5.37472 -8.32133 0.0
-5.29373 -7.26461 0.0
-6.4715 -6.86784 0.0
-6.53012 -7.51278 0.0
-5.34062 -7.77545 0.0
-5.22138 -6.68473 0.0
-6.38273 -6.15632 0.0
-6.4644 -6.8032 0.0
-5.28663 -7.19997 0.0
-5.12851 -6.10993 0.0
-6.26883 -5.45263 0.0
-6.37336 -6.09185 0.0
-5.21202 -6.62026 0.0
-5.01544 -5.54531 0.0
-6.13023 -4.76204 0.0
-6.2572 -5.3891 0.0
-5.11688 -6.0464 0.0
-4.88264 -4.994 0.0
-5.96751 -4.08796 0.0
-6.11639 -4.69986 0.0
-5.0016 -5.48314 0.0
-4.73063 -4.45842 0.0
-5.78131 -3.43325 0.0
-5.9515 -4.02743 0.0
-4.86663 -4.93347 0.0
-4.56003 -3.94077 0.0
-5.57237 -2.80051 0.0
-5.7632 -3.37461 0.0
-4.71252 -4.39978 0.0
-4.37151 -3.44308 0.0
-5.34151 -2.19225 0.0
-5.55222 -2.744 0.0
-4.53988 -3.88426 0.0
-4.1658 -2.96731 0.0
-5.08963 -1.61085 0.0
-5.31941 -2.13809 0.0
-4.3494 -3.38892 0.0
-3.9437 -2.51531 0.0
-4.81773 -1.05857 0.0
-5.06566 -1.55925 0.0
-4.14182 -2.91571 0.0
-3.70608 -2.08884 0.0
-4.52685 -0.537566 0.0
-4.79198 -1.00973 0.0
-3.91795 -2.46647 0.0
-3.45385 -1.68956 0.0
-4.21813 -0.0498751 0.0
-4.49943 -0.491683 0.0
-3.67866 -2.04296 0.0
-3.18797 -1.31901 0.0
-3.89274 0.402609 0.0
-4.18914 -0.00712403 0.0
-3.42486 -1.64681 0.0
-2.90945 -0.978649 0.0
-3.55193 0.818117 0.0
-3.86229 0.442061 0.0
-3.15752 -1.27956 0.0
-2.61934 -0.669803 0.0
-3.19698 1.19502 0.0
-3.52013 0.854117 0.0
-2.87766 -0.942649 0.0
-2.31869 -0.393704 0.0
-2.82923 1.53182 0.0
-3.16396 1.22742 0.0
-2.58632 -0.637399 0.0
-2.00864 -0.15148 0.0
-2.45006 1.82714 0.0
-2.79511 1.56049 0.0
-2.28457 -0.365026 0.0
-1.69033 0.0558409 0.0
-2.06088 2.07976 0.0
-2.41496 1.85198 0.0
-1.97354 -0.126647 0.0
-1.36495 0.227329 0.0
-1.66316 2.28855 0.0
-2.02494 2.10064 0.0
-1.65439 0.076722 0.0
-1.03375 0.36216 0.0
-1.25846 2.45256 0.0
-1.62652 2.30539 0.0
-1.3283 0.244163 0.0
-0.698077 0.459636 0.0
-0.848376 2.57096 0.0
-1.22125 2.46526 0.0
-0.996546 0.374864 0.0
-0.359325 0.519212 0.0
-0.434624 2.64312 0.0
-0.810761 2.57947 0.0
-0.660462 0.468145 0.0
-0.0189724 0.540537 0.0
-0.0189724 2.66865 0.0
-0.396761 2.64739 0.0
-0.321461 0.523479 0.0
0.321464 0.523479 0.0
0.396763 2.64739 0.0
0.0189752 2.66865 0.0
0.0189752 0.540537 0.0
0.660465 0.468145 0.0
0.810764 2.57947 0.0
0.434627 2.64312 0.0
0.359328 0.519212 0.0
0.996549 0.374864 0.0
1.22125 2.46526 0.0
0.848379 2.57096 0.0
0.69808 0.459636 0.0
1.3283 0.244163 0.0
1.62652 2.30539 0.0
1.25846 2.45256 0.0
1.03376 0.36216 0.0
1.65439 0.076722 0.0
2.02494 2.10064 0.0
1.66316 2.28855 0.0
1.36495 0.227329 0.0
1.97355 -0.126647 0.0
2.41496 1.85198 0.0
2.06088 2.07976 0.0
1.69033 0.0558409 0.0
2.28457 -0.365026 0.0
2.79512 1.56049 0.0
2.45006 1.82714 0.0
2.00864 -0.15148 0.0
2.58632 -0.637399 0.0
3.16397 1.22742 0.0
2.82924 1.53182 0.0
2.3187 -0.393704 0.0
2.87766 -0.942649 0.0
3.52014 0.854117 0.0
3.19699 1.19502 0.0
2.61934 -0.669803 0.0
3.15752 -1.27956 0.0
3.86229 0.442061 0.0
3.55193 0.818117 0.0
2.90946 -0.978649 0.0
3.42486 -1.64681 0.0
4.18914 -0.00712403 0.0
3.89274 0.402609 0.0
3.18798 -1.31901 0.0
3.67866 -2.04296 0.0
4.49943 -0.491683 0.0
4.21813 -0.0498751 0.0
3.45385 -1.68956 0.0
3.91796 -2.46647 0.0
4.79199 -1.00973 0.0
4.52686 -0.537566 0.0
3.70608 -2.08884 0.0
4.14183 -2.91571 0.0
5.06567 -1.55925 0.0
4.81773 -1.05857 0.0
3.9437 -2.51531 0.0
4.34941 -3.38892 0.0
5.31941 -2.13809 0.0
5.08964 -1.61085 0.0
4.1658 -2.96731 0.0
4.53989 -3.88426 0.0
5.55222 -2.744 0.0
5.34151 -2.19225 0.0
4.37151 -3.44308 0.0
4.71252 -4.39978 0.0
5.7632 -3.37461 0.0
5.57237 -2.80051 0.0
4.56004 -3.94077 0.0
4.86663 -4.93347 0.0
5.9515 -4.02743 0.0
5.78132 -3.43325 0.0
4.73064 -4.45842 0.0
5.0016 -5.48314 0.0
6.11639 -4.69986 0.0
5.96752 -4.08796 0.0
4.88264 -4.994 0.0
5.11689 -6.0464 0.0
6.2572 -5.3891 0.0
6.13024 -4.76204 0.0
5.01544 -5.54531 0.0
5.21202 -6.62026 0.0
6.37336 -6.09185 0.0
6.26883 -5.45263 0.0
5.12851 -6.10993 0.0
5.28663 -7.19997 0.0
6.46441 -6.8032 0.0
6.38273 -6.15632 0.0
5.22139 -6.68473 0.0
5.34062 -7.77545 0.0
6.53012 -7.51278 0.0
6.47151 -6.86784 0.0
5.29373 -7.26461 0.0
5.37472 -8.32133 0.0
6.57117 -8.19231 0.0
6.53501 -7.57569 0.0
5.34551 -7.83836 0.0
5.37754 -8.37753 0.0
5.3916 -8.77606 0.0
6.59061 -8.76392 0.0
6.57399 -8.24852 0.0
-6.70654 -8.24077 0.0
-7.90303 -8.11144 0.0
-7.92217 -8.74666 0.0
-6.72317 -8.75618 0.0
-6.66705 -7.55398 0.0
-7.85658 -7.29033 0.0
-7.89969 -8.04127 0.0
-6.7032 -8.1706 0.0
-6.60254 -6.83129 0.0
-7.78032 -6.43384 0.0
-7.85068 -7.21258 0.0
-6.66116 -7.47623 0.0
-6.51222 -6.10508 0.0
-7.67356 -5.57632 0.0
-7.77168 -6.3545 0.0
-6.5939 -6.75195 0.0
-6.39626 -5.38697 0.0
-7.53657 -4.72952 0.0
-7.66213 -5.49743 0.0
-6.50079 -6.02619 0.0
-6.25509 -4.68227 0.0
-7.36988 -3.89893 0.0
-7.52237 -4.65189 0.0
-6.38206 -5.30934 0.0
-6.0893 -3.99443 0.0
-7.17417 -3.08836 0.0
-7.35297 -3.82298 0.0
-6.23818 -4.60632 0.0
-5.89955 -3.32632 0.0
-6.95023 -2.30113 0.0
-7.15461 -3.01443 0.0
-6.06974 -3.9205 0.0
-5.68659 -2.68062 0.0
-6.69893 -1.54035 0.0
-6.9281 -2.22952 0.0
-5.87742 -3.25471 0.0
-5.45127 -2.05986 0.0
-6.42127 -0.809029 0.0
-6.67431 -1.47135 0.0
-5.66198 -2.61161 0.0
-5.19449 -1.46649 0.0
-6.11833 -0.11002 0.0
-6.39426 -0.742897 0.0
-5.42426 -1.99373 0.0
-4.91727 -0.902806 0.0
-5.7913 0.55394 0.0
-6.08904 -0.0470196 0.0
-5.16521 -1.40349 0.0
-4.62069 -0.37102 0.0
-5.44146 1.18026 0.0
-5.75985 0.613563 0.0
-4.88582 -0.843183 0.0
-4.30589 0.1268 0.0
-5.07016 1.76649 0.0
-5.40796 1.23627 0.0
-4.58719 -0.315008 0.0
-3.97408 0.588716 0.0
-4.67884 2.31034 0.0
-5.03475 1.81867 0.0
-4.27047 0.178983 0.0
-3.62652 1.01292 0.0
-4.26899 2.80969 0.0
-4.64164 2.35849 0.0
-3.93688 0.636866 0.0
-3.26454 1.39775 0.0
-3.84218 3.26258 0.0
-4.23016 2.85362 0.0
-3.58769 1.05685 0.0
-2.88949 1.74168 0.0
-3.40001 3.6672 0.0
-3.80185 3.30211 0.0
-3.22421 1.43729 0.0
-2.50277 2.04331 0.0
-2.94417 4.02193 0.0
-3.35835 3.70218 0.0
-2.84782 1.77666 0.0
-2.10583 2.30137 0.0
-2.47637 4.32529 0.0
-2.90132 4.05221 0.0
-2.45992 2.07359 0.0
-1.70019 2.51474 0.0
-1.99839 4.57596 0.0
-2.4325 4.35074 0.0
-2.06196 2.32683 0.0
-1.28741 2.68243 0.0
-1.5121 4.77282 0.0
-1.95367 4.59648 0.0
-1.65547 2.53526 0.0
-0.869139 2.8036 0.0
-1.01943 4.91491 0.0
-1.4667 4.7883 0.0
-1.24201 2.69791 0.0
-0.447115 2.87762 0.0
-0.52241 5.00152 0.0
-0.973542 4.92528 0.0
-0.823252 2.81397 0.0
-0.0231416 2.90408 0.0
-0.0231416 5.03217 0.0
-0.476224 5.00671 0.0
-0.40093 2.88282 0.0
0.400932 2.88282 0.0
0.476227 5.00671 0.0
0.0231444 5.03217 0.0
0.0231444 2.90408 0.0
0.823255 2.81397 0.0
0.973545 4.92528 0.0
0.522412 5.00152 0.0
0.447118 2.87762 0.0
1.24202 2.69791 0.0
1.46671 4.7883 0.0
1.01943 4.91491 0.0
0.869142 2.8036 0.0
1.65547 2.53526 0.0
1.95367 4.59648 0.0
1.5121 4.77282 0.0
1.28741 2.68243 0.0
2.06197 2.32683 0.0
2.4325 4.35074 0.0
1.9984 4.57596 0.0
1.70019 2.51474 0.0
2.45992 2.07359 0.0
2.90132 4.05221 0.0
2.47637 4.32529 0.0
2.10584 2.30137 0.0
2.84782 1.77666 0.0
3.35835 3.70218 0.0
2.94417 4.02193 0.0
2.50277 2.04331 0.0
3.22422 1.43729 0.0
3.80185 3.30211 0.0
3.40002 3.6672 0.0
2.88949 1.74168 0.0
3.58769 1.05685 0.0
4.23016 2.85362 0.0
3.84218 3.26258 0.0
3.26454 1.39775 0.0
3.93689 0.636866 0.0
4.64165 2.35849 0.0
4.26899 2.80969 0.0
3.62653 1.01292 0.0
4.27048 0.178983 0.0
5.03475 1.81867 0.0
4.67884 2.31034 0.0
3.97408 0.588716 0.0
4.58719 -0.315008 0.0
5.40796 1.23627 0.0
5.07016 1.76649 0.0
4.30589 0.1268 0.0
4.88582 -0.843183 0.0
5.75985 0.613563 0.0
5.44146 1.18026 0.0
4.62069 -0.37102 0.0
5.16521 -1.40349 0.0
6.08904 -0.0470196 0.0
5.7913 0.55394 0.0
4.91728 -0.902806 0.0
5.42427 -1.99373 0.0
6.39426 -0.742897 0.0
6.11833 -0.11002 0.0
5.19449 -1.46649 0.0
5.66198 -2.61161 0.0
6.67432 -1.47135 0.0
6.42127 -0.809029 0.0
5.45127 -2.05986 0.0
5.87742 -3.25471 0.0
6.9281 -2.22952 0.0
6.69893 -1.54035 0.0
5.6866 -2.68062 0.0
6.06974 -3.9205 0.0
7.15462 -3.01443 0.0
6.95023 -2.30113 0.0
5.89955 -3.32632 0.0
6.23818 -4.60632 0.0
7.35297 -3.82298 0.0
7.17418 -3.08836 0.0
6.0893 -3.99443 0.0
6.38206 -5.30934 0.0
7.52237 -4.65189 0.0
7.36988 -3.89893 0.0
6.25509 -4.68227 0.0
6.50079 -6.02619 0.0
7.66213 -5.49743 0.0
7.53657 -4.72952 0.0
6.39626 -5.38697 0.0
6.5939 -6.75195 0.0
7.77168 -6.3545 0.0
7.67356 -5.57632 0.0
6.51223 -6.10508 0.0
6.66116 -7.47623 0.0
7.85069 -7.21258 0.0
7.78032 -6.43384 0.0
6.60254 -6.83129 0.0
6.70321 -8.1706 0.0
7.8997 -8.04127 0.0
7.85658 -7.29033 0.0
6.66705 -7.55398 0.0
6.70654 -8.24077 0.0
6.72317 -8.75618 0.0
7.92217 -8.74666 0.0
7.90303 -8.11144 0.0
-8.03574 -8.10379 0.0
-9.2321 -7.97408 0.0
-9.2537 -8.73133 0.0
-8.05487 -8.73901 0.0
-7.98877 -7.26852 0.0
-9.17815 -7.00422 0.0
-9.22825 -7.88976 0.0
-8.03189 -8.01947 0.0
-7.9115 -6.39718 0.0
-9.08911 -5.99938 0.0
-9.17124 -6.91161 0.0
-7.98186 -7.17591 0.0
-7.80319 -5.52498 0.0
-8.96435 -4.99611 0.0
-9.07892 -5.90535 0.0
-7.90131 -6.30315 0.0
-7.66412 -4.66377 0.0
-8.80426 -4.00635 0.0
-8.95085 -4.90283 0.0
-7.78969 -5.43169 0.0
-7.49486 -3.81908 0.0
-8.60947 -3.03584 0.0
-8.78748 -3.91461 0.0
-7.64735 -4.57203 0.0
-7.29608 -2.99473 0.0
-8.38078 -2.08881 0.0
-8.58949 -2.94611 0.0
-7.47487 -3.72935 0.0
-7.06858 -2.1941 0.0
-8.11908 -1.16908 0.0
-8.35766 -2.00148 0.0
-7.27297 -2.9074 0.0
-6.81326 -1.42034 0.0
-7.82542 -0.280277 0.0
-8.09293 -1.08449 0.0
-7.04243 -2.10951 0.0
-6.53113 -0.676514 0.0
-7.50095 0.574097 0.0
-7.79633 -0.198767 0.0
-6.78418 -1.33883 0.0
-6.22328 0.0344771 0.0
-7.14695 1.3907 0.0
-7.46904 0.652211 0.0
-6.49922 -0.5984 0.0
-5.89094 0.709849 0.0
-6.7648 2.16633 0.0
-7.11235 1.46511 0.0
-6.18868 0.108889 0.0
-5.53538 1.34696 0.0
-6.356 2.89795 0.0
-6.72763 2.23674 0.0
-5.85377 0.780267 0.0
-5.158 1.94333 0.0
-5.92213 3.58271 0.0
-6.31641 2.9641 0.0
-5.4958 1.41311 0.0
-4.76025 2.49662 0.0
-5.46487 4.21792 0.0
-5.88028 3.64433 0.0
-5.11616 2.00495 0.0
-4.34365 3.00468 0.0
-4.98599 4.80111 0.0
-5.42093 4.27478 0.0
-4.71631 2.55348 0.0
-3.90979 3.46551 0.0
-4.48731 5.32997 0.0
-4.94011 4.85297 0.0
-4.29777 3.05655 0.0
-3.46032 3.87726 0.0
-3.97074 5.80241 0.0
-4.43968 5.37664 0.0
-3.86216 3.51217 0.0
-2.99693 4.2383 0.0
-3.43824 6.21654 0.0
-3.92153 5.8437 0.0
-3.4111 3.91855 0.0
-2.52137 4.54711 0.0
-2.89182 6.57063 0.0
-3.38763 6.25227 0.0
-2.94632 4.27403 0.0
-2.03545 4.80236 0.0
-2.33359 6.86318 0.0
-2.84002 6.60066 0.0
-2.46956 4.57714 0.0
-1.54108 5.0029 0.0
-1.76572 7.09288 0.0
-2.28079 6.88738 0.0
-1.98265 4.82656 0.0
-1.04021 5.14777 0.0
-1.19047 7.25866 0.0
-1.71213 7.11114 0.0
-1.48749 5.02116 0.0
-0.534912 5.23624 0.0
-0.610189 7.35971 0.0
-1.1363 7.27089 0.0
-0.986044 5.16 0.0
-0.0273144 5.26782 0.0
-0.0273144 7.39549 0.0
-0.555674 7.36583 0.0
-0.480397 5.24236 0.0
0.480399 5.24236 0.0
0.555677 7.36583 0.0
0.0273172 7.39549 0.0
0.0273172 5.26782 0.0
0.986047 5.16 0.0
1.1363 7.27089 0.0
0.610192 7.35971 0.0
0.534914 5.23624 0.0
1.48749 5.02116 0.0
1.71213 7.11114 0.0
1.19047 7.25866 0.0
1.04021 5.14777 0.0
1.98265 4.82656 0.0
2.28079 6.88738 0.0
1.76572 7.09288 0.0
1.54108 5.0029 0.0
2.46956 4.57714 0.0
2.84002 6.60066 0.0
2.33359 6.86318 0.0
2.03546 4.80236 0.0
2.94632 4.27403 0.0
3.38763 6.25227 0.0
2.89182 6.57063 0.0
2.52137 4.54711 0.0
3.41111 3.91855 0.0
3.92153 5.8437 0.0
3.43824 6.21654 0.0
2.99693 4.2383 0.0
3.86216 3.51217 0.0
4.43968 5.37664 0.0
3.97074 5.80241 0.0
3.46032 3.87726 0.0
4.29778 3.05655 0.0
4.94011 4.85297 0.0
4.48732 5.32997 0.0
3.9098 3.46551 0.0
4.71631 2.55348 0.0
5.42093 4.27478 0.0
4.98599 4.80111 0.0
4.34366 3.00468 0.0
5.11616 2.00495 0.0
5.88029 3.64433 0.0
5.46487 4.21792 0.0
4.76025 2.49662 0.0
5.49581 1.41311 0.0
6.31642 2.9641 0.0
5.92213 3.58271 0.0
5.15801 1.94333 0.0
5.85378 0.780267 0.0
6.72764 2.23674 0.0
6.356 2.89795 0.0
5.53539 1.34696 0.0
6.18868 0.108889 0.0
7.11235 1.46511 0.0
6.7648 2.16633 0.0
5.89094 0.709849 0.0
6.49922 -0.5984 0.0
7.46905 0.652211 0.0
7.14695 1.3907 0.0
6.22329 0.0344771 0.0
6.78418 -1.33883 0.0
7.79634 -0.198767 0.0
7.50096 0.574097 0.0
6.53113 -0.676514 0.0
7.04243 -2.10951 0.0
8.09293 -1.08449 0.0
7.82542 -0.280277 0.0
6.81327 -1.42034 0.0
7.27297 -2.9074 0.0
8.35766 -2.00148 0.0
8.11908 -1.16908 0.0
7.06859 -2.1941 0.0
7.47488 -3.72935 0.0
8.58949 -2.94611 0.0
8.38078 -2.08881 0.0
7.29608 -2.99473 0.0
7.64735 -4.57203 0.0
8.78749 -3.91461 0.0
8.60947 -3.03584 0.0
7.49486 -3.81908 0.0
7.78969 -5.43169 0.0
8.95085 -4.90283 0.0
8.80426 -4.00635 0.0
7.66413 -4.66377 0.0
7.90131 -6.30315 0.0
9.07892 -5.90535 0.0
8.96436 -4.99611 0.0
7.80319 -5.52498 0.0
7.98186 -7.17591 0.0
9.17124 -6.91161 0.0
9.08911 -5.99938 0.0
7.9115 -6.39718 0.0
8.03189 -8.01947 0.0
9.22825 -7.88976 0.0
9.17815 -7.00422 0.0
7.98878 -7.26852 0.0
8.03574 -8.10379 0.0
8.05488 -8.73901 0.0
9.25371 -8.73133 0.0
9.2321 -7.97408 0.0
-9.36483 -7.9665 0.0
-10.5601 -7.83654 0.0
-10.5841 -8.71744 0.0
-9.38643 -8.72375 0.0
-9.31037 -6.98236 0.0
-10.4987 -6.71781 0.0
-10.5557 -7.73794 0.0
-9.36047 -7.8679 0.0
-9.2203 -5.96266 0.0
-10.3968 -5.56498 0.0
-10.4907 -6.61034 0.0
-9.30243 -6.87489 0.0
-9.09399 -4.94474 0.0
-10.254 -4.41631 0.0
-10.3851 -5.4563 0.0
-9.20856 -5.85398 0.0
-8.93182 -3.94059 0.0
-10.0708 -3.28383 0.0
-10.2385 -4.30864 0.0
-9.07841 -4.83707 0.0
-8.73445 -2.95598 0.0
-9.84789 -2.17359 0.0
-10.0515 -3.17799 0.0
-8.91246 -3.83476 0.0
-8.50268 -1.99518 0.0
-9.58618 -1.09029 0.0
-9.82483 -2.07009 0.0
-8.71139 -2.85249 0.0
-8.23743 -1.06205 0.0
-9.28671 -0.0382583 0.0
-9.55951 -0.989565 0.0
-8.47601 -1.89445 0.0
-7.93975 -0.160278 0.0
-8.95068 0.978366 0.0
-9.25654 0.0593022 0.0
-8.20725 -0.96449 0.0
-7.6108 0.706596 0.0
-8.57941 1.95559 0.0
-8.91712 1.07238 0.0
-7.90618 -0.0662682 0.0
-7.25189 1.53517 0.0
-8.17435 2.88959 0.0
-8.54259 2.04568 0.0
-7.57399 0.796687 0.0
-6.86442 2.32221 0.0
-7.73711 3.77669 0.0
-8.13443 2.9754 0.0
-7.21197 1.62099 0.0
-6.44991 3.06462 0.0
-7.26938 4.61343 0.0
-7.69423 3.8579 0.0
-6.82154 2.40342 0.0
-6.00995 3.75951 0.0
-6.77299 5.39654 0.0
-7.22372 4.68972 0.0
-6.40424 3.14091 0.0
-5.54627 4.40417 0.0
-6.24987 6.12295 0.0
-6.72472 5.4676 0.0
-5.96168 3.83057 0.0
-5.06064 4.99605 0.0
-5.70203 6.78982 0.0
-6.19917 6.18851 0.0
-5.49557 4.46972 0.0
-4.55491 5.53285 0.0
-5.13157 7.39452 0.0
-5.6491 6.84962 0.0
-5.00771 5.05585 0.0
-4.03103 6.01242 0.0
-4.54068 7.93465 0.0
-5.07662 7.44832 0.0
-4.49997 5.58665 0.0
-3.49098 6.43285 0.0
-3.93161 8.40805 0.0
-4.48392 7.98224 0.0
-3.97427 6.06001 0.0
-2.93681 6.79239 0.0
-3.30669 8.81278 0.0
-3.87325 8.44924 0.0
-3.43261 6.47403 0.0
-2.37064 7.08951 0.0
-2.66831 9.14712 0.0
-3.24695 8.84739 0.0
-2.87707 6.827 0.0
-1.79469 7.3229 0.0
-2.01898 9.4096 0.0
-2.60743 9.175 0.0
-2.30976 7.11739 0.0
-1.21124 7.49146 0.0
-1.36126 9.59902 0.0
-1.95719 9.43063 0.0
-1.7329 7.34393 0.0
-0.622687 7.59436 0.0
-0.69785 9.71448 0.0
-1.29882 9.6131 0.0
-1.1488 7.50553 0.0
-0.0314863 7.63107 0.0
-0.0314949 9.75539 0.0
-0.635009 9.72154 0.0
-0.559846 7.60141 0.0
0.559848 7.60141 0.0
0.635011 9.72154 0.0
0.03148 9.75539 0.0
0.0314886 7.63107 0.0
1.1488 7.50553 0.0
1.29882 9.6131 0.0
0.697852 9.71448 0.0
0.62269 7.59436 0.0
1.7329 7.34393 0.0
1.95719 9.43063 0.0
1.36127 9.59902 0.0
1.21125 7.49146 0.0
2.30976 7.11739 0.0
2.60743 9.175 0.0
2.01898 9.4096 0.0
1.79469 7.3229 0.0
2.87707 6.827 0.0
3.24695 8.84739 0.0
2.66832 9.14711 0.0
2.37064 7.08951 0.0
3.43262 6.47403 0.0
3.87325 8.44924 0.0
3.30669 8.81278 0.0
2.93681 6.79239 0.0
3.97427 6.06001 0.0
4.48392 7.98224 0.0
3.93161 8.40805 0.0
3.49098 6.43285 0.0
4.49997 5.58665 0.0
5.07662 7.44832 0.0
4.54068 7.93465 0.0
4.03103 6.01242 0.0
5.00771 5.05585 0.0
5.64911 6.84962 0.0
5.13157 7.39452 0.0
4.55492 5.53285 0.0
5.49557 4.46972 0.0
6.19918 6.18851 0.0
5.70203 6.78982 0.0
5.06064 4.99605 0.0
5.96168 3.83057 0.0
6.72472 5.4676 0.0
6.24987 6.12295 0.0
5.54627 4.40417 0.0
6.40424 3.14091 0.0
7.22372 4.68972 0.0
6.773 5.39654 0.0
6.00996 3.75951 0.0
6.82155 2.40342 0.0
7.69423 3.8579 0.0
7.26939 4.61343 0.0
6.44991 3.06462 0.0
7.21197 1.62099 0.0
8.13443 2.9754 0.0
7.73711 3.77669 0.0
6.86443 2.32221 0.0
7.57399 0.796687 0.0
8.54259 2.04568 0.0
8.17436 2.88959 0.0
7.2519 1.53517 0.0
7.90619 -0.0662681 0.0
8.91712 1.07238 0.0
8.57941 1.95559 0.0
7.61081 0.706596 0.0
8.20726 -0.96449 0.0
9.25654 0.0593017 0.0
8.95068 0.978367 0.0
7.93975 -0.160278 0.0
8.47601 -1.89445 0.0
9.55951 -0.989565 0.0
9.28671 -0.0382589 0.0
8.23743 -1.06205 0.0
8.71139 -2.85249 0.0
9.82484 -2.0701 0.0
9.58618 -1.09029 0.0
8.50268 -1.99518 0.0
8.91247 -3.83476 0.0
10.0515 -3.17799 0.0
9.8479 -2.17359 0.0
8.73446 -2.95598 0.0
9.07842 -4.83707 0.0
10.2385 -4.30864 0.0
10.0708 -3.28383 0.0
8.93183 -3.94059 0.0
9.20856 -5.85398 0.0
10.3851 -5.4563 0.0
10.254 -4.41631 0.0
9.094 -4.94474 0.0
9.30244 -6.87489 0.0
10.4907 -6.61034 0.0
10.3968 -5.56498 0.0
9.22031 -5.96266 0.0
9.36047 -7.8679 0.0
10.5557 -7.73794 0.0
10.4987 -6.71781 0.0
9.31037 -6.98236 0.0
9.36483 -7.9665 0.0
9.38644 -8.72375 0.0
10.5841 -8.71744 0.0
10.5601 -7.83654 0.0
-10.6924 -7.82905 0.0
-11.3514 -7.75825 0.0
-11.8806 -7.69955 0.0
-11.9065 -8.70488 0.0
-10.7164 -8.70995 0.0
-11.3135 -7.65265 0.0
-10.6546 -7.72346 0.0
-10.5975 -6.70333 0.0
-11.1498 -6.58255 0.0
-11.1415 -6.46525 0.0
-10.5892 -6.58602 0.0
-10.4953 -5.54067 0.0
-11.0088 -5.37066 0.0
-11.2785 -6.42984 0.0
-10.9963 -5.25188 0.0
-10.4827 -5.4219 0.0
-10.3517 -4.3819 0.0
-10.833 -4.1665 0.0
-11.1912 -5.17888 0.0
-10.8163 -4.04872 0.0
-10.335 -4.26412 0.0
-10.1674 -3.23931 0.0
-10.6176 -2.98354 0.0
-11.0569 -3.93164 0.0
-10.8727 -2.70097 0.0
-10.5968 -2.86753 0.0
-10.1465 -3.1233 0.0
-9.94298 -2.11889 0.0
-10.3665 -1.82505 0.0
-10.6371 -1.49631 0.0
-10.3415 -1.71133 0.0
-9.91795 -2.00517 0.0
-9.67929 -1.02537 0.0
-10.0825 -0.692333 0.0
-10.3568 -0.321028 0.0
-10.0535 -0.581538 0.0
-9.65027 -0.914571 0.0
-9.37747 0.0367358 0.0
-9.76134 0.407658 0.0
-10.0291 0.815708 0.0
-9.72833 0.515154 0.0
-9.34446 0.144232 0.0
-9.0386 1.0633 0.0
-9.40758 1.47533 0.0
-9.66066 1.91244 0.0
-9.3708 1.57896 0.0
-9.00183 1.16693 0.0
-8.66412 2.05015 0.0
-9.01789 2.50287 0.0
-9.2516 2.96268 0.0
-8.97747 2.60226 0.0
-8.62369 2.14953 0.0
-8.25546 2.99344 0.0
-8.59491 3.48848 0.0
-8.80291 3.9601 0.0
-8.55097 3.58322 0.0
-8.21151 3.08818 0.0
-7.81419 3.88946 0.0
-8.14076 4.43045 0.0
-8.32029 4.90505 0.0
-8.09355 4.52011 0.0
-7.76698 3.97912 0.0
-7.34213 4.73465 0.0
-7.65386 5.32062 0.0
-7.80457 5.79194 0.0
-7.60354 5.40485 0.0
-7.29182 4.81888 0.0
-6.8411 5.52571 0.0
-7.13698 6.15742 0.0
-7.2572 6.61545 0.0
-7.08373 6.23591 0.0
-6.78785 5.60419 0.0
-6.31299 6.25954 0.0
-6.59254 6.93945 0.0
-6.68292 7.3769 0.0
-6.53663 7.01184 0.0
-6.25709 6.33193 0.0
-5.75994 6.93324 0.0
-6.02047 7.65902 0.0
-6.08305 8.07148 0.0
-5.9621 7.72505 0.0
-5.70157 6.99927 0.0
-5.18404 7.54417 0.0
-5.42369 8.31517 0.0
-5.36308 8.37457 0.0
-5.12343 7.60358 0.0
-4.58748 8.08991 0.0
-4.80427 8.90499 0.0
-5.46014 8.69673 0.0
-4.74166 8.95753 0.0
-4.52487 8.14245 0.0
-3.97256 8.56826 0.0
-4.16444 9.42587 0.0
-4.81676 9.25046 0.0
-4.10006 9.47133 0.0
-3.90818 8.61372 0.0
-3.34162 8.97726 0.0
-3.50654 9.8754 0.0
-4.15549 9.7307 0.0
-3.44065 9.9136 0.0
-3.27573 9.01546 0.0
-2.69709 9.31519 0.0
-2.83302 10.2515 0.0
-3.47899 10.1357 0.0
-2.76587 10.2822 0.0
-2.62994 9.34596 0.0
-2.04149 9.58056 0.0
-2.14644 10.5523 0.0
-2.78994 10.4641 0.0
-2.07835 10.575 0.0
-1.97341 9.60332 0.0
-1.37748 9.77171 0.0
-1.44845 10.7603 0.0
-2.09117 10.714 0.0
-1.37981 10.7746 0.0
-1.30884 9.786 0.0
-0.70787 9.88738 0.0
-0.743155 10.8608 0.0
-1.38559 10.8844 0.0
-0.674169 10.8674 0.0
-0.638883 9.89395 0.0
-0.0353693 9.9278 0.0
-0.0363991 10.8822 0.0
-0.675951 10.9753 0.0
0.0336702 10.8852 0.0
0.0347001 9.93073 0.0
0.638231 9.89688 0.0
0.673458 10.8686 0.0
0.675261 10.9765 0.0
0.0357142 10.9909 0.0
0.743094 10.859 0.0
0.707867 9.88728 0.0
1.30884 9.7859 0.0
1.37968 10.7728 0.0
1.38546 10.8824 0.0
1.44832 10.7586 0.0
1.37748 9.77161 0.0
1.9734 9.60322 0.0
2.07851 10.5765 0.0
2.09099 10.7122 0.0
2.14659 10.5538 0.0
2.04148 9.58056 0.0
2.62993 9.34596 0.0
2.76604 10.2835 0.0
2.7897 10.4625 0.0
2.83319 10.2527 0.0
2.69708 9.31519 0.0
3.27572 9.01546 0.0
3.44081 9.91453 0.0
3.47874 10.1345 0.0
3.5067 9.87633 0.0
3.34161 8.97726 0.0
3.90817 8.61372 0.0
4.10017 9.47184 0.0
4.15527 9.72977 0.0
4.16456 9.42637 0.0
3.97256 8.56826 0.0
4.52486 8.14245 0.0
4.74165 8.95753 0.0
4.81661 9.24995 0.0
4.80428 8.90499 0.0
4.58749 8.08991 0.0
5.12343 7.60358 0.0
5.36289 8.37395 0.0
5.46015 8.69674 0.0
5.42351 8.31454 0.0
5.18405 7.54417 0.0
5.70158 6.99927 0.0
5.96162 7.7237 0.0
6.08329 8.0721 0.0
6.02001 7.65767 0.0
5.75997 6.93323 0.0
6.25711 6.33193 0.0
6.53664 7.01178 0.0
6.6835 7.37825 0.0
6.59252 6.9394 0.0
6.313 6.25954 0.0
6.78785 5.60419 0.0
7.08427 6.23704 0.0
7.25723 6.6155 0.0
7.1375 6.15856 0.0
6.84108 5.52572 0.0
7.2918 4.81889 0.0
7.60355 5.4049 0.0
7.80395 5.79082 0.0
7.65388 5.32066 0.0
7.34213 4.73465 0.0
7.76698 3.97912 0.0
8.09282 4.51891 0.0
8.32028 4.90501 0.0
8.14005 4.42924 0.0
7.81421 3.88945 0.0
8.21153 3.08816 0.0
8.55215 3.5849 0.0
8.80376 3.96128 0.0
8.59605 3.4902 0.0
8.25543 2.99346 0.0
8.62366 2.14956 0.0
8.97758 2.60246 0.0
9.25026 2.96104 0.0
9.01803 2.50305 0.0
8.66412 2.05015 0.0
9.00183 1.16694 0.0
9.36954 1.57756 0.0
9.6605 1.91227 0.0
9.40635 1.47389 0.0
9.03864 1.06327 0.0
9.34449 0.144201 0.0
9.72935 0.516075 0.0
10.0305 0.817027 0.0
9.76231 0.408635 0.0
9.37745 0.0367609 0.0
9.65025 -0.914545 0.0
10.0526 -0.582211 0.0
10.3557 -0.321902 0.0
10.0817 -0.693056 0.0
9.67932 -1.02539 0.0
9.91797 -2.00519 0.0
10.3434 -1.71007 0.0
10.638 -1.49569 0.0
10.3683 -1.82371 0.0
9.94294 -2.11884 0.0
10.1465 -3.12324 0.0
10.5965 -2.86763 0.0
10.8707 -2.70206 0.0
10.6174 -2.9837 0.0
10.1674 -3.23932 0.0
10.335 -4.26413 0.0
10.8166 -4.0486 0.0
11.0572 -3.93152 0.0
10.8333 -4.16636 0.0
10.3517 -4.38189 0.0
10.4827 -5.42189 0.0
10.9973 -5.25153 0.0
11.1909 -5.17897 0.0
11.0098 -5.37028 0.0
10.4952 -5.54063 0.0
10.5892 -6.58599 0.0
11.14 -6.46554 0.0
11.2774 -6.43004 0.0
11.1483 -6.58293 0.0
10.5975 -6.70338 0.0
10.6546 -7.72351 0.0
11.3151 -7.65254 0.0
10.6924 -7.82905 0.0
10.7164 -8.70995 0.0
11.9065 -8.70488 0.0
11.8806 -7.69955 0.0
11.3529 -7.75808 0.0
-12.6024 -8.69926 0.0
-12.0038 -8.69991 0.0
-11.9779 -7.69459 0.0
-12.5439 -7.63173 0.0
-12.5391 -7.50987 0.0
-11.9731 -7.57273 0.0
-11.9092 -6.4188 0.0
-12.4404 -6.30886 0.0
-12.6102 -7.50147 0.0
-12.4311 -6.17717 0.0
-11.8998 -6.28712 0.0
-11.7939 -5.10972 0.0
-12.2905 -4.95176 0.0
-12.5627 -6.13117 0.0
-12.2764 -4.81887 0.0
-11.7799 -4.97683 0.0
-11.6321 -3.80716 0.0
-12.0923 -3.60746 0.0
-12.4638 -4.73623 0.0
-12.3101 -3.34881 0.0
-12.0735 -3.47574 0.0
-11.6133 -3.67544 0.0
-11.4243 -2.52343 0.0
-11.8514 -2.28677 0.0
-12.0989 -1.98232 0.0
-11.8279 -2.15701 0.0
-11.4007 -2.39368 0.0
-11.1713 -1.26489 0.0
-11.5719 -0.992655 0.0
-11.8372 -0.64195 0.0
-11.5438 -0.865687 0.0
-11.1432 -1.13792 0.0
-10.8743 -0.0369585 0.0
-11.2493 0.267431 0.0
-11.5236 0.664028 0.0
-11.2167 0.391174 0.0
-10.8417 0.0867844 0.0
-10.5345 1.15556 0.0
-10.8874 1.49168 0.0
-11.1576 1.92713 0.0
-10.8503 1.61172 0.0
-10.4974 1.27561 0.0
-10.153 2.30801 0.0
-10.489 2.67868 0.0
-10.7465 3.14561 0.0
-10.4478 2.79439 0.0
-10.1118 2.42371 0.0
-9.73166 3.41572 0.0
-10.0508 3.81998 0.0
-10.2904 4.31229 0.0
-10.0055 3.93093 0.0
-9.68636 3.52666 0.0
-9.27199 4.4744 0.0
-9.57588 4.9138 0.0
-9.79035 5.42011 0.0
-9.52664 5.01955 0.0
-9.22275 4.58015 0.0
-8.77577 5.47993 0.0
-9.06674 5.95849 0.0
-9.25264 6.46937 0.0
-9.01388 6.05854 0.0
-8.7229 5.57998 0.0
-8.24506 6.4283 0.0
-8.5217 6.94515 0.0
-8.67821 7.45392 0.0
-8.46537 7.03914 0.0
-8.18873 6.52229 0.0
-7.6819 7.31584 0.0
-7.94386 7.87223 0.0
-8.06986 8.37022 0.0
-7.88429 7.95979 0.0
-7.62233 7.40339 0.0
-7.08847 8.13908 0.0
-7.33494 8.73593 0.0
-7.42938 9.21267 0.0
-7.27234 8.81671 0.0
-7.02587 8.21987 0.0
-6.46703 8.89482 0.0
-6.69771 9.53501 0.0
-6.76178 9.98308 0.0
-6.63241 9.60867 0.0
-6.40173 8.96848 0.0
-5.82006 9.58006 0.0
-6.03251 10.2613 0.0
-6.06874 10.6764 0.0
-5.96472 10.3275 0.0
-5.75227 9.64632 0.0
-5.15 10.1921 0.0
-5.34257 10.914 0.0
-5.3531 11.2903 0.0
-5.27255 10.9726 0.0
-5.07998 10.2507 0.0
-4.4594 10.7285 0.0
-4.6303 11.4903 0.0
-4.61776 11.8226 0.0
-4.55833 11.541 0.0
-4.38742 10.7792 0.0
-3.75091 11.1871 0.0
-3.89828 11.9875 0.0
-3.86566 12.2715 0.0
-3.82463 12.0301 0.0
-3.67726 11.2297 0.0
-3.02726 11.5659 0.0
-3.14919 12.4034 0.0
-3.09976 12.6354 0.0
-3.07415 12.4377 0.0
-2.95221 11.6002 0.0
-2.29127 11.8634 0.0
-2.38584 12.736 0.0
-2.32313 12.913 0.0
-2.30969 12.7618 0.0
-2.21512 11.8893 0.0
-1.54584 12.0781 0.0
-1.61113 12.9835 0.0
-1.53888 13.1033 0.0
-1.53419 13.0008 0.0
-1.46891 12.0954 0.0
-0.794011 12.2091 0.0
-0.828205 13.1446 0.0
-0.752008 13.2519 0.0
-0.751113 13.1545 0.0
-0.716918 12.2191 0.0
-0.0391943 12.257 0.0
-0.0404602 13.2197 0.0
0.0398295 13.3174 0.0
0.0372779 13.2225 0.0
0.0385438 12.2598 0.0
0.716275 12.2218 0.0
0.75054 13.1593 0.0
0.751414 13.2566 0.0
0.828256 13.1466 0.0
0.793991 12.2091 0.0
1.46889 12.0954 0.0
1.5343 13.0026 0.0
1.53876 13.1019 0.0
1.61123 12.9853 0.0
1.54582 12.0781 0.0
2.2151 11.8893 0.0
2.30984 12.7634 0.0
2.32291 12.9112 0.0
2.38599 12.7376 0.0
2.29125 11.8634 0.0
2.95219 11.6002 0.0
3.07431 12.439 0.0
3.09951 12.6338 0.0
3.14937 12.4047 0.0
3.02725 11.5659 0.0
3.67724 11.2297 0.0
3.82478 12.031 0.0
3.8654 12.2702 0.0
3.89844 11.9884 0.0
3.7509 11.1871 0.0
4.38741 10.7792 0.0
4.55841 11.5414 0.0
4.61755 11.8217 0.0
4.6304 11.4907 0.0
4.4594 10.7285 0.0
5.07997 10.2507 0.0
5.2725 10.9724 0.0
5.35298 11.2899 0.0
5.34253 10.9138 0.0
5.15 10.1921 0.0
5.75228 9.64632 0.0
5.96445 10.3267 0.0
6.0688 10.6766 0.0
6.03225 10.2604 0.0
5.82008 9.58006 0.0
6.40175 8.96847 0.0
6.63181 9.60696 0.0
6.76212 9.98395 0.0
6.69713 9.5333 0.0
6.46706 8.89481 0.0
7.0259 8.21985 0.0
7.27327 8.81884 0.0
7.43012 9.21435 0.0
7.3358 8.73809 0.0
7.08843 8.1391 0.0
7.6223 7.40341 0.0
7.88476 7.96087 0.0
8.06881 8.3681 0.0
7.94434 7.87331 0.0
7.68188 7.31585 0.0
8.18871 6.5223 0.0
8.46527 7.03899 0.0
8.67762 7.45287 0.0
8.52162 6.94499 0.0
8.24507 6.4283 0.0
8.7229 5.57998 0.0
9.01295 6.05702 0.0
9.25274 6.46952 0.0
9.06585 5.95694 0.0
8.7758 5.47991 0.0
9.22278 4.58013 0.0
9.52789 5.02127 0.0
9.79142 5.42158 0.0
9.57706 4.91557 0.0
9.27195 4.47443 0.0
9.68632 3.52669 0.0
10.0056 3.93108 0.0
10.289 4.31062 0.0
10.0509 3.82011 0.0
9.73166 3.41572 0.0
10.1118 2.42372 0.0
10.4464 2.79285 0.0
10.7464 3.1455 0.0
10.4877 2.6771 0.0
10.1531 2.30797 0.0
10.4974 1.27556 0.0
10.8516 1.61286 0.0
11.1591 1.92855 0.0
10.8886 1.49289 0.0
10.5344 1.1556 0.0
10.8417 0.086824 0.0
11.216 0.390719 0.0
11.5222 0.662968 0.0
11.2487 0.266918 0.0
10.8743 -0.0369775 0.0
11.1432 -1.13794 0.0
11.5437 -0.865758 0.0
11.8379 -0.641518 0.0
11.5718 -0.992708 0.0
11.1713 -1.26489 0.0
11.4007 -2.39368 0.0
11.8286 -2.15664 0.0
12.099 -1.98228 0.0
11.8521 -2.28636 0.0
11.4243 -2.52341 0.0
11.6133 -3.67541 0.0
12.0721 -3.47635 0.0
12.3094 -3.3491 0.0
12.0909 -3.60816 0.0
11.6321 -3.80722 0.0
11.7799 -4.97688 0.0
12.2761 -4.81904 0.0
12.4654 -4.73579 0.0
12.2901 -4.95189 0.0
11.794 -5.10973 0.0
11.8998 -6.28713 0.0
12.4318 -6.17703 0.0
12.563 -6.13111 0.0
12.4411 -6.30867 0.0
11.9092 -6.41877 0.0
11.9731 -7.5727 0.0
12.5371 -7.51006 0.0
12.6095 -7.50152 0.0
12.5419 -7.63201 0.0
11.9779 -7.69465 0.0
12.0039 -8.69998 0.0
12.6043 -8.69932 0.0
-12.9576 -4.56465 0.0
-12.5233 -4.70228 0.0
-12.1518 -3.57352 0.0
-12.3884 -3.44659 0.0
-12.7905 -3.27258 0.0
12.3877 -3.44684 0.0
12.1504 -3.5741 0.0
12.5248 -4.70173 0.0
12.9576 -4.56459 0.0
12.7905 -3.27253 0.0
-13.0935 -6.00956 0.0
-12.6241 -6.10627 0.0
-12.3518 -4.92687 0.0
-12.5393 -4.84423 0.0
-12.9735 -4.70659 0.0
12.5408 -4.84372 0.0
12.3515 -4.92697 0.0
12.6244 -6.10619 0.0
13.0935 -6.00955 0.0
12.9735 -4.70658 0.0
-12.7694 -3.13264 0.0
-12.3674 -3.30665 0.0
-11.9087 -2.24461 0.0
-12.1797 -2.06992 0.0
-12.5562 -1.86162 0.0
12.1798 -2.0699 0.0
11.9093 -2.24426 0.0
12.3667 -3.30699 0.0
12.7694 -3.13267 0.0
12.5562 -1.86164 0.0
-12.5302 -1.72464 0.0
-12.1537 -1.93294 0.0
-11.6267 -0.943273 0.0
-11.9201 -0.719536 0.0
-12.2721 -0.480568 0.0
11.9208 -0.719082 0.0
11.6266 -0.943322 0.0
12.1538 -1.93289 0.0
12.5302 -1.72464 0.0
12.2721 -0.480564 0.0
-12.2414 -0.346913 0.0
-11.8894 -0.585881 0.0
-11.3014 0.3235 0.0
-11.6083 0.596354 0.0
-11.9397 0.865197 0.0
11.6069 0.595277 0.0
11.3008 0.323028 0.0
11.89 -0.585407 0.0
12.2414 -0.34689 0.0
11.9396 0.865214 0.0
-11.9043 0.994926 0.0
-11.573 0.726083 0.0
-10.9368 1.55374 0.0
-11.244 1.86914 0.0
-11.5605 2.17039 0.0
11.2456 1.87056 0.0
10.938 1.55487 0.0
11.5716 0.724943 0.0
11.9043 0.99488 0.0
11.5605 2.17036 0.0
-11.5208 2.29567 0.0
-11.2043 1.99442 0.0
-10.5358 2.74598 0.0
-10.8345 3.0972 0.0
-11.1363 3.43006 0.0
10.8343 3.09713 0.0
10.5343 2.74448 0.0
11.2058 1.99593 0.0
11.5207 2.29572 0.0
11.1363 3.4301 0.0
-13.1767 -7.43336 0.0
-12.6729 -7.48652 0.0
-12.5031 -6.29391 0.0
-12.6347 -6.2479 0.0
-13.1042 -6.15119 0.0
12.6351 -6.24786 0.0
12.5038 -6.29378 0.0
12.6722 -7.48663 0.0
13.1768 -7.43338 0.0
13.1042 -6.15122 0.0
-11.0923 3.5506 0.0
-10.7905 3.21774 0.0
-10.0948 3.89211 0.0
-10.3797 4.27348 0.0
-10.669 4.63964 0.0
10.3783 4.27178 0.0
10.0949 3.89223 0.0
10.7904 3.21763 0.0
11.0923 3.5506 0.0
10.669 4.63963 0.0
-10.6209 4.75495 0.0
-10.3316 4.38879 0.0
-9.61711 4.99029 0.0
-9.88081 5.39085 0.0
-10.1604 5.79456 0.0
9.88189 5.3923 0.0
9.61836 4.992 0.0
10.3303 4.38705 0.0
10.621 4.75491 0.0
10.1604 5.79453 0.0
-10.1085 5.9042 0.0
-9.82894 5.50049 0.0
-9.10533 6.03887 0.0
-9.3441 6.44969 0.0
-9.61258 6.89051 0.0
9.34417 6.44987 0.0
9.10438 6.03737 0.0
9.82994 5.502 0.0
10.1085 5.90423 0.0
9.61256 6.89054 0.0
-9.55699 6.99418 0.0
-9.2885 6.55336 0.0
-8.55756 7.02914 0.0
-8.7704 7.44392 0.0
-9.0277 7.92352 0.0
8.76983 7.44286 0.0
8.55747 7.02899 0.0
9.2886 6.55352 0.0
9.55699 6.99419 0.0
9.0277 7.92351 0.0
-8.96864 8.0208 0.0
-8.71134 7.5412 0.0
-7.97698 7.95952 0.0
-8.16256 8.36995 0.0
-8.40802 8.88967 0.0
8.16156 8.3678 0.0
7.97751 7.96057 0.0
8.71079 7.54013 0.0
8.96866 8.02078 0.0
8.40804 8.88965 0.0
-8.34571 8.98022 0.0
-8.10024 8.46049 0.0
-7.36532 8.82621 0.0
-7.52236 9.22216 0.0
-7.75589 9.78535 0.0
7.52311 9.22384 0.0
7.36626 8.82833 0.0
8.09927 8.45834 0.0
8.34574 8.98019 0.0
7.75593 9.78534 0.0
-7.6906 9.86881 0.0
-7.45707 9.30562 0.0
-6.7254 9.62797 0.0
-6.85478 10.0024 0.0
-7.07384 10.6072 0.0
6.85507 10.0033 0.0
6.72476 9.62628 0.0
7.45775 9.30733 0.0
7.69058 9.86883 0.0
7.07381 10.6072 0.0
-7.00573 10.6833 0.0
-6.78667 10.0785 0.0
-6.0574 10.3567 0.0
-6.16142 10.7056 0.0
-6.36434 11.3521 0.0
6.16146 10.7057 0.0
6.05711 10.3558 0.0
6.78698 10.0794 0.0
7.00572 10.6833 0.0
6.36433 11.3521 0.0
-6.29371 11.4205 0.0
-6.09078 10.774 0.0
-5.36461 11.0116 0.0
-5.44516 11.3293 0.0
-5.6301 12.0172 0.0
5.44505 11.3289 0.0
5.36456 11.0114 0.0
6.09084 10.7742 0.0
6.29371 11.4205 0.0
5.6301 12.0172 0.0
-5.55721 12.0777 0.0
-5.37227 11.3898 0.0
-4.64947 11.5897 0.0
-4.70891 11.8714 0.0
-4.87387 12.5999 0.0
4.70871 11.8705 0.0
4.64958 11.5902 0.0
5.37217 11.3894 0.0
5.55722 12.0777 0.0
4.87388 12.5999 0.0
-4.79899 12.6522 0.0
-4.63402 11.9238 0.0
-3.91454 12.0886 0.0
-3.95557 12.3301 0.0
-4.09849 13.0979 0.0
3.95535 12.3288 0.0
3.91473 12.0895 0.0
4.63383 11.9229 0.0
4.799 12.6522 0.0
4.0985 13.0979 0.0
-4.02189 13.1418 0.0
-3.87898 12.374 0.0
-3.16251 12.5059 0.0
-3.18813 12.7036 0.0
-3.30688 13.5092 0.0
3.18792 12.702 0.0
3.16272 12.5072 0.0
3.87876 12.3727 0.0
4.02191 13.1418 0.0
3.3069 13.5091 0.0
-3.22886 13.5445 0.0
-3.11012 12.739 0.0
-2.39619 12.8396 0.0
-2.40963 12.9907 0.0
-2.50206 13.8319 0.0
2.40946 12.9889 0.0
2.39639 12.8411 0.0
3.10991 12.7374 0.0
3.22889 13.5445 0.0
2.50209 13.8319 0.0
-2.42293 13.8586 0.0
-2.33049 13.0174 0.0
-1.6185 13.0879 0.0
-1.62318 13.1904 0.0
-1.68718 14.0649 0.0
1.62312 13.189 0.0
1.61865 13.0897 0.0
2.33033 13.0156 0.0
2.42296 13.8586 0.0
1.68721 14.0648 0.0
-1.60724 14.0827 0.0
-1.54324 13.2082 0.0
-0.832568 13.2495 0.0
-0.833463 13.3469 0.0
-0.865459 14.2069 0.0
0.83354 13.3488 0.0
0.832666 13.2516 0.0
1.54317 13.2069 0.0
1.60727 14.0827 0.0
0.865487 14.2069 0.0
-0.784721 14.2171 0.0
-0.752725 13.3571 0.0
-0.0411778 13.3249 0.0
-0.0386263 13.4198 0.0
-0.039897 14.2586 0.0
0.0407178 14.2612 0.0
0.0419885 13.4224 0.0
0.753573 13.3617 0.0
0.78552 14.2197 0.0
-11.5483 -3.69738 0.0
-11.1176 -3.88992 0.0
-10.6783 -2.94182 0.0
-10.9543 -2.77526 0.0
-11.3593 -2.54538 0.0
10.9523 -2.7764 0.0
10.678 -2.94196 0.0
11.1179 -3.88978 0.0
11.5483 -3.69737 0.0
11.3593 -2.54537 0.0
-11.3362 -2.4217 0.0
-10.9312 -2.65158 0.0
-10.425 -1.77566 0.0
-10.7206 -1.56064 0.0
-11.1068 -1.29291 0.0
10.7216 -1.56006 0.0
10.4269 -1.77443 0.0
10.9293 -2.65278 0.0
11.3363 -2.42175 0.0
11.1068 -1.29296 0.0
-11.7147 -4.99319 0.0
-11.2538 -5.14552 0.0
-10.8956 -4.13314 0.0
-11.1362 -4.01607 0.0
-11.5669 -3.82353 0.0
11.1365 -4.01595 0.0
10.8959 -4.13302 0.0
11.2535 -5.14563 0.0
11.7147 -4.9932 0.0
11.5669 -3.82354 0.0
-11.0795 -1.17228 0.0
-10.6934 -1.44002 0.0
-10.1388 -0.636039 0.0
-10.4421 -0.375529 0.0
-10.8106 -0.0713198 0.0
10.441 -0.376403 0.0
10.1379 -0.636713 0.0
10.6943 -1.43935 0.0
11.0795 -1.17226 0.0
10.8106 -0.0712937 0.0
-10.7792 0.0459484 0.0
-10.4107 -0.258261 0.0
-9.81521 0.470425 0.0
-10.116 0.770979 0.0
-10.4719 1.11473 0.0
10.1174 0.7723 0.0
9.81622 0.471349 0.0
10.4096 -0.259188 0.0
10.7792 0.0459217 0.0
10.4719 1.1147 0.0
-10.4365 1.2281 0.0
-10.0806 0.884349 0.0
-9.45906 1.54397 0.0
-9.74891 1.87744 0.0
-10.0921 2.2605 0.0
9.74873 1.8773 0.0
9.45777 1.5426 0.0
10.082 0.885731 0.0
10.4365 1.22813 0.0
10.0921 2.26053 0.0
-10.0528 2.36967 0.0
-9.70961 1.98662 0.0
-9.06684 2.57705 0.0
-9.34097 2.93747 0.0
-9.67269 3.36168 0.0
9.33967 2.93581 0.0
9.06699 2.57723 0.0
9.70946 1.98644 0.0
10.0528 2.36967 0.0
9.67269 3.36167 0.0
0.036524 12.1447 0.0
0.0375331 11.1073 0.0
0.67708 11.0928 0.0
0.714255 12.1068 0.0
-0.713578 12.1039 0.0
-0.676441 11.0917 0.0
-0.0368889 10.9986 0.0
-0.0348449 11.1044 0.0
-0.0358539 12.1418 0.0
-9.62966 3.46621 0.0
-9.29794 3.04201 0.0
-8.64126 3.56781 0.0
-8.89321 3.94469 0.0
-9.21529 4.41395 0.0
8.89406 3.94585 0.0
8.64246 3.56947 0.0
9.29667 3.04031 0.0
9.6297 3.46618 0.0
9.21533 4.41392 0.0
-1.46155 11.9833 0.0
-1.39017 11.0004 0.0
-0.747733 10.9769 0.0
-0.749515 11.0848 0.0
-0.786652 12.0969 0.0
0.749478 11.0829 0.0
0.747675 10.9751 0.0
1.39004 10.9985 0.0
1.46155 11.9832 0.0
0.786653 12.0969 0.0
-2.20353 11.7793 0.0
-2.09982 10.8293 0.0
-1.45709 10.8756 0.0
-1.46288 10.9854 0.0
-1.53425 11.9682 0.0
1.46274 10.9834 0.0
1.45697 10.8738 0.0
2.09963 10.8275 0.0
2.20353 11.7793 0.0
1.53425 11.9681 0.0
-9.16876 4.51343 0.0
-8.84667 4.04417 0.0
-8.18452 4.51452 0.0
-8.41126 4.89946 0.0
-8.72178 5.4132 0.0
8.41122 4.89944 0.0
8.18377 4.51333 0.0
8.84747 4.04537 0.0
9.16874 4.51344 0.0
8.72176 5.41322 0.0
-2.93628 11.4923 0.0
-2.80229 10.5782 0.0
-2.15879 10.6664 0.0
-2.17161 10.8054 0.0
-2.27533 11.7554 0.0
2.17145 10.8037 0.0
2.15898 10.6679 0.0
2.80209 10.5767 0.0
2.9363 11.4923 0.0
2.27535 11.7554 0.0
-8.67182 5.50732 0.0
-8.36131 4.99358 0.0
-7.69487 5.40915 0.0
-7.8959 5.79625 0.0
-8.19398 6.35564 0.0
7.89529 5.79511 0.0
7.69489 5.40919 0.0
8.36129 4.99355 0.0
8.67182 5.50733 0.0
8.19399 6.35564 0.0
-3.65691 11.1238 0.0
-3.49483 10.2484 0.0
-2.84886 10.3642 0.0
-2.87294 10.546 0.0
-3.00692 11.46 0.0
2.87273 10.5444 0.0
2.84907 10.3654 0.0
3.49462 10.2471 0.0
3.65693 11.1238 0.0
3.00694 11.46 0.0
-8.14083 6.44402 0.0
-7.84275 5.88463 0.0
-7.17516 6.25011 0.0
-7.34863 6.62965 0.0
-7.634 7.23757 0.0
7.34867 6.62969 0.0
7.17571 6.25123 0.0
7.84216 5.88349 0.0
8.14085 6.44401 0.0
7.63402 7.23756 0.0
-4.36276 10.6759 0.0
-4.17477 9.84154 0.0
-3.52583 9.98623 0.0
-3.56417 10.2084 0.0
-3.72625 11.0838 0.0
3.56394 10.2071 0.0
3.52601 9.98716 0.0
4.17458 9.8406 0.0
4.36277 10.6759 0.0
3.72626 11.0838 0.0
-7.57789 7.31986 0.0
-7.29251 6.71194 0.0
-6.62785 7.03594 0.0
-6.77413 7.401 0.0
-7.04402 8.05555 0.0
6.77469 7.40235 0.0
6.62783 7.03589 0.0
7.29254 6.71199 0.0
7.57789 7.31986 0.0
7.04403 8.05555 0.0
-5.05109 10.1504 0.0
-4.83941 9.3591 0.0
-4.1871 9.53451 0.0
-4.24253 9.79388 0.0
-4.43051 10.6282 0.0
4.24233 9.79295 0.0
4.18722 9.53501 0.0
4.83928 9.35859 0.0
5.0511 10.1504 0.0
4.43052 10.6282 0.0
-6.98509 8.13147 0.0
-6.7152 7.47692 0.0
-6.05276 7.75904 0.0
-6.17371 8.10547 0.0
-6.42625 8.80643 0.0
6.17392 8.1061 0.0
6.05225 7.7577 0.0
6.71574 7.47828 0.0
6.98508 8.13148 0.0
6.42624 8.80644 0.0
-5.71927 9.54953 0.0
-5.48609 8.80283 0.0
-4.83023 9.01109 0.0
-4.90532 9.30402 0.0
-5.117 10.0953 0.0
4.90519 9.30351 0.0
4.83023 9.01109 0.0
5.4861 8.80284 0.0
5.71927 9.54953 0.0
5.117 10.0953 0.0
5.54991 8.74056 0.0
5.45265 8.41777 0.0
6.11243 8.17533 0.0
6.36476 8.87567 0.0
5.78309 9.48725 0.0
-6.36476 8.87566 0.0
-6.11221 8.1747 0.0
-5.45285 8.41839 0.0
-5.54992 8.74055 0.0
-5.78309 9.48725 0.0
-11.8347 -6.29829 0.0
-11.3427 -6.4054 0.0
-11.073 -5.34622 0.0
-11.2679 -5.27321 0.0
-11.7288 -5.12089 0.0
11.2676 -5.27335 0.0
11.074 -5.34591 0.0
11.3417 -6.40567 0.0
11.8347 -6.29832 0.0
11.7288 -5.12092 0.0
-11.9081 -7.57944 0.0
-11.3789 -7.63813 0.0
-11.2152 -6.56804 0.0
-11.3522 -6.53262 0.0
-11.8442 -6.42551 0.0
11.3511 -6.53281 0.0
11.2137 -6.56831 0.0
11.3804 -7.63792 0.0
11.9081 -7.57939 0.0
11.8442 -6.42546 0.0
-12.6657 -8.69462 0.0
-12.6072 -7.6271 0.0
-12.6784 -7.61869 0.0
-13.1822 -7.56553 0.0
-13.211 -8.69216 0.0
12.6776 -7.6187 0.0
12.6053 -7.62724 0.0
12.6677 -8.69455 0.0
13.211 -8.69209 0.0
13.1822 -7.56546 0.0
</DataArray>
</Points>
<Cells>
<DataArray type="Int32" Name="connectivity" format="ascii">
0 1 2 3 
4 5 6 7 
8 9 10 11 
12 13 14 15 
16 17 18 19 
20 21 22 23 
24 25 26 27 
28 29 30 31 
32 33 34 35 
36 37 38 39 
40 41 42 43 
44 45 46 47 
48 49 50 51 
52 53 54 55 
56 57 58 59 
60 61 62 63 
64 65 66 67 
68 69 70 71 
72 73 74 75 
76 77 78 79 
80 81 82 83 
84 85 86 87 
88 89 90 91 
92 93 94 95 
96 97 98 99 
100 101 102 103 
104 105 106 107 
108 109 110 111 
112 113 114 115 
116 117 118 119 
120 121 122 123 
124 125 126 127 
128 129 130 131 
132 133 134 135 
136 137 138 139 
140 141 142 143 
144 145 146 147 
148 149 150 151 
152 153 154 155 
156 157 158 159 
160 161 162 163 
164 165 166 167 
168 169 170 171 
172 173 174 175 
176 177 178 179 
180 181 182 183 
184 185 186 187 
188 189 190 191 
192 193 194 195 
196 197 198 199 
200 201 202 203 
204 205 206 207 
208 209 210 211 
212 213 214 215 
216 217 218 219 
220 221 222 223 
224 225 226 227 
228 229 230 231 
232 233 234 235 
236 237 238 239 
240 241 242 243 
244 245 246 247 
248 249 250 251 
252 253 254 255 
256 257 258 259 
260 261 262 263 
264 265 266 267 
268 269 270 271 
272 273 274 275 
276 277 278 279 
280 281 282 283 
284 285 286 287 
288 289 290 291 
292 293 294 295 
296 297 298 299 
300 301 302 303 
304 305 306 307 
308 309 310 311 
312 313 314 315 
316 317 318 319 
320 321 322 323 
324 325 326 327 
328 329 330 331 
332 333 334 335 
336 337 338 339 
340 341 342 343 
344 345 346 347 
348 349 350 351 
352 353 354 355 
356 357 358 359 
360 361 362 363 
364 365 366 367 
368 369 370 371 
372 373 374 375 
376 377 378 379 
380 381 382 383 
384 385 386 387 
388 389 390 391 
392 393 394 395 
396 397 398 399 
400 401 402 403 
404 405 406 407 
408 409 410 411 
412 413 414 415 
416 417 418 419 
420 421 422 423 
424 425 426 427 
428 429 430 431 
432 433 434 435 
436 437 438 439 
440 441 442 443 
444 445 446 447 
448 449 450 451 
452 453 454 455 
456 457 458 459 
460 461 462 463 
464 465 466 467 
468 469 470 471 
472 473 474 475 
476 477 478 479 
480 481 482 483 
484 485 486 487 
488 489 490 491 
492 493 494 495 
496 497 498 499 
500 501 502 503 
504 505 506 507 
508 509 510 511 
512 513 514 515 
516 517 518 519 
520 521 522 523 
524 525 526 527 
528 529 530 531 
532 533 534 535 
536 537 538 539 
540 541 542 543 
544 545 546 547 
548 549 550 551 
552 553 554 555 
556 557 558 559 
560 561 562 563 
564 565 566 567 
568 569 570 571 
572 573 574 575 
576 577 578 579 
580 581 582 583 
584 585 586 587 
588 589 590 591 
592 593 594 595 
596 597 598 599 
600 601 602 603 
604 605 606 607 
608 609 610 611 
612 613 614 615 
616 617 618 619 
620 621 622 623 
624 625 626 627 
628 629 630 631 
632 633 634 635 
636 637 638 639 
640 641 642 643 
644 645 646 647 
648 649 650 651 
652 653 654 655 
656 657 658 659 
660 661 662 663 
664 665 666 667 
668 669 670 671 
672 673 674 675 
676 677 678 679 
680 681 682 683 
684 685 686 687 
688 689 690 691 
692 693 694 695 
696 697 698 699 
700 701 702 703 
704 705 706 707 
708 709 710 711 
712 713 714 715 
716 717 718 719 
720 721 722 723 
724 725 726 727 
728 729 730 731 
732 733 734 735 
736 737 738 739 
740 741 742 743 
744 745 746 747 
748 749 750 751 
752 753 754 755 
756 757 758 759 
760 761 762 763 
764 765 766 767 
768 769 770 771 
772 773 774 775 
776 777 778 779 
780 781 782 783 
784 785 786 787 
788 789 790 791 
792 793 794 795 
796 797 798 799 
800 801 802 803 
804 805 806 807 
808 809 810 811 
812 813 814 815 
816 817 818 819 
820 821 822 823 
824 825 826 827 
828 829 830 831 
832 833 834 835 
836 837 838 839 
840 841 842 843 
844 845 846 847 
848 849 850 851 
852 853 854 855 
856 857 858 859 
860 861 862 863 
864 865 866 867 
868 869 870 871 
872 873 874 875 
876 877 878 879 
880 881 882 883 
884 885 886 887 
888 889 890 891 
892 893 894 895 
896 897 898 899 
900 901 902 903 
904 905 906 907 
908 909 910 911 
912 913 914 915 
916 917 918 919 
920 921 922 923 
924 925 926 927 
928 929 930 931 
932 933 934 935 
936 937 938 939 
940 941 942 943 
944 945 946 947 
948 949 950 951 
952 953 954 955 
956 957 958 959 
960 961 962 963 
964 965 966 967 
968 969 970 971 
972 973 974 975 
976 977 978 979 
980 981 982 983 
984 985 986 987 
988 989 990 991 
992 993 994 995 
996 997 998 999 
1000 1001 1002 1003 
1004 1005 1006 1007 
1008 1009 1010 1011 
1012 1013 1014 1015 
1016 1017 1018 1019 
1020 1021 1022 1023 
1024 1025 1026 1027 
1028 1029 1030 1031 
1032 1033 1034 1035 
1036 1037 1038 1039 
1040 1041 1042 1043 
1044 1045 1046 1047 
1048 1049 1050 1051 
1052 1053 1054 1055 
1056 1057 1058 1059 
1060 1061 1062 1063 
1064 1065 1066 1067 
1068 1069 1070 1071 
1072 1073 1074 1075 
1076 1077 1078 1079 
1080 1081 1082 1083 
1084 1085 1086 1087 
1088 1089 1090 1091 
1092 1093 1094 1095 
1096 1097 1098 1099 
1100 1101 1102 1103 
1104 1105 1106 1107 
1108 1109 1110 1111 
1112 1113 1114 1115 
1116 1117 1118 1119 
1120 1121 1122 1123 
1124 1125 1126 1127 
1128 1129 1130 1131 
1132 1133 1134 1135 
1136 1137 1138 1139 
1140 1141 1142 1143 
1144 1145 1146 1147 
1148 1149 1150 1151 
1152 1153 1154 1155 
1156 1157 1158 1159 
1160 1161 1162 1163 
1164 1165 1166 1167 
1168 1169 1170 1171 
1172 1173 1174 1175 
1176 1177 1178 1179 
1180 1181 1182 1183 
1184 1185 1186 1187 
1188 1189 1190 1191 
1192 1193 1194 1195 
1196 1197 1198 1199 
1200 1201 1202 1203 
1204 1205 1206 1207 
1208 1209 1210 1211 
1212 1213 1214 1215 
1216 1217 1218 1219 
1220 1221 1222 1223 
1224 1225 1226 1227 
1228 1229 1230 1231 
1232 1233 1234 1235 
1236 1237 1238 1239 
1240 1241 1242 1243 
1244 1245 1246 1247 
1248 1249 1250 1251 
1252 1253 1254 1255 
1256 1257 1258 1259 
1260 1261 1262 1263 
1264 1265 1266 1267 
1268 1269 1270 1271 
1272 1273 1274 1275 
1276 1277 1278 1279 
1280 1281 1282 1283 
1284 1285 1286 1287 
1288 1289 1290 1291 
1292 1293 1294 1295 
1296 1297 1298 1299 
1300 1301 1302 1303 
1304 1305 1306 1307 
1308 1309 1310 1311 
1312 1313 1314 1315 
1316 1317 1318 1319 
1320 1321 1322 1323 
1324 1325 1326 1327 
1328 1329 1330 1331 
1332 1333 1334 1335 
1336 1337 1338 1339 
1340 1341 1342 1343 
1344 1345 1346 1347 
1348 1349 1350 1351 
1352 1353 1354 1355 
1356 1357 1358 1359 
1360 1361 1362 1363 
1364 1365 1366 1367 
1368 1369 1370 1371 
1372 1373 1374 1375 
1376 1377 1378 1379 
1380 1381 1382 1383 
1384 1385 1386 1387 
1388 1389 1390 1391 
1392 1393 1394 1395 
1396 1397 1398 1399 
1400 1401 1402 1403 
1404 1405 1406 1407 
1408 1409 1410 1411 
1412 1413 1414 1415 
1416 1417 1418 1419 
1420 1421 1422 1423 
1424 1425 1426 1427 
1428 1429 1430 1431 
1432 1433 1434 1435 
1436 1437 1438 1439 
1440 1441 1442 1443 
1444 1445 1446 1447 
1448 1449 1450 1451 
1452 1453 1454 1455 
1456 1457 1458 1459 
1460 1461 1462 1463 
1464 1465 1466 1467 
1468 1469 1470 1471 
1472 1473 1474 1475 
1476 1477 1478 1479 
1480 1481 1482 1483 
1484 1485 1486 1487 
1488 1489 1490 1491 
1492 1493 1494 1495 
1496 1497 1498 1499 
1500 1501 1502 1503 
1504 1505 1506 1507 
1508 1509 1510 1511 
1512 1513 1514 1515 
1516 1517 1518 1519 
1520 1521 1522 1523 
1524 1525 1526 1527 
1528 1529 1530 1531 
1532 1533 1534 1535 
1536 1537 1538 1539 
1540 1541 1542 1543 
1544 1545 1546 1547 
1548 1549 1550 1551 
1552 1553 1554 1555 
1556 1557 1558 1559 
1560 1561 1562 1563 
1564 1565 1566 1567 
1568 1569 1570 1571 
1572 1573 1574 1575 
1576 1577 1578 1579 
1580 1581 1582 1583 
1584 1585 1586 1587 
1588 1589 1590 1591 
1592 1593 1594 1595 
1596 1597 1598 1599 
1600 1601 1602 1603 1604 
1605 1606 1607 1608 
1609 1610 1611 1612 1613 
1614 1615 1616 1617 1618 
1619 1620 1621 1622 1623 
1624 1625 1626 1627 1628 
1629 1630 1631 1632 1633 
1634 1635 1636 1637 1638 
1639 1640 1641 1642 1643 
1644 1645 1646 1647 1648 
1649 1650 1651 1652 1653 
1654 1655 1656 1657 1658 
1659 1660 1661 1662 1663 
1664 1665 1666 1667 1668 
1669 1670 1671 1672 1673 
1674 1675 1676 1677 1678 
1679 1680 1681 1682 1683 
1684 1685 1686 1687 1688 
1689 1690 1691 1692 1693 
1694 1695 1696 1697 1698 
1699 1700 1701 1702 1703 
1704 1705 1706 1707 1708 
1709 1710 1711 1712 1713 
1714 1715 1716 1717 1718 
1719 1720 1721 1722 1723 
1724 1725 1726 1727 1728 1729 
1730 1731 1732 1733 1734 
1735 1736 1737 1738 1739 
1740 1741 1742 1743 1744 
1745 1746 1747 1748 1749 
1750 1751 1752 1753 1754 
1755 1756 1757 1758 1759 
1760 1761 1762 1763 1764 
1765 1766 1767 1768 1769 
1770 1771 1772 1773 1774 
1775 1776 1777 1778 1779 
1780 1781 1782 1783 1784 
1785 1786 1787 1788 1789 
1790 1791 1792 1793 1794 
1795 1796 1797 1798 1799 
1800 1801 1802 1803 1804 
1805 1806 1807 1808 1809 
1810 1811 1812 1813 1814 
1815 1816 1817 1818 1819 
1820 1821 1822 1823 1824 
1825 1826 1827 1828 1829 
1830 1831 1832 1833 1834 
1835 1836 1837 1838 1839 
1840 1841 1842 1843 
1844 1845 1846 1847 1848 
1849 1850 1851 1852 
1853 1854 1855 1856 1857 
1858 1859 1860 1861 1862 
1863 1864 1865 1866 1867 
1868 1869 1870 1871 1872 
1873 1874 1875 1876 1877 
1878 1879 1880 1881 1882 
1883 1884 1885 1886 1887 
1888 1889 1890 1891 1892 
1893 1894 1895 1896 1897 
1898 1899 1900 1901 1902 
1903 1904 1905 1906 1907 
1908 1909 1910 1911 1912 
1913 1914 1915 1916 1917 
1918 1919 1920 1921 1922 
1923 1924 1925 1926 1927 
1928 1929 1930 1931 1932 
1933 1934 1935 1936 1937 
1938 1939 1940 1941 1942 
1943 1944 1945 1946 1947 
1948 1949 1950 1951 1952 
1953 1954 1955 1956 1957 
1958 1959 1960 1961 1962 
1963 1964 1965 1966 1967 
1968 1969 1970 1971 1972 
1973 1974 1975 1976 1977 1978 
1979 1980 1981 1982 1983 
1984 1985 1986 1987 1988 
1989 1990 1991 1992 1993 
1994 1995 1996 1997 1998 
1999 2000 2001 2002 2003 
2004 2005 2006 2007 2008 
2009 2010 2011 2012 2013 
2014 2015 2016 2017 2018 
2019 2020 2021 2022 2023 
2024 2025 2026 2027 2028 
2029 2030 2031 2032 2033 
2034 2035 2036 2037 2038 
2039 2040 2041 2042 2043 
2044 2045 2046 2047 2048 
2049 2050 2051 2052 2053 
2054 2055 2056 2057 2058 
2059 2060 2061 2062 2063 
2064 2065 2066 2067 2068 
2069 2070 2071 2072 2073 
2074 2075 2076 2077 2078 
2079 2080 2081 2082 2083 
2084 2085 2086 2087 2088 
2089 2090 2091 2092 2093 
2094 2095 2096 2097 
2098 2099 2100 2101 2102 
2103 2104 2105 2106 2107 
2108 2109 2110 2111 2112 
2113 2114 2115 2116 2117 
2118 2119 2120 2121 2122 
2123 2124 2125 2126 2127 
2128 2129 2130 2131 2132 
2133 2134 2135 2136 2137 
2138 2139 2140 2141 2142 
2143 2144 2145 2146 2147 
2148 2149 2150 2151 2152 
2153 2154 2155 2156 2157 
2158 2159 2160 2161 2162 
2163 2164 2165 2166 2167 
2168 2169 2170 2171 2172 
2173 2174 2175 2176 2177 
2178 2179 2180 2181 2182 
2183 2184 2185 2186 2187 
2188 2189 2190 2191 2192 
2193 2194 2195 2196 2197 
2198 2199 2200 2201 2202 
2203 2204 2205 2206 2207 
2208 2209 2210 2211 2212 
2213 2214 2215 2216 2217 
2218 2219 2220 2221 2222 
2223 2224 2225 2226 2227 
2228 2229 2230 2231 2232 
2233 2234 2235 2236 2237 
2238 2239 2240 2241 2242 
2243 2244 2245 2246 2247 
2248 2249 2250 2251 2252 
2253 2254 2255 2256 2257 
2258 2259 2260 2261 2262 
2263 2264 2265 2266 2267 
2268 2269 2270 2271 2272 
2273 2274 2275 2276 2277 
2278 2279 2280 2281 2282 
2283 2284 2285 2286 2287 
2288 2289 2290 2291 2292 
2293 2294 2295 2296 2297 
2298 2299 2300 2301 2302 
2303 2304 2305 2306 2307 
2308 2309 2310 2311 2312 
2313 2314 2315 2316 2317 
2318 2319 2320 2321 2322 
2323 2324 2325 2326 2327 
2328 2329 2330 2331 2332 
2333 2334 2335 2336 
2337 2338 2339 2340 2341 
2342 2343 2344 2345 2346 
2347 2348 2349 2350 2351 
2352 2353 2354 2355 2356 
2357 2358 2359 2360 2361 
2362 2363 2364 2365 2366 
2367 2368 2369 2370 2371 
2372 2373 2374 2375 2376 
2377 2378 2379 2380 2381 
2382 2383 2384 2385 2386 
2387 2388 2389 2390 2391 
2392 2393 2394 2395 2396 
2397 2398 2399 2400 2401 
2402 2403 2404 2405 2406 
2407 2408 2409 2410 
2411 2412 2413 2414 2415 
2416 2417 2418 2419 2420 
2421 2422 2423 2424 2425 
2426 2427 2428 2429 2430 
2431 2432 2433 2434 2435 
2436 2437 2438 2439 2440 
2441 2442 2443 2444 2445 
2446 2447 2448 2449 2450 
2451 2452 2453 2454 2455 
2456 2457 2458 2459 2460 
2461 2462 2463 2464 2465 
2466 2467 2468 2469 2470 
2471 2472 2473 2474 2475 
2476 2477 2478 2479 2480 
2481 2482 2483 2484 2485 
2486 2487 2488 2489 2490 
2491 2492 2493 2494 2495 
2496 2497 2498 2499 2500 
2501 2502 2503 2504 2505 
2506 2507 2508 2509 2510 
2511 2512 2513 2514 2515 
2516 2517 2518 2519 2520 
2521 2522 2523 2524 2525 
2526 2527 2528 2529 2530 
2531 2532 2533 2534 2535 
2536 2537 2538 2539 2540 
2541 2542 2543 2544 2545 
2546 2547 2548 2549 2550 
2551 2552 2553 2554 2555 
2556 2557 2558 2559 2560 
2561 2562 2563 2564 2565 
2566 2567 2568 2569 2570 
2571 2572 2573 2574 2575 
2576 2577 2578 2579 2580 
2581 2582 2583 2584 2585 
</DataArray>
<DataArray type="Int32" Name="offsets" format="ascii">
4 8 12 16 20 24 28 32 36 40 44 48 52 56 60 64 68 72 76 80 84 88 92 96 100 104 108 112 116 120 124 128 132 136 140 144 148 152 156 160 164 168 172 176 180 184 188 192 196 200 204 208 212 216 220 224 228 232 236 240 244 248 252 256 260 264 268 272 276 280 284 288 292 296 300 304 308 312 316 320 324 328 332 336 340 344 348 352 356 360 364 368 372 376 380 384 388 392 396 400 404 408 412 416 420 424 428 432 436 440 444 448 452 456 460 464 468 472 476 480 484 488 492 496 500 504 508 512 516 520 524 528 532 536 540 544 548 552 556 560 564 568 572 576 580 584 588 592 596 600 604 608 612 616 620 624 628 632 636 640 644 648 652 656 660 664 668 672 676 680 684 688 692 696 700 704 708 712 716 720 724 728 732 736 740 744 748 752 756 760 764 768 772 776 780 784 788 792 796 800 804 808 812 816 820 824 828 832 836 840 844 848 852 856 860 864 868 872 876 880 884 888 892 896 900 904 908 912 916 920 924 928 932 936 940 944 948 952 956 960 964 968 972 976 980 984 988 992 996 1000 1004 1008 1012 1016 1020 1024 1028 1032 1036 1040 1044 1048 1052 1056 1060 1064 1068 1072 1076 1080 1084 1088 1092 1096 1100 1104 1108 1112 1116 1120 1124 1128 1132 1136 1140 1144 1148 1152 1156 1160 1164 1168 1172 1176 1180 1184 1188 1192 1196 1200 1204 1208 1212 1216 1220 1224 1228 1232 1236 1240 1244 1248 1252 1256 1260 1264 1268 1272 1276 1280 1284 1288 1292 1296 1300 1304 1308 1312 1316 1320 1324 1328 1332 1336 1340 1344 1348 1352 1356 1360 1364 1368 1372 1376 1380 1384 1388 1392 1396 1400 1404 1408 1412 1416 1420 1424 1428 1432 1436 1440 1444 1448 1452 1456 1460 1464 1468 1472 1476 1480 1484 1488 1492 1496 1500 1504 1508 1512 1516 1520 1524 1528 1532 1536 1540 1544 1548 1552 1556 1560 1564 1568 1572 1576 1580 1584 1588 1592 1596 1600 1605 1609 1614 1619 1624 1629 1634 1639 1644 1649 1654 1659 1664 1669 1674 1679 1684 1689 1694 1699 1704 1709 1714 1719 1724 1730 1735 1740 1745 1750 1755 1760 1765 1770 1775 1780 1785 1790 1795 1800 1805 1810 1815 1820 1825 1830 1835 1840 1844 1849 1853 1858 1863 1868 1873 1878 1883 1888 1893 1898 1903 1908 1913 1918 1923 1928 1933 1938 1943 1948 1953 1958 1963 1968 1973 1979 1984 1989 1994 1999 2004 2009 2014 2019 2024 2029 2034 2039 2044 2049 2054 2059 2064 2069 2074 2079 2084 2089 2094 2098 2103 2108 2113 2118 2123 2128 2133 2138 2143 2148 2153 2158 2163 2168 2173 2178 2183 2188 2193 2198 2203 2208 2213 2218 2223 2228 2233 2238 2243 2248 2253 2258 2263 2268 2273 2278 2283 2288 2293 2298 2303 2308 2313 2318 2323 2328 2333 2337 2342 2347 2352 2357 2362 2367 2372 2377 2382 2387 2392 2397 2402 2407 2411 2416 2421 2426 2431 2436 2441 2446 2451 2456 2461 2466 2471 2476 2481 2486 2491 2496 2501 2506 2511 2516 2521 2526 2531 2536 2541 2546 2551 2556 2561 2566 2571 2576 2581 2586 
</DataArray>
<DataArray type="UInt8" Name="types" format="ascii">
7 7 7 7 7 7 7 7 7 7 7 7 7 7 7 7 7 7 7 7 7 7 7 7 7 7 7 7 7 7 7 7 7 7 7 7 7 7 7 7 7 7 7 7 7 7 7 7 7 7 7 7 7 7 7 7 7 7 7 7 7 7 7 7 7 7 7 7 7 7 7 7 7 7 7 7 7 7 7 7 7 7 7 7 7 7 7 7 7 7 7 7 7 7 7 7 7 7 7 7 7 7 7 7 7 7 7 7 7 7 7 7 7 7 7 7 7 7 7 7 7 7 7 7 7 7 7 7 7 7 7 7 7 7 7 7 7 7 7 7 7 7 7 7 7 7 7 7 7 7 7 7 7 7 7 7 7 7 7 7 7 7 7 7 7 7 7 7 7 7 7 7 7 7 7 7 7 7 7 7 7 7 7 7 7 7 7 7 7 7 7 7 7 7 7 7 7 7 7 7 7 7 7 7 7 7 7 7 7 7 7 7 7 7 7 7 7 7 7 7 7 7 7 7 7 7 7 7 7 7 7 7 7 7 7 7 7 7 7 7 7 7 7 7 7 7 7 7 7 7 7 7 7 7 7 7 7 7 7 7 7 7 7 7 7 7 7 7 7 7 7 7 7 7 7 7 7 7 7 7 7 7 7 7 7 7 7 7 7 7 7 7 7 7 7 7 7 7 7 7 7 7 7 7 7 7 7 7 7 7 7 7 7 7 7 7 7 7 7 7 7 7 7 7 7 7 7 7 7 7 7 7 7 7 7 7 7 7 7 7 7 7 7 7 7 7 7 7 7 7 7 7 7 7 7 7 7 7 7 7 7 7 7 7 7 7 7 7 7 7 7 7 7 7 7 7 7 7 7 7 7 7 7 7 7 7 7 7 7 7 7 7 7 7 7 7 7 7 7 7 7 7 7 7 7 7 7 7 7 7 7 7 7 7 7 7 7 7 7 7 7 7 7 7 7 7 7 7 7 7 7 7 7 7 7 7 7 7 7 7 7 7 7 7 7 7 7 7 7 7 7 7 7 7 7 7 7 7 7 7 7 7 7 7 7 7 7 7 7 7 7 7 7 7 7 7 7 7 7 7 7 7 7 7 7 7 7 7 7 7 7 7 7 7 7 7 7 7 7 7 7 7 7 7 7 7 7 7 7 7 7 7 7 7 7 7 7 7 7 7 7 7 7 7 7 7 7 7 7 7 7 7 7 7 7 7 7 7 7 7 7 7 7 7 7 7 7 7 7 7 7 7 7 7 7 7 7 7 7 7 7 7 7 7 7 7 7 7 7 7 7 7 7 7 7 7 7 7 7 7 7 7 7 7 7 7 7 7 7 7 7 7 7 7 7 7 7 7 
</DataArray>
</Cells>
<CellData Scalars="cell variable 4" Vectors="cell vector">
<DataArray type="Float64" NumberOfComponents="3" Name="cell vector" format="ascii">
0.9 2 0
0.9 2 0
0.9 2 0
0.9 2 0
0.9 2 0
0.9 2 0
0.9 2 0
0.9 2 0
0.9 2 0
0.9 2 0
0.9 2 0
0.9 2 0
0.9 2 0
0.9 2 0
0.9 2 0
0.9 2 0
0.9 2 0
0.9 2 0
0.9 2 0
0.9 2 0
0.9 2 0
0.9 2 0
0.9 2 0
0.9 2 0
0.9 2 0
0.9 2 0
0.9 2 0
0.9 2 0
0.9 2 0
0.9 2 0
0.9 2 0
0.9 2 0
0.9 2 0
0.9 2 0
0.9 2 0
0.9 2 0
0.9 2 0
0.9 2 0
0.9 2 0
0.9 2 0
0.9 2 0
0.9 2 0
0.9 2 0
0.9 2 0
0.9 2 0
0.9 2 0
0.9 2 0
0.9 2 0
0.9 2 0
0.9 2 0
0.9 0 0
0.9 0 0
0.9 0 0
0.9 0 0
0.9 0 0
0.9 0 0
0.9 0 0
0.9 0 0
0.9 0 0
0.9 0 0
0.9 0 0
0.9 0 0
0.9 0 0
0.9 0 0
0.9 0 0
0.9 0 0
0.9 0 0
0.9 0 0
0.9 0 0
0.9 0 0
0.9 0 0
0.9 0 0
0.9 0 0
0.9 0 0
0.9 0 0
0.9 0 0
0.9 0 0
0.9 0 0
0.9 0 0
0.9 0 0
0.9 0 0
0.9 0 0
0.9 0 0
0.9 0 0
0.9 0 0
0.9 0 0
0.9 0 0
0.9 0 0
0.9 0 0
0.9 0 0
0.9 0 0
0.9 0 0
0.9 0 0
0.9 0 0
0.9 0 0
0.9 0 0
0.9 0 0
0.9 0 0
0.9 0 0
0.9 0 0
0.9 0 0
0.9 0 0
0.9 0 0
0.9 0 0
0.9 0 0
0.9 0 0
0.9 0 0
0.9 0 0
0.9 0 0
0.9 0 0
0.9 0 0
0.9 0 0
0.9 0 0
0.9 0 0
0.9 0 0
0.9 0 0
0.9 0 0
0.9 0 0
0.9 0 0
0.9 0 0
0.9 0 0
0.9 0 0
0.9 0 0
0.9 0 0
0.9 0 0
0.9 0 0
0.9 0 0
0.9 0 0
0.9 0 0
0.9 0 0
0.9 0 0
0.9 0 0
0.9 0 0
0.9 0 0
0.9 0 0
0.9 0 0
0.9 0 0
0.9 0 0
0.9 0 0
0.9 0 0
0.9 0 0
0.9 0 0
0.9 0 0
0.9 0 0
0.9 0 0
0.9 0 0
0.9 0 0
0.9 0 0
0.9 0 0
0.9 0 0
0.9 0 0
0.9 0 0
0.9 0 0
0.9 0 0
0.9 0 0
0.9 0 0
0.9 0 0
0.9 0 0
0.9 0 0
0.9 0 0
0.9 0 0
0.9 0 0
0.9 0 0
0.9 0 0
0.9 0 0
0.9 0 0
0.9 0 0
0.9 0 0
0.9 0 0
0.9 0 0
0.9 0 0
0.9 0 0
0.9 0 0
0.9 0 0
0.9 0 0
0.9 0 0
0.9 0 0
0.9 0 0
0.9 0 0
0.9 0 0
0.9 0 0
0.9 0 0
0.9 0 0
0.9 0 0
0.9 0 0
0.9 0 0
0.9 0 0
0.9 0 0
0.9 0 0
0.9 0 0
0.9 0 0
0.9 0 0
0.9 0 0
0.9 0 0
0.9 0 0
0.9 0 0
0.9 0 0
0.9 0 0
0.9 0 0
0.9 0 0
0.9 0 0
0.9 0 0
0.9 0 0
0.9 0 0
0.9 0 0
0.9 0 0
0.9 0 0
0.9 0 0
0.9 0 0
0.9 0 0
0.9 0 0
0.9 0 0
0.9 0 0
0.9 0 0
0.9 0 0
0.9 0 0
0.9 0 0
0.9 0 0
0.9 0 0
0.9 0 0
0.9 0 0
0.9 0 0
0.9 0 0
0.9 0 0
0.9 0 0
0.9 0 0
0.9 0 0
0.9 0 0
0.9 0 0
0.9 0 0
0.9 0 0
0.9 0 0
0.9 0 0
0.9 0 0
0.9 0 0
0.9 0 0
0.9 0 0
0.9 0 0
0.9 0 0
0.9 0 0
0.9 0 0
0.9 0 0
0.9 0 0
0.9 0 0
0.9 0 0
0.9 0 0
0.9 0 0
0.9 0 0
0.9 0 0
0.9 0 0
0.9 0 0
0.9 0 0
0.9 0 0
0.9 0 0
0.9 0 0
0.9 0 0
0.9 0 0
0.9 0 0
0.9 0 0
0.9 0 0
0.9 0 0
0.9 0 0
0.9 0 0
0.9 0 0
0.9 0 0
0.9 0 0
0.9 0 0
0.9 0 0
0.9 0 0
0.9 0 0
0.9 0 0
0.9 0 0
0.9 0 0
0.9 0 0
0.9 0 0
0.9 0 0
0.9 0 0
0.9 0 0
0.9 0 0
0.9 0 0
0.9 0 0
0.9 0 0
0.9 0 0
0.9 0 0
0.9 0 0
0.9 0 0
0.9 0 0
0.9 0 0
0.9 0 0
0.9 0 0
0.9 0 0
0.9 0 0
0.9 0 0
0.9 0 0
0.9 0 0
0.9 0 0
0.9 0 0
0.9 0 0
0.9 0 0
0.9 0 0
0.9 0 0
0.9 0 0
0.9 0 0
0.9 0 0
0.9 0 0
0.9 0 0
0.9 0 0
0.9 0 0
0.9 0 0
0.9 0 0
0.9 0 0
0.9 0 0
0.9 0 0
0.9 0 0
0.9 0 0
0.9 0 0
0.9 0 0
0.9 0 0
0.9 0 0
0.9 0 0
0.9 0 0
0.9 0 0
0.9 0 0
0.9 0 0
0.9 0 0
0.9 0 0
0.9 0 0
0.9 0 0
0.9 0 0
0.9 0 0
0.9 0 0
0.9 0 0
0.9 0 0
0.9 0 0
0.9 0 0
0.9 0 0
0.9 0 0
0.9 0 0
0.9 0 0
0.9 0 0
0.9 0 0
0.9 0 0
0.9 0 0
0.9 0 0
0.9 0 0
0.9 0 0
0.9 0 0
0.9 0 0
0.9 0 0
0.9 0 0
0.9 0 0
0.9 0 0
0.9 0 0
0.9 0 0
0.9 0 0
0.9 0 0
0.9 0 0
0.9 0 0
0.9 0 0
0.9 0 0
0.9 0 0
0.9 0 0
0.9 0 0
0.9 0 0
0.9 0 0
0.9 0 0
0.9 0 0
0.9 0 0
0.9 0 0
0.9 0 0
0.9 0 0
0.9 0 0
0.9 0 0
0.9 0 0
0.9 0 0
0.9 0 0
0.9 0 0
0.9 0 0
0.9 0 0
0.9 0 0
0.9 0 0
0.9 0 0
0.9 0 0
0.9 0 0
0.9 0 0
0.9 0 0
0.9 0 0
0.9 0 0
0.9 0 0
0.9 0 0
0.9 0 0
0.9 0 0
0.9 0 0
0.9 0 0
0.9 0 0
0.9 0 0
0.9 0 0
0.9 0 0
0.9 0 0
0.9 0 0
0.9 0 0
0.44551 0 0
0.445835 0 0
0.446074 0 0
0.446308 0 0
0.446509 0 0
0.446631 0 0
0.446728 0 0
0.446741 0 0
0.446737 0 0
0.446693 0 0
0.446598 0 0
0.446508 0 0
0.446407 0 0
0.446286 0 0
0.446183 0 0
0.446085 0 0
0.445994 0 0
0.445912 0 0
0.44584 0 0
0.44578 0 0
0.445732 0 0
0.442344 0 0
0.432828 0 0
0.423323 0 0
0.445658 0 0
0.432057 0 0
0.441605 0 0
0.445729 0 0
0.445777 0 0
0.445837 0 0
0.44591 0 0
0.445994 0 0
0.446088 0 0
0.446192 0 0
0.446287 0 0
0.446398 0 0
0.446508 0 0
0.44661 0 0
0.446673 0 0
0.446734 0 0
0.446761 0 0
0.446713 0 0
0.446642 0 0
0.446485 0 0
0.446311 0 0
0.446071 0 0
0.445829 0 0
0.445516 0 0
0.9 0 0
0.445729 0 0
0.446139 0 0
0.446385 0 0
0.44661 0 0
0.446831 0 0.435963
0.447005 0 0.445476
0.447176 0 0.456286
0.447303 0 0.467789
0.44735 0 0.479561
0.447381 0 0
0.447372 0 0
0.447304 0 0
0.447239 0 0
0.447156 0 1.53376
0.447064 0 1.54247
0.446953 0 1.55026
0.44686 0 1.55706
0.446772 0 1.56288
0.44669 0 0
0.446618 0 0
0.446557 0 0
0.446507 0 0
0.446469 0 3.07793
0.446443 0 3.07876
0.457046 0 3.07914
0.480012 0 3.07914
0.446579 0 3.07876
0.446466 0 0
0.446503 0 0
0.446553 0 0
0.446615 0 0
0.446689 0 0
0.446772 0 1.56288
0.446865 0 1.55706
0.446964 0 1.55026
0.447049 0 1.54247
0.447148 0 1.53376
0.44724 0 0
0.44732 0 0
0.447352 0 0
0.44738 0 0
0.447371 0 0.479561
0.447285 0 0.467789
0.447184 0 0.456286
0.447005 0 0.445476
0.446824 0 0.435963
0.446622 0 0
0.446387 0 0
0.446137 0 0
0.445731 0 0
0.45339 0 0
0.453378 0 0
0.453615 0 0
0.453613 0 0
0.453169 1 0.868687
0.453176 1 0.868687
0.452995 1 0.868687
0.452995 1 0.868687
0.452824 1 0.868687
0.452816 1 0.868687
0.452697 1 0.868687
0.452715 1 0.868687
0.45265 1 0.868687
0.452629 1 0.868687
0.453861 0 0
0.453863 0 0
0.452619 0 0
0.45262 0 0
0.452628 0 0
0.452648 0 0
0.452696 0 0
0.45268 0 0
0.452761 0 0
0.45276 0 0
0.452844 1 1.86869
0.452852 1 1.86869
0.452936 1 1.86869
0.452951 1 1.86869
0.453047 1 1.86869
0.453036 1 1.86869
0.45314 1 1.86869
0.453135 1 1.86869
0.453228 1 1.86869
0.453228 1 1.86869
0.45331 0 0
0.453311 0 0
0.453382 0 0
0.453385 0 0
0.453443 0 0
0.453447 0 0
0.453493 0 0
0.453497 0 0
0.453531 1 3.36869
0.453534 0 0
0.453557 1 3.36869
0.453421 1 3.36869
0.442954 1 3.36869
0.419988 1 3.36869
0.453692 0 0
0.453689 0 0
0.453491 0 0
0.453515 0 0
0.453926 0 0
0.453929 0 0
0.453369 0 0
0.453358 0 0
0.453272 0 0
0.453287 0 0
0.453259 0 0
0.453239 0 0
0.453263 0 0
0.453266 0 0
0.454342 0 0
0.476677 0 0
0.453307 0 0
0.453327 0 0
0.467172 0 0
0.467943 0 0
0.457656 0 0
0.458395 0 0
0.453402 0 0
0.45339 0 0
0.454268 0 0
0.454271 0 0
0.453492 0 0
0.453492 0 0
0.45422 0 0
0.454223 0 0
0.453593 0 0
0.453602 0 0
0.45416 0 0
0.454163 0 0
0.453714 0 0
0.453713 0 0
0.454088 0 0
0.45409 0 0
0.453817 0 0
0.453808 0 0
0.454006 0 0
0.454006 0 0
0.453912 0 0
0.453915 0 0
0.454165 0 0
0.454171 0 0
0.45449 0 0
0.454484 0 0
0.454271 0 0
0.454269 0 0
</DataArray>
<DataArray type="Float64" Name="cell vector length" format="ascii">
4.32077e-10 1.50559e-09 5.03509e-09 1.31723e-08 2.55394e-08 3.75999e-08 5.65017e-08 1.11149e-07 2.81646e-07 7.663e-07 1.966e-06 4.46862e-06 8.7553e-06 1.46679e-05 2.18335e-05 3.29162e-05 6.12845e-05 0.000149682 0.000414952 0.00112929 0.00277787 0.00588418 0.0104261 0.0149934 0.0170149 0.0149928 0.0104144 0.00586714 0.00276365 0.00111876 0.00040595 0.000141923 5.57327e-05 3.07317e-05 2.33202e-05 1.88913e-05 1.37846e-05 8.49605e-06 4.39439e-06 1.94528e-06 7.60669e-07 2.80157e-07 1.10766e-07 5.64063e-08 3.75769e-08 2.5534e-08 1.31711e-08 5.03483e-09 1.50554e-09 4.32064e-10 5.34101e-09 1.88022e-08 6.3483e-08 1.67343e-07 3.23724e-07 4.59936e-07 6.29179e-07 1.08229e-06 2.51941e-06 6.73754e-06 1.75261e-05 4.06839e-05 8.13047e-05 0.00013775 0.000203658 0.000296461 0.000527993 0.00128026 0.00365529 0.0103766 0.0265493 0.0578333 0.103986 0.149888 0.170007 0.15005 0.103979 0.0576679 0.0263797 0.010251 0.00355368 0.00119708 0.000469571 0.000273398 0.000218678 0.000180341 0.000130894 7.93357e-05 4.01331e-05 1.7376e-05 6.69759e-06 2.50903e-06 1.07965e-06 6.2853e-07 4.59781e-07 3.23689e-07 1.67335e-07 6.34813e-08 1.88018e-08 5.34092e-09 4.15644e-08 1.4869e-07 5.10114e-07 1.36498e-06 2.65245e-06 3.64232e-06 4.47317e-06 6.2671e-06 1.21612e-05 3.08626e-05 8.23954e-05 0.000199998 0.000417322 0.000727395 0.00107424 0.00147998 0.00240621 0.00566956 0.0170489 0.0522387 0.140206 0.297955 0.484736 0.61992 0.667768 0.62336 0.48709 0.297759 0.139064 0.0512705 0.0163051 0.00511189 0.00202778 0.0013301 0.00116553 0.000983208 0.000701574 0.000410234 0.000198126 8.19167e-05 3.07428e-05 1.21317e-05 6.25993e-06 4.47146e-06 3.64192e-06 2.65236e-06 1.36496e-06 5.1011e-07 1.48689e-07 4.15642e-08 2.91002e-07 1.05803e-06 3.69534e-06 1.00866e-05 1.98642e-05 2.68845e-05 3.10401e-05 3.70632e-05 5.77385e-05 0.000132591 0.000363158 0.000934421 0.00206776 0.00376516 0.00566837 0.00753019 0.0110527 0.0243748 0.0753915 0.234534 0.527607 0.758673 0.831849 0.822873 0.815709 0.837563 0.849347 0.766639 0.524339 0.228178 0.0699803 0.0206132 0.00859834 0.00656021 0.00623346 0.00529416 0.00366065 0.00204025 0.000927669 0.000361588 0.000132237 5.76588e-05 3.70453e-05 3.10361e-05 2.68836e-05 1.9864e-05 1.00866e-05 3.69533e-06 1.05802e-06 2.91002e-07 1.82068e-06 6.69328e-06 2.37724e-05 6.64086e-05 0.000133406 0.000180204 0.000201993 0.000218062 0.000275571 0.000543077 0.00151557 0.00418935 0.00998202 0.019237 0.0301515 0.0396659 0.0529282 0.102913 0.284924 0.620392 0.738913 0.690294 0.608013 0.540855 0.522134 0.560841 0.636351 0.71289 0.741582 0.598353 0.251688 0.0782363 0.0370985 0.033464 0.0337795 0.0283831 0.0187398 0.00985567 0.00416083 0.00150968 0.000541913 0.000275343 0.000218016 0.000201983 0.000180202 0.000133405 6.64085e-05 2.37724e-05 6.69328e-06 1.82068e-06 1.00942e-05 3.68099e-05 0.000132022 0.00037804 0.000779004 0.00106082 0.00117791 0.00120493 0.00129354 0.00210136 0.0058872 0.0177161 0.0460107 0.0934953 0.152725 0.201692 0.247716 0.381236 0.651801 0.707456 0.594807 0.466946 0.369564 0.312727 0.302468 0.335847 0.400104 0.493176 0.60008 0.665525 0.536739 0.256565 0.159606 0.167475 0.174498 0.143813 0.0908801 0.0453548 0.0175805 0.0058625 0.00209714 0.00129283 0.00120481 0.00117789 0.00106081 0.000779003 0.00037804 0.000132022 3.68099e-05 1.00942e-05 4.96449e-05 0.000169625 0.000603866 0.0017727 0.00377434 0.0052525 0.00586933 0.00587469 0.00567031 0.00747969 0.0204143 0.0670224 0.180365 0.331323 0.493845 0.62517 0.727755 0.872376 0.883119 0.640073 0.433942 0.299669 0.222537 0.187381 0.189402 0.218776 0.256056 0.325981 0.43692 0.572045 0.668775 0.60985 0.518995 0.552845 0.556395 0.46693 0.321447 0.177339 0.0663957 0.0203124 0.00746443 0.00566808 0.00587436 0.00586927 0.00525249 0.00377434 0.0017727 0.000603866 0.000169625 4.96449e-05 0.000223833 0.00061283 0.0020979 0.00633425 0.014178 0.0207663 0.0238426 0.0239233 0.0218579 0.0234748 0.0572936 0.184952 0.363021 0.45421 0.569893 0.686415 0.803149 0.951195 0.921035 0.567077 0.323228 0.203062 0.145678 0.127595 0.141808 0.177805 0.185179 0.230276 0.324257 0.482968 0.73376 0.878223 0.737504 0.678384 0.629983 0.542954 0.44102 0.356638 0.182956 0.0569589 0.0234286 0.0218518 0.0239225 0.0238425 0.0207663 0.014178 0.00633425 0.0020979 0.00061283 0.000223833 0.00102221 0.00153476 0.0048687 0.0155898 0.0384349 0.0632146 0.0771056 0.079485 0.0723792 0.0647979 0.109349 0.265475 0.361168 0.382086 0.448784 0.545245 0.654367 0.826143 0.922988 0.582416 0.279629 0.160488 0.112339 0.103068 0.130019 0.195413 0.158519 0.190023 0.27713 0.476144 0.87898 0.957687 0.695093 0.579478 0.509647 0.430134 0.371356 0.35451 0.262469 0.108696 0.0647042 0.0723672 0.0794834 0.0771054 0.0632146 0.0384349 0.0155898 0.0048687 0.00153476 0.00102221 0.00280324 0.00573597 0.0263423 0.118316 0.309444 0.456826 0.50856 0.501473 0.422224 0.30361 0.25468 0.42422 0.439185 0.374756 0.413238 0.462863 0.498226 0.590001 0.801196 0.598515 0.332484 0.233485 0.206088 0.230458 0.281306 0.344969 0.263022 0.291357 0.36336 0.543962 0.884062 0.802633 0.511155 0.460285 0.443518 0.402177 0.367563 0.432218 0.419689 0.253332 0.303374 0.422196 0.501468 0.508559 0.456826 0.309444 0.118316 0.0263423 0.00573597 0.00280324 0.265938 0.265938 0.0684534 0.0684533 0.462521 0.462521 0.568001 0.568 0.588315 0.588313 0.551105 0.551093 0.419899 0.419832 0.0143834 0.0143834 0.282742 0.282112 0.413279 0.41015 0.603655 0.596689 0.552848 0.544325 0.478691 0.469536 0.511501 0.497386 0.54954 0.525613 0.567239 0.520574 0.628495 0.534385 0.828634 0.766852 0.733145 0.904198 0.556947 0.763702 0.469127 0.680711 0.393585 0.608882 0.464899 0.511586 0.562553 0.59182 0.123837 0.123837 0.178538 0.178538 0.0465104 0.0465104 0.198082 0.198081 0.193232 0.193226 0.161508 0.161469 0.121331 0.121037 0.544219 0.432173 0.224027 0.222171 0.347533 0.484582 0.30431 0.494751 0.495891 0.488886 0.341843 0.557805 0.572389 0.560036 0.458339 0.715292 0.578649 0.560298 0.767186 1.07811 0.67658 0.645585 1.15862 1.15999 0.777769 0.722127 1.03988 0.852878 0.761643 0.873458 0.0133362 0.0133362 0.00340652 0.00340652 0.00305666 0.00305666 
</DataArray>
<DataArray type="Float64" Name="cell variable 4" format="ascii">
0.00567734 0.00567734 0.00567734 0.00567735 0.00567735 0.00567735 0.00567736 0.00567737 0.00567743 0.0056776 0.00567804 0.00567897 0.0056806 0.00568286 0.00568565 0.00569016 0.00570161 0.00573546 0.00583193 0.00608036 0.00663262 0.0076396 0.0090671 0.0104743 0.01109 0.010472 0.00906341 0.00763601 0.00662984 0.00607799 0.00582946 0.00573304 0.00569981 0.00568947 0.00568619 0.00568439 0.00568247 0.00568048 0.00567894 0.00567803 0.0056776 0.00567743 0.00567737 0.00567736 0.00567735 0.00567735 0.00567735 0.00567734 0.00567734 0.00567734 0.00567734 0.00567735 0.00567735 0.00567737 0.00567741 0.00567744 0.00567749 0.00567765 0.00567818 0.00567979 0.00568398 0.00569316 0.00570946 0.00573209 0.00575832 0.0057966 0.00589152 0.00618383 0.00705503 0.00936932 0.014512 0.0235133 0.0355955 0.0470738 0.0520391 0.0470535 0.0355584 0.0234743 0.0144797 0.00934191 0.00702729 0.00615726 0.00587197 0.00578908 0.00576409 0.00574826 0.00572906 0.00570857 0.00569291 0.00568391 0.00567977 0.00567818 0.00567765 0.00567749 0.00567744 0.00567741 0.00567737 0.00567735 0.00567735 0.00567734 0.00567735 0.00567737 0.00567744 0.00567763 0.00567793 0.00567816 0.00567841 0.00567909 0.00568143 0.00568892 0.00570971 0.00575765 0.00584651 0.00597132 0.00610457 0.0062608 0.00661782 0.00780761 0.0116338 0.0219974 0.0439725 0.0801738 0.12453 0.160297 0.173919 0.160297 0.124379 0.079949 0.0437775 0.0218261 0.011455 0.00763946 0.00649472 0.00621308 0.00613946 0.00606883 0.00596101 0.00584362 0.00575686 0.0057095 0.00568887 0.00568142 0.00567909 0.00567841 0.00567816 0.00567793 0.00567763 0.00567744 0.00567737 0.00567735 0.00567739 0.00567755 0.00567814 0.00567971 0.0056823 0.00568405 0.00568526 0.00568778 0.0056968 0.00572843 0.00582458 0.0060625 0.00653128 0.00721189 0.00790817 0.00854907 0.00975549 0.014045 0.0282407 0.065357 0.137807 0.215459 0.263895 0.286961 0.294474 0.287405 0.264069 0.215001 0.136934 0.0644946 0.0272525 0.0130514 0.00900895 0.0082547 0.00811495 0.00778384 0.00717708 0.00652194 0.00606011 0.00582399 0.00572829 0.00569677 0.00568777 0.00568526 0.00568405 0.0056823 0.00567971 0.00567814 0.00567755 0.00567739 0.0056777 0.0056788 0.00568312 0.00569519 0.00571596 0.00572896 0.00573517 0.00574284 0.00577153 0.00589052 0.00630694 0.00743092 0.00979943 0.0133428 0.0168902 0.0194922 0.022835 0.0350217 0.0766421 0.172826 0.252254 0.28536 0.311038 0.330097 0.337872 0.329443 0.310173 0.284865 0.251199 0.170247 0.0720495 0.030045 0.0188047 0.0178621 0.0180284 0.0164584 0.0132187 0.00976631 0.00742294 0.00630516 0.00589013 0.00577144 0.00574283 0.00573517 0.00572896 0.00571596 0.00569519 0.00568312 0.0056788 0.0056777 0.00567949 0.00568639 0.0057144 0.0057972 0.00594848 0.00603857 0.00607238 0.006088 0.00614665 0.00651625 0.00816348 0.0130321 0.0236587 0.0392275 0.0544642 0.0637123 0.0695367 0.0935059 0.171793 0.249022 0.285674 0.325903 0.367698 0.400422 0.411712 0.394607 0.361607 0.322801 0.284446 0.246785 0.157218 0.0725273 0.0520199 0.056583 0.0596953 0.0531698 0.0388198 0.0235399 0.013003 0.00815748 0.00651512 0.00614644 0.00608796 0.00607238 0.00603856 0.00594848 0.0057972 0.0057144 0.00568639 0.00567949 0.00568883 0.00572566 0.00588035 0.00637123 0.00734535 0.00789969 0.00808463 0.0080827 0.00802008 0.00874463 0.0143437 0.0320186 0.0703098 0.120026 0.162314 0.183764 0.188472 0.208828 0.248772 0.274109 0.321228 0.382 0.445595 0.491584 0.501705 0.471891 0.429082 0.374078 0.31969 0.270206 0.216565 0.15412 0.14065 0.166138 0.176969 0.159756 0.119004 0.0699487 0.0319233 0.0143235 0.00874118 0.00801953 0.00808261 0.00808461 0.00789968 0.00734535 0.00637123 0.00588035 0.00572566 0.00568883 0.0057326 0.005891 0.00657234 0.00894129 0.0142143 0.0170161 0.0179152 0.0177723 0.0165255 0.015688 0.0301315 0.0797363 0.167836 0.220926 0.261925 0.27973 0.281287 0.290329 0.303843 0.29688 0.353166 0.437127 0.518854 0.571534 0.56921 0.51758 0.487005 0.423803 0.352859 0.286329 0.249247 0.248194 0.24182 0.267311 0.277176 0.260723 0.22011 0.167204 0.0794914 0.0300777 0.015679 0.0165243 0.0177721 0.0179152 0.0170161 0.0142143 0.00894129 0.00657234 0.005891 0.0057326 0.00593829 0.00640289 0.00843718 0.0164284 0.0365479 0.0451159 0.0477191 0.0475235 0.0433301 0.0317066 0.0511664 0.120084 0.172713 0.205449 0.23867 0.247701 0.244892 0.249872 0.267883 0.246231 0.29017 0.3945 0.483553 0.513124 0.464992 0.378372 0.416905 0.366857 0.288716 0.221567 0.232709 0.243993 0.227074 0.243381 0.24939 0.239838 0.20589 0.172718 0.119896 0.0510943 0.031695 0.0433293 0.0475234 0.0477191 0.0451159 0.0365479 0.0164284 0.00843718 0.00640289 0.00593829 0.00654235 0.00764871 0.0151967 0.0482928 0.135535 0.153549 0.156218 0.156572 0.147707 0.0866195 0.0756754 0.14523 0.187514 0.22811 0.264077 0.269081 0.261809 0.251069 0.276753 0.249414 0.251419 0.303285 0.345159 0.328649 0.29333 0.259863 0.304216 0.281479 0.241676 0.21136 0.24842 0.251731 0.239424 0.264962 0.271697 0.265663 0.228986 0.187563 0.14508 0.0755963 0.0866197 0.147712 0.156572 0.156218 0.153549 0.135535 0.0482928 0.0151967 0.00764871 0.00654235 0.0899446 0.0899446 0.0277033 0.0277033 0.182788 0.182788 0.193398 0.193398 0.19378 0.19378 0.192536 0.192537 0.171918 0.171937 0.0102569 0.0102569 0.0814895 0.0814584 0.11763 0.117351 0.230756 0.230254 0.280279 0.280048 0.294734 0.295093 0.335823 0.336658 0.345945 0.346914 0.325112 0.324102 0.288945 0.259228 0.344804 0.280588 0.324634 0.308351 0.317293 0.288509 0.356273 0.31741 0.343853 0.349028 0.379876 0.323118 0.394643 0.432615 0.0539343 0.0539343 0.0655974 0.0655974 0.0235544 0.0235544 0.0684001 0.0684001 0.0673784 0.0673784 0.059721 0.0597203 0.039942 0.0399166 0.40995 0.402411 0.0677854 0.0676254 0.410296 0.359844 0.407339 0.354369 0.159893 0.15939 0.380878 0.324258 0.234878 0.234383 0.328596 0.281999 0.266029 0.265839 0.309256 0.288017 0.302198 0.302301 0.345915 0.286866 0.313466 0.313212 0.305627 0.254752 0.292612 0.303562 0.0104671 0.0104671 0.006735 0.006735 0.00654225 0.00654225 
</DataArray>
</CellData>
</Piece>
</UnstructuredGrid>
</VTKFile>
