<VTKFile type="UnstructuredGrid" version="0.1">
<UnstructuredGrid>
<Piece  NumberOfPoints="    2862" NumberOfCells="     644">
<Points>
<DataArray type="Float64" NumberOfComponents="3" format="ascii">
-0.26262 -9.64995 0.0
-0.261819 -9.64557 0.0
-1.30615 -9.4834 0.0
-1.31093 -9.56545 0.0
-0.260458 -9.63342 0.0
-1.29796 -9.37418 0.0
-1.30571 -9.47655 0.0
-0.261382 -9.63872 0.0
-0.258565 -9.61907 0.0
-1.28572 -9.25039 0.0
-1.29714 -9.36611 0.0
-0.259639 -9.62534 0.0
-0.256099 -9.60299 0.0
-1.26892 -9.11847 0.0
-1.28454 -9.24158 0.0
-0.25738 -9.61026 0.0
-0.252981 -9.58556 0.0
-1.24729 -8.98303 0.0
-1.26737 -9.1093 0.0
-0.254552 -9.59383 0.0
-0.249117 -9.56707 0.0
-1.22077 -8.8471 0.0
-1.24539 -8.97376 0.0
-0.25108 -9.57629 0.0
-0.244416 -9.54777 0.0
-1.18943 -8.71264 0.0
-1.21852 -8.8379 0.0
-0.246875 -9.55787 0.0
-0.238799 -9.52788 0.0
-1.1534 -8.58097 0.0
-1.18686 -8.70361 0.0
-0.241849 -9.53873 0.0
-0.232202 -9.50764 0.0
-1.11285 -8.45299 0.0
-1.15053 -8.57217 0.0
-0.235922 -9.51909 0.0
-0.224579 -9.48726 0.0
-1.06792 -8.32944 0.0
-1.10968 -8.44448 0.0
-0.229027 -9.49913 0.0
-0.215906 -9.46697 0.0
-1.01878 -8.21091 0.0
-1.06446 -8.32126 0.0
-0.22112 -9.47908 0.0
-0.206177 -9.44699 0.0
-0.965606 -8.09792 0.0
-1.01505 -8.20309 0.0
-0.212175 -9.45915 0.0
-0.195406 -9.42754 0.0
-0.908572 -7.99097 0.0
-0.961614 -8.0905 0.0
-0.202185 -9.43957 0.0
-0.183618 -9.40881 0.0
-0.847873 -7.8905 0.0
-0.904331 -7.98398 0.0
-0.191164 -9.42055 0.0
-0.170851 -9.391 0.0
-0.78371 -7.79693 0.0
-0.843395 -7.88396 0.0
-0.179139 -9.40228 0.0
-0.157152 -9.37427 0.0
-0.716291 -7.71066 0.0
-0.779008 -7.79088 0.0
-0.166149 -9.38494 0.0
-0.142575 -9.35877 0.0
-0.645834 -7.63205 0.0
-0.711379 -7.70511 0.0
-0.15224 -9.36872 0.0
-0.127179 -9.34464 0.0
-0.572558 -7.56147 0.0
-0.640726 -7.62704 0.0
-0.137467 -9.35375 0.0
-0.111029 -9.33203 0.0
-0.496693 -7.49925 0.0
-0.56727 -7.55701 0.0
-0.121891 -9.34018 0.0
-0.0941961 -9.32104 0.0
-0.418478 -7.44572 0.0
-0.491239 -7.49537 0.0
-0.105575 -9.32815 0.0
-0.0767593 -9.3118 0.0
-0.338177 -7.40123 0.0
-0.412875 -7.44244 0.0
-0.0885931 -9.31776 0.0
-0.0588096 -9.3044 0.0
-0.256093 -7.3661 0.0
-0.332445 -7.39857 0.0
-0.0710267 -9.30913 0.0
-0.0404509 -9.29893 0.0
-0.172578 -7.34064 0.0
-0.250252 -7.36408 0.0
-0.0529692 -9.30237 0.0
-0.021802 -9.29548 0.0
-0.0880532 -7.3251 0.0
-0.166656 -7.33928 0.0
-0.0345289 -9.29757 0.0
-0.00299486 -9.2941 0.0
-0.00299486 -7.31967 0.0
-0.0820799 -7.32441 0.0
-0.0158287 -9.2948 0.0
0.0158298 -9.2948 0.0
0.082081 -7.32441 0.0
0.00299599 -7.31967 0.0
0.00299599 -9.2941 0.0
0.03453 -9.29757 0.0
0.166658 -7.33928 0.0
0.0880543 -7.3251 0.0
0.0218031 -9.29548 0.0
0.0529704 -9.30237 0.0
0.250253 -7.36408 0.0
0.17258 -7.34064 0.0
0.040452 -9.29893 0.0
0.0710278 -9.30913 0.0
0.332446 -7.39857 0.0
0.256094 -7.3661 0.0
0.0588107 -9.3044 0.0
0.0885943 -9.31776 0.0
0.412876 -7.44244 0.0
0.338178 -7.40123 0.0
0.0767604 -9.3118 0.0
0.105576 -9.32815 0.0
0.49124 -7.49537 0.0
0.418479 -7.44572 0.0
0.0941972 -9.32104 0.0
0.121892 -9.34018 0.0
0.567271 -7.55701 0.0
0.496694 -7.49925 0.0
0.11103 -9.33203 0.0
0.137469 -9.35375 0.0
0.640727 -7.62704 0.0
0.57256 -7.56147 0.0
0.127181 -9.34464 0.0
0.152241 -9.36872 0.0
0.711381 -7.70511 0.0
0.645835 -7.63205 0.0
0.142576 -9.35877 0.0
0.16615 -9.38494 0.0
0.779009 -7.79088 0.0
0.716293 -7.71066 0.0
0.157153 -9.37427 0.0
0.17914 -9.40228 0.0
0.843396 -7.88396 0.0
0.783711 -7.79693 0.0
0.170852 -9.391 0.0
0.191165 -9.42055 0.0
0.904332 -7.98398 0.0
0.847874 -7.8905 0.0
0.183619 -9.40881 0.0
0.202186 -9.43957 0.0
0.961615 -8.0905 0.0
0.908573 -7.99097 0.0
0.195407 -9.42754 0.0
0.212176 -9.45915 0.0
1.01505 -8.20309 0.0
0.965607 -8.09792 0.0
0.206178 -9.44699 0.0
0.221121 -9.47908 0.0
1.06446 -8.32126 0.0
1.01878 -8.21091 0.0
0.215907 -9.46697 0.0
0.229029 -9.49913 0.0
1.10968 -8.44448 0.0
1.06792 -8.32944 0.0
0.22458 -9.48726 0.0
0.235923 -9.51909 0.0
1.15053 -8.57217 0.0
1.11285 -8.45299 0.0
0.232203 -9.50764 0.0
0.24185 -9.53873 0.0
1.18686 -8.70361 0.0
1.15341 -8.58097 0.0
0.2388 -9.52788 0.0
0.246876 -9.55787 0.0
1.21852 -8.8379 0.0
1.18943 -8.71264 0.0
0.244417 -9.54777 0.0
0.251081 -9.57629 0.0
1.24539 -8.97376 0.0
1.22077 -8.8471 0.0
0.249118 -9.56707 0.0
0.254553 -9.59383 0.0
1.26738 -9.1093 0.0
1.24729 -8.98303 0.0
0.252982 -9.58556 0.0
0.257381 -9.61026 0.0
1.28454 -9.24158 0.0
1.26892 -9.11847 0.0
0.2561 -9.60299 0.0
0.25964 -9.62534 0.0
1.29714 -9.36611 0.0
1.28572 -9.25039 0.0
0.258566 -9.61907 0.0
0.261383 -9.63872 0.0
1.30571 -9.47655 0.0
1.29796 -9.37418 0.0
0.260459 -9.63342 0.0
0.262621 -9.64995 0.0
1.31093 -9.56545 0.0
1.30615 -9.4834 0.0
0.26182 -9.64557 0.0
-1.42702 -9.55494 0.0
-1.42224 -9.4729 0.0
-2.62446 -9.33162 0.0
-2.6331 -9.51386 0.0
-1.4212 -9.45558 0.0
-1.41345 -9.35321 0.0
-2.60792 -9.08619 0.0
-2.62343 -9.3143 0.0
-1.4115 -9.333 0.0
-1.40008 -9.21728 0.0
-2.58217 -8.81503 0.0
-2.60597 -9.06598 0.0
-1.3974 -9.19564 0.0
-1.38179 -9.07253 0.0
-2.54671 -8.53383 0.0
-2.57949 -8.79339 0.0
-1.3784 -9.05036 0.0
-1.35831 -8.92409 0.0
-2.5014 -8.25106 0.0
-2.54333 -8.51166 0.0
-1.35421 -8.90189 0.0
-1.32959 -8.77523 0.0
-2.44632 -7.97126 0.0
-2.4973 -8.22887 0.0
-1.32476 -8.75331 0.0
-1.29567 -8.62806 0.0
-2.38167 -7.69705 0.0
-2.4415 -7.94935 0.0
-1.29011 -8.60661 0.0
-1.25666 -8.48397 0.0
-2.30771 -7.43017 0.0
-2.37612 -7.6756 0.0
-1.25039 -8.46312 0.0
-1.21272 -8.34395 0.0
-2.22471 -7.17195 0.0
-2.30144 -7.40932 0.0
-1.20575 -8.32381 0.0
-1.164 -8.20877 0.0
-2.13302 -6.92354 0.0
-2.21775 -7.15182 0.0
-1.15636 -8.18944 0.0
-1.11068 -8.07909 0.0
-2.03297 -6.68594 0.0
-2.12538 -6.90421 0.0
-1.10239 -8.06065 0.0
-1.05294 -7.95548 0.0
-1.92496 -6.4601 0.0
-2.02468 -6.6675 0.0
-1.04403 -7.93801 0.0
-0.990992 -7.83848 0.0
-1.80938 -6.2469 0.0
-1.91605 -6.44262 0.0
-0.981495 -7.82204 0.0
-0.925037 -7.72856 0.0
-1.68668 -6.04716 0.0
-1.79988 -6.23046 0.0
-0.914987 -7.71322 0.0
-0.855302 -7.62619 0.0
-1.55729 -5.86165 0.0
-1.67663 -6.03182 0.0
-0.844733 -7.61201 0.0
-0.782016 -7.5318 0.0
-1.42168 -5.6911 0.0
-1.54672 -5.84748 0.0
-0.770966 -7.51884 0.0
-0.70542 -7.44578 0.0
-1.28034 -5.53617 0.0
-1.41063 -5.67814 0.0
-0.693926 -7.43409 0.0
-0.625758 -7.36852 0.0
-1.13374 -5.39748 0.0
-1.26884 -5.52448 0.0
-0.613859 -7.35815 0.0
-0.543282 -7.30039 0.0
-0.982395 -5.27563 0.0
-1.12184 -5.38712 0.0
-0.531017 -7.2914 0.0
-0.458257 -7.24176 0.0
-0.826819 -5.17118 0.0
-0.97013 -5.26664 0.0
-0.44567 -7.23417 0.0
-0.370972 -7.19297 0.0
-0.667565 -5.08464 0.0
-0.814233 -5.16359 0.0
-0.35811 -7.18684 0.0
-0.281758 -7.15437 0.0
-0.505228 -5.01652 0.0
-0.654702 -5.07851 0.0
-0.268671 -7.14974 0.0
-0.190997 -7.1263 0.0
-0.340469 -4.96726 0.0
-0.492141 -5.01189 0.0
-0.177742 -7.12319 0.0
-0.0991391 -7.10901 0.0
-0.174024 -4.93723 0.0
-0.327214 -4.96415 0.0
-0.0857811 -7.10745 0.0
-0.00669604 -7.10271 0.0
-0.00669604 -4.92667 0.0
-0.160666 -4.93567 0.0
0.00669717 -7.10271 0.0
0.0857822 -7.10745 0.0
0.160667 -4.93567 0.0
0.00669717 -4.92667 0.0
0.0991403 -7.10901 0.0
0.177743 -7.12319 0.0
0.327216 -4.96415 0.0
0.174025 -4.93723 0.0
0.190998 -7.1263 0.0
0.268672 -7.14974 0.0
0.492142 -5.01189 0.0
0.34047 -4.96726 0.0
0.281759 -7.15437 0.0
0.358111 -7.18684 0.0
0.654704 -5.07851 0.0
0.505229 -5.01652 0.0
0.370974 -7.19297 0.0
0.445671 -7.23417 0.0
0.814234 -5.16359 0.0
0.667566 -5.08464 0.0
0.458258 -7.24176 0.0
0.531018 -7.2914 0.0
0.970131 -5.26664 0.0
0.826821 -5.17118 0.0
0.543283 -7.30039 0.0
0.61386 -7.35815 0.0
1.12184 -5.38712 0.0
0.982396 -5.27563 0.0
0.625759 -7.36852 0.0
0.693927 -7.43409 0.0
1.26884 -5.52448 0.0
1.13374 -5.39748 0.0
0.705422 -7.44578 0.0
0.770967 -7.51884 0.0
1.41063 -5.67814 0.0
1.28034 -5.53617 0.0
0.782018 -7.5318 0.0
0.844734 -7.61201 0.0
1.54672 -5.84748 0.0
1.42168 -5.6911 0.0
0.855303 -7.62619 0.0
0.914988 -7.71322 0.0
1.67663 -6.03182 0.0
1.55729 -5.86165 0.0
0.925038 -7.72856 0.0
0.981496 -7.82204 0.0
1.79989 -6.23046 0.0
1.68668 -6.04716 0.0
0.990993 -7.83848 0.0
1.04403 -7.93801 0.0
1.91605 -6.44262 0.0
1.80938 -6.2469 0.0
1.05294 -7.95548 0.0
1.10239 -8.06065 0.0
2.02468 -6.6675 0.0
1.92496 -6.4601 0.0
1.11068 -8.07909 0.0
1.15636 -8.18944 0.0
2.12538 -6.90421 0.0
2.03297 -6.68594 0.0
1.164 -8.20877 0.0
1.20575 -8.32381 0.0
2.21775 -7.15182 0.0
2.13302 -6.92354 0.0
1.21272 -8.34395 0.0
1.25039 -8.46312 0.0
2.30144 -7.40932 0.0
2.22471 -7.17195 0.0
1.25666 -8.48397 0.0
1.29012 -8.60661 0.0
2.37612 -7.6756 0.0
2.30771 -7.43017 0.0
1.29567 -8.62806 0.0
1.32476 -8.75331 0.0
2.4415 -7.94935 0.0
2.38167 -7.69705 0.0
1.32959 -8.77523 0.0
1.35421 -8.90189 0.0
2.4973 -8.22887 0.0
2.44633 -7.97126 0.0
1.35831 -8.92409 0.0
1.3784 -9.05036 0.0
2.54333 -8.51166 0.0
2.50141 -8.25106 0.0
1.38179 -9.07253 0.0
1.3974 -9.19564 0.0
2.57949 -8.79339 0.0
2.54672 -8.53383 0.0
1.40008 -9.21728 0.0
1.4115 -9.333 0.0
2.60597 -9.06598 0.0
2.58217 -8.81503 0.0
1.41345 -9.35321 0.0
1.4212 -9.45558 0.0
2.62343 -9.3143 0.0
2.60792 -9.08619 0.0
1.42224 -9.4729 0.0
1.42702 -9.55494 0.0
2.6331 -9.51386 0.0
2.62446 -9.33162 0.0
-2.75539 -9.32242 0.0
-3.96497 -9.18767 0.0
-3.97656 -9.47987 0.0
-2.76402 -9.50466 0.0
-2.73812 -9.06423 0.0
-3.94062 -8.79571 0.0
-3.96321 -9.1576 0.0
-2.75363 -9.29235 0.0
-2.71135 -8.77859 0.0
-3.90201 -8.37123 0.0
-3.93765 -8.76102 0.0
-2.73515 -9.02954 0.0
-2.67443 -8.4825 0.0
-3.84844 -7.93765 0.0
-3.89786 -8.3347 0.0
-2.7072 -8.74206 0.0
-2.62713 -8.18497 0.0
-3.77984 -7.50562 0.0
-3.84308 -7.90072 0.0
-2.66906 -8.44557 0.0
-2.56955 -7.89072 0.0
-3.69639 -7.08023 0.0
-3.77323 -7.46897 0.0
-2.62053 -8.14833 0.0
-2.50188 -7.60245 0.0
-3.59843 -6.66445 0.0
-3.68855 -7.04425 0.0
-2.56171 -7.85474 0.0
-2.42441 -7.32193 0.0
-3.48634 -6.26036 0.0
-3.58937 -6.62936 0.0
-2.49282 -7.56736 0.0
-2.33744 -7.05055 0.0
-3.36057 -5.86972 0.0
-3.4761 -6.22635 0.0
-2.41416 -7.28792 0.0
-2.24131 -6.78947 0.0
-3.22162 -5.49412 0.0
-3.34918 -5.83693 0.0
-2.32605 -7.01775 0.0
-2.13641 -6.53975 0.0
-3.07002 -5.13504 0.0
-3.20912 -5.46268 0.0
-2.22882 -6.75802 0.0
-2.02314 -6.30239 0.0
-2.90637 -4.79387 0.0
-3.05647 -5.10507 0.0
-2.12286 -6.50979 0.0
-1.90192 -6.07829 0.0
-2.73129 -4.47195 0.0
-2.89181 -4.7655 0.0
-2.00858 -6.27402 0.0
-1.7732 -5.86832 0.0
-2.54546 -4.17051 0.0
-2.71579 -4.44528 0.0
-1.88641 -6.05162 0.0
-1.63747 -5.6733 0.0
-2.34957 -3.89072 0.0
-2.52906 -4.14565 0.0
-1.75681 -5.84347 0.0
-1.49521 -5.49397 0.0
-2.14435 -3.63366 0.0
-2.33234 -3.86776 0.0
-1.62024 -5.65035 0.0
-1.34692 -5.33104 0.0
-1.93056 -3.40033 0.0
-2.12636 -3.6127 0.0
-1.47721 -5.47302 0.0
-1.19312 -5.18517 0.0
-1.70895 -3.19166 0.0
-1.91186 -3.38145 0.0
-1.32822 -5.31216 0.0
-1.03434 -5.05695 0.0
-1.48034 -3.00852 0.0
-1.68962 -3.17494 0.0
-1.17379 -5.16844 0.0
-0.871127 -4.94699 0.0
-1.24553 -2.8517 0.0
-1.46044 -2.99402 0.0
-1.01444 -5.04245 0.0
-0.704061 -4.85583 0.0
-1.00539 -2.72194 0.0
-1.22513 -2.83949 0.0
-0.850729 -4.93478 0.0
-0.533767 -4.78398 0.0
-0.760819 -2.6199 0.0
-0.984568 -2.71208 0.0
-0.683242 -4.84597 0.0
-0.360937 -4.7319 0.0
-0.512812 -2.54617 0.0
-0.739661 -2.61245 0.0
-0.512609 -4.77653 0.0
-0.186338 -4.69999 0.0
-0.262428 -2.50123 0.0
-0.491403 -2.54118 0.0
-0.339529 -4.72691 0.0
-0.0108065 -4.68848 0.0
-0.0108065 -2.48537 0.0
-0.240866 -2.49872 0.0
-0.164776 -4.69748 0.0
0.164777 -4.69748 0.0
0.240867 -2.49872 0.0
0.0108077 -2.48537 0.0
0.0108077 -4.68848 0.0
0.33953 -4.72691 0.0
0.491405 -2.54118 0.0
0.262429 -2.50123 0.0
0.186339 -4.69999 0.0
0.51261 -4.77653 0.0
0.739662 -2.61245 0.0
0.512813 -2.54617 0.0
0.360939 -4.7319 0.0
0.683243 -4.84597 0.0
0.984569 -2.71208 0.0
0.760821 -2.6199 0.0
0.533769 -4.78398 0.0
0.85073 -4.93478 0.0
1.22513 -2.83949 0.0
1.00539 -2.72194 0.0
0.704062 -4.85583 0.0
1.01444 -5.04245 0.0
1.46044 -2.99402 0.0
1.24553 -2.8517 0.0
0.871128 -4.94699 0.0
1.17379 -5.16844 0.0
1.68962 -3.17494 0.0
1.48034 -3.00852 0.0
1.03434 -5.05695 0.0
1.32822 -5.31216 0.0
1.91186 -3.38145 0.0
1.70895 -3.19166 0.0
1.19312 -5.18517 0.0
1.47721 -5.47302 0.0
2.12636 -3.6127 0.0
1.93056 -3.40033 0.0
1.34692 -5.33104 0.0
1.62024 -5.65035 0.0
2.33235 -3.86776 0.0
2.14435 -3.63366 0.0
1.49521 -5.49397 0.0
1.75681 -5.84347 0.0
2.52907 -4.14565 0.0
2.34957 -3.89072 0.0
1.63747 -5.6733 0.0
1.88641 -6.05162 0.0
2.71579 -4.44528 0.0
2.54546 -4.17051 0.0
1.7732 -5.86832 0.0
2.00858 -6.27402 0.0
2.89181 -4.7655 0.0
2.73129 -4.47195 0.0
1.90192 -6.07829 0.0
2.12286 -6.50979 0.0
3.05647 -5.10507 0.0
2.90637 -4.79387 0.0
2.02314 -6.30239 0.0
2.22882 -6.75802 0.0
3.20912 -5.46268 0.0
3.07002 -5.13504 0.0
2.13641 -6.53975 0.0
2.32605 -7.01775 0.0
3.34918 -5.83693 0.0
3.22162 -5.49412 0.0
2.24132 -6.78947 0.0
2.41417 -7.28792 0.0
3.4761 -6.22635 0.0
3.36058 -5.86972 0.0
2.33744 -7.05055 0.0
2.49283 -7.56736 0.0
3.58937 -6.62936 0.0
3.48634 -6.26036 0.0
2.42441 -7.32193 0.0
2.56171 -7.85474 0.0
3.68855 -7.04425 0.0
3.59843 -6.66445 0.0
2.50188 -7.60245 0.0
2.62053 -8.14833 0.0
3.77323 -7.46897 0.0
3.6964 -7.08023 0.0
2.56955 -7.89072 0.0
2.66906 -8.44557 0.0
3.84308 -7.90072 0.0
3.77984 -7.50562 0.0
2.62714 -8.18497 0.0
2.7072 -8.74206 0.0
3.89786 -8.3347 0.0
3.84844 -7.93765 0.0
2.67443 -8.4825 0.0
2.73515 -9.02954 0.0
3.93765 -8.76102 0.0
3.90201 -8.37123 0.0
2.71135 -8.77859 0.0
2.75363 -9.29235 0.0
3.96321 -9.1576 0.0
3.94062 -8.79571 0.0
2.73812 -9.06423 0.0
2.75539 -9.32242 0.0
2.76402 -9.50466 0.0
3.97656 -9.47987 0.0
3.96497 -9.18767 0.0
-4.09812 -9.17916 0.0
-5.30891 -9.04556 0.0
-5.32322 -9.45396 0.0
-4.10971 -9.47135 0.0
-4.0732 -8.77353 0.0
-5.27697 -8.50281 0.0
-5.30657 -9.00182 0.0
-4.09579 -9.13542 0.0
-4.0336 -8.33394 0.0
-5.22554 -7.92388 0.0
-5.27301 -8.45301 0.0
-4.06924 -8.72373 0.0
-3.97853 -7.88515 0.0
-5.15385 -7.33806 0.0
-5.21988 -7.87215 0.0
-4.02795 -8.2822 0.0
-3.90788 -7.43817 0.0
-5.06192 -6.75705 0.0
-5.14644 -7.28618 0.0
-3.97112 -7.83327 0.0
-3.82187 -6.99818 0.0
-4.95007 -6.18623 0.0
-5.05275 -6.70581 0.0
-3.89871 -7.38692 0.0
-3.72084 -6.56817 0.0
-4.81876 -5.62882 0.0
-4.93916 -6.13602 0.0
-3.81096 -6.94797 0.0
-3.60518 -6.15026 0.0
-4.66849 -5.08734 0.0
-4.80613 -5.57992 0.0
-3.70821 -6.51927 0.0
-3.47538 -5.74626 0.0
-4.49989 -4.56399 0.0
-4.65422 -5.03996 0.0
-3.59091 -6.10288 0.0
-3.33193 -5.35778 0.0
-4.3136 -4.06087 0.0
-4.48401 -4.51833 0.0
-3.4595 -5.70059 0.0
-3.17541 -4.98637 0.0
-4.11035 -3.57992 0.0
-4.29617 -4.01709 0.0
-3.31451 -5.31401 0.0
-3.00642 -4.63347 0.0
-3.89095 -3.12305 0.0
-4.09146 -3.53822 0.0
-3.15652 -4.94467 0.0
-2.8256 -4.30044 0.0
-3.65624 -2.69201 0.0
-3.87066 -3.08357 0.0
-2.98612 -4.59399 0.0
-2.63366 -3.98857 0.0
-3.40713 -2.28848 0.0
-3.63463 -2.65491 0.0
-2.80399 -4.26334 0.0
-2.43132 -3.69907 0.0
-3.14456 -1.91402 0.0
-3.38428 -2.25391 0.0
-2.61081 -3.954 0.0
-2.21932 -3.43305 0.0
-2.86953 -1.5701 0.0
-3.12056 -1.88212 0.0
-2.40731 -3.66716 0.0
-1.99845 -3.19156 0.0
-2.58305 -1.25805 0.0
-2.84446 -1.54097 0.0
-2.19425 -3.40393 0.0
-1.76951 -2.97556 0.0
-2.2862 -0.979108 0.0
-2.55702 -1.23182 0.0
-1.97241 -3.16534 0.0
-1.53331 -2.78592 0.0
-1.98005 -0.734418 0.0
-2.25929 -0.95589 0.0
-1.7426 -2.95234 0.0
-1.29072 -2.62349 0.0
-1.66574 -0.525017 0.0
-1.95236 -0.714303 0.0
-1.50562 -2.76581 0.0
-1.04261 -2.48901 0.0
-1.34443 -0.35185 0.0
-1.63738 -0.508094 0.0
-1.26235 -2.60657 0.0
-0.789923 -2.38317 0.0
-1.01735 -0.215762 0.0
-1.31549 -0.338199 0.0
-1.01367 -2.47536 0.0
-0.533684 -2.30659 0.0
-0.685805 -0.117476 0.0
-0.987957 -0.205454 0.0
-0.760534 -2.37287 0.0
-0.274985 -2.25973 0.0
-0.351197 -0.0575614 0.0
-0.656081 -0.110569 0.0
-0.50396 -2.29968 0.0
-0.0149978 -2.24291 0.0
-0.0149978 -0.0363895 0.0
-0.321269 -0.0540966 0.0
-0.245057 -2.25626 0.0
0.245058 -2.25626 0.0
0.32127 -0.0540966 0.0
0.014999 -0.0363895 0.0
0.014999 -2.24291 0.0
0.503962 -2.29968 0.0
0.656083 -0.110569 0.0
0.351198 -0.0575614 0.0
0.274986 -2.25973 0.0
0.760535 -2.37287 0.0
0.987959 -0.205454 0.0
0.685806 -0.117476 0.0
0.533685 -2.30659 0.0
1.01367 -2.47536 0.0
1.3155 -0.338199 0.0
1.01735 -0.215762 0.0
0.789924 -2.38317 0.0
1.26235 -2.60657 0.0
1.63738 -0.508094 0.0
1.34443 -0.35185 0.0
1.04261 -2.48901 0.0
1.50562 -2.76581 0.0
1.95237 -0.714303 0.0
1.66574 -0.525017 0.0
1.29072 -2.62349 0.0
1.7426 -2.95234 0.0
2.25929 -0.95589 0.0
1.98006 -0.734418 0.0
1.53331 -2.78592 0.0
1.97242 -3.16534 0.0
2.55702 -1.23182 0.0
2.2862 -0.979108 0.0
1.76951 -2.97556 0.0
2.19425 -3.40393 0.0
2.84446 -1.54097 0.0
2.58305 -1.25805 0.0
1.99845 -3.19156 0.0
2.40731 -3.66716 0.0
3.12056 -1.88212 0.0
2.86953 -1.5701 0.0
2.21932 -3.43305 0.0
2.61081 -3.954 0.0
3.38428 -2.25391 0.0
3.14456 -1.91402 0.0
2.43132 -3.69907 0.0
2.80399 -4.26334 0.0
3.63463 -2.65491 0.0
3.40713 -2.28848 0.0
2.63366 -3.98857 0.0
2.98612 -4.59399 0.0
3.87066 -3.08357 0.0
3.65624 -2.69201 0.0
2.8256 -4.30044 0.0
3.15652 -4.94467 0.0
4.09146 -3.53822 0.0
3.89095 -3.12305 0.0
3.00642 -4.63347 0.0
3.31451 -5.31401 0.0
4.29618 -4.01709 0.0
4.11036 -3.57992 0.0
3.17541 -4.98637 0.0
3.4595 -5.70059 0.0
4.48401 -4.51833 0.0
4.3136 -4.06087 0.0
3.33194 -5.35778 0.0
3.59091 -6.10288 0.0
4.65422 -5.03996 0.0
4.49989 -4.56399 0.0
3.47538 -5.74626 0.0
3.70822 -6.51927 0.0
4.80613 -5.57992 0.0
4.6685 -5.08734 0.0
3.60519 -6.15026 0.0
3.81096 -6.94797 0.0
4.93916 -6.13602 0.0
4.81876 -5.62882 0.0
3.72084 -6.56817 0.0
3.89871 -7.38692 0.0
5.05275 -6.70581 0.0
4.95007 -6.18623 0.0
3.82187 -6.99818 0.0
3.97112 -7.83327 0.0
5.14644 -7.28618 0.0
5.06192 -6.75705 0.0
3.90789 -7.43817 0.0
4.02795 -8.2822 0.0
5.21989 -7.87215 0.0
5.15385 -7.33806 0.0
3.97853 -7.88515 0.0
4.06924 -8.72373 0.0
5.27301 -8.45301 0.0
5.22554 -7.92388 0.0
4.0336 -8.33394 0.0
4.09579 -9.13542 0.0
5.30658 -9.00182 0.0
5.27697 -8.50281 0.0
4.0732 -8.77353 0.0
4.09812 -9.17916 0.0
4.10971 -9.47135 0.0
5.32322 -9.45396 0.0
5.30891 -9.04556 0.0
-5.44277 -9.03735 0.0
-6.65379 -8.90374 0.0
-6.67071 -9.43268 0.0
-5.45707 -9.44574 0.0
-5.41029 -8.48044 0.0
-6.61429 -8.2082 0.0
-6.65092 -8.84584 0.0
-5.4399 -8.97945 0.0
-5.35786 -7.8862 0.0
-6.55 -7.47482 0.0
-6.60934 -8.14309 0.0
-5.40534 -8.41533 0.0
-5.28463 -7.28512 0.0
-6.46014 -6.73718 0.0
-6.54281 -7.40782 0.0
-5.35067 -7.81921 0.0
-5.19063 -6.68915 0.0
-6.34485 -6.00753 0.0
-6.45065 -6.67034 0.0
-5.27515 -7.21828 0.0
-5.07619 -6.1037 0.0
-6.20457 -5.29143 0.0
-6.33308 -5.94166 0.0
-5.17886 -6.62328 0.0
-4.94178 -5.53204 0.0
-6.03988 -4.59245 0.0
-6.19056 -5.22696 0.0
-5.06218 -6.03923 0.0
-4.78793 -4.97668 0.0
-5.85142 -3.91354 0.0
-6.02367 -4.52968 0.0
-4.92557 -5.46927 0.0
-4.61527 -4.43991 0.0
-5.63995 -3.25743 0.0
-5.83309 -3.85274 0.0
-4.7696 -4.91588 0.0
-4.42447 -3.92385 0.0
-5.4063 -2.62671 0.0
-5.61956 -3.19884 0.0
-4.59488 -4.38132 0.0
-4.21627 -3.43052 0.0
-5.15138 -2.02383 0.0
-5.38392 -2.57055 0.0
-4.4021 -3.86769 0.0
-3.99151 -2.96185 0.0
-4.87619 -1.45116 0.0
-5.12712 -1.97033 0.0
-4.19201 -3.37702 0.0
-3.75103 -2.51964 0.0
-4.58181 -0.910927 0.0
-4.85014 -1.40052 0.0
-3.96545 -2.91121 0.0
-3.49578 -2.10563 0.0
-4.26938 -0.405233 0.0
-4.55406 -0.863351 0.0
-3.72328 -2.47207 0.0
-3.22672 -1.72142 0.0
-3.94008 0.0639565 0.0
-4.24004 -0.360904 0.0
-3.46644 -2.0613 0.0
-2.94488 -1.36849 0.0
-3.59519 0.494812 0.0
-3.90927 0.104865 0.0
-3.19591 -1.68051 0.0
-2.65129 -1.04823 0.0
-3.23599 0.885646 0.0
-3.56301 0.532141 0.0
-2.9127 -1.33116 0.0
-2.34706 -0.761913 0.0
-2.86383 1.23491 0.0
-3.20257 0.919248 0.0
-2.61788 -1.01463 0.0
-2.0333 -0.510701 0.0
-2.4801 1.54119 0.0
-2.8293 1.26465 0.0
-2.31253 -0.732173 0.0
-1.71116 -0.295659 0.0
-2.08623 1.80321 0.0
-2.44458 1.56695 0.0
-1.99778 -0.484945 0.0
-1.38184 -0.117756 0.0
-1.68369 2.0198 0.0
-2.04985 1.82486 0.0
-1.67478 -0.274 0.0
-1.0466 0.0221445 0.0
-1.27404 2.18995 0.0
-1.6466 2.03726 0.0
-1.34474 -0.100292 0.0
-0.706781 0.123304 0.0
-0.858916 2.31281 0.0
-1.23638 2.20314 0.0
-1.00893 0.0353265 0.0
-0.363816 0.185142 0.0
-0.440035 2.3877 0.0
-0.820835 2.32164 0.0
-0.668701 0.132135 0.0
-0.0192099 0.207277 0.0
-0.0192099 2.4142 0.0
-0.4017 2.39213 0.0
-0.325481 0.18957 0.0
0.325482 0.18957 0.0
0.401701 2.39213 0.0
0.019211 2.4142 0.0
0.019211 0.207277 0.0
0.668702 0.132135 0.0
0.820836 2.32164 0.0
0.440036 2.3877 0.0
0.363818 0.185142 0.0
1.00893 0.0353265 0.0
1.23638 2.20314 0.0
0.858917 2.31281 0.0
0.706782 0.123304 0.0
1.34475 -0.100292 0.0
1.6466 2.03726 0.0
1.27404 2.18995 0.0
1.0466 0.0221445 0.0
1.67478 -0.274 0.0
2.04985 1.82486 0.0
1.68369 2.0198 0.0
1.38184 -0.117756 0.0
1.99778 -0.484945 0.0
2.44458 1.56695 0.0
2.08623 1.80321 0.0
1.71116 -0.295659 0.0
2.31253 -0.732173 0.0
2.8293 1.26465 0.0
2.4801 1.54119 0.0
2.0333 -0.510701 0.0
2.61788 -1.01463 0.0
3.20257 0.919248 0.0
2.86383 1.23491 0.0
2.34706 -0.761913 0.0
2.9127 -1.33116 0.0
3.56301 0.532141 0.0
3.23599 0.885646 0.0
2.6513 -1.04823 0.0
3.19591 -1.68051 0.0
3.90927 0.104865 0.0
3.59519 0.494812 0.0
2.94488 -1.36849 0.0
3.46644 -2.0613 0.0
4.24004 -0.360904 0.0
3.94008 0.0639565 0.0
3.22672 -1.72142 0.0
3.72328 -2.47207 0.0
4.55406 -0.863351 0.0
4.26938 -0.405233 0.0
3.49578 -2.10563 0.0
3.96545 -2.91121 0.0
4.85014 -1.40052 0.0
4.58181 -0.910927 0.0
3.75103 -2.51964 0.0
4.19201 -3.37702 0.0
5.12712 -1.97033 0.0
4.87619 -1.45116 0.0
3.99151 -2.96185 0.0
4.4021 -3.86769 0.0
5.38393 -2.57055 0.0
5.15138 -2.02383 0.0
4.21628 -3.43052 0.0
4.59488 -4.38132 0.0
5.61956 -3.19884 0.0
5.4063 -2.62671 0.0
4.42447 -3.92385 0.0
4.7696 -4.91588 0.0
5.83309 -3.85274 0.0
5.63995 -3.25743 0.0
4.61527 -4.43991 0.0
4.92557 -5.46927 0.0
6.02367 -4.52968 0.0
5.85142 -3.91354 0.0
4.78793 -4.97668 0.0
5.06218 -6.03923 0.0
6.19056 -5.22696 0.0
6.03988 -4.59245 0.0
4.94178 -5.53204 0.0
5.17886 -6.62328 0.0
6.33308 -5.94166 0.0
6.20457 -5.29143 0.0
5.07619 -6.1037 0.0
5.27515 -7.21828 0.0
6.45065 -6.67034 0.0
6.34485 -6.00753 0.0
5.19063 -6.68915 0.0
5.35067 -7.81921 0.0
6.54281 -7.40782 0.0
6.46014 -6.73718 0.0
5.28463 -7.28512 0.0
5.40534 -8.41533 0.0
6.60934 -8.14309 0.0
6.55 -7.47482 0.0
5.35786 -7.8862 0.0
5.4399 -8.97945 0.0
6.65092 -8.84584 0.0
6.61429 -8.2082 0.0
5.41029 -8.48044 0.0
5.44277 -9.03735 0.0
5.45708 -9.44574 0.0
6.67071 -9.43268 0.0
6.65379 -8.90374 0.0
-6.78796 -8.89569 0.0
-7.99903 -8.76174 0.0
-8.0185 -9.4144 0.0
-6.80488 -9.42464 0.0
-6.74794 -8.1857 0.0
-7.95197 -7.9124 0.0
-7.99564 -8.68939 0.0
-6.78457 -8.82334 0.0
-6.68263 -7.43693 0.0
-7.87476 -7.02481 0.0
-7.94599 -7.8319 0.0
-6.74197 -8.1052 0.0
-6.59121 -6.68404 0.0
-7.76671 -6.13573 0.0
-7.86602 -6.94257 0.0
-6.67388 -7.35468 0.0
-6.47383 -5.93944 0.0
-7.62805 -5.25765 0.0
-7.75514 -6.05393 0.0
-6.57964 -6.60225 0.0
-6.33095 -5.20871 0.0
-7.45933 -4.39637 0.0
-7.61368 -5.17715 0.0
-6.45946 -5.85894 0.0
-6.16315 -4.49545 0.0
-7.26125 -3.55583 0.0
-7.44222 -4.31761 0.0
-6.31383 -5.12996 0.0
-5.9711 -3.80266 0.0
-7.03459 -2.7395 0.0
-7.24145 -3.47917 0.0
-6.14335 -4.41879 0.0
-5.75557 -3.1331 0.0
-6.78024 -1.95061 0.0
-7.01219 -2.66525 0.0
-5.9487 -3.7284 0.0
-5.51739 -2.48942 0.0
-6.49922 -1.19226 0.0
-6.75533 -1.87906 0.0
-5.73065 -3.06154 0.0
-5.25751 -1.87413 0.0
-6.19261 -0.467428 0.0
-6.47189 -1.12369 0.0
-5.49006 -2.42084 0.0
-4.97695 -1.28963 0.0
-5.86163 0.221058 0.0
-6.16297 -0.402101 0.0
-5.22787 -1.8088 0.0
-4.67679 -0.738213 0.0
-5.50757 0.870509 0.0
-5.8298 0.282883 0.0
-4.94512 -1.22781 0.0
-4.35821 -0.222015 0.0
-5.1318 1.47839 0.0
-5.47367 0.928589 0.0
-4.64289 -0.680133 0.0
-4.02241 0.256955 0.0
-4.73577 2.04233 0.0
-5.09596 1.5325 0.0
-4.32237 -0.167905 0.0
-3.67069 0.696831 0.0
-4.32099 2.56014 0.0
-4.69812 2.09226 0.0
-3.98477 0.306884 0.0
-3.30437 1.09589 0.0
-3.88905 3.02977 0.0
-4.28169 2.60569 0.0
-3.63139 0.742383 0.0
-2.92482 1.45255 0.0
-3.44157 3.44937 0.0
-3.84824 3.07076 0.0
-3.26356 1.13688 0.0
-2.53345 1.76536 0.0
-2.98024 3.81725 0.0
-3.39941 3.48565 0.0
-2.88265 1.48882 0.0
-2.13173 2.03303 0.0
-2.50679 4.13189 0.0
-2.93688 3.84866 0.0
-2.49009 1.79677 0.0
-1.72117 2.25436 0.0
-2.02301 4.39191 0.0
-2.46239 4.15829 0.0
-2.08733 2.05943 0.0
-1.30335 2.42834 0.0
-1.53078 4.59614 0.0
-1.97775 4.4132 0.0
-1.67591 2.27565 0.0
-0.879932 2.55407 0.0
-1.03206 4.74357 0.0
-1.48483 4.6122 0.0
-1.2574 2.4444 0.0
-0.452679 2.63089 0.0
-0.528892 4.83344 0.0
-0.985603 4.75432 0.0
-0.833478 2.56483 0.0
-0.0234299 2.65835 0.0
-0.0234299 4.86525 0.0
-0.482133 4.83883 0.0
-0.40592 2.63628 0.0
0.405921 2.63628 0.0
0.482135 4.83883 0.0
0.0234311 4.86525 0.0
0.0234311 2.65835 0.0
0.83348 2.56483 0.0
0.985604 4.75432 0.0
0.528893 4.83344 0.0
0.45268 2.63089 0.0
1.2574 2.4444 0.0
1.48483 4.6122 0.0
1.03206 4.74357 0.0
0.879933 2.55407 0.0
1.67591 2.27565 0.0
1.97775 4.4132 0.0
1.53078 4.59614 0.0
1.30335 2.42834 0.0
2.08733 2.05943 0.0
2.46239 4.15829 0.0
2.02301 4.39191 0.0
1.72117 2.25436 0.0
2.49009 1.79677 0.0
2.93688 3.84866 0.0
2.50679 4.13189 0.0
2.13173 2.03303 0.0
2.88265 1.48882 0.0
3.39941 3.48565 0.0
2.98024 3.81725 0.0
2.53345 1.76536 0.0
3.26356 1.13688 0.0
3.84824 3.07076 0.0
3.44157 3.44937 0.0
2.92482 1.45255 0.0
3.63139 0.742383 0.0
4.28169 2.60569 0.0
3.88905 3.02977 0.0
3.30437 1.09589 0.0
3.98477 0.306884 0.0
4.69812 2.09226 0.0
4.32099 2.56014 0.0
3.67069 0.696831 0.0
4.32237 -0.167905 0.0
5.09596 1.5325 0.0
4.73577 2.04233 0.0
4.02241 0.256955 0.0
4.64289 -0.680133 0.0
5.47367 0.928589 0.0
5.1318 1.47839 0.0
4.35821 -0.222015 0.0
4.94512 -1.22781 0.0
5.8298 0.282883 0.0
5.50757 0.870509 0.0
4.6768 -0.738213 0.0
5.22787 -1.8088 0.0
6.16297 -0.402101 0.0
5.86164 0.221058 0.0
4.97695 -1.28963 0.0
5.49006 -2.42084 0.0
6.47189 -1.12369 0.0
6.19261 -0.467428 0.0
5.25751 -1.87413 0.0
5.73065 -3.06154 0.0
6.75533 -1.87906 0.0
6.49922 -1.19226 0.0
5.51739 -2.48942 0.0
5.9487 -3.7284 0.0
7.01219 -2.66525 0.0
6.78025 -1.95061 0.0
5.75557 -3.1331 0.0
6.14335 -4.41879 0.0
7.24146 -3.47917 0.0
7.03459 -2.7395 0.0
5.9711 -3.80266 0.0
6.31384 -5.12996 0.0
7.44222 -4.31761 0.0
7.26125 -3.55583 0.0
6.16315 -4.49545 0.0
6.45946 -5.85894 0.0
7.61368 -5.17715 0.0
7.45934 -4.39637 0.0
6.33095 -5.20871 0.0
6.57964 -6.60225 0.0
7.75514 -6.05393 0.0
7.62805 -5.25765 0.0
6.47383 -5.93944 0.0
6.67388 -7.35468 0.0
7.86602 -6.94257 0.0
7.76671 -6.13573 0.0
6.59121 -6.68404 0.0
6.74197 -8.1052 0.0
7.94599 -7.8319 0.0
7.87477 -7.02481 0.0
6.68263 -7.43693 0.0
6.78457 -8.82334 0.0
7.99565 -8.68939 0.0
7.95197 -7.9124 0.0
6.74794 -8.1857 0.0
6.78796 -8.89569 0.0
6.80488 -9.42464 0.0
8.01851 -9.4144 0.0
7.99904 -8.76174 0.0
-8.13336 -8.7538 0.0
-9.34429 -8.61944 0.0
-9.36627 -9.3982 0.0
-8.15283 -9.40646 0.0
-8.08577 -7.88981 0.0
-9.28964 -7.61581 0.0
-9.34038 -8.53244 0.0
-8.12945 -8.6668 0.0
-8.00754 -6.9868 0.0
-9.19951 -6.5743 0.0
-9.28264 -7.51989 0.0
-8.07877 -7.79389 0.0
-7.89791 -6.08248 0.0
-9.07324 -5.53405 0.0
-9.18919 -6.47683 0.0
-7.99723 -6.88932 0.0
-7.75716 -5.18947 0.0
-8.9112 -4.50771 0.0
-9.05957 -5.43732 0.0
-7.88425 -5.98575 0.0
-7.58584 -4.31356 0.0
-8.71404 -3.50131 0.0
-8.89422 -4.41258 0.0
-7.74018 -5.09434 0.0
-7.38465 -3.45874 0.0
-8.48257 -2.51926 0.0
-8.69382 -3.40827 0.0
-7.56561 -4.22052 0.0
-7.15439 -2.62851 0.0
-8.2177 -1.56553 0.0
-8.45917 -2.42871 0.0
-7.36125 -3.36818 0.0
-6.89597 -1.82616 0.0
-7.92047 -0.643872 0.0
-8.19123 -1.47781 0.0
-7.12792 -2.54079 0.0
-6.61042 -1.05484 0.0
-7.59207 0.242083 0.0
-7.89103 -0.559349 0.0
-6.86653 -1.74163 0.0
-6.29885 -0.31758 0.0
-7.23378 1.08886 0.0
-7.55977 0.323084 0.0
-6.57812 -0.97384 0.0
-5.96249 0.38274 0.0
-6.84701 1.89315 0.0
-7.19876 1.16602 0.0
-6.26383 -0.240419 0.0
-5.60264 1.04339 0.0
-6.43326 2.65181 0.0
-6.80939 1.96617 0.0
-5.92487 0.455761 0.0
-5.22071 1.66178 0.0
-5.99415 3.36187 0.0
-6.3932 2.7204 0.0
-5.56258 1.11198 0.0
-4.81817 2.23552 0.0
-5.53138 4.02056 0.0
-5.9518 3.42577 0.0
-5.17836 1.72568 0.0
-4.39656 2.76235 0.0
-5.04673 4.6253 0.0
-5.48691 4.07951 0.0
-4.7737 2.29447 0.0
-3.95749 3.24021 0.0
-4.54205 5.17372 0.0
-5.0003 4.67908 0.0
-4.35013 2.81613 0.0
-3.50261 3.66721 0.0
-4.01926 5.66365 0.0
-4.49384 5.22212 0.0
-3.90928 3.28861 0.0
-3.03364 4.04163 0.0
-3.48033 6.09313 0.0
-3.96945 5.70647 0.0
-3.4528 3.71003 0.0
-2.55234 4.36192 0.0
-2.92731 6.46038 0.0
-3.42911 6.13019 0.0
-2.98242 4.0787 0.0
-2.06053 4.6267 0.0
-2.3623 6.76382 0.0
-2.87488 6.49153 0.0
-2.4999 4.39308 0.0
-1.56012 4.83474 0.0
-1.7875 7.00211 0.0
-2.30885 6.78893 0.0
-2.00708 4.6518 0.0
-1.05309 4.98505 0.0
-1.20518 7.17411 0.0
-1.73325 7.02105 0.0
-1.50587 4.85368 0.0
-0.541546 5.07685 0.0
-0.617743 7.27895 0.0
-1.15035 7.18679 0.0
-0.998258 4.99773 0.0
-0.0276537 5.10963 0.0
-0.0276533 7.31609 0.0
-0.562553 7.28531 0.0
-0.486357 5.08321 0.0
0.486358 5.08321 0.0
0.562554 7.28531 0.0
0.0276552 7.31609 0.0
0.0276548 5.10963 0.0
0.998259 4.99773 0.0
1.15035 7.18679 0.0
0.617744 7.27895 0.0
0.541548 5.07685 0.0
1.50587 4.85368 0.0
1.73325 7.02105 0.0
1.20518 7.17411 0.0
1.05309 4.98505 0.0
2.00708 4.6518 0.0
2.30886 6.78893 0.0
1.7875 7.00211 0.0
1.56012 4.83474 0.0
2.4999 4.39308 0.0
2.87488 6.49153 0.0
2.3623 6.76382 0.0
2.06053 4.6267 0.0
2.98242 4.0787 0.0
3.42912 6.13019 0.0
2.92731 6.46038 0.0
2.55234 4.36192 0.0
3.45281 3.71003 0.0
3.96945 5.70647 0.0
3.48033 6.09313 0.0
3.03364 4.04163 0.0
3.90928 3.28861 0.0
4.49384 5.22212 0.0
4.01926 5.66365 0.0
3.50261 3.66721 0.0
4.35013 2.81613 0.0
5.0003 4.67908 0.0
4.54205 5.17372 0.0
3.95749 3.24021 0.0
4.7737 2.29447 0.0
5.48691 4.07951 0.0
5.04673 4.6253 0.0
4.39656 2.76235 0.0
5.17836 1.72568 0.0
5.95181 3.42577 0.0
5.53139 4.02056 0.0
4.81817 2.23552 0.0
5.56258 1.11198 0.0
6.3932 2.7204 0.0
5.99415 3.36187 0.0
5.22071 1.66178 0.0
5.92487 0.455761 0.0
6.80939 1.96617 0.0
6.43326 2.65181 0.0
5.60264 1.04339 0.0
6.26383 -0.240419 0.0
7.19876 1.16602 0.0
6.84701 1.89315 0.0
5.96249 0.38274 0.0
6.57812 -0.97384 0.0
7.55978 0.323084 0.0
7.23378 1.08886 0.0
6.29885 -0.31758 0.0
6.86653 -1.74163 0.0
7.89103 -0.559349 0.0
7.59207 0.242083 0.0
6.61042 -1.05484 0.0
7.12792 -2.54079 0.0
8.19123 -1.47781 0.0
7.92047 -0.643872 0.0
6.89597 -1.82616 0.0
7.36125 -3.36818 0.0
8.45918 -2.42871 0.0
8.2177 -1.56553 0.0
7.15439 -2.62851 0.0
7.56561 -4.22052 0.0
8.69382 -3.40827 0.0
8.48257 -2.51926 0.0
7.38465 -3.45874 0.0
7.74018 -5.09434 0.0
8.89422 -4.41258 0.0
8.71404 -3.50131 0.0
7.58584 -4.31356 0.0
7.88425 -5.98575 0.0
9.05957 -5.43732 0.0
8.9112 -4.50771 0.0
7.75716 -5.18947 0.0
7.99723 -6.88932 0.0
9.18919 -6.47683 0.0
9.07324 -5.53405 0.0
7.89792 -6.08248 0.0
8.07877 -7.79389 0.0
9.28264 -7.51989 0.0
9.19951 -6.5743 0.0
8.00754 -6.9868 0.0
8.12945 -8.6668 0.0
9.34038 -8.53244 0.0
9.28964 -7.61581 0.0
8.08577 -7.88981 0.0
8.13336 -8.7538 0.0
8.15283 -9.40646 0.0
9.36627 -9.3982 0.0
9.34429 -8.61944 0.0
-9.47864 -8.61157 0.0
-10.6884 -8.47693 0.0
-10.7128 -9.38354 0.0
-9.50061 -9.39032 0.0
-9.42347 -7.59315 0.0
-10.1292 -7.43222 0.0
-10.6263 -7.3189 0.0
-10.684 -8.37515 0.0
-9.47421 -8.50978 0.0
-10.0881 -7.33329 0.0
-9.38238 -7.49422 0.0
-9.29925 -6.54863 0.0
-9.82054 -6.36843 0.0
-9.80949 -6.26043 0.0
-9.28819 -6.44063 0.0
-9.17224 -5.49785 0.0
-9.65713 -5.27201 0.0
-10.0176 -6.18774 0.0
-9.64231 -5.16458 0.0
-9.15742 -5.39042 0.0
-9.00905 -4.46081 0.0
-9.46538 -4.19171 0.0
-9.89785 -5.04448 0.0
-9.44686 -4.08591 0.0
-8.99053 -4.35502 0.0
-8.81035 -3.44375 0.0
-9.24063 -3.13446 0.0
-9.73477 -3.91494 0.0
-9.52436 -2.80957 0.0
-9.21838 -3.03073 0.0
-8.7881 -3.34001 0.0
-8.57685 -2.45101 0.0
-8.98767 -2.09997 0.0
-9.27319 -1.73162 0.0
-8.96184 -1.9989 0.0
-8.55102 -2.34993 0.0
-8.30955 -1.48675 0.0
-8.70227 -1.09464 0.0
-8.97904 -0.689673 0.0
-8.67289 -0.996586 0.0
-8.28016 -1.3887 0.0
-8.00941 -0.554759 0.0
-8.3882 -0.1181 0.0
-8.64818 0.315073 0.0
-8.35547 -0.0235699 0.0
-7.97667 -0.46023 0.0
-7.67771 0.341203 0.0
-8.04226 0.822378 0.0
-8.27945 1.27485 0.0
-8.00624 0.913043 0.0
-7.64169 0.431868 0.0
-7.31569 1.19765 0.0
-7.66785 1.72696 0.0
-7.87834 2.18965 0.0
-7.62876 1.81334 0.0
-7.27661 1.28402 0.0
-6.92486 2.01115 0.0
-7.26297 2.5881 0.0
-7.44553 3.05423 0.0
-7.22095 2.66985 0.0
-6.88284 2.09291 0.0
-6.50671 2.77854 0.0
-6.82995 3.40409 0.0
-6.78517 3.4809 0.0
-6.46193 2.85535 0.0
-6.06288 3.49681 0.0
-6.36996 4.17146 0.0
-6.98329 3.86547 0.0
-6.32257 4.24302 0.0
-6.0155 3.56837 0.0
-5.59508 4.16316 0.0
-5.8851 4.88876 0.0
-6.49301 4.61861 0.0
-5.83536 4.95477 0.0
-5.54534 4.22917 0.0
-5.10516 4.77496 0.0
-5.37538 5.54906 0.0
-5.97881 5.31483 0.0
-5.32345 5.60927 0.0
-5.05323 4.83517 0.0
-4.59498 5.32981 0.0
-4.84338 6.15138 0.0
-5.44191 5.94981 0.0
-4.78945 6.20555 0.0
-4.54105 5.38398 0.0
-4.06646 5.82552 0.0
-4.29094 6.69304 0.0
-4.88455 6.52135 0.0
-4.23522 6.74096 0.0
-4.01075 5.87344 0.0
-3.52163 6.2601 0.0
-3.72005 7.17161 0.0
-4.309 7.02746 0.0
-3.66276 7.21309 0.0
-3.46434 6.30157 0.0
-2.96253 6.63176 0.0
-3.13278 7.5849 0.0
-3.71754 7.46632 0.0
-3.07414 7.61976 0.0
-2.90389 6.66661 0.0
-2.39131 6.93891 0.0
-2.53133 7.93095 0.0
-3.11249 7.83636 0.0
-2.47154 7.95904 0.0
-2.33152 6.96699 0.0
-1.81017 7.18018 0.0
-1.91815 8.20984 0.0
-2.49595 8.13439 0.0
-1.85756 8.23026 0.0
-1.74958 7.2006 0.0
-1.22151 7.35365 0.0
-1.29346 8.38915 0.0
-1.87105 8.36211 0.0
-1.23234 8.40212 0.0
-1.16039 7.36663 0.0
-0.627782 7.45879 0.0
-0.663207 8.48003 0.0
-1.23999 8.51714 0.0
-0.600781 8.49223 0.0
-0.565355 7.47099 0.0
-0.0304555 7.50176 0.0
-0.0302861 8.61596 0.0
-0.0306485 8.72485 0.0
-0.604344 8.60569 0.0
0.031104 8.61285 0.0
0.0309346 7.49865 0.0
0.565834 7.46787 0.0
0.601301 8.49033 0.0
0.604879 8.60389 0.0
0.663254 8.48132 0.0
0.627787 7.45886 0.0
1.16039 7.3667 0.0
1.23243 8.40345 0.0
1.24009 8.51861 0.0
1.29356 8.39049 0.0
1.22152 7.35373 0.0
1.74959 7.20067 0.0
1.85739 8.22866 0.0
1.87121 8.3637 0.0
1.91799 8.20816 0.0
1.81018 7.18018 0.0
2.33154 6.96699 0.0
2.4718 7.96073 0.0
2.49621 8.13608 0.0
2.53155 7.93266 0.0
2.3913 6.93891 0.0
2.90387 6.66661 0.0
3.07437 7.62117 0.0
3.11217 7.83465 0.0
3.13302 7.58632 0.0
2.96252 6.63176 0.0
3.46432 6.30158 0.0
3.66297 7.21413 0.0
3.71722 7.46491 0.0
3.72026 7.17266 0.0
3.52162 6.2601 0.0
4.01074 5.87344 0.0
4.23537 6.74156 0.0
4.30872 7.02641 0.0
4.29109 6.69364 0.0
4.06646 5.82552 0.0
4.54104 5.38398 0.0
4.78946 6.20561 0.0
4.88436 6.52076 0.0
4.84339 6.15143 0.0
4.59498 5.32981 0.0
5.05323 4.83517 0.0
5.32324 5.60868 0.0
5.44189 5.94976 0.0
5.37518 5.54846 0.0
5.10517 4.77495 0.0
5.54535 4.22917 0.0
5.83482 4.9534 0.0
5.97906 5.31543 0.0
5.88457 4.88739 0.0
5.5951 4.16315 0.0
6.01552 3.56837 0.0
6.3233 4.24455 0.0
6.49365 4.61998 0.0
6.37064 4.17301 0.0
6.06286 3.49682 0.0
6.46191 2.85536 0.0
6.78542 3.48143 0.0
6.98247 3.86393 0.0
6.83021 3.40462 0.0
6.5067 2.77855 0.0
6.88283 2.09291 0.0
7.22056 2.6692 0.0
7.44521 3.05371 0.0
7.26259 2.58743 0.0
6.92487 2.01115 0.0
7.27662 1.28402 0.0
7.62873 1.81326 0.0
7.87879 2.1903 0.0
7.6678 1.72689 0.0
7.31569 1.19765 0.0
7.64169 0.431867 0.0
8.00651 0.913401 0.0
8.2795 1.27492 0.0
8.04253 0.822742 0.0
7.6777 0.341208 0.0
7.97667 -0.460224 0.0
8.35437 -0.0248207 0.0
8.64787 0.314726 0.0
8.38714 -0.119378 0.0
8.00944 -0.554781 0.0
8.28019 -1.38872 0.0
8.67363 -0.995891 0.0
8.98029 -0.688475 0.0
8.70297 -1.0939 0.0
8.30953 -1.48674 0.0
8.55101 -2.34992 0.0
8.96061 -1.99992 0.0
9.27237 -1.73229 0.0
8.98648 -2.10104 0.0
8.57688 -2.45104 0.0
8.78812 -3.34004 0.0
9.21925 -3.03015 0.0
9.52573 -2.80863 0.0
9.24146 -3.13383 0.0
8.81034 -3.44372 0.0
8.99051 -4.35499 0.0
9.44524 -4.08684 0.0
9.73383 -3.91546 0.0
9.4638 -4.1927 0.0
9.00907 -4.46086 0.0
9.15744 -5.39047 0.0
9.6433 -5.16418 0.0
9.89961 -5.04372 0.0
9.65809 -5.27153 0.0
9.17223 -5.49782 0.0
9.28818 -6.4406 0.0
9.80775 -6.26099 0.0
10.0166 -6.18806 0.0
9.81884 -6.36907 0.0
9.29926 -6.54868 0.0
9.3824 -7.49427 0.0
10.09 -7.33293 0.0
9.47422 -8.50978 0.0
10.684 -8.37515 0.0
10.6263 -7.3189 0.0
10.1311 -7.4318 0.0
9.42347 -7.59315 0.0
9.47864 -8.61157 0.0
9.50061 -9.39032 0.0
10.7128 -9.38354 0.0
10.6884 -8.47693 0.0
-10.8223 -8.46914 0.0
-11.4892 -8.39468 0.0
-12.0248 -8.33498 0.0
-12.051 -9.37031 0.0
-10.8467 -9.37574 0.0
-11.4509 -8.28574 0.0
-10.784 -8.36019 0.0
-10.7263 -7.30394 0.0
-11.2861 -7.18178 0.0
-11.2777 -7.06036 0.0
-10.7179 -7.18251 0.0
-10.6229 -6.09883 0.0
-11.1439 -5.92572 0.0
-11.415 -7.01765 0.0
-11.1312 -5.80257 0.0
-10.6102 -5.97569 0.0
-10.4776 -4.8973 0.0
-10.9662 -4.6769 0.0
-11.3263 -5.72055 0.0
-10.9493 -4.55475 0.0
-10.4607 -4.77515 0.0
-10.291 -3.71245 0.0
-10.7484 -3.44988 0.0
-11.1902 -4.42739 0.0
-11.0037 -3.15146 0.0
-10.7273 -3.32957 0.0
-10.2699 -3.59213 0.0
-10.0639 -2.55058 0.0
-10.4944 -2.24819 0.0
-10.7651 -1.90248 0.0
-10.4691 -2.13024 0.0
-10.0386 -2.43264 0.0
-9.797 -1.41659 0.0
-10.207 -1.07323 0.0
-10.4813 -0.683985 0.0
-10.1776 -0.95833 0.0
-9.76762 -1.30169 0.0
-9.49152 -0.315195 0.0
-9.88195 0.0677887 0.0
-10.1497 0.494583 0.0
-9.84854 0.179271 0.0
-9.4581 -0.203713 0.0
-9.14854 0.749341 0.0
-9.52387 1.17525 0.0
-9.77675 1.63167 0.0
-9.48665 1.28273 0.0
-9.11132 0.856819 0.0
-8.76951 1.7727 0.0
-9.12942 2.24109 0.0
-9.36276 2.72058 0.0
-9.0885 2.34416 0.0
-8.7286 1.87577 0.0
-8.35589 2.75087 0.0
-8.70124 3.26342 0.0
-8.90866 3.75476 0.0
-8.65676 3.36167 0.0
-8.31141 2.84913 0.0
-7.90928 3.68004 0.0
-8.24151 4.24044 0.0
-8.42023 4.73453 0.0
-8.19373 4.33342 0.0
-7.8615 3.77302 0.0
-7.43151 4.55648 0.0
-7.74862 5.16374 0.0
-7.89829 5.65412 0.0
-7.6977 5.2511 0.0
-7.38058 4.64383 0.0
-6.92441 5.37679 0.0
-7.22539 6.03168 0.0
-7.34432 6.50802 0.0
-7.17149 6.11307 0.0
-6.87052 5.45818 0.0
-6.38993 6.13776 0.0
-6.67426 6.84278 0.0
-6.7631 7.29756 0.0
-6.61768 6.91786 0.0
-6.33335 6.21283 0.0
-5.8302 6.83638 0.0
-6.09517 7.58911 0.0
-6.15599 8.01777 0.0
-6.03609 7.65759 0.0
-5.77112 6.90486 0.0
-5.24734 7.46991 0.0
-5.49107 8.26965 0.0
-5.42972 8.33126 0.0
-5.18599 7.53152 0.0
-4.64358 8.03586 0.0
-4.86406 8.88141 0.0
-5.52555 8.66611 0.0
-4.80068 8.9359 0.0
-4.58021 8.09035 0.0
-4.02123 8.53194 0.0
-4.21638 9.42165 0.0
-4.87438 9.24029 0.0
-4.15122 9.4688 0.0
-3.95606 8.5791 0.0
-3.38264 8.95614 0.0
-3.55042 9.88791 0.0
-4.20511 9.73826 0.0
-3.48372 9.92753 0.0
-3.31595 8.99576 0.0
-2.73028 9.30664 0.0
-2.86863 10.278 0.0
-3.52041 10.1582 0.0
-2.80066 10.3099 0.0
-2.66231 9.33855 0.0
-2.06668 9.58191 0.0
-2.17362 10.59 0.0
-2.82301 10.4987 0.0
-2.10471 10.6136 0.0
-1.99776 9.60552 0.0
-1.39452 9.78021 0.0
-1.46705 10.8058 0.0
-2.11579 10.7579 0.0
-1.39757 10.8206 0.0
-1.32504 9.79504 0.0
-0.716665 9.90022 0.0
-0.753146 10.9101 0.0
-1.40166 10.9345 0.0
-0.683315 10.9169 0.0
-0.646834 9.90705 0.0
-0.0358668 9.94218 0.0
-0.0377974 10.9325 0.0
-0.683336 11.0287 0.0
0.0331785 10.9355 0.0
0.035109 9.94523 0.0
0.646121 9.9101 0.0
0.682549 10.9183 0.0
0.682618 11.0301 0.0
0.0370203 11.0451 0.0
0.753086 10.9083 0.0
0.716658 9.90012 0.0
1.32503 9.79493 0.0
1.39744 10.8188 0.0
1.40152 10.9324 0.0
1.46692 10.8039 0.0
1.39451 9.78011 0.0
1.99775 9.60542 0.0
2.10486 10.6151 0.0
2.1156 10.756 0.0
2.17377 10.5915 0.0
2.06666 9.58191 0.0
2.66229 9.33856 0.0
2.80083 10.3112 0.0
2.82277 10.4971 0.0
2.86881 10.2793 0.0
2.73027 9.30664 0.0
3.31593 8.99576 0.0
3.48388 9.92849 0.0
3.52016 10.1569 0.0
3.55058 9.88887 0.0
3.38263 8.95614 0.0
3.95605 8.5791 0.0
4.15133 9.46933 0.0
4.20488 9.7373 0.0
4.21649 9.42218 0.0
4.02122 8.53195 0.0
4.5802 8.09035 0.0
4.80067 8.9359 0.0
4.87424 9.23976 0.0
4.86406 8.8814 0.0
4.64358 8.03586 0.0
5.18599 7.53152 0.0
5.42952 8.33062 0.0
5.52555 8.66611 0.0
5.49088 8.26901 0.0
5.24735 7.46991 0.0
5.77113 6.90485 0.0
6.03561 7.65619 0.0
6.15623 8.01841 0.0
6.0947 7.58771 0.0
5.83022 6.83637 0.0
6.33337 6.21283 0.0
6.61768 6.9178 0.0
6.76369 7.29895 0.0
6.67424 6.84272 0.0
6.38993 6.13776 0.0
6.87052 5.45818 0.0
7.17204 6.11424 0.0
7.34435 6.50807 0.0
7.22591 6.03286 0.0
6.92439 5.3768 0.0
7.38057 4.64384 0.0
7.6977 5.25115 0.0
7.89766 5.65296 0.0
7.74864 5.16378 0.0
7.43151 4.55648 0.0
7.8615 3.77302 0.0
8.19299 4.33219 0.0
8.42021 4.73449 0.0
8.24079 4.2392 0.0
7.9093 3.68002 0.0
8.31144 2.84911 0.0
8.65797 3.3634 0.0
8.90952 3.75597 0.0
8.70239 3.26518 0.0
8.35586 2.7509 0.0
8.72856 1.87579 0.0
9.08861 2.34437 0.0
9.3614 2.71889 0.0
9.12956 2.24128 0.0
8.76951 1.7727 0.0
9.11132 0.856824 0.0
9.48538 1.28129 0.0
9.77659 1.6315 0.0
9.52263 1.17378 0.0
9.14857 0.749311 0.0
9.45814 -0.203746 0.0
9.84957 0.180216 0.0
10.1511 0.495936 0.0
9.88292 0.0687918 0.0
9.49149 -0.31517 0.0
9.7676 -1.30166 0.0
10.1767 -0.95902 0.0
10.4802 -0.684881 0.0
10.2062 -1.07397 0.0
9.79702 -1.41662 0.0
10.0386 -2.43266 0.0
10.4709 -2.12895 0.0
10.766 -1.90185 0.0
10.4962 -2.24681 0.0
10.0638 -2.55052 0.0
10.2699 -3.59208 0.0
10.727 -3.32966 0.0
11.0016 -3.15257 0.0
10.7481 -3.45004 0.0
10.291 -3.71245 0.0
10.4607 -4.77516 0.0
10.9496 -4.55463 0.0
11.1905 -4.42727 0.0
10.9665 -4.67676 0.0
10.4776 -4.89729 0.0
10.6102 -5.97568 0.0
11.1322 -5.80221 0.0
11.326 -5.72064 0.0
11.1449 -5.92533 0.0
10.6228 -6.0988 0.0
10.7179 -7.18247 0.0
11.2763 -7.06066 0.0
11.414 -7.01785 0.0
11.2847 -7.18217 0.0
10.7263 -7.30399 0.0
10.784 -8.36024 0.0
11.4525 -8.28562 0.0
10.8223 -8.46914 0.0
10.8467 -9.37574 0.0
12.051 -9.37031 0.0
12.0248 -8.33498 0.0
11.4908 -8.39452 0.0
-12.7557 -9.37271 0.0
-12.1495 -9.36549 0.0
-12.1234 -8.33016 0.0
-12.6967 -8.26781 0.0
-12.6918 -8.14181 0.0
-12.1185 -8.20416 0.0
-12.0539 -7.00911 0.0
-12.5927 -6.8994 0.0
-12.7627 -8.1276 0.0
-12.5833 -6.76299 0.0
-12.0444 -6.87269 0.0
-11.9373 -5.65204 0.0
-12.4413 -5.49249 0.0
-12.7138 -6.70716 0.0
-12.427 -5.35469 0.0
-11.923 -5.51425 0.0
-11.7734 -4.30138 0.0
-12.241 -4.09827 0.0
-12.6134 -5.26089 0.0
-12.4575 -3.82253 0.0
-12.222 -3.96166 0.0
-11.7544 -4.16478 0.0
-11.5631 -2.97018 0.0
-11.9974 -2.72836 0.0
-12.2435 -2.40594 0.0
-11.9736 -2.59379 0.0
-11.5393 -2.83561 0.0
-11.307 -1.66508 0.0
-11.7146 -1.38598 0.0
-11.9785 -1.0165 0.0
-11.6861 -1.25431 0.0
-11.2786 -1.5334 0.0
-11.0065 -0.391728 0.0
-11.3881 -0.0788619 0.0
-11.6609 0.337293 0.0
-11.3551 0.0494673 0.0
-10.9735 -0.263399 0.0
-10.6625 0.844902 0.0
-11.0219 1.19109 0.0
-11.2905 1.64668 0.0
-10.9844 1.31558 0.0
-10.625 0.969395 0.0
-10.2764 2.03997 0.0
-10.6186 2.42237 0.0
-10.8745 2.90982 0.0
-10.5769 2.54236 0.0
-10.2347 2.15996 0.0
-9.84993 3.18864 0.0
-10.1751 3.60624 0.0
-10.413 4.11931 0.0
-10.1292 3.72129 0.0
-9.80408 3.3037 0.0
-9.38468 4.28647 0.0
-9.6943 4.74084 0.0
-9.90698 5.26783 0.0
-9.64446 4.85051 0.0
-9.33484 4.39614 0.0
-8.88244 5.32917 0.0
-9.17889 5.82443 0.0
-9.36289 6.35567 0.0
-9.12538 5.92819 0.0
-8.82893 5.43293 0.0
-8.3453 6.31259 0.0
-8.62713 6.84784 0.0
-8.78164 7.37646 0.0
-8.57012 6.94532 0.0
-8.28829 6.41007 0.0
-7.77532 7.23294 0.0
-8.04218 7.80943 0.0
-8.16605 8.32652 0.0
-7.98189 7.90023 0.0
-7.71504 7.32374 0.0
-7.17472 8.08661 0.0
-7.42577 8.70527 0.0
-7.51793 9.20006 0.0
-7.36242 8.78904 0.0
-7.11136 8.17038 0.0
-6.54577 8.87028 0.0
-6.78072 9.53406 0.0
-6.84236 9.99891 0.0
-6.71463 9.61045 0.0
-6.47968 8.94666 0.0
-5.89099 9.58085 0.0
-6.10736 10.2873 0.0
-6.14102 10.7179 0.0
-6.03875 10.356 0.0
-5.82238 9.64956 0.0
-5.21283 10.2155 0.0
-5.40895 10.9643 0.0
-5.4168 11.3545 0.0
-5.33809 11.0251 0.0
-5.14197 10.2763 0.0
-4.51389 10.7718 0.0
-4.68796 11.562 0.0
-4.67263 11.9065 0.0
-4.61512 11.6146 0.0
-4.44104 10.8244 0.0
-3.79683 11.2474 0.0
-3.94698 12.0777 0.0
-3.91147 12.372 0.0
-3.87243 12.1219 0.0
-3.72228 11.2916 0.0
-3.06439 11.6403 0.0
-3.18871 12.5091 0.0
-3.13635 12.7494 0.0
-3.11275 12.5447 0.0
-2.98843 11.6759 0.0
-2.31943 11.9488 0.0
-2.41599 12.854 0.0
-2.35036 13.0373 0.0
-2.33891 12.8808 0.0
-2.24235 11.9756 0.0
-1.56488 12.1715 0.0
-1.63174 13.1107 0.0
-1.55668 13.2347 0.0
-1.55387 13.1286 0.0
-1.48701 12.1895 0.0
-0.803823 12.3074 0.0
-0.839269 13.2778 0.0
-0.760267 13.3887 0.0
-0.761234 13.2881 0.0
-0.725788 12.3177 0.0
-0.0397242 12.3571 0.0
-0.0419233 13.3558 0.0
0.0412482 13.4566 0.0
0.0368117 13.3586 0.0
0.0390108 12.36 0.0
0.725088 12.3206 0.0
0.760605 13.2931 0.0
0.759607 13.3937 0.0
0.839318 13.2799 0.0
0.803801 12.3074 0.0
1.48698 12.1895 0.0
1.55397 13.1305 0.0
1.55657 13.2333 0.0
1.63184 13.1126 0.0
1.56486 12.1715 0.0
2.24233 11.9756 0.0
2.33906 12.8825 0.0
2.35014 13.0354 0.0
2.41614 12.8557 0.0
2.3194 11.9488 0.0
2.98841 11.6759 0.0
3.11292 12.546 0.0
3.13609 12.7477 0.0
3.18888 12.5104 0.0
3.06437 11.6403 0.0
3.72226 11.2916 0.0
3.87258 12.1228 0.0
3.91121 12.3707 0.0
3.94713 12.0787 0.0
3.79681 11.2474 0.0
4.44103 10.8244 0.0
4.6152 11.615 0.0
4.6724 11.9055 0.0
4.68805 11.5624 0.0
4.51389 10.7718 0.0
5.14196 10.2763 0.0
5.33803 11.0249 0.0
5.41668 11.354 0.0
5.40891 10.9641 0.0
5.21284 10.2155 0.0
5.82238 9.64956 0.0
6.03847 10.3551 0.0
6.14108 10.718 0.0
6.10709 10.2864 0.0
5.89101 9.58085 0.0
6.4797 8.94666 0.0
6.71402 9.60869 0.0
6.8427 9.9998 0.0
6.78012 9.53229 0.0
6.5458 8.87027 0.0
7.11139 8.17037 0.0
7.36336 8.79124 0.0
7.51868 9.20179 0.0
7.42665 8.70749 0.0
7.17468 8.08662 0.0
7.715 7.32375 0.0
7.98237 7.90135 0.0
8.16499 8.32434 0.0
8.04267 7.81054 0.0
7.7753 7.23294 0.0
8.28827 6.41008 0.0
8.57001 6.94516 0.0
8.78104 7.37539 0.0
8.62705 6.84767 0.0
8.34531 6.31259 0.0
8.82894 5.43293 0.0
9.12444 5.92663 0.0
9.36299 6.35583 0.0
9.17798 5.82284 0.0
8.88247 5.32915 0.0
9.33487 4.39611 0.0
9.64572 4.85228 0.0
9.90807 5.26934 0.0
9.69549 4.74266 0.0
9.38463 4.28649 0.0
9.80404 3.30373 0.0
10.1293 3.72145 0.0
10.4116 4.11759 0.0
10.1752 3.60637 0.0
9.84993 3.18865 0.0
10.2347 2.15997 0.0
10.5755 2.54078 0.0
10.8744 2.90971 0.0
10.6173 2.42074 0.0
10.2765 2.03993 0.0
10.625 0.969348 0.0
10.9857 1.31674 0.0
11.2921 1.64814 0.0
11.0231 1.19233 0.0
10.6624 0.844938 0.0
10.9734 -0.263357 0.0
11.3545 0.0490036 0.0
11.6595 0.336209 0.0
11.3875 -0.0793859 0.0
11.0065 -0.391747 0.0
11.2786 -1.53343 0.0
11.6861 -1.25438 0.0
11.9792 -1.01606 0.0
11.7145 -1.38604 0.0
11.307 -1.66508 0.0
11.5393 -2.83562 0.0
11.9742 -2.59341 0.0
12.2436 -2.4059 0.0
11.998 -2.72794 0.0
11.5631 -2.97015 0.0
11.7544 -4.16475 0.0
12.2205 -3.96229 0.0
12.4568 -3.82282 0.0
12.2396 -4.09898 0.0
11.7735 -4.30144 0.0
11.923 -5.5143 0.0
12.4267 -5.35487 0.0
12.6149 -5.26044 0.0
12.4409 -5.49262 0.0
11.9373 -5.65206 0.0
12.0444 -6.8727 0.0
12.584 -6.76284 0.0
12.7142 -6.7071 0.0
12.5934 -6.89921 0.0
12.0539 -7.00908 0.0
12.1185 -8.20413 0.0
12.6898 -8.14201 0.0
12.762 -8.12764 0.0
12.6947 -8.26811 0.0
12.1234 -8.33023 0.0
12.1495 -9.36556 0.0
12.7577 -9.37278 0.0
-13.1121 -5.08735 0.0
-12.6734 -5.22537 0.0
-12.301 -4.06275 0.0
-12.5365 -3.92362 0.0
-12.9428 -3.74794 0.0
12.5358 -3.92387 0.0
12.2996 -4.06334 0.0
12.6749 -5.22479 0.0
13.1121 -5.08729 0.0
12.9428 -3.74788 0.0
-13.2498 -6.58507 0.0
-12.7758 -6.68099 0.0
-12.5032 -5.46632 0.0
-12.6896 -5.37252 0.0
-13.1283 -5.23451 0.0
12.6911 -5.372 0.0
12.5029 -5.46644 0.0
12.7761 -6.68091 0.0
13.2498 -6.58506 0.0
13.1283 -5.2345 0.0
-12.9215 -3.60286 0.0
-12.5152 -3.77854 0.0
-12.0551 -2.68436 0.0
-12.325 -2.49651 0.0
-12.7055 -2.28527 0.0
12.3251 -2.4965 0.0
12.0558 -2.684 0.0
12.5145 -3.77888 0.0
12.9215 -3.60288 0.0
12.7055 -2.2853 0.0
-12.6792 -2.14327 0.0
-12.2988 -2.35451 0.0
-11.7698 -1.33455 0.0
-12.0622 -1.09673 0.0
-12.4178 -0.853673 0.0
12.0629 -1.09627 0.0
11.7698 -1.3346 0.0
12.2988 -2.35446 0.0
12.6792 -2.14326 0.0
12.4178 -0.853669 0.0
-12.3867 -0.715115 0.0
-12.031 -0.958176 0.0
-11.4407 -0.0205397 0.0
-11.7465 0.267286 0.0
-12.0812 0.5413 0.0
11.7451 0.266185 0.0
11.4401 -0.0210202 0.0
12.0317 -0.95769 0.0
12.3867 -0.71509 0.0
12.0812 0.541318 0.0
-12.0454 0.675787 0.0
-11.7107 0.401773 0.0
-11.0716 1.25557 0.0
-11.3778 1.58667 0.0
-11.6973 1.89418 0.0
11.3793 1.58812 0.0
11.0729 1.25673 0.0
11.7094 0.400606 0.0
12.0454 0.675738 0.0
11.6974 1.89414 0.0
-11.6571 2.02405 0.0
-11.3376 1.71654 0.0
-10.6657 2.49223 0.0
-10.9633 2.85969 0.0
-11.268 3.19983 0.0
10.9631 2.85963 0.0
10.6643 2.49069 0.0
11.3391 1.71809 0.0
11.6571 2.0241 0.0
11.268 3.19988 0.0
-13.3341 -8.0597 0.0
-12.8261 -8.1118 0.0
-12.656 -6.8836 0.0
-12.7866 -6.82777 0.0
-13.2606 -6.73185 0.0
12.7869 -6.82773 0.0
12.6567 -6.88347 0.0
12.8253 -8.1119 0.0
13.3341 -8.05973 0.0
13.2606 -6.73188 0.0
-11.2235 3.32479 0.0
-10.9187 2.98465 0.0
-10.2193 3.68107 0.0
-10.5031 4.07908 0.0
-10.795 4.45354 0.0
10.5017 4.07733 0.0
10.2194 3.68119 0.0
10.9186 2.98454 0.0
11.2235 3.32479 0.0
10.795 4.45353 0.0
-10.7463 4.57308 0.0
-10.4544 4.19861 0.0
-9.73575 4.82014 0.0
-9.99828 5.23746 0.0
-10.2802 5.65058 0.0
9.99937 5.23896 0.0
9.73702 4.8219 0.0
10.4531 4.19683 0.0
10.7464 4.57303 0.0
10.2803 5.65055 0.0
-10.2277 5.76424 0.0
-9.94577 5.35112 0.0
-9.21768 5.90772 0.0
-9.45519 6.33519 0.0
-9.72594 6.7865 0.0
9.45526 6.33538 0.0
9.21671 5.90618 0.0
9.9468 5.35268 0.0
10.2277 5.76427 0.0
9.72591 6.78652 0.0
-9.66967 6.89396 0.0
-9.39892 6.44266 0.0
-8.66316 6.93483 0.0
-8.87468 7.36597 0.0
-9.13411 7.85716 0.0
8.8741 7.36489 0.0
8.66307 6.93467 0.0
9.39902 6.44283 0.0
9.66967 6.89397 0.0
9.1341 7.85716 0.0
-9.07433 7.95801 0.0
-8.81491 7.46682 0.0
-8.07544 7.89979 0.0
-8.25961 8.32608 0.0
-8.50709 8.85854 0.0
8.2586 8.32387 0.0
8.07598 7.90087 0.0
8.81435 7.46572 0.0
9.07435 7.95799 0.0
8.50711 8.85852 0.0
-8.44403 8.9524 0.0
-8.19655 8.41994 0.0
-7.45626 8.79868 0.0
-7.61178 9.2097 0.0
-7.84727 9.78687 0.0
7.61254 9.21142 0.0
7.45722 8.80087 0.0
8.19556 8.41772 0.0
8.44407 8.95237 0.0
7.84732 9.78686 0.0
-7.7812 9.87339 0.0
-7.54571 9.29621 0.0
-6.8085 9.63021 0.0
-6.93623 10.0187 0.0
-7.1572 10.6387 0.0
6.93652 10.0196 0.0
6.80784 9.62847 0.0
7.5464 9.29797 0.0
7.78118 9.87341 0.0
7.15718 10.6387 0.0
-7.08828 10.7176 0.0
-6.86731 10.0976 0.0
-6.13231 10.386 0.0
-6.23458 10.7478 0.0
-6.43938 11.4108 0.0
6.23462 10.748 0.0
6.13201 10.3851 0.0
6.86762 10.0985 0.0
7.08827 10.7176 0.0
6.43937 11.4108 0.0
-6.36791 11.4817 0.0
-6.1631 10.8187 0.0
-5.43104 11.0652 0.0
-5.50975 11.3946 0.0
-5.69654 12.1001 0.0
5.50963 11.3941 0.0
5.43099 11.065 0.0
6.16316 10.8189 0.0
6.36791 11.4817 0.0
5.69653 12.1001 0.0
-5.62277 12.1629 0.0
-5.43598 11.4573 0.0
-4.70715 11.6648 0.0
-4.76466 11.9567 0.0
-4.93144 12.7041 0.0
4.76446 11.9558 0.0
4.70725 11.6652 0.0
5.43588 11.4568 0.0
5.62278 12.1629 0.0
4.93145 12.7041 0.0
-4.85566 12.7584 0.0
-4.68888 12.011 0.0
-3.96323 12.1822 0.0
-4.00227 12.4323 0.0
-4.14695 13.2204 0.0
4.00205 12.431 0.0
3.96342 12.1832 0.0
4.68869 12.01 0.0
4.85568 12.7584 0.0
4.14697 13.2203 0.0
-4.06945 13.2659 0.0
-3.92477 12.4779 0.0
-3.202 12.615 0.0
-3.22561 12.8197 0.0
-3.34603 13.6467 0.0
3.22539 12.818 0.0
3.20222 12.6163 0.0
3.92454 12.4765 0.0
4.06947 13.2659 0.0
3.34605 13.6467 0.0
-3.26709 13.6834 0.0
-3.14666 12.8564 0.0
-2.4263 12.961 0.0
-2.43774 13.1174 0.0
-2.53172 13.9813 0.0
2.43757 13.1155 0.0
2.42649 12.9626 0.0
3.14645 12.8547 0.0
3.26711 13.6834 0.0
2.53174 13.9813 0.0
-2.45164 14.009 0.0
-2.35767 13.1451 0.0
-1.63905 13.2185 0.0
-1.64187 13.3245 0.0
-1.70718 14.2228 0.0
1.64181 13.3231 0.0
1.6392 13.2204 0.0
2.3575 13.1432 0.0
2.45167 14.009 0.0
1.70721 14.2228 0.0
-1.62629 14.2413 0.0
-1.56098 13.343 0.0
-0.843561 13.3861 0.0
-0.842593 13.4868 0.0
-0.875702 14.3701 0.0
0.842661 13.4889 0.0
0.843659 13.3883 0.0
1.56091 13.3416 0.0
1.62632 14.2413 0.0
0.875732 14.3702 0.0
-0.793995 14.3807 0.0
-0.760886 13.4973 0.0
-0.0425423 13.4644 0.0
-0.0381058 13.5623 0.0
-0.0403094 14.4237 0.0
0.0412237 14.4265 0.0
0.0434273 13.565 0.0
0.761787 13.5022 0.0
0.794858 14.3834 0.0
-11.6886 -4.1872 0.0
-11.2516 -4.38384 0.0
-10.8098 -3.40633 0.0
-11.0862 -3.22822 0.0
-11.4973 -2.9926 0.0
11.0841 -3.22938 0.0
10.8095 -3.40647 0.0
11.2519 -4.3837 0.0
11.6886 -4.18719 0.0
11.4973 -2.99259 0.0
-11.474 -2.86436 0.0
-11.0629 -3.09997 0.0
-10.5536 -2.1967 0.0
-10.8496 -1.96894 0.0
-11.2418 -1.69382 0.0
10.8506 -1.96834 0.0
10.5555 -2.19544 0.0
11.0609 -3.10121 0.0
11.474 -2.86442 0.0
11.2418 -1.69388 0.0
-11.8571 -5.53087 0.0
-11.3897 -5.68565 0.0
-11.0296 -4.64201 0.0
-11.2705 -4.51465 0.0
-11.7075 -4.31801 0.0
11.2708 -4.51453 0.0
11.0299 -4.64189 0.0
11.3894 -5.68577 0.0
11.8571 -5.53088 0.0
11.7075 -4.31802 0.0
-11.2142 -1.56874 0.0
-10.822 -1.84386 0.0
-10.2639 -1.01461 0.0
-10.5677 -0.740266 0.0
-10.942 -0.427063 0.0
10.5665 -0.741163 0.0
10.263 -1.0153 0.0
10.8229 -1.84318 0.0
11.2141 -1.56871 0.0
10.942 -0.427035 0.0
-10.9102 -0.305464 0.0
-10.5358 -0.618666 0.0
-9.93643 0.133107 0.0
-10.2376 0.448419 0.0
-10.5992 0.802838 0.0
10.239 0.449775 0.0
9.93745 0.134055 0.0
10.5347 -0.619618 0.0
10.9102 -0.30549 0.0
10.5992 0.802805 0.0
-10.5633 0.920396 0.0
-10.2017 0.565977 0.0
-9.57593 1.24664 0.0
-9.86603 1.59559 0.0
-10.2148 1.99097 0.0
9.86584 1.59544 0.0
9.57462 1.24524 0.0
10.2031 0.567396 0.0
10.5633 0.920425 0.0
10.2147 1.99101 0.0
-10.175 2.10418 0.0
-9.82624 1.70879 0.0
-9.1789 2.31821 0.0
-9.45315 2.69463 0.0
-9.79021 3.13286 0.0
9.45183 2.69292 0.0
9.17905 2.3184 0.0
9.82608 1.70861 0.0
10.175 2.10418 0.0
9.79022 3.13286 0.0
0.0369684 12.2407 0.0
0.0388623 11.1657 0.0
0.68446 11.1507 0.0
0.723046 12.2014 0.0
-0.722314 12.1983 0.0
-0.683736 11.1494 0.0
-0.0381978 11.0531 0.0
-0.034356 11.1627 0.0
-0.0362498 12.2377 0.0
-9.74666 3.24125 0.0
-9.4096 2.80302 0.0
-8.74809 3.34586 0.0
-8.99999 3.73895 0.0
-9.32726 4.22402 0.0
9.00086 3.74014 0.0
8.74931 3.34757 0.0
9.40831 2.80128 0.0
9.7467 3.24122 0.0
9.32729 4.22399 0.0
-1.47947 12.0732 0.0
-1.40619 11.0548 0.0
-0.757684 11.0304 0.0
-0.757705 11.1422 0.0
-0.796282 12.1912 0.0
0.757698 11.1405 0.0
0.757628 11.0287 0.0
1.40606 11.0528 0.0
1.47947 12.0731 0.0
0.796283 12.1911 0.0
-2.23053 11.8617 0.0
-2.12444 10.8775 0.0
-1.4757 10.9253 0.0
-1.47979 11.0392 0.0
-1.55306 12.0576 0.0
1.47965 11.0372 0.0
1.47558 10.9235 0.0
2.12426 10.8756 0.0
2.23053 11.8616 0.0
1.55306 12.0575 0.0
-9.28016 4.32717 0.0
-8.95289 3.8421 0.0
-8.28573 4.32779 0.0
-8.51224 4.72889 0.0
-8.82775 5.2602 0.0
8.51219 4.72887 0.0
8.28497 4.32657 0.0
8.9537 3.84334 0.0
9.28013 4.32719 0.0
8.82773 5.26022 0.0
-2.97221 11.564 0.0
-2.83542 10.6171 0.0
-2.18603 10.7084 0.0
-2.19711 10.8527 0.0
-2.3032 11.8369 0.0
2.19695 10.8509 0.0
2.18621 10.7099 0.0
2.83521 10.6155 0.0
2.97223 11.564 0.0
2.30322 11.8369 0.0
-8.77719 5.3578 0.0
-8.46167 4.82649 0.0
-7.79005 5.25571 0.0
-7.99065 5.65873 0.0
-8.29356 6.23746 0.0
7.99004 5.65756 0.0
7.79007 5.25574 0.0
8.46165 4.82646 0.0
8.77719 5.3578 0.0
8.29356 6.23746 0.0
-3.7016 11.1818 0.0
-3.53635 10.2751 0.0
-2.88457 10.3949 0.0
-2.90692 10.5837 0.0
-3.04371 11.5306 0.0
2.90671 10.5821 0.0
2.88477 10.3962 0.0
3.53612 10.2738 0.0
3.70161 11.1818 0.0
3.04372 11.5306 0.0
-8.23976 6.3291 0.0
-7.93685 5.75038 0.0
-7.26394 6.12793 0.0
-7.43677 6.52288 0.0
-7.72679 7.15197 0.0
7.43681 6.52292 0.0
7.26451 6.12909 0.0
7.93626 5.7492 0.0
8.23978 6.32909 0.0
7.72681 7.15195 0.0
-4.41599 10.7173 0.0
-4.22453 9.85325 0.0
-3.56983 10.0029 0.0
-3.60652 10.2336 0.0
-3.77177 11.1403 0.0
3.6063 10.2323 0.0
3.57002 10.0038 0.0
4.22433 9.85228 0.0
4.416 10.7173 0.0
3.77178 11.1403 0.0
-7.66999 7.23729 0.0
-7.37997 6.6082 0.0
-6.70992 6.94296 0.0
-6.85534 7.32267 0.0
-7.12967 8.00016 0.0
6.85591 7.32406 0.0
6.7099 6.94291 0.0
7.38 6.60825 0.0
7.66999 7.23729 0.0
7.12967 8.00016 0.0
-5.11264 10.1724 0.0
-4.89721 9.35301 0.0
-4.23922 9.53437 0.0
-4.2931 9.80383 0.0
-4.48456 10.6679 0.0
4.2929 9.80287 0.0
4.23934 9.5349 0.0
4.89708 9.35248 0.0
5.11265 10.1724 0.0
4.48457 10.6679 0.0
-7.07002 8.07888 0.0
-6.79569 7.40139 0.0
-6.12776 7.69293 0.0
-6.24766 8.05312 0.0
-6.50443 8.77878 0.0
6.24787 8.05377 0.0
6.12724 7.69155 0.0
6.79624 7.40279 0.0
7.07 8.07889 0.0
6.50441 8.77879 0.0
-5.7889 9.54933 0.0
-5.55172 8.77621 0.0
-4.89023 8.99151 0.0
-4.96393 9.2959 0.0
-5.17935 10.1153 0.0
4.96379 9.29537 0.0
4.89023 8.99151 0.0
5.55173 8.77622 0.0
5.7889 9.54933 0.0
5.17936 10.1153 0.0
5.61632 8.71165 0.0
5.52029 8.37615 0.0
6.18564 8.12556 0.0
6.44218 8.85057 0.0
5.85349 9.48476 0.0
-6.44219 8.85057 0.0
-6.18542 8.12491 0.0
-5.52049 8.37678 0.0
-5.61632 8.71163 0.0
-5.8535 9.48475 0.0
-11.9785 -6.88391 0.0
-11.48 -6.99201 0.0
-11.2089 -5.90008 0.0
-11.404 -5.81805 0.0
-11.8713 -5.66327 0.0
11.4037 -5.8182 0.0
11.2099 -5.89976 0.0
11.479 -6.99228 0.0
11.9785 -6.88395 0.0
11.8713 -5.6633 0.0
-12.0527 -8.21085 0.0
-11.5171 -8.27055 0.0
-11.3523 -7.1666 0.0
-11.4896 -7.12389 0.0
-11.9881 -7.01579 0.0
11.4885 -7.12407 0.0
11.3508 -7.16688 0.0
11.5186 -8.27033 0.0
12.0527 -8.2108 0.0
11.9881 -7.01574 0.0
-12.8197 -9.36777 0.0
-12.7606 -8.26287 0.0
-12.8315 -8.24866 0.0
-13.3396 -8.19657 0.0
-13.3686 -9.35721 0.0
12.8308 -8.24867 0.0
12.7586 -8.26303 0.0
12.8216 -9.3677 0.0
13.3686 -9.35714 0.0
13.3396 -8.1965 0.0
0.0326018 8.84391 0.0
0.0329642 8.73502 0.0
0.60674 8.72606 0.0
0.643783 9.78867 0.0
0.0327706 9.8238 0.0
-0.644396 9.79153 0.0
-0.607293 8.72761 0.0
-0.0335976 8.84677 0.0
-0.0334288 9.82666 0.0
0.671827 8.71671 0.0
0.668248 8.60315 0.0
1.24508 8.64044 0.0
1.31725 9.67413 0.0
0.70887 9.77932 0.0
-1.31724 9.67406 0.0
-1.24498 8.63898 0.0
-0.668203 8.60187 0.0
-0.671767 8.71533 0.0
-0.708869 9.77924 0.0
-1.98577 9.48554 0.0
-1.88021 8.48309 0.0
-1.30263 8.51013 0.0
-1.31028 8.62515 0.0
-1.38254 9.66023 0.0
1.31038 8.62662 0.0
1.30272 8.51146 0.0
1.88037 8.48468 0.0
1.98578 9.48561 0.0
1.38254 9.6603 0.0
-2.64598 9.22048 0.0
-2.50909 8.25408 0.0
-1.93129 8.32953 0.0
-1.94478 8.46138 0.0
-2.05034 9.46383 0.0
1.94492 8.4629 0.0
1.9311 8.32785 0.0
2.50932 8.25577 0.0
2.64596 9.22048 0.0
2.05033 9.46383 0.0
-3.29507 8.87987 0.0
-3.12927 7.95441 0.0
-2.54811 8.049 0.0
-2.57252 8.22436 0.0
-2.7094 9.19075 0.0
2.57277 8.22604 0.0
2.54836 8.0507 0.0
3.12898 7.9527 0.0
3.29509 8.87987 0.0
2.70942 9.19075 0.0
-3.93074 8.46594 0.0
-3.73793 7.58233 0.0
-3.15317 7.70091 0.0
-3.19152 7.91752 0.0
-3.35732 8.84297 0.0
3.19123 7.9158 0.0
3.15343 7.70232 0.0
3.73763 7.5809 0.0
3.93076 8.46593 0.0
3.35734 8.84297 0.0
-4.55054 7.98044 0.0
-4.33292 7.14103 0.0
-3.74396 7.28519 0.0
-3.79875 7.53842 0.0
-3.99156 8.42203 0.0
3.79845 7.537 0.0
3.7442 7.28623 0.0
4.33266 7.13997 0.0
4.55055 7.98043 0.0
3.99157 8.42203 0.0
4.39181 7.08924 0.0
4.31846 6.80439 0.0
4.91173 6.63151 0.0
5.15212 7.42536 0.0
4.6097 7.9297 0.0
-5.15211 7.42537 0.0
-4.91191 6.63211 0.0
-4.31829 6.8038 0.0
-4.39207 7.09029 0.0
-4.6097 7.9297 0.0
-5.73316 6.80295 0.0
-5.4726 6.05739 0.0
-4.87407 6.25896 0.0
-4.96918 6.57476 0.0
-5.20938 7.36801 0.0
4.96899 6.57416 0.0
4.87409 6.25901 0.0
5.47258 6.05734 0.0
5.73316 6.80295 0.0
5.20938 7.36801 0.0
-10.2033 -3.6239 0.0
-9.79467 -3.86487 0.0
-9.30053 -3.08439 0.0
-9.60651 -2.86323 0.0
-9.99731 -2.58235 0.0
9.60787 -2.86228 0.0
9.30139 -3.08381 0.0
9.79376 -3.86544 0.0
10.2034 -3.62392 0.0
9.99732 -2.58237 0.0
-9.97291 -2.47148 0.0
-9.58212 -2.75236 0.0
-9.04543 -2.04276 0.0
-9.35677 -1.77549 0.0
-9.73136 -1.45543 0.0
9.35595 -1.77614 0.0
9.04419 -2.04377 0.0
9.58344 -2.75136 0.0
9.97289 -2.47145 0.0
9.73134 -1.4554 0.0
5.52774 5.9936 0.0
5.40909 5.65251 0.0
6.01296 5.41948 0.0
6.29147 6.11567 0.0
5.78832 6.73921 0.0
-6.29147 6.11566 0.0
-6.01273 5.41887 0.0
-5.40931 5.65311 0.0
-5.52776 5.99364 0.0
-5.78832 6.73921 0.0
9.06511 -0.722601 0.0
8.75846 -1.03002 0.0
9.32785 -1.6684 0.0
9.70324 -1.34766 0.0
9.42713 -0.36117 0.0
-9.70323 -1.34764 0.0
-9.32864 -1.6677 0.0
-8.75772 -1.03072 0.0
-9.06388 -0.723803 0.0
-9.42712 -0.361151 0.0
-9.39544 -0.256916 0.0
-9.03219 -0.619568 0.0
-8.44136 -0.0479949 0.0
-8.73407 0.290648 0.0
-9.08587 0.696138 0.0
8.73374 0.290321 0.0
8.44025 -0.0492261 0.0
9.03339 -0.618324 0.0
9.39541 -0.256892 0.0
9.08585 0.696165 0.0
-6.82492 5.3662 0.0
-6.53004 4.71877 0.0
-5.92213 4.98893 0.0
-6.06558 5.34898 0.0
-6.34433 6.04577 0.0
6.06581 5.34959 0.0
5.92157 4.98757 0.0
6.53065 4.72016 0.0
6.8249 5.36621 0.0
6.34431 6.04578 0.0
8.36623 1.26021 0.0
8.09324 0.898698 0.0
8.69858 0.390683 0.0
9.05069 0.796526 0.0
8.70888 1.7124 0.0
-9.05068 0.796531 0.0
-8.69888 0.391041 0.0
-8.09296 0.898345 0.0
-8.36617 1.26015 0.0
-8.70887 1.71241 0.0
-8.67038 1.80853 0.0
-8.32768 1.35627 0.0
-7.71608 1.80838 0.0
-7.96565 2.1847 0.0
-8.29768 2.68363 0.0
7.96609 2.18536 0.0
7.71603 1.80832 0.0
8.32773 1.35634 0.0
8.67038 1.80853 0.0
8.29767 2.68363 0.0
9.81435 -3.97902 0.0
9.52575 -4.1504 0.0
9.96156 -5.00141 0.0
10.3936 -4.80021 0.0
10.2239 -3.73751 0.0
-10.3936 -4.80026 0.0
-9.95985 -5.00226 0.0
-9.52737 -4.1495 0.0
-9.81529 -3.97852 0.0
-10.224 -3.73755 0.0
-7.33141 4.5575 0.0
-7.02327 3.96144 0.0
-6.40993 4.26744 0.0
-6.58036 4.64302 0.0
-6.87524 5.29045 0.0
6.58101 4.64439 0.0
6.41065 4.26896 0.0
7.02249 3.95988 0.0
7.33143 4.55749 0.0
6.87526 5.29044 0.0
-8.25595 2.77518 0.0
-7.92393 2.27625 0.0
-7.30856 2.67469 0.0
-7.53313 3.05907 0.0
-7.85382 3.60609 0.0
7.53282 3.05856 0.0
7.30816 2.67404 0.0
7.92436 2.27691 0.0
8.25594 2.77519 0.0
7.85381 3.6061 0.0
7.07012 3.87855 0.0
6.87307 3.49606 0.0
7.48807 3.14515 0.0
7.80906 3.6927 0.0
7.37907 4.47616 0.0
-7.80905 3.6927 0.0
-7.48837 3.14568 0.0
-6.87279 3.49554 0.0
-7.07091 3.88011 0.0
-7.37906 4.47616 0.0
-10.5429 -5.99446 0.0
-10.0815 -6.15391 0.0
-9.72097 -5.23818 0.0
-9.97651 -5.11808 0.0
-10.4103 -4.91607 0.0
9.97825 -5.1173 0.0
9.72195 -5.23776 0.0
10.0804 -6.15429 0.0
10.5429 -5.99449 0.0
10.4103 -4.9161 0.0
-10.6506 -7.19542 0.0
-10.1536 -7.30874 0.0
-9.88598 -6.34388 0.0
-10.0941 -6.27119 0.0
-10.5556 -6.11174 0.0
10.0931 -6.27149 0.0
9.88425 -6.34442 0.0
10.1554 -7.30827 0.0
10.6506 -7.19537 0.0
10.5556 -6.11169 0.0
</DataArray>
</Points>
<Cells>
<DataArray type="Int32" Name="connectivity" format="ascii">
0 1 2 3 
4 5 6 7 
8 9 10 11 
12 13 14 15 
16 17 18 19 
20 21 22 23 
24 25 26 27 
28 29 30 31 
32 33 34 35 
36 37 38 39 
40 41 42 43 
44 45 46 47 
48 49 50 51 
52 53 54 55 
56 57 58 59 
60 61 62 63 
64 65 66 67 
68 69 70 71 
72 73 74 75 
76 77 78 79 
80 81 82 83 
84 85 86 87 
88 89 90 91 
92 93 94 95 
96 97 98 99 
100 101 102 103 
104 105 106 107 
108 109 110 111 
112 113 114 115 
116 117 118 119 
120 121 122 123 
124 125 126 127 
128 129 130 131 
132 133 134 135 
136 137 138 139 
140 141 142 143 
144 145 146 147 
148 149 150 151 
152 153 154 155 
156 157 158 159 
160 161 162 163 
164 165 166 167 
168 169 170 171 
172 173 174 175 
176 177 178 179 
180 181 182 183 
184 185 186 187 
188 189 190 191 
192 193 194 195 
196 197 198 199 
200 201 202 203 
204 205 206 207 
208 209 210 211 
212 213 214 215 
216 217 218 219 
220 221 222 223 
224 225 226 227 
228 229 230 231 
232 233 234 235 
236 237 238 239 
240 241 242 243 
244 245 246 247 
248 249 250 251 
252 253 254 255 
256 257 258 259 
260 261 262 263 
264 265 266 267 
268 269 270 271 
272 273 274 275 
276 277 278 279 
280 281 282 283 
284 285 286 287 
288 289 290 291 
292 293 294 295 
296 297 298 299 
300 301 302 303 
304 305 306 307 
308 309 310 311 
312 313 314 315 
316 317 318 319 
320 321 322 323 
324 325 326 327 
328 329 330 331 
332 333 334 335 
336 337 338 339 
340 341 342 343 
344 345 346 347 
348 349 350 351 
352 353 354 355 
356 357 358 359 
360 361 362 363 
364 365 366 367 
368 369 370 371 
372 373 374 375 
376 377 378 379 
380 381 382 383 
384 385 386 387 
388 389 390 391 
392 393 394 395 
396 397 398 399 
400 401 402 403 
404 405 406 407 
408 409 410 411 
412 413 414 415 
416 417 418 419 
420 421 422 423 
424 425 426 427 
428 429 430 431 
432 433 434 435 
436 437 438 439 
440 441 442 443 
444 445 446 447 
448 449 450 451 
452 453 454 455 
456 457 458 459 
460 461 462 463 
464 465 466 467 
468 469 470 471 
472 473 474 475 
476 477 478 479 
480 481 482 483 
484 485 486 487 
488 489 490 491 
492 493 494 495 
496 497 498 499 
500 501 502 503 
504 505 506 507 
508 509 510 511 
512 513 514 515 
516 517 518 519 
520 521 522 523 
524 525 526 527 
528 529 530 531 
532 533 534 535 
536 537 538 539 
540 541 542 543 
544 545 546 547 
548 549 550 551 
552 553 554 555 
556 557 558 559 
560 561 562 563 
564 565 566 567 
568 569 570 571 
572 573 574 575 
576 577 578 579 
580 581 582 583 
584 585 586 587 
588 589 590 591 
592 593 594 595 
596 597 598 599 
600 601 602 603 
604 605 606 607 
608 609 610 611 
612 613 614 615 
616 617 618 619 
620 621 622 623 
624 625 626 627 
628 629 630 631 
632 633 634 635 
636 637 638 639 
640 641 642 643 
644 645 646 647 
648 649 650 651 
652 653 654 655 
656 657 658 659 
660 661 662 663 
664 665 666 667 
668 669 670 671 
672 673 674 675 
676 677 678 679 
680 681 682 683 
684 685 686 687 
688 689 690 691 
692 693 694 695 
696 697 698 699 
700 701 702 703 
704 705 706 707 
708 709 710 711 
712 713 714 715 
716 717 718 719 
720 721 722 723 
724 725 726 727 
728 729 730 731 
732 733 734 735 
736 737 738 739 
740 741 742 743 
744 745 746 747 
748 749 750 751 
752 753 754 755 
756 757 758 759 
760 761 762 763 
764 765 766 767 
768 769 770 771 
772 773 774 775 
776 777 778 779 
780 781 782 783 
784 785 786 787 
788 789 790 791 
792 793 794 795 
796 797 798 799 
800 801 802 803 
804 805 806 807 
808 809 810 811 
812 813 814 815 
816 817 818 819 
820 821 822 823 
824 825 826 827 
828 829 830 831 
832 833 834 835 
836 837 838 839 
840 841 842 843 
844 845 846 847 
848 849 850 851 
852 853 854 855 
856 857 858 859 
860 861 862 863 
864 865 866 867 
868 869 870 871 
872 873 874 875 
876 877 878 879 
880 881 882 883 
884 885 886 887 
888 889 890 891 
892 893 894 895 
896 897 898 899 
900 901 902 903 
904 905 906 907 
908 909 910 911 
912 913 914 915 
916 917 918 919 
920 921 922 923 
924 925 926 927 
928 929 930 931 
932 933 934 935 
936 937 938 939 
940 941 942 943 
944 945 946 947 
948 949 950 951 
952 953 954 955 
956 957 958 959 
960 961 962 963 
964 965 966 967 
968 969 970 971 
972 973 974 975 
976 977 978 979 
980 981 982 983 
984 985 986 987 
988 989 990 991 
992 993 994 995 
996 997 998 999 
1000 1001 1002 1003 
1004 1005 1006 1007 
1008 1009 1010 1011 
1012 1013 1014 1015 
1016 1017 1018 1019 
1020 1021 1022 1023 
1024 1025 1026 1027 
1028 1029 1030 1031 
1032 1033 1034 1035 
1036 1037 1038 1039 
1040 1041 1042 1043 
1044 1045 1046 1047 
1048 1049 1050 1051 
1052 1053 1054 1055 
1056 1057 1058 1059 
1060 1061 1062 1063 
1064 1065 1066 1067 
1068 1069 1070 1071 
1072 1073 1074 1075 
1076 1077 1078 1079 
1080 1081 1082 1083 
1084 1085 1086 1087 
1088 1089 1090 1091 
1092 1093 1094 1095 
1096 1097 1098 1099 
1100 1101 1102 1103 
1104 1105 1106 1107 
1108 1109 1110 1111 
1112 1113 1114 1115 
1116 1117 1118 1119 
1120 1121 1122 1123 
1124 1125 1126 1127 
1128 1129 1130 1131 
1132 1133 1134 1135 
1136 1137 1138 1139 
1140 1141 1142 1143 
1144 1145 1146 1147 
1148 1149 1150 1151 
1152 1153 1154 1155 
1156 1157 1158 1159 
1160 1161 1162 1163 
1164 1165 1166 1167 
1168 1169 1170 1171 
1172 1173 1174 1175 
1176 1177 1178 1179 
1180 1181 1182 1183 
1184 1185 1186 1187 
1188 1189 1190 1191 
1192 1193 1194 1195 
1196 1197 1198 1199 
1200 1201 1202 1203 
1204 1205 1206 1207 
1208 1209 1210 1211 
1212 1213 1214 1215 
1216 1217 1218 1219 
1220 1221 1222 1223 
1224 1225 1226 1227 
1228 1229 1230 1231 
1232 1233 1234 1235 
1236 1237 1238 1239 
1240 1241 1242 1243 
1244 1245 1246 1247 
1248 1249 1250 1251 
1252 1253 1254 1255 
1256 1257 1258 1259 
1260 1261 1262 1263 
1264 1265 1266 1267 
1268 1269 1270 1271 
1272 1273 1274 1275 
1276 1277 1278 1279 
1280 1281 1282 1283 
1284 1285 1286 1287 
1288 1289 1290 1291 
1292 1293 1294 1295 
1296 1297 1298 1299 
1300 1301 1302 1303 
1304 1305 1306 1307 
1308 1309 1310 1311 
1312 1313 1314 1315 
1316 1317 1318 1319 
1320 1321 1322 1323 
1324 1325 1326 1327 
1328 1329 1330 1331 
1332 1333 1334 1335 
1336 1337 1338 1339 
1340 1341 1342 1343 
1344 1345 1346 1347 
1348 1349 1350 1351 
1352 1353 1354 1355 
1356 1357 1358 1359 
1360 1361 1362 1363 
1364 1365 1366 1367 
1368 1369 1370 1371 
1372 1373 1374 1375 
1376 1377 1378 1379 
1380 1381 1382 1383 
1384 1385 1386 1387 
1388 1389 1390 1391 
1392 1393 1394 1395 
1396 1397 1398 1399 
1400 1401 1402 1403 
1404 1405 1406 1407 1408 
1409 1410 1411 1412 
1413 1414 1415 1416 1417 
1418 1419 1420 1421 1422 
1423 1424 1425 1426 1427 
1428 1429 1430 1431 1432 
1433 1434 1435 1436 1437 
1438 1439 1440 1441 1442 
1443 1444 1445 1446 1447 
1448 1449 1450 1451 1452 
1453 1454 1455 1456 1457 
1458 1459 1460 1461 1462 
1463 1464 1465 1466 1467 
1468 1469 1470 1471 1472 
1473 1474 1475 1476 1477 
1478 1479 1480 1481 1482 
1483 1484 1485 1486 1487 
1488 1489 1490 1491 1492 
1493 1494 1495 1496 1497 
1498 1499 1500 1501 1502 
1503 1504 1505 1506 1507 
1508 1509 1510 1511 1512 
1513 1514 1515 1516 1517 
1518 1519 1520 1521 1522 1523 
1524 1525 1526 1527 1528 
1529 1530 1531 1532 1533 
1534 1535 1536 1537 1538 
1539 1540 1541 1542 1543 
1544 1545 1546 1547 1548 
1549 1550 1551 1552 1553 
1554 1555 1556 1557 1558 
1559 1560 1561 1562 1563 
1564 1565 1566 1567 1568 
1569 1570 1571 1572 1573 
1574 1575 1576 1577 1578 
1579 1580 1581 1582 1583 
1584 1585 1586 1587 1588 
1589 1590 1591 1592 1593 
1594 1595 1596 1597 1598 
1599 1600 1601 1602 1603 
1604 1605 1606 1607 1608 
1609 1610 1611 1612 1613 
1614 1615 1616 1617 1618 
1619 1620 1621 1622 1623 
1624 1625 1626 1627 1628 
1629 1630 1631 1632 1633 
1634 1635 1636 1637 
1638 1639 1640 1641 1642 
1643 1644 1645 1646 
1647 1648 1649 1650 1651 
1652 1653 1654 1655 
1656 1657 1658 1659 1660 
1661 1662 1663 1664 1665 
1666 1667 1668 1669 1670 
1671 1672 1673 1674 1675 
1676 1677 1678 1679 1680 
1681 1682 1683 1684 1685 
1686 1687 1688 1689 1690 
1691 1692 1693 1694 1695 
1696 1697 1698 1699 1700 
1701 1702 1703 1704 1705 
1706 1707 1708 1709 1710 
1711 1712 1713 1714 1715 
1716 1717 1718 1719 1720 
1721 1722 1723 1724 1725 
1726 1727 1728 1729 1730 
1731 1732 1733 1734 1735 
1736 1737 1738 1739 1740 
1741 1742 1743 1744 1745 
1746 1747 1748 1749 1750 
1751 1752 1753 1754 1755 
1756 1757 1758 1759 1760 
1761 1762 1763 1764 1765 
1766 1767 1768 1769 1770 
1771 1772 1773 1774 1775 1776 
1777 1778 1779 1780 1781 
1782 1783 1784 1785 1786 
1787 1788 1789 1790 1791 
1792 1793 1794 1795 1796 
1797 1798 1799 1800 1801 
1802 1803 1804 1805 1806 
1807 1808 1809 1810 1811 
1812 1813 1814 1815 1816 
1817 1818 1819 1820 1821 
1822 1823 1824 1825 1826 
1827 1828 1829 1830 1831 
1832 1833 1834 1835 1836 
1837 1838 1839 1840 1841 
1842 1843 1844 1845 1846 
1847 1848 1849 1850 1851 
1852 1853 1854 1855 1856 
1857 1858 1859 1860 1861 
1862 1863 1864 1865 1866 
1867 1868 1869 1870 1871 
1872 1873 1874 1875 1876 
1877 1878 1879 1880 1881 
1882 1883 1884 1885 1886 
1887 1888 1889 1890 
1891 1892 1893 1894 1895 
1896 1897 1898 1899 
1900 1901 1902 1903 1904 
1905 1906 1907 1908 1909 
1910 1911 1912 1913 1914 
1915 1916 1917 1918 1919 
1920 1921 1922 1923 1924 
1925 1926 1927 1928 1929 
1930 1931 1932 1933 1934 
1935 1936 1937 1938 1939 
1940 1941 1942 1943 1944 
1945 1946 1947 1948 1949 
1950 1951 1952 1953 1954 
1955 1956 1957 1958 1959 
1960 1961 1962 1963 1964 
1965 1966 1967 1968 1969 
1970 1971 1972 1973 1974 
1975 1976 1977 1978 1979 
1980 1981 1982 1983 1984 
1985 1986 1987 1988 1989 
1990 1991 1992 1993 1994 
1995 1996 1997 1998 1999 
2000 2001 2002 2003 2004 
2005 2006 2007 2008 2009 
2010 2011 2012 2013 2014 
2015 2016 2017 2018 2019 
2020 2021 2022 2023 2024 2025 
2026 2027 2028 2029 2030 
2031 2032 2033 2034 2035 
2036 2037 2038 2039 2040 
2041 2042 2043 2044 2045 
2046 2047 2048 2049 2050 
2051 2052 2053 2054 2055 
2056 2057 2058 2059 2060 
2061 2062 2063 2064 2065 
2066 2067 2068 2069 2070 
2071 2072 2073 2074 2075 
2076 2077 2078 2079 2080 
2081 2082 2083 2084 2085 
2086 2087 2088 2089 2090 
2091 2092 2093 2094 2095 
2096 2097 2098 2099 2100 
2101 2102 2103 2104 2105 
2106 2107 2108 2109 2110 
2111 2112 2113 2114 2115 
2116 2117 2118 2119 2120 
2121 2122 2123 2124 2125 
2126 2127 2128 2129 2130 
2131 2132 2133 2134 2135 
2136 2137 2138 2139 2140 
2141 2142 2143 2144 
2145 2146 2147 2148 2149 
2150 2151 2152 2153 2154 
2155 2156 2157 2158 2159 
2160 2161 2162 2163 2164 
2165 2166 2167 2168 2169 
2170 2171 2172 2173 2174 
2175 2176 2177 2178 2179 
2180 2181 2182 2183 2184 
2185 2186 2187 2188 2189 
2190 2191 2192 2193 2194 
2195 2196 2197 2198 2199 
2200 2201 2202 2203 2204 
2205 2206 2207 2208 2209 
2210 2211 2212 2213 2214 
2215 2216 2217 2218 2219 
2220 2221 2222 2223 2224 
2225 2226 2227 2228 2229 
2230 2231 2232 2233 2234 
2235 2236 2237 2238 2239 
2240 2241 2242 2243 2244 
2245 2246 2247 2248 2249 
2250 2251 2252 2253 2254 
2255 2256 2257 2258 2259 
2260 2261 2262 2263 2264 
2265 2266 2267 2268 2269 
2270 2271 2272 2273 2274 
2275 2276 2277 2278 2279 
2280 2281 2282 2283 2284 
2285 2286 2287 2288 2289 
2290 2291 2292 2293 2294 
2295 2296 2297 2298 2299 
2300 2301 2302 2303 2304 
2305 2306 2307 2308 2309 
2310 2311 2312 2313 2314 
2315 2316 2317 2318 2319 
2320 2321 2322 2323 2324 
2325 2326 2327 2328 2329 
2330 2331 2332 2333 2334 
2335 2336 2337 2338 2339 
2340 2341 2342 2343 2344 
2345 2346 2347 2348 2349 
2350 2351 2352 2353 2354 
2355 2356 2357 2358 2359 
2360 2361 2362 2363 2364 
2365 2366 2367 2368 2369 
2370 2371 2372 2373 2374 
2375 2376 2377 2378 2379 
2380 2381 2382 2383 
2384 2385 2386 2387 2388 
2389 2390 2391 2392 2393 
2394 2395 2396 2397 2398 
2399 2400 2401 2402 2403 
2404 2405 2406 2407 2408 
2409 2410 2411 2412 2413 
2414 2415 2416 2417 2418 
2419 2420 2421 2422 2423 
2424 2425 2426 2427 2428 
2429 2430 2431 2432 2433 
2434 2435 2436 2437 2438 
2439 2440 2441 2442 2443 
2444 2445 2446 2447 2448 
2449 2450 2451 2452 2453 
2454 2455 2456 2457 
2458 2459 2460 2461 2462 
2463 2464 2465 2466 2467 
2468 2469 2470 2471 2472 
2473 2474 2475 2476 2477 
2478 2479 2480 2481 2482 
2483 2484 2485 2486 2487 
2488 2489 2490 2491 2492 
2493 2494 2495 2496 2497 
2498 2499 2500 2501 2502 
2503 2504 2505 2506 2507 
2508 2509 2510 2511 2512 
2513 2514 2515 2516 2517 
2518 2519 2520 2521 2522 
2523 2524 2525 2526 2527 
2528 2529 2530 2531 2532 
2533 2534 2535 2536 2537 
2538 2539 2540 2541 2542 
2543 2544 2545 2546 2547 
2548 2549 2550 2551 2552 
2553 2554 2555 2556 2557 
2558 2559 2560 2561 2562 
2563 2564 2565 2566 2567 
2568 2569 2570 2571 2572 
2573 2574 2575 2576 2577 
2578 2579 2580 2581 2582 
2583 2584 2585 2586 2587 
2588 2589 2590 2591 2592 
2593 2594 2595 2596 2597 
2598 2599 2600 2601 2602 
2603 2604 2605 2606 2607 
2608 2609 2610 2611 2612 
2613 2614 2615 2616 2617 
2618 2619 2620 2621 2622 
2623 2624 2625 2626 2627 
2628 2629 2630 2631 2632 
2633 2634 2635 2636 2637 
2638 2639 2640 2641 
2642 2643 2644 2645 2646 
2647 2648 2649 2650 2651 
2652 2653 2654 2655 2656 
2657 2658 2659 2660 2661 
2662 2663 2664 2665 2666 
2667 2668 2669 2670 2671 
2672 2673 2674 2675 2676 
2677 2678 2679 2680 2681 
2682 2683 2684 2685 2686 
2687 2688 2689 2690 2691 
2692 2693 2694 2695 2696 
2697 2698 2699 2700 2701 
2702 2703 2704 2705 2706 
2707 2708 2709 2710 2711 
2712 2713 2714 2715 2716 
2717 2718 2719 2720 2721 
2722 2723 2724 2725 2726 
2727 2728 2729 2730 2731 
2732 2733 2734 2735 2736 
2737 2738 2739 2740 2741 
2742 2743 2744 2745 2746 
2747 2748 2749 2750 2751 
2752 2753 2754 2755 2756 
2757 2758 2759 2760 2761 
2762 2763 2764 2765 2766 
2767 2768 2769 2770 2771 
2772 2773 2774 2775 2776 
2777 2778 2779 2780 2781 
2782 2783 2784 2785 2786 
2787 2788 2789 2790 2791 
2792 2793 2794 2795 2796 
2797 2798 2799 2800 2801 
2802 2803 2804 2805 2806 
2807 2808 2809 2810 2811 
2812 2813 2814 2815 2816 
2817 2818 2819 2820 2821 
2822 2823 2824 2825 2826 
2827 2828 2829 2830 2831 
2832 2833 2834 2835 2836 
2837 2838 2839 2840 2841 
2842 2843 2844 2845 2846 
2847 2848 2849 2850 2851 
2852 2853 2854 2855 2856 
2857 2858 2859 2860 2861 
</DataArray>
<DataArray type="Int32" Name="offsets" format="ascii">
4 8 12 16 20 24 28 32 36 40 44 48 52 56 60 64 68 72 76 80 84 88 92 96 100 104 108 112 116 120 124 128 132 136 140 144 148 152 156 160 164 168 172 176 180 184 188 192 196 200 204 208 212 216 220 224 228 232 236 240 244 248 252 256 260 264 268 272 276 280 284 288 292 296 300 304 308 312 316 320 324 328 332 336 340 344 348 352 356 360 364 368 372 376 380 384 388 392 396 400 404 408 412 416 420 424 428 432 436 440 444 448 452 456 460 464 468 472 476 480 484 488 492 496 500 504 508 512 516 520 524 528 532 536 540 544 548 552 556 560 564 568 572 576 580 584 588 592 596 600 604 608 612 616 620 624 628 632 636 640 644 648 652 656 660 664 668 672 676 680 684 688 692 696 700 704 708 712 716 720 724 728 732 736 740 744 748 752 756 760 764 768 772 776 780 784 788 792 796 800 804 808 812 816 820 824 828 832 836 840 844 848 852 856 860 864 868 872 876 880 884 888 892 896 900 904 908 912 916 920 924 928 932 936 940 944 948 952 956 960 964 968 972 976 980 984 988 992 996 1000 1004 1008 1012 1016 1020 1024 1028 1032 1036 1040 1044 1048 1052 1056 1060 1064 1068 1072 1076 1080 1084 1088 1092 1096 1100 1104 1108 1112 1116 1120 1124 1128 1132 1136 1140 1144 1148 1152 1156 1160 1164 1168 1172 1176 1180 1184 1188 1192 1196 1200 1204 1208 1212 1216 1220 1224 1228 1232 1236 1240 1244 1248 1252 1256 1260 1264 1268 1272 1276 1280 1284 1288 1292 1296 1300 1304 1308 1312 1316 1320 1324 1328 1332 1336 1340 1344 1348 1352 1356 1360 1364 1368 1372 1376 1380 1384 1388 1392 1396 1400 1404 1409 1413 1418 1423 1428 1433 1438 1443 1448 1453 1458 1463 1468 1473 1478 1483 1488 1493 1498 1503 1508 1513 1518 1524 1529 1534 1539 1544 1549 1554 1559 1564 1569 1574 1579 1584 1589 1594 1599 1604 1609 1614 1619 1624 1629 1634 1638 1643 1647 1652 1656 1661 1666 1671 1676 1681 1686 1691 1696 1701 1706 1711 1716 1721 1726 1731 1736 1741 1746 1751 1756 1761 1766 1771 1777 1782 1787 1792 1797 1802 1807 1812 1817 1822 1827 1832 1837 1842 1847 1852 1857 1862 1867 1872 1877 1882 1887 1891 1896 1900 1905 1910 1915 1920 1925 1930 1935 1940 1945 1950 1955 1960 1965 1970 1975 1980 1985 1990 1995 2000 2005 2010 2015 2020 2026 2031 2036 2041 2046 2051 2056 2061 2066 2071 2076 2081 2086 2091 2096 2101 2106 2111 2116 2121 2126 2131 2136 2141 2145 2150 2155 2160 2165 2170 2175 2180 2185 2190 2195 2200 2205 2210 2215 2220 2225 2230 2235 2240 2245 2250 2255 2260 2265 2270 2275 2280 2285 2290 2295 2300 2305 2310 2315 2320 2325 2330 2335 2340 2345 2350 2355 2360 2365 2370 2375 2380 2384 2389 2394 2399 2404 2409 2414 2419 2424 2429 2434 2439 2444 2449 2454 2458 2463 2468 2473 2478 2483 2488 2493 2498 2503 2508 2513 2518 2523 2528 2533 2538 2543 2548 2553 2558 2563 2568 2573 2578 2583 2588 2593 2598 2603 2608 2613 2618 2623 2628 2633 2638 2642 2647 2652 2657 2662 2667 2672 2677 2682 2687 2692 2697 2702 2707 2712 2717 2722 2727 2732 2737 2742 2747 2752 2757 2762 2767 2772 2777 2782 2787 2792 2797 2802 2807 2812 2817 2822 2827 2832 2837 2842 2847 2852 2857 2862 
</DataArray>
<DataArray type="UInt8" Name="types" format="ascii">
7 7 7 7 7 7 7 7 7 7 7 7 7 7 7 7 7 7 7 7 7 7 7 7 7 7 7 7 7 7 7 7 7 7 7 7 7 7 7 7 7 7 7 7 7 7 7 7 7 7 7 7 7 7 7 7 7 7 7 7 7 7 7 7 7 7 7 7 7 7 7 7 7 7 7 7 7 7 7 7 7 7 7 7 7 7 7 7 7 7 7 7 7 7 7 7 7 7 7 7 7 7 7 7 7 7 7 7 7 7 7 7 7 7 7 7 7 7 7 7 7 7 7 7 7 7 7 7 7 7 7 7 7 7 7 7 7 7 7 7 7 7 7 7 7 7 7 7 7 7 7 7 7 7 7 7 7 7 7 7 7 7 7 7 7 7 7 7 7 7 7 7 7 7 7 7 7 7 7 7 7 7 7 7 7 7 7 7 7 7 7 7 7 7 7 7 7 7 7 7 7 7 7 7 7 7 7 7 7 7 7 7 7 7 7 7 7 7 7 7 7 7 7 7 7 7 7 7 7 7 7 7 7 7 7 7 7 7 7 7 7 7 7 7 7 7 7 7 7 7 7 7 7 7 7 7 7 7 7 7 7 7 7 7 7 7 7 7 7 7 7 7 7 7 7 7 7 7 7 7 7 7 7 7 7 7 7 7 7 7 7 7 7 7 7 7 7 7 7 7 7 7 7 7 7 7 7 7 7 7 7 7 7 7 7 7 7 7 7 7 7 7 7 7 7 7 7 7 7 7 7 7 7 7 7 7 7 7 7 7 7 7 7 7 7 7 7 7 7 7 7 7 7 7 7 7 7 7 7 7 7 7 7 7 7 7 7 7 7 7 7 7 7 7 7 7 7 7 7 7 7 7 7 7 7 7 7 7 7 7 7 7 7 7 7 7 7 7 7 7 7 7 7 7 7 7 7 7 7 7 7 7 7 7 7 7 7 7 7 7 7 7 7 7 7 7 7 7 7 7 7 7 7 7 7 7 7 7 7 7 7 7 7 7 7 7 7 7 7 7 7 7 7 7 7 7 7 7 7 7 7 7 7 7 7 7 7 7 7 7 7 7 7 7 7 7 7 7 7 7 7 7 7 7 7 7 7 7 7 7 7 7 7 7 7 7 7 7 7 7 7 7 7 7 7 7 7 7 7 7 7 7 7 7 7 7 7 7 7 7 7 7 7 7 7 7 7 7 7 7 7 7 7 7 7 7 7 7 7 7 7 7 7 7 7 7 7 7 7 7 7 7 7 7 7 7 7 7 7 7 7 7 7 7 7 7 7 7 7 7 7 7 7 7 7 7 7 7 7 7 7 7 7 7 7 7 7 7 7 7 7 7 7 7 7 7 7 7 7 7 7 7 7 7 7 7 7 7 7 7 7 7 7 7 7 7 7 7 7 7 7 7 7 7 7 7 7 7 7 7 7 7 7 7 7 7 7 7 7 7 7 7 7 7 
</DataArray>
</Cells>
<CellData Scalars="cell variable 4" Vectors="cell vector">
<DataArray type="Float64" NumberOfComponents="3" Name="cell vector" format="ascii">
0.9 2 0
0.9 2 0
0.9 2 0
0.9 2 0
0.9 2 0
0.9 2 0
0.9 2 0
0.9 2 0
0.9 2 0
0.9 2 0
0.9 2 0
0.9 2 0
0.9 2 0
0.9 2 0
0.9 2 0
0.9 2 0
0.9 2 0
0.9 2 0
0.9 2 0
0.9 2 0
0.9 2 0
0.9 2 0
0.9 2 0
0.9 2 0
0.9 2 0
0.9 2 0
0.9 2 0
0.9 2 0
0.9 2 0
0.9 2 0
0.9 2 0
0.9 2 0
0.9 2 0
0.9 2 0
0.9 2 0
0.9 2 0
0.9 2 0
0.9 2 0
0.9 2 0
0.9 2 0
0.9 2 0
0.9 2 0
0.9 2 0
0.9 2 0
0.9 2 0
0.9 2 0
0.9 2 0
0.9 2 0
0.9 2 0
0.9 2 0
0.9 0 0
0.9 0 0
0.9 0 0
0.9 0 0
0.9 0 0
0.9 0 0
0.9 0 0
0.9 0 0
0.9 0 0
0.9 0 0
0.9 0 0
0.9 0 0
0.9 0 0
0.9 0 0
0.9 0 0
0.9 0 0
0.9 0 0
0.9 0 0
0.9 0 0
0.9 0 0
0.9 0 0
0.9 0 0
0.9 0 0
0.9 0 0
0.9 0 0
0.9 0 0
0.9 0 0
0.9 0 0
0.9 0 0
0.9 0 0
0.9 0 0
0.9 0 0
0.9 0 0
0.9 0 0
0.9 0 0
0.9 0 0
0.9 0 0
0.9 0 0
0.9 0 0
0.9 0 0
0.9 0 0
0.9 0 0
0.9 0 0
0.9 0 0
0.9 0 0
0.9 0 0
0.9 0 0
0.9 0 0
0.9 0 0
0.9 0 0
0.9 0 0
0.9 0 0
0.9 0 0
0.9 0 0
0.9 0 0
0.9 0 0
0.9 0 0
0.9 0 0
0.9 0 0
0.9 0 0
0.9 0 0
0.9 0 0
0.9 0 0
0.9 0 0
0.9 0 0
0.9 0 0
0.9 0 0
0.9 0 0
0.9 0 0
0.9 0 0
0.9 0 0
0.9 0 0
0.9 0 0
0.9 0 0
0.9 0 0
0.9 0 0
0.9 0 0
0.9 0 0
0.9 0 0
0.9 0 0
0.9 0 0
0.9 0 0
0.9 0 0
0.9 0 0
0.9 0 0
0.9 0 0
0.9 0 0
0.9 0 0
0.9 0 0
0.9 0 0
0.9 0 0
0.9 0 0
0.9 0 0
0.9 0 0
0.9 0 0
0.9 0 0
0.9 0 0
0.9 0 0
0.9 0 0
0.9 0 0
0.9 0 0
0.9 0 0
0.9 0 0
0.9 0 0
0.9 0 0
0.9 0 0
0.9 0 0
0.9 0 0
0.9 0 0
0.9 0 0
0.9 0 0
0.9 0 0
0.9 0 0
0.9 0 0
0.9 0 0
0.9 0 0
0.9 0 0
0.9 0 0
0.9 0 0
0.9 0 0
0.9 0 0
0.9 0 0
0.9 0 0
0.9 0 0
0.9 0 0
0.9 0 0
0.9 0 0
0.9 0 0
0.9 0 0
0.9 0 0
0.9 0 0
0.9 0 0
0.9 0 0
0.9 0 0
0.9 0 0
0.9 0 0
0.9 0 0
0.9 0 0
0.9 0 0
0.9 0 0
0.9 0 0
0.9 0 0
0.9 0 0
0.9 0 0
0.9 0 0
0.9 0 0
0.9 0 0
0.9 0 0
0.9 0 0
0.9 0 0
0.9 0 0
0.9 0 0
0.9 0 0
0.9 0 0
0.9 0 0
0.9 0 0
0.9 0 0
0.9 0 0
0.9 0 0
0.9 0 0
0.9 0 0
0.9 0 0
0.9 0 0
0.9 0 0
0.9 0 0
0.9 0 0
0.9 0 0
0.9 0 0
0.9 0 0
0.9 0 0
0.9 0 0
0.9 0 0
0.9 0 0
0.9 0 0
0.9 0 0
0.9 0 0
0.9 0 0
0.9 0 0
0.9 0 0
0.9 0 0
0.9 0 0
0.9 0 0
0.9 0 0
0.9 0 0
0.9 0 0
0.9 0 0
0.9 0 0
0.9 0 0
0.9 0 0
0.9 0 0
0.9 0 0
0.9 0 0
0.9 0 0
0.9 0 0
0.9 0 0
0.9 0 0
0.9 0 0
0.9 0 0
0.9 0 0
0.9 0 0
0.9 0 0
0.9 0 0
0.9 0 0
0.9 0 0
0.9 0 0
0.9 0 0
0.9 0 0
0.9 0 0
0.9 0 0
0.9 0 0
0.9 0 0
0.9 0 0
0.9 0 0
0.9 0 0
0.9 0 0
0.9 0 0
0.9 0 0
0.9 0 0
0.9 0 0
0.9 0 0
0.9 0 0
0.9 0 0
0.9 0 0
0.9 0 0
0.9 0 0
0.9 0 0
0.9 0 0
0.9 0 0
0.9 0 0
0.9 0 0
0.9 0 0
0.9 0 0
0.9 0 0
0.9 0 0
0.9 0 0
0.9 0 0
0.9 0 0
0.9 0 0
0.9 0 0
0.9 0 0
0.9 0 0
0.9 0 0
0.9 0 0
0.9 0 0
0.9 0 0
0.9 0 0
0.9 0 0
0.9 0 0
0.9 0 0
0.9 0 0
0.9 0 0
0.9 0 0
0.9 0 0
0.9 0 0
0.9 0 0
0.9 0 0
0.9 0 0
0.9 0 0
0.9 0 0
0.9 0 0
0.9 0 0
0.9 0 0
0.9 0 0
0.9 0 0
0.9 0 0
0.9 0 0
0.9 0 0
0.9 0 0
0.9 0 0
0.9 0 0
0.9 0 0
0.9 0 0
0.9 0 0
0.9 0 0
0.9 0 0
0.9 0 0
0.9 0 0
0.9 0 0
0.9 0 0
0.9 0 0
0.9 0 0
0.9 0 0
0.9 0 0
0.9 0 0
0.9 0 0
0.9 0 0
0.9 0 0
0.9 0 0
0.9 0 0
0.9 0 0
0.9 0 0
0.9 0 0
0.9 0 0
0.9 0 0
0.9 0 0
0.9 0 0
0.9 0 0
0.9 0 0
0.9 0 0
0.9 0 0
0.9 0 0
0.9 0 0
0.44525 0 0
0.445579 0 0
0.445826 0 0
0.446048 0 0
0.44617 0 0
0.446256 0 0
0.446249 0 0
0.446219 0 0
0.446127 0 0
0.446034 0 0
0.445924 0 0
0.445807 0 0
0.445675 0 0
0.445564 0 0
0.445459 0 0
0.445364 0 0
0.44528 0 0
0.445208 0 0
0.445148 0 0
0.445097 0 0
0.439563 0 0
0.430751 0 0
0.467051 0 0
0.445028 0 0
0.431285 0 0
0.440136 0 0
0.4451 0 0
0.445143 0 0
0.445203 0 0
0.445276 0 0
0.445361 0 0
0.445459 0 0
0.445567 0 0
0.445685 0 0
0.445794 0 0
0.445919 0 0
0.446041 0 0
0.446128 0 0
0.446214 0 0
0.446268 0 0
0.446244 0 0
0.44619 0 0
0.446035 0 0
0.445846 0 0
0.445568 0 0
0.445264 0 0
0.9 0 0
0.9 0 0
0.9 0 0
0.44551 0 0
0.445835 0 0
0.446074 0 0
0.446308 0 0
0.446509 0 0
0.446631 0 0
0.446728 0 0
0.446741 0 0
0.446737 0 0
0.446693 0 0
0.446598 0 0
0.446508 0 0
0.446407 0 0
0.446286 0 0
0.446183 0 0
0.446085 0 0
0.445994 0 0
0.445912 0 0
0.44584 0 0
0.44578 0 0
0.445732 0 0
0.442344 0 0
0.432828 0 0
0.423323 0 0
0.445658 0 0
0.432057 0 0
0.441605 0 0
0.445729 0 0
0.445777 0 0
0.445837 0 0
0.44591 0 0
0.445994 0 0
0.446088 0 0
0.446192 0 0
0.446287 0 0
0.446398 0 0
0.446508 0 0
0.44661 0 0
0.446673 0 0
0.446734 0 0
0.446761 0 0
0.446713 0 0
0.446642 0 0
0.446485 0 0
0.446311 0 0
0.446071 0 0
0.445829 0 0
0.445516 0 0
0.9 0 0
0.445729 0 0
0.446139 0 0
0.446385 0 0
0.44661 0 0
0.446831 0 0.435963
0.447005 0 0.445476
0.447176 0 0.456286
0.447303 0 0.467789
0.44735 0 0.479561
0.447381 0 0
0.447372 0 0
0.447304 0 0
0.447239 0 0
0.447156 0 1.53376
0.447064 0 1.54247
0.446953 0 1.55026
0.44686 0 1.55706
0.446772 0 1.56288
0.44669 0 0
0.446618 0 0
0.446557 0 0
0.446507 0 0
0.446469 0 3.07793
0.446443 0 3.07876
0.457046 0 3.07914
0.480012 0 3.07914
0.446579 0 3.07876
0.446466 0 0
0.446503 0 0
0.446553 0 0
0.446615 0 0
0.446689 0 0
0.446772 0 1.56288
0.446865 0 1.55706
0.446964 0 1.55026
0.447049 0 1.54247
0.447148 0 1.53376
0.44724 0 0
0.44732 0 0
0.447352 0 0
0.44738 0 0
0.447371 0 0.479561
0.447285 0 0.467789
0.447184 0 0.456286
0.447005 0 0.445476
0.446824 0 0.435963
0.446622 0 0
0.446387 0 0
0.446137 0 0
0.445731 0 0
0.45339 0 0
0.453378 0 0
0.453615 0 0
0.453613 0 0
0.453169 1 0.989899
0.453176 1 0.989899
0.452995 1 0.989899
0.452995 1 0.989899
0.452824 1 0.989899
0.452816 1 0.989899
0.452697 1 0.989899
0.452715 1 0.989899
0.45265 1 0.989899
0.452629 1 0.989899
0.453861 0 0
0.453863 0 0
0.452619 0 0
0.45262 0 0
0.452628 0 0
0.452648 0 0
0.452696 0 0
0.45268 0 0
0.452761 0 0
0.45276 0 0
0.452844 1 1.9899
0.452852 1 1.9899
0.452936 1 1.9899
0.452951 1 1.9899
0.453047 1 1.9899
0.453036 1 1.9899
0.45314 1 1.9899
0.453135 1 1.9899
0.453228 1 1.9899
0.453228 1 1.9899
0.45331 0 0
0.453311 0 0
0.453382 0 0
0.453385 0 0
0.453443 0 0
0.453447 0 0
0.453493 0 0
0.453497 0 0
0.453531 1 3.4899
0.453534 0 0
0.453557 1 3.4899
0.453421 1 3.4899
0.442954 1 3.4899
0.419988 1 3.4899
0.453692 0 0
0.453689 0 0
0.453491 0 0
0.453515 0 0
0.453926 0 0
0.453929 0 0
0.453369 0 0
0.453358 0 0
0.453272 0 0
0.453287 0 0
0.453259 0 0
0.453239 0 0
0.453263 0 0
0.453266 0 0
0.454342 0 0
0.476677 0 0
0.453307 0 0
0.453327 0 0
0.467172 0 0
0.467943 0 0
0.457656 0 0
0.458395 0 0
0.453402 0 0
0.45339 0 0
0.454268 0 0
0.454271 0 0
0.453492 0 0
0.453492 0 0
0.45422 0 0
0.454223 0 0
0.453593 0 0
0.453602 0 0
0.45416 0 0
0.454163 0 0
0.453714 0 0
0.453713 0 0
0.454088 0 0
0.45409 0 0
0.453817 0 0
0.453808 0 0
0.454006 0 0
0.454006 0 0
0.453912 0 0
0.453915 0 0
0.454165 0 0
0.454171 0 0
0.45449 0 0
0.454484 0 0
0.454271 0 0
0.454269 0 0
0.454972 0 0
0.432949 0 0
0.468715 0 0
0.469249 0 0
0.460437 0 0
0.459864 0 0
0.454903 0 0
0.4549 0 0
0.454852 0 0
0.454857 0 0
0.454792 0 0
0.454797 0 0
0.45472 0 0
0.454724 0 0
0.454639 0 0
0.454636 0 0
0.454541 0 0
0.454541 0 0
0.453952 0 0
0.453965 0 0
0.45383 0 0
0.45381 0 0
0.454433 0 0
0.454436 0 0
0.453756 0 0
0.453744 0 0
0.453751 0 0
0.453732 0 0
0.454325 0 0
0.454315 0 0
0.453786 0 0
0.453781 0 0
0.453873 0 0
0.453872 0 0
0.454154 0 0
0.454174 0 0
0.454193 0 0
0.454206 0 0
0.453966 0 0
0.453959 0 0
0.454081 0 0
0.454076 0 0
0.454421 0 0
0.454432 0 0
0.45475 0 0
0.454736 0 0
</DataArray>
<DataArray type="Float64" Name="cell vector length" format="ascii">
1.79195e-09 5.51707e-09 1.66822e-08 4.01905e-08 7.35998e-08 1.04829e-07 1.44336e-07 2.44206e-07 5.47548e-07 1.4042e-06 3.51379e-06 7.89855e-06 1.54221e-05 2.59263e-05 3.89587e-05 5.93774e-05 0.000112587 0.000282779 0.000805353 0.00223514 0.00554925 0.0117458 0.0206316 0.0293316 0.0331483 0.0294369 0.0207069 0.0117493 0.00552129 0.00220693 0.000782535 0.000265357 0.000100877 5.47079e-05 4.15452e-05 3.3579e-05 2.43355e-05 1.49628e-05 7.7695e-06 3.4785e-06 1.39478e-06 5.45087e-07 2.43577e-07 1.4418e-07 1.0479e-07 7.35908e-08 4.01885e-08 1.66817e-08 5.51697e-09 1.79192e-09 2.04915e-08 6.35809e-08 1.93779e-07 4.70052e-07 8.60965e-07 1.20125e-06 1.55549e-06 2.36645e-06 4.87457e-06 1.22334e-05 3.10283e-05 7.13308e-05 0.000142304 0.000242569 0.000363798 0.000538674 0.000982042 0.00245441 0.00719626 0.020791 0.0534051 0.114875 0.200512 0.279159 0.312139 0.281029 0.202104 0.115281 0.0531694 0.0204701 0.00693388 0.00226318 0.000856968 0.000488942 0.00038995 0.000319616 0.000229697 0.000138657 7.0331e-05 3.07627e-05 1.21645e-05 4.85705e-06 2.36207e-06 1.55442e-06 1.20099e-06 8.60905e-07 4.70038e-07 1.93776e-07 6.35802e-08 2.04913e-08 1.41947e-07 4.45176e-07 1.37395e-06 3.37491e-06 6.21292e-06 8.49662e-06 1.0238e-05 1.33263e-05 2.3252e-05 5.51666e-05 0.00014353 0.000345769 0.000722019 0.00127134 0.00192093 0.00272477 0.00458909 0.0111978 0.0344238 0.105534 0.268836 0.504513 0.70175 0.798586 0.827189 0.810116 0.715493 0.511232 0.268612 0.103322 0.0324645 0.00986596 0.00375942 0.00239833 0.00208111 0.00173255 0.00121748 0.000707275 0.000341947 0.000142585 5.49404e-05 2.31987e-05 1.33138e-05 1.02351e-05 8.49595e-06 6.21277e-06 3.37488e-06 1.37394e-06 4.45175e-07 1.41947e-07 8.83726e-07 2.78855e-06 8.71335e-06 2.17331e-05 4.0452e-05 5.49664e-05 6.3578e-05 7.36618e-05 0.000107496 0.000233273 0.00062257 0.00159107 0.00352692 0.0065099 0.0101191 0.014042 0.0217182 0.0498231 0.152675 0.421371 0.716643 0.799655 0.761677 0.704319 0.683898 0.719255 0.787709 0.824637 0.72405 0.410638 0.138784 0.0405516 0.0162219 0.0119249 0.011127 0.00924947 0.00626104 0.00346072 0.00157498 0.000618949 0.000232497 0.000107333 7.36275e-05 6.35707e-05 5.49648e-05 4.04516e-05 2.1733e-05 8.71333e-06 2.78855e-06 8.83725e-07 4.91729e-06 1.54137e-05 4.86179e-05 0.000123305 0.000233167 0.000318113 0.000361413 0.000389194 0.000484351 0.000933889 0.00254623 0.00698575 0.0166713 0.0326524 0.0532619 0.0742357 0.106371 0.211966 0.500123 0.74556 0.702924 0.59102 0.483476 0.411355 0.389647 0.420942 0.502072 0.613347 0.713909 0.721306 0.431761 0.153253 0.0711271 0.0609681 0.0597512 0.0487167 0.0313355 0.0163305 0.00690875 0.0025306 0.000930924 0.000483806 0.000389094 0.000361394 0.000318109 0.000233166 0.000123305 4.86178e-05 1.54137e-05 4.91729e-06 2.42482e-05 7.3348e-05 0.000231553 0.000596374 0.0011509 0.00159271 0.00180725 0.00187161 0.00206006 0.00346497 0.00956878 0.0285231 0.0735802 0.148968 0.246782 0.341322 0.451166 0.673542 0.838067 0.697517 0.512663 0.369044 0.275951 0.225223 0.214162 0.231462 0.286936 0.380867 0.512451 0.647622 0.677041 0.451509 0.291396 0.281874 0.279369 0.225043 0.142123 0.0717658 0.028139 0.00949886 0.00345318 0.00205815 0.0018713 0.0018072 0.0015927 0.0011509 0.000596374 0.000231553 7.3348e-05 2.42482e-05 0.000106344 0.000293685 0.000896767 0.00231501 0.00457703 0.00651181 0.00749757 0.00766631 0.00777421 0.011321 0.0309487 0.098409 0.240313 0.390817 0.540106 0.689262 0.865541 1.04204 0.912337 0.579385 0.3533 0.228043 0.161577 0.131915 0.13507 0.137958 0.170075 0.234311 0.344244 0.509531 0.718627 0.822147 0.701326 0.637993 0.58896 0.496584 0.372342 0.23352 0.0967745 0.0306708 0.0112788 0.00776805 0.00766543 0.00749745 0.00651179 0.00457703 0.00231501 0.000896767 0.000293685 0.000106344 0.000430459 0.00103947 0.00250215 0.00607012 0.0123363 0.0184927 0.022166 0.0230295 0.0224768 0.028137 0.0693599 0.193757 0.305344 0.36466 0.436163 0.532166 0.669796 0.837726 0.783241 0.486177 0.25857 0.153575 0.105719 0.0885301 0.113738 0.0969872 0.115982 0.15939 0.245691 0.410014 0.712489 0.86828 0.705287 0.557741 0.474071 0.405912 0.348231 0.296735 0.190296 0.0686588 0.0280339 0.0224627 0.0230276 0.0221659 0.0184928 0.0123363 0.00607012 0.00250215 0.00103947 0.000430459 0.00167195 0.00209003 0.0064301 0.0197239 0.048068 0.0831628 0.106364 0.11222 0.10417 0.100093 0.162865 0.333877 0.423234 0.427185 0.487952 0.599114 0.750157 1.00588 1.15671 0.71955 0.320995 0.180182 0.129301 0.123483 0.158572 0.225967 0.18632 0.226222 0.339188 0.628979 1.20758 1.22845 0.820212 0.631563 0.53841 0.454261 0.406373 0.409112 0.326974 0.161073 0.0998018 0.10413 0.112214 0.106363 0.0831626 0.048068 0.0197239 0.0064301 0.00209003 0.00167195 0.00323263 0.00969883 0.0432403 0.17337 0.350725 0.521989 0.593917 0.582577 0.487164 0.433986 0.407168 0.53533 0.486267 0.378224 0.399753 0.447729 0.495839 0.622635 0.894655 0.69875 0.369034 0.240377 0.200903 0.220892 0.267894 0.331889 0.25785 0.313036 0.439721 0.736165 1.16736 0.946731 0.540205 0.450651 0.422735 0.384246 0.366859 0.473407 0.525164 0.403183 0.433184 0.487048 0.58255 0.59391 0.521988 0.350725 0.17337 0.0432403 0.00969883 0.00323263 0.353016 0.353016 0.110257 0.110257 0.488521 0.48852 0.606606 0.606603 0.634192 0.634178 0.586875 0.58682 0.457445 0.457191 0.0246157 0.0246157 0.435356 0.433379 0.574901 0.567457 0.617383 0.605638 0.522744 0.51041 0.443729 0.431891 0.459752 0.443682 0.494822 0.47034 0.532863 0.488776 0.639894 0.565767 0.855854 0.889897 0.774545 1.0887 0.570122 0.924655 0.442143 0.733319 0.361104 0.572057 0.400865 0.458168 0.461553 0.462695 0.165131 0.16513 0.246261 0.24626 0.0664863 0.0664863 0.279967 0.279964 0.273851 0.27383 0.230248 0.230116 0.200213 0.199267 0.481966 0.402505 0.341697 0.336646 0.339059 0.494853 0.310443 0.549074 0.58352 0.569215 0.358829 0.664802 0.598064 0.576316 0.496661 0.905801 0.582935 0.553374 0.857605 1.37431 0.65808 0.613041 1.26538 1.40381 0.758581 0.68419 1.13374 0.962484 0.760923 0.892592 0.0197521 0.0197521 0.00535775 0.00535775 0.00597329 0.00597329 0.309848 0.312722 0.285121 0.234046 0.218707 0.32106 0.265985 0.422719 0.397386 0.621886 0.706379 0.996715 1.1956 1.19897 0.930054 1.23878 0.987523 0.774654 0.0271706 0.0271705 0.0323148 0.0323143 0.690978 0.799875 0.0331357 0.0331399 0.0322612 0.0322313 0.652578 0.595711 0.0421633 0.0423771 0.108595 0.1072 0.0180455 0.0180455 0.535662 0.505021 0.295852 0.289296 0.442506 0.458892 0.00879043 0.00879043 0.00330975 0.00330975 
</DataArray>
<DataArray type="Float64" Name="cell variable 4" format="ascii">
0.00502925 0.00502925 0.00502925 0.00502926 0.00502927 0.00502927 0.00502929 0.00502932 0.00502943 0.00502976 0.00503057 0.00503227 0.00503522 0.00503932 0.00504435 0.00505233 0.00507275 0.00513512 0.00531841 0.00580112 0.0068828 0.00883668 0.0115431 0.0141327 0.0152474 0.0141366 0.0115417 0.00882969 0.00687499 0.00579451 0.00531248 0.00512992 0.00506904 0.00505088 0.00504535 0.00504218 0.00503866 0.00503503 0.00503222 0.00503055 0.00502975 0.00502943 0.00502932 0.00502929 0.00502927 0.00502927 0.00502926 0.00502925 0.00502925 0.00502925 0.00502926 0.00502926 0.00502929 0.00502936 0.00502946 0.00502954 0.00502966 0.00502996 0.00503096 0.00503391 0.00504154 0.00505806 0.00508723 0.00512789 0.00517556 0.00524417 0.00541526 0.00595785 0.00761264 0.0120183 0.0215205 0.0374223 0.0580587 0.0769444 0.084897 0.0770142 0.0580712 0.0373663 0.021443 0.0119453 0.00754575 0.00590061 0.00537479 0.0052283 0.00518611 0.00515792 0.00512265 0.00508572 0.00505764 0.00504142 0.00503388 0.00503095 0.00502996 0.00502965 0.00502954 0.00502946 0.00502936 0.00502929 0.00502926 0.00502926 0.00502928 0.00502935 0.00502957 0.0050301 0.0050309 0.00503152 0.00503207 0.00503332 0.0050375 0.00505084 0.00508779 0.00517256 0.0053295 0.00555241 0.00579875 0.00609008 0.0067541 0.00899902 0.0161575 0.0346551 0.0720522 0.128302 0.184308 0.22023 0.232601 0.221011 0.1849 0.128256 0.0716724 0.0342427 0.0157362 0.008634 0.00649734 0.00598862 0.00586241 0.00573198 0.00553324 0.00532418 0.00517114 0.00508742 0.00505075 0.00503748 0.00503331 0.00503207 0.00503152 0.0050309 0.0050301 0.00502957 0.00502935 0.00502928 0.00502944 0.00502991 0.00503153 0.00503546 0.00504151 0.00504586 0.00504857 0.00505294 0.00506819 0.00512282 0.0052901 0.00570355 0.00651735 0.00771262 0.00900026 0.0102371 0.0125358 0.0204554 0.0452259 0.106998 0.199016 0.258705 0.287338 0.302254 0.30817 0.303551 0.28899 0.259854 0.19847 0.105192 0.0430488 0.0183861 0.0110072 0.00962246 0.00937482 0.00874704 0.00764028 0.00649782 0.00569864 0.00528894 0.00512256 0.00506813 0.00505293 0.00504857 0.00504586 0.00504151 0.00503546 0.00503153 0.00502991 0.00502944 0.00503041 0.00503337 0.00504381 0.00507016 0.00511234 0.00514132 0.00515529 0.00516782 0.00521336 0.00541347 0.006122 0.00802872 0.0119969 0.0179045 0.024133 0.0290516 0.0353428 0.0565827 0.123477 0.225905 0.270342 0.298945 0.327864 0.351066 0.360452 0.35046 0.326917 0.299104 0.270593 0.223423 0.114281 0.0468759 0.0277311 0.0259236 0.0261092 0.02321 0.0176235 0.0119185 0.00800962 0.00611786 0.00541263 0.0052132 0.00516779 0.00515529 0.00514132 0.00511233 0.00507016 0.00504381 0.00503337 0.00503041 0.00503556 0.00505168 0.00511058 0.00526716 0.00553177 0.00570883 0.00578225 0.00580722 0.00589353 0.00650702 0.00922043 0.0170812 0.0335485 0.0571115 0.0814445 0.0977227 0.109742 0.149417 0.22537 0.265708 0.301809 0.348151 0.397514 0.435663 0.447477 0.42956 0.390201 0.344138 0.300878 0.263147 0.204562 0.112679 0.0797278 0.0857424 0.0899643 0.078732 0.0561884 0.0332611 0.0170063 0.00920465 0.00650414 0.00589303 0.00580713 0.00578223 0.00570882 0.00553177 0.00526716 0.00511058 0.00505168 0.00503556 0.00505982 0.00513344 0.00541358 0.00620787 0.00765705 0.00860562 0.00897694 0.00899149 0.00890688 0.0101937 0.0188877 0.0451749 0.0985211 0.156969 0.203948 0.230531 0.245306 0.273229 0.286549 0.292285 0.341178 0.41102 0.482298 0.532106 0.537412 0.513078 0.464616 0.401695 0.339468 0.28572 0.245216 0.213648 0.192978 0.212321 0.2206 0.199821 0.155002 0.0976799 0.0449354 0.018834 0.0101843 0.00890545 0.00899127 0.0089769 0.00860562 0.00765705 0.00620787 0.00541358 0.00513344 0.00505982 0.00516496 0.00543054 0.00647388 0.00965495 0.0161416 0.0201874 0.0217566 0.0217028 0.0202367 0.0202173 0.0399085 0.0994932 0.169701 0.203789 0.234594 0.246386 0.24783 0.260376 0.268004 0.265622 0.331277 0.43454 0.527825 0.580219 0.550286 0.522043 0.488987 0.415975 0.330326 0.253254 0.231876 0.241828 0.229194 0.239699 0.247018 0.235246 0.203722 0.169193 0.0990475 0.0397861 0.0201954 0.0202338 0.0217024 0.0217565 0.0201874 0.0161416 0.00965495 0.00647388 0.00543054 0.00516496 0.00562278 0.00615216 0.00892252 0.018645 0.0400987 0.0513581 0.0556641 0.0559339 0.0517185 0.0421362 0.0642069 0.131027 0.177209 0.213372 0.247695 0.259505 0.259939 0.274373 0.295981 0.258335 0.27873 0.377373 0.463915 0.484423 0.425553 0.339267 0.373853 0.332052 0.265771 0.222156 0.269612 0.278331 0.247114 0.257023 0.261787 0.249542 0.214069 0.177118 0.13073 0.0640588 0.042111 0.0517171 0.0559338 0.0556641 0.0513581 0.0400987 0.018645 0.00892252 0.00615216 0.00562278 0.00659788 0.00870995 0.021123 0.0667236 0.147767 0.177572 0.182728 0.182256 0.165799 0.120174 0.101316 0.16392 0.202579 0.238003 0.27482 0.280238 0.270872 0.263529 0.296448 0.263791 0.243618 0.287195 0.330848 0.315177 0.281765 0.257228 0.286121 0.260106 0.225814 0.220852 0.286345 0.274902 0.247716 0.274257 0.283741 0.277124 0.239334 0.202471 0.163486 0.101102 0.120192 0.165814 0.182257 0.182728 0.177572 0.147767 0.0667236 0.021123 0.00870995 0.00659788 0.129314 0.129314 0.0425569 0.0425569 0.203138 0.203138 0.222071 0.222071 0.223466 0.223467 0.220206 0.220209 0.184447 0.184498 0.0138586 0.0138586 0.118587 0.118501 0.165379 0.164739 0.252673 0.252016 0.290103 0.290019 0.307103 0.307874 0.346706 0.348244 0.356844 0.359192 0.335063 0.33326 0.304915 0.269513 0.362942 0.302183 0.344333 0.337098 0.325462 0.312159 0.351315 0.323079 0.333664 0.338419 0.36792 0.312198 0.382497 0.41594 0.0724149 0.0724149 0.0899803 0.0899804 0.0326705 0.0326705 0.094662 0.0946621 0.0932141 0.0932144 0.0821518 0.0821538 0.0598382 0.059772 0.363612 0.36813 0.097568 0.0971573 0.380822 0.324667 0.385945 0.326198 0.192916 0.192016 0.367718 0.312174 0.247699 0.247061 0.325211 0.290607 0.280019 0.280088 0.323465 0.323607 0.31283 0.31383 0.362386 0.322784 0.322429 0.323825 0.329268 0.277745 0.302772 0.316567 0.0133681 0.0133681 0.00711566 0.00711566 0.00697546 0.00697546 0.475852 0.538866 0.460657 0.542321 0.507094 0.410622 0.43351 0.347322 0.351248 0.286488 0.302269 0.268319 0.324301 0.273958 0.245172 0.308099 0.282979 0.262157 0.0207112 0.0207112 0.022319 0.0223189 0.275442 0.278438 0.0222514 0.0222519 0.0207619 0.0207586 0.262867 0.261937 0.0208859 0.0209109 0.0408959 0.040768 0.0165476 0.0165476 0.225794 0.225041 0.101453 0.100998 0.181182 0.181888 0.00986423 0.00986423 0.00652104 0.00652104 
</DataArray>
</CellData>
</Piece>
</UnstructuredGrid>
</VTKFile>
