<VTKFile type="UnstructuredGrid" version="0.1">
<UnstructuredGrid>
<Piece  NumberOfPoints="    2884" NumberOfCells="     648">
<Points>
<DataArray type="Float64" NumberOfComponents="3" format="ascii">
-0.274612 -10.2845 0.0
-0.273994 -10.28 0.0
-1.33893 -10.1076 0.0
-1.34379 -10.1922 0.0
-0.272828 -10.2672 0.0
-1.3306 -9.99272 0.0
-1.33849 -10.1004 0.0
-0.273557 -10.2728 0.0
-0.271119 -10.2519 0.0
-1.31814 -9.86114 0.0
-1.32977 -9.98418 0.0
-0.271992 -10.2587 0.0
-0.268815 -10.2346 0.0
-1.30099 -9.72008 0.0
-1.31692 -9.85174 0.0
-0.269902 -10.2425 0.0
-0.265819 -10.2156 0.0
-1.27885 -9.57484 0.0
-1.29939 -9.71027 0.0
-0.267222 -10.2248 0.0
-0.262019 -10.1953 0.0
-1.25169 -9.42885 0.0
-1.27689 -9.5649 0.0
-0.263859 -10.2057 0.0
-0.257307 -10.1741 0.0
-1.21957 -9.28435 0.0
-1.24938 -9.41897 0.0
-0.259708 -10.1855 0.0
-0.251591 -10.152 0.0
-1.18264 -9.14278 0.0
-1.21693 -9.27464 0.0
-0.254663 -10.1643 0.0
-0.244798 -10.1296 0.0
-1.14107 -9.00516 0.0
-1.17968 -9.13332 0.0
-0.24863 -10.1426 0.0
-0.236881 -10.1069 0.0
-1.09502 -8.87229 0.0
-1.13781 -8.99602 0.0
-0.241534 -10.1204 0.0
-0.227817 -10.0843 0.0
-1.04465 -8.74481 0.0
-1.09147 -8.86349 0.0
-0.233327 -10.0981 0.0
-0.217608 -10.0621 0.0
-0.990153 -8.6233 0.0
-1.04082 -8.73641 0.0
-0.223986 -10.0759 0.0
-0.206274 -10.0405 0.0
-0.931707 -8.50828 0.0
-0.986055 -8.61532 0.0
-0.21351 -10.0541 0.0
-0.193851 -10.0197 0.0
-0.869513 -8.40024 0.0
-0.927354 -8.50076 0.0
-0.201922 -10.0329 0.0
-0.180384 -9.99988 0.0
-0.803779 -8.29961 0.0
-0.864918 -8.3932 0.0
-0.189256 -10.0126 0.0
-0.165929 -9.98131 0.0
-0.734719 -8.20683 0.0
-0.798955 -8.29309 0.0
-0.17556 -9.99336 0.0
-0.150546 -9.96413 0.0
-0.662553 -8.12227 0.0
-0.729681 -8.20085 0.0
-0.16089 -9.97534 0.0
-0.134298 -9.94848 0.0
-0.5875 -8.04633 0.0
-0.657313 -8.11687 0.0
-0.145306 -9.95873 0.0
-0.117253 -9.93451 0.0
-0.509783 -7.97935 0.0
-0.582074 -8.04152 0.0
-0.128872 -9.94368 0.0
-0.0994849 -9.92234 0.0
-0.429636 -7.92169 0.0
-0.504186 -7.97516 0.0
-0.111656 -9.93032 0.0
-0.081073 -9.9121 0.0
-0.347309 -7.87371 0.0
-0.423883 -7.91815 0.0
-0.0937326 -9.9188 0.0
-0.0621101 -9.9039 0.0
-0.263096 -7.83579 0.0
-0.34142 -7.87084 0.0
-0.075184 -9.90922 0.0
-0.0427039 -9.89784 0.0
-0.177351 -7.80826 0.0
-0.257092 -7.8336 0.0
-0.056106 -9.90171 0.0
-0.0229806 -9.89402 0.0
-0.0905089 -7.79145 0.0
-0.171258 -7.80678 0.0
-0.0366115 -9.89637 0.0
-0.00308327 -9.89249 0.0
-0.00308327 -7.78557 0.0
-0.0843603 -7.7907 0.0
-0.0168321 -9.89328 0.0
0.0168334 -9.89328 0.0
0.0843616 -7.7907 0.0
0.00308458 -7.78557 0.0
0.00308458 -9.89249 0.0
0.0366128 -9.89637 0.0
0.17126 -7.80678 0.0
0.0905102 -7.79145 0.0
0.0229819 -9.89402 0.0
0.0561073 -9.90171 0.0
0.257093 -7.8336 0.0
0.177352 -7.80826 0.0
0.0427053 -9.89784 0.0
0.0751853 -9.90922 0.0
0.341421 -7.87084 0.0
0.263097 -7.83579 0.0
0.0621114 -9.9039 0.0
0.0937339 -9.9188 0.0
0.423885 -7.91815 0.0
0.34731 -7.87371 0.0
0.0810743 -9.9121 0.0
0.111657 -9.93032 0.0
0.504187 -7.97516 0.0
0.429637 -7.92169 0.0
0.0994862 -9.92234 0.0
0.128873 -9.94368 0.0
0.582075 -8.04152 0.0
0.509785 -7.97935 0.0
0.117255 -9.93451 0.0
0.145307 -9.95873 0.0
0.657314 -8.11687 0.0
0.587501 -8.04633 0.0
0.134299 -9.94848 0.0
0.160891 -9.97534 0.0
0.729682 -8.20085 0.0
0.662554 -8.12227 0.0
0.150547 -9.96413 0.0
0.175562 -9.99336 0.0
0.798956 -8.29309 0.0
0.734721 -8.20683 0.0
0.16593 -9.98131 0.0
0.189257 -10.0126 0.0
0.864919 -8.3932 0.0
0.80378 -8.29961 0.0
0.180385 -9.99988 0.0
0.201923 -10.0329 0.0
0.927356 -8.50076 0.0
0.869514 -8.40024 0.0
0.193852 -10.0197 0.0
0.213512 -10.0541 0.0
0.986056 -8.61532 0.0
0.931708 -8.50828 0.0
0.206276 -10.0405 0.0
0.223987 -10.0759 0.0
1.04082 -8.73641 0.0
0.990154 -8.6233 0.0
0.21761 -10.0621 0.0
0.233329 -10.0981 0.0
1.09147 -8.86349 0.0
1.04465 -8.74481 0.0
0.227819 -10.0843 0.0
0.241536 -10.1204 0.0
1.13781 -8.99602 0.0
1.09502 -8.87229 0.0
0.236882 -10.1069 0.0
0.248631 -10.1426 0.0
1.17969 -9.13332 0.0
1.14107 -9.00516 0.0
0.244799 -10.1296 0.0
0.254665 -10.1643 0.0
1.21693 -9.27464 0.0
1.18265 -9.14278 0.0
0.251592 -10.152 0.0
0.25971 -10.1855 0.0
1.24938 -9.41897 0.0
1.21957 -9.28435 0.0
0.257309 -10.1741 0.0
0.263861 -10.2057 0.0
1.2769 -9.5649 0.0
1.25169 -9.42885 0.0
0.26202 -10.1953 0.0
0.267223 -10.2248 0.0
1.29939 -9.71027 0.0
1.27886 -9.57484 0.0
0.26582 -10.2156 0.0
0.269903 -10.2425 0.0
1.31692 -9.85174 0.0
1.30099 -9.72008 0.0
0.268816 -10.2346 0.0
0.271993 -10.2587 0.0
1.32977 -9.98418 0.0
1.31814 -9.86114 0.0
0.27112 -10.2519 0.0
0.273558 -10.2728 0.0
1.33849 -10.1004 0.0
1.33061 -9.99272 0.0
0.272829 -10.2672 0.0
0.274613 -10.2845 0.0
1.34379 -10.1922 0.0
1.33893 -10.1076 0.0
0.273995 -10.28 0.0
-1.46256 -10.1808 0.0
-1.45769 -10.0962 0.0
-2.68847 -9.94411 0.0
-2.69737 -10.1338 0.0
-1.45663 -10.078 0.0
-1.44874 -9.9703 0.0
-2.67149 -9.68399 0.0
-2.68741 -9.92593 0.0
-1.44672 -9.94881 0.0
-1.43509 -9.82576 0.0
-2.64508 -9.39419 0.0
-2.66947 -9.6625 0.0
-1.43232 -9.80262 0.0
-1.41639 -9.67096 0.0
-2.60873 -9.09262 0.0
-2.64231 -9.37105 0.0
-1.41291 -9.64718 0.0
-1.39237 -9.51175 0.0
-2.56229 -8.78894 0.0
-2.60525 -9.06884 0.0
-1.38816 -9.48792 0.0
-1.36295 -9.35187 0.0
-2.50585 -8.48826 0.0
-2.55808 -8.76511 0.0
-1.358 -9.32832 0.0
-1.32819 -9.1937 0.0
-2.43962 -8.19352 0.0
-2.5009 -8.46471 0.0
-1.3225 -9.17064 0.0
-1.28822 -9.03878 0.0
-2.36384 -7.90663 0.0
-2.43393 -8.17046 0.0
-1.2818 -9.01637 0.0
-1.24319 -8.88821 0.0
-2.27883 -7.62905 0.0
-2.35742 -7.88422 0.0
-1.23605 -8.86657 0.0
-1.19326 -8.74284 0.0
-2.18491 -7.362 0.0
-2.27169 -7.6074 0.0
-1.18544 -8.72207 0.0
-1.13862 -8.60339 0.0
-2.08244 -7.10658 0.0
-2.17708 -7.34122 0.0
-1.13013 -8.58357 0.0
-1.07946 -8.47046 0.0
-1.97183 -6.86382 0.0
-2.07395 -7.08676 0.0
-1.07034 -8.45168 0.0
-1.01599 -8.34464 0.0
-1.85348 -6.63464 0.0
-1.96271 -6.84503 0.0
-1.00627 -8.32697 0.0
-0.948425 -8.22645 0.0
-1.72785 -6.41994 0.0
-1.84376 -6.61697 0.0
-0.938134 -8.20996 0.0
-0.876994 -8.11638 0.0
-1.59538 -6.22054 0.0
-1.71756 -6.40345 0.0
-0.866173 -8.10113 0.0
-0.801938 -8.01487 0.0
-1.45657 -6.03721 0.0
-1.58456 -6.2053 0.0
-0.790624 -8.00094 0.0
-0.723496 -7.92236 0.0
-1.31188 -5.87064 0.0
-1.44525 -6.02327 0.0
-0.711729 -7.90979 0.0
-0.641915 -7.83925 0.0
-1.16182 -5.72152 0.0
-1.30011 -5.85808 0.0
-0.629732 -7.8281 0.0
-0.557442 -7.76592 0.0
-1.00688 -5.59045 0.0
-1.14964 -5.71037 0.0
-0.544883 -7.75625 0.0
-0.470333 -7.70277 0.0
-0.847587 -5.47804 0.0
-0.994325 -5.58077 0.0
-0.45744 -7.69461 0.0
-0.380866 -7.65018 0.0
-0.684473 -5.38486 0.0
-0.834695 -5.46988 0.0
-0.367685 -7.64359 0.0
-0.289361 -7.60853 0.0
-0.51813 -5.31145 0.0
-0.671292 -5.37826 0.0
-0.275943 -7.60355 0.0
-0.196202 -7.57821 0.0
-0.349227 -5.25833 0.0
-0.504712 -5.30646 0.0
-0.182606 -7.57486 0.0
-0.101856 -7.55952 0.0
-0.178524 -5.22593 0.0
-0.335631 -5.25499 0.0
-0.088149 -7.55784 0.0
-0.00687197 -7.5527 0.0
-0.00687197 -5.21453 0.0
-0.164816 -5.22425 0.0
0.00687328 -7.5527 0.0
0.0881504 -7.55784 0.0
0.164818 -5.22425 0.0
0.00687328 -5.21453 0.0
0.101858 -7.55952 0.0
0.182607 -7.57486 0.0
0.335632 -5.25499 0.0
0.178525 -5.22593 0.0
0.196203 -7.57821 0.0
0.275944 -7.60355 0.0
0.504714 -5.30646 0.0
0.349228 -5.25833 0.0
0.289362 -7.60853 0.0
0.367686 -7.64359 0.0
0.671293 -5.37826 0.0
0.518132 -5.31145 0.0
0.380867 -7.65018 0.0
0.457442 -7.69461 0.0
0.834696 -5.46988 0.0
0.684474 -5.38486 0.0
0.470334 -7.70277 0.0
0.544885 -7.75625 0.0
0.994326 -5.58077 0.0
0.847589 -5.47804 0.0
0.557443 -7.76592 0.0
0.629734 -7.8281 0.0
1.14964 -5.71037 0.0
1.00688 -5.59045 0.0
0.641917 -7.83925 0.0
0.71173 -7.90979 0.0
1.30011 -5.85808 0.0
1.16182 -5.72152 0.0
0.723498 -7.92236 0.0
0.790626 -8.00094 0.0
1.44525 -6.02327 0.0
1.31188 -5.87064 0.0
0.801939 -8.01487 0.0
0.866175 -8.10113 0.0
1.58456 -6.2053 0.0
1.45657 -6.03721 0.0
0.876996 -8.11638 0.0
0.938135 -8.20996 0.0
1.71756 -6.40345 0.0
1.59538 -6.22054 0.0
0.948426 -8.22645 0.0
1.00627 -8.32697 0.0
1.84376 -6.61697 0.0
1.72785 -6.41994 0.0
1.01599 -8.34464 0.0
1.07034 -8.45168 0.0
1.96271 -6.84503 0.0
1.85348 -6.63464 0.0
1.07947 -8.47046 0.0
1.13013 -8.58357 0.0
2.07395 -7.08676 0.0
1.97183 -6.86382 0.0
1.13863 -8.60339 0.0
1.18544 -8.72207 0.0
2.17708 -7.34122 0.0
2.08245 -7.10658 0.0
1.19326 -8.74284 0.0
1.23605 -8.86657 0.0
2.27169 -7.6074 0.0
2.18491 -7.362 0.0
1.24319 -8.88821 0.0
1.2818 -9.01637 0.0
2.35742 -7.88422 0.0
2.27883 -7.62905 0.0
1.28822 -9.03878 0.0
1.3225 -9.17064 0.0
2.43393 -8.17046 0.0
2.36384 -7.90663 0.0
1.32819 -9.1937 0.0
1.358 -9.32832 0.0
2.50091 -8.46471 0.0
2.43962 -8.19352 0.0
1.36295 -9.35187 0.0
1.38816 -9.48792 0.0
2.55808 -8.76511 0.0
2.50586 -8.48826 0.0
1.39237 -9.51175 0.0
1.41291 -9.64718 0.0
2.60525 -9.06884 0.0
2.56229 -8.78894 0.0
1.41639 -9.67096 0.0
1.43232 -9.80262 0.0
2.64231 -9.37105 0.0
2.60873 -9.09262 0.0
1.43509 -9.82576 0.0
1.44672 -9.94881 0.0
2.66947 -9.6625 0.0
2.64508 -9.39419 0.0
1.44874 -9.9703 0.0
1.45663 -10.078 0.0
2.68741 -9.92593 0.0
2.67149 -9.68399 0.0
1.45769 -10.0962 0.0
1.46256 -10.1808 0.0
2.69737 -10.1338 0.0
2.68847 -9.94411 0.0
-2.82253 -9.9341 0.0
-4.06165 -9.78948 0.0
-4.07362 -10.0952 0.0
-2.83143 -10.1238 0.0
-2.80479 -9.66043 0.0
-4.03662 -9.37226 0.0
-4.05983 -9.75775 0.0
-2.82071 -9.90237 0.0
-2.77733 -9.35509 0.0
-3.99701 -8.91746 0.0
-4.03355 -9.33523 0.0
-2.80172 -9.6234 0.0
-2.73949 -9.0375 0.0
-3.94211 -8.45187 0.0
-3.99275 -8.8783 0.0
-2.77307 -9.31593 0.0
-2.69103 -8.71793 0.0
-3.87182 -7.98756 0.0
-3.93661 -8.41221 0.0
-2.73398 -8.99784 0.0
-2.63203 -8.40171 0.0
-3.78633 -7.53027 0.0
-3.86505 -7.94819 0.0
-2.68426 -8.67856 0.0
-2.56271 -8.09184 0.0
-3.68597 -7.08326 0.0
-3.77829 -7.4916 0.0
-2.62399 -8.36304 0.0
-2.48334 -7.79029 0.0
-3.57115 -6.64881 0.0
-3.67669 -7.04554 0.0
-2.55343 -8.05412 0.0
-2.39425 -7.49854 0.0
-3.44232 -6.22882 0.0
-3.56066 -6.61224 0.0
-2.47285 -7.75372 0.0
-2.2958 -7.21788 0.0
-3.3 -5.825 0.0
-3.43066 -6.19356 0.0
-2.38259 -7.46329 0.0
-2.18837 -6.94944 0.0
-3.14473 -5.43895 0.0
-3.2872 -5.7912 0.0
-2.283 -7.18408 0.0
-2.07236 -6.69428 0.0
-2.97712 -5.07218 0.0
-3.13085 -5.40674 0.0
-2.17449 -6.91723 0.0
-1.94823 -6.45339 0.0
-2.79783 -4.72609 0.0
-2.96221 -5.04168 0.0
-2.05746 -6.66378 0.0
-1.81645 -6.2277 0.0
-2.60753 -4.40204 0.0
-2.78195 -4.69743 0.0
-1.93236 -6.42473 0.0
-1.67749 -6.01807 0.0
-2.40695 -4.10125 0.0
-2.59074 -4.37532 0.0
-1.79966 -6.20098 0.0
-1.53185 -5.8253 0.0
-2.19683 -3.8249 0.0
-2.38931 -4.07658 0.0
-1.65985 -5.9934 0.0
-1.38006 -5.65014 0.0
-1.97793 -3.57404 0.0
-2.17841 -3.80236 0.0
-1.51343 -5.80277 0.0
-1.22262 -5.49328 0.0
-1.75105 -3.34966 0.0
-1.95879 -3.55373 0.0
-1.36092 -5.62984 0.0
-1.06008 -5.35538 0.0
-1.51697 -3.15268 0.0
-1.73126 -3.33167 0.0
-1.20283 -5.47529 0.0
-0.892963 -5.23704 0.0
-1.27652 -2.98396 0.0
-1.49659 -3.13708 0.0
-1.0397 -5.33978 0.0
-0.72185 -5.13888 0.0
-1.03055 -2.84428 0.0
-1.25563 -2.97082 0.0
-0.872072 -5.22391 0.0
-0.547361 -5.06146 0.0
-0.779974 -2.73439 0.0
-1.00922 -2.83367 0.0
-0.700522 -5.12827 0.0
-0.370192 -5.00532 0.0
-0.52579 -2.65495 0.0
-0.758291 -2.72637 0.0
-0.525677 -5.05344 0.0
-0.191138 -4.97088 0.0
-0.269093 -2.6065 0.0
-0.503842 -2.64957 0.0
-0.348245 -4.99994 0.0
-0.0110824 -4.95846 0.0
-0.0110824 -2.5894 0.0
-0.246983 -2.6038 0.0
-0.169027 -4.96818 0.0
0.169028 -4.96818 0.0
0.246984 -2.6038 0.0
0.0110837 -2.5894 0.0
0.0110837 -4.95846 0.0
0.348246 -4.99994 0.0
0.503844 -2.64957 0.0
0.269095 -2.6065 0.0
0.191139 -4.97088 0.0
0.525679 -5.05344 0.0
0.758292 -2.72637 0.0
0.525791 -2.65495 0.0
0.370193 -5.00532 0.0
0.700523 -5.12827 0.0
1.00922 -2.83367 0.0
0.779975 -2.73439 0.0
0.547362 -5.06146 0.0
0.872073 -5.22391 0.0
1.25563 -2.97082 0.0
1.03055 -2.84428 0.0
0.721851 -5.13888 0.0
1.0397 -5.33978 0.0
1.49659 -3.13708 0.0
1.27652 -2.98396 0.0
0.892964 -5.23704 0.0
1.20283 -5.47529 0.0
1.73126 -3.33167 0.0
1.51697 -3.15268 0.0
1.06008 -5.35538 0.0
1.36092 -5.62984 0.0
1.95879 -3.55373 0.0
1.75105 -3.34966 0.0
1.22262 -5.49328 0.0
1.51343 -5.80277 0.0
2.17841 -3.80236 0.0
1.97794 -3.57404 0.0
1.38006 -5.65014 0.0
1.65985 -5.9934 0.0
2.38931 -4.07658 0.0
2.19683 -3.8249 0.0
1.53185 -5.8253 0.0
1.79966 -6.20098 0.0
2.59074 -4.37532 0.0
2.40695 -4.10125 0.0
1.67749 -6.01807 0.0
1.93236 -6.42473 0.0
2.78195 -4.69743 0.0
2.60753 -4.40204 0.0
1.81645 -6.2277 0.0
2.05746 -6.66378 0.0
2.96221 -5.04168 0.0
2.79783 -4.72609 0.0
1.94824 -6.45339 0.0
2.17449 -6.91723 0.0
3.13085 -5.40674 0.0
2.97712 -5.07218 0.0
2.07236 -6.69428 0.0
2.283 -7.18408 0.0
3.2872 -5.7912 0.0
3.14473 -5.43895 0.0
2.18837 -6.94944 0.0
2.38259 -7.46329 0.0
3.43066 -6.19356 0.0
3.3 -5.825 0.0
2.2958 -7.21788 0.0
2.47285 -7.75372 0.0
3.56066 -6.61224 0.0
3.44233 -6.22882 0.0
2.39426 -7.49854 0.0
2.55343 -8.05412 0.0
3.6767 -7.04554 0.0
3.57115 -6.64881 0.0
2.48334 -7.79029 0.0
2.62399 -8.36304 0.0
3.7783 -7.4916 0.0
3.68598 -7.08326 0.0
2.56271 -8.09184 0.0
2.68426 -8.67856 0.0
3.86505 -7.94819 0.0
3.78633 -7.53027 0.0
2.63203 -8.40171 0.0
2.73398 -8.99784 0.0
3.93661 -8.41221 0.0
3.87182 -7.98756 0.0
2.69103 -8.71793 0.0
2.77307 -9.31593 0.0
3.99275 -8.8783 0.0
3.94211 -8.45187 0.0
2.73949 -9.0375 0.0
2.80173 -9.6234 0.0
4.03356 -9.33523 0.0
3.99702 -8.91746 0.0
2.77734 -9.35509 0.0
2.82071 -9.90237 0.0
4.05983 -9.75775 0.0
4.03663 -9.37226 0.0
2.80479 -9.66043 0.0
2.82253 -9.9341 0.0
2.83143 -10.1238 0.0
4.07362 -10.0952 0.0
4.06165 -9.78948 0.0
-4.19804 -9.78025 0.0
-5.43851 -9.63696 0.0
-5.45329 -10.066 0.0
-4.21001 -10.086 0.0
-4.17242 -9.34845 0.0
-5.40569 -9.05775 0.0
-5.43609 -9.59065 0.0
-4.19562 -9.73394 0.0
-4.13181 -8.87742 0.0
-5.35295 -8.43669 0.0
-5.40162 -9.00448 0.0
-4.16835 -9.29518 0.0
-4.07537 -8.39545 0.0
-5.27949 -7.80723 0.0
-5.34715 -8.38115 0.0
-4.12601 -8.82188 0.0
-4.00299 -7.91505 0.0
-5.18531 -7.18263 0.0
-5.2719 -7.75147 0.0
-4.06778 -8.3397 0.0
-3.91487 -7.44205 0.0
-5.07072 -6.5689 0.0
-5.17591 -7.12754 0.0
-3.99359 -7.85996 0.0
-3.81137 -6.97973 0.0
-4.9362 -5.96956 0.0
-5.05954 -6.51491 0.0
-3.90369 -7.38807 0.0
-3.6929 -6.53042 0.0
-4.78227 -5.38734 0.0
-4.92327 -5.91698 0.0
-3.79844 -6.92715 0.0
-3.55994 -6.09605 0.0
-4.60956 -4.82463 0.0
-4.76765 -5.3364 0.0
-3.67827 -6.47947 0.0
-3.41301 -5.67839 0.0
-4.41873 -4.28367 0.0
-4.59329 -4.77553 0.0
-3.54367 -6.04695 0.0
-3.25269 -5.27908 0.0
-4.21055 -3.76657 0.0
-4.40089 -4.23661 0.0
-3.39516 -5.63133 0.0
-3.07961 -4.89968 0.0
-3.98583 -3.27535 0.0
-4.1912 -3.72173 0.0
-3.23334 -5.23424 0.0
-2.89444 -4.54166 0.0
-3.74544 -2.81193 0.0
-3.96505 -3.23291 0.0
-3.05883 -4.85724 0.0
-2.69789 -4.20639 0.0
-3.49032 -2.37808 0.0
-3.72331 -2.77205 0.0
-2.87231 -4.50178 0.0
-2.49069 -3.89516 0.0
-3.22142 -1.9755 0.0
-3.46691 -2.34092 0.0
-2.67449 -4.16923 0.0
-2.27363 -3.60918 0.0
-2.93978 -1.60573 0.0
-3.19684 -1.94119 0.0
-2.46611 -3.86086 0.0
-2.04749 -3.34954 0.0
-2.64643 -1.2702 0.0
-2.91411 -1.57441 0.0
-2.24796 -3.57786 0.0
-1.81309 -3.11726 0.0
-2.34245 -0.970251 0.0
-2.61977 -1.24201 0.0
-2.02083 -3.32134 0.0
-1.57124 -2.91331 0.0
-2.02895 -0.707081 0.0
-2.3149 -0.945282 0.0
-1.78553 -3.09229 0.0
-1.32281 -2.73854 0.0
-1.70704 -0.481807 0.0
-2.00059 -0.685444 0.0
-1.54289 -2.89167 0.0
-1.06868 -2.59379 0.0
-1.37792 -0.295449 0.0
-1.67799 -0.463597 0.0
-1.29376 -2.72033 0.0
-0.809792 -2.47982 0.0
-1.04281 -0.148936 0.0
-1.34828 -0.280755 0.0
-1.03904 -2.5791 0.0
-0.547174 -2.3973 0.0
-0.703036 -0.0430754 0.0
-1.01269 -0.137835 0.0
-0.779676 -2.46872 0.0
-0.281959 -2.34679 0.0
-0.360046 0.0214793 0.0
-0.672569 -0.0356343 0.0
-0.516708 -2.38986 0.0
-0.0153767 -2.32866 0.0
-0.0153767 0.0442956 0.0
-0.329364 0.0252128 0.0
-0.251277 -2.34305 0.0
0.251278 -2.34305 0.0
0.329365 0.0252128 0.0
0.0153781 0.0442956 0.0
0.0153781 -2.32866 0.0
0.516709 -2.38986 0.0
0.672571 -0.0356343 0.0
0.360047 0.0214793 0.0
0.28196 -2.34679 0.0
0.779677 -2.46872 0.0
1.01269 -0.137835 0.0
0.703037 -0.0430754 0.0
0.547176 -2.3973 0.0
1.03904 -2.5791 0.0
1.34828 -0.280755 0.0
1.04281 -0.148936 0.0
0.809793 -2.47982 0.0
1.29376 -2.72033 0.0
1.67799 -0.463597 0.0
1.37792 -0.295449 0.0
1.06868 -2.59379 0.0
1.54289 -2.89167 0.0
2.00059 -0.685444 0.0
1.70705 -0.481807 0.0
1.32281 -2.73854 0.0
1.78553 -3.09229 0.0
2.3149 -0.945282 0.0
2.02895 -0.707081 0.0
1.57124 -2.91331 0.0
2.02083 -3.32134 0.0
2.61977 -1.24201 0.0
2.34245 -0.970251 0.0
1.81309 -3.11726 0.0
2.24796 -3.57786 0.0
2.91411 -1.57441 0.0
2.64643 -1.2702 0.0
2.04749 -3.34954 0.0
2.46611 -3.86086 0.0
3.19684 -1.94119 0.0
2.93978 -1.60573 0.0
2.27363 -3.60918 0.0
2.67449 -4.16923 0.0
3.46692 -2.34092 0.0
3.22142 -1.9755 0.0
2.49069 -3.89516 0.0
2.87231 -4.50178 0.0
3.72331 -2.77205 0.0
3.49032 -2.37808 0.0
2.69789 -4.20639 0.0
3.05883 -4.85724 0.0
3.96505 -3.23291 0.0
3.74545 -2.81193 0.0
2.89444 -4.54166 0.0
3.23334 -5.23424 0.0
4.1912 -3.72173 0.0
3.98583 -3.27535 0.0
3.07961 -4.89968 0.0
3.39516 -5.63133 0.0
4.40089 -4.23661 0.0
4.21056 -3.76657 0.0
3.25269 -5.27908 0.0
3.54367 -6.04695 0.0
4.59329 -4.77553 0.0
4.41874 -4.28367 0.0
3.41301 -5.67839 0.0
3.67827 -6.47947 0.0
4.76765 -5.3364 0.0
4.60956 -4.82463 0.0
3.55994 -6.09605 0.0
3.79844 -6.92715 0.0
4.92327 -5.91698 0.0
4.78228 -5.38734 0.0
3.6929 -6.53042 0.0
3.90369 -7.38807 0.0
5.05954 -6.51491 0.0
4.9362 -5.96956 0.0
3.81137 -6.97973 0.0
3.99359 -7.85996 0.0
5.17591 -7.12754 0.0
5.07073 -6.5689 0.0
3.91487 -7.44205 0.0
4.06778 -8.3397 0.0
5.2719 -7.75147 0.0
5.18531 -7.18263 0.0
4.00299 -7.91505 0.0
4.12601 -8.82188 0.0
5.34715 -8.38115 0.0
5.27949 -7.80723 0.0
4.07537 -8.39545 0.0
4.16835 -9.29518 0.0
5.40162 -9.00448 0.0
5.35295 -8.43669 0.0
4.13181 -8.87742 0.0
4.19563 -9.73394 0.0
5.43609 -9.59065 0.0
5.40569 -9.05775 0.0
4.17242 -9.34845 0.0
4.19804 -9.78025 0.0
4.21001 -10.086 0.0
5.4533 -10.066 0.0
5.43851 -9.63696 0.0
-5.57564 -9.62809 0.0
-6.81637 -9.48478 0.0
-6.83386 -10.0421 0.0
-5.59043 -10.0572 0.0
-5.54227 -9.03374 0.0
-6.7758 -8.74127 0.0
-6.8134 -9.42333 0.0
-5.57267 -9.56663 0.0
-5.48851 -8.3962 0.0
-6.70989 -7.95393 0.0
-6.77071 -8.67152 0.0
-5.53718 -8.96399 0.0
-5.41348 -7.75031 0.0
-6.61782 -7.1611 0.0
-6.70252 -7.88197 0.0
-5.48114 -8.32423 0.0
-5.31717 -7.10962 0.0
-6.49971 -6.37661 0.0
-6.6081 -7.08925 0.0
-5.40376 -7.67846 0.0
-5.19993 -6.48015 0.0
-6.356 -5.60661 0.0
-6.48765 -6.30579 0.0
-5.30512 -7.0388 0.0
-5.06224 -5.86547 0.0
-6.18728 -4.85501 0.0
-6.34164 -5.53729 0.0
-5.18558 -6.41083 0.0
-4.90464 -5.26834 0.0
-5.99422 -4.125 0.0
-6.17068 -4.78752 0.0
-5.04564 -5.79798 0.0
-4.72777 -4.69119 0.0
-5.77759 -3.41951 0.0
-5.97544 -4.05962 0.0
-4.88586 -5.20296 0.0
-4.53232 -4.13632 0.0
-5.53824 -2.74133 0.0
-5.7567 -3.35651 0.0
-4.70688 -4.62819 0.0
-4.31907 -3.6059 0.0
-5.27712 -2.0931 0.0
-5.51532 -2.68094 0.0
-4.50941 -4.07594 0.0
-4.08885 -3.102 0.0
-4.99524 -1.47735 0.0
-5.25227 -2.03557 0.0
-4.29422 -3.54837 0.0
-3.84256 -2.62657 0.0
-4.69372 -0.896498 0.0
-4.96856 -1.42291 0.0
-4.06216 -3.04755 0.0
-3.58114 -2.18145 0.0
-4.37372 -0.352782 0.0
-4.6653 -0.845345 0.0
-3.81413 -2.57541 0.0
-3.3056 -1.76836 0.0
-4.03647 0.151684 0.0
-4.34367 -0.305121 0.0
-3.55109 -2.13379 0.0
-3.01698 -1.38891 0.0
-3.68324 0.614943 0.0
-4.00491 0.195669 0.0
-3.27404 -1.72438 0.0
-2.71635 -1.04456 0.0
-3.31539 1.03519 0.0
-3.65029 0.655081 0.0
-2.98403 -1.34877 0.0
-2.40481 -0.736675 0.0
-2.93426 1.41077 0.0
-3.28117 1.07132 0.0
-2.68213 -1.00843 0.0
-2.0835 -0.46649 0.0
-2.54127 1.74018 0.0
-2.8989 1.44276 0.0
-2.36945 -0.704691 0.0
-1.75357 -0.23515 0.0
-2.13786 2.02204 0.0
-2.50489 1.76788 0.0
-2.04712 -0.438787 0.0
-1.41624 -0.0436983 0.0
-1.72551 2.2551 0.0
-2.1006 2.04534 0.0
-1.71632 -0.211846 0.0
-1.07277 0.106916 0.0
-1.30581 2.43826 0.0
-1.68752 2.2739 0.0
-1.37824 -0.0249032 0.0
-0.724527 0.215868 0.0
-0.880401 2.57055 0.0
-1.26722 2.45245 0.0
-1.03418 0.121108 0.0
-0.372975 0.282491 0.0
-0.451068 2.65121 0.0
-0.841372 2.58005 0.0
-0.685499 0.225378 0.0
-0.0196924 0.306344 0.0
-0.0196924 2.67975 0.0
-0.411772 2.65598 0.0
-0.33368 0.287261 0.0
0.333681 0.287261 0.0
0.411773 2.65598 0.0
0.0196937 2.67975 0.0
0.0196937 0.306344 0.0
0.6855 0.225378 0.0
0.841374 2.58005 0.0
0.451069 2.65121 0.0
0.372977 0.282491 0.0
1.03418 0.121108 0.0
1.26722 2.45245 0.0
0.880402 2.57055 0.0
0.724529 0.215868 0.0
1.37825 -0.0249032 0.0
1.68752 2.2739 0.0
1.30581 2.43826 0.0
1.07277 0.106916 0.0
1.71632 -0.211846 0.0
2.1006 2.04534 0.0
1.72552 2.2551 0.0
1.41624 -0.0436983 0.0
2.04712 -0.438787 0.0
2.50489 1.76788 0.0
2.13786 2.02204 0.0
1.75358 -0.23515 0.0
2.36945 -0.704691 0.0
2.8989 1.44276 0.0
2.54127 1.74018 0.0
2.0835 -0.46649 0.0
2.68213 -1.00843 0.0
3.28117 1.07132 0.0
2.93426 1.41077 0.0
2.40481 -0.736675 0.0
2.98403 -1.34877 0.0
3.6503 0.655081 0.0
3.31539 1.03519 0.0
2.71635 -1.04456 0.0
3.27404 -1.72438 0.0
4.00491 0.195669 0.0
3.68325 0.614943 0.0
3.01698 -1.38891 0.0
3.55109 -2.13379 0.0
4.34367 -0.305121 0.0
4.03647 0.151684 0.0
3.3056 -1.76836 0.0
3.81414 -2.57541 0.0
4.6653 -0.845345 0.0
4.37372 -0.352782 0.0
3.58114 -2.18145 0.0
4.06216 -3.04755 0.0
4.96856 -1.42291 0.0
4.69372 -0.896498 0.0
3.84256 -2.62657 0.0
4.29422 -3.54837 0.0
5.25227 -2.03557 0.0
4.99525 -1.47735 0.0
4.08885 -3.102 0.0
4.50941 -4.07594 0.0
5.51532 -2.68094 0.0
5.27712 -2.0931 0.0
4.31907 -3.6059 0.0
4.70688 -4.62819 0.0
5.7567 -3.35651 0.0
5.53824 -2.74133 0.0
4.53232 -4.13632 0.0
4.88586 -5.20296 0.0
5.97544 -4.05962 0.0
5.77759 -3.41951 0.0
4.72777 -4.69119 0.0
5.04564 -5.79798 0.0
6.17068 -4.78752 0.0
5.99422 -4.125 0.0
4.90464 -5.26834 0.0
5.18558 -6.41083 0.0
6.34165 -5.53729 0.0
6.18728 -4.85501 0.0
5.06224 -5.86547 0.0
5.30512 -7.0388 0.0
6.48765 -6.30579 0.0
6.356 -5.60661 0.0
5.19994 -6.48015 0.0
5.40377 -7.67846 0.0
6.6081 -7.08925 0.0
6.49971 -6.37661 0.0
5.31717 -7.10962 0.0
5.48114 -8.32423 0.0
6.70252 -7.88197 0.0
6.61782 -7.1611 0.0
5.41348 -7.75031 0.0
5.53718 -8.96399 0.0
6.77071 -8.67152 0.0
6.70989 -7.95393 0.0
5.48852 -8.3962 0.0
5.57267 -9.56663 0.0
6.8134 -9.42333 0.0
6.7758 -8.74127 0.0
5.54227 -9.03374 0.0
5.57564 -9.62809 0.0
5.59043 -10.0572 0.0
6.83386 -10.0421 0.0
6.81637 -9.48478 0.0
-6.95382 -9.4761 0.0
-8.1946 -9.3324 0.0
-8.21472 -10.0217 0.0
-6.97131 -10.0335 0.0
-6.91272 -8.71711 0.0
-8.14628 -8.42344 0.0
-8.1911 -9.25547 0.0
-6.95032 -9.39917 0.0
-6.84577 -7.9132 0.0
-8.06716 -7.4701 0.0
-8.14015 -8.33712 0.0
-6.90659 -8.6308 0.0
-6.7521 -7.10397 0.0
-7.95644 -6.51433 0.0
-8.05819 -7.38173 0.0
-6.8368 -7.82483 0.0
-6.63185 -6.30339 0.0
-7.81439 -5.57018 0.0
-7.94459 -6.42639 0.0
-6.74025 -7.01603 0.0
-6.48548 -5.51766 0.0
-7.64155 -4.64404 0.0
-7.79967 -5.48362 0.0
-6.61713 -6.21683 0.0
-6.31358 -4.7507 0.0
-7.43862 -3.7402 0.0
-7.62401 -4.55936 0.0
-6.46794 -5.43298 0.0
-6.11684 -4.00575 0.0
-7.20642 -2.8624 0.0
-7.41834 -3.65777 0.0
-6.29329 -4.66827 0.0
-5.89604 -3.2858 0.0
-6.94586 -2.01411 0.0
-7.18347 -2.78256 0.0
-6.09389 -3.92591 0.0
-5.65206 -2.59368 0.0
-6.65798 -1.19868 0.0
-6.92034 -1.93717 0.0
-5.87052 -3.20886 0.0
-5.38586 -1.9321 0.0
-6.3439 -0.419287 0.0
-6.62998 -1.12494 0.0
-5.62406 -2.51994 0.0
-5.09847 -1.30364 0.0
-6.00486 0.321008 0.0
-6.31354 -0.349044 0.0
-5.35549 -1.86186 0.0
-4.79103 -0.710756 0.0
-5.64219 1.01932 0.0
-5.97226 0.387484 0.0
-5.06587 -1.23717 0.0
-4.46473 -0.155744 0.0
-5.2573 1.67293 0.0
-5.60747 1.08177 0.0
-4.75631 -0.648307 0.0
-4.12081 0.359241 0.0
-4.85167 2.2793 0.0
-5.22059 1.73111 0.0
-4.42802 -0.0975638 0.0
-3.7606 0.832201 0.0
-4.42686 2.83607 0.0
-4.81312 2.33298 0.0
-4.08226 0.412926 0.0
-3.38544 1.26129 0.0
-3.98447 3.34105 0.0
-4.38661 2.88505 0.0
-3.72035 0.881181 0.0
-2.99674 1.64483 0.0
-3.52618 3.79228 0.0
-3.94268 3.38514 0.0
-3.34365 1.30538 0.0
-2.59593 1.98126 0.0
-3.05368 4.18794 0.0
-3.483 3.83129 0.0
-2.95356 1.68384 0.0
-2.18448 2.2692 0.0
-2.56874 4.52639 0.0
-3.00927 4.22172 0.0
-2.55151 2.01504 0.0
-1.76391 2.50736 0.0
-2.07317 4.80616 0.0
-2.52326 4.55479 0.0
-2.139 2.2976 0.0
-1.33583 2.69462 0.0
-1.56885 5.02595 0.0
-2.0268 4.82906 0.0
-1.71754 2.53026 0.0
-0.901934 2.83001 0.0
-1.0578 5.18467 0.0
-1.52177 5.04324 0.0
-1.28875 2.71191 0.0
-0.464022 2.91274 0.0
-0.542108 5.28144 0.0
-1.01019 5.19625 0.0
-0.854327 2.84159 0.0
-0.0240161 2.94232 0.0
-0.0240161 5.3157 0.0
-0.494182 5.28725 0.0
-0.416096 2.91855 0.0
0.416097 2.91855 0.0
0.494183 5.28725 0.0
0.0240175 5.3157 0.0
0.0240175 2.94232 0.0
0.854328 2.84159 0.0
1.01019 5.19625 0.0
0.542109 5.28144 0.0
0.464023 2.91274 0.0
1.28875 2.71191 0.0
1.52177 5.04324 0.0
1.0578 5.18467 0.0
0.901935 2.83001 0.0
1.71754 2.53026 0.0
2.0268 4.82906 0.0
1.56886 5.02595 0.0
1.33584 2.69462 0.0
2.139 2.2976 0.0
2.52326 4.55479 0.0
2.07317 4.80616 0.0
1.76392 2.50736 0.0
2.55152 2.01504 0.0
3.00927 4.22172 0.0
2.56874 4.52639 0.0
2.18448 2.2692 0.0
2.95356 1.68384 0.0
3.483 3.83129 0.0
3.05369 4.18794 0.0
2.59593 1.98126 0.0
3.34365 1.30538 0.0
3.94268 3.38514 0.0
3.52618 3.79228 0.0
2.99674 1.64483 0.0
3.72035 0.881181 0.0
4.38661 2.88505 0.0
3.98448 3.34105 0.0
3.38545 1.26129 0.0
4.08226 0.412926 0.0
4.81312 2.33298 0.0
4.42686 2.83607 0.0
3.7606 0.832201 0.0
4.42802 -0.0975638 0.0
5.22059 1.73111 0.0
4.85167 2.2793 0.0
4.12082 0.359241 0.0
4.75631 -0.648307 0.0
5.60747 1.08177 0.0
5.2573 1.67293 0.0
4.46473 -0.155744 0.0
5.06587 -1.23717 0.0
5.97226 0.387484 0.0
5.6422 1.01932 0.0
4.79103 -0.710756 0.0
5.3555 -1.86186 0.0
6.31354 -0.349044 0.0
6.00487 0.321008 0.0
5.09847 -1.30364 0.0
5.62406 -2.51994 0.0
6.62998 -1.12494 0.0
6.3439 -0.419287 0.0
5.38586 -1.9321 0.0
5.87052 -3.20886 0.0
6.92034 -1.93717 0.0
6.65798 -1.19868 0.0
5.65206 -2.59368 0.0
6.09389 -3.92591 0.0
7.18347 -2.78256 0.0
6.94586 -2.01411 0.0
5.89604 -3.2858 0.0
6.2933 -4.66827 0.0
7.41834 -3.65777 0.0
7.20642 -2.8624 0.0
6.11684 -4.00575 0.0
6.46794 -5.43298 0.0
7.62401 -4.55936 0.0
7.43862 -3.7402 0.0
6.31358 -4.7507 0.0
6.61713 -6.21683 0.0
7.79967 -5.48362 0.0
7.64155 -4.64404 0.0
6.48548 -5.51766 0.0
6.74025 -7.01603 0.0
7.94459 -6.42639 0.0
7.81439 -5.57018 0.0
6.63185 -6.30339 0.0
6.83681 -7.82483 0.0
8.05819 -7.38173 0.0
7.95645 -6.51433 0.0
6.75211 -7.10397 0.0
6.90659 -8.6308 0.0
8.14015 -8.33712 0.0
8.06716 -7.4701 0.0
6.84577 -7.9132 0.0
6.95032 -9.39917 0.0
8.1911 -9.25547 0.0
8.14628 -8.42344 0.0
6.91272 -8.71711 0.0
6.95382 -9.4761 0.0
6.97131 -10.0335 0.0
8.21473 -10.0217 0.0
8.1946 -9.3324 0.0
-8.33221 -9.32384 0.0
-9.57284 -9.17967 0.0
-9.59554 -10.0036 0.0
-8.35234 -10.0131 0.0
-8.28337 -8.39917 0.0
-9.51681 -8.10469 0.0
-9.56881 -9.08703 0.0
-8.32819 -9.2312 0.0
-8.20319 -7.42924 0.0
-9.42446 -6.98571 0.0
-9.50962 -8.00178 0.0
-8.27619 -8.29626 0.0
-8.09088 -6.45707 0.0
-9.29511 -5.86731 0.0
-9.41389 -6.88095 0.0
-8.19262 -7.32448 0.0
-7.94667 -5.49686 0.0
-9.12911 -4.76369 0.0
-9.28111 -5.7633 0.0
-8.07687 -6.35307 0.0
-7.77116 -4.55498 0.0
-8.92714 -3.68147 0.0
-9.11171 -4.66139 0.0
-7.92928 -5.39457 0.0
-7.56505 -3.63578 0.0
-8.69 -2.62543 0.0
-8.90641 -3.58142 0.0
-7.75044 -4.45494 0.0
-7.32916 -2.74303 0.0
-8.41865 -1.59984 0.0
-8.66603 -2.52805 0.0
-7.54108 -3.5384 0.0
-7.06443 -1.88027 0.0
-8.11416 -0.608757 0.0
-8.39154 -1.50552 0.0
-7.30204 -2.64871 0.0
-6.77191 -1.05088 0.0
-7.77774 0.343926 0.0
-8.084 -0.517869 0.0
-7.03427 -1.78938 0.0
-6.45275 -0.258131 0.0
-7.4107 1.25447 0.0
-7.74466 0.431026 0.0
-6.73883 -0.963784 0.0
-6.1082 0.494891 0.0
-7.0145 2.11932 0.0
-7.37483 1.33744 0.0
-6.41687 -0.175161 0.0
-5.7396 1.20524 0.0
-6.59068 2.93508 0.0
-6.97597 2.19783 0.0
-6.06967 0.573408 0.0
-5.3484 1.87016 0.0
-6.14089 3.69859 0.0
-6.54964 3.00884 0.0
-5.69857 1.279 0.0
-4.9361 2.48706 0.0
-5.66688 4.40685 0.0
-6.09751 3.7673 0.0
-5.30502 1.93887 0.0
-4.50429 3.05353 0.0
-5.17047 5.05712 0.0
-5.62132 4.47025 0.0
-4.89055 2.55045 0.0
-4.0546 3.56738 0.0
-4.65355 5.64685 0.0
-5.12291 5.11495 0.0
-4.45673 3.11137 0.0
-3.58872 4.02656 0.0
-4.11809 6.17371 0.0
-4.60417 5.69889 0.0
-4.00522 3.61942 0.0
-3.1084 4.42925 0.0
-3.56608 6.6356 0.0
-4.06707 6.21975 0.0
-3.53771 4.07261 0.0
-2.61541 4.77378 0.0
-2.99961 7.03062 0.0
-3.51362 6.67546 0.0
-3.05594 4.46911 0.0
-2.1116 5.05866 0.0
-2.4208 7.35708 0.0
-2.9459 7.06413 0.0
-2.5617 4.80729 0.0
-1.59891 5.28256 0.0
-1.83189 7.6135 0.0
-2.36605 7.38409 0.0
-2.05685 5.08567 0.0
-1.07935 5.44438 0.0
-1.23519 7.79863 0.0
-1.7763 7.63388 0.0
-1.54332 5.30295 0.0
-0.555074 5.54322 0.0
-0.633155 7.91152 0.0
-1.17899 7.81228 0.0
-1.02315 5.45803 0.0
-0.0283437 5.57852 0.0
-0.0283297 7.95147 0.0
-0.57659 7.91836 0.0
-0.498509 5.55007 0.0
0.498511 5.55006 0.0
0.576594 7.91836 0.0
0.0283599 7.95147 0.0
0.0283459 5.57852 0.0
1.02316 5.45803 0.0
1.17899 7.81228 0.0
0.633158 7.91151 0.0
0.555075 5.54322 0.0
1.54332 5.30295 0.0
1.7763 7.63388 0.0
1.23519 7.79863 0.0
1.07935 5.44438 0.0
2.05685 5.08567 0.0
2.36605 7.38409 0.0
1.83189 7.6135 0.0
1.59891 5.28256 0.0
2.5617 4.80729 0.0
2.9459 7.06413 0.0
2.42081 7.35708 0.0
2.11161 5.05866 0.0
3.05594 4.46911 0.0
3.51362 6.67546 0.0
2.99961 7.03062 0.0
2.61541 4.77378 0.0
3.53771 4.07261 0.0
4.06707 6.21975 0.0
3.56608 6.6356 0.0
3.1084 4.42925 0.0
4.00522 3.61942 0.0
4.60417 5.69889 0.0
4.11809 6.17371 0.0
3.58872 4.02656 0.0
4.45674 3.11137 0.0
5.12291 5.11495 0.0
4.65355 5.64685 0.0
4.0546 3.56738 0.0
4.89055 2.55045 0.0
5.62133 4.47025 0.0
5.17047 5.05712 0.0
4.50429 3.05353 0.0
5.30503 1.93887 0.0
6.09751 3.7673 0.0
5.66688 4.40685 0.0
4.9361 2.48706 0.0
5.69857 1.279 0.0
6.54964 3.00884 0.0
6.14089 3.69859 0.0
5.3484 1.87016 0.0
6.06967 0.573408 0.0
6.97597 2.19784 0.0
6.59068 2.93508 0.0
5.7396 1.20524 0.0
6.41687 -0.175161 0.0
7.37483 1.33744 0.0
7.0145 2.11932 0.0
6.1082 0.494891 0.0
6.73883 -0.963784 0.0
7.74466 0.431026 0.0
7.41071 1.25447 0.0
6.45275 -0.258131 0.0
7.03428 -1.78938 0.0
8.08401 -0.517868 0.0
7.77774 0.343926 0.0
6.77191 -1.05088 0.0
7.30205 -2.64871 0.0
8.39154 -1.50552 0.0
8.11417 -0.608756 0.0
7.06444 -1.88027 0.0
7.54108 -3.5384 0.0
8.66604 -2.52805 0.0
8.41865 -1.59984 0.0
7.32916 -2.74303 0.0
7.75044 -4.45494 0.0
8.90641 -3.58142 0.0
8.69 -2.62543 0.0
7.56505 -3.63578 0.0
7.92928 -5.39457 0.0
9.11172 -4.66139 0.0
8.92714 -3.68147 0.0
7.77116 -4.55498 0.0
8.07687 -6.35307 0.0
9.28111 -5.7633 0.0
9.12911 -4.76368 0.0
7.94667 -5.49686 0.0
8.19262 -7.32448 0.0
9.4139 -6.88095 0.0
9.29511 -5.86731 0.0
8.09088 -6.45707 0.0
8.27619 -8.29626 0.0
9.50963 -8.00178 0.0
9.42447 -6.98571 0.0
8.20319 -7.42924 0.0
8.32819 -9.2312 0.0
9.56882 -9.08703 0.0
9.51681 -8.10469 0.0
8.28337 -8.39917 0.0
8.33222 -9.32384 0.0
8.35234 -10.0131 0.0
9.59554 -10.0036 0.0
9.57284 -9.17967 0.0
-9.71048 -9.17122 0.0
-10.4033 -9.09142 0.0
-10.9499 -9.02672 0.0
-10.975 -9.98743 0.0
-9.73317 -9.99519 0.0
-10.3643 -8.991 0.0
-9.67145 -9.0708 0.0
-9.61944 -8.08846 0.0
-10.194 -7.95427 0.0
-10.1864 -7.84018 0.0
-9.61185 -7.97436 0.0
-9.52669 -6.95829 0.0
-10.0626 -6.76889 0.0
-10.3344 -7.79771 0.0
-10.0513 -6.65283 0.0
-9.51538 -6.84223 0.0
-9.3966 -5.82859 0.0
-9.89572 -5.58989 0.0
-10.2616 -6.5659 0.0
-9.88054 -5.47437 0.0
-9.38142 -5.71307 0.0
-9.22942 -4.71345 0.0
-9.69957 -4.42778 0.0
-10.1386 -5.33677 0.0
-9.6806 -4.31399 0.0
-9.21045 -4.59966 0.0
-9.02587 -3.61974 0.0
-9.46952 -3.29032 0.0
-9.97129 -4.12249 0.0
-9.75562 -2.93416 0.0
-9.44672 -3.17876 0.0
-9.00308 -3.50817 0.0
-8.78666 -2.55219 0.0
-9.21046 -2.17736 0.0
-9.49824 -1.77535 0.0
-9.184 -2.06866 0.0
-8.7602 -2.44348 0.0
-8.51282 -1.51527 0.0
-8.91811 -1.09576 0.0
-9.1969 -0.655165 0.0
-8.88801 -0.990305 0.0
-8.48272 -1.40982 0.0
-8.20535 -0.513054 0.0
-8.59634 -0.0451906 0.0
-8.85797 0.425021 0.0
-8.5628 0.0564754 0.0
-8.17182 -0.411388 0.0
-7.86555 0.450407 0.0
-8.24187 0.966583 0.0
-8.48027 1.45692 0.0
-8.20497 1.06409 0.0
-7.82865 0.547917 0.0
-7.4947 1.37136 0.0
-7.85822 1.93968 0.0
-8.06941 2.44047 0.0
-7.81819 2.03258 0.0
-7.45466 1.46426 0.0
-7.09434 2.24613 0.0
-7.44334 2.86604 0.0
-7.62607 3.37004 0.0
-7.4003 2.95397 0.0
-7.0513 2.33406 0.0
-6.666 3.07131 0.0
-6.99963 3.74382 0.0
-6.95376 3.82643 0.0
-6.62014 3.15392 0.0
-6.21138 3.84366 0.0
-6.52828 4.56927 0.0
-7.15259 4.24228 0.0
-6.47974 4.64623 0.0
-6.16285 3.92063 0.0
-5.73221 4.56018 0.0
-6.03147 5.34083 0.0
-6.65036 5.05209 0.0
-5.98051 5.41183 0.0
-5.68126 4.63118 0.0
-5.2304 5.21805 0.0
-5.50918 6.05109 0.0
-6.12364 5.80069 0.0
-5.45598 6.11585 0.0
-5.1772 5.28281 0.0
-4.70784 5.81471 0.0
-4.96407 6.69897 0.0
-5.57365 6.48345 0.0
-4.90883 6.75724 0.0
-4.6526 5.87297 0.0
-4.16651 6.34779 0.0
-4.39803 7.28161 0.0
-5.0027 7.09801 0.0
-4.34096 7.33316 0.0
-4.10943 6.39934 0.0
-3.60845 6.81519 0.0
-3.81309 7.7964 0.0
-4.4131 7.64221 0.0
-3.7544 7.84102 0.0
-3.54976 6.8598 0.0
-3.03575 7.21496 0.0
-3.21137 8.24098 0.0
-3.80719 8.11412 0.0
-3.15129 8.27847 0.0
-2.97567 7.25246 0.0
-2.45058 7.54541 0.0
-2.5951 8.61323 0.0
-3.18736 8.51202 0.0
-2.53385 8.64345 0.0
-2.38932 7.57562 0.0
-1.85516 7.80503 0.0
-1.96681 8.91323 0.0
-2.55574 8.83249 0.0
-1.90473 8.93521 0.0
-1.79308 7.82701 0.0
-1.25197 7.99175 0.0
-1.32674 9.10618 0.0
-1.91559 9.07729 0.0
-1.2641 9.12015 0.0
-1.18934 8.00573 0.0
-0.643498 8.10496 0.0
-0.681006 9.20425 0.0
-1.26906 9.24391 0.0
-0.61696 9.21741 0.0
-0.579453 8.11812 0.0
-0.0311924 8.15123 0.0
-0.029617 9.35019 0.0
-0.0329273 9.46711 0.0
-0.617644 9.33958 0.0
0.0333649 9.34679 0.0
0.0317895 8.14783 0.0
0.580023 8.11472 0.0
0.617581 9.21522 0.0
0.618372 9.33734 0.0
0.681063 9.20553 0.0
0.643506 8.10503 0.0
1.18934 8.0058 0.0
1.2642 9.12158 0.0
1.26917 9.24548 0.0
1.32683 9.10762 0.0
1.25198 7.99184 0.0
1.79309 7.82709 0.0
1.90456 8.93349 0.0
1.91575 9.079 0.0
1.96665 8.91143 0.0
1.85518 7.80503 0.0
2.38934 7.57562 0.0
2.53412 8.64527 0.0
2.55601 8.83429 0.0
2.59534 8.61505 0.0
2.45056 7.54541 0.0
2.97566 7.25246 0.0
3.15154 8.27999 0.0
3.18702 8.51019 0.0
3.21161 8.24249 0.0
3.03573 7.21496 0.0
3.54975 6.8598 0.0
3.75462 7.84214 0.0
3.80686 8.1126 0.0
3.81331 7.79752 0.0
3.60844 6.81519 0.0
4.10942 6.39934 0.0
4.34111 7.3338 0.0
4.41281 7.64108 0.0
4.39818 7.28225 0.0
4.1665 6.3478 0.0
4.65259 5.87298 0.0
4.90884 6.7573 0.0
5.0025 7.09737 0.0
4.96409 6.69903 0.0
4.70784 5.81471 0.0
5.1772 5.28281 0.0
5.45577 6.11521 0.0
5.57363 6.4834 0.0
5.50898 6.05045 0.0
5.23041 5.21805 0.0
5.68127 4.63118 0.0
5.97995 5.41037 0.0
6.12389 5.80133 0.0
6.03092 5.33937 0.0
5.73223 4.56018 0.0
6.16287 3.92062 0.0
6.48049 4.64786 0.0
6.65103 5.05355 0.0
6.52898 4.57092 0.0
6.21136 3.84367 0.0
6.62012 3.15393 0.0
6.95402 3.82699 0.0
7.15174 4.24063 0.0
6.9999 3.74438 0.0
6.666 3.07131 0.0
7.05129 2.33407 0.0
7.3999 2.95328 0.0
7.62575 3.36949 0.0
7.44296 2.86534 0.0
7.09435 2.24613 0.0
7.45468 1.46425 0.0
7.81815 2.0325 0.0
8.06987 2.44116 0.0
7.85818 1.93961 0.0
7.4947 1.37136 0.0
7.82866 0.547915 0.0
8.20526 1.06447 0.0
8.48032 1.45699 0.0
8.24215 0.966969 0.0
7.86555 0.450413 0.0
8.17181 -0.411381 0.0
8.56168 0.0551491 0.0
8.85765 0.424655 0.0
8.59525 -0.0465461 0.0
8.20538 -0.513076 0.0
8.48275 -1.40984 0.0
8.88877 -0.98957 0.0
9.19818 -0.653897 0.0
8.91883 -1.09498 0.0
8.51281 -1.51525 0.0
8.76019 -2.44346 0.0
9.18274 -2.06974 0.0
9.49741 -1.77605 0.0
9.20925 -2.17849 0.0
8.78669 -2.55222 0.0
9.0031 -3.50821 0.0
9.44761 -3.17815 0.0
9.75702 -2.93317 0.0
9.47036 -3.28966 0.0
9.02586 -3.61972 0.0
9.21044 -4.59964 0.0
9.67895 -4.31497 0.0
9.97034 -4.12304 0.0
9.69797 -4.42883 0.0
9.22945 -4.7135 0.0
9.38144 -5.71312 0.0
9.88155 -5.47394 0.0
10.1404 -5.33597 0.0
9.89669 -5.58939 0.0
9.39659 -5.82856 0.0
9.51537 -6.8422 0.0
10.0496 -6.65343 0.0
10.2605 -6.56624 0.0
10.0609 -6.76958 0.0
9.52671 -6.95835 0.0
9.61187 -7.97442 0.0
10.1875 -7.83997 0.0
10.3362 -7.79733 0.0
10.1951 -7.95397 0.0
9.61944 -8.08842 0.0
9.67145 -9.07076 0.0
10.3631 -8.9911 0.0
9.71048 -9.17122 0.0
9.73317 -9.99519 0.0
10.975 -9.98743 0.0
10.9499 -9.02672 0.0
10.4021 -9.09156 0.0
-11.7274 -9.98766 0.0
-11.0777 -9.98199 0.0
-11.0526 -9.02128 0.0
-11.6637 -8.95112 0.0
-11.659 -8.83219 0.0
-11.0479 -8.90235 0.0
-10.9888 -7.7698 0.0
-11.5647 -7.64677 0.0
-11.7304 -8.81732 0.0
-11.5561 -7.51659 0.0
-10.9802 -7.63962 0.0
-10.8829 -6.47495 0.0
-11.4198 -6.29701 0.0
-11.6923 -7.45475 0.0
-11.4068 -6.16461 0.0
-10.8699 -6.34255 0.0
-10.7341 -5.18303 0.0
-11.2383 -4.95372 0.0
-11.6007 -6.06023 0.0
-11.2211 -4.82235 0.0
-10.7168 -5.05166 0.0
-10.543 -3.9089 0.0
-11.0157 -3.6335 0.0
-11.4608 -4.67018 0.0
-11.2694 -3.29875 0.0
-10.9941 -3.50409 0.0
-10.5213 -3.77949 0.0
-10.3103 -2.65945 0.0
-10.7558 -2.34039 0.0
-11.0248 -1.95631 0.0
-10.7298 -2.21353 0.0
-10.2843 -2.53259 0.0
-10.0369 -1.43997 0.0
-10.4615 -1.07607 0.0
-10.734 -0.646672 0.0
-10.4314 -0.952483 0.0
-10.0068 -1.31639 0.0
-9.72394 -0.255538 0.0
-10.1286 0.151785 0.0
-10.3942 0.620132 0.0
-10.0943 0.27169 0.0
-9.68971 -0.135633 0.0
-9.37258 0.889246 0.0
-9.76169 1.34344 0.0
-10.0123 1.84234 0.0
-9.72357 1.45904 0.0
-9.33446 1.00485 0.0
-8.9843 1.98974 0.0
-9.35749 2.49031 0.0
-9.58827 3.01282 0.0
-9.31558 2.60117 0.0
-8.94239 2.1006 0.0
-8.56058 3.04165 0.0
-8.9187 3.59033 0.0
-9.12321 4.12456 0.0
-8.87314 3.69601 0.0
-8.51502 3.14733 0.0
-8.10307 4.04084 0.0
-8.44756 4.64151 0.0
-8.62299 5.17779 0.0
-8.39862 4.74152 0.0
-8.05413 4.14084 0.0
-7.61364 4.98332 0.0
-7.94243 5.63489 0.0
-8.08844 6.1664 0.0
-7.89027 5.72885 0.0
-7.56148 5.07728 0.0
-7.09419 5.86544 0.0
-7.40621 6.56869 0.0
-7.52106 7.08442 0.0
-7.351 6.65623 0.0
-7.03898 5.95298 0.0
-6.54669 6.68374 0.0
-6.84143 7.44127 0.0
-6.92578 7.93325 0.0
-6.78347 7.52202 0.0
-6.48874 6.76449 0.0
-5.97335 7.435 0.0
-6.24799 8.24418 0.0
-6.30396 8.70756 0.0
-6.18747 8.31784 0.0
-5.91283 7.50866 0.0
-5.37632 8.11629 0.0
-5.62892 8.97632 0.0
-5.56608 9.04259 0.0
-5.31348 8.18256 0.0
-4.75788 8.72492 0.0
-4.98639 9.63446 0.0
-5.65822 9.40462 0.0
-4.92147 9.69308 0.0
-4.69296 8.78354 0.0
-4.12039 9.25845 0.0
-4.3227 10.2157 0.0
-4.99124 10.022 0.0
-4.25595 10.2664 0.0
-4.05363 9.30919 0.0
-3.46624 9.71472 0.0
-3.64025 10.7173 0.0
-4.30571 10.5574 0.0
-3.57193 10.7599 0.0
-3.39791 9.75735 0.0
-2.79792 10.0918 0.0
-2.94158 11.137 0.0
-3.60436 11.0089 0.0
-2.87195 11.1713 0.0
-2.72828 10.1261 0.0
-2.11802 10.388 0.0
-2.22932 11.4726 0.0
-2.89001 11.375 0.0
-2.1587 11.4981 0.0
-2.0474 10.4134 0.0
-1.42927 10.6014 0.0
-1.50519 11.7049 0.0
-2.16564 11.6536 0.0
-1.434 11.7208 0.0
-1.35807 10.6173 0.0
-0.734617 10.7306 0.0
-0.773739 11.8172 0.0
-1.43416 11.8433 0.0
-0.702186 11.8245 0.0
-0.663065 10.7379 0.0
-0.0369301 10.7758 0.0
-0.0409018 11.8417 0.0
-0.698137 11.9446 0.0
0.0319333 11.845 0.0
0.035905 10.7791 0.0
0.66221 10.7413 0.0
0.701299 11.8263 0.0
0.697372 11.9464 0.0
0.0399025 11.9626 0.0
0.773686 11.8155 0.0
0.734597 10.7305 0.0
1.35807 10.6172 0.0
1.43387 11.7189 0.0
1.43402 11.8411 0.0
1.50507 11.7029 0.0
1.42926 10.6013 0.0
2.04739 10.4133 0.0
2.15885 11.4996 0.0
2.16546 11.6516 0.0
2.22946 11.4743 0.0
2.118 10.388 0.0
2.72827 10.1261 0.0
2.87212 11.1727 0.0
2.88976 11.3733 0.0
2.94176 11.1384 0.0
2.79791 10.0918 0.0
3.3979 9.75735 0.0
3.57209 10.761 0.0
3.6041 11.0075 0.0
3.64042 10.7183 0.0
3.46623 9.71472 0.0
4.05362 9.30919 0.0
4.25606 10.267 0.0
4.30548 10.5563 0.0
4.32281 10.2162 0.0
4.12038 9.25846 0.0
4.69296 8.78354 0.0
4.92146 9.69308 0.0
4.99109 10.0214 0.0
4.98639 9.63445 0.0
4.75789 8.72492 0.0
5.31348 8.18256 0.0
5.56587 9.04191 0.0
5.65823 9.40463 0.0
5.62872 8.97563 0.0
5.37633 8.11629 0.0
5.91284 7.50866 0.0
6.18696 8.31636 0.0
6.3042 8.70825 0.0
6.24749 8.2427 0.0
5.97337 7.43499 0.0
6.48876 6.76449 0.0
6.78347 7.52195 0.0
6.92639 7.93472 0.0
6.84141 7.4412 0.0
6.54669 6.68374 0.0
7.03899 5.95298 0.0
7.35157 6.65747 0.0
7.52109 7.08447 0.0
7.40676 6.56993 0.0
7.09417 5.86544 0.0
7.56146 5.07729 0.0
7.89027 5.72891 0.0
8.08779 6.16517 0.0
7.94245 5.63494 0.0
7.61364 4.98332 0.0
8.05413 4.14085 0.0
8.39786 4.74021 0.0
8.62297 5.17777 0.0
8.44682 4.64019 0.0
8.10309 4.04082 0.0
8.51504 3.14731 0.0
8.87439 3.69783 0.0
9.12409 4.12583 0.0
8.91989 3.59219 0.0
8.56055 3.04167 0.0
8.94236 2.10063 0.0
9.3157 2.6014 0.0
9.58687 3.01104 0.0
9.35764 2.49052 0.0
8.9843 1.98975 0.0
9.33446 1.00485 0.0
9.72226 1.45752 0.0
10.0121 1.84217 0.0
9.76042 1.34189 0.0
9.37262 0.889217 0.0
9.68974 -0.13567 0.0
10.0954 0.272679 0.0
10.3957 0.62155 0.0
10.1296 0.152835 0.0
9.72391 -0.255514 0.0
10.0068 -1.31635 0.0
10.4305 -0.953204 0.0
10.7329 -0.647609 0.0
10.4606 -1.07685 0.0
10.0369 -1.44 0.0
10.2843 -2.53262 0.0
10.7317 -2.21218 0.0
11.0257 -1.95565 0.0
10.7576 -2.33895 0.0
10.3102 -2.65939 0.0
10.5213 -3.77943 0.0
10.9938 -3.50418 0.0
11.2673 -3.29992 0.0
11.0154 -3.63366 0.0
10.543 -3.90891 0.0
10.7168 -5.05167 0.0
11.2214 -4.82222 0.0
11.4611 -4.67005 0.0
11.2386 -4.95357 0.0
10.7341 -5.18302 0.0
10.8699 -6.34254 0.0
11.4079 -6.16422 0.0
11.6004 -6.06034 0.0
11.4208 -6.29659 0.0
10.8829 -6.47491 0.0
10.9802 -7.63958 0.0
11.5546 -7.5169 0.0
11.6912 -7.45495 0.0
11.5632 -7.64718 0.0
10.9888 -7.76985 0.0
11.0479 -8.9024 0.0
11.6615 -8.83195 0.0
11.732 -8.8172 0.0
11.6663 -8.95074 0.0
11.0526 -9.0212 0.0
11.0777 -9.98191 0.0
11.7248 -9.9876 0.0
-13.0673 -9.98759 0.0
-12.4465 -9.96829 0.0
-12.4198 -8.86971 0.0
-13.0085 -8.81141 0.0
-13.0035 -8.6768 0.0
-12.4148 -8.7351 0.0
-12.3488 -7.4531 0.0
-12.9036 -7.34463 0.0
-13.0725 -8.64642 0.0
-12.8939 -7.19814 0.0
-12.3391 -7.30662 0.0
-12.2293 -5.99459 0.0
-12.7491 -5.83247 0.0
-13.0206 -7.12036 0.0
-12.7345 -5.68432 0.0
-12.2147 -5.84644 0.0
-12.0614 -4.54231 0.0
-12.5444 -4.33288 0.0
-12.917 -5.56552 0.0
-12.7567 -4.0195 0.0
-12.5249 -4.18597 0.0
-12.042 -4.39539 0.0
-11.846 -3.1108 0.0
-12.2953 -2.85901 0.0
-12.537 -2.49712 0.0
-12.2709 -2.71429 0.0
-11.8216 -2.96609 0.0
-11.5836 -1.70736 0.0
-12.0058 -1.41468 0.0
-12.2653 -1.00408 0.0
-11.9767 -1.27307 0.0
-11.5545 -1.56575 0.0
-11.2757 -0.338043 0.0
-11.6716 -0.00817383 0.0
-11.9398 0.450623 0.0
-11.6378 0.129841 0.0
-11.2419 -0.200028 0.0
-10.9233 0.991792 0.0
-11.2964 1.35837 0.0
-11.5604 1.85769 0.0
-11.258 1.49226 0.0
-10.8849 1.12568 0.0
-10.5278 2.27692 0.0
-10.8833 2.68321 0.0
-11.1343 3.21506 0.0
-10.8406 2.81226 0.0
-10.4851 2.40596 0.0
-10.0909 3.51215 0.0
-10.4288 3.95706 0.0
-10.6618 4.51487 0.0
-10.3818 4.08081 0.0
-10.044 3.63589 0.0
-9.61432 4.69271 0.0
-9.9361 5.17787 0.0
-10.1437 5.74931 0.0
-9.88505 5.29583 0.0
-9.56327 4.81066 0.0
-9.09982 5.81396 0.0
-9.40791 6.34369 0.0
-9.58662 6.91855 0.0
-9.35311 6.45529 0.0
-9.04502 5.92556 0.0
-8.54959 6.87147 0.0
-8.84247 7.44477 0.0
-8.9915 8.01582 0.0
-8.78408 7.54961 0.0
-8.49119 6.97631 0.0
-7.96572 7.86114 0.0
-8.243 8.4793 0.0
-8.36122 9.03713 0.0
-8.18126 8.57697 0.0
-7.90397 7.9588 0.0
-7.35049 8.77911 0.0
-7.61132 9.44307 0.0
-7.69758 9.97628 0.0
-7.54643 9.53318 0.0
-7.28559 8.86922 0.0
-6.70624 9.6218 0.0
-6.95032 10.3347 0.0
-7.00582 10.8351 0.0
-6.88263 10.4168 0.0
-6.63854 9.70396 0.0
-6.03553 10.3859 0.0
-6.26031 11.145 0.0
-6.28763 11.6082 0.0
-6.19003 11.2189 0.0
-5.96526 10.4598 0.0
-5.34089 11.0684 0.0
-5.54464 11.8733 0.0
-5.54598 12.2927 0.0
-5.47205 11.9386 0.0
-5.2683 11.1338 0.0
-4.62494 11.6666 0.0
-4.80584 12.5162 0.0
-4.78386 12.8863 0.0
-4.73122 12.5728 0.0
-4.55032 11.7232 0.0
-3.89041 12.1781 0.0
-4.04655 13.071 0.0
-4.00433 13.3869 0.0
-3.97019 13.1186 0.0
-3.81404 12.2257 0.0
-3.14008 12.6008 0.0
-3.26954 13.5351 0.0
-3.21048 13.7928 0.0
-3.19172 13.5734 0.0
-3.06226 12.6391 0.0
-2.37684 12.9327 0.0
-2.47768 13.9061 0.0
-2.40549 14.1025 0.0
-2.39871 13.935 0.0
-2.29788 12.9615 0.0
-1.60371 13.1723 0.0
-1.67391 14.1822 0.0
-1.59275 14.3149 0.0
-1.59412 14.2015 0.0
-1.52392 13.1916 0.0
-0.823838 13.3185 0.0
-0.861986 14.3619 0.0
-0.776906 14.4804 0.0
-0.782032 14.373 0.0
-0.743884 13.3296 0.0
-0.0408131 13.3721 0.0
-0.0450834 14.446 0.0
0.0443233 14.5533 0.0
0.0356921 14.4491 0.0
0.0399624 13.3752 0.0
0.743063 13.3328 0.0
0.781278 14.3786 0.0
0.776105 14.486 0.0
0.862031 14.3644 0.0
0.823816 13.3186 0.0
1.5239 13.1916 0.0
1.5942 14.2036 0.0
1.59266 14.3134 0.0
1.67399 14.1842 0.0
1.60368 13.1723 0.0
2.29785 12.9615 0.0
2.39885 13.9367 0.0
2.40527 14.1005 0.0
2.47782 13.9079 0.0
2.37682 12.9327 0.0
3.06224 12.6391 0.0
3.19189 13.5748 0.0
3.21022 13.7911 0.0
3.26972 13.5365 0.0
3.14006 12.6008 0.0
3.81402 12.2257 0.0
3.97034 13.1196 0.0
4.00406 13.3855 0.0
4.04671 13.072 0.0
3.8904 12.1781 0.0
4.55031 11.7232 0.0
4.73131 12.5733 0.0
4.78363 12.8853 0.0
4.80593 12.5167 0.0
4.62494 11.6666 0.0
5.2683 11.1338 0.0
5.47199 11.9384 0.0
5.54585 12.2922 0.0
5.54459 11.8731 0.0
5.34089 11.0684 0.0
5.96526 10.4598 0.0
6.18974 11.218 0.0
6.28769 11.6084 0.0
6.26003 11.144 0.0
6.03555 10.3859 0.0
6.63856 9.70396 0.0
6.88199 10.4149 0.0
7.00617 10.8361 0.0
6.9497 10.3328 0.0
6.70627 9.62179 0.0
7.28563 8.86919 0.0
7.54742 9.5355 0.0
7.69836 9.97811 0.0
7.61224 9.44543 0.0
7.35045 8.77911 0.0
7.90393 7.95882 0.0
8.18175 8.57816 0.0
8.36012 9.03482 0.0
8.24352 8.48049 0.0
7.9657 7.86115 0.0
8.49117 6.97633 0.0
8.78396 7.54945 0.0
8.99089 8.01468 0.0
8.84238 7.4446 0.0
8.54959 6.87147 0.0
9.04502 5.92557 0.0
9.35214 6.45364 0.0
9.58672 6.91873 0.0
9.40697 6.34201 0.0
9.09986 5.81394 0.0
9.5633 4.81063 0.0
9.88636 5.29768 0.0
10.1448 5.75089 0.0
9.93732 5.17978 0.0
9.61427 4.69273 0.0
10.0439 3.63593 0.0
10.3819 4.08098 0.0
10.6603 4.51307 0.0
10.4289 3.95721 0.0
10.0909 3.51216 0.0
10.4851 2.40598 0.0
10.8391 2.8106 0.0
11.1342 3.21496 0.0
10.8819 2.6815 0.0
10.5279 2.27688 0.0
10.8849 1.12562 0.0
11.2593 1.49347 0.0
11.562 1.85921 0.0
11.2977 1.35967 0.0
10.9233 0.991825 0.0
11.2419 -0.19998 0.0
11.6371 0.129363 0.0
11.9384 0.449491 0.0
11.671 -0.00871627 0.0
11.2757 -0.338059 0.0
11.5545 -1.56577 0.0
11.9767 -1.27315 0.0
12.266 -1.00362 0.0
12.0058 -1.41474 0.0
11.5836 -1.70736 0.0
11.8216 -2.96609 0.0
12.2716 -2.71389 0.0
12.5371 -2.49708 0.0
12.296 -2.85857 0.0
11.8459 -3.11078 0.0
12.042 -4.39536 0.0
12.5235 -4.18662 0.0
12.756 -4.01979 0.0
12.543 -4.33363 0.0
12.0615 -4.54237 0.0
12.2147 -5.8465 0.0
12.7341 -5.68453 0.0
12.9186 -5.56502 0.0
12.7487 -5.83264 0.0
12.2293 -5.9946 0.0
12.3391 -7.30663 0.0
12.8947 -7.19798 0.0
13.021 -7.12031 0.0
12.9043 -7.34442 0.0
12.3487 -7.45307 0.0
12.4148 -8.73507 0.0
13.0015 -8.67704 0.0
13.0718 -8.64644 0.0
13.0065 -8.81175 0.0
12.4198 -8.86978 0.0
12.4465 -9.96837 0.0
13.0693 -9.98766 0.0
-13.4267 -5.38841 0.0
-12.9781 -5.52661 0.0
-12.6055 -4.29397 0.0
-12.8373 -4.12751 0.0
-13.253 -3.94897 0.0
12.8366 -4.12777 0.0
12.6041 -4.2946 0.0
12.9796 -5.52599 0.0
13.4267 -5.38835 0.0
13.253 -3.94891 0.0
-13.5681 -6.99771 0.0
-13.0837 -7.09149 0.0
-12.8122 -5.8036 0.0
-12.9947 -5.6848 0.0
-13.4433 -5.5466 0.0
12.9962 -5.68423 0.0
12.8118 -5.80374 0.0
13.0841 -7.09142 0.0
13.5681 -6.99769 0.0
13.4433 -5.54658 0.0
-13.2312 -3.79303 0.0
-12.8154 -3.97157 0.0
-12.354 -2.81107 0.0
-12.6202 -2.5939 0.0
-13.0096 -2.3771 0.0
12.6202 -2.59389 0.0
12.3547 -2.81069 0.0
12.8147 -3.97191 0.0
13.2312 -3.79305 0.0
13.0096 -2.37712 0.0
-12.9827 -2.22447 0.0
-12.5932 -2.44127 0.0
-12.062 -1.35883 0.0
-12.3506 -1.08984 0.0
-12.7146 -0.838722 0.0
12.3512 -1.08936 0.0
12.062 -1.35889 0.0
12.5933 -2.44123 0.0
12.9827 -2.22447 0.0
12.7146 -0.838717 0.0
-12.6827 -0.689804 0.0
-12.3186 -0.940926 0.0
-11.725 0.0549827 0.0
-12.027 0.375764 0.0
-12.3695 0.660193 0.0
12.0256 0.374616 0.0
11.7243 0.0544875 0.0
12.3193 -0.940414 0.0
12.6827 -0.689776 0.0
12.3695 0.660212 0.0
-12.3328 0.804731 0.0
-11.9903 0.520303 0.0
-11.3469 1.42805 0.0
-11.6492 1.79348 0.0
-11.9761 2.11379 0.0
11.6509 1.795 0.0
11.3482 1.42926 0.0
11.9889 0.519081 0.0
12.3329 0.804677 0.0
11.9762 2.11376 0.0
-11.9349 2.25337 0.0
-11.608 1.93306 0.0
-10.931 2.75858 0.0
-11.2248 3.16138 0.0
-11.5362 3.51659 0.0
11.2246 3.16132 0.0
10.9295 2.75696 0.0
11.6096 1.93467 0.0
11.9349 2.25343 0.0
11.5362 3.51664 0.0
-13.6547 -8.57976 0.0
-13.1371 -8.62873 0.0
-12.9681 -7.32693 0.0
-13.0948 -7.24915 0.0
-13.5792 -7.15536 0.0
13.0952 -7.24912 0.0
12.9689 -7.32678 0.0
13.1363 -8.62881 0.0
13.6547 -8.57979 0.0
13.5792 -7.15539 0.0
-11.4906 3.65088 0.0
-11.1791 3.29567 0.0
-10.4736 4.03767 0.0
-10.7535 4.47173 0.0
-11.0517 4.86354 0.0
10.7521 4.4699 0.0
10.4737 4.03781 0.0
11.179 3.29556 0.0
11.4906 3.65088 0.0
11.0517 4.86353 0.0
-11.0019 4.992 0.0
-10.7037 4.60019 0.0
-9.97803 5.26319 0.0
-10.2366 5.71667 0.0
-10.5245 6.14958 0.0
10.2378 5.71824 0.0
9.97934 5.26503 0.0
10.7023 4.59832 0.0
11.0019 4.99195 0.0
10.5246 6.14955 0.0
-10.4708 6.27171 0.0
-10.1829 5.83881 0.0
-9.44711 6.43319 0.0
-9.68062 6.89645 0.0
-9.95692 7.36993 0.0
9.68068 6.89665 0.0
9.4461 6.43156 0.0
10.1839 5.84044 0.0
10.4707 6.27175 0.0
9.95689 7.36996 0.0
-9.89928 7.48541 0.0
-9.62298 7.01193 0.0
-8.87883 7.53815 0.0
-9.08626 8.00435 0.0
-9.35094 8.52017 0.0
9.08566 8.00321 0.0
8.87874 7.53798 0.0
9.62308 7.01211 0.0
9.89928 7.48542 0.0
9.35093 8.52017 0.0
-9.28972 8.62854 0.0
-9.02504 8.11272 0.0
-8.27654 8.57621 0.0
-8.4565 9.03637 0.0
-8.709 9.59598 0.0
8.45545 9.03403 0.0
8.27709 8.57737 0.0
9.02446 8.11156 0.0
9.28974 8.62852 0.0
8.70901 9.59595 0.0
-8.64442 9.69684 0.0
-8.39192 9.13723 0.0
-7.64202 9.54318 0.0
-7.79316 9.98628 0.0
-8.03352 10.5933 0.0
7.79396 9.9881 0.0
7.64301 9.54549 0.0
8.39089 9.13488 0.0
8.64445 9.6968 0.0
8.03357 10.5933 0.0
-7.96586 10.6863 0.0
-7.7255 10.0792 0.0
-6.97825 10.4376 0.0
-7.10144 10.8559 0.0
-7.32711 11.5084 0.0
7.10174 10.8569 0.0
6.97757 10.4358 0.0
7.72623 10.0811 0.0
7.96584 10.6863 0.0
7.32708 11.5085 0.0
-7.25653 11.5932 0.0
-7.03086 10.9407 0.0
-6.28535 11.2506 0.0
-6.38295 11.6398 0.0
-6.59232 12.3379 0.0
6.38299 11.64 0.0
6.28504 11.2496 0.0
7.03118 10.9417 0.0
7.25652 11.5932 0.0
6.59231 12.338 0.0
-6.51913 12.4142 0.0
-6.30976 11.716 0.0
-5.56677 11.9811 0.0
-5.6407 12.3352 0.0
-5.83194 13.0786 0.0
5.64058 12.3347 0.0
5.56672 11.9809 0.0
6.30981 11.7162 0.0
6.51913 12.4142 0.0
5.83194 13.0786 0.0
-5.75641 13.146 0.0
-5.56517 12.4026 0.0
-4.82503 12.6261 0.0
-4.87768 12.9396 0.0
-5.04878 13.7276 0.0
4.87747 12.9386 0.0
4.82514 12.6266 0.0
5.56506 12.4021 0.0
5.75641 13.146 0.0
5.04879 13.7276 0.0
-4.97119 13.7859 0.0
-4.80008 12.9979 0.0
-4.06277 13.1827 0.0
-4.09692 13.451 0.0
-4.24575 14.2823 0.0
4.09668 13.4496 0.0
4.06296 13.1837 0.0
4.79988 12.9969 0.0
4.9712 13.7859 0.0
4.24576 14.2823 0.0
-4.16638 14.3313 0.0
-4.01755 13.5 0.0
-3.28276 13.6481 0.0
-3.30152 13.8676 0.0
-3.42585 14.7405 0.0
3.3013 13.8658 0.0
3.28297 13.6496 0.0
4.01732 13.4986 0.0
4.1664 14.3313 0.0
3.42587 14.7405 0.0
-3.34501 14.7799 0.0
-3.22068 13.907 0.0
-2.48788 14.0203 0.0
-2.49466 14.1878 0.0
-2.59218 15.1002 0.0
2.4945 14.1858 0.0
2.48807 14.0221 0.0
3.22047 13.9053 0.0
3.34503 14.7799 0.0
2.5922 15.1001 0.0
-2.51018 15.1299 0.0
-2.41267 14.2175 0.0
-1.68108 14.2972 0.0
-1.67971 14.4106 0.0
-1.74796 15.3597 0.0
1.67967 14.4091 0.0
1.68122 14.2992 0.0
2.41251 14.2155 0.0
2.51021 15.1299 0.0
1.74799 15.3597 0.0
-1.66513 15.3796 0.0
-1.59688 14.4305 0.0
-0.866116 14.4775 0.0
-0.86099 14.5849 0.0
-0.89657 15.5182 0.0
0.86104 14.5874 0.0
0.866213 14.48 0.0
1.59684 14.429 0.0
1.66516 15.3796 0.0
0.896614 15.5183 0.0
-0.812886 15.5295 0.0
-0.777306 14.5962 0.0
-0.0454826 14.5618 0.0
-0.0368514 14.666 0.0
-0.0411172 15.5759 0.0
0.0422779 15.5789 0.0
0.0465437 14.669 0.0
0.778326 14.6017 0.0
0.8139 15.5326 0.0
-11.9746 -4.41873 0.0
-11.5237 -4.62263 0.0
-11.0785 -3.58595 0.0
-11.3538 -3.3806 0.0
-11.7786 -3.13414 0.0
11.3517 -3.38182 0.0
11.0782 -3.58608 0.0
11.5239 -4.62248 0.0
11.9746 -4.41872 0.0
11.7786 -3.13413 0.0
-11.7547 -2.99625 0.0
-11.3299 -3.2427 0.0
-10.8163 -2.28435 0.0
-11.1113 -2.02712 0.0
-11.5167 -1.73752 0.0
11.1122 -2.0265 0.0
10.8182 -2.28303 0.0
11.3279 -3.244 0.0
11.7547 -2.99631 0.0
11.5168 -1.73758 0.0
-12.1471 -5.8635 0.0
-11.6656 -6.02195 0.0
-11.3032 -4.91543 0.0
-11.543 -4.76327 0.0
-11.9939 -4.55937 0.0
11.5433 -4.76314 0.0
11.3035 -4.91531 0.0
11.6653 -6.02208 0.0
12.1471 -5.86352 0.0
11.9939 -4.55938 0.0
-11.4885 -1.60302 0.0
-11.083 -1.89263 0.0
-10.5197 -1.01239 0.0
-10.8223 -0.706579 0.0
-11.2096 -0.375322 0.0
10.8212 -0.707516 0.0
10.5188 -1.01311 0.0
11.0839 -1.89192 0.0
11.4884 -1.603 0.0
11.2096 -0.375288 0.0
-11.177 -0.244572 0.0
-10.7897 -0.575829 0.0
-10.1843 0.222627 0.0
-10.4842 0.571069 0.0
-10.8584 0.947248 0.0
10.4856 0.572489 0.0
10.1853 0.223617 0.0
10.7886 -0.576827 0.0
11.1771 -0.244599 0.0
10.8584 0.947206 0.0
-10.8217 1.07365 0.0
-10.4474 0.697471 0.0
-9.81489 1.42078 0.0
-10.1036 1.80408 0.0
-10.4646 2.22489 0.0
10.1034 1.80394 0.0
9.81356 1.4193 0.0
10.4489 0.69896 0.0
10.8217 1.07368 0.0
10.4646 2.22493 0.0
-10.4238 2.34661 0.0
-10.0628 1.9258 0.0
-9.40805 2.57378 0.0
-9.68074 2.98542 0.0
-10.0297 3.4528 0.0
9.67937 2.98361 0.0
9.4082 2.57398 0.0
10.0627 1.92562 0.0
10.4239 2.34662 0.0
10.0297 3.4528 0.0
0.0378745 13.2471 0.0
0.0417933 12.0923 0.0
0.699263 12.0762 0.0
0.740975 13.2047 0.0
-0.740116 13.2013 0.0
-0.698331 12.0744 0.0
-0.0410954 11.9714 0.0
-0.0331261 12.089 0.0
-0.037045 13.2437 0.0
-9.98507 3.56935 0.0
-9.63611 3.10197 0.0
-8.96654 3.67948 0.0
-9.21661 4.10803 0.0
-9.55542 4.62616 0.0
9.2175 4.10928 0.0
8.96779 3.68128 0.0
9.63478 3.10013 0.0
9.98511 3.56932 0.0
9.55545 4.62612 0.0
-1.51599 13.0667 0.0
-1.43859 11.9727 0.0
-0.778171 11.9466 0.0
-0.774121 12.0667 0.0
-0.815906 13.1936 0.0
0.7742 12.0651 0.0
0.778127 11.9449 0.0
1.43846 11.9706 0.0
1.51599 13.0666 0.0
0.815912 13.1936 0.0
-2.28556 12.8392 0.0
-2.17429 11.7822 0.0
-1.51384 11.8335 0.0
-1.514 11.956 0.0
-1.5914 13.05 0.0
1.51386 11.9538 0.0
1.51371 11.8315 0.0
2.17411 11.7802 0.0
2.28556 12.8391 0.0
1.59139 13.0499 0.0
-9.50716 4.73707 0.0
-9.16834 4.21894 0.0
-8.49269 4.73589 0.0
-8.71706 5.17217 0.0
-9.0437 5.74037 0.0
8.71702 5.17216 0.0
8.49191 4.7346 0.0
9.16918 4.22024 0.0
9.50713 4.73707 0.0
9.04368 5.74039 0.0
-3.04543 12.519 0.0
-2.90249 11.5024 0.0
-2.24179 11.6 0.0
-2.24873 11.7556 0.0
-2.36001 12.8126 0.0
2.24859 11.7536 0.0
2.24197 11.6017 0.0
2.90228 11.5007 0.0
3.04545 12.519 0.0
2.36003 12.8126 0.0
-8.99189 5.8453 0.0
-8.66525 5.27711 0.0
-7.9847 5.73421 0.0
-8.18287 6.17175 0.0
-8.49646 6.79121 0.0
8.18223 6.17051 0.0
7.98472 5.73425 0.0
8.66523 5.27708 0.0
8.99189 5.84531 0.0
8.49646 6.79121 0.0
-3.79264 12.1079 0.0
-3.62045 11.1347 0.0
-2.95767 11.2628 0.0
-2.97574 11.4664 0.0
-3.11868 12.483 0.0
2.97552 11.4647 0.0
2.95788 11.2642 0.0
3.62022 11.1333 0.0
3.79266 12.1079 0.0
3.11869 12.483 0.0
-8.44134 6.88974 0.0
-8.12775 6.27028 0.0
-7.44551 6.67257 0.0
-7.61557 7.10076 0.0
-7.91586 7.77457 0.0
7.61561 7.1008 0.0
7.4461 6.6738 0.0
8.12713 6.26903 0.0
8.44136 6.88973 0.0
7.91588 7.77456 0.0
-4.52444 11.6084 0.0
-4.32536 10.6812 0.0
-3.65991 10.8411 0.0
-3.69234 11.0901 0.0
-3.86453 12.0633 0.0
3.69211 11.0887 0.0
3.6601 10.8421 0.0
4.32515 10.6801 0.0
4.52446 11.6084 0.0
3.86454 12.0633 0.0
-7.85767 7.86631 0.0
-7.55738 7.1925 0.0
-6.87774 7.54934 0.0
-7.02005 7.96057 0.0
-7.30419 8.68661 0.0
7.02065 7.96205 0.0
6.87772 7.54928 0.0
7.5574 7.19255 0.0
7.85767 7.86631 0.0
7.30418 8.6866 0.0
-5.23805 11.0224 0.0
-5.01439 10.1434 0.0
-4.34585 10.3371 0.0
-4.39561 10.628 0.0
-4.5947 11.5552 0.0
4.3954 10.627 0.0
4.34598 10.3376 0.0
5.01426 10.1428 0.0
5.23806 11.0224 0.0
4.5947 11.5552 0.0
-7.24308 8.77125 0.0
-6.95894 8.0452 0.0
-6.28115 8.35614 0.0
-6.39764 8.74585 0.0
-6.66372 9.52383 0.0
6.39786 8.74655 0.0
6.28061 8.35467 0.0
6.95952 8.04669 0.0
7.24305 8.77125 0.0
6.6637 9.52384 0.0
-5.93076 10.3524 0.0
-5.6848 9.52324 0.0
-5.01297 9.75308 0.0
-5.08274 10.082 0.0
-5.3064 10.961 0.0
5.0826 10.0814 0.0
5.01297 9.75308 0.0
5.6848 9.52325 0.0
5.93076 10.3524 0.0
5.3064 10.961 0.0
5.75097 9.45383 0.0
5.65862 9.09111 0.0
6.3341 8.82373 0.0
6.59994 9.60102 0.0
5.99694 10.283 0.0
-6.59995 9.60101 0.0
-6.33387 8.82303 0.0
-5.65883 9.09179 0.0
-5.75098 9.45382 0.0
-5.99694 10.2829 0.0
-12.2715 -7.31788 0.0
-11.7588 -7.42641 0.0
-11.4863 -6.26867 0.0
-11.6802 -6.16429 0.0
-12.1617 -6.00585 0.0
11.6799 -6.16445 0.0
11.4874 -6.26833 0.0
11.7577 -7.42669 0.0
12.2715 -7.31792 0.0
12.1617 -6.00589 0.0
-12.3475 -8.74155 0.0
-11.7983 -8.80047 0.0
-11.6325 -7.62992 0.0
-11.7686 -7.56808 0.0
-12.2814 -7.45955 0.0
11.7675 -7.56826 0.0
11.631 -7.63022 0.0
11.7998 -8.80024 0.0
12.3474 -8.74149 0.0
12.2814 -7.4595 0.0
-13.1324 -9.98195 0.0
-13.0736 -8.80577 0.0
-13.1426 -8.77539 0.0
-13.6603 -8.72643 0.0
-13.69 -9.9588 0.0
13.1419 -8.77537 0.0
13.0716 -8.80596 0.0
13.1344 -9.98187 0.0
13.69 -9.95873 0.0
13.6603 -8.72635 0.0
0.0318049 9.59514 0.0
0.0351152 9.47823 0.0
0.620122 9.46877 0.0
0.659738 10.6107 0.0
0.0334331 10.6485 0.0
-0.660459 10.6138 0.0
-0.620669 9.47074 0.0
-0.0359529 9.59826 0.0
-0.0343247 10.6516 0.0
0.686821 9.45871 0.0
0.68603 9.33659 0.0
1.27413 9.37654 0.0
1.34991 10.4874 0.0
0.726437 10.6006 0.0
-1.3499 10.4873 0.0
-1.27403 9.37497 0.0
-0.685972 9.33531 0.0
-0.686656 9.45748 0.0
-0.726446 10.6005 0.0
-2.03494 10.2844 0.0
-1.92483 9.20744 0.0
-1.33598 9.23634 0.0
-1.34093 9.36009 0.0
-1.41681 10.4724 0.0
1.34104 9.36167 0.0
1.33607 9.23777 0.0
1.92499 9.20915 0.0
2.03495 10.2845 0.0
1.41681 10.4725 0.0
-2.71136 9.99924 0.0
-2.56905 8.96128 0.0
-1.98013 9.04202 0.0
-1.99098 9.1841 0.0
-2.10109 10.2611 0.0
1.99112 9.18573 0.0
1.97993 9.04022 0.0
2.56929 8.96308 0.0
2.71135 9.99924 0.0
2.10108 10.2611 0.0
-3.37633 9.63285 0.0
-3.2044 8.63906 0.0
-2.61214 8.74028 0.0
-2.63403 8.92932 0.0
-2.77634 9.96728 0.0
2.6343 8.93112 0.0
2.61241 8.74209 0.0
3.2041 8.63722 0.0
3.37635 9.63284 0.0
2.77636 9.96727 0.0
-4.0275 9.18764 0.0
-3.82793 8.23898 0.0
-3.23211 8.36584 0.0
-3.26817 8.59939 0.0
-3.4401 9.59317 0.0
3.26787 8.59755 0.0
3.23238 8.36735 0.0
3.82763 8.23746 0.0
4.02752 9.18763 0.0
3.44012 9.59317 0.0
-4.66238 8.66551 0.0
-4.43746 7.76448 0.0
-3.83744 7.91867 0.0
-3.89024 8.19177 0.0
-4.08981 9.14043 0.0
3.88993 8.19025 0.0
3.83769 7.91979 0.0
4.43719 7.76335 0.0
4.66239 8.66551 0.0
4.08982 9.14042 0.0
4.49779 7.7088 0.0
4.42609 7.40151 0.0
5.03041 7.21663 0.0
5.27859 8.0686 0.0
4.72299 8.61096 0.0
-5.27858 8.0686 0.0
-5.03059 7.21727 0.0
-4.42592 7.40088 0.0
-4.49806 7.70993 0.0
-4.72299 8.61096 0.0
-5.87376 7.39931 0.0
-5.60496 6.59932 0.0
-4.99539 6.81484 0.0
-5.08926 7.1556 0.0
-5.33725 8.00693 0.0
5.08907 7.15496 0.0
4.9954 6.81489 0.0
5.60495 6.59926 0.0
5.87376 7.39931 0.0
5.33725 8.00693 0.0
-10.4531 -3.81311 0.0
-10.0326 -4.06826 0.0
-9.53085 -3.23609 0.0
-9.83974 -2.9915 0.0
-10.242 -2.69306 0.0
9.84113 -2.9905 0.0
9.53172 -3.23548 0.0
10.0317 -4.06886 0.0
10.4531 -3.81313 0.0
10.242 -2.69309 0.0
-10.217 -2.57385 0.0
-9.81474 -2.87228 0.0
-9.26959 -2.11548 0.0
-9.58383 -1.82217 0.0
-9.96956 -1.48123 0.0
9.58299 -1.82286 0.0
9.26832 -2.11655 0.0
9.8161 -2.87123 0.0
10.217 -2.57382 0.0
9.96954 -1.48119 0.0
5.66146 6.53072 0.0
5.54359 6.16254 0.0
6.15851 5.91342 0.0
6.44566 6.66026 0.0
5.93027 7.33077 0.0
-6.44566 6.66026 0.0
-6.15827 5.91277 0.0
-5.54381 6.16317 0.0
-5.66148 6.53077 0.0
-5.93028 7.33076 0.0
9.28503 -0.690263 0.0
8.97562 -1.02594 0.0
9.5542 -1.707 0.0
9.94075 -1.36533 0.0
9.6579 -0.304494 0.0
-9.94073 -1.36532 0.0
-9.555 -1.70626 0.0
-8.97487 -1.02668 0.0
-9.28376 -0.691535 0.0
-9.65788 -0.304471 0.0
-9.62542 -0.192386 0.0
-9.25129 -0.57945 0.0
-8.65073 0.0305237 0.0
-8.9459 0.399069 0.0
-9.30828 0.832493 0.0
8.94557 0.398724 0.0
8.64959 0.029218 0.0
9.25252 -0.578132 0.0
9.62539 -0.192364 0.0
9.30826 0.832524 0.0
-6.99211 5.85436 0.0
-6.68819 5.16001 0.0
-6.06929 5.44876 0.0
-6.21242 5.83762 0.0
-6.49981 6.58511 0.0
6.21265 5.83827 0.0
6.06871 5.44731 0.0
6.68882 5.16149 0.0
6.99209 5.85436 0.0
6.4998 6.58512 0.0
8.5691 1.44148 0.0
8.29404 1.04896 0.0
8.90954 0.506643 0.0
9.27224 0.940444 0.0
8.92208 1.92534 0.0
-9.27223 0.940445 0.0
-8.90985 0.507021 0.0
-8.29375 1.04858 0.0
-8.56904 1.44141 0.0
-8.92207 1.92534 0.0
-8.88263 2.0287 0.0
-8.5296 1.54477 0.0
-7.90756 2.02753 0.0
-8.15878 2.43542 0.0
-8.50082 2.96975 0.0
8.15923 2.43612 0.0
7.90751 2.02746 0.0
8.52965 1.54484 0.0
8.88263 2.0287 0.0
8.50082 2.96974 0.0
10.0528 -4.19099 0.0
9.7614 -4.38292 0.0
10.2038 -5.29006 0.0
10.648 -5.07803 0.0
10.4742 -3.93527 0.0
-10.648 -5.07808 0.0
-10.2021 -5.29097 0.0
-9.76305 -4.38197 0.0
-10.0537 -4.19047 0.0
-10.4742 -3.93532 0.0
-7.51095 4.98475 0.0
-7.19344 4.34572 0.0
-6.56912 4.67271 0.0
-6.73975 5.07857 0.0
-7.04366 5.77291 0.0
6.74042 5.08002 0.0
6.56987 4.67434 0.0
7.19264 4.34406 0.0
7.51098 4.98474 0.0
7.04368 5.7729 0.0
-8.45807 3.06819 0.0
-8.11603 2.53386 0.0
-7.48996 2.95943 0.0
-7.71573 3.3755 0.0
-8.04612 3.96169 0.0
7.71541 3.37496 0.0
7.48956 2.95874 0.0
8.11647 2.53456 0.0
8.45806 3.06819 0.0
8.04611 3.9617 0.0
7.24144 4.25661 0.0
7.04371 3.84296 0.0
7.66956 3.46807 0.0
8.00026 4.05482 0.0
7.55978 4.89729 0.0
-8.00025 4.05482 0.0
-7.66986 3.46863 0.0
-7.04342 3.84241 0.0
-7.24226 4.25826 0.0
-7.55977 4.8973 0.0
-10.8009 -6.36213 0.0
-10.327 -6.5291 0.0
-9.96109 -5.55309 0.0
-10.2191 -5.41549 0.0
-10.6651 -5.20261 0.0
10.2209 -5.41467 0.0
9.96209 -5.55265 0.0
10.3259 -6.52951 0.0
10.801 -6.36216 0.0
10.6651 -5.20264 0.0
-10.9113 -7.65289 0.0
-10.4014 -7.77094 0.0
-10.1297 -6.74212 0.0
-10.3399 -6.65519 0.0
-10.8139 -6.48822 0.0
10.3389 -6.65551 0.0
10.1279 -6.74269 0.0
10.4032 -7.77045 0.0
10.9112 -7.65283 0.0
10.8139 -6.48816 0.0
-10.9791 -8.91031 0.0
-10.4325 -8.97501 0.0
-10.2622 -7.93829 0.0
-10.4102 -7.89581 0.0
-10.92 -7.77776 0.0
10.412 -7.89542 0.0
10.2633 -7.93805 0.0
10.4313 -8.97519 0.0
10.9791 -8.91035 0.0
10.92 -7.77779 0.0
-11.8034 -8.93074 0.0
-12.3526 -8.87182 0.0
-12.3793 -9.97041 0.0
-11.7956 -9.98216 0.0
-11.732 -8.94561 0.0
11.805 -8.93065 0.0
11.7345 -8.9454 0.0
11.7931 -9.98225 0.0
12.3793 -9.97049 0.0
12.3526 -8.8719 0.0
</DataArray>
</Points>
<Cells>
<DataArray type="Int32" Name="connectivity" format="ascii">
0 1 2 3 
4 5 6 7 
8 9 10 11 
12 13 14 15 
16 17 18 19 
20 21 22 23 
24 25 26 27 
28 29 30 31 
32 33 34 35 
36 37 38 39 
40 41 42 43 
44 45 46 47 
48 49 50 51 
52 53 54 55 
56 57 58 59 
60 61 62 63 
64 65 66 67 
68 69 70 71 
72 73 74 75 
76 77 78 79 
80 81 82 83 
84 85 86 87 
88 89 90 91 
92 93 94 95 
96 97 98 99 
100 101 102 103 
104 105 106 107 
108 109 110 111 
112 113 114 115 
116 117 118 119 
120 121 122 123 
124 125 126 127 
128 129 130 131 
132 133 134 135 
136 137 138 139 
140 141 142 143 
144 145 146 147 
148 149 150 151 
152 153 154 155 
156 157 158 159 
160 161 162 163 
164 165 166 167 
168 169 170 171 
172 173 174 175 
176 177 178 179 
180 181 182 183 
184 185 186 187 
188 189 190 191 
192 193 194 195 
196 197 198 199 
200 201 202 203 
204 205 206 207 
208 209 210 211 
212 213 214 215 
216 217 218 219 
220 221 222 223 
224 225 226 227 
228 229 230 231 
232 233 234 235 
236 237 238 239 
240 241 242 243 
244 245 246 247 
248 249 250 251 
252 253 254 255 
256 257 258 259 
260 261 262 263 
264 265 266 267 
268 269 270 271 
272 273 274 275 
276 277 278 279 
280 281 282 283 
284 285 286 287 
288 289 290 291 
292 293 294 295 
296 297 298 299 
300 301 302 303 
304 305 306 307 
308 309 310 311 
312 313 314 315 
316 317 318 319 
320 321 322 323 
324 325 326 327 
328 329 330 331 
332 333 334 335 
336 337 338 339 
340 341 342 343 
344 345 346 347 
348 349 350 351 
352 353 354 355 
356 357 358 359 
360 361 362 363 
364 365 366 367 
368 369 370 371 
372 373 374 375 
376 377 378 379 
380 381 382 383 
384 385 386 387 
388 389 390 391 
392 393 394 395 
396 397 398 399 
400 401 402 403 
404 405 406 407 
408 409 410 411 
412 413 414 415 
416 417 418 419 
420 421 422 423 
424 425 426 427 
428 429 430 431 
432 433 434 435 
436 437 438 439 
440 441 442 443 
444 445 446 447 
448 449 450 451 
452 453 454 455 
456 457 458 459 
460 461 462 463 
464 465 466 467 
468 469 470 471 
472 473 474 475 
476 477 478 479 
480 481 482 483 
484 485 486 487 
488 489 490 491 
492 493 494 495 
496 497 498 499 
500 501 502 503 
504 505 506 507 
508 509 510 511 
512 513 514 515 
516 517 518 519 
520 521 522 523 
524 525 526 527 
528 529 530 531 
532 533 534 535 
536 537 538 539 
540 541 542 543 
544 545 546 547 
548 549 550 551 
552 553 554 555 
556 557 558 559 
560 561 562 563 
564 565 566 567 
568 569 570 571 
572 573 574 575 
576 577 578 579 
580 581 582 583 
584 585 586 587 
588 589 590 591 
592 593 594 595 
596 597 598 599 
600 601 602 603 
604 605 606 607 
608 609 610 611 
612 613 614 615 
616 617 618 619 
620 621 622 623 
624 625 626 627 
628 629 630 631 
632 633 634 635 
636 637 638 639 
640 641 642 643 
644 645 646 647 
648 649 650 651 
652 653 654 655 
656 657 658 659 
660 661 662 663 
664 665 666 667 
668 669 670 671 
672 673 674 675 
676 677 678 679 
680 681 682 683 
684 685 686 687 
688 689 690 691 
692 693 694 695 
696 697 698 699 
700 701 702 703 
704 705 706 707 
708 709 710 711 
712 713 714 715 
716 717 718 719 
720 721 722 723 
724 725 726 727 
728 729 730 731 
732 733 734 735 
736 737 738 739 
740 741 742 743 
744 745 746 747 
748 749 750 751 
752 753 754 755 
756 757 758 759 
760 761 762 763 
764 765 766 767 
768 769 770 771 
772 773 774 775 
776 777 778 779 
780 781 782 783 
784 785 786 787 
788 789 790 791 
792 793 794 795 
796 797 798 799 
800 801 802 803 
804 805 806 807 
808 809 810 811 
812 813 814 815 
816 817 818 819 
820 821 822 823 
824 825 826 827 
828 829 830 831 
832 833 834 835 
836 837 838 839 
840 841 842 843 
844 845 846 847 
848 849 850 851 
852 853 854 855 
856 857 858 859 
860 861 862 863 
864 865 866 867 
868 869 870 871 
872 873 874 875 
876 877 878 879 
880 881 882 883 
884 885 886 887 
888 889 890 891 
892 893 894 895 
896 897 898 899 
900 901 902 903 
904 905 906 907 
908 909 910 911 
912 913 914 915 
916 917 918 919 
920 921 922 923 
924 925 926 927 
928 929 930 931 
932 933 934 935 
936 937 938 939 
940 941 942 943 
944 945 946 947 
948 949 950 951 
952 953 954 955 
956 957 958 959 
960 961 962 963 
964 965 966 967 
968 969 970 971 
972 973 974 975 
976 977 978 979 
980 981 982 983 
984 985 986 987 
988 989 990 991 
992 993 994 995 
996 997 998 999 
1000 1001 1002 1003 
1004 1005 1006 1007 
1008 1009 1010 1011 
1012 1013 1014 1015 
1016 1017 1018 1019 
1020 1021 1022 1023 
1024 1025 1026 1027 
1028 1029 1030 1031 
1032 1033 1034 1035 
1036 1037 1038 1039 
1040 1041 1042 1043 
1044 1045 1046 1047 
1048 1049 1050 1051 
1052 1053 1054 1055 
1056 1057 1058 1059 
1060 1061 1062 1063 
1064 1065 1066 1067 
1068 1069 1070 1071 
1072 1073 1074 1075 
1076 1077 1078 1079 
1080 1081 1082 1083 
1084 1085 1086 1087 
1088 1089 1090 1091 
1092 1093 1094 1095 
1096 1097 1098 1099 
1100 1101 1102 1103 
1104 1105 1106 1107 
1108 1109 1110 1111 
1112 1113 1114 1115 
1116 1117 1118 1119 
1120 1121 1122 1123 
1124 1125 1126 1127 
1128 1129 1130 1131 
1132 1133 1134 1135 
1136 1137 1138 1139 
1140 1141 1142 1143 
1144 1145 1146 1147 
1148 1149 1150 1151 
1152 1153 1154 1155 
1156 1157 1158 1159 
1160 1161 1162 1163 
1164 1165 1166 1167 
1168 1169 1170 1171 
1172 1173 1174 1175 
1176 1177 1178 1179 
1180 1181 1182 1183 
1184 1185 1186 1187 
1188 1189 1190 1191 
1192 1193 1194 1195 
1196 1197 1198 1199 
1200 1201 1202 1203 
1204 1205 1206 1207 
1208 1209 1210 1211 
1212 1213 1214 1215 
1216 1217 1218 1219 
1220 1221 1222 1223 
1224 1225 1226 1227 
1228 1229 1230 1231 
1232 1233 1234 1235 
1236 1237 1238 1239 
1240 1241 1242 1243 
1244 1245 1246 1247 
1248 1249 1250 1251 
1252 1253 1254 1255 
1256 1257 1258 1259 
1260 1261 1262 1263 
1264 1265 1266 1267 
1268 1269 1270 1271 
1272 1273 1274 1275 
1276 1277 1278 1279 
1280 1281 1282 1283 
1284 1285 1286 1287 
1288 1289 1290 1291 
1292 1293 1294 1295 
1296 1297 1298 1299 
1300 1301 1302 1303 
1304 1305 1306 1307 
1308 1309 1310 1311 
1312 1313 1314 1315 
1316 1317 1318 1319 
1320 1321 1322 1323 
1324 1325 1326 1327 
1328 1329 1330 1331 
1332 1333 1334 1335 
1336 1337 1338 1339 
1340 1341 1342 1343 
1344 1345 1346 1347 
1348 1349 1350 1351 
1352 1353 1354 1355 
1356 1357 1358 1359 
1360 1361 1362 1363 
1364 1365 1366 1367 
1368 1369 1370 1371 
1372 1373 1374 1375 
1376 1377 1378 1379 
1380 1381 1382 1383 
1384 1385 1386 1387 
1388 1389 1390 1391 
1392 1393 1394 1395 
1396 1397 1398 1399 
1400 1401 1402 1403 1404 
1405 1406 1407 1408 
1409 1410 1411 1412 1413 
1414 1415 1416 1417 1418 
1419 1420 1421 1422 1423 
1424 1425 1426 1427 1428 
1429 1430 1431 1432 1433 
1434 1435 1436 1437 1438 
1439 1440 1441 1442 1443 
1444 1445 1446 1447 1448 
1449 1450 1451 1452 1453 
1454 1455 1456 1457 1458 
1459 1460 1461 1462 1463 
1464 1465 1466 1467 1468 
1469 1470 1471 1472 1473 
1474 1475 1476 1477 1478 
1479 1480 1481 1482 1483 
1484 1485 1486 1487 1488 
1489 1490 1491 1492 1493 
1494 1495 1496 1497 1498 
1499 1500 1501 1502 1503 
1504 1505 1506 1507 1508 
1509 1510 1511 1512 1513 
1514 1515 1516 1517 1518 
1519 1520 1521 1522 1523 1524 
1525 1526 1527 1528 1529 
1530 1531 1532 1533 1534 
1535 1536 1537 1538 1539 
1540 1541 1542 1543 1544 
1545 1546 1547 1548 1549 
1550 1551 1552 1553 1554 
1555 1556 1557 1558 1559 
1560 1561 1562 1563 1564 
1565 1566 1567 1568 1569 
1570 1571 1572 1573 1574 
1575 1576 1577 1578 1579 
1580 1581 1582 1583 1584 
1585 1586 1587 1588 1589 
1590 1591 1592 1593 1594 
1595 1596 1597 1598 1599 
1600 1601 1602 1603 1604 
1605 1606 1607 1608 1609 
1610 1611 1612 1613 1614 
1615 1616 1617 1618 1619 
1620 1621 1622 1623 1624 
1625 1626 1627 1628 1629 
1630 1631 1632 1633 1634 
1635 1636 1637 1638 1639 
1640 1641 1642 1643 
1644 1645 1646 1647 1648 
1649 1650 1651 1652 
1653 1654 1655 1656 1657 
1658 1659 1660 1661 1662 
1663 1664 1665 1666 1667 
1668 1669 1670 1671 1672 
1673 1674 1675 1676 1677 
1678 1679 1680 1681 1682 
1683 1684 1685 1686 1687 
1688 1689 1690 1691 1692 
1693 1694 1695 1696 1697 
1698 1699 1700 1701 1702 
1703 1704 1705 1706 1707 
1708 1709 1710 1711 1712 
1713 1714 1715 1716 1717 
1718 1719 1720 1721 1722 
1723 1724 1725 1726 1727 
1728 1729 1730 1731 1732 
1733 1734 1735 1736 1737 
1738 1739 1740 1741 1742 
1743 1744 1745 1746 1747 
1748 1749 1750 1751 1752 
1753 1754 1755 1756 1757 
1758 1759 1760 1761 1762 
1763 1764 1765 1766 1767 
1768 1769 1770 1771 1772 
1773 1774 1775 1776 1777 1778 
1779 1780 1781 1782 1783 
1784 1785 1786 1787 1788 
1789 1790 1791 1792 1793 
1794 1795 1796 1797 1798 
1799 1800 1801 1802 1803 
1804 1805 1806 1807 1808 
1809 1810 1811 1812 1813 
1814 1815 1816 1817 1818 
1819 1820 1821 1822 1823 
1824 1825 1826 1827 1828 
1829 1830 1831 1832 1833 
1834 1835 1836 1837 1838 
1839 1840 1841 1842 1843 
1844 1845 1846 1847 1848 
1849 1850 1851 1852 1853 
1854 1855 1856 1857 1858 
1859 1860 1861 1862 1863 
1864 1865 1866 1867 1868 
1869 1870 1871 1872 1873 
1874 1875 1876 1877 1878 
1879 1880 1881 1882 1883 
1884 1885 1886 1887 1888 
1889 1890 1891 1892 1893 
1894 1895 1896 1897 
1898 1899 1900 1901 
1902 1903 1904 1905 1906 
1907 1908 1909 1910 1911 
1912 1913 1914 1915 1916 
1917 1918 1919 1920 1921 
1922 1923 1924 1925 1926 
1927 1928 1929 1930 1931 
1932 1933 1934 1935 1936 
1937 1938 1939 1940 1941 
1942 1943 1944 1945 1946 
1947 1948 1949 1950 1951 
1952 1953 1954 1955 1956 
1957 1958 1959 1960 1961 
1962 1963 1964 1965 1966 
1967 1968 1969 1970 1971 
1972 1973 1974 1975 1976 
1977 1978 1979 1980 1981 
1982 1983 1984 1985 1986 
1987 1988 1989 1990 1991 
1992 1993 1994 1995 1996 
1997 1998 1999 2000 2001 
2002 2003 2004 2005 2006 
2007 2008 2009 2010 2011 
2012 2013 2014 2015 2016 
2017 2018 2019 2020 2021 
2022 2023 2024 2025 2026 2027 
2028 2029 2030 2031 2032 
2033 2034 2035 2036 2037 
2038 2039 2040 2041 2042 
2043 2044 2045 2046 2047 
2048 2049 2050 2051 2052 
2053 2054 2055 2056 2057 
2058 2059 2060 2061 2062 
2063 2064 2065 2066 2067 
2068 2069 2070 2071 2072 
2073 2074 2075 2076 2077 
2078 2079 2080 2081 2082 
2083 2084 2085 2086 2087 
2088 2089 2090 2091 2092 
2093 2094 2095 2096 2097 
2098 2099 2100 2101 2102 
2103 2104 2105 2106 2107 
2108 2109 2110 2111 2112 
2113 2114 2115 2116 2117 
2118 2119 2120 2121 2122 
2123 2124 2125 2126 2127 
2128 2129 2130 2131 2132 
2133 2134 2135 2136 2137 
2138 2139 2140 2141 2142 
2143 2144 2145 2146 
2147 2148 2149 2150 2151 
2152 2153 2154 2155 2156 
2157 2158 2159 2160 2161 
2162 2163 2164 2165 2166 
2167 2168 2169 2170 2171 
2172 2173 2174 2175 2176 
2177 2178 2179 2180 2181 
2182 2183 2184 2185 2186 
2187 2188 2189 2190 2191 
2192 2193 2194 2195 2196 
2197 2198 2199 2200 2201 
2202 2203 2204 2205 2206 
2207 2208 2209 2210 2211 
2212 2213 2214 2215 2216 
2217 2218 2219 2220 2221 
2222 2223 2224 2225 2226 
2227 2228 2229 2230 2231 
2232 2233 2234 2235 2236 
2237 2238 2239 2240 2241 
2242 2243 2244 2245 2246 
2247 2248 2249 2250 2251 
2252 2253 2254 2255 2256 
2257 2258 2259 2260 2261 
2262 2263 2264 2265 2266 
2267 2268 2269 2270 2271 
2272 2273 2274 2275 2276 
2277 2278 2279 2280 2281 
2282 2283 2284 2285 2286 
2287 2288 2289 2290 2291 
2292 2293 2294 2295 2296 
2297 2298 2299 2300 2301 
2302 2303 2304 2305 2306 
2307 2308 2309 2310 2311 
2312 2313 2314 2315 2316 
2317 2318 2319 2320 2321 
2322 2323 2324 2325 2326 
2327 2328 2329 2330 2331 
2332 2333 2334 2335 2336 
2337 2338 2339 2340 2341 
2342 2343 2344 2345 2346 
2347 2348 2349 2350 2351 
2352 2353 2354 2355 2356 
2357 2358 2359 2360 2361 
2362 2363 2364 2365 2366 
2367 2368 2369 2370 2371 
2372 2373 2374 2375 2376 
2377 2378 2379 2380 2381 
2382 2383 2384 2385 
2386 2387 2388 2389 2390 
2391 2392 2393 2394 2395 
2396 2397 2398 2399 2400 
2401 2402 2403 2404 2405 
2406 2407 2408 2409 2410 
2411 2412 2413 2414 2415 
2416 2417 2418 2419 2420 
2421 2422 2423 2424 2425 
2426 2427 2428 2429 2430 
2431 2432 2433 2434 2435 
2436 2437 2438 2439 2440 
2441 2442 2443 2444 2445 
2446 2447 2448 2449 2450 
2451 2452 2453 2454 2455 
2456 2457 2458 2459 
2460 2461 2462 2463 2464 
2465 2466 2467 2468 2469 
2470 2471 2472 2473 2474 
2475 2476 2477 2478 2479 
2480 2481 2482 2483 2484 
2485 2486 2487 2488 2489 
2490 2491 2492 2493 2494 
2495 2496 2497 2498 2499 
2500 2501 2502 2503 2504 
2505 2506 2507 2508 2509 
2510 2511 2512 2513 2514 
2515 2516 2517 2518 2519 
2520 2521 2522 2523 2524 
2525 2526 2527 2528 2529 
2530 2531 2532 2533 2534 
2535 2536 2537 2538 2539 
2540 2541 2542 2543 2544 
2545 2546 2547 2548 2549 
2550 2551 2552 2553 2554 
2555 2556 2557 2558 2559 
2560 2561 2562 2563 2564 
2565 2566 2567 2568 2569 
2570 2571 2572 2573 2574 
2575 2576 2577 2578 2579 
2580 2581 2582 2583 2584 
2585 2586 2587 2588 2589 
2590 2591 2592 2593 2594 
2595 2596 2597 2598 2599 
2600 2601 2602 2603 2604 
2605 2606 2607 2608 2609 
2610 2611 2612 2613 2614 
2615 2616 2617 2618 2619 
2620 2621 2622 2623 2624 
2625 2626 2627 2628 2629 
2630 2631 2632 2633 2634 
2635 2636 2637 2638 2639 
2640 2641 2642 2643 
2644 2645 2646 2647 2648 
2649 2650 2651 2652 2653 
2654 2655 2656 2657 2658 
2659 2660 2661 2662 2663 
2664 2665 2666 2667 2668 
2669 2670 2671 2672 2673 
2674 2675 2676 2677 2678 
2679 2680 2681 2682 2683 
2684 2685 2686 2687 2688 
2689 2690 2691 2692 2693 
2694 2695 2696 2697 2698 
2699 2700 2701 2702 2703 
2704 2705 2706 2707 2708 
2709 2710 2711 2712 2713 
2714 2715 2716 2717 2718 
2719 2720 2721 2722 2723 
2724 2725 2726 2727 2728 
2729 2730 2731 2732 2733 
2734 2735 2736 2737 2738 
2739 2740 2741 2742 2743 
2744 2745 2746 2747 2748 
2749 2750 2751 2752 2753 
2754 2755 2756 2757 2758 
2759 2760 2761 2762 2763 
2764 2765 2766 2767 2768 
2769 2770 2771 2772 2773 
2774 2775 2776 2777 2778 
2779 2780 2781 2782 2783 
2784 2785 2786 2787 2788 
2789 2790 2791 2792 2793 
2794 2795 2796 2797 2798 
2799 2800 2801 2802 2803 
2804 2805 2806 2807 2808 
2809 2810 2811 2812 2813 
2814 2815 2816 2817 2818 
2819 2820 2821 2822 2823 
2824 2825 2826 2827 2828 
2829 2830 2831 2832 2833 
2834 2835 2836 2837 2838 
2839 2840 2841 2842 2843 
2844 2845 2846 2847 2848 
2849 2850 2851 2852 2853 
2854 2855 2856 2857 2858 
2859 2860 2861 2862 2863 
2864 2865 2866 2867 2868 
2869 2870 2871 2872 2873 
2874 2875 2876 2877 2878 
2879 2880 2881 2882 2883 
</DataArray>
<DataArray type="Int32" Name="offsets" format="ascii">
4 8 12 16 20 24 28 32 36 40 44 48 52 56 60 64 68 72 76 80 84 88 92 96 100 104 108 112 116 120 124 128 132 136 140 144 148 152 156 160 164 168 172 176 180 184 188 192 196 200 204 208 212 216 220 224 228 232 236 240 244 248 252 256 260 264 268 272 276 280 284 288 292 296 300 304 308 312 316 320 324 328 332 336 340 344 348 352 356 360 364 368 372 376 380 384 388 392 396 400 404 408 412 416 420 424 428 432 436 440 444 448 452 456 460 464 468 472 476 480 484 488 492 496 500 504 508 512 516 520 524 528 532 536 540 544 548 552 556 560 564 568 572 576 580 584 588 592 596 600 604 608 612 616 620 624 628 632 636 640 644 648 652 656 660 664 668 672 676 680 684 688 692 696 700 704 708 712 716 720 724 728 732 736 740 744 748 752 756 760 764 768 772 776 780 784 788 792 796 800 804 808 812 816 820 824 828 832 836 840 844 848 852 856 860 864 868 872 876 880 884 888 892 896 900 904 908 912 916 920 924 928 932 936 940 944 948 952 956 960 964 968 972 976 980 984 988 992 996 1000 1004 1008 1012 1016 1020 1024 1028 1032 1036 1040 1044 1048 1052 1056 1060 1064 1068 1072 1076 1080 1084 1088 1092 1096 1100 1104 1108 1112 1116 1120 1124 1128 1132 1136 1140 1144 1148 1152 1156 1160 1164 1168 1172 1176 1180 1184 1188 1192 1196 1200 1204 1208 1212 1216 1220 1224 1228 1232 1236 1240 1244 1248 1252 1256 1260 1264 1268 1272 1276 1280 1284 1288 1292 1296 1300 1304 1308 1312 1316 1320 1324 1328 1332 1336 1340 1344 1348 1352 1356 1360 1364 1368 1372 1376 1380 1384 1388 1392 1396 1400 1405 1409 1414 1419 1424 1429 1434 1439 1444 1449 1454 1459 1464 1469 1474 1479 1484 1489 1494 1499 1504 1509 1514 1519 1525 1530 1535 1540 1545 1550 1555 1560 1565 1570 1575 1580 1585 1590 1595 1600 1605 1610 1615 1620 1625 1630 1635 1640 1644 1649 1653 1658 1663 1668 1673 1678 1683 1688 1693 1698 1703 1708 1713 1718 1723 1728 1733 1738 1743 1748 1753 1758 1763 1768 1773 1779 1784 1789 1794 1799 1804 1809 1814 1819 1824 1829 1834 1839 1844 1849 1854 1859 1864 1869 1874 1879 1884 1889 1894 1898 1902 1907 1912 1917 1922 1927 1932 1937 1942 1947 1952 1957 1962 1967 1972 1977 1982 1987 1992 1997 2002 2007 2012 2017 2022 2028 2033 2038 2043 2048 2053 2058 2063 2068 2073 2078 2083 2088 2093 2098 2103 2108 2113 2118 2123 2128 2133 2138 2143 2147 2152 2157 2162 2167 2172 2177 2182 2187 2192 2197 2202 2207 2212 2217 2222 2227 2232 2237 2242 2247 2252 2257 2262 2267 2272 2277 2282 2287 2292 2297 2302 2307 2312 2317 2322 2327 2332 2337 2342 2347 2352 2357 2362 2367 2372 2377 2382 2386 2391 2396 2401 2406 2411 2416 2421 2426 2431 2436 2441 2446 2451 2456 2460 2465 2470 2475 2480 2485 2490 2495 2500 2505 2510 2515 2520 2525 2530 2535 2540 2545 2550 2555 2560 2565 2570 2575 2580 2585 2590 2595 2600 2605 2610 2615 2620 2625 2630 2635 2640 2644 2649 2654 2659 2664 2669 2674 2679 2684 2689 2694 2699 2704 2709 2714 2719 2724 2729 2734 2739 2744 2749 2754 2759 2764 2769 2774 2779 2784 2789 2794 2799 2804 2809 2814 2819 2824 2829 2834 2839 2844 2849 2854 2859 2864 2869 2874 2879 2884 
</DataArray>
<DataArray type="UInt8" Name="types" format="ascii">
7 7 7 7 7 7 7 7 7 7 7 7 7 7 7 7 7 7 7 7 7 7 7 7 7 7 7 7 7 7 7 7 7 7 7 7 7 7 7 7 7 7 7 7 7 7 7 7 7 7 7 7 7 7 7 7 7 7 7 7 7 7 7 7 7 7 7 7 7 7 7 7 7 7 7 7 7 7 7 7 7 7 7 7 7 7 7 7 7 7 7 7 7 7 7 7 7 7 7 7 7 7 7 7 7 7 7 7 7 7 7 7 7 7 7 7 7 7 7 7 7 7 7 7 7 7 7 7 7 7 7 7 7 7 7 7 7 7 7 7 7 7 7 7 7 7 7 7 7 7 7 7 7 7 7 7 7 7 7 7 7 7 7 7 7 7 7 7 7 7 7 7 7 7 7 7 7 7 7 7 7 7 7 7 7 7 7 7 7 7 7 7 7 7 7 7 7 7 7 7 7 7 7 7 7 7 7 7 7 7 7 7 7 7 7 7 7 7 7 7 7 7 7 7 7 7 7 7 7 7 7 7 7 7 7 7 7 7 7 7 7 7 7 7 7 7 7 7 7 7 7 7 7 7 7 7 7 7 7 7 7 7 7 7 7 7 7 7 7 7 7 7 7 7 7 7 7 7 7 7 7 7 7 7 7 7 7 7 7 7 7 7 7 7 7 7 7 7 7 7 7 7 7 7 7 7 7 7 7 7 7 7 7 7 7 7 7 7 7 7 7 7 7 7 7 7 7 7 7 7 7 7 7 7 7 7 7 7 7 7 7 7 7 7 7 7 7 7 7 7 7 7 7 7 7 7 7 7 7 7 7 7 7 7 7 7 7 7 7 7 7 7 7 7 7 7 7 7 7 7 7 7 7 7 7 7 7 7 7 7 7 7 7 7 7 7 7 7 7 7 7 7 7 7 7 7 7 7 7 7 7 7 7 7 7 7 7 7 7 7 7 7 7 7 7 7 7 7 7 7 7 7 7 7 7 7 7 7 7 7 7 7 7 7 7 7 7 7 7 7 7 7 7 7 7 7 7 7 7 7 7 7 7 7 7 7 7 7 7 7 7 7 7 7 7 7 7 7 7 7 7 7 7 7 7 7 7 7 7 7 7 7 7 7 7 7 7 7 7 7 7 7 7 7 7 7 7 7 7 7 7 7 7 7 7 7 7 7 7 7 7 7 7 7 7 7 7 7 7 7 7 7 7 7 7 7 7 7 7 7 7 7 7 7 7 7 7 7 7 7 7 7 7 7 7 7 7 7 7 7 7 7 7 7 7 7 7 7 7 7 7 7 7 7 7 7 7 7 7 7 7 7 7 7 7 7 7 7 7 7 7 7 7 7 7 7 7 7 7 7 7 7 7 7 7 7 7 7 7 7 7 7 7 7 7 7 7 7 7 7 7 7 7 7 7 7 7 7 7 7 7 7 7 7 7 7 7 7 7 7 7 7 7 7 7 7 7 7 
</DataArray>
</Cells>
<CellData Scalars="cell variable 4" Vectors="cell vector">
<DataArray type="Float64" NumberOfComponents="3" Name="cell vector" format="ascii">
0.9 2 0
0.9 2 0
0.9 2 0
0.9 2 0
0.9 2 0
0.9 2 0
0.9 2 0
0.9 2 0
0.9 2 0
0.9 2 0
0.9 2 0
0.9 2 0
0.9 2 0
0.9 2 0
0.9 2 0
0.9 2 0
0.9 2 0
0.9 2 0
0.9 2 0
0.9 2 0
0.9 2 0
0.9 2 0
0.9 2 0
0.9 2 0
0.9 2 0
0.9 2 0
0.9 2 0
0.9 2 0
0.9 2 0
0.9 2 0
0.9 2 0
0.9 2 0
0.9 2 0
0.9 2 0
0.9 2 0
0.9 2 0
0.9 2 0
0.9 2 0
0.9 2 0
0.9 2 0
0.9 2 0
0.9 2 0
0.9 2 0
0.9 2 0
0.9 2 0
0.9 2 0
0.9 2 0
0.9 2 0
0.9 2 0
0.9 2 0
0.9 0 0
0.9 0 0
0.9 0 0
0.9 0 0
0.9 0 0
0.9 0 0
0.9 0 0
0.9 0 0
0.9 0 0
0.9 0 0
0.9 0 0
0.9 0 0
0.9 0 0
0.9 0 0
0.9 0 0
0.9 0 0
0.9 0 0
0.9 0 0
0.9 0 0
0.9 0 0
0.9 0 0
0.9 0 0
0.9 0 0
0.9 0 0
0.9 0 0
0.9 0 0
0.9 0 0
0.9 0 0
0.9 0 0
0.9 0 0
0.9 0 0
0.9 0 0
0.9 0 0
0.9 0 0
0.9 0 0
0.9 0 0
0.9 0 0
0.9 0 0
0.9 0 0
0.9 0 0
0.9 0 0
0.9 0 0
0.9 0 0
0.9 0 0
0.9 0 0
0.9 0 0
0.9 0 0
0.9 0 0
0.9 0 0
0.9 0 0
0.9 0 0
0.9 0 0
0.9 0 0
0.9 0 0
0.9 0 0
0.9 0 0
0.9 0 0
0.9 0 0
0.9 0 0
0.9 0 0
0.9 0 0
0.9 0 0
0.9 0 0
0.9 0 0
0.9 0 0
0.9 0 0
0.9 0 0
0.9 0 0
0.9 0 0
0.9 0 0
0.9 0 0
0.9 0 0
0.9 0 0
0.9 0 0
0.9 0 0
0.9 0 0
0.9 0 0
0.9 0 0
0.9 0 0
0.9 0 0
0.9 0 0
0.9 0 0
0.9 0 0
0.9 0 0
0.9 0 0
0.9 0 0
0.9 0 0
0.9 0 0
0.9 0 0
0.9 0 0
0.9 0 0
0.9 0 0
0.9 0 0
0.9 0 0
0.9 0 0
0.9 0 0
0.9 0 0
0.9 0 0
0.9 0 0
0.9 0 0
0.9 0 0
0.9 0 0
0.9 0 0
0.9 0 0
0.9 0 0
0.9 0 0
0.9 0 0
0.9 0 0
0.9 0 0
0.9 0 0
0.9 0 0
0.9 0 0
0.9 0 0
0.9 0 0
0.9 0 0
0.9 0 0
0.9 0 0
0.9 0 0
0.9 0 0
0.9 0 0
0.9 0 0
0.9 0 0
0.9 0 0
0.9 0 0
0.9 0 0
0.9 0 0
0.9 0 0
0.9 0 0
0.9 0 0
0.9 0 0
0.9 0 0
0.9 0 0
0.9 0 0
0.9 0 0
0.9 0 0
0.9 0 0
0.9 0 0
0.9 0 0
0.9 0 0
0.9 0 0
0.9 0 0
0.9 0 0
0.9 0 0
0.9 0 0
0.9 0 0
0.9 0 0
0.9 0 0
0.9 0 0
0.9 0 0
0.9 0 0
0.9 0 0
0.9 0 0
0.9 0 0
0.9 0 0
0.9 0 0
0.9 0 0
0.9 0 0
0.9 0 0
0.9 0 0
0.9 0 0
0.9 0 0
0.9 0 0
0.9 0 0
0.9 0 0
0.9 0 0
0.9 0 0
0.9 0 0
0.9 0 0
0.9 0 0
0.9 0 0
0.9 0 0
0.9 0 0
0.9 0 0
0.9 0 0
0.9 0 0
0.9 0 0
0.9 0 0
0.9 0 0
0.9 0 0
0.9 0 0
0.9 0 0
0.9 0 0
0.9 0 0
0.9 0 0
0.9 0 0
0.9 0 0
0.9 0 0
0.9 0 0
0.9 0 0
0.9 0 0
0.9 0 0
0.9 0 0
0.9 0 0
0.9 0 0
0.9 0 0
0.9 0 0
0.9 0 0
0.9 0 0
0.9 0 0
0.9 0 0
0.9 0 0
0.9 0 0
0.9 0 0
0.9 0 0
0.9 0 0
0.9 0 0
0.9 0 0
0.9 0 0
0.9 0 0
0.9 0 0
0.9 0 0
0.9 0 0
0.9 0 0
0.9 0 0
0.9 0 0
0.9 0 0
0.9 0 0
0.9 0 0
0.9 0 0
0.9 0 0
0.9 0 0
0.9 0 0
0.9 0 0
0.9 0 0
0.9 0 0
0.9 0 0
0.9 0 0
0.9 0 0
0.9 0 0
0.9 0 0
0.9 0 0
0.9 0 0
0.9 0 0
0.9 0 0
0.9 0 0
0.9 0 0
0.9 0 0
0.9 0 0
0.9 0 0
0.9 0 0
0.9 0 0
0.9 0 0
0.9 0 0
0.9 0 0
0.9 0 0
0.9 0 0
0.9 0 0
0.9 0 0
0.9 0 0
0.9 0 0
0.9 0 0
0.9 0 0
0.9 0 0
0.9 0 0
0.9 0 0
0.9 0 0
0.9 0 0
0.9 0 0
0.9 0 0
0.9 0 0
0.9 0 0
0.9 0 0
0.9 0 0
0.9 0 0
0.9 0 0
0.9 0 0
0.9 0 0
0.9 0 0
0.9 0 0
0.9 0 0
0.9 0 0
0.9 0 0
0.9 0 0
0.9 0 0
0.9 0 0
0.9 0 0
0.9 0 0
0.9 0 0
0.9 0 0
0.9 0 0
0.9 0 0
0.9 0 0
0.9 0 0
0.9 0 0
0.9 0 0
0.9 0 0
0.9 0 0
0.9 0 0
0.9 0 0
0.9 0 0
0.9 0 0
0.9 0 0
0.9 0 0
0.9 0 0
0.9 0 0
0.9 0 0
0.9 0 0
0.9 0 0
0.9 0 0
0.9 0 0
0.9 0 0
0.444841 0 0
0.44525 0 0
0.445579 0 0
0.445826 0 0
0.446048 0 0
0.44617 0 0
0.446256 0 0
0.446249 0 0
0.446219 0 0
0.446127 0 0
0.446034 0 0
0.445924 0 0
0.445807 0 0
0.445675 0 0
0.445564 0 0
0.445459 0 0
0.445364 0 0
0.44528 0 0
0.445208 0 0
0.445148 0 0
0.445097 0 0
0.439563 0 0
0.430751 0 0
0.467051 0 0
0.445028 0 0
0.431285 0 0
0.440136 0 0
0.4451 0 0
0.445143 0 0
0.445203 0 0
0.445276 0 0
0.445361 0 0
0.445459 0 0
0.445567 0 0
0.445685 0 0
0.445794 0 0
0.445919 0 0
0.446041 0 0
0.446128 0 0
0.446214 0 0
0.446268 0 0
0.446244 0 0
0.44619 0 0
0.446035 0 0
0.445846 0 0
0.445568 0 0
0.445264 0 0
0.444835 0 0
0.9 0 0
0.44501 0 0
0.44551 0 0
0.445835 0 0
0.446074 0 0
0.446308 0 0
0.446509 0 0
0.446631 0 0
0.446728 0 0
0.446741 0 0
0.446737 0 0
0.446693 0 0
0.446598 0 0
0.446508 0 0
0.446407 0 0
0.446286 0 0
0.446183 0 0
0.446085 0 0
0.445994 0 0
0.445912 0 0
0.44584 0 0
0.44578 0 0
0.445732 0 0
0.442344 0 0
0.432828 0 0
0.423323 0 0
0.445658 0 0
0.432057 0 0
0.441605 0 0
0.445729 0 0
0.445777 0 0
0.445837 0 0
0.44591 0 0
0.445994 0 0
0.446088 0 0
0.446192 0 0
0.446287 0 0
0.446398 0 0
0.446508 0 0
0.44661 0 0
0.446673 0 0
0.446734 0 0
0.446761 0 0
0.446713 0 0
0.446642 0 0
0.446485 0 0
0.446311 0 0
0.446071 0 0
0.445829 0 0
0.445516 0 0
0.445007 0 0
0.445729 0 0
0.446139 0 0
0.446385 0 0
0.44661 0 0
0.446831 0 0.435963
0.447005 0 0.445476
0.447176 0 0.456286
0.447303 0 0.467789
0.44735 0 0.479561
0.447381 0 0
0.447372 0 0
0.447304 0 0
0.447239 0 0
0.447156 0 1.53376
0.447064 0 1.54247
0.446953 0 1.55026
0.44686 0 1.55706
0.446772 0 1.56288
0.44669 0 0
0.446618 0 0
0.446557 0 0
0.446507 0 0
0.446469 0 3.07793
0.446443 0 3.07876
0.457046 0 3.07914
0.480012 0 3.07914
0.446579 0 3.07876
0.446466 0 0
0.446503 0 0
0.446553 0 0
0.446615 0 0
0.446689 0 0
0.446772 0 1.56288
0.446865 0 1.55706
0.446964 0 1.55026
0.447049 0 1.54247
0.447148 0 1.53376
0.44724 0 0
0.44732 0 0
0.447352 0 0
0.44738 0 0
0.447371 0 0.479561
0.447285 0 0.467789
0.447184 0 0.456286
0.447005 0 0.445476
0.446824 0 0.435963
0.446622 0 0
0.446387 0 0
0.446137 0 0
0.445731 0 0
0.45339 0 0
0.453378 0 0
0.453615 0 0
0.453613 0 0
0.453169 1 1.23232
0.453176 1 1.23232
0.452995 1 1.23232
0.452995 1 1.23232
0.452824 1 1.23232
0.452816 1 1.23232
0.452697 1 1.23232
0.452715 1 1.23232
0.45265 1 1.23232
0.452629 1 1.23232
0.453861 0 0
0.453863 0 0
0.452619 0 0
0.45262 0 0
0.452628 0 0
0.452648 0 0
0.452696 0 0
0.45268 0 0
0.452761 0 0
0.45276 0 0
0.452844 1 2.23232
0.452852 1 2.23232
0.452936 1 2.23232
0.452951 1 2.23232
0.453047 1 2.23232
0.453036 1 2.23232
0.45314 1 2.23232
0.453135 1 2.23232
0.453228 1 2.23232
0.453228 1 2.23232
0.45331 0 0
0.453311 0 0
0.453382 0 0
0.453385 0 0
0.453443 0 0
0.453447 0 0
0.453493 0 0
0.453497 0 0
0.453531 1 3.73232
0.453534 0 0
0.453557 1 3.73232
0.453421 1 3.73232
0.442954 1 3.73232
0.419988 1 3.73232
0.453692 0 0
0.453689 0 0
0.453491 0 0
0.453515 0 0
0.453926 0 0
0.453929 0 0
0.453369 0 0
0.453358 0 0
0.453272 0 0
0.453287 0 0
0.453259 0 0
0.453239 0 0
0.453263 0 0
0.453266 0 0
0.454342 0 0
0.476677 0 0
0.453307 0 0
0.453327 0 0
0.467172 0 0
0.467943 0 0
0.457656 0 0
0.458395 0 0
0.453402 0 0
0.45339 0 0
0.454268 0 0
0.454271 0 0
0.453492 0 0
0.453492 0 0
0.45422 0 0
0.454223 0 0
0.453593 0 0
0.453602 0 0
0.45416 0 0
0.454163 0 0
0.453714 0 0
0.453713 0 0
0.454088 0 0
0.45409 0 0
0.453817 0 0
0.453808 0 0
0.454006 0 0
0.454006 0 0
0.453912 0 0
0.453915 0 0
0.454165 0 0
0.454171 0 0
0.45449 0 0
0.454484 0 0
0.454271 0 0
0.454269 0 0
0.454972 0 0
0.432949 0 0
0.468715 0 0
0.469249 0 0
0.460437 0 0
0.459864 0 0
0.454903 0 0
0.4549 0 0
0.454852 0 0
0.454857 0 0
0.454792 0 0
0.454797 0 0
0.45472 0 0
0.454724 0 0
0.454639 0 0
0.454636 0 0
0.454541 0 0
0.454541 0 0
0.453952 0 0
0.453965 0 0
0.45383 0 0
0.45381 0 0
0.454433 0 0
0.454436 0 0
0.453756 0 0
0.453744 0 0
0.453751 0 0
0.453732 0 0
0.454325 0 0
0.454315 0 0
0.453786 0 0
0.453781 0 0
0.453873 0 0
0.453872 0 0
0.454154 0 0
0.454174 0 0
0.454193 0 0
0.454206 0 0
0.453966 0 0
0.453959 0 0
0.454081 0 0
0.454076 0 0
0.454421 0 0
0.454432 0 0
0.45475 0 0
0.454736 0 0
0.455159 0 0
0.455165 0 0
0.45499 0 0
0.454993 0 0
</DataArray>
<DataArray type="Float64" Name="cell vector length" format="ascii">
1.66891e-08 4.16089e-08 1.06363e-07 2.25179e-07 3.808e-07 5.27229e-07 6.79707e-07 9.89819e-07 1.89373e-06 4.44235e-06 1.07099e-05 2.37875e-05 4.66438e-05 8.0235e-05 0.000126203 0.000205491 0.000420819 0.00112423 0.00331945 0.00932734 0.0227611 0.0460074 0.075864 0.10215 0.113291 0.103414 0.0772685 0.046754 0.0228892 0.00920385 0.00317077 0.00101975 0.000360084 0.000181536 0.000132471 0.000104215 7.37398e-05 4.47869e-05 2.32797e-05 1.05773e-05 4.40908e-06 1.8856e-06 9.87867e-07 6.79242e-07 5.27119e-07 3.80774e-07 2.25173e-07 1.06361e-07 4.16086e-08 1.6689e-08 1.6775e-07 4.18684e-07 1.0739e-06 2.28246e-06 3.86463e-06 5.30883e-06 6.64928e-06 9.12291e-06 1.64606e-05 3.80027e-05 9.29514e-05 0.000211368 0.000424354 0.000743799 0.0011794 0.00189554 0.00379314 0.0101295 0.0306265 0.0883214 0.213541 0.39918 0.571334 0.669226 0.700129 0.677561 0.582804 0.406783 0.215026 0.0868051 0.0288242 0.00892144 0.00312185 0.00163668 0.00124115 0.000982135 0.000685564 0.000407851 0.000206944 9.18314e-05 3.7732e-05 1.63971e-05 9.10829e-06 6.64592e-06 5.30806e-06 3.86445e-06 2.28242e-06 1.07389e-06 4.18682e-07 1.6775e-07 9.45087e-07 2.35345e-06 6.06089e-06 1.29712e-05 2.20589e-05 3.00812e-05 3.63129e-05 4.55512e-05 7.38828e-05 0.000164764 0.000414789 0.000990023 0.00208761 0.00381397 0.0062063 0.00986959 0.0189702 0.0498965 0.151572 0.398831 0.689062 0.801772 0.778902 0.728428 0.707494 0.735325 0.791611 0.815196 0.692869 0.388247 0.137432 0.0407781 0.0142743 0.00814031 0.00656746 0.00519829 0.00351556 0.00200447 0.000968646 0.000409707 0.00016363 7.36402e-05 4.55004e-05 3.63023e-05 3.0079e-05 2.20584e-05 1.29711e-05 6.06086e-06 2.35345e-06 9.45086e-07 4.75851e-06 1.16881e-05 3.00789e-05 6.48316e-05 0.000111135 0.000151696 0.000179432 0.000210538 0.000308126 0.000658193 0.0017127 0.00433997 0.00974506 0.018848 0.0321734 0.0519367 0.0963983 0.233541 0.556863 0.805196 0.752937 0.632306 0.520509 0.446401 0.421496 0.45009 0.527006 0.63668 0.744542 0.767079 0.479435 0.170272 0.0644112 0.0407314 0.034314 0.026655 0.0172108 0.00930018 0.00423151 0.00168874 0.000653286 0.000307174 0.000210359 0.000179399 0.000151689 0.000111134 6.48314e-05 3.00789e-05 1.16881e-05 4.75851e-06 2.14387e-05 5.06639e-05 0.000128896 0.000279404 0.000484465 0.000667218 0.000784877 0.000882789 0.00118391 0.00241155 0.00650809 0.0177262 0.042898 0.0880571 0.15731 0.257 0.444238 0.799059 0.960483 0.774086 0.564082 0.405539 0.304352 0.249211 0.23341 0.252406 0.309414 0.407114 0.547158 0.701464 0.775738 0.535567 0.275839 0.196625 0.168549 0.127664 0.0789856 0.0404715 0.0171714 0.00639561 0.00239047 0.00118017 0.00088215 0.00078477 0.000667201 0.000484462 0.000279404 0.000128895 5.06639e-05 2.14387e-05 8.64078e-05 0.000185969 0.000458152 0.00099626 0.00175627 0.0024657 0.002928 0.00322733 0.0040364 0.00779393 0.0218198 0.0641621 0.159656 0.303835 0.484042 0.715688 1.06028 1.3108 1.05963 0.656384 0.39712 0.256013 0.181846 0.147159 0.141657 0.150995 0.187072 0.257521 0.379484 0.569319 0.816942 0.971762 0.777495 0.597843 0.50208 0.395573 0.269415 0.148634 0.0615893 0.0213398 0.00771205 0.00402305 0.00322523 0.00292767 0.00246565 0.00175627 0.000996259 0.000458152 0.000185969 8.64078e-05 0.00031594 0.000549542 0.00126866 0.00277011 0.00503071 0.0073502 0.00901923 0.00998155 0.0118 0.0210508 0.0590953 0.168534 0.314855 0.428625 0.553753 0.726371 0.981566 1.1772 0.974454 0.553203 0.293414 0.174224 0.119936 0.0996459 0.10618 0.105311 0.127047 0.17762 0.278439 0.472003 0.823773 1.10262 0.936036 0.6918 0.558954 0.465703 0.382105 0.292151 0.160616 0.0574934 0.0207937 0.011761 0.00997574 0.00901839 0.00735008 0.0050307 0.00277011 0.00126866 0.000549542 0.00031594 0.00107786 0.00119591 0.00254289 0.00574601 0.0112118 0.01793 0.023809 0.0273749 0.030762 0.046535 0.111596 0.244208 0.342234 0.402009 0.476561 0.612564 0.858198 1.17052 1.10238 0.611067 0.264877 0.139143 0.0922475 0.078474 0.104373 0.0881056 0.103903 0.147184 0.250806 0.515466 1.11086 1.33757 0.959551 0.638779 0.48682 0.403835 0.356875 0.31542 0.231794 0.108236 0.0459571 0.0306751 0.0273621 0.0238071 0.0179298 0.0112118 0.005746 0.00254289 0.0011959 0.00107786 0.00228515 0.00445287 0.0137196 0.0409954 0.0957259 0.169321 0.227866 0.247931 0.237462 0.258843 0.380791 0.532597 0.548412 0.485062 0.51434 0.633135 0.849134 1.22108 1.41686 0.874397 0.331099 0.163232 0.11162 0.105226 0.134173 0.194172 0.162303 0.214133 0.38295 0.959972 2.02758 1.87803 1.06109 0.678786 0.531634 0.44857 0.434428 0.503185 0.501931 0.36836 0.255967 0.236961 0.247833 0.227845 0.169316 0.095725 0.0409953 0.0137196 0.00445287 0.00228515 0.00740092 0.0264733 0.10903 0.317112 0.433096 0.593449 0.683669 0.673974 0.60687 0.724811 0.879207 0.755307 0.533349 0.359313 0.349355 0.385779 0.442453 0.587185 0.849833 0.704658 0.359017 0.209862 0.170817 0.186195 0.221609 0.267004 0.206571 0.267427 0.469031 1.02255 1.58304 1.19532 0.580378 0.414784 0.365025 0.332044 0.341401 0.505407 0.721537 0.854888 0.717949 0.605448 0.673489 0.683489 0.59339 0.433079 0.317107 0.10903 0.0264732 0.00740091 0.443099 0.443087 0.242787 0.242785 0.501479 0.501447 0.594609 0.594514 0.625448 0.625187 0.587865 0.587178 0.547902 0.545615 0.065148 0.0651478 0.764929 0.753227 0.779394 0.756173 0.596467 0.573714 0.447546 0.43071 0.365332 0.354114 0.358731 0.349227 0.381072 0.373145 0.425858 0.42145 0.543265 0.590708 0.695655 1.01823 0.627593 1.15864 0.454563 0.857571 0.337677 0.556807 0.285655 0.394911 0.295365 0.329448 0.315609 0.300635 0.271255 0.27125 0.401893 0.401868 0.137835 0.137834 0.470339 0.470251 0.464346 0.464017 0.415822 0.414378 0.488928 0.480996 0.327186 0.28987 0.664876 0.638481 0.258149 0.371247 0.248993 0.448348 0.717949 0.67408 0.297646 0.630314 0.623286 0.57407 0.442307 1.09016 0.552973 0.501329 0.816909 1.88492 0.581245 0.520278 1.22652 1.92673 0.667306 0.585967 1.13019 1.16004 0.733739 0.832963 0.0441881 0.044188 0.0123767 0.0123767 0.0171413 0.0171413 0.25144 0.240928 0.243542 0.195871 0.189751 0.289057 0.236546 0.419146 0.381762 0.747865 0.791229 1.48232 1.4602 1.82954 1.31754 1.5549 1.18653 0.879444 0.0482982 0.048297 0.0624422 0.0624343 0.683173 0.872141 0.06816 0.0682097 0.0730537 0.0727354 0.685221 0.571501 0.109407 0.111415 0.257897 0.247705 0.029647 0.0296472 0.582464 0.50827 0.466453 0.437158 0.489457 0.539236 0.0144871 0.0144871 0.0059638 0.00596379 0.00229883 0.00229883 0.00409741 0.00409741 
</DataArray>
<DataArray type="Float64" Name="cell variable 4" format="ascii">
0.00394657 0.00394658 0.0039466 0.00394663 0.00394668 0.00394673 0.00394678 0.0039469 0.00394727 0.00394832 0.00395092 0.00395634 0.00396572 0.00397907 0.00399624 0.00402425 0.00409824 0.00433478 0.00505448 0.0069595 0.0110376 0.0177641 0.0261965 0.0336621 0.036811 0.0338464 0.0263878 0.0178531 0.0110368 0.00692362 0.00501709 0.00430679 0.00408054 0.00401722 0.00399924 0.00398867 0.00397682 0.00396508 0.00395616 0.00395087 0.00394831 0.00394727 0.0039469 0.00394678 0.00394673 0.00394668 0.00394663 0.0039466 0.00394658 0.00394657 0.00394661 0.00394668 0.00394688 0.00394728 0.00394782 0.00394831 0.00394879 0.00394982 0.00395296 0.00396224 0.00398599 0.00403713 0.00412789 0.00425853 0.00442297 0.00467239 0.00531068 0.00737939 0.0136085 0.0289312 0.0584715 0.102795 0.150154 0.183459 0.195566 0.184689 0.151636 0.103604 0.0585037 0.028607 0.0132132 0.00707024 0.00511638 0.00459553 0.00445395 0.00435728 0.00423919 0.00412238 0.00403563 0.0039856 0.00396214 0.00395294 0.00394981 0.00394879 0.00394831 0.00394782 0.00394728 0.00394688 0.00394668 0.00394661 0.00394683 0.00394727 0.00394855 0.00395113 0.00395469 0.00395766 0.00395999 0.00396391 0.00397639 0.00401653 0.00412745 0.0043815 0.00485588 0.00555878 0.00642367 0.00756821 0.0102109 0.0186201 0.0424225 0.0973595 0.180365 0.242988 0.273901 0.288555 0.293886 0.290088 0.276333 0.245396 0.181075 0.0959129 0.0402629 0.0167441 0.00898694 0.00708264 0.00660639 0.00613215 0.00547284 0.00483185 0.00437523 0.00412592 0.00401618 0.00397631 0.00396389 0.00395998 0.00395766 0.00395469 0.00395113 0.00394855 0.00394727 0.00394683 0.00394799 0.00395049 0.00395781 0.003973 0.00399435 0.00401161 0.00402258 0.00403574 0.00407913 0.00423728 0.00471901 0.00590421 0.00823713 0.0117783 0.0160637 0.0209381 0.0300575 0.0566333 0.127726 0.226963 0.268991 0.291652 0.314145 0.333102 0.341355 0.33438 0.315981 0.293603 0.2701 0.224651 0.118046 0.0473111 0.0236494 0.0183241 0.0170673 0.0148142 0.0113911 0.00812681 0.00587623 0.00471263 0.00423593 0.00407885 0.00403568 0.00402257 0.00401161 0.00399435 0.003973 0.00395781 0.00395049 0.00394799 0.00395367 0.00396606 0.00400313 0.00408296 0.004199 0.00429133 0.00434258 0.00438151 0.00451039 0.00507273 0.00699759 0.0120429 0.0221435 0.0370578 0.0544879 0.0716067 0.0970955 0.161624 0.242709 0.270525 0.297983 0.336405 0.378646 0.4128 0.425774 0.412996 0.378954 0.337774 0.299241 0.267703 0.223032 0.123949 0.0701277 0.0610247 0.0592248 0.0501268 0.0355661 0.0216756 0.0119185 0.00697005 0.00506735 0.00450941 0.00438133 0.00434255 0.00429132 0.004199 0.00408296 0.00400313 0.00396606 0.00395367 0.00397852 0.00403091 0.00419222 0.00455696 0.00511464 0.00555613 0.00578517 0.00588617 0.00617873 0.00788052 0.0145408 0.0324043 0.0669287 0.112524 0.157554 0.194051 0.239594 0.293041 0.293383 0.296421 0.337187 0.399418 0.463429 0.509583 0.520721 0.505658 0.458765 0.397886 0.338694 0.291239 0.260257 0.231686 0.18174 0.171561 0.169919 0.147876 0.108384 0.0654113 0.0319593 0.0144354 0.00786049 0.00617537 0.00588563 0.00578508 0.00555612 0.00511464 0.00455696 0.00419222 0.00403091 0.00397852 0.00407758 0.00425568 0.0048282 0.00621988 0.00851947 0.0103286 0.0112554 0.011503 0.0118269 0.0156377 0.0336208 0.0817597 0.154349 0.206862 0.24576 0.271232 0.297524 0.325304 0.322955 0.317801 0.373913 0.460503 0.54087 0.59191 0.585534 0.579012 0.527681 0.454123 0.375338 0.308071 0.285276 0.296402 0.272658 0.260615 0.258946 0.240226 0.203038 0.151742 0.0806241 0.0333266 0.0155795 0.0118177 0.0115017 0.0112552 0.0103286 0.00851947 0.00621988 0.0048282 0.00425568 0.00407758 0.00445665 0.00485712 0.00633965 0.0104045 0.0179212 0.0235416 0.026433 0.0270881 0.0264077 0.0300169 0.058473 0.117984 0.162491 0.197711 0.227553 0.241909 0.253452 0.278766 0.277678 0.256508 0.307094 0.424823 0.52596 0.571346 0.512244 0.521834 0.486878 0.404632 0.305119 0.23414 0.259526 0.280154 0.250493 0.240429 0.242883 0.229927 0.198349 0.162175 0.117231 0.0580817 0.0299261 0.0263945 0.0270863 0.0264327 0.0235416 0.0179212 0.0104045 0.00633965 0.00485712 0.00445665 0.00554418 0.00642304 0.0116088 0.0265851 0.0533291 0.0733175 0.0839194 0.0861518 0.0810653 0.0762915 0.104371 0.163658 0.20813 0.240957 0.276015 0.289243 0.294341 0.326795 0.343056 0.305279 0.281771 0.365171 0.447431 0.46574 0.414576 0.351006 0.356659 0.310772 0.25344 0.262535 0.379416 0.363782 0.294531 0.285806 0.293356 0.280048 0.242571 0.207089 0.162233 0.103591 0.0761521 0.0810635 0.0861522 0.0839196 0.0733176 0.0533291 0.0265851 0.0116088 0.00642304 0.00554418 0.00765772 0.0147039 0.0432523 0.116797 0.174691 0.221314 0.23409 0.230566 0.201228 0.184455 0.188266 0.217633 0.242435 0.267766 0.307611 0.312108 0.299205 0.300994 0.32908 0.318721 0.269757 0.301343 0.346348 0.33841 0.310511 0.294448 0.311679 0.278824 0.248695 0.291921 0.376559 0.326665 0.271766 0.297265 0.315491 0.310788 0.270131 0.241862 0.215547 0.186713 0.184473 0.201312 0.230575 0.234094 0.221316 0.174691 0.116797 0.0432523 0.0147039 0.00765772 0.195651 0.195651 0.0914758 0.0914757 0.232445 0.232447 0.262458 0.262462 0.266787 0.26679 0.255814 0.25584 0.203637 0.203815 0.029132 0.029132 0.208373 0.207792 0.238736 0.23711 0.268757 0.268215 0.30649 0.30736 0.333498 0.335124 0.372963 0.374832 0.381375 0.383398 0.359238 0.351431 0.341045 0.296208 0.382973 0.349558 0.36456 0.366773 0.342067 0.32818 0.353466 0.317968 0.346238 0.327684 0.379894 0.325452 0.392755 0.410898 0.113787 0.113787 0.143249 0.14325 0.0592907 0.0592907 0.152705 0.152707 0.149639 0.149651 0.130218 0.13027 0.119796 0.11941 0.326464 0.36471 0.165969 0.164189 0.377833 0.299945 0.381375 0.292678 0.231947 0.229958 0.363175 0.286838 0.270372 0.269983 0.329084 0.298755 0.304286 0.30628 0.341277 0.377079 0.330797 0.335531 0.359297 0.387379 0.335555 0.339659 0.354619 0.326881 0.320124 0.3337 0.0237303 0.0237303 0.00974286 0.00974286 0.0109086 0.0109086 0.424352 0.491095 0.424567 0.489923 0.477197 0.391554 0.421857 0.339213 0.349607 0.295014 0.324757 0.334694 0.362533 0.356679 0.30316 0.356403 0.318046 0.28728 0.0316726 0.0316725 0.0359068 0.0359061 0.296344 0.301784 0.0366751 0.0366797 0.0358927 0.0358592 0.287214 0.286517 0.0427947 0.0430174 0.0845479 0.0835962 0.0235358 0.0235358 0.255121 0.253584 0.162966 0.160871 0.215439 0.217527 0.0133766 0.0133766 0.0074875 0.0074875 0.00512899 0.00512899 0.00580139 0.00580139 
</DataArray>
</CellData>
</Piece>
</UnstructuredGrid>
</VTKFile>
